<svg xmlns="http://www.w3.org/2000/svg" width="213.343" height="44.084" viewBox="0 0 213.343 44.084">
  <g id="brand-logo-footer" transform="translate(106.671 22.042)">
    <g id="グループ_1473" data-name="グループ 1473" transform="translate(-105.568 -20.939)">
      <path id="パス_7428" data-name="パス 7428" d="M164.643,26.1a2.742,2.742,0,1,1-2.742,2.617,2.617,2.617,0,0,1,2.742-2.617Zm0,4.861a2.119,2.119,0,1,0-2.119-2.119,2.119,2.119,0,0,0,2.119,2.119Zm-1-.748V27.472h1c.5,0,1.246.125,1.246.748a.623.623,0,0,1-.5.623h0a.877.877,0,0,1,.5.623l.249.623h-.623a2.369,2.369,0,0,1-.249-.623c-.125-.374-.374-.374-.872-.374v1.122Zm.623-1.5c.5,0,1,0,1-.374s-.125-.374-.623-.374h-.374Z" transform="translate(38.764 5.308)" fill="#252525"/>
      <path id="パス_7429" data-name="パス 7429" d="M207.672,9H26.077V4.764A3.864,3.864,0,0,0,22.213.9,19.443,19.443,0,0,0,6.384,9H5.262A4.362,4.362,0,0,0,.9,13.364V38.416a4.362,4.362,0,0,0,4.362,4.362h202.41a4.362,4.362,0,0,0,4.362-4.362V13.488A4.362,4.362,0,0,0,207.672,9Z" transform="translate(-0.9 -0.9)" fill="none" stroke="#0b4093" stroke-width="2.206"/>
      <path id="パス_7430" data-name="パス 7430" d="M52.358,22.9a40.631,40.631,0,0,0,3.864-7.478,1.371,1.371,0,0,0,0-1.371A1.62,1.62,0,0,0,54.85,13.3H41.764a1.122,1.122,0,0,0,0,2.119H52.233C49.491,22.772,45.627,27.633,39.52,31.5a1,1,0,0,0-.5,1.371.872.872,0,0,0,.748.5h.623a31.782,31.782,0,0,0,10.469-8.475,39.759,39.759,0,0,1,5.983,7.977,1,1,0,0,0,.872.5l.623-.249,1.246-.872a1.122,1.122,0,0,0,.249-1.62,35.771,35.771,0,0,0-7.478-7.478" transform="translate(8.465 2.155)" fill="#0b4093"/>
      <path id="パス_7431" data-name="パス 7431" d="M75.469,14.6H57.022a1.061,1.061,0,0,0-.872,1.745,1.122,1.122,0,0,0,.872.249H71.979A22.31,22.31,0,0,1,66,24.946a19.443,19.443,0,0,0-4.487-3.365h-.623a1.086,1.086,0,0,0-.623,1.994,28.043,28.043,0,0,1,7.354,8.974,1,1,0,0,0,.872.623l.623-.249,1.122-.872a1.122,1.122,0,0,0,.249-1.62,30.91,30.91,0,0,0-2.867-3.614,28.043,28.043,0,0,0,8.6-9.846h0a1.994,1.994,0,0,0-.125-1.62,1.122,1.122,0,0,0-.872-.374" transform="translate(12.649 2.474)" fill="#0b4093"/>
      <path id="パス_7432" data-name="パス 7432" d="M90.177,20.3h-15.7c-.5,0-.872.374-.872,1.122v.872c0,.748.374,1.122.872,1.122h15.7c.5,0,.872-.374.872-1.122v-.872c0-.748-.374-1.122-.872-1.122" transform="translate(17.011 3.88)" fill="#0b4093"/>
      <path id="パス_7433" data-name="パス 7433" d="M112.424,20.622h-.5a.623.623,0,0,0-.5.374v.249a.748.748,0,0,0,.125,1l2.368,2.243a17.7,17.7,0,0,1-2.243,2.617.748.748,0,0,0-.125,1v.249a.623.623,0,0,0,.5.374h.5a17.574,17.574,0,0,0,2.493-2.617l1.62,1.994a.623.623,0,0,0,1,0l.374-.374a.748.748,0,0,0,0-1l-1.87-2.243a23.3,23.3,0,0,0,1.87-3.614.748.748,0,0,0-.374-1l-.748-.374h-.374a.636.636,0,0,0-.623.5,19.194,19.194,0,0,1-1.371,2.991l-2.368-2.119" transform="translate(26.297 3.682)" fill="#252525"/>
      <path id="パス_7434" data-name="パス 7434" d="M113.382,18.646a.746.746,0,0,0,.623.623h.249L115,19.02a.748.748,0,0,0,.5-1,40.013,40.013,0,0,0-1.5-4.736.623.623,0,0,0-.872-.374l-.748.249-.374.374a.873.873,0,0,0,0,.623,40.492,40.492,0,0,1,1.371,4.612" transform="translate(26.46 2.044)" fill="#252525"/>
      <path id="パス_7435" data-name="パス 7435" d="M110.908,19.6h.249l.748-.249a.748.748,0,0,0,.5-1c-.374-1.246-.872-2.617-1.5-4.362a.623.623,0,0,0-.872-.374l-.748.249-.374.374a.748.748,0,0,0,0,.623,42.153,42.153,0,0,1,1.371,4.238c.374,1.5.5.623.623.623" transform="translate(25.694 2.216)" fill="#252525"/>
      <path id="パス_7436" data-name="パス 7436" d="M119.395,13.26l-.748-.249a.623.623,0,0,0-.872.5,35.024,35.024,0,0,1-2.243,5.359.623.623,0,0,0,.249,1l.623.374h.374a.623.623,0,0,0,.623-.374,33.028,33.028,0,0,0,2.493-5.609.872.872,0,0,0,0-.623l-.374-.374" transform="translate(27.303 2.07)" fill="#252525"/>
      <path id="パス_7437" data-name="パス 7437" d="M120.719,19.3h-.872a.623.623,0,0,0-.748.748v9.6h-7.852v-9.6a.623.623,0,0,0-.748-.748h-.748a.623.623,0,0,0-.748.748V31.144a.623.623,0,0,0,.748.748h10.968a.623.623,0,0,0,.748-.748V20.051a.623.623,0,0,0-.748-.748" transform="translate(25.729 3.63)" fill="#252525"/>
      <path id="パス_7438" data-name="パス 7438" d="M109.094,13.3h-4.736a.623.623,0,0,0-.748.748v7.727a35.9,35.9,0,0,1-1,9.846.872.872,0,0,0,.249,1l.623.623.5.249c.125,0,.374,0,.5-.5a25.8,25.8,0,0,0,1.122-6.855h1.745v5.733c0,.5,0,1.371.374,1.371s1.5-.249,1.5-.5a5.609,5.609,0,0,0,.249-2.493v-16.2a.623.623,0,0,0-.748-.748m-1.5,5.609h-1.745V14.8h1.745Zm0,1.5V24.77h-1.745V20.283Z" transform="translate(24.143 2.152)" fill="#252525"/>
      <path id="パス_7439" data-name="パス 7439" d="M102.265,23.968a60.45,60.45,0,0,0-8.849-4.487V14.122A1.122,1.122,0,0,0,92.294,13h-.872A1.122,1.122,0,0,0,90.3,14.122v18.2a1.122,1.122,0,0,0,1.122,1.122h.872a1.122,1.122,0,0,0,1.122-1.122V21.849c1.994,1.122,4.487,2.867,7.354,4.861l.623.249a1.122,1.122,0,0,0,1-.623l.374-.872a1.122,1.122,0,0,0-.5-1.5" transform="translate(21.125 2.081)" fill="#0b4093"/>
      <path id="パス_7440" data-name="パス 7440" d="M131.9,19.214h.125a.872.872,0,0,0,1-1V15.6a.872.872,0,0,0-1-1H131.9a.872.872,0,0,0-1,1v2.617a.872.872,0,0,0,1,1" transform="translate(31.125 2.473)" fill="#252525"/>
      <path id="パス_7441" data-name="パス 7441" d="M134.665,23.843a64.561,64.561,0,0,0-8.849-4.362V14.122A1.122,1.122,0,0,0,124.694,13h-.872a1.122,1.122,0,0,0-1.122,1.122V32.443a1.122,1.122,0,0,0,1.122,1.122h.872a1.122,1.122,0,0,0,1.122-1.122V21.849c2.119,1.246,4.736,2.991,7.354,4.861l.623.249a1.122,1.122,0,0,0,1-.623l.374-.872a1.122,1.122,0,0,0-.5-1.5" transform="translate(29.107 2.081)" fill="#252525"/>
      <path id="パス_7442" data-name="パス 7442" d="M129.2,19.214h.125a.872.872,0,0,0,1-1V15.6a.872.872,0,0,0-1-1H129.2a.872.872,0,0,0-1,1v2.617a.872.872,0,0,0,1,1" transform="translate(30.46 2.473)" fill="#252525"/>
      <path id="パス_7443" data-name="パス 7443" d="M140.248,22.769a.748.748,0,0,0,.748.623h.374l1-.374.5-.374a.748.748,0,0,0-.125-.623,20.564,20.564,0,0,0-2.493-3.864,1.122,1.122,0,0,0-1.62.125.748.748,0,0,0,0,.872,20.813,20.813,0,0,1,1.5,3.864" transform="translate(32.997 3.281)" fill="#252525"/>
      <path id="パス_7444" data-name="パス 7444" d="M139.341,23.781a.748.748,0,0,0-.125-.623,19.068,19.068,0,0,0-2.368-3.49,1.122,1.122,0,0,0-1.62,0,.748.748,0,0,0,0,.872,20.314,20.314,0,0,1,1.5,3.614.748.748,0,0,0,.748.623h.374l1-.374a.872.872,0,0,0,.5-.5" transform="translate(32.159 3.639)" fill="#252525"/>
      <path id="パス_7445" data-name="パス 7445" d="M148.173,18.783l-1-.374a.872.872,0,0,0-1.122.623c-1.5,5.484-3.116,8.849-7.852,11.467a.717.717,0,0,0-.374,1.122.748.748,0,0,0,.748.374h.5c5.858-2.867,8.1-6.855,9.722-12.09a.872.872,0,0,0-.623-1.122" transform="translate(32.799 3.403)" fill="#252525"/>
      <path id="パス_7446" data-name="パス 7446" d="M167.36,13.923a1.5,1.5,0,0,0-1.246-.623H155.644c-1.122,0-1.122.249-1.745,1.5a24.553,24.553,0,0,1-4.736,6.481,1.246,1.246,0,0,0-.249,1.246,1,1,0,0,0,1.5.5,20.939,20.939,0,0,0,6.356-7.354h6.73c-2.617,7.977-6.107,12.464-12.09,16.2a1.122,1.122,0,0,0-.5,1.246,1,1,0,0,0,1,.872h.5c7.6-3.864,11.716-8.725,15.33-18.2a1.5,1.5,0,0,0-.125-1.371" transform="translate(35.548 2.155)" fill="#252525"/>
      <path id="パス_7447" data-name="パス 7447" d="M18.41,10.6v1.371a3.864,3.864,0,0,0-3.864,3.864H13.3A5.235,5.235,0,0,1,18.535,10.6" transform="translate(2.155 1.49)" fill="#0b4093"/>
      <path id="パス_7448" data-name="パス 7448" d="M19.049,7.6h.125V9.22h-.125a7.229,7.229,0,0,0-7.229,7.229H10.2A8.849,8.849,0,0,1,19.049,7.6" transform="translate(1.391 0.751)" fill="#0b4093"/>
      <path id="パス_7449" data-name="パス 7449" d="M19.987,4.2V6.07A11.342,11.342,0,0,0,8.77,17.287H6.9A13.211,13.211,0,0,1,19.987,4.2" transform="translate(0.578 -0.087)" fill="#0b4093"/>
      <path id="パス_7450" data-name="パス 7450" d="M16.872,31.867H34.322l1-2.867H16l.872,2.867" transform="translate(2.82 6.023)" fill="#0b4093"/>
      <path id="パス_7451" data-name="パス 7451" d="M16.2,29.878H35.02L29.411,22.4h-7.6L16.2,29.878" transform="translate(2.869 4.397)" fill="#0b4093"/>
      <path id="パス_7452" data-name="パス 7452" d="M15.609,22.749a10.345,10.345,0,1,1,18.322,6.73l.748.872a11.467,11.467,0,1,0-17.324,0l.748-.872a10.345,10.345,0,0,1-2.493-6.73" transform="translate(2.463 1.68)" fill="#0b4093"/>
      <path id="パス_7453" data-name="パス 7453" d="M20.412,22.451a5.235,5.235,0,1,1,9.971,2.368l2.867,3.864a9.846,9.846,0,1,0-15.206,0l2.867-3.864a5.235,5.235,0,0,1-.5-2.368" transform="translate(2.771 1.978)" fill="#0b4093"/>
    </g>
  </g>
</svg>
