<svg xmlns="http://www.w3.org/2000/svg" width="193.222" height="39.926" viewBox="0 0 193.222 39.926">
  <g id="brand-logo" transform="translate(96.611 19.963)">
    <g id="グループ_1" data-name="グループ 1" transform="translate(-95.612 -18.964)">
      <path id="パス_27" data-name="パス 27" d="M164.384,26.1a2.483,2.483,0,1,1-2.483,2.371,2.371,2.371,0,0,1,2.483-2.371Zm0,4.4a1.919,1.919,0,1,0-1.919-1.919,1.919,1.919,0,0,0,1.919,1.919Zm-.9-.677V27.342h.9c.452,0,1.129.113,1.129.677a.564.564,0,0,1-.452.564h0a.8.8,0,0,1,.452.564l.226.564h-.564a2.146,2.146,0,0,1-.226-.564c-.113-.339-.339-.339-.79-.339v1.016Zm.564-1.355c.452,0,.9,0,.9-.339s-.113-.339-.564-.339h-.339Z" transform="translate(19.839 2.346)" fill="#252525"/>
      <path id="パス_28" data-name="パス 28" d="M188.171,8.237H23.7V4.4A3.5,3.5,0,0,0,20.2.9,17.61,17.61,0,0,0,5.867,8.237H4.851A3.951,3.951,0,0,0,.9,12.188V34.877a3.951,3.951,0,0,0,3.951,3.951h183.32a3.951,3.951,0,0,0,3.951-3.951V12.3a3.951,3.951,0,0,0-3.951-4.064Z" transform="translate(-0.9 -0.9)" fill="none" stroke="#0b4093" stroke-width="1.998"/>
      <path id="パス_29" data-name="パス 29" d="M51.09,21.992a36.8,36.8,0,0,0,3.5-6.773,1.242,1.242,0,0,0,0-1.242,1.467,1.467,0,0,0-1.242-.677H41.495a1.016,1.016,0,0,0,0,1.919h9.482c-2.483,6.66-5.983,11.062-11.514,14.562a.9.9,0,0,0-.452,1.242.79.79,0,0,0,.677.452h.564A28.785,28.785,0,0,0,49.735,23.8a36.009,36.009,0,0,1,5.418,7.224.9.9,0,0,0,.79.452l.564-.226,1.129-.79a1.016,1.016,0,0,0,.226-1.467,32.4,32.4,0,0,0-6.773-6.773" transform="translate(3.997 0.697)" fill="#0b4093"/>
      <path id="パス_30" data-name="パス 30" d="M73.623,14.6H56.916a.961.961,0,0,0-.79,1.58,1.016,1.016,0,0,0,.79.226H70.462a20.206,20.206,0,0,1-5.418,7.563,17.61,17.61,0,0,0-4.064-3.048h-.564a.983.983,0,0,0-.564,1.806,25.4,25.4,0,0,1,6.66,8.127.9.9,0,0,0,.79.564l.564-.226,1.016-.79a1.016,1.016,0,0,0,.226-1.467,28,28,0,0,0-2.6-3.274A25.4,25.4,0,0,0,74.3,16.746h0a1.806,1.806,0,0,0-.113-1.467,1.016,1.016,0,0,0-.79-.339" transform="translate(6.185 0.864)" fill="#0b4093"/>
      <path id="パス_31" data-name="パス 31" d="M88.613,20.3H74.39c-.452,0-.79.339-.79,1.016v.79c0,.677.339,1.016.79,1.016H88.613c.452,0,.79-.339.79-1.016v-.79c0-.677-.339-1.016-.79-1.016" transform="translate(8.465 1.599)" fill="#0b4093"/>
      <path id="パス_32" data-name="パス 32" d="M112.317,20.516h-.452a.564.564,0,0,0-.452.339v.226a.677.677,0,0,0,.113.9l2.145,2.032a16.03,16.03,0,0,1-2.032,2.371.677.677,0,0,0-.113.9v.226a.564.564,0,0,0,.452.339h.452a15.916,15.916,0,0,0,2.258-2.371l1.467,1.806a.564.564,0,0,0,.9,0l.339-.339a.677.677,0,0,0,0-.9L115.7,24.015a21.109,21.109,0,0,0,1.693-3.274.677.677,0,0,0-.339-.9l-.677-.339h-.339a.576.576,0,0,0-.564.452,17.385,17.385,0,0,1-1.242,2.709l-2.145-1.919" transform="translate(13.32 1.496)" fill="#252525"/>
      <path id="パス_33" data-name="パス 33" d="M113.248,18.1a.676.676,0,0,0,.564.564h.226l.677-.226a.677.677,0,0,0,.452-.9,36.241,36.241,0,0,0-1.355-4.29.564.564,0,0,0-.79-.339l-.677.226-.339.339a.79.79,0,0,0,0,.564,36.675,36.675,0,0,1,1.242,4.177" transform="translate(13.406 0.639)" fill="#252525"/>
      <path id="パス_34" data-name="パス 34" d="M110.713,19.025h.226l.677-.226a.677.677,0,0,0,.452-.9c-.339-1.129-.79-2.371-1.355-3.951a.564.564,0,0,0-.79-.339l-.677.226-.339.339a.677.677,0,0,0,0,.564,38.176,38.176,0,0,1,1.242,3.838c.339,1.355.452.564.564.564" transform="translate(13.005 0.729)" fill="#252525"/>
      <path id="パス_35" data-name="パス 35" d="M119.016,13.231l-.677-.226a.564.564,0,0,0-.79.452,31.719,31.719,0,0,1-2.032,4.854.564.564,0,0,0,.226.9l.564.339h.339a.564.564,0,0,0,.564-.339,29.913,29.913,0,0,0,2.258-5.08.79.79,0,0,0,0-.564l-.339-.339" transform="translate(13.846 0.653)" fill="#252525"/>
      <path id="パス_36" data-name="パス 36" d="M119.613,19.3h-.79a.564.564,0,0,0-.677.677v8.692h-7.112V19.979a.564.564,0,0,0-.677-.677h-.677a.564.564,0,0,0-.677.677V30.025a.564.564,0,0,0,.677.677h9.934a.564.564,0,0,0,.677-.677V19.979a.564.564,0,0,0-.677-.677" transform="translate(13.024 1.469)" fill="#252525"/>
      <path id="パス_37" data-name="パス 37" d="M108.476,13.3h-4.29a.564.564,0,0,0-.677.677v7a32.51,32.51,0,0,1-.9,8.918.79.79,0,0,0,.226.9l.564.564.452.226c.113,0,.339,0,.452-.452a23.365,23.365,0,0,0,1.016-6.208h1.58v5.193c0,.452,0,1.242.339,1.242s1.355-.226,1.355-.452a5.08,5.08,0,0,0,.226-2.258V13.979a.564.564,0,0,0-.677-.677m-1.355,5.08H105.2V14.656h1.58Zm0,1.355v3.951H105.2V19.623Z" transform="translate(12.194 0.696)" fill="#252525"/>
      <path id="パス_38" data-name="パス 38" d="M101.137,22.934a54.748,54.748,0,0,0-8.015-4.064V14.016A1.016,1.016,0,0,0,92.106,13h-.79A1.016,1.016,0,0,0,90.3,14.016V30.5a1.016,1.016,0,0,0,1.016,1.016h.79A1.016,1.016,0,0,0,93.122,30.5V21.015c1.806,1.016,4.064,2.6,6.66,4.4l.564.226a1.016,1.016,0,0,0,.9-.564l.339-.79a1.016,1.016,0,0,0-.452-1.355" transform="translate(10.616 0.659)" fill="#0b4093"/>
      <path id="パス_39" data-name="パス 39" d="M131.8,18.778h.113a.79.79,0,0,0,.9-.9V15.5a.79.79,0,0,0-.9-.9H131.8a.79.79,0,0,0-.9.9v2.371a.79.79,0,0,0,.9.9" transform="translate(15.845 0.864)" fill="#252525"/>
      <path id="パス_40" data-name="パス 40" d="M133.537,22.821a58.473,58.473,0,0,0-8.015-3.951V14.016A1.016,1.016,0,0,0,124.506,13h-.79a1.016,1.016,0,0,0-1.016,1.016V30.61a1.016,1.016,0,0,0,1.016,1.016h.79a1.016,1.016,0,0,0,1.016-1.016V21.015c1.919,1.129,4.29,2.709,6.66,4.4l.564.226a1.016,1.016,0,0,0,.9-.564l.339-.79a1.016,1.016,0,0,0-.452-1.355" transform="translate(14.79 0.659)" fill="#252525"/>
      <path id="パス_41" data-name="パス 41" d="M129.1,18.778h.113a.79.79,0,0,0,.9-.9V15.5a.79.79,0,0,0-.9-.9H129.1a.79.79,0,0,0-.9.9v2.371a.79.79,0,0,0,.9.9" transform="translate(15.497 0.864)" fill="#252525"/>
      <path id="パス_42" data-name="パス 42" d="M140.082,22.306a.677.677,0,0,0,.677.564h.339l.9-.339.452-.339a.677.677,0,0,0-.113-.564,18.624,18.624,0,0,0-2.258-3.5,1.016,1.016,0,0,0-1.467.113.677.677,0,0,0,0,.79,18.849,18.849,0,0,1,1.355,3.5" transform="translate(16.824 1.286)" fill="#252525"/>
      <path id="パス_43" data-name="パス 43" d="M138.94,23.361a.677.677,0,0,0-.113-.564,17.27,17.27,0,0,0-2.145-3.161,1.016,1.016,0,0,0-1.467,0,.677.677,0,0,0,0,.79,18.4,18.4,0,0,1,1.355,3.274.677.677,0,0,0,.677.564h.339l.9-.339a.79.79,0,0,0,.452-.452" transform="translate(16.386 1.473)" fill="#252525"/>
      <path id="パス_44" data-name="パス 44" d="M147.184,18.743l-.9-.339a.79.79,0,0,0-1.016.564c-1.355,4.967-2.822,8.015-7.112,10.385a.65.65,0,0,0-.339,1.016.677.677,0,0,0,.677.339h.452c5.305-2.6,7.337-6.208,8.8-10.95a.79.79,0,0,0-.564-1.016" transform="translate(16.72 1.35)" fill="#252525"/>
      <path id="パス_45" data-name="パス 45" d="M165.614,13.864a1.355,1.355,0,0,0-1.129-.564H155c-1.016,0-1.016.226-1.58,1.355a22.237,22.237,0,0,1-4.289,5.87,1.129,1.129,0,0,0-.226,1.129.9.9,0,0,0,1.355.452,18.964,18.964,0,0,0,5.757-6.66h6.1c-2.37,7.224-5.531,11.288-10.95,14.675a1.016,1.016,0,0,0-.452,1.129.9.9,0,0,0,.9.79h.452c6.886-3.5,10.611-7.9,13.884-16.481a1.355,1.355,0,0,0-.113-1.242" transform="translate(18.158 0.697)" fill="#252525"/>
      <path id="パス_46" data-name="パス 46" d="M17.928,10.6v1.242a3.5,3.5,0,0,0-3.5,3.5H13.3A4.741,4.741,0,0,1,18.041,10.6" transform="translate(0.697 0.35)" fill="#0b4093"/>
      <path id="パス_47" data-name="パス 47" d="M18.215,7.6h.113V9.067h-.113a6.547,6.547,0,0,0-6.547,6.547H10.2A8.015,8.015,0,0,1,18.215,7.6" transform="translate(0.298 -0.037)" fill="#0b4093"/>
      <path id="パス_48" data-name="パス 48" d="M18.753,4.2V5.893A10.272,10.272,0,0,0,8.593,16.053H6.9A11.965,11.965,0,0,1,18.753,4.2" transform="translate(-0.127 -0.475)" fill="#0b4093"/>
      <path id="パス_49" data-name="パス 49" d="M16.79,31.6h15.8l.9-2.6H16l.79,2.6" transform="translate(1.045 2.72)" fill="#0b4093"/>
      <path id="パス_50" data-name="パス 50" d="M16.2,29.173H33.245L28.165,22.4H21.28L16.2,29.173" transform="translate(1.071 1.87)" fill="#0b4093"/>
      <path id="パス_51" data-name="パス 51" d="M15.51,21.676a9.369,9.369,0,1,1,16.594,6.1l.677.79a10.385,10.385,0,1,0-15.691,0l.677-.79a9.369,9.369,0,0,1-2.258-6.1" transform="translate(0.858 0.449)" fill="#0b4093"/>
      <path id="パス_52" data-name="パス 52" d="M19.977,21.52a4.741,4.741,0,1,1,9.031,2.145l2.6,3.5a8.918,8.918,0,1,0-13.772,0l2.6-3.5a4.741,4.741,0,0,1-.452-2.145" transform="translate(1.019 0.605)" fill="#0b4093"/>
    </g>
  </g>
</svg>
