<svg xmlns="http://www.w3.org/2000/svg" width="138" height="138" viewBox="0 0 138 138">
  <g id="catchcopy-sub-second-1" transform="translate(174 -294)">
    <g id="楕円形_144" data-name="楕円形 144" transform="translate(-174 294)" fill="#fff" stroke="#f4841c" stroke-width="3">
      <circle cx="69" cy="69" r="69" stroke="none"/>
      <circle cx="69" cy="69" r="67.5" fill="none"/>
    </g>
    <g id="ネット予約なら簡単_早い_便利" data-name="ネット予約なら簡単・早い・便利" transform="translate(-152.929 326.989)">
      <g id="グループ_1032" data-name="グループ 1032" transform="translate(-6.071 0.305)">
        <g id="グループ_1718" data-name="グループ 1718" transform="translate(4.866)">
          <path id="パス_6733" data-name="パス 6733" d="M798.014,152.227h-.493c-.317,0-.495-.176-.442-.494v-5.8a18.57,18.57,0,0,1-5.026,2.769c-.317.107-.511.035-.582-.194-.088-.229.018-.423.3-.546a19.122,19.122,0,0,0,7.6-6.543h-5.678a.433.433,0,0,1-.494-.476c0-.3.176-.458.494-.458h7.689c.283,0,.441.053.494.194s.018.3-.157.582a20.893,20.893,0,0,1-3.3,3.722l.088,6.754A.446.446,0,0,1,798.014,152.227Zm.229-12.521a27.383,27.383,0,0,0-2.927-2.1c-.283-.159-.354-.37-.23-.6s.317-.282.6-.176a21.89,21.89,0,0,1,3.281,1.658.448.448,0,0,1,.176.67l-.211.405A.415.415,0,0,1,798.243,139.706Zm4.321,9.116a15.421,15.421,0,0,0-3.228-3.121.422.422,0,0,1-.123-.67c.176-.264.388-.336.617-.212a14.708,14.708,0,0,1,3.845,2.786.471.471,0,0,1,.035.7l-.458.529A.391.391,0,0,1,802.564,148.823Z" transform="translate(-791.441 -136.779)" fill="#ee7000" stroke="#ee7000" stroke-width="0.25"/>
          <path id="パス_6734" data-name="パス 6734" d="M803.912,141.4a16.437,16.437,0,0,1,1.429,3.122.414.414,0,0,1-.283.617l-.793.282a.4.4,0,0,1-.582-.353,15.886,15.886,0,0,0-.689-3.244.456.456,0,0,1,.282-.617l.019.016A.438.438,0,0,1,803.912,141.4Zm8.589.106c-1.2,4.515-2.823,7.531-6.862,9.877-.282.159-.494.106-.617-.123a.424.424,0,0,1,.194-.6c3.563-2.328,4.673-5.079,5.75-9.68a.413.413,0,0,1,.6-.336l.635.247A.455.455,0,0,1,812.5,141.508Zm-5.468-1.322a18.785,18.785,0,0,1,1.447,3.387.394.394,0,0,1-.3.582l-.758.247c-.335.106-.529-.035-.582-.37a15.7,15.7,0,0,0-.74-3.4.431.431,0,0,1,.3-.6l.035-.018A.452.452,0,0,1,807.033,140.186Z" transform="translate(-788.457 -135.954)" fill="#ee7000" stroke="#ee7000" stroke-width="0.25"/>
          <path id="パス_6735" data-name="パス 6735" d="M821,145.088a.426.426,0,0,1,.159.652l-.423.671a.419.419,0,0,1-.671.122,59.2,59.2,0,0,0-5.008-3.526v8.413a.421.421,0,0,1-.476.476h-.617a.421.421,0,0,1-.476-.476V137.8a.441.441,0,0,1,.476-.494h.617a.435.435,0,0,1,.476.475v4.25A37.62,37.62,0,0,1,821,145.088Z" transform="translate(-785.731 -136.641)" fill="#ee7000" stroke="#ee7000" stroke-width="0.25"/>
          <path id="パス_6736" data-name="パス 6736" d="M824.918,140.668a.439.439,0,0,1-.123-.67l.07-.106a.447.447,0,0,1,.688-.142c.918.653,1.746,1.27,2.469,1.836a24.1,24.1,0,0,0,3.369-3.246h-7.865a.446.446,0,0,1-.494-.494c0-.282.176-.424.494-.424h8.9a.447.447,0,0,1,.493.495v.035a.879.879,0,0,1-.211.617,46.793,46.793,0,0,1-3.879,3.65l1.2,1.076h4.09a.446.446,0,0,1,.494.494v.141a1.1,1.1,0,0,1-.176.618,19.988,19.988,0,0,1-2.874,3.333.4.4,0,0,1-.687-.053l-.141-.194a.482.482,0,0,1,.07-.687,19.541,19.541,0,0,0,2.293-2.663h-4.18v5.625c0,1.852-.194,2.1-1.958,2.1-.405,0-1.057-.018-1.975-.071a.477.477,0,0,1-.494-.512c-.018-.3.176-.458.511-.441.864.053,1.429.07,1.746.07.617,0,.617,0,.617-1.146v-5.625h-5.731a.494.494,0,0,1,0-.988h6.684C826.946,142.166,825.817,141.3,824.918,140.668Z" transform="translate(-783.748 -136.612)" fill="#ee7000" stroke="#ee7000" stroke-width="0.25"/>
          <path id="パス_6737" data-name="パス 6737" d="M838.01,142.755a.467.467,0,0,1,.353-.617l.317-.089a.458.458,0,0,1,.617.388c.353,1.605.511,2.382.617,2.911a.45.45,0,0,1-.388.582l-.317.071c-.317.07-.511-.053-.564-.335l-.071-.405-.971.088v6.666a.446.446,0,0,1-.493.493H836.6a.446.446,0,0,1-.494-.493V145.47l-1.9.141a.435.435,0,0,1-.512-.458c-.016-.264.142-.423.46-.46l.864-.087s.282-.46.617-1.076c-.687-1.392-1.234-2.5-1.657-3.3a.616.616,0,0,1,.018-.67l.211-.37c.194-.353.458-.388.617-.071.106.176.194.388.282.546.318-.67.653-1.5,1.023-2.451a.416.416,0,0,1,.652-.264l.3.159a.469.469,0,0,1,.229.653c-.388.987-.9,2.1-1.5,3.3.264.511.458.9.564,1.129.511-.935,1.058-2.012,1.6-3.21a.416.416,0,0,1,.671-.212l.229.159a.463.463,0,0,1,.194.671,51.464,51.464,0,0,1-2.628,4.955l1.958-.142C838.292,143.9,838.15,143.3,838.01,142.755Zm-2.416,4.478a33.85,33.85,0,0,1-.53,3.9.455.455,0,0,1-.6.388l-.317-.069a.473.473,0,0,1-.388-.6,32.882,32.882,0,0,0,.511-3.7.433.433,0,0,1,.529-.46l.353.037C835.471,146.758,835.628,146.934,835.594,147.233Zm3.844-.3c.159,1.075.282,2.221.353,3.438a.477.477,0,0,1-.458.546l-.352.035a.421.421,0,0,1-.546-.441c-.07-1.2-.177-2.328-.3-3.334a.419.419,0,0,1,.406-.546l.335-.053C839.191,146.528,839.385,146.652,839.438,146.934Zm1.357-3.827a.4.4,0,0,1-.67.194l-.264-.176a.5.5,0,0,1-.194-.67,27.935,27.935,0,0,0,1.605-5.256.454.454,0,0,1,.564-.405l.441.071a.435.435,0,0,1,.388.583c-.087.388-.176.846-.317,1.392h4.321a.452.452,0,0,1,.495.511c-.072,3.951-.125,6.543-.266,8.5-.069,1.022-.141,1.8-.211,2.4a4.791,4.791,0,0,1-.317,1.269.979.979,0,0,1-1.059.636c-.739,0-1.657-.035-2.714-.141a.455.455,0,0,1-.477-.511c-.018-.319.176-.494.53-.46a11.24,11.24,0,0,0,1.815.053c.282-.018.511-.087.671-.705a25.945,25.945,0,0,0,.3-3.174c.088-1.658.159-4.127.229-7.407h-3.6A25.006,25.006,0,0,1,840.8,143.107Zm2.294,3.9a34.279,34.279,0,0,0-1.57-3.544.457.457,0,0,1,.176-.67l.3-.194a.435.435,0,0,1,.689.176,31.053,31.053,0,0,1,1.674,3.722.489.489,0,0,1-.247.652l-.335.194C843.477,147.5,843.23,147.375,843.089,147Z" transform="translate(-780.499 -136.776)" fill="#ee7000" stroke="#ee7000" stroke-width="0.25"/>
          <path id="パス_6738" data-name="パス 6738" d="M853.033,140.04v.016a.4.4,0,0,1-.44.442h-1.605a54.719,54.719,0,0,1-2.98,8.236.4.4,0,0,1-.6.212l-.564-.3a.424.424,0,0,1-.194-.6,44.5,44.5,0,0,0,2.857-7.548h-2.134a.4.4,0,0,1-.441-.442v-.016a.4.4,0,0,1,.441-.442h2.363c.159-.687.317-1.41.476-2.187a.39.39,0,0,1,.53-.335l.6.142a.393.393,0,0,1,.317.528c-.141.653-.282,1.288-.423,1.852h1.357A.4.4,0,0,1,853.033,140.04Zm2.893-.371a12.928,12.928,0,0,1,3.491,2.946.412.412,0,0,1-.018.617l-.388.423a.441.441,0,0,1-.617.071,3.831,3.831,0,0,0-1.623-.546c-.6-.035-.846.388-.934,1.2a13.494,13.494,0,0,0-.018,1.5c0,.564.053,1.181.088,1.87a17.265,17.265,0,0,1,3,2.081.415.415,0,0,1,.071.617l-.353.458a.371.371,0,0,1-.634.036c-.971-.953-1.623-1.535-2.064-1.959v.653a2.757,2.757,0,0,1-.213.881,2.99,2.99,0,0,1-3.192,1.429,2.944,2.944,0,0,1-1.658-.723,2.286,2.286,0,0,1,.636-3.633,4.347,4.347,0,0,1,3-.212c-.018-.706-.071-1.306-.071-1.817a4.7,4.7,0,0,1,.141-1.464,2.146,2.146,0,0,1,2.2-1.551,6.02,6.02,0,0,1,.758.088,8.285,8.285,0,0,0-2.046-2.046.446.446,0,0,1-.158-.617l.053-.088C855.521,139.615,855.713,139.545,855.926,139.668Zm-3.968,8.642a1.306,1.306,0,0,0,.687,2.4,1.65,1.65,0,0,0,1.8-.9,2.17,2.17,0,0,0,.088-.687v-.759A2.72,2.72,0,0,0,851.958,148.31Z" transform="translate(-777.156 -136.706)" fill="#ee7000" stroke="#ee7000" stroke-width="0.25"/>
          <path id="パス_6739" data-name="パス 6739" d="M865.88,140.1c-.565-.034-1.076-.087-1.535-.106a5.318,5.318,0,0,0-1.623.212,1.742,1.742,0,0,0-1.2,1.27,4.908,4.908,0,0,0-.159,1.006l-.176,3.315c2.115-1.517,5.079-2.786,7.352-.9a3.08,3.08,0,0,1,.953,1.5,4.1,4.1,0,0,1-.6,3.387,4.953,4.953,0,0,1-2.275,1.657,10.854,10.854,0,0,1-4.955.477.385.385,0,0,1-.405-.424c-.018-.247.141-.388.441-.388a9.307,9.307,0,0,0,3.473-.458,3.9,3.9,0,0,0,2.663-2.434,2.663,2.663,0,0,0-.987-2.927,3.208,3.208,0,0,0-2.751.071,9.743,9.743,0,0,0-3.263,2.381.5.5,0,0,1-.582.159l-.37-.106a.451.451,0,0,1-.335-.511c.071-1.112.282-4.18.317-4.621a5.474,5.474,0,0,1,.353-1.517,3.264,3.264,0,0,1,2.275-1.764,3.978,3.978,0,0,1,.864-.123,8.09,8.09,0,0,1-2.293-1.586.431.431,0,0,1-.071-.618c.142-.212.354-.229.583-.053A8.718,8.718,0,0,0,866,138.71a.4.4,0,0,1,.405.476l-.053.512A.4.4,0,0,1,865.88,140.1Z" transform="translate(-773.802 -136.753)" fill="#ee7000" stroke="#ee7000" stroke-width="0.25"/>
        </g>
        <g id="グループ_1719" data-name="グループ 1719" transform="translate(0 26.202)">
          <path id="パス_6740" data-name="パス 6740" d="M876.892,138.486c0,.247-.178.37-.495.37h-1.815l.617,1.975h.828a.446.446,0,0,1,.494.494v3.792a.446.446,0,0,1-.494.494h-3.88v6.367a.446.446,0,0,1-.494.494h-.493a.446.446,0,0,1-.494-.494v-11.2l-.194-.229a.5.5,0,0,1,0-.706,10.523,10.523,0,0,0,1.693-2.892.474.474,0,0,1,.635-.317l.388.106c.317.071.458.247.388.442l-.335.776,3.156.035A.447.447,0,0,1,876.892,138.486Zm-3.757.37h-.388a11.994,11.994,0,0,1-1.517,1.975h2.557C873.7,140.515,873.487,139.88,873.135,138.856Zm-.988,4.021h2.91v-1.27h-2.91Zm0,.67v1.323h2.91v-1.323Zm2.594,8.413H874.3a.446.446,0,0,1-.494-.495v-4.373a.446.446,0,0,1,.494-.493h5.1a.446.446,0,0,1,.495.493v3.615a.41.41,0,0,1-.495.46h-4.161v.3A.447.447,0,0,1,874.74,151.96Zm.494-3.369h3.227v-1.269h-3.227Zm0,.635v1.235h3.227v-1.235Zm6.013,3.122c-.123,0-.229.018-.582,0a.475.475,0,0,1-.546-.476q-.026-.451.476-.476c.247,0,.353-.019.458-.019.477-.018.546-.123.546-.881v-4.885h-4.02a.446.446,0,0,1-.495-.494v-3.792a.446.446,0,0,1,.495-.494h2.169c-.088-.317-.317-.952-.652-1.975h-.548a10.265,10.265,0,0,1-1.464,1.623.449.449,0,0,1-.7-.053l-.124-.142a.479.479,0,0,1,.053-.686c.211-.248.511-.583.952-1.147a7.1,7.1,0,0,0,.9-1.535.465.465,0,0,1,.634-.3l.353.106a.415.415,0,0,1,.3.635l-.317.6h3.7a.446.446,0,0,1,.494.494c0,.264-.176.405-.494.405h-2.24l.635,1.975H882.6a.446.446,0,0,1,.494.494v9.347C883.1,152.083,882.869,152.348,881.246,152.348Zm.353-9.47v-1.27h-3.051v1.27Zm0,.67h-3.051v1.323H881.6Z" transform="translate(-870.326 -136.584)" fill="#ee7000" stroke="#ee7000" stroke-width="0.25"/>
          <path id="パス_6741" data-name="パス 6741" d="M888.62,137.567a.452.452,0,0,1,.213-.67l.335-.159a.422.422,0,0,1,.652.212c.441.883.828,1.8,1.216,2.805h.918c.441-.794.9-1.711,1.357-2.7a.445.445,0,0,1,.636-.264l.335.123a.434.434,0,0,1,.282.636c-.3.687-.688,1.41-1.128,2.2h1.71a.446.446,0,0,1,.495.494v6.066a.447.447,0,0,1-.495.495h-4.5v2.009h5.627a.447.447,0,0,1,.493.494c0,.283-.176.424-.493.424h-5.627v2.4a.446.446,0,0,1-.494.494h-.529a.446.446,0,0,1-.494-.494v-2.4h-5.626a.446.446,0,0,1-.493-.495c0-.282.176-.423.493-.423h5.626v-2.009h-4.5a.446.446,0,0,1-.494-.495v-6.066a.446.446,0,0,1,.494-.494h1.5c-.317-.812-.617-1.482-.864-2.011a.453.453,0,0,1,.211-.671l.317-.159a.448.448,0,0,1,.67.229c.442.9.83,1.781,1.164,2.611h1.9C889.255,138.978,888.938,138.255,888.62,137.567Zm-2.98,5.274h3.492v-2.187h-3.492Zm3.492,3.086v-2.275h-3.492v2.275Zm5.008-3.086v-2.187h-3.492v2.187Zm-3.492,3.086h3.492v-2.275h-3.492Z" transform="translate(-867.041 -136.565)" fill="#ee7000" stroke="#ee7000" stroke-width="0.25"/>
          <path id="パス_6742" data-name="パス 6742" d="M899.059,142.721v1.235a.446.446,0,0,1-.494.494h-.987a.447.447,0,0,1-.495-.494v-1.235a.447.447,0,0,1,.495-.494h.987A.446.446,0,0,1,899.059,142.721Z" transform="translate(-863.396 -135.123)" fill="#ee7000" stroke="#ee7000" stroke-width="0.25"/>
          <path id="パス_6743" data-name="パス 6743" d="M902.709,144.707v-6.79a.447.447,0,0,1,.493-.495H913.29a.448.448,0,0,1,.495.495v6.79a.447.447,0,0,1-.495.494H909v2.381h5.433a.446.446,0,0,1,.494.493.433.433,0,0,1-.494.476H909v3.4a.446.446,0,0,1-.494.494h-.529a.446.446,0,0,1-.494-.494v-3.4h-5.433a.446.446,0,0,1-.493-.494.433.433,0,0,1,.493-.476h5.433V145.2H903.2A.446.446,0,0,1,902.709,144.707Zm1.533-3.845h8.007v-2.539h-8.007Zm0,.811v2.645h8.007v-2.645Z" transform="translate(-862.237 -136.367)" fill="#ee7000" stroke="#ee7000" stroke-width="0.25"/>
          <path id="パス_6744" data-name="パス 6744" d="M916.1,139.016a38.15,38.15,0,0,0-.264,4.691,7.364,7.364,0,0,0,1.464,4.779,11.964,11.964,0,0,1,.282-1.375,9.185,9.185,0,0,1,.582-1.429c.141-.282.3-.564.476-.864a.376.376,0,0,1,.583-.176c.212.159.282.317.176.494a8.9,8.9,0,0,0-.794,1.852,5.925,5.925,0,0,0-.212,2.451.564.564,0,0,1-.176.564l-.441.405a.412.412,0,0,1-.618.018,7.542,7.542,0,0,1-2.521-4.5,18.156,18.156,0,0,1-.248-3.65c.018-1.076.124-2.169.229-3.334a.369.369,0,0,1,.46-.388h.6A.379.379,0,0,1,916.1,139.016Zm9.082,7.706a8.877,8.877,0,0,0-2.575-5.925.389.389,0,0,1-.053-.582c.159-.194.529-.176,1.04.176,2.61,1.729,3.14,4.938,3.246,6.085a.429.429,0,0,1-.388.494l-.759.141A.4.4,0,0,1,925.181,146.723Z" transform="translate(-858.917 -136.074)" fill="#ee7000" stroke="#ee7000" stroke-width="0.25"/>
          <path id="パス_6745" data-name="パス 6745" d="M929.537,142.721v1.235a.446.446,0,0,1-.493.494h-.987a.447.447,0,0,1-.495-.494v-1.235a.447.447,0,0,1,.495-.494h.987A.446.446,0,0,1,929.537,142.721Z" transform="translate(-855.503 -135.123)" fill="#ee7000" stroke="#ee7000" stroke-width="0.25"/>
          <path id="パス_6746" data-name="パス 6746" d="M935.175,152.467h-.423a.446.446,0,0,1-.494-.494V144.25a16.231,16.231,0,0,1-.828,1.481c-.213.353-.512.317-.671-.053l-.159-.37a.655.655,0,0,1,.053-.67,23.845,23.845,0,0,0,2.5-7.283.421.421,0,0,1,.583-.389l.458.106a.451.451,0,0,1,.388.565,24.592,24.592,0,0,1-.918,3.615v10.723A.446.446,0,0,1,935.175,152.467Zm1.658-14.549c0-.247.176-.371.494-.371h8.518a.447.447,0,0,1,.493.495c0,.247-.176.37-.493.37h-3.7v1.622h3.281a.447.447,0,0,1,.493.495v6.42a.446.446,0,0,1-.493.494h-.46a.446.446,0,0,1-.494-.494v-.636h-2.539a8.718,8.718,0,0,1-1.04,3.122A9.431,9.431,0,0,0,946,151.2a.425.425,0,0,1,.458.529.449.449,0,0,1-.529.423,11.1,11.1,0,0,1-5.731-1.834,7.737,7.737,0,0,1-3.422,1.782.458.458,0,0,1-.617-.353v-.018a.455.455,0,0,1,.352-.618,6.311,6.311,0,0,0,2.7-1.551,10.763,10.763,0,0,1-1.57-1.746.47.47,0,0,1,.123-.687l.3-.229a.414.414,0,0,1,.687.14,8.747,8.747,0,0,0,1.093,1.447,7.517,7.517,0,0,0,.6-2.169h-2.98a.446.446,0,0,1-.494-.494v-5.29a.447.447,0,0,1,.494-.495h3.193v-1.622h-3.334A.446.446,0,0,1,936.833,137.918Zm1.57,4.814h2.257v-1.887H938.4Zm0,2.769h2.134a16.654,16.654,0,0,0,.106-1.993H938.4Zm6.066-1.993h-2.345c-.018.689-.053,1.341-.106,1.993h2.451Zm-2.328-.776h2.328v-1.887h-2.328Z" transform="translate(-854.216 -136.492)" fill="#ee7000" stroke="#ee7000" stroke-width="0.25"/>
          <path id="パス_6747" data-name="パス 6747" d="M952.506,141.931a.447.447,0,0,1,.493.494c0,.283-.177.424-.493.424h-2.2c.687,1.181,1.586,2.751,2.5,4.391a.483.483,0,0,1-.106.687l-.245.212a.386.386,0,0,1-.671-.141c-.458-.935-1.04-2.046-1.729-3.316v7.267a.446.446,0,0,1-.494.494h-.406a.446.446,0,0,1-.494-.494v-6.173a17.606,17.606,0,0,1-1.922,3.686.381.381,0,0,1-.706-.018l-.14-.23a.578.578,0,0,1,.018-.687,18.384,18.384,0,0,0,2.416-5.678h-2.011a.447.447,0,0,1-.495-.494c0-.282.177-.424.495-.424h2.345v-3.3c-.583.071-1.27.141-2.046.212a.43.43,0,0,1-.53-.441c-.016-.247.142-.388.46-.423a39.4,39.4,0,0,0,5.555-.917.432.432,0,0,1,.6.351c.071.248-.016.424-.245.477-.671.159-1.482.335-2.4.494v3.544Zm2.5-3.509v9.823a.447.447,0,0,1-.494.495h-.476a.447.447,0,0,1-.494-.495v-9.823a.446.446,0,0,1,.494-.494h.476A.446.446,0,0,1,955.009,138.422Zm2.84-1.2h.494a.446.446,0,0,1,.494.493V150.1c0,1.852-.176,2.1-1.834,2.1-.212,0-.811-.018-1.745-.07a.469.469,0,0,1-.513-.495v-.016c-.018-.335.159-.512.513-.495.864.054,1.375.07,1.551.07.511,0,.548-.035.548-1.163V137.717A.446.446,0,0,1,957.849,137.223Z" transform="translate(-850.782 -136.467)" fill="#ee7000" stroke="#ee7000" stroke-width="0.25"/>
        </g>
      </g>
    </g>
    <g id="icon-brain-doc" transform="translate(-499.69 -79.497)">
      <g id="レイヤー_1" data-name="レイヤー 1" transform="translate(383.009 457.497)">
        <g id="グループ_1766" data-name="グループ 1766" transform="translate(0 0)">
          <path id="パス_10217" data-name="パス 10217" d="M486.951,469.407h-.113a8.466,8.466,0,0,1-8.461-8.666.434.434,0,0,0-.868-.02,9.334,9.334,0,0,0,9.329,9.555h.118a.434.434,0,0,0-.005-.869Z" transform="translate(-477.507 -459.762)" fill="#f4841c"/>
          <path id="パス_10218" data-name="パス 10218" d="M496.813,467.92h.121a.434.434,0,1,0-.015-.869,6.05,6.05,0,0,1-4.425-1.786,6.136,6.136,0,0,1-1.784-4.519.434.434,0,0,0-.868-.028,7.008,7.008,0,0,0,2.038,5.161A6.921,6.921,0,0,0,496.813,467.92Z" transform="translate(-487.483 -459.762)" fill="#f4841c"/>
          <path id="パス_10219" data-name="パス 10219" d="M506.771,465.567l.125,0a.434.434,0,0,0,.423-.446.426.426,0,0,0-.446-.423,3.719,3.719,0,0,1-2.757-1.1,3.766,3.766,0,0,1-1.094-2.847.434.434,0,0,0-.868-.043,4.636,4.636,0,0,0,1.348,3.5A4.582,4.582,0,0,0,506.771,465.567Z" transform="translate(-497.441 -459.762)" fill="#f4841c"/>
          <path id="パス_10220" data-name="パス 10220" d="M518.1,457.97a1.619,1.619,0,1,0,0,2.29A1.622,1.622,0,0,0,518.1,457.97Zm-.614,1.676a.75.75,0,1,1,0-1.062A.752.752,0,0,1,517.487,459.646Z" transform="translate(-508.11 -457.497)" fill="#f4841c"/>
        </g>
      </g>
      <g id="レイヤー_3" data-name="レイヤー 3" transform="translate(360.69 464.667)">
        <g id="グループ_1770" data-name="グループ 1770" transform="translate(0)">
          <g id="グループ_1772" data-name="グループ 1772">
            <g id="グループ_1768" data-name="グループ 1768" transform="translate(1.463 2.565)">
              <path id="パス_10222" data-name="パス 10222" d="M389.4,532.654c-.632,2.19,1.371,2.8,1.818,2.383.085.76-.143.54-.112,1.518a3.054,3.054,0,0,0,1.348,2.355c.618.7,1.45.6,2.419.332a1.923,1.923,0,0,0,1.279.664l-.575,2.471s.279,1.205.965,1.374c.856-2.421,1.047-4.378,2.558-5.023a4.012,4.012,0,0,0,2.264-2.095,4.427,4.427,0,0,0,2.538.6c1.487-.2,1.413-.742,1.866-.878.538-.162,1.124-.039,1.539-1.617a3.961,3.961,0,0,0,4.55-1.326,13.484,13.484,0,0,0,1.263-1.44c.752-1.141.733-3.445-.486-3.736,0,0,1.294-2.359-.789-3.5,0,0-.162-2.246-2.168-2.384a3.052,3.052,0,0,0-3.636-1.457,3.337,3.337,0,0,0-4.075-.9s-1.4-1.785-3.462-.046a2.764,2.764,0,0,0-3.059,1.014,2.425,2.425,0,0,0-2.819,1.359,3.182,3.182,0,0,0-2.459,2.421s-1.308.755-.732,2.9C389.436,527.65,387.258,529.727,389.4,532.654Z" transform="translate(-384.616 -517.14)" fill="#fff" stroke="#f4841c" stroke-linecap="round" stroke-linejoin="round" stroke-width="1.727"/>
              <g id="グループ_1767" data-name="グループ 1767" transform="translate(3.777 1.888)">
                <path id="パス_10223" data-name="パス 10223" d="M413.425,528.27a1.42,1.42,0,0,0-.738-.828,3.3,3.3,0,0,0,.236-2.161,2.273,2.273,0,0,0-1.1-1.34,2.656,2.656,0,0,0-2.228-2.439l-.007-.012a3.16,3.16,0,0,0-3.664-1.472,3.49,3.49,0,0,0-4.093-.919,2.463,2.463,0,0,0-1.49-.758,2.792,2.792,0,0,0-2.052.733,2.921,2.921,0,0,0-3.094,1.014,2.551,2.551,0,0,0-2.866,1.4,3.338,3.338,0,0,0-2.488,2.462,2.6,2.6,0,0,0-.765,2.954,3.877,3.877,0,0,0-.031,5.083,1.964,1.964,0,0,0,.749,2.381,1.507,1.507,0,0,0,1.1.225,1.154,1.154,0,0,1-.049.378,2.674,2.674,0,0,0-.082.889,3.03,3.03,0,0,0,1.254,2.336l.134.123a2.258,2.258,0,0,0,2.474.413,2,2,0,0,0,1.147.609l-.535,2.3a.164.164,0,0,0,0,.075c.012.053.311,1.306,1.086,1.5a.163.163,0,0,0,.039,0,.165.165,0,0,0,.156-.11c.2-.57.364-1.1.52-1.621.5-1.65.861-2.841,1.947-3.306a4.359,4.359,0,0,0,2.278-2.013,4.43,4.43,0,0,0,2.481.53,2.385,2.385,0,0,0,1.608-.682.7.7,0,0,1,.285-.2c.074-.022.15-.039.225-.056.472-.1,1-.222,1.381-1.519a4.1,4.1,0,0,0,4.561-1.421c.176-.211.339-.374.5-.532a5.394,5.394,0,0,0,.778-.923A3.729,3.729,0,0,0,413.425,528.27Zm-.621,2.914a5.132,5.132,0,0,1-.736.871l-.137.138a2.413,2.413,0,0,1-2.668-.11.165.165,0,0,0-.2.015,1.809,1.809,0,0,1-1.638.436,1.176,1.176,0,0,1-.847-.692.165.165,0,1,0-.31.112,1.5,1.5,0,0,0,1.076.9,1.97,1.97,0,0,0,.486.061,2.184,2.184,0,0,0,1.357-.489,2.98,2.98,0,0,0,2.2.378,3.57,3.57,0,0,1-2.759,1.294,5.477,5.477,0,0,1-1.45-.216.174.174,0,0,0-.043-.006.164.164,0,0,0-.16.123c-.329,1.251-.741,1.343-1.178,1.439-.083.019-.167.037-.249.062a.988.988,0,0,0-.42.282,2.079,2.079,0,0,1-1.421.591,2.75,2.75,0,0,1-.355.023,4.463,4.463,0,0,1-1.961-.536,3.321,3.321,0,0,0-.722-3.471.165.165,0,0,0-.2.263,3.051,3.051,0,0,1,.568,3.227v0a3.9,3.9,0,0,1-2.173,2c-1.228.524-1.627,1.844-2.133,3.513-.14.464-.285.942-.459,1.446a2.054,2.054,0,0,1-.7-1.159l.566-2.433a.165.165,0,0,0-.143-.2,1.773,1.773,0,0,1-1.156-.586.165.165,0,0,0-.184-.073,4.492,4.492,0,0,1-1.147.2,1.386,1.386,0,0,1-1.116-.49l-.147-.136a2.693,2.693,0,0,1-1.148-2.1,2.373,2.373,0,0,1,.071-.8,1.681,1.681,0,0,0,.04-.736.164.164,0,0,0-.107-.136.161.161,0,0,0-.057-.01.164.164,0,0,0-.112.044.444.444,0,0,1-.289.078,1.329,1.329,0,0,1-.675-.207,1.673,1.673,0,0,1-.585-2.077,1.573,1.573,0,0,1,1.582-.954h.012a.137.137,0,0,0,.025,0,.163.163,0,0,0,.039-.008l.015-.007a.158.158,0,0,0,.037-.025L391.1,531a.15.15,0,0,0,.022-.034.121.121,0,0,0,.007-.011c0-.009.394-.953,1.083-.907a1.687,1.687,0,0,1,.887.533,2.04,2.04,0,0,0,1.307.677,1.432,1.432,0,0,0,.605-.144,1.464,1.464,0,0,0,.9-.964,1.8,1.8,0,0,0-.378-1.368.165.165,0,0,0-.257.207,1.488,1.488,0,0,1,.314,1.087,1.158,1.158,0,0,1-.721.738c-.668.308-1.079-.057-1.554-.48a1.933,1.933,0,0,0-1.083-.616,1.524,1.524,0,0,0-1.341.962,2.092,2.092,0,0,1-.7-1.2.165.165,0,1,0-.322.073,2.921,2.921,0,0,0,.6,1.207,1.828,1.828,0,0,0-1.272.872,3.485,3.485,0,0,1,.025-4.406,1.714,1.714,0,0,0,.924.684,2.027,2.027,0,0,0,.614.095,1.974,1.974,0,0,0,.975-.252.165.165,0,0,0-.164-.287,1.683,1.683,0,0,1-1.324.13,1.364,1.364,0,0,1-.838-.706,2.42,2.42,0,0,1,.483-2.563,1.089,1.089,0,0,0,.859.774h.016a.165.165,0,0,0,.016-.329.813.813,0,0,1-.629-.728,2.875,2.875,0,0,1,2.016-2.172,2.457,2.457,0,0,0,.516,2.336.165.165,0,0,0,.271-.188,2.074,2.074,0,0,1-.365-2.325v0l0-.006a2.042,2.042,0,0,1,2.035-1.319,3.039,3.039,0,0,1,.374.023,1.631,1.631,0,0,0-.124,1.5.8.8,0,0,0,.691.448,1.131,1.131,0,0,1,.837.28,1.462,1.462,0,0,1,.236,1.092.164.164,0,0,0,.155.174h.01a.165.165,0,0,0,.165-.156,1.745,1.745,0,0,0-.323-1.334,1.433,1.433,0,0,0-1.071-.387.471.471,0,0,1-.408-.273,1.421,1.421,0,0,1,.228-1.383,2.374,2.374,0,0,1,2.043-1.062,3.073,3.073,0,0,1,.6.059,1.634,1.634,0,0,0-.331,1.144,2.611,2.611,0,0,0,1.234,1.592l.086.062a.165.165,0,0,0,.2-.266l-.088-.064c-.356-.257-1.019-.734-1.1-1.365a1.441,1.441,0,0,1,.4-1.086,2.638,2.638,0,0,1,1.668-.714,1.823,1.823,0,0,1,.189.01,2.164,2.164,0,0,1,1.338.711,1.051,1.051,0,0,1-.05.713.641.641,0,0,1-.441.3.165.165,0,0,0,.076.321.964.964,0,0,0,.652-.457,1.3,1.3,0,0,0,.1-.862,3.122,3.122,0,0,1,1.311-.3,3.35,3.35,0,0,1,2.429,1.2,1.319,1.319,0,0,1-.538,1.816.165.165,0,1,0,.163.287,1.588,1.588,0,0,0,.739-2.066,3.812,3.812,0,0,1,.775-.086,2.8,2.8,0,0,1,2.449,1.431l.039.06c.3,1.079-.106,1.422-.348,1.627-.722.609-2.109,0-2.25-.065a3.552,3.552,0,0,0-1.476-.479,5.559,5.559,0,0,0-2.046.265.165.165,0,0,0,.106.312,5.338,5.338,0,0,1,1.908-.248,2.649,2.649,0,0,1,1.765.814.89.89,0,0,1,.167.731.165.165,0,0,0,.13.194.173.173,0,0,0,.032,0,.165.165,0,0,0,.162-.133,1.2,1.2,0,0,0-.169-.907,3.318,3.318,0,0,0,.811.112,1.625,1.625,0,0,0,1.072-.346,1.561,1.561,0,0,0,.5-1.755c1.593.265,1.776,2.052,1.788,2.2a1.132,1.132,0,0,1-.276.713.686.686,0,0,1-.538.173.163.163,0,0,0-.173.157.165.165,0,0,0,.157.173l.07,0a1,1,0,0,0,.711-.265,1.286,1.286,0,0,0,.347-.683,1.92,1.92,0,0,1,.878,1.876,3.594,3.594,0,0,1-.362,1.255.714.714,0,0,1-.465.28.58.58,0,0,1-.443-.255.165.165,0,0,0-.253.212.9.9,0,0,0,.684.374h.026a.976.976,0,0,0,.645-.331,1.065,1.065,0,0,1,.607.664A3.416,3.416,0,0,1,412.8,531.183Z" transform="translate(-388.117 -518.33)" fill="#f4841c"/>
                <path id="パス_10224" data-name="パス 10224" d="M411.922,588.656a.165.165,0,0,0-.094.214.707.707,0,0,1-.007.664c-.327.514-1.509.589-2.077.624a3.69,3.69,0,0,1-3.775-2.276.165.165,0,1,0-.29.157,5.148,5.148,0,0,0,1.422,1.736l0,.006c-.36.781-.681,2.432.675,3.09a4.384,4.384,0,0,0,.954.308,1.488,1.488,0,0,1,1.036.54.165.165,0,0,0,.275-.183,1.78,1.78,0,0,0-1.236-.678,4.04,4.04,0,0,1-.886-.284c-1.308-.635-.662-2.32-.538-2.613a3.824,3.824,0,0,0,2.039.538q.171,0,.348-.011l.123-.008a1.6,1.6,0,0,0,.368,1.091,1.454,1.454,0,0,0,1.122.425l.09,0a.165.165,0,0,0-.006-.33h-.006a1.194,1.194,0,0,1-.956-.315,1.3,1.3,0,0,1-.281-.895c.677-.063,1.545-.217,1.88-.742a1.025,1.025,0,0,0,.036-.962A.165.165,0,0,0,411.922,588.656Z" transform="translate(-402.307 -574.524)" fill="#f4841c"/>
                <path id="パス_10225" data-name="パス 10225" d="M486.9,558.685a2.96,2.96,0,0,0-.562-2.352,2.041,2.041,0,0,0-1.7-.7.165.165,0,1,0,.011.33,1.709,1.709,0,0,1,1.433.589,2.655,2.655,0,0,1,.469,2.194.165.165,0,0,0,.093.182.85.85,0,0,1,.435.8,1.072,1.072,0,0,1-2.045.553.165.165,0,0,0-.207-.069,1.584,1.584,0,0,1-1.321-.089,1.1,1.1,0,0,1-.6-.716.165.165,0,0,0-.324.065,1.429,1.429,0,0,0,.775.943,1.952,1.952,0,0,0,1.472.15,1.565,1.565,0,0,0,1.242.664,1.357,1.357,0,0,0,.607-.144,1.5,1.5,0,0,0,.734-1.362A1.207,1.207,0,0,0,486.9,558.685Z" transform="translate(-464.534 -548.5)" fill="#f4841c"/>
                <path id="パス_10226" data-name="パス 10226" d="M457.613,534.885a.924.924,0,0,1,1.051.789,1.323,1.323,0,0,1-1.009,1.448.165.165,0,0,0,.042.325.168.168,0,0,0,.042-.005,1.653,1.653,0,0,0,1.251-1.815,1.253,1.253,0,0,0-1.389-1.071.165.165,0,0,0,.011.33Z" transform="translate(-444.197 -531.454)" fill="#f4841c"/>
                <path id="パス_10227" data-name="パス 10227" d="M415.953,551.128a.165.165,0,0,0-.141-.3,4.429,4.429,0,0,0-1.618,1.379c-.271.165-2.028,1.151-3.169-.3a.165.165,0,1,0-.259.2,2.215,2.215,0,0,0,1.811.9,3.515,3.515,0,0,0,1.352-.3,2.341,2.341,0,0,0-.171.928.165.165,0,0,0,.165.161h0a.165.165,0,0,0,.161-.169C414.054,552.05,415.934,551.138,415.953,551.128Z" transform="translate(-406.41 -544.608)" fill="#f4841c"/>
                <path id="パス_10228" data-name="パス 10228" d="M467.194,554.446a2.568,2.568,0,0,1,2.9,2.265.165.165,0,0,0,.161.13.163.163,0,0,0,.035,0,.165.165,0,0,0,.127-.2,2.9,2.9,0,0,0-3.273-2.522.165.165,0,0,0,.052.326Z" transform="translate(-451.931 -547.258)" fill="#f4841c"/>
                <path id="パス_10229" data-name="パス 10229" d="M443.914,558.2a.165.165,0,1,0-.025-.329,2.377,2.377,0,0,1-2.08-1.32,1.622,1.622,0,0,0-1.178-1.815.165.165,0,0,0-.057.325c.039.007.959.193.906,1.525a1.951,1.951,0,0,1-1.3,1.7,2.237,2.237,0,0,1-2.338-.279.165.165,0,1,0-.224.242,2.3,2.3,0,0,0,1.571.566,2.935,2.935,0,0,0,1.118-.224,2.354,2.354,0,0,0,1.436-1.53,2.525,2.525,0,0,0,2,1.149C443.8,558.209,443.855,558.207,443.914,558.2Z" transform="translate(-428.114 -547.78)" fill="#f4841c"/>
                <path id="パス_10230" data-name="パス 10230" d="M465.486,578.256a.165.165,0,0,0-.219.247,1.978,1.978,0,0,1,.65,1.267,1.2,1.2,0,0,1-.5.9,1.914,1.914,0,0,1-2.415.089.165.165,0,1,0-.2.259,2.472,2.472,0,0,0,1.392.459,2.217,2.217,0,0,0,1.44-.553,1.516,1.516,0,0,0,.618-1.153A2.287,2.287,0,0,0,465.486,578.256Z" transform="translate(-448.479 -566.773)" fill="#f4841c"/>
              </g>
            </g>
          </g>
        </g>
      </g>
    </g>
    <g id="icon-smartphone">
      <g id="パス_10231" data-name="パス 10231" transform="translate(-98 378)" fill="#fff">
        <path d="M 18.7012939453125 36.01205825805664 L 2.6716148853302 36.01205825805664 C 1.47418475151062 36.01205825805664 0.500004768371582 35.03787612915039 0.500004768371582 33.84044647216797 L 0.500004768371582 2.671617269515991 C 0.500004768371582 1.474177241325378 1.47418475151062 0.4999972283840179 2.6716148853302 0.4999972283840179 L 18.7012939453125 0.4999972283840179 C 19.89873504638672 0.4999972283840179 20.87291526794434 1.474177241325378 20.87291526794434 2.671617269515991 L 20.87291526794434 33.84044647216797 C 20.87291526794434 35.03787612915039 19.89873504638672 36.01205825805664 18.7012939453125 36.01205825805664 Z" stroke="none"/>
        <path d="M 2.671615600585938 0.9999961853027344 C 1.749885559082031 0.9999961853027344 0.9999942779541016 1.749885559082031 0.9999942779541016 2.671615600585938 L 0.9999942779541016 33.84043884277344 C 0.9999942779541016 34.76216888427734 1.749885559082031 35.51205825805664 2.671615600585938 35.51205825805664 L 18.7012939453125 35.51205825805664 C 19.62302398681641 35.51205825805664 20.37290573120117 34.76216888427734 20.37290573120117 33.84043884277344 L 20.37290573120117 2.671615600585938 C 20.37290573120117 1.749885559082031 19.62302398681641 0.9999961853027344 18.7012939453125 0.9999961853027344 L 2.671615600585938 0.9999961853027344 M 2.671615600585938 -3.814697265625e-06 L 18.7012939453125 -3.814697265625e-06 C 20.17678451538086 -3.814697265625e-06 21.37290382385254 1.196117401123047 21.37290382385254 2.671615600585938 L 21.37290382385254 33.84043884277344 C 21.37290382385254 35.31592559814453 20.17678451538086 36.51205825805664 18.7012939453125 36.51205825805664 L 2.671615600585938 36.51205825805664 C 1.196125030517578 36.51205825805664 -5.7220458984375e-06 35.31592559814453 -5.7220458984375e-06 33.84043884277344 L -5.7220458984375e-06 2.671615600585938 C -5.7220458984375e-06 1.196117401123047 1.196125030517578 -3.814697265625e-06 2.671615600585938 -3.814697265625e-06 Z" stroke="none" fill="#f4841c"/>
      </g>
      <g id="合体_1" data-name="合体 1" transform="translate(-95 383)" fill="#f4841c">
        <path d="M 8 27.49999809265137 C 7.295599937438965 27.49999809265137 6.722529888153076 26.91401863098145 6.722529888153076 26.19375801086426 C 6.722529888153076 25.47303771972656 7.295599937438965 24.88669776916504 8 24.88669776916504 C 8.704469680786133 24.88669776916504 9.277589797973633 25.47303771972656 9.277589797973633 26.19375801086426 C 9.277589797973633 26.91401863098145 8.704469680786133 27.49999809265137 8 27.49999809265137 Z M 15.5 22.98357772827148 L 0.5 22.98357772827148 L 0.5 0.4999980926513672 L 15.5 0.4999980926513672 L 15.5 22.98357772827148 Z" stroke="none"/>
        <path d="M 8 26.99999809265137 C 8.428759574890137 26.99999809265137 8.777589797973633 26.63831901550293 8.777589797973633 26.19375801086426 C 8.777589797973633 25.74874877929688 8.428759574890137 25.38669776916504 8 25.38669776916504 C 7.571300029754639 25.38669776916504 7.222529888153076 25.74874877929688 7.222529888153076 26.19375801086426 C 7.222529888153076 26.63831901550293 7.571300029754639 26.99999809265137 8 26.99999809265137 M 15 22.48357772827148 L 15 0.9999980926513672 L 1 0.9999980926513672 L 1 22.48357772827148 L 15 22.48357772827148 M 8 27.99999809265137 C 7.018430233001709 27.99999809265137 6.222529888153076 27.19117736816406 6.222529888153076 26.19375801086426 C 6.222529888153076 25.19552803039551 7.018430233001709 24.38669776916504 8 24.38669776916504 C 8.981570243835449 24.38669776916504 9.777589797973633 25.19552803039551 9.777589797973633 26.19375801086426 C 9.777589797973633 27.19117736816406 8.981570243835449 27.99999809265137 8 27.99999809265137 Z M 16 23.48357772827148 L 0 23.48357772827148 L 0 -1.9073486328125e-06 L 16 -1.9073486328125e-06 L 16 23.48357772827148 Z" stroke="none" fill="#f4841c"/>
      </g>
    </g>
  </g>
</svg>
