<svg xmlns="http://www.w3.org/2000/svg" width="497.712" height="54.176" viewBox="0 0 497.712 54.176">
  <g id="catchcopy-sub" transform="translate(-756.377 -136.458)">
    <g id="グループ_1031" data-name="グループ 1031" transform="translate(756.481 171.496)">
      <g id="グループ_1024" data-name="グループ 1024" transform="translate(0 0.086)">
        <g id="グループ_1023" data-name="グループ 1023">
          <path id="パス_6703" data-name="パス 6703" d="M764.314,171.689h-.589c-.379,0-.589-.212-.524-.589v-6.915a22.159,22.159,0,0,1-5.991,3.3c-.377.126-.608.042-.692-.233-.107-.272.019-.5.356-.652a22.774,22.774,0,0,0,9.057-7.8h-6.766a.517.517,0,0,1-.589-.568c0-.356.21-.545.589-.545h9.16c.338,0,.526.063.589.231s.021.358-.189.694a24.8,24.8,0,0,1-3.93,4.433l.107,8.049A.534.534,0,0,1,764.314,171.689Zm.272-14.92a32.644,32.644,0,0,0-3.488-2.5c-.337-.189-.421-.442-.272-.715s.377-.337.715-.21a26.4,26.4,0,0,1,3.907,1.975.534.534,0,0,1,.21.8l-.252.484A.494.494,0,0,1,764.586,156.769Zm5.148,10.862a18.4,18.4,0,0,0-3.844-3.718.5.5,0,0,1-.149-.8c.212-.314.463-.4.736-.252a17.546,17.546,0,0,1,4.582,3.32.563.563,0,0,1,.042.841l-.547.631A.466.466,0,0,1,769.734,167.631Z" transform="translate(-756.481 -153.281)" fill="#3b3938" stroke="#3b3938" stroke-width="0.198"/>
          <path id="パス_6704" data-name="パス 6704" d="M765.317,157.276a19.661,19.661,0,0,1,1.7,3.721.492.492,0,0,1-.338.734l-.945.337a.473.473,0,0,1-.694-.421,18.811,18.811,0,0,0-.82-3.865.544.544,0,0,1,.337-.736l.021.021A.523.523,0,0,1,765.317,157.276Zm10.233.126c-1.43,5.381-3.362,8.973-8.175,11.767-.338.191-.589.128-.736-.147a.5.5,0,0,1,.231-.713c4.245-2.775,5.569-6.053,6.85-11.537a.494.494,0,0,1,.715-.4l.759.293A.542.542,0,0,1,775.55,157.4Zm-6.515-1.574a22.445,22.445,0,0,1,1.723,4.033.47.47,0,0,1-.359.694l-.9.3c-.4.126-.631-.042-.694-.442a18.874,18.874,0,0,0-.883-4.056.515.515,0,0,1,.356-.715l.042-.021A.539.539,0,0,1,769.035,155.828Z" transform="translate(-748.039 -150.785)" fill="#3b3938" stroke="#3b3938" stroke-width="0.198"/>
          <path id="パス_6705" data-name="パス 6705" d="M780.326,162.929a.509.509,0,0,1,.189.778l-.5.8a.5.5,0,0,1-.8.149,71.679,71.679,0,0,0-5.968-4.2v10.026a.5.5,0,0,1-.568.566h-.736a.5.5,0,0,1-.568-.566V154.249a.524.524,0,0,1,.568-.587h.736a.52.52,0,0,1,.568.566v5.064A44.822,44.822,0,0,1,780.326,162.929Z" transform="translate(-740.158 -152.863)" fill="#3b3938" stroke="#3b3938" stroke-width="0.198"/>
          <path id="パス_6706" data-name="パス 6706" d="M790.163,154.8v.021a.5.5,0,0,1-.526.545l-1.364.042a3.939,3.939,0,0,0-.715.063,5.337,5.337,0,0,0-2.144.715c-2.163,1.346-3.425,4.307-3.171,7.418.294,3.7,3.025,5.043,5.882,5.106a.477.477,0,0,1,.526.526v.168a.5.5,0,0,1-.545.526c-3.32-.063-7.146-1.346-7.881-5.611a8.207,8.207,0,0,1,4.245-8.8l-8.152.231a.453.453,0,0,1-.526-.505v-.021a.5.5,0,0,1,.526-.545l13.321-.379A.453.453,0,0,1,790.163,154.8Zm-1.87,5.106c0,.356-.212.524-.568.524h-.042c-.377,0-.547-.168-.547-.524v-2.333c0-.356.17-.526.547-.526h.042c.356,0,.568.17.568.526Zm1.807,0c0,.356-.168.524-.547.524h-.042c-.356,0-.568-.168-.568-.524v-2.333c0-.356.212-.526.568-.526h.042c.379,0,.547.17.547.526Z" transform="translate(-735.317 -152.172)" fill="#3b3938" stroke="#3b3938" stroke-width="0.198"/>
          <path id="パス_6707" data-name="パス 6707" d="M787.83,157.607a.52.52,0,0,1-.145-.8l.084-.128a.534.534,0,0,1,.82-.168c1.092.778,2.079,1.513,2.941,2.184a28.714,28.714,0,0,0,4.014-3.865H786.17a.531.531,0,0,1-.587-.589c0-.335.21-.5.587-.5h10.613a.531.531,0,0,1,.589.587v.042a1.056,1.056,0,0,1-.252.738,56.519,56.519,0,0,1-4.624,4.349l1.43,1.281H798.8a.532.532,0,0,1,.589.589v.168a1.31,1.31,0,0,1-.212.736,23.839,23.839,0,0,1-3.425,3.972.482.482,0,0,1-.82-.065l-.168-.231a.574.574,0,0,1,.084-.82,23.107,23.107,0,0,0,2.731-3.171H792.6v6.7c0,2.207-.231,2.5-2.331,2.5-.484,0-1.262-.021-2.354-.084a.567.567,0,0,1-.589-.608c-.021-.358.209-.547.61-.526,1.029.063,1.7.084,2.079.084.736,0,.736,0,.736-1.367v-6.7h-6.829a.589.589,0,1,1,0-1.178h7.965C790.247,159.393,788.9,158.364,787.83,157.607Z" transform="translate(-727.049 -152.776)" fill="#3b3938" stroke="#3b3938" stroke-width="0.198"/>
          <path id="パス_6708" data-name="パス 6708" d="M796.922,160.4a.556.556,0,0,1,.419-.736l.377-.1a.546.546,0,0,1,.736.463c.421,1.912.61,2.836.736,3.467a.535.535,0,0,1-.463.692l-.377.084c-.377.086-.61-.061-.673-.4l-.084-.482-1.155.1v7.942a.533.533,0,0,1-.589.589h-.61a.531.531,0,0,1-.587-.589v-7.8l-2.27.168a.517.517,0,0,1-.61-.547c-.021-.314.17-.5.547-.545l1.029-.107s.337-.545.736-1.281c-.82-1.66-1.472-2.983-1.975-3.928a.728.728,0,0,1,.021-.8l.252-.442c.231-.419.547-.461.736-.084.126.21.231.461.336.652.379-.8.778-1.786,1.22-2.922a.5.5,0,0,1,.778-.314l.356.189a.558.558,0,0,1,.272.778c-.461,1.176-1.071,2.5-1.786,3.93.317.608.547,1.071.673,1.344.61-1.113,1.26-2.4,1.914-3.823a.491.491,0,0,1,.8-.252l.274.187a.554.554,0,0,1,.231.8,61.032,61.032,0,0,1-3.132,5.9l2.333-.168C797.257,161.763,797.09,161.048,796.922,160.4Zm-2.88,5.339a40.469,40.469,0,0,1-.631,4.643.543.543,0,0,1-.715.463l-.377-.084a.563.563,0,0,1-.461-.715,39.377,39.377,0,0,0,.608-4.414.515.515,0,0,1,.631-.545l.421.042C793.9,165.167,794.084,165.376,794.042,165.735Zm4.582-.358c.189,1.283.336,2.647.419,4.1a.57.57,0,0,1-.547.652l-.419.042a.5.5,0,0,1-.652-.526c-.084-1.43-.21-2.773-.359-3.972a.5.5,0,0,1,.484-.65l.4-.065A.511.511,0,0,1,798.624,165.376Zm1.618-4.561a.485.485,0,0,1-.8.233l-.314-.21a.594.594,0,0,1-.231-.8,33.327,33.327,0,0,0,1.912-6.263.542.542,0,0,1,.673-.482l.524.084a.519.519,0,0,1,.463.694c-.1.461-.21,1.008-.38,1.66h5.15a.537.537,0,0,1,.587.608c-.084,4.708-.147,7.8-.314,10.128-.084,1.22-.168,2.144-.252,2.857a5.739,5.739,0,0,1-.379,1.515,1.166,1.166,0,0,1-1.26.755c-.883,0-1.974-.042-3.236-.168a.542.542,0,0,1-.568-.61c-.021-.377.212-.587.631-.545a13.611,13.611,0,0,0,2.163.063c.337-.021.61-.1.8-.841a30.3,30.3,0,0,0,.358-3.783c.1-1.975.189-4.915.273-8.824h-4.286A29.966,29.966,0,0,1,800.242,160.815Zm2.731,4.645a40.541,40.541,0,0,0-1.872-4.224.545.545,0,0,1,.212-.8l.356-.231a.518.518,0,0,1,.82.21,36.916,36.916,0,0,1,2,4.433.581.581,0,0,1-.294.778l-.4.233C803.434,166.049,803.141,165.9,802.973,165.46Z" transform="translate(-717.802 -153.274)" fill="#3b3938" stroke="#3b3938" stroke-width="0.198"/>
        </g>
      </g>
      <g id="グループ_1026" data-name="グループ 1026" transform="translate(115.912)">
        <g id="グループ_1025" data-name="グループ 1025">
          <path id="パス_6709" data-name="パス 6709" d="M826.9,156.032c0,.335-.21.524-.589.524h-5.737v5.863h6.368a.532.532,0,0,1,.587.589c0,.337-.21.505-.587.505h-5.611a25.1,25.1,0,0,0,6.01,6.324.6.6,0,0,1,.189.8l-.1.21a.472.472,0,0,1-.8.212,27.21,27.21,0,0,1-6.051-6.137v6.494a.532.532,0,0,1-.589.589h-.608a.532.532,0,0,1-.589-.589v-6.536a25.551,25.551,0,0,1-6.03,6.179.476.476,0,0,1-.8-.189l-.107-.233a.6.6,0,0,1,.191-.8,25.1,25.1,0,0,0,6.009-6.324h-5.611a.533.533,0,0,1-.589-.589c0-.337.212-.505.589-.505h6.347v-5.863h-5.716a.532.532,0,0,1-.589-.587c0-.335.212-.526.589-.526h5.716V153.89a.532.532,0,0,1,.589-.589h.608a.532.532,0,0,1,.589.589v1.553h5.737A.532.532,0,0,1,826.9,156.032Zm-11.222,5.483c-.482-1.113-1.029-2.226-1.6-3.32a.537.537,0,0,1,.233-.8l.377-.231a.546.546,0,0,1,.82.231c.524,1.01,1.071,2.123,1.618,3.343a.558.558,0,0,1-.272.8l-.4.233A.491.491,0,0,1,815.682,161.516Zm9.709-3.446a26.33,26.33,0,0,1-1.639,3.488.517.517,0,0,1-.8.233l-.338-.212a.572.572,0,0,1-.21-.82,28.034,28.034,0,0,0,1.43-3.255.49.49,0,0,1,.778-.316l.44.233C825.37,157.587,825.5,157.8,825.391,158.07Z" transform="translate(-811.781 -153.173)" fill="#3b3938" stroke="#3b3938" stroke-width="0.198"/>
          <path id="パス_6710" data-name="パス 6710" d="M821.285,154.143H825.4a.533.533,0,0,1,.589.589v.212a2.157,2.157,0,0,1-.126.734c-.945,2.838-1.367,3.846-1.7,4.855a7.127,7.127,0,0,1,1.6,4.666c0,1.765-.715,2.668-2.5,2.668-.272,0-.421-.191-.484-.547-.063-.314.147-.5.568-.5h-.254c.757,0,1.073-.379,1.073-1.935a6.54,6.54,0,0,0-1.3-3.949.84.84,0,0,1-.107-.8,39.289,39.289,0,0,0,1.639-4.98h-2.121v16.18a.533.533,0,0,1-.589.589h-.4a.533.533,0,0,1-.589-.589v-16.6A.533.533,0,0,1,821.285,154.143Zm12.606,16.391c.568,0,.652,0,.843-.568a16.492,16.492,0,0,0,.168-2.626c.019-.419.231-.629.629-.587l.505.063a.539.539,0,0,1,.526.631c0,.629-.023,1.008-.065,1.637a3.129,3.129,0,0,1-.65,2.207,1.7,1.7,0,0,1-.8.293,10.505,10.505,0,0,1-1.22.063c-2.228,0-2.584-.252-2.584-1.532v-6.389h-1.029c-.042,4.349-1.176,6.389-4.75,8.028a.524.524,0,0,1-.776-.275l-.023-.042a.52.52,0,0,1,.275-.8c2.563-1.239,3.467-3.025,3.53-6.913h-1.555a.532.532,0,0,1-.589-.589c0-.335.209-.526.589-.526h8.447a.532.532,0,0,1,.589.589c0,.337-.209.526-.589.526h-2.354v5.863C833.009,170.556,832.883,170.535,833.891,170.535Zm-3.257-17.295h.654a.532.532,0,0,1,.587.589v1.744h3.739a.533.533,0,0,1,.589.589v2.773a.532.532,0,0,1-.589.589h-.608a.532.532,0,0,1-.589-.589v-2.289h-6.557v2.289a.532.532,0,0,1-.589.589h-.587a.509.509,0,0,1-.568-.589v-2.752a.557.557,0,0,1,.589-.61h3.341v-1.744A.532.532,0,0,1,830.634,153.24Zm3.469,6.116c0,.314-.212.482-.589.482h-4.729a.533.533,0,0,1-.589-.589c0-.314.212-.482.589-.482h4.729A.533.533,0,0,1,834.1,159.356Z" transform="translate(-802.009 -153.24)" fill="#3b3938" stroke="#3b3938" stroke-width="0.198"/>
          <path id="パス_6711" data-name="パス 6711" d="M839.416,159.554a3.36,3.36,0,0,1-2.773,1.515,3.447,3.447,0,0,1-2.566-1.325c-.692-.841-1.155-1.113-1.637-1.113-.589,0-1.115.335-1.744,1.281-.254.358-.547.421-.843.126l-.126-.126a.576.576,0,0,1-.084-.82,3.427,3.427,0,0,1,2.8-1.511A3.476,3.476,0,0,1,835,158.9c.692.841,1.155,1.113,1.639,1.113.587,0,1.113-.335,1.744-1.281.251-.358.545-.4.84-.1l.1.1A.573.573,0,0,1,839.416,159.554Z" transform="translate(-792.348 -148.481)" fill="#3b3938" stroke="#3b3938" stroke-width="0.198"/>
          <path id="パス_6712" data-name="パス 6712" d="M840.339,157.336v5.106c2.4-.966,6.62-1.681,8.005,1.807,1.136,3.069-.252,6.009-2.983,6.473-1.43.272-2.817-.317-3.993-2.165-.335-.526.442-1.178.841-.631.9,1.178,2.1,1.723,3.467.9a2.958,2.958,0,0,0,1.218-2.079c.358-4.245-3.97-4.286-6.555-3.069V167.8c0,1.513-.694,2.626-2.016,2.838a2.752,2.752,0,0,1-3.006-2.964c-.021-2.058,2-3.635,3.4-4.454v-5.884h-2.9a.537.537,0,1,1,0-1.073h2.9v-2.121c0-.4.209-.631.547-.631h.545c.356,0,.526.21.526.631v2.121h3.215a.537.537,0,1,1,0,1.073Zm-3.993,10.317c0,.924.673,1.66,1.429,1.492.692-.168.882-.82.945-1.6v-3.027C837.755,165.174,836.43,166.014,836.346,167.653Zm12.629-5.968c-1.681-1.7-2.543-1.891-3.7-1.849-.337,0-.526-.1-.526-.358-.021-.231.1-.419.421-.5a4.722,4.722,0,0,1,4.938,1.2.52.52,0,0,1,.145.736l-.5.715C849.5,161.979,849.268,161.979,848.975,161.686Z" transform="translate(-786.035 -152.943)" fill="#3b3938" stroke="#3b3938" stroke-width="0.198"/>
          <path id="パス_6713" data-name="パス 6713" d="M845.357,156.279v7.986a.533.533,0,0,1-.589.589h-.44a.533.533,0,0,1-.589-.589v-7.986a.531.531,0,0,1,.589-.587h.44A.531.531,0,0,1,845.357,156.279Zm-.147,15.32c-.252.335-.568.314-.82-.021l-.231-.316a.608.608,0,0,1,0-.82c1.555-2.1,2.1-4.454,2.1-8.994V153.99a.532.532,0,0,1,.589-.589h.5a.532.532,0,0,1,.589.589v8.089C847.942,166.449,847.208,169.034,845.211,171.6Zm12.9-6.452a.532.532,0,0,1,.589.589v3c0,1.7-.231,1.893-1.933,1.893a5.248,5.248,0,0,1-.757-.042.549.549,0,0,1-.547-.61c0-.358.189-.526.526-.484a4.953,4.953,0,0,0,.524.021c.631,0,.463.021.463-.778v-2.647H854.75v5.421a.532.532,0,0,1-.589.589h-.608a.532.532,0,0,1-.589-.589v-5.421h-1.891v4.014a.531.531,0,0,1-.589.587h-.566a.557.557,0,0,1-.61-.587v-4.412a.508.508,0,0,1,.589-.568h3.067v-2.543h-2.941V164.1a.533.533,0,0,1-.589.589h-.566a.532.532,0,0,1-.589-.589v-1.954a.531.531,0,0,1,.589-.587h10.3a.53.53,0,0,1,.587.587v1.977a.53.53,0,0,1-.587.587h-.547a.531.531,0,0,1-.589-.587v-1.534H854.75v2.564Zm-9.118-5.339c0-.252.21-.377.587-.377h7.586v-1.786h-7.248a.532.532,0,0,1-.589-.589c0-.21.21-.314.589-.314h7.248V155h-7.586a.531.531,0,0,1-.587-.589c0-.314.21-.484.587-.484h8.806a.532.532,0,0,1,.587.589v5.295a.531.531,0,0,1-.587.589h-8.806A.531.531,0,0,1,848.994,159.809Z" transform="translate(-776.752 -153.064)" fill="#3b3938" stroke="#3b3938" stroke-width="0.198"/>
          <path id="パス_6714" data-name="パス 6714" d="M855.832,154.416a26.018,26.018,0,0,0-1.683,6.41,9.783,9.783,0,0,1,1.39-3.7c1.26-1.977,3.632-3.069,5.693-1.094,2,2.417,1.974,7.5.547,10.612a9.428,9.428,0,0,1-5.9,5.022c-.335.1-.568-.021-.61-.316a.51.51,0,0,1,.358-.631,7.614,7.614,0,0,0,4.58-4.811,13.532,13.532,0,0,0,.21-7.271c-.631-2.689-2.5-2.752-3.907-.841a8.709,8.709,0,0,0-1.451,3.383,11.421,11.421,0,0,0-.021,4.056.512.512,0,0,1-.379.631l-.608.21a.476.476,0,0,1-.673-.356c-1.071-4.414-.547-7.355.608-11.914a.458.458,0,0,1,.652-.358l.883.293A.455.455,0,0,1,855.832,154.416Z" transform="translate(-766.831 -153.049)" fill="#3b3938" stroke="#3b3938" stroke-width="0.198"/>
          <path id="パス_6715" data-name="パス 6715" d="M871.574,168.646a.494.494,0,0,1,.1.736l-.524.715a.453.453,0,0,1-.757.063,20.773,20.773,0,0,0-3.383-2.584,3.7,3.7,0,0,1-.189,1.155c-.61,1.891-2.608,2.375-4.1,2.312-1.366-.063-3.867-.987-3.32-3.425.419-1.935,2.689-2.144,4.056-2.144a6.769,6.769,0,0,1,1.891.233v-4.5H860.1a.475.475,0,0,1-.526-.524v-.023a.475.475,0,0,1,.526-.524h5.232v-3.048h-5.821a.476.476,0,0,1-.526-.524v-.021a.477.477,0,0,1,.526-.526h5.821v-2.081a.5.5,0,0,1,.526-.545h.755a.476.476,0,0,1,.526.526v2.1h4.182a.477.477,0,0,1,.526.526v.021a.476.476,0,0,1-.526.524h-4.2v3.048h3.637a.475.475,0,0,1,.524.524v.023a.475.475,0,0,1-.524.524H867.1v4.9A19.034,19.034,0,0,1,871.574,168.646Zm-10.694-.757c-.149,1.239.966,1.639,1.891,1.66a2.126,2.126,0,0,0,2.417-1.451,3.365,3.365,0,0,0,.1-1.029,5,5,0,0,0-1.849-.419C862.6,166.609,861.006,166.756,860.88,167.89Z" transform="translate(-760.039 -153.075)" fill="#3b3938" stroke="#3b3938" stroke-width="0.198"/>
          <path id="パス_6716" data-name="パス 6716" d="M880.694,154.8v.021a.5.5,0,0,1-.524.545l-1.367.042a3.939,3.939,0,0,0-.715.063,5.314,5.314,0,0,0-2.142.715c-2.165,1.346-3.427,4.307-3.174,7.418.293,3.7,3.025,5.043,5.884,5.106a.478.478,0,0,1,.526.526v.168a.5.5,0,0,1-.547.526c-3.32-.063-7.146-1.346-7.879-5.611a8.2,8.2,0,0,1,4.242-8.8l-8.152.231a.452.452,0,0,1-.526-.505v-.021a.5.5,0,0,1,.526-.545l13.323-.379A.453.453,0,0,1,880.694,154.8Zm-1.87,5.106c0,.356-.21.524-.568.524h-.042c-.377,0-.547-.168-.547-.524v-2.333c0-.356.17-.526.547-.526h.042c.358,0,.568.17.568.526Zm1.807,0c0,.356-.168.524-.545.524h-.044c-.356,0-.566-.168-.566-.524v-2.333c0-.356.21-.526.566-.526h.044c.377,0,.545.17.545.526Z" transform="translate(-752 -152.087)" fill="#3b3938" stroke="#3b3938" stroke-width="0.198"/>
          <path id="パス_6717" data-name="パス 6717" d="M874.467,154.7c0-.335.21-.524.589-.524h6.871a.532.532,0,0,1,.589.589v.061a1.066,1.066,0,0,1-.272.736l-4.308,5.087.734-.086c2.629,0,4.014,1.513,4.014,4.035,0,3.006-1.639,4.834-4.729,4.834a7.134,7.134,0,0,1-2.962-.631.723.723,0,0,1-.4-.694v-.21c0-.482.3-.631.715-.356a4.873,4.873,0,0,0,2.647.776c1.851,0,2.9-1.176,2.9-3.718,0-2.247-.945-3.09-3.215-3.09h-.9a.53.53,0,0,1-.587-.587,1.012,1.012,0,0,1,.27-.694l4.121-4.9h-5.485A.584.584,0,0,1,874.467,154.7Z" transform="translate(-743.071 -152.217)" fill="#3b3938" stroke="#3b3938" stroke-width="0.198"/>
          <path id="パス_6718" data-name="パス 6718" d="M884.135,154.073c3.108,0,4.791,2.268,4.791,7.732s-1.683,7.732-4.791,7.732-4.792-2.27-4.792-7.732c0-2.754.377-4.624,1.26-5.967A4.132,4.132,0,0,1,884.135,154.073Zm0,14.392c1.87,0,2.941-2,2.941-6.659s-1.071-6.661-2.941-6.661-2.943,2-2.943,6.661a12.2,12.2,0,0,0,.757,5.043C882.558,168.025,883.231,168.465,884.135,168.465Z" transform="translate(-737.727 -152.327)" fill="#3b3938" stroke="#3b3938" stroke-width="0.198"/>
          <path id="パス_6719" data-name="パス 6719" d="M898,167.942c-.315,2.605-.969,3.3-2.733,3.3-.461,0-1.26-.021-2.394-.126a.542.542,0,0,1-.568-.61c-.021-.377.21-.587.61-.545.84.063,1.553.084,2.205.084.252,0,.421-.084.736-.547a9.467,9.467,0,0,0,.4-2.247c.107-1.136.191-2.9.191-5.19v-.905h-4.477c-.273,4.917-1.679,7.923-4.852,10.235a.515.515,0,0,1-.82-.17l-.128-.21a.549.549,0,0,1,.149-.82c2.331-1.786,3.593-4.58,3.886-9.036h-2.5a.53.53,0,0,1-.587-.587v.021c-.359.419-.757.84-1.2,1.3a.5.5,0,0,1-.84-.042l-.21-.252a.58.58,0,0,1,.042-.841,23.4,23.4,0,0,0,4.412-6.766.532.532,0,0,1,.778-.314l.463.21a.52.52,0,0,1,.294.757A25.372,25.372,0,0,1,887.6,160h10.214a25.8,25.8,0,0,1-3.259-5.337.533.533,0,0,1,.316-.778l.442-.191a.513.513,0,0,1,.775.3,23.408,23.408,0,0,0,4.414,6.766.58.58,0,0,1,.042.841l-.212.272a.5.5,0,0,1-.841.042q-.692-.723-1.26-1.386v.841A62.757,62.757,0,0,1,898,167.942Z" transform="translate(-731.852 -152.833)" fill="#3b3938" stroke="#3b3938" stroke-width="0.198"/>
        </g>
      </g>
      <g id="グループ_1028" data-name="グループ 1028" transform="translate(312.364 0.128)">
        <g id="グループ_1027" data-name="グループ 1027">
          <path id="パス_6720" data-name="パス 6720" d="M920.965,171.751a9.509,9.509,0,0,1-4.771-4.245,10.25,10.25,0,0,1-4.957,4.245.524.524,0,0,1-.757-.358l-.042-.1a.569.569,0,0,1,.356-.757,7.214,7.214,0,0,0,4.266-4.708h-3a.531.531,0,0,1-.589-.587V160.8a.531.531,0,0,1,.589-.587h3.15v-1.849h-2.037a.533.533,0,0,1-.589-.589c0,.1-.1.231-.336.419-.272.233-.61.484-.966.778-.358.254-.652.168-.8-.231l-.189-.482h-.966c.293,1.134,1.344,4.159,1.786,5.462a.621.621,0,0,1-.275.778l-.251.168c-.356.252-.652.147-.757-.272-.1-.358-.252-.841-.484-1.534v8.552a.531.531,0,0,1-.587.589h-.317a.531.531,0,0,1-.587-.589v-7.607a25.764,25.764,0,0,1-1.115,3.069c-.188.44-.545.463-.817.084l-.254-.379a.737.737,0,0,1-.084-.8,33.422,33.422,0,0,0,2.184-7.521h-1.49a.533.533,0,0,1-.589-.589c0-.335.21-.505.589-.505h1.576V154.1a.531.531,0,0,1,.587-.589h.317a.531.531,0,0,1,.587.589v3.067H910.4a.534.534,0,0,1,.589.589c0-.147.1-.293.335-.484a28.255,28.255,0,0,0,3.656-3.635.841.841,0,0,1,.715-.335h.82a.841.841,0,0,1,.715.335,25.1,25.1,0,0,0,4.307,4.182.643.643,0,0,1,.23.8l-.042.126c-.147.4-.461.484-.82.231-.524-.419-.945-.778-1.281-1.05,0,.293-.21.442-.589.442h-2.058v1.849h3.255a.531.531,0,0,1,.589.587v4.435a.531.531,0,0,1-.589.587H917.12a7.143,7.143,0,0,0,4.286,4.708.542.542,0,0,1,.356.757l-.042.126A.521.521,0,0,1,920.965,171.751Zm-5.758-10.571h-2.058V164.9h2.058Zm.9-6.871a31.233,31.233,0,0,1-2.857,3.069h5.716A25.256,25.256,0,0,1,916.11,154.309Zm.864,6.871V164.9h2.121V161.18Z" transform="translate(-905.504 -153.301)" fill="#3b3938" stroke="#3b3938" stroke-width="0.198"/>
          <path id="パス_6721" data-name="パス 6721" d="M914.383,170.743c0-.358.212-.547.589-.547h1.786v-8.384a.647.647,0,0,1,.589-.673h9.982a.559.559,0,0,1,.61.589V170.2h1.786a.531.531,0,0,1,.587.589c0,.335-.21.5-.587.5H914.972C914.595,171.288,914.383,171.1,914.383,170.743Zm14.752-9.057c-.442-.254-.82-.484-1.134-.673a25.95,25.95,0,0,1-4.75-3.616v2.312a.532.532,0,0,1-.589.589h-.629a.532.532,0,0,1-.589-.589V157.4a25.892,25.892,0,0,1-4.75,3.616c-.356.231-.8.482-1.367.778a.482.482,0,0,1-.776-.3l-.044-.126a.572.572,0,0,1,.3-.778,26.289,26.289,0,0,0,6.177-4.349h-5.737a.531.531,0,0,1-.587-.589c0-.335.21-.524.587-.524h6.2V153.89a.532.532,0,0,1,.589-.589h.629a.532.532,0,0,1,.589.589v1.239h6.179a.531.531,0,0,1,.587.589c0,.335-.209.524-.587.524h-5.718a26.305,26.305,0,0,0,6.179,4.349.571.571,0,0,1,.293.778l-.042.126C930.018,161.874,929.64,161.958,929.135,161.685Zm-10.571,2.561h7.565v-2.058h-7.565Zm0,.885v2.058h7.565v-2.058Zm0,2.92V170.2h7.565v-2.144Z" transform="translate(-895.772 -153.301)" fill="#3b3938" stroke="#3b3938" stroke-width="0.198"/>
          <path id="パス_6722" data-name="パス 6722" d="M927.74,160.444a.55.55,0,0,1,.4-.715l.168-.063a.484.484,0,0,1,.736.379c.272,1.029.524,2.228.715,3.425a.564.564,0,0,1-.442.692l-.189.042c-.4.107-.652-.019-.694-.356a2.531,2.531,0,0,0-.084-.482c-.317,0-.778.021-1.134.042v8a.533.533,0,0,1-.589.589h-.5a.531.531,0,0,1-.587-.589v-7.858l-1.851.147a.522.522,0,0,1-.608-.568c-.021-.293.189-.482.566-.5l.652-.044c.377-.65.526-.922.778-1.427-.545-1.241-1.176-2.48-1.807-3.762a.732.732,0,0,1,.021-.8l.231-.421c.233-.419.568-.484.736-.147l.317.61c.335-.8.713-1.765,1.134-2.859a.49.49,0,0,1,.778-.314l.356.189a.558.558,0,0,1,.275.778c-.484,1.241-1.031,2.564-1.681,3.972.147.272.252.547.524,1.092.547-1.092,1.094-2.312,1.681-3.614.147-.379.442-.463.8-.233l.293.191a.572.572,0,0,1,.254.8c-.82,1.849-1.807,3.781-2.964,5.819l2.1-.145C927.991,161.643,927.865,160.992,927.74,160.444Zm-2.5,5.234a45.412,45.412,0,0,1-.587,4.685.52.52,0,0,1-.715.44l-.337-.084a.534.534,0,0,1-.44-.692q.377-2.081.568-4.414a.515.515,0,0,1,.631-.545l.356.042C925.092,165.152,925.26,165.341,925.239,165.678Zm2.649,3.718c-.084-1.367-.191-2.626-.337-3.741a.546.546,0,0,1,.505-.671l.336-.065a.548.548,0,0,1,.673.505q.251,2.05.377,3.972a.527.527,0,0,1-.524.631l-.379.042C928.14,170.112,927.907,169.879,927.888,169.4Zm11.241-13.218c0,.335-.21.505-.589.505h-3.4v3.593h3.048a.531.531,0,0,1,.587.589c0,.293-.21.44-.587.44h-7.712a.532.532,0,0,1-.589-.589c0-.293.21-.44.589-.44h2.857v-3.593h-3.236a.532.532,0,0,1-.587-.589c0-.335.21-.5.587-.5h3.236v-1.7a.532.532,0,0,1,.589-.589h.629a.532.532,0,0,1,.589.589v1.7h3.4A.531.531,0,0,1,939.13,156.179Zm-2.4,15.046V170.7h-4.917v.524a.533.533,0,0,1-.589.589h-.566a.533.533,0,0,1-.589-.589v-7a.532.532,0,0,1,.589-.589h7.29a.532.532,0,0,1,.589.589v7a.533.533,0,0,1-.589.589h-.629A.533.533,0,0,1,936.734,171.225Zm0-1.6v-4.875h-4.917v4.875Z" transform="translate(-886.246 -153.301)" fill="#3b3938" stroke="#3b3938" stroke-width="0.198"/>
          <path id="パス_6723" data-name="パス 6723" d="M931.967,164.022c0-.316.21-.484.589-.484h6.24v-1.786h-5.022a.533.533,0,0,1-.589-.589v-6.934a.532.532,0,0,1,.589-.587h11.767a.531.531,0,0,1,.589.587v6.934a.532.532,0,0,1-.589.589h-5.022v1.786h6.221a.533.533,0,0,1,.589.589c0,.314-.212.484-.589.484h-5.506a24.374,24.374,0,0,0,5.989,5.19.548.548,0,0,1,.233.8l-.084.17a.489.489,0,0,1-.8.21,25.8,25.8,0,0,1-6.051-5.106v5.085a.531.531,0,0,1-.587.589h-.547a.532.532,0,0,1-.589-.589v-5.127a25.367,25.367,0,0,1-6.072,5.148.507.507,0,0,1-.82-.231l-.084-.191c-.147-.335-.042-.608.356-.859a22.143,22.143,0,0,0,5.884-5.085h-5.5A.533.533,0,0,1,931.967,164.022Zm3.006-6.85H938.8v-2.5h-3.823Zm3.823,3.572v-2.626h-3.823v2.626Zm5.548-3.572v-2.5h-3.825v2.5Zm-3.825,3.572h3.825v-2.626h-3.825Z" transform="translate(-876.729 -152.927)" fill="#3b3938" stroke="#3b3938" stroke-width="0.198"/>
          <path id="パス_6724" data-name="パス 6724" d="M943.336,155.02a39.257,39.257,0,0,0-1.071,11.348,10.8,10.8,0,0,1,.859-2.922c.128-.335.379-.44.652-.293.293.147.335.419.168.8a10.75,10.75,0,0,0-.755,2.522,6.308,6.308,0,0,0-.023,2.878.522.522,0,0,1-.335.673l-.463.189a.441.441,0,0,1-.671-.293c-1.723-4.708-1.073-10.065-.021-15.276a.465.465,0,0,1,.631-.4l.629.147A.482.482,0,0,1,943.336,155.02Zm8.657,11.116a14.118,14.118,0,0,1,3.362,2.144.5.5,0,0,1,.042.757l-.526.587a.45.45,0,0,1-.757,0,13.085,13.085,0,0,0-2.247-1.954,3.364,3.364,0,0,1-1.115,2.27,4.239,4.239,0,0,1-4.159.505,2.726,2.726,0,0,1-1.681-1.956,2.605,2.605,0,0,1,.883-2.5c1.406-1.113,3.152-.757,4.412-.4V158.3h-4.119a.525.525,0,1,1,0-1.05h4.119v-3.132a.453.453,0,0,1,.526-.505h.8a.477.477,0,0,1,.524.526c-.021,1.2-.042,2.207-.042,3.111h2.857a.525.525,0,1,1,0,1.05h-2.878Zm-4.875,2.985a2.324,2.324,0,0,0,2.564-.419,3.587,3.587,0,0,0,.505-1.83c-1.029-.44-2.584-.987-3.551.063A1.428,1.428,0,0,0,947.118,169.121Z" transform="translate(-867 -152.962)" fill="#3b3938" stroke="#3b3938" stroke-width="0.198"/>
          <path id="パス_6725" data-name="パス 6725" d="M960.534,154.545a.688.688,0,0,1-.021.608,31.8,31.8,0,0,1-3.048,6.368,27.035,27.035,0,0,1,5.485,5.947.549.549,0,0,1-.128.8l-.859.694a.461.461,0,0,1-.778-.149,32.5,32.5,0,0,0-4.477-6.345,22.068,22.068,0,0,1-7.523,6.7c-.314.189-.587.147-.713-.147a.5.5,0,0,1,.229-.715c4.6-3.132,7.313-7.081,9.374-12.839h-7.1a.5.5,0,0,1-.568-.568.521.521,0,0,1,.568-.568h8.994C960.28,154.333,960.448,154.4,960.534,154.545Z" transform="translate(-858.486 -152.17)" fill="#3b3938" stroke="#3b3938" stroke-width="0.198"/>
          <path id="パス_6726" data-name="パス 6726" d="M956.02,155.5a.534.534,0,0,1,.587-.568h12.924a.7.7,0,0,1,.673.356.848.848,0,0,1,0,.778,21.041,21.041,0,0,1-6.347,7.8,23.846,23.846,0,0,1,2.207,3.111.562.562,0,0,1-.149.82l-.757.568a.5.5,0,0,1-.817-.191,21.855,21.855,0,0,0-5.255-7c-.293-.252-.335-.505-.126-.757a.53.53,0,0,1,.757-.084,13.361,13.361,0,0,1,3.195,2.605,17.716,17.716,0,0,0,4.6-6.871H956.607C956.208,156.069,956,155.859,956.02,155.5Z" transform="translate(-850.136 -151.51)" fill="#3b3938" stroke="#3b3938" stroke-width="0.198"/>
          <path id="パス_6727" data-name="パス 6727" d="M968.049,162.258a19.22,19.22,0,0,1-2.312,6.158.528.528,0,0,1-.82.189l-.587-.4a.532.532,0,0,1-.149-.82,18.26,18.26,0,0,0,2.563-5.464.524.524,0,0,1,.715-.4l.149.042A.537.537,0,0,1,968.049,162.258Zm10.717-4.58c0,.358-.21.547-.589.547h-5.884v12a.533.533,0,0,1-.589.589h-.65a.558.558,0,0,1-.61-.589v-12h-5.758c-.379,0-.589-.189-.589-.547s.21-.545.589-.545h5.737v-2.922a.554.554,0,0,1,.589-.608h.671a.529.529,0,0,1,.61.566v2.964h5.884C978.557,157.133,978.766,157.321,978.766,157.678Zm-3.53,3.783a19.016,19.016,0,0,1,3.572,5.693.533.533,0,0,1-.275.778l-.694.358a.479.479,0,0,1-.755-.316,18.778,18.778,0,0,0-2.752-5.63.579.579,0,0,1,.061-.841l.023-.021A.511.511,0,0,1,975.236,161.461Z" transform="translate(-841.331 -152.972)" fill="#3b3938" stroke="#3b3938" stroke-width="0.198"/>
          <path id="パス_6728" data-name="パス 6728" d="M975.224,154.663a38.031,38.031,0,0,0-1.071,11.725,10.332,10.332,0,0,1,.9-3.152.458.458,0,0,1,.673-.293.525.525,0,0,1,.251.736,16.5,16.5,0,0,0-.882,2.731,6.043,6.043,0,0,0-.042,2.878.517.517,0,0,1-.336.673l-.421.191a.469.469,0,0,1-.694-.3c-1.723-4.811-1.113-10.3-.021-15.593a.465.465,0,0,1,.631-.4l.631.168A.46.46,0,0,1,975.224,154.663ZM985.9,169.478c-2.207.21-4.5.356-6.494-.568a3.529,3.529,0,0,1-2.268-3.132,5.441,5.441,0,0,1,1.344-3.425.461.461,0,0,1,.694-.147.5.5,0,0,1,.084.715,4.456,4.456,0,0,0-.819,2.773,2.115,2.115,0,0,0,1.513,1.786,11.8,11.8,0,0,0,5.863.316.466.466,0,0,1,.587.482v.652A.487.487,0,0,1,985.9,169.478Zm-.4-12.673a17.044,17.044,0,0,0-4.054,2.8.478.478,0,0,1-.694.021c-.21-.189-.21-.442.042-.694.736-.778,1.409-1.513,1.6-1.7A9.026,9.026,0,0,1,977.7,156.2a.466.466,0,0,1-.294-.631c.1-.252.314-.337.631-.252a14.766,14.766,0,0,0,7.227-.086c.38-.084.589.086.61.442v.526A.62.62,0,0,1,985.5,156.8Z" transform="translate(-832.041 -152.709)" fill="#3b3938" stroke="#3b3938" stroke-width="0.198"/>
          <path id="パス_6729" data-name="パス 6729" d="M982.313,153.662H995a.531.531,0,0,1,.589.587v3.4a.532.532,0,0,1-.589.589h-4.559v2.584h4.224a.533.533,0,0,1,.589.589v9.518a.533.533,0,0,1-.589.589h-.61a.531.531,0,0,1-.587-.589v-.526h-7.86v.526a.532.532,0,0,1-.589.589h-.587a.532.532,0,0,1-.589-.589v-9.518a.532.532,0,0,1,.589-.589h4.224v-2.584h-5.213v2.668a26.558,26.558,0,0,1-1.637,9.94c-.17.442-.526.484-.822.1l-.4-.505a.644.644,0,0,1-.188-.65,30.949,30.949,0,0,0,1.325-9.793v-5.758A.53.53,0,0,1,982.313,153.662Zm1.134,3.614h10.319V154.67H983.447Zm5.213,7.711v-3.194h-3.048v3.194Zm0,.945h-3.048v3.509h3.048Zm1.786-.945h3.027v-3.194h-3.027Zm0,.945v3.509h3.027v-3.509Z" transform="translate(-823.441 -152.905)" fill="#3b3938" stroke="#3b3938" stroke-width="0.198"/>
          <path id="パス_6730" data-name="パス 6730" d="M998.418,169.963a.541.541,0,0,1-.063.82l-.65.608a.513.513,0,0,1-.843-.063c-.757-1.008-1.534-2.016-2.249-2.92a35.162,35.162,0,0,0-3-3.446c-.377-.379-.757-.694-1.113-1.029a3.241,3.241,0,0,1-.8-1.031,2.261,2.261,0,0,1,0-1.849,21.62,21.62,0,0,1,2.5-3.278c1.029-1.176,2.058-2.226,3.677-4.119a.5.5,0,0,1,.841-.021l.526.631a.548.548,0,0,1-.042.841c-2.018,1.849-3.616,3.467-5.611,5.59-.966,1.008-.987,1.553,0,2.394l.945.8A36.112,36.112,0,0,1,998.418,169.963Z" transform="translate(-813.437 -153.174)" fill="#3b3938" stroke="#3b3938" stroke-width="0.198"/>
        </g>
      </g>
      <g id="グループ_1029" data-name="グループ 1029" transform="translate(102.412 4.236)">
        <path id="パス_6731" data-name="パス 6731" d="M805.612,155.322l5.833,5.852a.458.458,0,0,1,0,.637l-5.833,5.833c-.155.153-.272.019-.272-.352V155.676C805.34,155.307,805.457,155.171,805.612,155.322Z" transform="translate(-805.34 -155.261)" fill="#ee7000"/>
      </g>
      <g id="グループ_1030" data-name="グループ 1030" transform="translate(296.327 4.236)">
        <path id="パス_6732" data-name="パス 6732" d="M898.125,155.322l5.833,5.852a.458.458,0,0,1,0,.637l-5.833,5.833c-.157.153-.272.019-.272-.352V155.676C897.853,155.307,897.968,155.171,898.125,155.322Z" transform="translate(-897.853 -155.261)" fill="#ee7000"/>
      </g>
    </g>
    <g id="グループ_1033" data-name="グループ 1033" transform="translate(829.76 136.584)">
      <g id="グループ_1032" data-name="グループ 1032">
        <path id="パス_6733" data-name="パス 6733" d="M802.385,162.5h-.822c-.528,0-.824-.293-.736-.822v-9.661a30.918,30.918,0,0,1-8.368,4.609c-.528.178-.851.059-.968-.323-.147-.382.029-.7.5-.91A31.835,31.835,0,0,0,804.644,144.5h-9.453a.722.722,0,0,1-.822-.792c0-.5.294-.763.822-.763h12.8c.472,0,.734.088.822.323s.029.5-.262.968a34.784,34.784,0,0,1-5.492,6.2l.147,11.245A.743.743,0,0,1,802.385,162.5Zm.382-20.846a45.572,45.572,0,0,0-4.874-3.494c-.471-.264-.589-.616-.383-1s.528-.47,1-.293a36.431,36.431,0,0,1,5.462,2.761.746.746,0,0,1,.293,1.115l-.352.675A.69.69,0,0,1,802.766,141.653Zm7.194,15.178a25.673,25.673,0,0,0-5.374-5.2.7.7,0,0,1-.205-1.115c.294-.44.646-.56,1.027-.352a24.485,24.485,0,0,1,6.4,4.639.785.785,0,0,1,.059,1.174l-.763.88A.651.651,0,0,1,809.96,156.831Z" transform="translate(-791.441 -136.371)" fill="#ee7000" stroke="#ee7000" stroke-width="0.25"/>
        <path id="パス_6734" data-name="パス 6734" d="M804.544,142.361a27.36,27.36,0,0,1,2.379,5.2.69.69,0,0,1-.472,1.027l-1.32.47a.66.66,0,0,1-.968-.587,26.453,26.453,0,0,0-1.147-5.4.759.759,0,0,1,.47-1.027l.031.027A.729.729,0,0,1,804.544,142.361Zm14.3.176c-2,7.517-4.7,12.539-11.424,16.444-.47.264-.822.176-1.027-.205a.706.706,0,0,1,.323-1c5.932-3.876,7.781-8.456,9.573-16.117a.688.688,0,0,1,1-.56l1.057.411A.758.758,0,0,1,818.843,142.537Zm-9.1-2.2a31.277,31.277,0,0,1,2.408,5.638.656.656,0,0,1-.5.968l-1.262.411c-.558.176-.88-.059-.968-.616a26.148,26.148,0,0,0-1.233-5.668.718.718,0,0,1,.5-1l.059-.029A.752.752,0,0,1,809.74,140.336Z" transform="translate(-778.814 -132.882)" fill="#ee7000" stroke="#ee7000" stroke-width="0.25"/>
        <path id="パス_6735" data-name="パス 6735" d="M826,150.259a.709.709,0,0,1,.264,1.086l-.7,1.117a.7.7,0,0,1-1.117.2,98.52,98.52,0,0,0-8.338-5.871V160.8a.7.7,0,0,1-.792.792h-1.027a.7.7,0,0,1-.792-.792V138.133a.734.734,0,0,1,.792-.822h1.027a.725.725,0,0,1,.792.79v7.076A62.628,62.628,0,0,1,826,150.259Z" transform="translate(-767.275 -135.787)" fill="#ee7000" stroke="#ee7000" stroke-width="0.25"/>
        <path id="パス_6736" data-name="パス 6736" d="M827.427,142.826a.73.73,0,0,1-.206-1.115l.117-.176a.744.744,0,0,1,1.145-.237c1.528,1.088,2.907,2.115,4.11,3.056a40.13,40.13,0,0,0,5.609-5.4H825.109a.743.743,0,0,1-.822-.822c0-.47.293-.706.822-.706h14.826a.744.744,0,0,1,.822.824v.059a1.464,1.464,0,0,1-.352,1.027,77.9,77.9,0,0,1-6.458,6.077l2,1.792h6.81a.743.743,0,0,1,.822.822v.235a1.823,1.823,0,0,1-.294,1.029,33.276,33.276,0,0,1-4.785,5.548.674.674,0,0,1-1.144-.088l-.235-.323a.8.8,0,0,1,.117-1.144,32.529,32.529,0,0,0,3.817-4.433h-6.959v9.365c0,3.083-.323,3.494-3.26,3.494-.675,0-1.761-.029-3.289-.117a.794.794,0,0,1-.822-.853c-.03-.5.293-.763.851-.734,1.438.088,2.379.117,2.907.117,1.027,0,1.027,0,1.027-1.907v-9.365h-9.542a.823.823,0,0,1,0-1.645h11.128C830.8,145.32,828.924,143.882,827.427,142.826Z" transform="translate(-758.883 -135.666)" fill="#ee7000" stroke="#ee7000" stroke-width="0.25"/>
        <path id="パス_6737" data-name="パス 6737" d="M840.885,146.722a.777.777,0,0,1,.587-1.027l.528-.149a.763.763,0,0,1,1.027.646c.587,2.672.851,3.966,1.027,4.846a.749.749,0,0,1-.646.968l-.528.117c-.528.117-.851-.088-.939-.558l-.117-.675-1.616.147v11.1a.742.742,0,0,1-.822.822h-.851a.743.743,0,0,1-.822-.822V151.243l-3.171.235a.725.725,0,0,1-.853-.763c-.027-.44.237-.7.765-.765l1.438-.145s.47-.765,1.027-1.792c-1.144-2.318-2.054-4.169-2.758-5.492a1.025,1.025,0,0,1,.029-1.115l.352-.616c.323-.587.763-.646,1.027-.117.176.293.323.646.469.91.53-1.115,1.088-2.494,1.7-4.081a.693.693,0,0,1,1.086-.44l.5.264a.781.781,0,0,1,.382,1.088c-.646,1.643-1.5,3.492-2.495,5.49.44.851.763,1.5.939,1.88.851-1.557,1.761-3.35,2.671-5.345a.692.692,0,0,1,1.117-.352l.381.264a.771.771,0,0,1,.323,1.117,85.671,85.671,0,0,1-4.375,8.25l3.26-.237C841.354,148.632,841.118,147.632,840.885,146.722Zm-4.022,7.456a56.327,56.327,0,0,1-.882,6.489.758.758,0,0,1-1,.646l-.528-.115a.788.788,0,0,1-.646-1,54.8,54.8,0,0,0,.851-6.165.722.722,0,0,1,.88-.765l.587.061C836.657,153.388,836.919,153.681,836.862,154.178Zm6.4-.5c.264,1.79.47,3.7.587,5.724a.8.8,0,0,1-.763.91l-.587.059a.7.7,0,0,1-.91-.734c-.117-2-.3-3.876-.5-5.55a.7.7,0,0,1,.675-.91l.557-.088C842.851,153,843.174,153.211,843.262,153.681Zm2.26-6.372a.674.674,0,0,1-1.115.323l-.44-.293a.828.828,0,0,1-.323-1.115,46.5,46.5,0,0,0,2.672-8.751.757.757,0,0,1,.939-.675l.734.117a.724.724,0,0,1,.646.97c-.145.646-.293,1.409-.528,2.318H855.3a.753.753,0,0,1,.824.851c-.12,6.577-.207,10.893-.442,14.153-.115,1.7-.235,3-.352,3.993a7.962,7.962,0,0,1-.528,2.113,1.629,1.629,0,0,1-1.763,1.059c-1.23,0-2.758-.059-4.519-.235a.757.757,0,0,1-.795-.851c-.029-.53.294-.822.883-.765a18.718,18.718,0,0,0,3.023.088c.469-.029.851-.145,1.117-1.174a43.171,43.171,0,0,0,.5-5.284c.147-2.761.264-6.871.382-12.331h-5.991A41.626,41.626,0,0,1,845.521,147.309Zm3.819,6.487a57.076,57.076,0,0,0-2.614-5.9.761.761,0,0,1,.293-1.115l.5-.323a.724.724,0,0,1,1.147.293,51.7,51.7,0,0,1,2.788,6.2.814.814,0,0,1-.411,1.086l-.557.323C849.986,154.62,849.575,154.415,849.34,153.8Z" transform="translate(-745.136 -136.361)" fill="#ee7000" stroke="#ee7000" stroke-width="0.25"/>
        <path id="パス_6738" data-name="パス 6738" d="M857.311,142.023v.027a.665.665,0,0,1-.733.736H853.9a91.106,91.106,0,0,1-4.961,13.713.657.657,0,0,1-1,.352l-.939-.5a.706.706,0,0,1-.323-1,74.1,74.1,0,0,0,4.756-12.566h-3.553a.665.665,0,0,1-.734-.736v-.027a.666.666,0,0,1,.734-.736h3.934c.264-1.144.528-2.348.792-3.641a.65.65,0,0,1,.882-.558l1,.237a.654.654,0,0,1,.528.878c-.235,1.088-.47,2.144-.7,3.083h2.26A.666.666,0,0,1,857.311,142.023Zm4.817-.618a21.522,21.522,0,0,1,5.812,4.9.686.686,0,0,1-.029,1.027l-.646.7a.734.734,0,0,1-1.027.117,6.379,6.379,0,0,0-2.7-.91c-1-.059-1.409.646-1.555,2a22.49,22.49,0,0,0-.029,2.494c0,.939.088,1.966.147,3.113a28.736,28.736,0,0,1,4.991,3.465.692.692,0,0,1,.117,1.027l-.587.763a.618.618,0,0,1-1.057.061c-1.616-1.587-2.7-2.555-3.435-3.262V158a4.6,4.6,0,0,1-.354,1.467c-.969,2.144-3.463,2.584-5.314,2.379a4.9,4.9,0,0,1-2.76-1.2,3.806,3.806,0,0,1,1.059-6.049,7.237,7.237,0,0,1,4.991-.352c-.029-1.176-.117-2.174-.117-3.025a7.825,7.825,0,0,1,.235-2.438,3.572,3.572,0,0,1,3.67-2.582,10.028,10.028,0,0,1,1.262.147,13.794,13.794,0,0,0-3.406-3.406.742.742,0,0,1-.264-1.027l.088-.147C861.453,141.317,861.774,141.2,862.128,141.4Zm-6.607,14.387a2.174,2.174,0,0,0,1.144,3.993,2.747,2.747,0,0,0,3-1.5,3.612,3.612,0,0,0,.147-1.144V155.88A4.528,4.528,0,0,0,855.521,155.792Z" transform="translate(-730.984 -136.066)" fill="#ee7000" stroke="#ee7000" stroke-width="0.25"/>
        <path id="パス_6739" data-name="パス 6739" d="M870.091,142.245c-.941-.057-1.792-.145-2.555-.176a8.857,8.857,0,0,0-2.7.352,2.9,2.9,0,0,0-2,2.115,8.183,8.183,0,0,0-.264,1.675l-.293,5.519c3.521-2.526,8.456-4.639,12.241-1.5a5.129,5.129,0,0,1,1.587,2.494,6.82,6.82,0,0,1-1,5.638,8.245,8.245,0,0,1-3.788,2.758,18.07,18.07,0,0,1-8.25.794.64.64,0,0,1-.675-.706c-.029-.411.235-.646.734-.646a15.5,15.5,0,0,0,5.783-.763c1.761-.616,3.846-1.849,4.433-4.052a4.434,4.434,0,0,0-1.643-4.873c-1.381-.792-3.054-.47-4.58.117a16.222,16.222,0,0,0-5.433,3.964.834.834,0,0,1-.969.264l-.616-.176a.752.752,0,0,1-.558-.851c.117-1.851.47-6.959.528-7.693a9.117,9.117,0,0,1,.587-2.526,5.434,5.434,0,0,1,3.788-2.937,6.623,6.623,0,0,1,1.438-.205,13.47,13.47,0,0,1-3.817-2.641.717.717,0,0,1-.117-1.029c.237-.352.589-.382.97-.088a14.514,14.514,0,0,0,7.37,2.849.669.669,0,0,1,.675.792l-.088.853A.665.665,0,0,1,870.091,142.245Z" transform="translate(-716.792 -136.262)" fill="#ee7000" stroke="#ee7000" stroke-width="0.25"/>
        <path id="パス_6740" data-name="パス 6740" d="M881.257,139.751c0,.411-.3.616-.824.616H877.41l1.027,3.289h1.379a.743.743,0,0,1,.822.822v6.313a.742.742,0,0,1-.822.822h-6.46v10.6a.742.742,0,0,1-.822.822h-.822a.743.743,0,0,1-.822-.822V143.568l-.323-.381a.835.835,0,0,1,0-1.176,17.523,17.523,0,0,0,2.819-4.815.788.788,0,0,1,1.057-.528l.646.176c.528.117.763.411.646.736l-.558,1.291,5.255.059A.744.744,0,0,1,881.257,139.751Zm-6.255.616h-.646a19.97,19.97,0,0,1-2.526,3.289h4.257C875.941,143.128,875.589,142.071,875,140.367Zm-1.646,6.695H878.2v-2.115h-4.844Zm0,1.115v2.2H878.2v-2.2Zm4.318,14.006h-.736a.743.743,0,0,1-.822-.824v-7.28a.743.743,0,0,1,.822-.822h8.485a.743.743,0,0,1,.824.822V160.1a.682.682,0,0,1-.824.765H878.5v.5A.744.744,0,0,1,877.674,162.183Zm.822-5.609h5.372v-2.113H878.5Zm0,1.056v2.056h5.372v-2.056Zm10.011,5.2c-.205,0-.381.029-.968,0a.79.79,0,0,1-.91-.792q-.044-.751.792-.792c.411,0,.587-.031.763-.031.794-.029.91-.205.91-1.467v-8.133H882.4a.743.743,0,0,1-.824-.822v-6.313a.743.743,0,0,1,.824-.822h3.612c-.147-.528-.528-1.585-1.086-3.289h-.912a17.093,17.093,0,0,1-2.438,2.7.747.747,0,0,1-1.174-.088l-.205-.237a.8.8,0,0,1,.088-1.142c.352-.413.851-.97,1.585-1.91a11.814,11.814,0,0,0,1.5-2.555.774.774,0,0,1,1.056-.5l.587.176a.691.691,0,0,1,.5,1.056l-.528,1h6.167a.743.743,0,0,1,.822.822c0,.44-.293.675-.822.675h-3.729l1.057,3.289h2.291a.743.743,0,0,1,.822.822v15.561C891.59,162.389,891.209,162.829,888.507,162.829Zm.587-15.767v-2.115h-5.079v2.115Zm0,1.115h-5.079v2.2h5.079Z" transform="translate(-704.976 -136.584)" fill="#ee7000" stroke="#ee7000" stroke-width="0.25"/>
        <path id="パス_6741" data-name="パス 6741" d="M892.348,138.169a.753.753,0,0,1,.354-1.115l.557-.264a.7.7,0,0,1,1.086.352c.734,1.469,1.379,3,2.025,4.67H897.9c.734-1.323,1.5-2.849,2.26-4.494a.741.741,0,0,1,1.059-.44l.558.205a.722.722,0,0,1,.47,1.059c-.5,1.144-1.145,2.348-1.878,3.67h2.846a.743.743,0,0,1,.824.822v10.1a.745.745,0,0,1-.824.824h-7.487V156.9h9.367a.744.744,0,0,1,.822.822c0,.472-.294.706-.822.706h-9.367v3.993a.743.743,0,0,1-.822.822h-.88a.743.743,0,0,1-.822-.822V158.43h-9.367a.743.743,0,0,1-.822-.824c0-.47.293-.7.822-.7H893.2v-3.345h-7.487a.743.743,0,0,1-.822-.824v-10.1a.742.742,0,0,1,.822-.822h2.494c-.528-1.352-1.027-2.467-1.438-3.347a.755.755,0,0,1,.352-1.117l.528-.264a.745.745,0,0,1,1.115.382c.736,1.5,1.381,2.966,1.939,4.347h3.171C893.406,140.519,892.878,139.316,892.348,138.169Zm-4.961,8.781H893.2v-3.641h-5.814Zm5.814,5.137V148.3h-5.814v3.788Zm8.338-5.137v-3.641h-5.815v3.641Zm-5.815,5.137h5.815V148.3h-5.815Z" transform="translate(-691.072 -136.501)" fill="#ee7000" stroke="#ee7000" stroke-width="0.25"/>
        <path id="パス_6742" data-name="パス 6742" d="M900.373,143.049V145.1a.743.743,0,0,1-.822.822h-1.643a.744.744,0,0,1-.824-.822v-2.056a.744.744,0,0,1,.824-.822h1.643A.743.743,0,0,1,900.373,143.049Z" transform="translate(-675.648 -130.399)" fill="#ee7000" stroke="#ee7000" stroke-width="0.25"/>
        <path id="パス_6743" data-name="パス 6743" d="M903.472,149.55v-11.3a.744.744,0,0,1,.822-.824h16.794a.746.746,0,0,1,.824.824v11.3a.744.744,0,0,1-.824.822h-7.135v3.964H923a.743.743,0,0,1,.822.822.722.722,0,0,1-.822.792h-9.045v5.668a.743.743,0,0,1-.822.822h-.88a.743.743,0,0,1-.822-.822v-5.668h-9.045a.743.743,0,0,1-.822-.822.721.721,0,0,1,.822-.792h9.045v-3.964h-7.135A.743.743,0,0,1,903.472,149.55Zm2.553-6.4h13.331v-4.228H906.025Zm0,1.35v4.4h13.331v-4.4Z" transform="translate(-670.739 -135.666)" fill="#ee7000" stroke="#ee7000" stroke-width="0.25"/>
        <path id="パス_6744" data-name="パス 6744" d="M917.242,139.325a63.582,63.582,0,0,0-.44,7.81,12.261,12.261,0,0,0,2.438,7.957,19.917,19.917,0,0,1,.469-2.289,15.283,15.283,0,0,1,.968-2.379c.235-.47.5-.939.792-1.438a.626.626,0,0,1,.97-.293c.352.264.47.528.294.822a14.811,14.811,0,0,0-1.323,3.083,9.863,9.863,0,0,0-.352,4.081.939.939,0,0,1-.293.939l-.734.675a.685.685,0,0,1-1.029.029,12.556,12.556,0,0,1-4.2-7.487,30.23,30.23,0,0,1-.413-6.077c.029-1.792.206-3.612.381-5.55a.615.615,0,0,1,.765-.646h1A.631.631,0,0,1,917.242,139.325Zm15.121,12.83c-.5-4.756-1.792-7.25-4.286-9.864a.648.648,0,0,1-.088-.968c.264-.323.88-.293,1.731.293,4.345,2.878,5.228,8.221,5.4,10.13a.715.715,0,0,1-.646.822l-1.264.235A.669.669,0,0,1,932.363,152.155Z" transform="translate(-656.691 -134.426)" fill="#ee7000" stroke="#ee7000" stroke-width="0.25"/>
        <path id="パス_6745" data-name="パス 6745" d="M930.851,143.049V145.1a.743.743,0,0,1-.822.822h-1.643a.744.744,0,0,1-.824-.822v-2.056a.744.744,0,0,1,.824-.822h1.643A.743.743,0,0,1,930.851,143.049Z" transform="translate(-642.241 -130.399)" fill="#ee7000" stroke="#ee7000" stroke-width="0.25"/>
        <path id="パス_6746" data-name="パス 6746" d="M936.932,162.791h-.7a.743.743,0,0,1-.822-.822V149.11a26.964,26.964,0,0,1-1.379,2.465c-.354.587-.853.528-1.117-.088l-.264-.616a1.09,1.09,0,0,1,.088-1.115A39.7,39.7,0,0,0,936.9,137.63a.7.7,0,0,1,.971-.648l.763.176a.752.752,0,0,1,.646.941,40.935,40.935,0,0,1-1.528,6.018V161.97A.743.743,0,0,1,936.932,162.791Zm2.761-24.222c0-.411.294-.618.822-.618H954.7a.744.744,0,0,1,.822.824c0,.411-.293.616-.822.616h-6.167v2.7h5.462a.744.744,0,0,1,.822.824V153.6a.743.743,0,0,1-.822.822h-.765a.743.743,0,0,1-.822-.822v-1.059h-4.228a14.51,14.51,0,0,1-1.731,5.2,15.7,15.7,0,0,0,8.514,2.937.708.708,0,0,1,.763.88.748.748,0,0,1-.88.7,18.487,18.487,0,0,1-9.542-3.054,12.882,12.882,0,0,1-5.7,2.966.763.763,0,0,1-1.027-.587v-.029a.757.757,0,0,1,.587-1.029,10.5,10.5,0,0,0,4.492-2.582,17.919,17.919,0,0,1-2.614-2.907.782.782,0,0,1,.205-1.144l.5-.382a.689.689,0,0,1,1.144.233,14.554,14.554,0,0,0,1.819,2.408,12.5,12.5,0,0,0,1-3.612h-4.961a.743.743,0,0,1-.822-.822v-8.808a.744.744,0,0,1,.822-.824h5.315v-2.7h-5.55A.743.743,0,0,1,939.692,138.569Zm2.614,8.015h3.758v-3.142h-3.758Zm0,4.609h3.553a27.726,27.726,0,0,0,.176-3.318h-3.729Zm10.1-3.318h-3.9c-.03,1.147-.088,2.232-.176,3.318H952.4Zm-3.876-1.291H952.4v-3.142h-3.876Z" transform="translate(-636.794 -136.195)" fill="#ee7000" stroke="#ee7000" stroke-width="0.25"/>
        <path id="パス_6747" data-name="パス 6747" d="M956.973,145.185a.744.744,0,0,1,.822.822c0,.472-.3.706-.822.706H953.3c1.144,1.966,2.641,4.58,4.167,7.311a.8.8,0,0,1-.176,1.144l-.409.352a.642.642,0,0,1-1.117-.235c-.763-1.557-1.731-3.406-2.878-5.521v12.1a.743.743,0,0,1-.822.822h-.675a.743.743,0,0,1-.822-.822V151.586a29.31,29.31,0,0,1-3.2,6.137.635.635,0,0,1-1.176-.029l-.233-.384a.962.962,0,0,1,.03-1.144,30.605,30.605,0,0,0,4.022-9.453h-3.348a.744.744,0,0,1-.824-.822c0-.47.3-.706.824-.706h3.905V139.7c-.97.117-2.115.235-3.406.352a.715.715,0,0,1-.883-.734c-.027-.411.237-.646.765-.7a65.588,65.588,0,0,0,9.248-1.526.719.719,0,0,1,1,.585c.118.413-.027.706-.409.794-1.117.264-2.467.558-4,.822v5.9Zm4.167-5.842V155.7a.744.744,0,0,1-.822.824h-.792a.744.744,0,0,1-.822-.824V139.343a.743.743,0,0,1,.822-.822h.792A.743.743,0,0,1,961.14,139.343Zm4.729-2h.822a.742.742,0,0,1,.822.822V158.78c0,3.083-.293,3.494-3.054,3.494-.352,0-1.35-.029-2.905-.117a.781.781,0,0,1-.854-.824v-.027c-.029-.558.264-.853.854-.824,1.438.09,2.289.117,2.582.117.851,0,.912-.059.912-1.937V138.169A.743.743,0,0,1,965.868,137.348Z" transform="translate(-622.264 -136.088)" fill="#ee7000" stroke="#ee7000" stroke-width="0.25"/>
      </g>
    </g>
  </g>
</svg>
