<svg xmlns="http://www.w3.org/2000/svg" viewBox="0 0 237.55 25.96"><defs><style>.cls-1,.cls-2,.cls-3{fill:#fff;stroke:#fff;}.cls-1{stroke-width:0.2px;}.cls-2{stroke-miterlimit:10;}.cls-3{stroke-width:0.25px;}</style></defs><g id="レイヤー_2" data-name="レイヤー 2"><g id="レイヤー_2-2" data-name="レイヤー 2"><path class="cls-1" d="M3.84,25.6H3.55c-.18,0-.28-.1-.25-.28V22A10.3,10.3,0,0,1,.45,23.6c-.18.06-.29,0-.33-.11s0-.24.17-.31a11,11,0,0,0,4.32-3.72H1.38a.25.25,0,0,1-.28-.27c0-.17.1-.26.28-.26H5.75c.16,0,.25,0,.28.11s0,.17-.09.33a11.81,11.81,0,0,1-1.87,2.11l0,3.84A.25.25,0,0,1,3.84,25.6ZM4,18.49a15.36,15.36,0,0,0-1.67-1.2c-.16-.09-.2-.21-.13-.34s.18-.16.34-.1a13.09,13.09,0,0,1,1.87.94.25.25,0,0,1,.1.38l-.12.24A.23.23,0,0,1,4,18.49Zm2.45,5.18a8.79,8.79,0,0,0-1.83-1.78.24.24,0,0,1-.07-.38c.1-.15.22-.19.35-.12A8.17,8.17,0,0,1,7.05,23a.27.27,0,0,1,0,.4l-.26.3A.22.22,0,0,1,6.42,23.67Z"/><path class="cls-1" d="M8.34,19.92a9.26,9.26,0,0,1,.81,1.77A.23.23,0,0,1,9,22l-.45.16a.22.22,0,0,1-.33-.2,9,9,0,0,0-.39-1.84A.26.26,0,0,1,8,19.81H8A.25.25,0,0,1,8.34,19.92Zm4.88.06c-.68,2.57-1.6,4.28-3.9,5.61-.16.09-.28.06-.35-.07a.24.24,0,0,1,.11-.34c2-1.32,2.66-2.88,3.27-5.5a.23.23,0,0,1,.34-.19l.36.14A.26.26,0,0,1,13.22,20Zm-3.1-.75a10.66,10.66,0,0,1,.82,1.92.22.22,0,0,1-.17.33l-.43.14c-.19.06-.3,0-.33-.21a8.93,8.93,0,0,0-.43-1.93.24.24,0,0,1,.17-.34h0A.27.27,0,0,1,10.12,19.23Z"/><path class="cls-1" d="M19.26,21.62a.24.24,0,0,1,.09.37l-.24.39a.24.24,0,0,1-.38.07,30.45,30.45,0,0,0-2.85-2v4.78a.24.24,0,0,1-.27.27h-.35a.24.24,0,0,1-.27-.27V17.48a.25.25,0,0,1,.27-.28h.35a.25.25,0,0,1,.27.27v2.42A20.93,20.93,0,0,1,19.26,21.62Z"/><path class="cls-1" d="M26.26,18.07h0a.23.23,0,0,1-.25.26l-.65,0a1.86,1.86,0,0,0-.34,0,2.52,2.52,0,0,0-1,.34,3.77,3.77,0,0,0-1.51,3.53,2.57,2.57,0,0,0,2.8,2.44.23.23,0,0,1,.25.25V25a.24.24,0,0,1-.26.25c-1.58,0-3.41-.64-3.76-2.67a3.9,3.9,0,0,1,2-4.2l-3.89.11c-.16,0-.25-.08-.25-.25h0a.24.24,0,0,1,.25-.26L26,17.83A.22.22,0,0,1,26.26,18.07Zm-.89,2.44c0,.17-.1.25-.27.25h0c-.18,0-.26-.08-.26-.25V19.4c0-.17.08-.25.26-.25h0c.17,0,.27.08.27.25Zm.86,0c0,.17-.08.25-.26.25h0c-.17,0-.27-.08-.27-.25V19.4c0-.17.1-.25.27-.25h0c.18,0,.26.08.26.25Z"/><path class="cls-1" d="M29.1,19.13a.25.25,0,0,1-.07-.38l0-.06a.25.25,0,0,1,.39-.08c.52.37,1,.72,1.4,1a13.28,13.28,0,0,0,1.92-1.85H28.31a.26.26,0,0,1-.29-.28c0-.16.11-.24.29-.24h5.06a.25.25,0,0,1,.28.28v0a.5.5,0,0,1-.12.35A23.93,23.93,0,0,1,31.32,20l.68.61h2.33a.25.25,0,0,1,.28.28V21a.62.62,0,0,1-.1.35,11.41,11.41,0,0,1-1.63,1.9.23.23,0,0,1-.39,0l-.08-.11a.27.27,0,0,1,0-.39,11.73,11.73,0,0,0,1.3-1.52H31.37v3.2c0,1.05-.11,1.19-1.11,1.19-.23,0-.6,0-1.12,0a.27.27,0,0,1-.28-.29c0-.17.1-.26.29-.25.49,0,.81,0,1,0,.35,0,.35,0,.35-.65v-3.2H27.23a.28.28,0,0,1,0-.56H31C30.25,20,29.61,19.49,29.1,19.13Z"/><path class="cls-1" d="M37.85,20.22a.27.27,0,0,1,.2-.35l.18-.05a.26.26,0,0,1,.35.22c.2.91.29,1.35.35,1.65a.26.26,0,0,1-.22.33l-.18,0c-.18,0-.29,0-.32-.19l0-.23-.56.05v3.79a.25.25,0,0,1-.28.28H37a.25.25,0,0,1-.28-.28V21.76l-1.08.08a.25.25,0,0,1-.29-.26c0-.15.08-.24.26-.26l.49-.05s.16-.26.35-.61c-.39-.79-.7-1.42-.94-1.87a.35.35,0,0,1,0-.38l.12-.22c.11-.2.26-.22.35,0s.11.23.16.32c.18-.39.37-.86.58-1.4a.24.24,0,0,1,.37-.15l.17.09a.27.27,0,0,1,.13.37c-.22.56-.51,1.2-.85,1.88.15.29.26.51.32.64.29-.53.6-1.14.92-1.83a.24.24,0,0,1,.38-.12l.13.09a.27.27,0,0,1,.11.39A29.3,29.3,0,0,1,37,21.24l1.12-.08C38,20.87,37.93,20.53,37.85,20.22Zm-1.38,2.55a19.18,19.18,0,0,1-.3,2.21.26.26,0,0,1-.34.22l-.18,0a.27.27,0,0,1-.22-.34,18.66,18.66,0,0,0,.29-2.1.25.25,0,0,1,.3-.26l.2,0C36.4,22.5,36.49,22.6,36.47,22.77Zm2.19-.17c.09.61.16,1.26.2,1.95a.27.27,0,0,1-.26.31l-.2,0a.24.24,0,0,1-.31-.25c0-.68-.1-1.32-.17-1.89a.24.24,0,0,1,.23-.31l.19,0A.24.24,0,0,1,38.66,22.6Zm.77-2.18a.23.23,0,0,1-.38.11l-.15-.1a.28.28,0,0,1-.11-.38,15.92,15.92,0,0,0,.91-3,.26.26,0,0,1,.32-.23l.25,0a.25.25,0,0,1,.22.33c-.05.22-.1.48-.18.79h2.46a.26.26,0,0,1,.28.29c0,2.25-.07,3.72-.15,4.84,0,.58-.08,1-.12,1.36a2.71,2.71,0,0,1-.18.72.56.56,0,0,1-.6.36c-.43,0-1,0-1.55-.08a.26.26,0,0,1-.27-.29c0-.18.1-.28.3-.26a6.46,6.46,0,0,0,1,0c.16,0,.3-.05.39-.4a14.69,14.69,0,0,0,.17-1.8c0-1,.09-2.35.13-4.21H40.15A14.24,14.24,0,0,1,39.43,20.42Zm1.3,2.22a18.67,18.67,0,0,0-.89-2,.26.26,0,0,1,.1-.38l.17-.11a.25.25,0,0,1,.39.1,17.65,17.65,0,0,1,1,2.11.29.29,0,0,1-.14.38l-.19.11C41,22.92,40.81,22.85,40.73,22.64Z"/><path class="cls-1" d="M62.61,18.14a.25.25,0,0,1-.28.26H59.6v2.79h3a.25.25,0,0,1,.28.28c0,.16-.1.24-.28.24H60a11.82,11.82,0,0,0,2.86,3,.29.29,0,0,1,.09.38l0,.1a.22.22,0,0,1-.38.1,12.76,12.76,0,0,1-2.88-2.93v3.1a.25.25,0,0,1-.28.28H59a.25.25,0,0,1-.28-.28V22.36a12,12,0,0,1-2.87,2.95.23.23,0,0,1-.38-.09l-.05-.11a.29.29,0,0,1,.09-.38,11.82,11.82,0,0,0,2.86-3H55.72a.25.25,0,0,1-.28-.28c0-.16.1-.24.28-.24h3V18.4H56a.26.26,0,0,1-.28-.29c0-.16.1-.25.28-.25h2.72v-.74a.25.25,0,0,1,.28-.28h.3a.25.25,0,0,1,.28.28v.74h2.73A.25.25,0,0,1,62.61,18.14Zm-5.35,2.62c-.23-.53-.49-1.06-.76-1.58a.26.26,0,0,1,.11-.38l.18-.11a.26.26,0,0,1,.39.11c.25.48.51,1,.77,1.59a.27.27,0,0,1-.13.38l-.19.11A.23.23,0,0,1,57.26,20.76Zm4.63-1.64a12.56,12.56,0,0,1-.78,1.66.25.25,0,0,1-.38.11l-.16-.1a.27.27,0,0,1-.1-.39,13.32,13.32,0,0,0,.68-1.55.23.23,0,0,1,.37-.15l.21.11C61.88,18.89,61.94,19,61.89,19.12Z"/><path class="cls-1" d="M64.59,17.21h2a.25.25,0,0,1,.28.28v.1a1,1,0,0,1-.06.35c-.45,1.36-.65,1.84-.81,2.32a3.4,3.4,0,0,1,.76,2.23c0,.84-.34,1.27-1.19,1.27-.13,0-.2-.09-.23-.26s.07-.24.27-.24h-.12c.36,0,.51-.18.51-.92a3.12,3.12,0,0,0-.62-1.89.4.4,0,0,1,0-.38,18.45,18.45,0,0,0,.78-2.38h-1v7.72a.26.26,0,0,1-.29.28h-.19a.25.25,0,0,1-.28-.28V17.49A.25.25,0,0,1,64.59,17.21Zm6,7.82c.27,0,.31,0,.4-.27a7.84,7.84,0,0,0,.08-1.25c0-.2.11-.3.3-.28l.24,0a.26.26,0,0,1,.25.3c0,.3,0,.48,0,.78a1.49,1.49,0,0,1-.31,1.05.8.8,0,0,1-.38.14,5,5,0,0,1-.58,0c-1.06,0-1.23-.12-1.23-.73v-3h-.5c0,2.08-.56,3-2.26,3.83a.25.25,0,0,1-.37-.13v0a.25.25,0,0,1,.13-.38c1.22-.59,1.65-1.44,1.68-3.3h-.74A.25.25,0,0,1,67,21.5c0-.16.1-.25.28-.25h4a.25.25,0,0,1,.28.28c0,.16-.1.25-.28.25H70.19v2.8C70.19,25,70.13,25,70.61,25Zm-1.55-8.25h.31a.25.25,0,0,1,.28.28v.83h1.78a.25.25,0,0,1,.28.28V19.5a.25.25,0,0,1-.28.28h-.29a.25.25,0,0,1-.28-.28V18.41H67.73V19.5a.25.25,0,0,1-.28.28h-.28a.24.24,0,0,1-.27-.28V18.18a.27.27,0,0,1,.28-.29h1.59v-.83A.26.26,0,0,1,69.06,16.78Zm1.65,2.92c0,.15-.1.23-.28.23H68.17a.25.25,0,0,1-.28-.28c0-.15.1-.23.28-.23h2.26A.25.25,0,0,1,70.71,19.7Z"/><path class="cls-1" d="M77.85,22.06a1.59,1.59,0,0,1-1.32.73,1.62,1.62,0,0,1-1.22-.64c-.33-.4-.55-.53-.78-.53s-.54.16-.84.61c-.12.18-.26.21-.4.07l-.06-.07a.27.27,0,0,1,0-.39,1.63,1.63,0,0,1,1.34-.72,1.65,1.65,0,0,1,1.22.63c.33.4.55.53.78.53s.53-.16.83-.61c.12-.17.26-.19.4-.05l0,.05A.27.27,0,0,1,77.85,22.06Z"/><path class="cls-1" d="M81.31,18.88v2.43c1.14-.46,3.15-.8,3.82.86a2.17,2.17,0,0,1-1.43,3.09,1.8,1.8,0,0,1-1.9-1c-.16-.25.21-.56.4-.3a1.18,1.18,0,0,0,1.65.43,1.41,1.41,0,0,0,.58-1c.17-2-1.89-2.05-3.12-1.47v2a1.22,1.22,0,0,1-1,1.35,1.31,1.31,0,0,1-1.43-1.41c0-1,1-1.74,1.62-2.13v-2.8H79.15a.26.26,0,1,1,0-.52h1.38v-1c0-.19.1-.3.26-.3h.26c.18,0,.26.1.26.3v1h1.53a.26.26,0,1,1,0,.52ZM79.4,23.8c0,.44.32.79.68.71s.42-.39.45-.76V22.3A2,2,0,0,0,79.4,23.8Zm6-2.85c-.81-.81-1.22-.9-1.77-.88-.16,0-.25-.05-.25-.17s0-.2.2-.24a2.27,2.27,0,0,1,2.36.57.25.25,0,0,1,.07.35l-.24.34C85.68,21.09,85.57,21.09,85.43,21Z"/><path class="cls-1" d="M88.13,18.32v3.8a.26.26,0,0,1-.28.29h-.21a.26.26,0,0,1-.28-.29v-3.8a.26.26,0,0,1,.28-.29h.21A.26.26,0,0,1,88.13,18.32Zm-.07,7.3c-.12.16-.27.15-.39,0l-.11-.15a.29.29,0,0,1,0-.39c.74-1,1-2.12,1-4.29V17.22a.25.25,0,0,1,.28-.28h.24a.25.25,0,0,1,.28.28v3.86A6.61,6.61,0,0,1,88.06,25.62Zm6.15-3.07a.25.25,0,0,1,.28.28v1.43c0,.81-.11.9-.92.9a2.49,2.49,0,0,1-.36,0,.26.26,0,0,1-.26-.29c0-.17.09-.25.25-.23h.25c.3,0,.22,0,.22-.37V23H92.61v2.58a.25.25,0,0,1-.28.28H92a.25.25,0,0,1-.28-.28V23h-.9v1.91a.26.26,0,0,1-.29.28H90.3a.27.27,0,0,1-.29-.28v-2.1a.24.24,0,0,1,.28-.27h1.47V21.32H90.35V22a.25.25,0,0,1-.28.28H89.8a.25.25,0,0,1-.28-.28v-.93a.25.25,0,0,1,.28-.28h4.92a.25.25,0,0,1,.28.28v.94a.26.26,0,0,1-.28.29h-.27a.26.26,0,0,1-.28-.29v-.73H92.61v1.23ZM89.86,20c0-.12.1-.18.28-.18h3.62V19H90.3a.25.25,0,0,1-.28-.28c0-.1.1-.15.28-.15h3.46V17.7H90.14a.25.25,0,0,1-.28-.28c0-.15.1-.23.28-.23h4.2a.26.26,0,0,1,.29.28V20a.26.26,0,0,1-.29.28h-4.2A.25.25,0,0,1,89.86,20Z"/><path class="cls-1" d="M97.86,17.43a12.55,12.55,0,0,0-.8,3.06,4.66,4.66,0,0,1,.66-1.76,1.68,1.68,0,0,1,2.71-.53c1,1.16.95,3.58.27,5.07a4.53,4.53,0,0,1-2.82,2.39c-.16.05-.27,0-.29-.15a.24.24,0,0,1,.17-.3,3.63,3.63,0,0,0,2.18-2.29,6.48,6.48,0,0,0,.1-3.47c-.3-1.29-1.19-1.32-1.86-.4a4.17,4.17,0,0,0-.69,1.61,5.48,5.48,0,0,0,0,1.94.24.24,0,0,1-.18.3L97,23a.23.23,0,0,1-.32-.17A10.26,10.26,0,0,1,97,17.14a.22.22,0,0,1,.31-.17l.42.14A.22.22,0,0,1,97.86,17.43Z"/><path class="cls-1" d="M108.61,24.21a.24.24,0,0,1,0,.35l-.25.34a.22.22,0,0,1-.36,0,9.72,9.72,0,0,0-1.62-1.23,1.76,1.76,0,0,1-.09.55,1.83,1.83,0,0,1-2,1.1c-.65,0-1.84-.47-1.58-1.63.2-.92,1.28-1,1.93-1a3.25,3.25,0,0,1,.9.11V20.66h-2.5a.23.23,0,0,1-.25-.25h0a.23.23,0,0,1,.25-.25h2.49V18.7h-2.77a.23.23,0,0,1-.25-.25h0a.23.23,0,0,1,.25-.26h2.77v-1a.24.24,0,0,1,.25-.26h.36a.23.23,0,0,1,.25.25v1h2a.23.23,0,0,1,.25.26h0a.23.23,0,0,1-.25.25h-2v1.45h1.74a.23.23,0,0,1,.25.25h0a.23.23,0,0,1-.25.25h-1.75V23A9,9,0,0,1,108.61,24.21Zm-5.1-.36c-.07.59.46.78.9.79a1,1,0,0,0,1.15-.69,1.6,1.6,0,0,0,0-.49,2.37,2.37,0,0,0-.88-.2C104.33,23.24,103.57,23.31,103.51,23.85Z"/><path class="cls-1" d="M116.8,18.07h0a.23.23,0,0,1-.25.26l-.66,0a1.86,1.86,0,0,0-.34,0,2.52,2.52,0,0,0-1,.34A3.79,3.79,0,0,0,113,22.27a2.57,2.57,0,0,0,2.8,2.44.23.23,0,0,1,.25.25V25a.24.24,0,0,1-.26.25c-1.58,0-3.41-.64-3.76-2.67a3.92,3.92,0,0,1,2-4.2l-3.89.11c-.16,0-.25-.08-.25-.25h0a.24.24,0,0,1,.25-.26l6.36-.18A.22.22,0,0,1,116.8,18.07Zm-.9,2.44c0,.17-.1.25-.27.25h0c-.18,0-.26-.08-.26-.25V19.4c0-.17.08-.25.26-.25h0c.17,0,.27.08.27.25Zm.87,0c0,.17-.08.25-.26.25h0c-.17,0-.27-.08-.27-.25V19.4c0-.17.1-.25.27-.25h0c.18,0,.26.08.26.25Z"/><path class="cls-1" d="M118.09,18c0-.16.1-.25.28-.25h3.27a.25.25,0,0,1,.28.28v0a.55.55,0,0,1-.13.36l-2.05,2.42.35,0A1.74,1.74,0,0,1,122,22.69a2.07,2.07,0,0,1-2.25,2.3,3.41,3.41,0,0,1-1.41-.3.35.35,0,0,1-.19-.33v-.1c0-.23.14-.3.34-.17a2.32,2.32,0,0,0,1.26.37c.88,0,1.38-.56,1.38-1.77s-.45-1.48-1.53-1.48h-.43a.25.25,0,0,1-.28-.28.48.48,0,0,1,.13-.33l2-2.34h-2.61A.28.28,0,0,1,118.09,18Z"/><path class="cls-1" d="M125.25,17.61c1.48,0,2.28,1.09,2.28,3.69s-.8,3.69-2.28,3.69S123,23.91,123,21.3a5.11,5.11,0,0,1,.6-2.84A2,2,0,0,1,125.25,17.61Zm0,6.87c.89,0,1.4-.95,1.4-3.18s-.51-3.18-1.4-3.18-1.41,1-1.41,3.18a5.84,5.84,0,0,0,.36,2.41C124.49,24.27,124.82,24.48,125.25,24.48Z"/><path class="cls-1" d="M134.66,24c-.15,1.24-.46,1.57-1.3,1.57-.22,0-.6,0-1.14-.06a.26.26,0,0,1-.27-.29c0-.18.1-.28.29-.26.4,0,.74,0,1,0,.12,0,.2,0,.35-.26a4.5,4.5,0,0,0,.19-1.07c0-.54.09-1.39.09-2.48v-.43h-2.13c-.13,2.35-.81,3.78-2.32,4.88a.24.24,0,0,1-.39-.08l-.06-.1a.26.26,0,0,1,.07-.39c1.11-.85,1.71-2.18,1.85-4.31h-1.19a.25.25,0,0,1-.28-.28h0c-.17.2-.36.4-.57.62a.24.24,0,0,1-.4,0l-.1-.12a.28.28,0,0,1,0-.4,11.06,11.06,0,0,0,2.1-3.23.25.25,0,0,1,.37-.15l.22.1a.24.24,0,0,1,.14.36,11.9,11.9,0,0,1-1.55,2.56h4.87A12.09,12.09,0,0,1,133,17.65a.25.25,0,0,1,.15-.37l.21-.09a.24.24,0,0,1,.37.14,10.89,10.89,0,0,0,2.11,3.23.28.28,0,0,1,0,.4l-.1.13a.24.24,0,0,1-.4,0c-.23-.23-.43-.45-.61-.66v.4A30,30,0,0,1,134.66,24Z"/><path class="cls-1" d="M156.5,25.64a4.53,4.53,0,0,1-2.28-2,4.88,4.88,0,0,1-2.36,2,.25.25,0,0,1-.36-.17l0,0a.27.27,0,0,1,.17-.36,3.44,3.44,0,0,0,2-2.24h-1.43a.25.25,0,0,1-.28-.28V20.42a.25.25,0,0,1,.28-.28h1.5v-.88h-1a.25.25,0,0,1-.28-.28c0,.05-.05.11-.16.2l-.46.37c-.17.12-.31.08-.38-.11l-.09-.23h-.47c.14.54.65,2,.86,2.6a.29.29,0,0,1-.13.37l-.12.08c-.17.12-.32.08-.37-.13s-.12-.4-.23-.73v4.08a.25.25,0,0,1-.28.28h-.15a.25.25,0,0,1-.28-.28V21.85a12.37,12.37,0,0,1-.53,1.47c-.09.21-.26.22-.39,0l-.12-.18a.35.35,0,0,1,0-.38,16.18,16.18,0,0,0,1-3.59h-.71a.25.25,0,0,1-.28-.28c0-.16.1-.24.28-.24h.75V17.22a.25.25,0,0,1,.28-.28h.15a.25.25,0,0,1,.28.28v1.47h.51a.25.25,0,0,1,.28.28c0-.07,0-.14.16-.23A14.27,14.27,0,0,0,153.64,17a.4.4,0,0,1,.34-.16h.39a.4.4,0,0,1,.34.16,12.45,12.45,0,0,0,2.06,2,.31.31,0,0,1,.11.38l0,.06c-.07.19-.22.23-.39.11l-.61-.5c0,.14-.1.21-.28.21h-1v.88h1.56a.25.25,0,0,1,.28.28v2.12a.25.25,0,0,1-.28.28h-1.49a3.42,3.42,0,0,0,2.05,2.24.26.26,0,0,1,.17.36l0,.06A.25.25,0,0,1,156.5,25.64Zm-2.75-5h-1v1.78h1Zm.43-3.28a16.09,16.09,0,0,1-1.36,1.47h2.73A12,12,0,0,1,154.18,17.32Zm.41,3.28v1.78h1V20.6Z"/><path class="cls-1" d="M158,25.16c0-.17.1-.26.28-.26h.85v-4a.31.31,0,0,1,.28-.32h4.77a.27.27,0,0,1,.29.28v4h.85a.25.25,0,0,1,.28.28c0,.16-.1.24-.28.24h-7C158.1,25.42,158,25.33,158,25.16Zm7-4.32-.54-.32a12.47,12.47,0,0,1-2.27-1.72v1.1a.25.25,0,0,1-.28.28h-.3a.25.25,0,0,1-.28-.28V18.8a12.13,12.13,0,0,1-2.27,1.72c-.17.11-.38.23-.65.37a.23.23,0,0,1-.37-.14l0-.06a.27.27,0,0,1,.14-.37,12.34,12.34,0,0,0,3-2.08h-2.74a.25.25,0,0,1-.28-.28c0-.16.1-.25.28-.25h3v-.59a.25.25,0,0,1,.28-.28h.3a.25.25,0,0,1,.28.28v.59h3a.25.25,0,0,1,.28.28c0,.16-.1.25-.28.25h-2.73a12.34,12.34,0,0,0,3,2.08.27.27,0,0,1,.14.37l0,.06C165.46,20.93,165.28,21,165,20.84Zm-5,1.22h3.61v-1H160Zm0,.43v1h3.61v-1Zm0,1.39v1h3.61v-1Z"/><path class="cls-1" d="M168.92,20.25a.26.26,0,0,1,.19-.34l.08,0a.23.23,0,0,1,.35.18,16.65,16.65,0,0,1,.34,1.63.27.27,0,0,1-.21.33l-.09,0c-.19.05-.31,0-.33-.17a1.21,1.21,0,0,0,0-.23l-.54,0v3.82a.25.25,0,0,1-.28.28h-.24a.25.25,0,0,1-.28-.28V21.73l-.89.07a.25.25,0,0,1-.29-.27c0-.14.09-.23.27-.24l.31,0c.18-.31.25-.44.38-.68-.27-.59-.57-1.18-.87-1.79a.35.35,0,0,1,0-.38l.11-.21c.11-.2.27-.23.35-.07l.15.3c.16-.39.35-.85.55-1.37a.23.23,0,0,1,.37-.15l.17.09a.27.27,0,0,1,.13.37c-.23.59-.49,1.23-.8,1.9.07.13.12.26.25.52.26-.52.52-1.1.8-1.73.07-.18.21-.22.38-.11l.14.09a.28.28,0,0,1,.12.39c-.39.88-.86,1.8-1.41,2.77l1-.07C169,20.82,169,20.51,168.92,20.25Zm-1.19,2.5c-.06.7-.15,1.44-.29,2.23a.25.25,0,0,1-.34.21l-.16,0a.25.25,0,0,1-.21-.33q.18-1,.27-2.1a.25.25,0,0,1,.3-.26l.17,0C167.65,22.5,167.73,22.59,167.73,22.75ZM169,24.52c0-.65-.09-1.25-.16-1.78a.26.26,0,0,1,.24-.32l.16,0a.27.27,0,0,1,.32.25q.12,1,.18,1.89a.25.25,0,0,1-.25.3l-.18,0C169.11,24.86,169,24.75,169,24.52Zm5.36-6.31c0,.17-.1.25-.28.25h-1.62v1.71h1.45a.25.25,0,0,1,.28.28c0,.14-.1.21-.28.21h-3.68a.25.25,0,0,1-.28-.28c0-.14.1-.21.28-.21h1.36V18.46H170a.26.26,0,0,1-.28-.29c0-.16.1-.24.28-.24h1.54v-.81a.26.26,0,0,1,.29-.28h.3a.25.25,0,0,1,.28.28v.81h1.62A.25.25,0,0,1,174.35,18.21Zm-1.14,7.18v-.25h-2.35v.25a.25.25,0,0,1-.28.28h-.27a.25.25,0,0,1-.28-.28V22.05a.25.25,0,0,1,.28-.28h3.48a.25.25,0,0,1,.28.28v3.34a.25.25,0,0,1-.28.28h-.3A.25.25,0,0,1,173.21,25.39Zm0-.76V22.3h-2.35v2.33Z"/><path class="cls-1" d="M175.47,22.13c0-.15.1-.23.29-.23h3v-.85h-2.39a.25.25,0,0,1-.28-.28V17.46a.25.25,0,0,1,.28-.28H182a.25.25,0,0,1,.28.28v3.31a.25.25,0,0,1-.28.28h-2.4v.85h3a.25.25,0,0,1,.28.28c0,.16-.1.24-.28.24H179.9a11.59,11.59,0,0,0,2.85,2.47.26.26,0,0,1,.11.38l0,.08a.23.23,0,0,1-.38.1A12.53,12.53,0,0,1,179.55,23v2.42a.25.25,0,0,1-.28.28H179a.25.25,0,0,1-.28-.28V23a12.06,12.06,0,0,1-2.89,2.45.25.25,0,0,1-.4-.11l0-.09c-.07-.16,0-.29.17-.41a10.43,10.43,0,0,0,2.81-2.42h-2.62A.26.26,0,0,1,175.47,22.13Zm1.44-3.26h1.82v-1.2h-1.82Zm1.82,1.7V19.32h-1.82v1.25Zm2.65-1.7v-1.2h-1.83v1.2Zm-1.83,1.7h1.83V19.32h-1.83Z"/><path class="cls-1" d="M185.54,17.82a18.84,18.84,0,0,0-.51,5.42,5.27,5.27,0,0,1,.41-1.4c.06-.16.18-.21.31-.14s.16.2.08.38a5.34,5.34,0,0,0-.36,1.21,3,3,0,0,0,0,1.37.25.25,0,0,1-.16.32l-.22.09a.21.21,0,0,1-.32-.14c-.82-2.24-.51-4.8,0-7.29a.22.22,0,0,1,.3-.19l.3.07A.23.23,0,0,1,185.54,17.82Zm4.13,5.31a6.73,6.73,0,0,1,1.6,1,.23.23,0,0,1,0,.36l-.26.28a.21.21,0,0,1-.36,0,6.21,6.21,0,0,0-1.07-.93,1.6,1.6,0,0,1-.53,1.08,2,2,0,0,1-2,.24,1.3,1.3,0,0,1-.8-.93,1.24,1.24,0,0,1,.42-1.19,2.29,2.29,0,0,1,2.11-.19V19.39h-2a.25.25,0,0,1,0-.5h2v-1.5a.22.22,0,0,1,.25-.24h.38a.23.23,0,0,1,.25.25c0,.57,0,1.06,0,1.49H191a.25.25,0,1,1,0,.5h-1.37Zm-2.33,1.42a1.12,1.12,0,0,0,1.23-.2,1.71,1.71,0,0,0,.24-.87c-.49-.21-1.23-.47-1.7,0A.68.68,0,0,0,187.34,24.55Z"/><path class="cls-1" d="M197.81,18a.33.33,0,0,1,0,.29,15.48,15.48,0,0,1-1.46,3A12.93,12.93,0,0,1,199,24.14a.26.26,0,0,1-.06.38l-.41.33a.22.22,0,0,1-.37-.07,15.85,15.85,0,0,0-2.14-3,10.37,10.37,0,0,1-3.59,3.2c-.15.09-.28.07-.34-.07a.24.24,0,0,1,.11-.34,11.43,11.43,0,0,0,4.47-6.12h-3.38a.25.25,0,0,1-.28-.28c0-.17.09-.26.28-.27h4.29C197.69,17.87,197.77,17.9,197.81,18Z"/><path class="cls-1" d="M199.64,18.75a.25.25,0,0,1,.28-.27h6.16a.33.33,0,0,1,.32.17.4.4,0,0,1,0,.37,10.13,10.13,0,0,1-3,3.72,11.26,11.26,0,0,1,1.05,1.48.27.27,0,0,1-.07.39l-.36.27a.24.24,0,0,1-.39-.09,10.72,10.72,0,0,0-2.51-3.34q-.21-.18-.06-.36a.25.25,0,0,1,.36,0,6.16,6.16,0,0,1,1.52,1.25,8.45,8.45,0,0,0,2.2-3.28h-5.2C199.73,19,199.63,18.92,199.64,18.75Z"/><path class="cls-1" d="M209.58,21.27a9,9,0,0,1-1.11,2.94.25.25,0,0,1-.39.09l-.28-.19a.25.25,0,0,1-.07-.39A9.06,9.06,0,0,0,209,21.11a.25.25,0,0,1,.34-.19l.07,0A.26.26,0,0,1,209.58,21.27Zm5.11-2.18c0,.17-.1.26-.28.26H211.6v5.72a.25.25,0,0,1-.28.28H211a.27.27,0,0,1-.29-.28V19.35H208c-.18,0-.28-.09-.28-.26s.1-.26.28-.26h2.74v-1.4a.27.27,0,0,1,.28-.29h.32a.25.25,0,0,1,.29.27v1.42h2.81C214.59,18.83,214.69,18.92,214.69,19.09ZM213,20.89a9.08,9.08,0,0,1,1.7,2.72.25.25,0,0,1-.13.37l-.33.17a.23.23,0,0,1-.36-.15,8.77,8.77,0,0,0-1.32-2.69.28.28,0,0,1,0-.4h0A.25.25,0,0,1,213,20.89Z"/><path class="cls-1" d="M217.43,17.77a18.21,18.21,0,0,0-.51,5.6,5,5,0,0,1,.43-1.51.22.22,0,0,1,.32-.14.25.25,0,0,1,.12.35,8.25,8.25,0,0,0-.42,1.31,2.87,2.87,0,0,0,0,1.37.25.25,0,0,1-.16.32l-.2.09a.22.22,0,0,1-.33-.14c-.82-2.29-.53-4.91,0-7.44a.22.22,0,0,1,.3-.19l.3.08A.22.22,0,0,1,217.43,17.77Zm5.09,7.07a6,6,0,0,1-3.09-.27,1.69,1.69,0,0,1-1.09-1.49,2.57,2.57,0,0,1,.65-1.64.22.22,0,0,1,.33-.07.24.24,0,0,1,0,.34A2.15,2.15,0,0,0,219,23a1,1,0,0,0,.72.85,5.61,5.61,0,0,0,2.79.15.23.23,0,0,1,.29.23v.31A.23.23,0,0,1,222.52,24.84Zm-.19-6a8.12,8.12,0,0,0-1.93,1.33.23.23,0,0,1-.33,0c-.1-.09-.1-.21,0-.33l.76-.81a4.34,4.34,0,0,1-2.24-.49.23.23,0,0,1-.14-.31.23.23,0,0,1,.31-.12,6.8,6.8,0,0,0,3.44,0c.18,0,.28,0,.29.21v.26A.3.3,0,0,1,222.33,18.8Z"/><path class="cls-1" d="M224.92,17.2H231a.25.25,0,0,1,.28.28v1.63a.25.25,0,0,1-.28.28H228.8v1.23h2a.25.25,0,0,1,.28.28v4.54a.25.25,0,0,1-.28.28h-.29a.25.25,0,0,1-.28-.28v-.25h-3.75v.25a.25.25,0,0,1-.28.28h-.28a.25.25,0,0,1-.28-.28V20.9a.25.25,0,0,1,.28-.28h2V19.39h-2.48v1.27a12.65,12.65,0,0,1-.78,4.74c-.08.21-.25.23-.39.05l-.2-.24a.31.31,0,0,1-.09-.31,14.48,14.48,0,0,0,.64-4.67V17.48A.25.25,0,0,1,224.92,17.2Zm.54,1.73h4.92V17.68h-4.92Zm2.48,3.68V21.08h-1.45v1.53Zm0,.45h-1.45v1.67h1.45Zm.86-.45h1.44V21.08H228.8Zm0,.45v1.67h1.44V23.06Z"/><path class="cls-1" d="M237.37,24.85a.26.26,0,0,1,0,.39l-.31.29a.24.24,0,0,1-.4,0c-.36-.48-.73-1-1.07-1.39a15.91,15.91,0,0,0-1.44-1.64c-.18-.19-.36-.34-.53-.5a1.55,1.55,0,0,1-.38-.49,1.08,1.08,0,0,1,0-.88,9.8,9.8,0,0,1,1.2-1.56c.49-.56,1-1.07,1.75-2a.24.24,0,0,1,.4,0l.25.3a.26.26,0,0,1,0,.4c-1,.89-1.72,1.66-2.68,2.67-.46.48-.47.74,0,1.14l.46.38A17.75,17.75,0,0,1,237.37,24.85Z"/><path class="cls-2" d="M49.09,18.83l2.78,2.79a.23.23,0,0,1,0,.31l-2.78,2.78c-.08.07-.13,0-.13-.17V19C49,18.82,49,18.76,49.09,18.83Z"/><path class="cls-2" d="M141.6,18.83l2.78,2.79a.21.21,0,0,1,0,.31l-2.78,2.78c-.07.07-.13,0-.13-.17V19C141.47,18.82,141.53,18.76,141.6,18.83Z"/><path class="cls-3" d="M40.28,12.59h-.39c-.25,0-.39-.14-.35-.39V7.59a15.06,15.06,0,0,1-4,2.2c-.26.08-.41,0-.47-.16s0-.33.24-.43a15.19,15.19,0,0,0,6-5.2H36.85a.34.34,0,0,1-.39-.38.34.34,0,0,1,.39-.36H43c.23,0,.36,0,.4.15s0,.24-.13.47a16.23,16.23,0,0,1-2.62,3l.07,5.37A.35.35,0,0,1,40.28,12.59Zm.18-9.95A23.12,23.12,0,0,0,38.14,1C37.91.85,37.86.68,38,.5a.35.35,0,0,1,.48-.14A17.77,17.77,0,0,1,41,1.68a.36.36,0,0,1,.14.53L41,2.53A.33.33,0,0,1,40.46,2.64Zm3.43,7.25a12,12,0,0,0-2.56-2.48.35.35,0,0,1-.1-.54c.14-.21.31-.26.49-.16a11.47,11.47,0,0,1,3.06,2.21.37.37,0,0,1,0,.56l-.36.42A.32.32,0,0,1,43.89,9.89Z"/><path class="cls-3" d="M47.33,4.65a12.83,12.83,0,0,1,1.14,2.48.33.33,0,0,1-.23.49l-.63.22a.31.31,0,0,1-.46-.28A12.88,12.88,0,0,0,46.61,5a.37.37,0,0,1,.22-.49v0A.34.34,0,0,1,47.33,4.65Zm6.83.08c-1,3.59-2.25,6-5.45,7.85-.23.12-.4.08-.49-.1a.34.34,0,0,1,.15-.48c2.83-1.85,3.71-4,4.57-7.69.07-.26.23-.35.47-.26l.51.19A.36.36,0,0,1,54.16,4.73ZM49.81,3.68A15.22,15.22,0,0,1,51,6.37a.31.31,0,0,1-.24.46l-.6.2c-.26.08-.42,0-.46-.3A12.58,12.58,0,0,0,49.07,4a.35.35,0,0,1,.24-.48h0A.35.35,0,0,1,49.81,3.68Z"/><path class="cls-3" d="M63.07,7a.34.34,0,0,1,.13.52l-.34.53a.33.33,0,0,1-.53.1,47,47,0,0,0-4-2.8v6.68a.33.33,0,0,1-.37.38h-.5a.33.33,0,0,1-.37-.38V1.24a.35.35,0,0,1,.37-.39H58a.34.34,0,0,1,.37.38V4.61A28.74,28.74,0,0,1,63.07,7Z"/><path class="cls-3" d="M67.76,3.54a.34.34,0,0,1-.1-.53l.06-.09a.35.35,0,0,1,.54-.11c.73.52,1.39,1,2,1.46A19,19,0,0,0,72.9,1.69H66.65a.35.35,0,0,1-.39-.39c0-.22.14-.34.39-.34h7.08a.36.36,0,0,1,.39.4v0a.67.67,0,0,1-.17.49,35.45,35.45,0,0,1-3.08,2.9l.95.86h3.25a.35.35,0,0,1,.39.39v.11a.85.85,0,0,1-.14.49A15.3,15.3,0,0,1,73,9.27a.32.32,0,0,1-.55,0l-.11-.16a.38.38,0,0,1,.06-.54,16.21,16.21,0,0,0,1.82-2.12H70.94v4.47c0,1.47-.15,1.67-1.56,1.67q-.48,0-1.56-.06a.38.38,0,0,1-.4-.4c0-.24.14-.37.41-.36.69,0,1.13.06,1.39.06.49,0,.49,0,.49-.91V6.41H65.15A.35.35,0,0,1,64.76,6a.35.35,0,0,1,.39-.39h5.31C69.37,4.73,68.47,4.05,67.76,3.54Z"/><path class="cls-3" d="M80.74,5.07A.37.37,0,0,1,81,4.58l.25-.07a.36.36,0,0,1,.49.31c.28,1.27.41,1.89.49,2.31a.36.36,0,0,1-.31.46l-.25,0c-.25.06-.41,0-.45-.26l0-.32-.77.07v5.29a.36.36,0,0,1-.4.39h-.4a.35.35,0,0,1-.39-.39V7.22l-1.52.12a.35.35,0,0,1-.4-.37c0-.21.11-.33.36-.36l.69-.07s.22-.37.49-.86c-.55-1.1-1-2-1.32-2.62a.49.49,0,0,1,0-.53l.17-.29c.16-.28.37-.31.49-.06s.16.31.23.44q.38-.81.81-1.95c.1-.27.29-.34.52-.21L80,.59a.36.36,0,0,1,.18.51c-.31.79-.72,1.67-1.19,2.62.21.41.36.72.45.9.4-.74.84-1.6,1.27-2.55a.33.33,0,0,1,.53-.17l.18.13a.37.37,0,0,1,.16.53A40.61,40.61,0,0,1,79.49,6.5l1.56-.12C81,6,80.85,5.5,80.74,5.07ZM78.82,8.63a26,26,0,0,1-.42,3.09.37.37,0,0,1-.48.31L77.67,12a.37.37,0,0,1-.31-.47,28.54,28.54,0,0,0,.41-2.94.34.34,0,0,1,.42-.37l.28,0C78.72,8.25,78.85,8.39,78.82,8.63Zm3.05-.24a27.33,27.33,0,0,1,.28,2.73.37.37,0,0,1-.36.43l-.28,0a.34.34,0,0,1-.44-.35c0-1-.14-1.85-.23-2.65a.33.33,0,0,1,.32-.43l.26,0C81.68,8.07,81.83,8.16,81.87,8.39Zm1.08-3a.32.32,0,0,1-.53.15l-.21-.14a.4.4,0,0,1-.16-.53A22,22,0,0,0,83.33.65a.36.36,0,0,1,.45-.32l.35.06a.35.35,0,0,1,.31.46c-.07.31-.14.67-.26,1.11h3.44a.36.36,0,0,1,.39.4c-.06,3.14-.1,5.2-.21,6.76-.06.81-.11,1.42-.17,1.9a3.93,3.93,0,0,1-.25,1,.77.77,0,0,1-.84.5,20.06,20.06,0,0,1-2.16-.11A.36.36,0,0,1,84,12c0-.26.14-.4.42-.37a8.32,8.32,0,0,0,1.44,0c.23,0,.41-.07.54-.56a22.7,22.7,0,0,0,.24-2.52c.07-1.32.12-3.28.18-5.88H84A19.7,19.7,0,0,1,83,5.35Zm1.82,3.09a26.1,26.1,0,0,0-1.24-2.81.35.35,0,0,1,.14-.53l.23-.16a.35.35,0,0,1,.55.14,24.6,24.6,0,0,1,1.33,3,.39.39,0,0,1-.19.52l-.27.15C85.08,8.84,84.88,8.74,84.77,8.44Z"/><path class="cls-3" d="M95.33,3h0a.32.32,0,0,1-.35.35H93.7a43.35,43.35,0,0,1-2.36,6.54.32.32,0,0,1-.48.17l-.45-.24a.32.32,0,0,1-.15-.47,36.25,36.25,0,0,0,2.27-6h-1.7A.32.32,0,0,1,90.48,3h0a.32.32,0,0,1,.35-.35h1.88c.12-.55.25-1.12.38-1.74a.31.31,0,0,1,.42-.27L94,.73a.31.31,0,0,1,.25.42c-.11.51-.22,1-.33,1.47H95A.32.32,0,0,1,95.33,3Zm2.29-.3A10.26,10.26,0,0,1,100.4,5a.32.32,0,0,1,0,.49l-.3.34a.35.35,0,0,1-.49,0,3.1,3.1,0,0,0-1.29-.43c-.48,0-.68.31-.75,1,0,.32,0,.73,0,1.19s0,.94.07,1.49A13.39,13.39,0,0,1,100,10.74a.33.33,0,0,1,.06.49l-.28.36a.3.3,0,0,1-.51,0c-.77-.75-1.29-1.22-1.64-1.55v.52a2.35,2.35,0,0,1-.16.7,2.39,2.39,0,0,1-2.54,1.13,2.29,2.29,0,0,1-1.32-.57A1.82,1.82,0,0,1,94.11,9a3.48,3.48,0,0,1,2.38-.17c0-.56-.06-1-.06-1.44a3.73,3.73,0,0,1,.12-1.16A1.69,1.69,0,0,1,98.3,5a4,4,0,0,1,.6.07A6.46,6.46,0,0,0,97.27,3.4a.35.35,0,0,1-.12-.49l0-.07C97.3,2.63,97.46,2.57,97.62,2.67ZM94.47,9.54a1,1,0,0,0,.55,1.9,1.32,1.32,0,0,0,1.43-.71,1.93,1.93,0,0,0,.07-.55v-.6A2.16,2.16,0,0,0,94.47,9.54Z"/><path class="cls-3" d="M108.19,3c-.44,0-.85-.07-1.21-.08a4.39,4.39,0,0,0-1.29.16,1.43,1.43,0,0,0-1,1,4.23,4.23,0,0,0-.12.8l-.14,2.63c1.68-1.2,4-2.21,5.84-.71A2.52,2.52,0,0,1,111.07,8a3.27,3.27,0,0,1-.48,2.69A4,4,0,0,1,108.78,12a8.59,8.59,0,0,1-3.93.38.32.32,0,0,1-.33-.34c0-.2.12-.31.35-.31a7.43,7.43,0,0,0,2.76-.36,3.13,3.13,0,0,0,2.12-1.94A2.1,2.1,0,0,0,109,7.1a2.53,2.53,0,0,0-2.18.05,7.75,7.75,0,0,0-2.59,1.9.39.39,0,0,1-.46.12l-.3-.08a.36.36,0,0,1-.26-.41c0-.88.22-3.32.25-3.67a4.23,4.23,0,0,1,.28-1.2,2.56,2.56,0,0,1,1.8-1.4,3.3,3.3,0,0,1,.69-.1,6.5,6.5,0,0,1-1.82-1.26.35.35,0,0,1-.06-.49.29.29,0,0,1,.47-.05,6.81,6.81,0,0,0,3.51,1.36.32.32,0,0,1,.32.38l0,.41A.32.32,0,0,1,108.19,3Z"/><path class="cls-3" d="M119.16,1.64c0,.19-.14.29-.39.29h-1.45l.49,1.57h.66a.35.35,0,0,1,.39.39v3a.35.35,0,0,1-.39.39h-3.08v5.06a.35.35,0,0,1-.39.39h-.39a.36.36,0,0,1-.4-.39V3.46l-.15-.19a.4.4,0,0,1,0-.56A8.38,8.38,0,0,0,115.4.42a.39.39,0,0,1,.51-.26l.31.09c.25,0,.36.19.3.35l-.26.62,2.51,0A.36.36,0,0,1,119.16,1.64Zm-3,.29h-.3a10.12,10.12,0,0,1-1.21,1.57h2C116.62,3.25,116.45,2.74,116.17,1.93Zm-.78,3.19h2.31v-1h-2.31Zm0,.54v1h2.31v-1Zm2.06,6.68h-.35a.36.36,0,0,1-.39-.4V8.47a.35.35,0,0,1,.39-.39h4.05a.35.35,0,0,1,.39.39v2.87a.33.33,0,0,1-.39.37h-3.31v.23A.36.36,0,0,1,117.45,12.34Zm.39-2.68h2.56v-1h-2.56Zm0,.51v1h2.56v-1Zm4.78,2.48h-.46a.39.39,0,0,1-.44-.38c0-.24.11-.37.38-.38h.36c.38,0,.44-.1.44-.71V7.29h-3.2a.35.35,0,0,1-.39-.39v-3a.35.35,0,0,1,.39-.39h1.73c-.07-.25-.25-.76-.52-1.57h-.44a7.87,7.87,0,0,1-1.16,1.29.36.36,0,0,1-.56,0l-.1-.12a.37.37,0,0,1,0-.54c.16-.2.4-.46.75-.91a5.77,5.77,0,0,0,.72-1.22.36.36,0,0,1,.5-.24l.28.08c.27.09.35.27.24.51l-.25.48h2.94a.35.35,0,0,1,.39.39c0,.21-.14.32-.39.32H122.1l.5,1.57h1.1a.35.35,0,0,1,.39.39v7.42C124.09,12.44,123.91,12.65,122.62,12.65Zm.28-7.53v-1h-2.43v1Zm0,.54h-2.43v1h2.43Z"/><path class="cls-3" d="M131.08.92a.36.36,0,0,1,.17-.53l.27-.13a.34.34,0,0,1,.52.17c.35.7.65,1.43,1,2.23h.73c.35-.63.72-1.36,1.08-2.15a.36.36,0,0,1,.5-.21l.27.1a.35.35,0,0,1,.22.51,19.38,19.38,0,0,1-.89,1.75h1.36a.35.35,0,0,1,.39.39V7.87a.35.35,0,0,1-.39.39h-3.58v1.6h4.47a.36.36,0,0,1,.4.39c0,.22-.14.34-.4.34h-4.47v1.9a.35.35,0,0,1-.39.39h-.42a.35.35,0,0,1-.39-.39v-1.9H127a.36.36,0,0,1-.39-.4c0-.22.14-.33.39-.33h4.47V8.26h-3.57a.35.35,0,0,1-.39-.39V3.05a.35.35,0,0,1,.39-.39h1.19c-.25-.65-.49-1.18-.69-1.6a.36.36,0,0,1,.17-.53l.25-.13a.37.37,0,0,1,.54.19c.35.71.65,1.41.92,2.07h1.51A18.56,18.56,0,0,0,131.08.92Zm-2.36,4.19h2.77V3.37h-2.77Zm2.77,2.45V5.75h-2.77V7.56Zm4-2.45V3.37h-2.78V5.11Zm-2.78,2.45h2.78V5.75h-2.78Z"/><path class="cls-3" d="M142.27,6.16v1a.35.35,0,0,1-.39.39h-.79a.35.35,0,0,1-.39-.39v-1a.35.35,0,0,1,.39-.39h.79A.35.35,0,0,1,142.27,6.16Z"/><path class="cls-3" d="M146.09,6.75V1.36a.36.36,0,0,1,.39-.4h8a.36.36,0,0,1,.4.4V6.75a.36.36,0,0,1-.4.39h-3.4V9h4.32a.35.35,0,0,1,.39.39.34.34,0,0,1-.39.38h-4.32v2.71a.35.35,0,0,1-.39.39h-.42a.35.35,0,0,1-.39-.39V9.8h-4.32a.35.35,0,0,1-.39-.39.35.35,0,0,1,.39-.38h4.32V7.14h-3.41A.35.35,0,0,1,146.09,6.75Zm1.22-3.06h6.36v-2h-6.36Zm0,.65v2.1h6.36V4.34Z"/><path class="cls-3" d="M159.36,2.46a32.11,32.11,0,0,0-.21,3.73A5.81,5.81,0,0,0,160.32,10a7.76,7.76,0,0,1,.22-1.09A6.78,6.78,0,0,1,161,7.76c.11-.23.24-.45.38-.69a.3.3,0,0,1,.46-.14c.17.13.23.25.14.39a7.35,7.35,0,0,0-.63,1.47,4.88,4.88,0,0,0-.17,2,.45.45,0,0,1-.14.45l-.35.32a.32.32,0,0,1-.49,0,6,6,0,0,1-2-3.57,14.84,14.84,0,0,1-.2-2.9c0-.85.1-1.72.19-2.64a.29.29,0,0,1,.36-.31H159A.29.29,0,0,1,159.36,2.46Zm7.22,6.12a7,7,0,0,0-2.05-4.7.32.32,0,0,1,0-.47c.13-.15.42-.14.83.14a6.6,6.6,0,0,1,2.57,4.84.33.33,0,0,1-.3.39l-.61.11A.31.31,0,0,1,166.58,8.58Z"/><path class="cls-3" d="M172.75,6.16v1a.35.35,0,0,1-.39.39h-.79a.35.35,0,0,1-.39-.39v-1a.35.35,0,0,1,.39-.39h.79A.35.35,0,0,1,172.75,6.16Z"/><path class="cls-3" d="M178.25,12.81h-.34a.35.35,0,0,1-.39-.39V6.29a13,13,0,0,1-.66,1.17c-.17.28-.4.25-.53,0l-.13-.29a.53.53,0,0,1,.05-.54,18.94,18.94,0,0,0,2-5.78A.34.34,0,0,1,178.7.5l.36.09a.35.35,0,0,1,.31.44,19.8,19.8,0,0,1-.73,2.87v8.52A.35.35,0,0,1,178.25,12.81Zm1.32-11.55c0-.2.14-.3.39-.3h6.76a.36.36,0,0,1,.4.4c0,.19-.14.29-.4.29h-2.94V2.94h2.61a.35.35,0,0,1,.39.39v5.1a.35.35,0,0,1-.39.39H186a.35.35,0,0,1-.39-.39V7.92h-2a6.79,6.79,0,0,1-.82,2.48,7.56,7.56,0,0,0,4.06,1.41.33.33,0,0,1,.36.42.34.34,0,0,1-.42.33,8.84,8.84,0,0,1-4.55-1.46,6.05,6.05,0,0,1-2.72,1.42.36.36,0,0,1-.49-.28h0a.37.37,0,0,1,.28-.5,5,5,0,0,0,2.15-1.23,8.57,8.57,0,0,1-1.25-1.38.37.37,0,0,1,.1-.55l.24-.18a.32.32,0,0,1,.54.11A7.45,7.45,0,0,0,182,9.65a5.89,5.89,0,0,0,.48-1.73h-2.37a.35.35,0,0,1-.39-.39V3.33a.35.35,0,0,1,.39-.39h2.54V1.65H180A.35.35,0,0,1,179.57,1.26Zm1.24,3.82h1.8V3.58h-1.8Zm0,2.2h1.7a14.44,14.44,0,0,0,.08-1.58h-1.78Zm4.82-1.58h-1.86c0,.54,0,1.06-.09,1.58h1.95Zm-1.85-.62h1.85V3.58h-1.85Z"/><path class="cls-3" d="M194.74,4.46a.36.36,0,0,1,.39.4c0,.22-.14.33-.39.33H193c.55.94,1.26,2.19,2,3.49a.39.39,0,0,1-.08.55l-.2.17a.3.3,0,0,1-.53-.12c-.37-.74-.83-1.62-1.38-2.63v5.77a.35.35,0,0,1-.39.39h-.32a.35.35,0,0,1-.39-.39V7.52a14.4,14.4,0,0,1-1.53,2.93.3.3,0,0,1-.56,0l-.11-.18a.48.48,0,0,1,0-.55,14.36,14.36,0,0,0,1.92-4.51h-1.6a.35.35,0,0,1-.39-.39c0-.22.14-.34.39-.34h1.87V1.85c-.46,0-1,.11-1.63.16a.34.34,0,0,1-.42-.35c0-.19.11-.3.37-.33A32.4,32.4,0,0,0,194.42.6a.35.35,0,0,1,.48.28c0,.2,0,.34-.2.38-.53.12-1.18.26-1.91.39V4.46Zm2-2.78v7.8a.35.35,0,0,1-.39.39H196a.35.35,0,0,1-.39-.39V1.68a.35.35,0,0,1,.39-.39h.38A.35.35,0,0,1,196.73,1.68ZM199,.73h.39a.35.35,0,0,1,.39.39V11c0,1.47-.14,1.67-1.46,1.67l-1.38-.06a.37.37,0,0,1-.41-.39h0c0-.27.13-.41.41-.4.68.05,1.09.06,1.23.06.41,0,.43,0,.43-.93V1.12A.36.36,0,0,1,199,.73Z"/></g></g></svg>