<svg xmlns="http://www.w3.org/2000/svg" width="701" height="372.671" viewBox="0 0 701 372.671">
  <g id="graph-irregular-ditection-smsc" transform="translate(350.5 186.335)">
    <g id="アートワーク_58" data-name="アートワーク 58" transform="translate(-350.5 -186.335)">
      <rect id="長方形_297" data-name="長方形 297" width="593.152" height="13.414" transform="translate(82.941 53.079)" fill="#0b4093" opacity="0.2"/>
      <rect id="長方形_298" data-name="長方形 298" width="593.152" height="13.414" transform="translate(82.941 86.526)" fill="#0b4093" opacity="0.2"/>
      <rect id="長方形_299" data-name="長方形 299" width="593.152" height="13.414" transform="translate(82.941 119.973)" fill="#0b4093" opacity="0.2"/>
      <rect id="長方形_300" data-name="長方形 300" width="593.152" height="13.414" transform="translate(82.941 153.064)" fill="#0b4093" opacity="0.2"/>
      <rect id="長方形_301" data-name="長方形 301" width="593.152" height="13.414" transform="translate(82.941 186.511)" fill="#0b4093" opacity="0.2"/>
      <rect id="長方形_302" data-name="長方形 302" width="593.152" height="13.414" transform="translate(82.941 219.958)" fill="#0b4093" opacity="0.2"/>
      <rect id="長方形_303" data-name="長方形 303" width="593.152" height="13.414" transform="translate(82.941 253.05)" fill="#0b4093" opacity="0.2"/>
      <rect id="長方形_304" data-name="長方形 304" width="593.152" height="13.414" transform="translate(82.941 286.497)" fill="#0b4093" opacity="0.2"/>
      <rect id="長方形_305" data-name="長方形 305" width="494.59" height="13.414" transform="translate(82.941 53.079)" fill="#0b4093" opacity="0.6"/>
      <rect id="長方形_306" data-name="長方形 306" width="410.972" height="13.414" transform="translate(82.941 86.526)" fill="#0b4093" opacity="0.6"/>
      <rect id="長方形_307" data-name="長方形 307" width="285.723" height="13.414" transform="translate(82.941 119.973)" fill="#0b4093" opacity="0.6"/>
      <rect id="長方形_308" data-name="長方形 308" width="226.657" height="13.414" transform="translate(82.941 153.064)" fill="#0b4093" opacity="0.6"/>
      <rect id="長方形_309" data-name="長方形 309" width="192.499" height="13.414" transform="translate(82.941 186.511)" fill="#0b4093" opacity="0.6"/>
      <rect id="長方形_310" data-name="長方形 310" width="144.107" height="13.414" transform="translate(82.941 219.958)" fill="#0b4093" opacity="0.6"/>
      <rect id="長方形_311" data-name="長方形 311" width="120.267" height="13.414" transform="translate(82.941 253.05)" fill="#0b4093" opacity="0.6"/>
      <rect id="長方形_312" data-name="長方形 312" width="90.734" height="13.414" transform="translate(82.941 286.497)" fill="#0b4093" opacity="0.6"/>
      <g id="グループ_316" data-name="グループ 316" transform="translate(5.728 286.838)">
        <path id="パス_1838" data-name="パス 1838" d="M4.447,80.7H6.226V94.933H4.091V83.191L1.6,84.97V82.835Z" transform="translate(-1.6 -80.329)" fill="#0b4093"/>
        <path id="パス_1839" data-name="パス 1839" d="M4.2,88.072c0-1.423,0-7.472,4.981-7.472s4.981,6.049,4.981,7.472,0,7.472-4.981,7.472S4.2,89.5,4.2,88.072Zm7.828,0c0-2.847-.356-5.337-2.847-5.337s-2.847,2.847-2.847,5.337.712,5.337,2.847,5.337,2.847-2.491,2.847-5.337Z" transform="translate(5.051 -80.585)" fill="#0b4093"/>
        <path id="パス_1840" data-name="パス 1840" d="M23.968,83.725a6.049,6.049,0,0,1-4.626,2.135,7.116,7.116,0,0,1-3.914-1.067,5.693,5.693,0,0,0-3.2-1.067A4.27,4.27,0,0,0,8.667,85.5L7.6,84.437A5.693,5.693,0,0,1,12.226,82.3a7.472,7.472,0,0,1,3.914,1.423,5.693,5.693,0,0,0,3.2,1.067A4.27,4.27,0,0,0,22.9,83.014Z" transform="translate(13.749 -76.238)" fill="#0b4093"/>
        <path id="パス_1841" data-name="パス 1841" d="M15.647,80.7h1.779V94.933H15.291V83.191L12.8,84.97V82.835Z" transform="translate(27.052 -80.329)" fill="#0b4093"/>
        <path id="パス_1842" data-name="パス 1842" d="M16.734,93.064h2.135c2.847,0,4.27-2.135,4.626-4.981a4.27,4.27,0,0,1-3.558,1.423,4.459,4.459,0,1,1,.356-8.9c1.423,0,5.337.712,5.337,6.4S23.139,95.2,18.869,95.2H16.734Zm3.558-4.981a2.847,2.847,0,1,0-2.847-2.847,2.491,2.491,0,0,0,2.491,3.2Z" transform="translate(33.437 -80.596)" fill="#0b4093"/>
      </g>
      <g id="グループ_317" data-name="グループ 317" transform="translate(69.064 324.569)">
        <path id="パス_1843" data-name="パス 1843" d="M19.4,98.672c0-1.423,0-7.472,4.981-7.472s4.981,6.049,4.981,7.472,0,7.472-4.981,7.472S19.4,100.1,19.4,98.672Zm7.828,0c0-2.847-.356-5.337-2.847-5.337s-2.847,2.847-2.847,5.337.712,5.337,2.847,5.337S27.228,101.519,27.228,98.672Z" transform="translate(-19.4 -91.2)" fill="#0b4093"/>
        <path id="パス_1844" data-name="パス 1844" d="M26.271,91.312a3.914,3.914,0,1,1-3.558,3.914,3.558,3.558,0,0,1,3.558-3.914Zm7.828.356h1.423L25.915,105.9H24.492Zm-7.828,5.693c.712,0,1.779-.712,1.779-2.491s-1.067-2.491-1.779-2.491-1.779.712-1.779,2.491S25.559,97.361,26.271,97.361Zm7.472.712a3.914,3.914,0,1,1-3.558,3.914,3.558,3.558,0,0,1,3.558-3.914Zm0,6.4c.712,0,1.779-.712,1.779-2.491S34.455,99.5,33.743,99.5s-1.779.712-1.779,2.491,1.067,2.491,1.779,2.491Z" transform="translate(-10.971 -90.956)" fill="#0b4093"/>
      </g>
      <g id="グループ_318" data-name="グループ 318" transform="translate(183.638 324.569)">
        <path id="パス_1845" data-name="パス 1845" d="M62.275,103.764v1.779H51.6l4.981-5.337c2.135-2.491,2.847-3.558,2.847-4.626a2.135,2.135,0,0,0-2.491-2.491,4.27,4.27,0,0,0-3.558,2.491l-1.067-2.135a5.337,5.337,0,0,1,4.27-2.135,4.27,4.27,0,0,1,4.626,4.27c0,2.135-.712,3.558-5.337,8.184Z" transform="translate(-51.6 -90.955)" fill="#0b4093"/>
        <path id="パス_1846" data-name="パス 1846" d="M54.8,98.672c0-1.423,0-7.472,4.981-7.472s4.981,6.049,4.981,7.472,0,7.472-4.981,7.472S54.8,100.1,54.8,98.672Zm7.828,0c0-2.847-.356-5.337-2.847-5.337s-2.847,2.847-2.847,5.337.712,5.337,2.847,5.337S62.628,101.519,62.628,98.672Z" transform="translate(-43.414 -91.2)" fill="#0b4093"/>
        <path id="パス_1847" data-name="パス 1847" d="M61.671,91.312a3.914,3.914,0,1,1-3.558,3.914,3.558,3.558,0,0,1,3.558-3.914Zm7.828.356h1.423L61.315,105.9H59.892Zm-7.828,5.693c.712,0,1.779-.712,1.779-2.491s-1.067-2.491-1.779-2.491-1.779.712-1.779,2.491S60.959,97.361,61.671,97.361Zm7.472.712a3.914,3.914,0,1,1-3.558,3.914,3.558,3.558,0,0,1,3.558-3.914Zm0,6.4c.712,0,1.779-.712,1.779-2.491S69.855,99.5,69.143,99.5s-1.779.712-1.779,2.491,1.067,2.491,1.779,2.491Z" transform="translate(-34.985 -90.956)" fill="#0b4093"/>
      </g>
      <g id="グループ_319" data-name="グループ 319" transform="translate(304.261 324.569)">
        <path id="パス_1848" data-name="パス 1848" d="M91.9,105.277v-3.2H85.5v-1.423L91.9,91.4H94.04v9.251h1.779v1.779H94.04v3.2Zm-4.27-4.981H91.9V94.247Z" transform="translate(-85.5 -90.688)" fill="#0b4093"/>
        <path id="パス_1849" data-name="パス 1849" d="M88.8,98.672c0-1.423,0-7.472,4.982-7.472s4.981,6.049,4.981,7.472,0,7.472-4.981,7.472S88.8,100.1,88.8,98.672Zm7.828,0c0-2.847-.356-5.337-2.847-5.337s-2.847,2.847-2.847,5.337.712,5.337,2.847,5.337S96.628,101.519,96.628,98.672Z" transform="translate(-77.058 -91.2)" fill="#0b4093"/>
        <path id="パス_1850" data-name="パス 1850" d="M95.671,91.312a3.914,3.914,0,1,1-3.558,3.914,3.558,3.558,0,0,1,3.558-3.914Zm7.828.356h1.423L95.315,105.9H93.892Zm-7.828,5.693c.712,0,1.779-.712,1.779-2.491s-1.067-2.491-1.779-2.491-1.779.712-1.779,2.491S94.959,97.361,95.671,97.361Zm7.472.712a3.914,3.914,0,1,1-3.558,3.914,3.558,3.558,0,0,1,3.558-3.914Zm0,6.4c.712,0,1.779-.712,1.779-2.491s-1.067-2.491-1.779-2.491-1.779.712-1.779,2.491S102.432,104.477,103.143,104.477Z" transform="translate(-68.629 -90.956)" fill="#0b4093"/>
      </g>
      <g id="グループ_320" data-name="グループ 320" transform="translate(421.291 324.569)">
        <path id="パス_1851" data-name="パス 1851" d="M126.253,92.823h-.712c-2.847,0-4.626,2.135-4.982,4.981a4.27,4.27,0,0,1,3.558-1.423,4.808,4.808,0,1,1-.356,9.607c-2.135,0-5.337-1.423-5.337-6.4a7.472,7.472,0,0,1,7.116-8.184h.712Zm-2.491,5.337a2.675,2.675,0,1,0,2.491,2.491,2.491,2.491,0,0,0-2.847-2.491Z" transform="translate(-118.39 -90.688)" fill="#0b4093"/>
        <path id="パス_1852" data-name="パス 1852" d="M121.6,98.672c0-1.423,0-7.472,4.982-7.472s4.981,6.049,4.981,7.472,0,7.472-4.981,7.472S121.6,100.1,121.6,98.672Zm7.828,0c0-2.847-.356-5.337-2.847-5.337s-2.847,2.847-2.847,5.337.712,5.337,2.847,5.337,2.847-2.491,2.847-5.337Z" transform="translate(-110.179 -91.2)" fill="#0b4093"/>
        <path id="パス_1853" data-name="パス 1853" d="M128.471,91.312a3.914,3.914,0,1,1-3.558,3.914,3.558,3.558,0,0,1,3.558-3.914Zm7.828.356h1.423L128.115,105.9h-1.423Zm-7.828,5.693c.712,0,1.779-.712,1.779-2.491s-1.067-2.491-1.779-2.491-1.779.712-1.779,2.491S127.759,97.361,128.471,97.361Zm7.472.712a3.914,3.914,0,1,1-3.558,3.914,3.558,3.558,0,0,1,3.558-3.914Zm0,6.4c.712,0,1.779-.712,1.779-2.491s-1.067-2.491-1.779-2.491-1.779.712-1.779,2.491S135.232,104.477,135.943,104.477Z" transform="translate(-101.75 -90.956)" fill="#0b4093"/>
      </g>
      <g id="グループ_321" data-name="グループ 321" transform="translate(539.814 324.569)">
        <path id="パス_1854" data-name="パス 1854" d="M161.663,101.875a4.981,4.981,0,1,1-9.963,0,3.914,3.914,0,0,1,2.491-3.558,3.2,3.2,0,0,1-1.423-2.847,4.27,4.27,0,0,1,8.54,0,3.2,3.2,0,0,1-1.423,2.847,3.914,3.914,0,0,1,1.779,3.558Zm-2.135,0a2.847,2.847,0,1,0-2.846,2.847,2.846,2.846,0,0,0,2.846-2.847Zm-.712-6.4a2.135,2.135,0,1,0-2.135,2.135A2.135,2.135,0,0,0,158.816,95.47Z" transform="translate(-151.7 -91.2)" fill="#0b4093"/>
        <path id="パス_1855" data-name="パス 1855" d="M154.8,98.672c0-1.423,0-7.472,4.981-7.472s4.982,6.049,4.982,7.472,0,7.472-4.982,7.472S154.8,100.1,154.8,98.672Zm7.828,0c0-2.847-.356-5.337-2.847-5.337s-2.847,2.847-2.847,5.337.712,5.337,2.847,5.337S162.628,101.519,162.628,98.672Z" transform="translate(-143.77 -91.2)" fill="#0b4093"/>
        <path id="パス_1856" data-name="パス 1856" d="M161.671,91.312a3.914,3.914,0,1,1-3.558,3.914,3.558,3.558,0,0,1,3.558-3.914Zm7.828.356h1.423L161.315,105.9h-1.423Zm-7.828,5.693c.712,0,1.779-.712,1.779-2.491s-1.068-2.491-1.779-2.491-1.779.712-1.779,2.491S160.6,97.361,161.671,97.361Zm7.472.712a3.914,3.914,0,1,1-3.558,3.914,3.558,3.558,0,0,1,3.2-3.914Zm0,6.4c.712,0,1.779-.712,1.779-2.491s-1.068-2.491-1.779-2.491-1.779.712-1.779,2.491.712,2.491,1.423,2.491Z" transform="translate(-135.34 -90.956)" fill="#0b4093"/>
      </g>
      <g id="グループ_322" data-name="グループ 322" transform="translate(655.099 324.569)">
        <path id="パス_1857" data-name="パス 1857" d="M186.947,91.3h1.779v14.233h-2.135V93.791L184.1,95.57V93.791Z" transform="translate(-184.1 -90.944)" fill="#0b4093"/>
        <path id="パス_1858" data-name="パス 1858" d="M186.2,98.672c0-1.423,0-7.472,4.981-7.472s4.981,6.049,4.981,7.472,0,7.472-4.981,7.472S186.2,100.1,186.2,98.672Zm7.828,0c0-2.847-.356-5.337-2.847-5.337s-2.847,2.847-2.847,5.337.712,5.337,2.847,5.337S194.028,101.519,194.028,98.672Z" transform="translate(-178.728 -91.2)" fill="#0b4093"/>
        <path id="パス_1859" data-name="パス 1859" d="M189.4,98.672c0-1.423,0-7.472,4.981-7.472s4.981,6.049,4.981,7.472,0,7.472-4.981,7.472S189.4,100.1,189.4,98.672Zm7.828,0c0-2.847-.356-5.337-2.847-5.337s-2.847,2.847-2.847,5.337.712,5.337,2.847,5.337,2.847-2.491,2.847-5.337Z" transform="translate(-170.542 -91.2)" fill="#0b4093"/>
        <path id="パス_1860" data-name="パス 1860" d="M196.271,91.312a3.914,3.914,0,1,1-3.558,3.914,3.558,3.558,0,0,1,3.558-3.914Zm7.828.356h1.423L195.915,105.9h-1.423Zm-7.828,5.693c.712,0,1.779-.712,1.779-2.491s-1.068-2.491-1.779-2.491-1.779.712-1.779,2.491S195.559,97.361,196.271,97.361Zm7.472.712a3.914,3.914,0,1,1-3.558,3.914,3.558,3.558,0,0,1,3.558-3.914Zm0,6.4c.712,0,1.779-.712,1.779-2.491s-1.067-2.491-1.779-2.491-1.779.712-1.779,2.491S203.032,104.477,203.743,104.477Z" transform="translate(-162.112 -90.956)" fill="#0b4093"/>
      </g>
      <g id="グループ_323" data-name="グループ 323" transform="translate(1.458 258.372)">
        <path id="パス_1861" data-name="パス 1861" d="M10.719,85.164v1.779H.4l4.981-5.337c2.135-2.491,2.847-3.558,2.847-4.626A2.135,2.135,0,0,0,5.737,74.49a4.27,4.27,0,0,0-3.558,2.491L1.112,74.846a5.337,5.337,0,0,1,4.27-2.135,4.27,4.27,0,0,1,4.626,4.27c0,2.135-.712,3.558-5.337,8.184Z" transform="translate(-0.4 -72.34)" fill="#0b4093"/>
        <path id="パス_1862" data-name="パス 1862" d="M3.9,80.072c0-1.423,0-7.472,4.981-7.472s4.981,6.049,4.981,7.472,0,7.472-4.981,7.472S3.9,81.5,3.9,80.072Zm7.828,0c0-2.847-.356-5.337-2.847-5.337s-2.847,2.847-2.847,5.337.712,5.337,2.847,5.337,2.847-2.491,2.847-5.337Z" transform="translate(8.554 -72.585)" fill="#0b4093"/>
        <path id="パス_1863" data-name="パス 1863" d="M23.668,75.725a6.049,6.049,0,0,1-4.626,2.135,7.116,7.116,0,0,1-3.914-1.067,5.693,5.693,0,0,0-3.2-1.067A4.27,4.27,0,0,0,8.367,77.5L7.3,76.437A5.693,5.693,0,0,1,11.926,74.3a7.472,7.472,0,0,1,3.914,1.423,5.693,5.693,0,0,0,3.2,1.068A4.27,4.27,0,0,0,22.6,75.014Z" transform="translate(17.252 -68.238)" fill="#0b4093"/>
        <path id="パス_1864" data-name="パス 1864" d="M22.219,85.164v1.779H11.9l4.981-5.337c2.135-2.491,2.847-3.558,2.847-4.626a2.135,2.135,0,0,0-2.491-2.491,4.27,4.27,0,0,0-3.558,2.491l-1.067-2.135a5.337,5.337,0,0,1,4.27-2.135,4.27,4.27,0,0,1,4.626,4.27c0,2.135-.712,3.558-5.337,8.184Z" transform="translate(29.019 -72.34)" fill="#0b4093"/>
        <path id="パス_1865" data-name="パス 1865" d="M16.734,85.42h2.135c2.847,0,4.27-2.135,4.626-4.982a4.27,4.27,0,0,1-3.558,1.423,4.633,4.633,0,1,1,.356-9.251c1.423,0,5.337.712,5.337,6.4S23.139,87.2,18.869,87.2H16.734Zm3.558-4.982a2.847,2.847,0,1,0-2.847-2.847,2.491,2.491,0,0,0,2.491,2.847Z" transform="translate(37.706 -72.596)" fill="#0b4093"/>
      </g>
      <g id="グループ_324" data-name="グループ 324" transform="translate(0.39 218.164)">
        <path id="パス_1866" data-name="パス 1866" d="M.812,73.254a7.116,7.116,0,0,0,3.914,1.067c2.491,0,3.558-1.423,3.558-2.491s-1.067-2.491-3.2-2.491H3.3V67.561H4.726c1.779,0,2.491-1.067,2.491-2.135a2.135,2.135,0,0,0-2.491-2.135A4.626,4.626,0,0,0,1.167,65.07L.812,63.291a6.4,6.4,0,0,1,4.27-1.779,3.914,3.914,0,0,1,4.27,3.914,3.2,3.2,0,0,1-1.779,2.847,3.914,3.914,0,0,1,2.847,3.558c0,1.779-1.423,4.27-5.693,4.27A8.9,8.9,0,0,1,.1,75.033Z" transform="translate(-0.1 -60.785)" fill="#0b4093"/>
        <path id="パス_1867" data-name="パス 1867" d="M3.5,68.972c0-1.423,0-7.472,4.981-7.472s4.981,6.049,4.981,7.472,0,7.472-4.981,7.472S3.5,70.4,3.5,68.972Zm7.828,0c0-2.847-.356-5.337-2.847-5.337s-2.847,2.847-2.847,5.337.712,5.337,2.847,5.337,3.2-2.847,3.2-5.337Z" transform="translate(8.598 -60.773)" fill="#0b4093"/>
        <path id="パス_1868" data-name="パス 1868" d="M23.012,64.881a6.049,6.049,0,0,1-4.626,2.135,7.116,7.116,0,0,1-3.914-1.423,5.693,5.693,0,0,0-3.2-1.067A4.27,4.27,0,0,0,7.712,66.3L7,65.237A5.693,5.693,0,0,1,11.626,63.1a7.472,7.472,0,0,1,3.914,1.423,5.693,5.693,0,0,0,3.2,1.067A4.27,4.27,0,0,0,22.3,63.814Z" transform="translate(17.552 -56.682)" fill="#0b4093"/>
        <path id="パス_1869" data-name="パス 1869" d="M18.3,75.833v-3.2H11.9V70.851L18.3,61.6H20.44v9.251h1.779V72.63H20.44v3.2Zm-4.27-4.981H18.3v-6.4Z" transform="translate(30.087 -60.518)" fill="#0b4093"/>
        <path id="パス_1870" data-name="パス 1870" d="M16.734,74.476h2.135c2.847,0,4.27-2.135,4.626-4.981a4.27,4.27,0,0,1-3.558,1.423,4.808,4.808,0,1,1,.356-9.607c1.423,0,5.337.712,5.337,6.4S23.139,75.9,18.869,75.9H16.734Zm3.558-4.981a2.847,2.847,0,1,0-2.847-2.847,2.491,2.491,0,0,0,2.491,2.847Z" transform="translate(38.774 -61.296)" fill="#0b4093"/>
      </g>
      <g id="グループ_325" data-name="グループ 325" transform="translate(0.746 151.982)">
        <path id="パス_1871" data-name="パス 1871" d="M9.1,45.135H3.047v3.558H5.181a4.626,4.626,0,0,1,4.981,3.914c0,2.135-1.779,4.626-5.693,4.626A8.9,8.9,0,0,1,.2,56.165l.712-1.779A6.4,6.4,0,0,0,4.47,55.454c2.847,0,3.558-1.779,3.558-2.847a2.847,2.847,0,0,0-2.847-2.491l-2.135.712H1.267V43H9.1Z" transform="translate(-0.2 -41.918)" fill="#0b4093"/>
        <path id="パス_1872" data-name="パス 1872" d="M3.6,50.372c0-1.423,0-7.472,4.981-7.472s4.981,6.049,4.981,7.472,0,7.472-4.981,7.472S3.6,51.8,3.6,50.372Zm7.828,0c0-2.847-.356-5.337-2.847-5.337s-2.847,2.847-2.847,5.337.712,5.337,2.847,5.337S11.428,53.219,11.428,50.372Z" transform="translate(8.498 -42.173)" fill="#0b4093"/>
        <path id="パス_1873" data-name="パス 1873" d="M23.368,46.025a6.049,6.049,0,0,1-4.626,2.135,7.117,7.117,0,0,1-3.914-1.423,5.693,5.693,0,0,0-3.2-1.067,4.27,4.27,0,0,0-3.558,1.779L7,46.737A5.693,5.693,0,0,1,11.626,44.6a7.472,7.472,0,0,1,3.914,1.423,5.693,5.693,0,0,0,3.2,1.067A4.27,4.27,0,0,0,22.3,45.314Z" transform="translate(17.196 -37.827)" fill="#0b4093"/>
        <path id="パス_1874" data-name="パス 1874" d="M20.64,45.135H14.947v3.558h2.135a4.626,4.626,0,0,1,4.981,4.626c0,2.135-1.779,4.626-5.693,4.626a8.9,8.9,0,0,1-4.27-1.067l.712-1.779a6.4,6.4,0,0,0,3.558,1.067c2.847,0,3.558-1.779,3.558-2.847a2.847,2.847,0,0,0-2.847-2.491l-2.135.712H13.167V43H21Z" transform="translate(30.243 -41.918)" fill="#0b4093"/>
        <path id="パス_1875" data-name="パス 1875" d="M16.734,55.876h2.135c2.847,0,4.27-2.135,4.626-4.981a4.27,4.27,0,0,1-3.558,1.423,4.808,4.808,0,1,1,.356-9.607c1.423,0,5.337.712,5.337,6.4S23.139,57.3,18.869,57.3H16.734Zm3.558-4.981a2.847,2.847,0,1,0-2.847-2.847,2.491,2.491,0,0,0,2.491,3.2Z" transform="translate(38.418 -42.696)" fill="#0b4093"/>
      </g>
      <g id="グループ_326" data-name="グループ 326" transform="translate(0.39 185.429)">
        <path id="パス_1876" data-name="パス 1876" d="M6.5,66.633v-3.2H.1V61.651L6.5,52.4H8.64v9.251h1.779V63.43H8.64v3.2Zm-4.27-4.981H6.5v-6.4Z" transform="translate(-0.1 -51.318)" fill="#0b4093"/>
        <path id="パス_1877" data-name="パス 1877" d="M3.5,59.772c0-1.423,0-7.472,4.981-7.472s4.981,6.049,4.981,7.472,0,7.472-4.981,7.472S3.5,61.2,3.5,59.772Zm7.828,0c0-2.847-.356-5.337-2.847-5.337s-2.847,2.847-2.847,5.337.712,5.337,2.847,5.337,3.2-2.491,3.2-5.337Z" transform="translate(8.598 -51.573)" fill="#0b4093"/>
        <path id="パス_1878" data-name="パス 1878" d="M23.012,55.425a6.049,6.049,0,0,1-4.626,2.135,7.116,7.116,0,0,1-3.914-1.423,5.693,5.693,0,0,0-3.2-1.067,4.27,4.27,0,0,0-3.558,1.779L7,56.137A5.693,5.693,0,0,1,11.626,54a7.472,7.472,0,0,1,3.914,1.423,5.693,5.693,0,0,0,3.2,1.067A4.27,4.27,0,0,0,22.3,54.714Z" transform="translate(17.552 -47.227)" fill="#0b4093"/>
        <path id="パス_1879" data-name="パス 1879" d="M18.3,66.633v-3.2H11.9V61.651L18.3,52.4H20.44v9.251h1.779V63.43H20.44v3.2Zm-4.27-4.981H18.3v-6.4Z" transform="translate(30.087 -51.318)" fill="#0b4093"/>
        <path id="パス_1880" data-name="パス 1880" d="M16.734,65.276h2.135c2.847,0,4.27-2.135,4.626-4.981a4.27,4.27,0,0,1-3.558,1.423,4.808,4.808,0,1,1,.356-9.607c1.423,0,5.337.712,5.337,6.4S23.139,66.7,18.869,66.7H16.734Zm3.558-4.981a2.847,2.847,0,1,0-2.847-2.847,2.491,2.491,0,0,0,2.491,3.2Z" transform="translate(38.774 -52.096)" fill="#0b4093"/>
      </g>
      <g id="グループ_327" data-name="グループ 327" transform="translate(2.17 92.219)">
        <path id="パス_1881" data-name="パス 1881" d="M10.919,26.1v2.135L3.8,39.977H1.312l7.116-12.1H.6V26.1Z" transform="translate(-0.6 -25.388)" fill="#0b4093"/>
        <path id="パス_1882" data-name="パス 1882" d="M3.9,33.372c0-1.423,0-7.472,4.981-7.472s4.981,6.4,4.981,7.472,0,7.472-4.981,7.472S3.9,34.8,3.9,33.372Zm7.828,0c0-2.847-.356-5.337-2.847-5.337s-2.847,2.847-2.847,5.337.712,5.337,2.847,5.337,2.847-2.491,2.847-5.337Z" transform="translate(7.842 -25.9)" fill="#0b4093"/>
        <path id="パス_1883" data-name="パス 1883" d="M23.668,29.281a6.049,6.049,0,0,1-4.626,2.135,7.116,7.116,0,0,1-3.914-1.423,5.693,5.693,0,0,0-3.2-1.067A4.27,4.27,0,0,0,8.367,30.7L7.3,29.637A5.693,5.693,0,0,1,11.926,27.5a7.472,7.472,0,0,1,3.914,1.423,5.693,5.693,0,0,0,3.2,1.067A4.27,4.27,0,0,0,22.6,28.214Z" transform="translate(16.54 -21.809)" fill="#0b4093"/>
        <path id="パス_1884" data-name="パス 1884" d="M22.219,26.1v2.135L15.1,40.333H12.612l7.116-12.1H11.9V26.456Z" transform="translate(28.308 -25.388)" fill="#0b4093"/>
        <path id="パス_1885" data-name="パス 1885" d="M16.723,38.454h2.135c2.847,0,4.27-2.135,4.626-4.981A4.27,4.27,0,0,1,19.926,34.9,4.626,4.626,0,0,1,15.3,30.27,4.626,4.626,0,0,1,19.926,26c1.423,0,5.337.712,5.337,6.4s-2.491,8.184-6.761,8.184H16.367Zm3.558-4.981a2.847,2.847,0,1,0-2.847-2.847,2.491,2.491,0,0,0,2.491,2.847Z" transform="translate(37.006 -25.644)" fill="#0b4093"/>
      </g>
      <g id="グループ_328" data-name="グループ 328" transform="translate(0 118.535)">
        <path id="パス_1886" data-name="パス 1886" d="M7.853,35.023H7.141c-2.847,0-4.626,2.135-4.981,4.981a4.27,4.27,0,0,1,3.558-1.423,4.808,4.808,0,1,1-.356,9.607c-2.135,0-5.337-1.423-5.337-6.4A7.472,7.472,0,0,1,7.141,33.6h.712ZM5.362,40.361a2.675,2.675,0,1,0,2.491,2.491,2.491,2.491,0,0,0-2.491-2.491Z" transform="translate(0.01 -32.518)" fill="#0b4093"/>
        <path id="パス_1887" data-name="パス 1887" d="M3.4,40.872c0-1.423,0-7.472,4.981-7.472s4.981,6.049,4.981,7.472,0,7.472-4.981,7.472S3.4,42.3,3.4,40.872Zm7.828,0c0-2.847-.356-5.337-2.847-5.337s-2.847,2.847-2.847,5.337.712,5.337,2.847,5.337,2.847-2.491,2.847-5.337Z" transform="translate(8.733 -33.029)" fill="#0b4093"/>
        <path id="パス_1888" data-name="パス 1888" d="M23.168,36.525a6.049,6.049,0,0,1-4.626,2.135,7.116,7.116,0,0,1-3.914-1.067,5.693,5.693,0,0,0-3.2-1.067A4.27,4.27,0,0,0,7.867,38.3L6.8,37.237A5.693,5.693,0,0,1,11.426,35.1a7.472,7.472,0,0,1,3.914,1.423,5.693,5.693,0,0,0,3.2,1.067A4.27,4.27,0,0,0,22.1,35.814Z" transform="translate(17.43 -28.682)" fill="#0b4093"/>
        <path id="パス_1889" data-name="パス 1889" d="M19.853,35.023h-.712c-2.847,0-4.626,2.135-4.981,4.981a4.27,4.27,0,0,1,3.558-1.423,4.808,4.808,0,1,1-.356,9.607c-2.135,0-5.337-1.423-5.337-6.4A7.472,7.472,0,0,1,19.141,33.6h.712Zm-2.491,5.337a2.675,2.675,0,1,0,2.491,2.491A2.491,2.491,0,0,0,17.362,40.361Z" transform="translate(30.708 -32.518)" fill="#0b4093"/>
        <path id="パス_1890" data-name="パス 1890" d="M16.734,46.476h2.135c2.847,0,4.27-2.135,4.626-4.981a4.27,4.27,0,0,1-3.558,1.423,4.808,4.808,0,1,1,.356-9.607c1.423,0,5.337.712,5.337,6.4S23.139,47.9,18.869,47.9H16.734Zm3.558-4.981a2.847,2.847,0,1,0-2.847-2.847,2.491,2.491,0,0,0,2.491,2.847Z" transform="translate(39.164 -33.296)" fill="#0b4093"/>
      </g>
      <g id="グループ_329" data-name="グループ 329" transform="translate(0.035 51.641)">
        <path id="パス_1891" data-name="パス 1891" d="M10.319,24.776a4.626,4.626,0,0,1-4.981,4.27A4.626,4.626,0,0,1,0,24.776a3.914,3.914,0,0,1,2.491-3.558,3.2,3.2,0,0,1-1.423-2.847,3.914,3.914,0,0,1,4.27-3.558,3.914,3.914,0,0,1,4.27,3.558,3.2,3.2,0,0,1-1.423,2.847A3.914,3.914,0,0,1,10.319,24.776Zm-2.135,0a2.491,2.491,0,0,0-2.847-2.491,2.491,2.491,0,0,0-2.847,2.491,2.872,2.872,0,0,0,5.693,0Zm-.712-6.4a2.135,2.135,0,1,0-4.27,0,1.779,1.779,0,0,0,2.135,2.135,1.779,1.779,0,0,0,2.135-2.135Z" transform="translate(0 -13.73)" fill="#0b4093"/>
        <path id="パス_1892" data-name="パス 1892" d="M3.5,22.172c0-1.423,0-7.472,4.981-7.472s4.981,6.049,4.981,7.472,0,7.472-4.981,7.472S3.5,23.6,3.5,22.172Zm7.828,0c0-2.847-.356-5.337-2.847-5.337s-2.847,2.847-2.847,5.337.712,5.337,2.847,5.337S11.328,25.019,11.328,22.172Z" transform="translate(8.954 -13.973)" fill="#0b4093"/>
        <path id="パス_1893" data-name="パス 1893" d="M23.268,17.825a6.049,6.049,0,0,1-4.626,2.135,7.116,7.116,0,0,1-3.914-1.423,5.693,5.693,0,0,0-3.2-1.067,4.27,4.27,0,0,0-3.558,1.779L6.9,18.537A5.693,5.693,0,0,1,11.526,16.4a7.472,7.472,0,0,1,3.914,1.423,5.693,5.693,0,0,0,3.2,1.067A4.27,4.27,0,0,0,22.2,17.114Z" transform="translate(17.652 -9.627)" fill="#0b4093"/>
        <path id="パス_1894" data-name="パス 1894" d="M21.963,24.776a4.626,4.626,0,0,1-4.981,4.27A4.626,4.626,0,0,1,12,24.776a3.914,3.914,0,0,1,2.491-3.558,3.2,3.2,0,0,1-1.423-2.847,3.914,3.914,0,0,1,4.27-3.558,3.914,3.914,0,0,1,4.27,3.558,3.2,3.2,0,0,1-1.423,2.847,3.914,3.914,0,0,1,1.779,3.558Zm-2.135,0a2.491,2.491,0,0,0-2.847-2.491,2.491,2.491,0,0,0-2.847,2.491,2.847,2.847,0,0,0,5.693,0Zm-.712-6.4a2.135,2.135,0,0,0-4.27,0,1.779,1.779,0,0,0,2.135,2.135,1.779,1.779,0,0,0,2.135-2.135Z" transform="translate(30.698 -13.73)" fill="#0b4093"/>
        <path id="パス_1895" data-name="パス 1895" d="M16.734,27.676h2.135c2.847,0,4.27-2.135,4.626-4.981a4.27,4.27,0,0,1-3.558,1.423,4.626,4.626,0,0,1-4.626-4.626,4.626,4.626,0,0,1,4.981-4.981c1.423,0,5.337.712,5.337,6.4S23.139,29.1,18.869,29.1H16.734Zm3.558-4.981a2.847,2.847,0,1,0-2.847-2.847,2.491,2.491,0,0,0,2.491,3.2Z" transform="translate(39.13 -14.496)" fill="#0b4093"/>
      </g>
      <g id="グループ_330" data-name="グループ 330" transform="translate(83.652 39.202)">
        <line id="線_19" data-name="線 19" fill="none" stroke="#25458b" stroke-linecap="round" stroke-linejoin="round" stroke-width="0.53"/>
        <line id="線_20" data-name="線 20" y2="270.423" transform="translate(0 3.558)" fill="none" stroke="#25458b" stroke-linecap="round" stroke-linejoin="round" stroke-width="1.886" stroke-dasharray="0 1.06"/>
        <line id="線_21" data-name="線 21" transform="translate(0 276.116)" fill="none" stroke="#25458b" stroke-linecap="round" stroke-linejoin="round" stroke-width="0.53"/>
      </g>
      <g id="グループ_331" data-name="グループ 331" transform="translate(202.14 39.202)">
        <line id="線_22" data-name="線 22" fill="none" stroke="#25458b" stroke-linecap="round" stroke-linejoin="round" stroke-width="0.53"/>
        <line id="線_23" data-name="線 23" y2="270.423" transform="translate(0 3.558)" fill="none" stroke="#25458b" stroke-linecap="round" stroke-linejoin="round" stroke-width="1.886" stroke-dasharray="0 1.06"/>
        <line id="線_24" data-name="線 24" transform="translate(0 276.116)" fill="none" stroke="#25458b" stroke-linecap="round" stroke-linejoin="round" stroke-width="0.53"/>
      </g>
      <g id="グループ_332" data-name="グループ 332" transform="translate(322.408 39.202)">
        <line id="線_25" data-name="線 25" fill="none" stroke="#25458b" stroke-linecap="round" stroke-linejoin="round" stroke-width="0.53"/>
        <line id="線_26" data-name="線 26" y2="270.423" transform="translate(0 3.558)" fill="none" stroke="#25458b" stroke-linecap="round" stroke-linejoin="round" stroke-width="1.886" stroke-dasharray="0 1.06"/>
        <line id="線_27" data-name="線 27" transform="translate(0 276.116)" fill="none" stroke="#25458b" stroke-linecap="round" stroke-linejoin="round" stroke-width="0.53"/>
      </g>
      <g id="グループ_333" data-name="グループ 333" transform="translate(439.828 39.202)">
        <line id="線_28" data-name="線 28" fill="none" stroke="#25458b" stroke-linecap="round" stroke-linejoin="round" stroke-width="0.53"/>
        <line id="線_29" data-name="線 29" y2="270.423" transform="translate(0 3.558)" fill="none" stroke="#25458b" stroke-linecap="round" stroke-linejoin="round" stroke-width="1.886" stroke-dasharray="0 1.06"/>
        <line id="線_30" data-name="線 30" transform="translate(0 276.116)" fill="none" stroke="#25458b" stroke-linecap="round" stroke-linejoin="round" stroke-width="0.53"/>
      </g>
      <g id="グループ_334" data-name="グループ 334" transform="translate(558.316 39.202)">
        <line id="線_31" data-name="線 31" fill="none" stroke="#25458b" stroke-linecap="round" stroke-linejoin="round" stroke-width="0.53"/>
        <line id="線_32" data-name="線 32" y2="270.423" transform="translate(0 3.558)" fill="none" stroke="#25458b" stroke-linecap="round" stroke-linejoin="round" stroke-width="1.886" stroke-dasharray="0 1.06"/>
        <line id="線_33" data-name="線 33" transform="translate(0 276.116)" fill="none" stroke="#25458b" stroke-linecap="round" stroke-linejoin="round" stroke-width="0.53"/>
      </g>
      <g id="グループ_335" data-name="グループ 335" transform="translate(675.737 39.202)">
        <line id="線_34" data-name="線 34" fill="none" stroke="#25458b" stroke-linecap="round" stroke-linejoin="round" stroke-width="0.53"/>
        <line id="線_35" data-name="線 35" y2="270.423" transform="translate(0 3.558)" fill="none" stroke="#25458b" stroke-linecap="round" stroke-linejoin="round" stroke-width="1.886" stroke-dasharray="0 1.06"/>
        <line id="線_36" data-name="線 36" transform="translate(0 276.116)" fill="none" stroke="#25458b" stroke-linecap="round" stroke-linejoin="round" stroke-width="0.53"/>
      </g>
      <g id="グループ_338" data-name="グループ 338" transform="translate(476.122 1.129)">
        <rect id="長方形_313" data-name="長方形 313" width="20.282" height="20.175" fill="#0b4093" opacity="0.65"/>
        <rect id="長方形_314" data-name="長方形 314" width="20.282" height="20.175" transform="translate(108.525)" fill="#25458b" opacity="0.2"/>
        <g id="グループ_336" data-name="グループ 336" transform="translate(25.975 2.035)">
          <path id="パス_1896" data-name="パス 1896" d="M145.37,10.351h-2.847a.712.712,0,0,1,0-1.423h2.847V8.572c0-.356.356-.712,1.067-.712s1.067.356,1.067.712v.712h2.847V8.572c0-.356.356-.712,1.068-.712s1.067.356,1.067.712v.712h2.847a.712.712,0,0,1,0,1.423h-2.847V12.13h4.27a.712.712,0,0,1,0,1.423H141.812a.712.712,0,0,1,0-1.423h4.27Zm-3.2,6.4a.89.89,0,1,1,0-1.779l3.914-1.423h.356a.712.712,0,0,1,.712.712v.712l-4.27,1.779Zm2.847-9.607c-1.779,0-2.135-.712-2.135-1.779V2.879c0-1.067.712-1.779,2.135-1.779h7.828c1.779,0,2.135.712,2.135,1.779V5.726c0,1.423-1.067,1.779-2.135,1.779Zm2.847-3.914V2.523H145.37c-.356,0-.712,0-.712.356v.712Zm0,2.491V5.014h-3.2v.712c0,.356.356.356.712.356ZM150,11.775V10.351h-2.847v1.423Zm-.356-8.54H153.2V2.879c0-.356,0-.356-.712-.356H149.64Zm0,1.423V5.726h2.847c.356,0,.712,0,.712-.356V5.014Zm1.067,10.319L150,14.265a.712.712,0,0,1,1.067-.712h.712l3.558,1.423a1.067,1.067,0,0,1,.712,1.067.712.712,0,0,1-.712.712h-.356Z" transform="translate(-141.1 -0.289)" fill="#0b4093"/>
          <path id="パス_1897" data-name="パス 1897" d="M152.661,1.683a.712.712,0,0,1,1.067-.712c.356,0,1.068.356,1.068.712V3.818h1.423l.712-1.067h.712a.712.712,0,0,1,1.068.712h0L158,4.53h1.779c1.779,0,2.135.356,2.135,1.779V7.376a.712.712,0,0,1-1.068.712c-.356,0-1.067-.356-1.067-.712V5.6c0-.356,0-.712-.712-.712H148.747c-.356,0-.712,0-.712.712V6.665a.712.712,0,0,1-1.067.712c-.356,0-1.068-.356-1.068-.712V5.6c0-1.423.712-1.779,2.135-1.779h1.423l-.712-.712h-.356a1.139,1.139,0,0,1,1.423-1.779h.712l.712,1.067V3.462h1.779Zm-1.067,8.54c-1.779,0-2.135-.356-2.135-1.423V7.376c0-1.067.356-1.423,2.135-1.423h4.27c1.779,0,2.135.356,2.135,1.423V8.444c0,1.067-.356,1.423-2.135,1.423H154.44v1.067h2.847c1.779,0,2.135.712,2.135,1.779v2.135a1.681,1.681,0,0,1-1.779,1.779h-.712a.712.712,0,0,1,0-1.423H158V13.425c0-.356,0-.356-.712-.356H154.44v3.914c0,.356-.356.712-1.067.712s-1.068-.356-1.068-.712v-4.27h-2.491c-.356,0-.712,0-.712.356v2.847c0,.356-.356.712-1.068.712s-1.067-.356-1.067-.712V13.069c0-1.067.712-1.779,2.135-1.779h2.847V10.223ZM155.507,8.8c.356,0,.712,0,.712-.356V7.732c0-.356,0-.356-.712-.356h-3.914c-.356,0-.712,0-.712.356v.712c0,.356,0,.356.712.356Z" transform="translate(-128.821 -0.872)" fill="#0b4093"/>
          <path id="パス_1898" data-name="パス 1898" d="M155.17,8.088V5.6h-2.135a.712.712,0,0,1-.712-1.067.712.712,0,0,1,.712-.712h2.491V1.683a1.068,1.068,0,0,1,1.068-.712.712.712,0,0,1,1.068.712h0V3.462h3.914a.755.755,0,0,1,1.067,1.067,1.067,1.067,0,0,1-.712,1.067h-4.27V7.376h2.491V6.309a1.068,1.068,0,0,1,1.779,0h-.356A4.626,4.626,0,0,1,165.489,12a5.337,5.337,0,0,1-4.626,5.337h-.356a1.1,1.1,0,0,1-.356-2.135c2.135-.712,3.2-1.779,3.2-3.558A3.2,3.2,0,0,0,160.863,8.8a13.166,13.166,0,0,1-3.558,5.337V15.2h0a1.067,1.067,0,0,1-1.067.712.712.712,0,0,1-.712-.712h0l-2.135.712a2.491,2.491,0,0,1-2.491-2.491,6.4,6.4,0,0,1,4.27-5.337Zm-1.423,6.049,1.779-.712a28.472,28.472,0,0,1-.356-3.558,4.27,4.27,0,0,0-2.135,3.2c0,.712,0,1.067.712,1.067ZM159.084,8.8h-2.135V11.29A11.742,11.742,0,0,0,159.084,8.8Z" transform="translate(-116.03 -0.872)" fill="#0b4093"/>
          <path id="パス_1899" data-name="パス 1899" d="M158.493,8.644V7.576l.712-.712a.712.712,0,0,1,.712.712h0l-1.423,2.847-1.067.712a1.067,1.067,0,0,1-1.067-.712A12.1,12.1,0,0,1,156,7.22a23.839,23.839,0,0,1,.712-5.337,1.067,1.067,0,0,1,1.068-.712.712.712,0,0,1,1.067.712h0a24.914,24.914,0,0,0-.712,4.626,12.829,12.829,0,0,0,0,1.423Zm4.626-6.4a1.1,1.1,0,0,1,2.135-.356,43.773,43.773,0,0,1,.356,5.693,9.963,9.963,0,0,1-3.914,8.54h-.712a1.067,1.067,0,0,1-1.067-1.067v-.356a8.184,8.184,0,0,0,3.2-6.761,45.9,45.9,0,0,0-.356-5.693Z" transform="translate(-102.985 -0.36)" fill="#0b4093"/>
        </g>
        <g id="グループ_337" data-name="グループ 337" transform="translate(134.322 2.035)">
          <path id="パス_1900" data-name="パス 1900" d="M175.642,10.351h-2.491a.712.712,0,1,1,0-1.423H176V8.572c0-.356.356-.712,1.067-.712s1.068.356,1.068.712v.712h2.847V8.572c0-.356.356-.712,1.067-.712s1.068.356,1.068.712v.712h2.847a.712.712,0,0,1,0,1.423h-2.847V12.13h4.27a.712.712,0,0,1,0,1.423H172.44a.712.712,0,0,1,0-1.423h4.27Zm-3.2,6.4a.89.89,0,0,1,0-1.779l3.914-1.423h.356a.712.712,0,0,1,.712.712v.712l-4.27,1.779Zm2.847-9.607c-1.779,0-2.135-.712-2.135-1.779V2.879c0-1.067.712-1.779,2.135-1.779h7.828c1.779,0,2.135.712,2.135,1.779V5.726c0,1.423-1.068,1.779-2.135,1.779Zm2.847-3.914V2.523h-2.491c-.356,0-.712,0-.712.356v.712Zm0,2.491V5.014h-3.2v.712c0,.356.356.356.712.356Zm2.135,6.049V10.351h-2.847v1.423Zm-.356-8.54h3.558V2.879c0-.356,0-.356-.712-.356h-2.847Zm0,1.423V5.726h2.847c.356,0,.712,0,.712-.356V5.014Zm1.067,10.319-.712-.712a.712.712,0,0,1,1.068-.712h.712l3.558,1.423a1.067,1.067,0,0,1,.712,1.067.712.712,0,0,1-.712.712h-.356Z" transform="translate(-171.55 -0.289)" fill="#0b4093"/>
          <path id="パス_1901" data-name="パス 1901" d="M183.161,1.683a.712.712,0,0,1,1.067-.712c.356,0,1.068.356,1.068.712V3.818h1.423l.712-1.067h.712a.712.712,0,0,1,1.068.712h0L188.5,4.53h1.779c1.779,0,2.135.356,2.135,1.779V7.376a.712.712,0,0,1-1.068.712c-.356,0-1.067-.356-1.067-.712V5.6c0-.356,0-.712-.712-.712H179.247c-.356,0-.712,0-.712.712V6.665a.712.712,0,0,1-1.067.712c-.356,0-1.068-.356-1.068-.712V5.6c0-1.423.712-1.779,2.135-1.779h1.423l-.712-.712h-.356a.712.712,0,0,1,1.067-.712h.712l.712,1.067V4.53h1.779Zm-1.067,8.54c-1.779,0-2.135-.356-2.135-1.423V7.376c0-1.067.356-1.423,2.135-1.423h4.27c1.779,0,2.135.356,2.135,1.423V8.444c0,1.067-.356,1.423-2.135,1.423H184.94v1.067h2.847c1.779,0,2.135.712,2.135,1.779v2.135a1.681,1.681,0,0,1-1.779,1.779h-1.067a.712.712,0,0,1,0-1.423h1.067V13.425c0-.356,0-.356-.712-.356h-2.847v3.914c0,.356-.356.712-1.067.712s-1.068-.356-1.068-.712v-4.27h-2.491c-.356,0-.712,0-.712.356v2.847c0,.356-.356.712-1.068.712s-1.067-.356-1.067-.712V13.069c0-1.067.712-1.779,2.135-1.779h2.847V10.223ZM186.007,8.8c.356,0,.712,0,.712-.356V7.732c0-.356,0-.356-.712-.356h-3.914c-.356,0-.712,0-.712.356v.712c0,.356,0,.356.712.356Z" transform="translate(-159.143 -0.872)" fill="#0b4093"/>
          <path id="パス_1902" data-name="パス 1902" d="M185.486,1.783a1.068,1.068,0,0,1,1.068-.712.712.712,0,0,1,1.068.712h0V3.918H189.4a1.068,1.068,0,0,1,0,1.779h-2.491a32.732,32.732,0,0,1-2.847,6.049l-1.068.712a1.067,1.067,0,0,1-1.067-1.067h0a27.393,27.393,0,0,0,2.491-4.981h-1.779a1.067,1.067,0,0,1-1.068-1.067.712.712,0,0,1,.712-1.067h2.491Zm3.2,14.944c-2.135,0-3.558-1.067-3.558-2.491s1.067-2.491,3.558-2.491h1.068a12.809,12.809,0,0,1-.356-1.779,9.6,9.6,0,0,1,0-1.779.712.712,0,0,1,1.067-.712,1.067,1.067,0,0,1,1.068.712h0a10.3,10.3,0,0,0,0,1.423,13.52,13.52,0,0,0,.356,2.491l3.2,1.423a1.01,1.01,0,0,1-.712,1.779h-.356l-2.135-1.067c0,1.779-1.423,2.491-3.2,2.491Zm1.423-2.847h-1.067c-1.423,0-1.779.356-1.779.712s.356.712,1.423.712a1.3,1.3,0,0,0,1.423-1.423ZM195.448,5.7a1.1,1.1,0,0,1-.356,2.135h-.356l-2.491-1.067a.712.712,0,0,1-.712-.712A1.067,1.067,0,0,1,192.6,4.985h.356Z" transform="translate(-146.167 -0.616)" fill="#0b4093"/>
          <path id="パス_1903" data-name="パス 1903" d="M187.072,2.167a1.067,1.067,0,0,1,2.135,0v.712c0,2.491-.356,5.337-.356,7.828s.712,3.2,2.135,3.2a6.049,6.049,0,0,0,4.982-2.847h.712a1.067,1.067,0,0,1,1.067,1.067v.712a8.184,8.184,0,0,1-6.4,3.558c-2.491,0-3.914-1.423-3.914-4.981S186.716,4.658,187.072,2.167Z" transform="translate(-132.097 -0.289)" fill="#0b4093"/>
        </g>
      </g>
      <g id="グループ_339" data-name="グループ 339" transform="translate(2.876)">
        <path id="パス_1904" data-name="パス 1904" d="M11.122,5.737H6.141l-3.2,3.914H1.871A1.067,1.067,0,0,1,.8,8.584a1.423,1.423,0,0,1,.356-1.067,23.84,23.84,0,0,0,4.626-6.4A1.423,1.423,0,0,1,7.208.044,1.067,1.067,0,0,1,8.632,1.112h0L7.564,3.247h12.81a1.067,1.067,0,1,1,0,2.135H13.257V7.872h5.337a1.067,1.067,0,0,1,0,2.135H13.613v3.2h7.472a1.067,1.067,0,1,1,0,2.135H13.613v5.693a1.067,1.067,0,0,1-1.423,1.067,1.067,1.067,0,0,1-1.423-1.067V16.056h-8.9a1.067,1.067,0,0,1,0-2.135H4.718V11.075c0-1.779.712-2.491,3.2-2.491h3.2ZM8.276,10.719c-.712,0-1.067.356-1.067.712v2.491h3.914v-3.2Z" transform="translate(-0.799 0.017)" fill="#0b4093"/>
        <path id="パス_1905" data-name="パス 1905" d="M11.014,9.751,9.947,11.531H8.523A1.423,1.423,0,0,1,7.1,10.463v-.356a28.11,28.11,0,0,0,4.981-8.9A1.067,1.067,0,0,1,13.5.144a1.423,1.423,0,0,1,1.423,1.067h0a31.312,31.312,0,0,1-2.135,5.337,1.067,1.067,0,0,1,1.067,1.067V20.782c0,.712-.712,1.067-1.423,1.067s-1.423-.356-1.423-1.067ZM27.382,6.193h0a1.136,1.136,0,0,1,1.067,1.067,1.067,1.067,0,0,1-.712,1.067l-6.4.712a23.84,23.84,0,0,0,1.423,5.337c1.423,3.2,2.491,3.914,3.2,3.914s.712-.356.712-1.779a1.067,1.067,0,0,1,1.067-1.067,1.423,1.423,0,0,1,1.423,1.067h0c-.356,3.2-1.423,4.27-3.2,4.27S22.044,19,20.265,14.733a25.975,25.975,0,0,1-1.423-6.049H15.284a1.1,1.1,0,0,1-.356-2.135h3.2q-.124-2.667,0-5.337c0-.712.712-1.067,1.423-1.067S20.977.5,20.977,1.212a52.3,52.3,0,0,0,0,5.693ZM25.6,2.991V4.058a1.423,1.423,0,0,1-1.423,1.423h-.712L22.4,3.347V2.635a1.067,1.067,0,0,1,1.067-1.067h.712Z" transform="translate(15.322 0.273)" fill="#0b4093"/>
        <path id="パス_1906" data-name="パス 1906" d="M17.818,8.74c-1.779,0-2.847-.712-2.847-2.491v-3.2c0-1.779,1.067-2.491,2.847-2.491h4.27c1.779,0,2.847.712,2.847,2.491V5.893c0,1.779-1.067,2.491-2.847,2.491H19.953v2.135h2.491c1.779,0,2.491.712,2.491,2.135a23.484,23.484,0,0,1,0,5.337c-.356,2.135-1.423,2.847-3.2,2.847H19.953a1.245,1.245,0,0,1,0-2.491h1.423a.765.765,0,0,0,.712-.712,16.367,16.367,0,0,0,.712-3.914c0-.356,0-.356-.712-.356H19.953a14.233,14.233,0,0,1-3.914,7.116H14.971A1.067,1.067,0,0,1,13.9,19.414a1.423,1.423,0,0,1,.356-1.067,14.233,14.233,0,0,0,3.914-9.963ZM22.088,6.6c.712,0,.712-.356.712-.712V3.4a.765.765,0,0,0-.712-.712H18.529c-.712,0-.712.356-.712.712V5.537a.765.765,0,0,0,.712.712Zm5.337-3.914a1.423,1.423,0,0,1,2.491,0v12.1a1.423,1.423,0,0,1-2.491,0Zm7.116,15.656c0,1.779-.712,2.847-2.847,2.847H29.916a1.067,1.067,0,0,1,0-2.135h1.423c.356,0,.712,0,.712-.712V1.267C32.05.556,32.762.2,33.474.2S34.9.556,34.9,1.267Z" transform="translate(32.714 0.573)" fill="#0b4093"/>
        <path id="パス_1907" data-name="パス 1907" d="M26.9,12.754H23.347a1.067,1.067,0,0,1,0-2.135H26.9V9.907a1.067,1.067,0,1,1,2.135,0v.712H32.6V9.907a1.067,1.067,0,1,1,2.135,0v.712h3.914a1.067,1.067,0,0,1,0,2.135h-3.2v1.779h5.337a1.067,1.067,0,0,1,0,2.135H21.567a1.067,1.067,0,0,1,0-2.135H26.9Zm-4.27,8.184a1.082,1.082,0,0,1-.356-2.135l4.981-2.135h.712a1.1,1.1,0,0,1,.356,2.135l-5.337,2.135ZM26.193,8.484c-2.135,0-2.847-.712-2.847-2.135V2.435c0-1.423.712-2.135,2.847-2.135h9.963C38.291.3,39,1.012,39,2.435V6.349c0,1.779-1.067,2.135-2.847,2.135ZM29.751,3.5V2.079h-3.2c-.712,0-.712,0-.712.712V3.5Zm0,3.2V5.281H25.837V6.349c0,.712.356.712.712.712Zm3.2,7.828V12.754H29.4v1.779ZM32.242,3.5h4.626V2.791c0-.356,0-.712-.712-.712H32.6Zm0,1.779V6.7H35.8c.712,0,.712,0,.712-.712V5.281ZM33.665,18.8a1.423,1.423,0,0,1-.712-1.067,1.067,1.067,0,0,1,1.067-1.067h.712l4.626,1.779a1.067,1.067,0,1,1,0,2.135H39Z" transform="translate(49.602 0.829)" fill="#0b4093"/>
        <path id="パス_1908" data-name="パス 1908" d="M35.9,1.067a1.067,1.067,0,1,1,2.135,0V3.558h2.135V2.135l1.067-1.067L42.3.356a1.067,1.067,0,0,1,1.067,1.067v.712L42.3,3.558h2.135c2.135,0,2.847.712,2.847,2.491V7.116a1.067,1.067,0,0,1-1.423,1.067c-.712,0-1.423-.356-1.423-1.067V6.049c0-.356,0-.712-.712-.712H30.558c-.712,0-.712.356-.712.712V7.472A1.067,1.067,0,0,1,28.423,8.54C27.712,8.54,27,8.184,27,7.472V6.049c0-1.779.712-2.491,2.847-2.491h1.779l-.712-1.423V1.423A1.067,1.067,0,0,1,31.981.356h.712l1.067,1.067V3.558H35.9ZM34.116,12.1c-2.135,0-2.847-.712-2.847-2.135V8.54c0-1.423.712-1.779,2.847-1.779H39.81c2.135,0,2.847.712,2.847,1.779V9.963c0,1.423-.712,2.135-2.847,2.135H38.03v1.423h3.914c2.135,0,2.847.712,2.847,2.491V18.5c0,1.423-1.067,2.135-2.491,2.135H41.233a1.1,1.1,0,0,1,.356-2.135h1.067V16.012a.765.765,0,0,0-.712-.712H38.386v5.693a1.067,1.067,0,1,1-2.135,0V15.3h-3.2c-.712,0-.712,0-.712.712V19.57a1.067,1.067,0,1,1-2.135,0V15.656c0-1.423.712-2.491,2.847-2.491h3.558V12.1Zm5.337-1.779c.712,0,.712,0,.712-.712V8.9c0-.356,0-.712-.712-.712H34.472c-.712,0-.712,0-.712.712v.712c0,.356,0,.712.712.712Z" transform="translate(66.23 0.062)" fill="#0b4093"/>
        <path id="パス_1909" data-name="パス 1909" d="M39.862,9.807A1.067,1.067,0,0,1,38.794,8.74h0L34.88,11.23h-.712A1.1,1.1,0,0,1,33.813,9.1l3.2-2.135L36.3,5.893V5.181a1.067,1.067,0,0,1,1.067-1.067h.712l1.423,1.067L40.929,3.4H36.3a1.067,1.067,0,0,1-.712-1.067A1.067,1.067,0,0,1,36.3,1.267h4.27c1.779,0,2.491.712,2.491,1.779a3.2,3.2,0,0,1-.712,1.779l-2.847,3.2h8.9a1.067,1.067,0,0,1,0,2.135H47.334v2.491H51.96a1.067,1.067,0,0,1,0,2.135H47.69v3.558c0,.712.356.712,1.779.712s2.135,0,2.135-1.423a1.283,1.283,0,0,1,2.491-.356,4.27,4.27,0,0,1-.356,2.135c-.712,1.067-2.135,1.423-4.27,1.423s-3.914-.712-3.914-2.135v-4.27H42.708a9.963,9.963,0,0,1-6.4,6.761h-.356a1.1,1.1,0,0,1-.356-2.135,8.184,8.184,0,0,0,4.27-4.626H35.948a1.067,1.067,0,0,1,0-2.135h4.626V9.807Zm5.693,0H43.064V12.3h2.491Zm5.693-6.761h.712a1.067,1.067,0,0,1,1.067,1.067v.712L51.248,6.6l3.2,2.135a1.423,1.423,0,0,1,.712,1.067,1.067,1.067,0,0,1-1.067,1.067h-.712a22.772,22.772,0,0,1-9.251-9.607h0A1.067,1.067,0,0,1,45.2.2l1.067.712,1.067,1.779,1.423-1.423h.712a1.067,1.067,0,0,1,1.067,1.067V1.979L48.757,3.758l1.067,1.067Z" transform="translate(81.834 0.573)" fill="#0b4093"/>
        <path id="パス_1910" data-name="パス 1910" d="M49.19,14.177a9.607,9.607,0,0,1-7.828,6.761h-.356A1.082,1.082,0,0,1,40.65,18.8,7.472,7.472,0,0,0,46.7,14.177c-2.135,0-3.2-.712-3.2-2.491v-8.9C43.5,1.012,44.208.3,46.7.3h7.116c2.491,0,3.2,1.067,3.2,2.491v8.54c0,1.779-.712,2.491-3.2,2.491v3.914c0,.356.356.712,1.779.712s2.491-.356,2.491-1.423a1.067,1.067,0,1,1,2.135,0h0c-.356,2.491-1.423,3.2-4.981,3.2s-4.27-.712-4.27-2.135V14.177Zm5.693-11.03c0-.356-.356-.712-1.067-.712h-6.4c-.712,0-1.067.356-1.067.712V4.214h8.54Zm-8.9,4.981h8.9V6.349h-8.9Zm7.472,3.914c.712,0,1.067,0,1.067-.712V9.907h-8.54v1.067c0,.356.356.712,1.067.712Z" transform="translate(98.836 0.829)" fill="#0b4093"/>
        <path id="パス_1911" data-name="パス 1911" d="M57.43,4.27v.712h0L56.007,7.116l.712.712,1.423-1.779,1.067-.712A1.067,1.067,0,0,1,60.277,6.4v.712l-3.558,4.27H58.5a1.067,1.067,0,0,1,1.067-.712h1.067l1.423,2.491v.712a1.067,1.067,0,0,1-1.067,1.067l-1.067-.712H57.786v1.779h8.54a1.067,1.067,0,0,1,0,2.135H58.142v2.847c0,.712-.712,1.067-1.423,1.067S55.3,21.705,55.3,20.993V17.079H47.467a1.067,1.067,0,0,1,0-2.135h8.184V13.521H53.161a1.067,1.067,0,0,1,0-2.135h1.067l1.779-1.779L53.516,7.472a1.068,1.068,0,0,1-.356-.712,1.067,1.067,0,0,1,1.067-1.067h.712l1.067-1.779H47.823a1.067,1.067,0,0,1,0-2.135h7.828V1.067C55.651.356,56.363,0,57.075,0S58.5.356,58.5,1.067V2.135h7.828a1.067,1.067,0,0,1,0,2.135Zm-9.607,9.607a1.1,1.1,0,0,1-.356-2.135l3.914-2.135h.712a1.067,1.067,0,0,1,1.067,1.067v.712l-4.27,2.491Zm.356-7.828a1.067,1.067,0,0,1,1.067-1.067h.712L51.737,6.4v.712A1.067,1.067,0,0,1,50.67,8.184H49.6L48.535,6.761Zm14.233,3.2a1.067,1.067,0,0,1-1.067-1.067V7.116l2.135-2.135h.712a1.067,1.067,0,0,1,1.067,1.067v.712L62.768,9.251Zm-.356,1.423a1.067,1.067,0,0,1,1.067-1.067h.712l2.847,2.135V12.81a1.067,1.067,0,0,1-1.067,1.067H64.9l-2.135-2.491Z" transform="translate(115.859 0.062)" fill="#0b4093"/>
      </g>
      <g id="グループ_340" data-name="グループ 340" transform="translate(1.458 356.949)">
        <path id="パス_1912" data-name="パス 1912" d="M2.179,101.823v4.27h4.27V100.4H7.872v5.693h3.914v-4.27H13.21v5.693H7.516v6.049h4.626V108.94h1.423v6.049H.4V108.94H1.823v4.626H6.449v-6.049H1.112v-5.693Z" transform="translate(-0.4 -100.044)" fill="#252525"/>
        <path id="パス_1913" data-name="パス 1913" d="M17.765,110.051,15.63,111.83l3.2,1.067-.712,1.067a9.251,9.251,0,0,1-6.049-4.982H10.649v3.2h3.2v1.067l-6.049.712V112.9H9.581V109.34H7.091a11.742,11.742,0,0,1-1.423,4.981L4.6,113.609a14.589,14.589,0,0,0,1.423-6.761V100.8h12.1v3.558H15.63v1.423h2.491v1.067H15.63v1.779h3.2V109.7H17.054ZM9.937,104H7.447v4.27h2.847v-1.779H7.8v-1.067H9.937Zm6.761-2.491H7.447v1.423h9.607ZM14.207,104H11.361v1.423h3.2Zm0,2.491H11.361v1.779h3.2ZM13.14,109.34l1.423,1.779,1.779-1.779Z" transform="translate(10.344 -99.021)" fill="#252525"/>
        <path id="パス_1914" data-name="パス 1914" d="M12.135,101.3v2.135H10V101.3Zm0,7.116v2.135H10v-2.135Z" transform="translate(24.159 -97.742)" fill="#252525"/>
        <path id="パス_1915" data-name="パス 1915" d="M14.191,103.191l4.626,2.847a21.349,21.349,0,0,0,2.491-5.337H22.73a27.4,27.4,0,0,1-2.847,5.693l3.558,3.2-1.067,1.067-3.2-3.2a17.435,17.435,0,0,1-6.761,5.337L11.7,111.73a15.656,15.656,0,0,0,6.761-4.982l-4.626-3.2Z" transform="translate(28.508 -99.277)" fill="#252525"/>
        <path id="パス_1916" data-name="パス 1916" d="M16.823,114.533l-.712-1.423c3.914-.712,4.981-2.135,5.337-6.049H15.4v-1.423H27.854v1.423H22.872a6.4,6.4,0,0,1-6.049,7.472Zm8.184-12.454V103.5H16.823v-1.423Zm1.423-1.423a13.164,13.164,0,0,1,1.067,3.2H26.43a12.809,12.809,0,0,0-1.067-3.2Zm2.135-.356a13.522,13.522,0,0,1,1.067,3.2H28.565a12.81,12.81,0,0,0-.712-3.2Z" transform="translate(37.973 -100.3)" fill="#252525"/>
        <path id="パス_1917" data-name="パス 1917" d="M26.216,112.075H24.793v-5.693l-4.981,2.491L19.1,107.8a18.147,18.147,0,0,0,8.9-6.4l1.067.712-3.2,3.2Z" transform="translate(47.438 -97.486)" fill="#252525"/>
        <path id="パス_1918" data-name="パス 1918" d="M22.6,112.7a9.607,9.607,0,0,0,4.626-7.828h-4.27v-1.423h4.27a26.685,26.685,0,0,0,0-2.847h1.423v2.847H34.7v2.491a26.331,26.331,0,0,1-.712,6.049A2.491,2.491,0,0,1,31.5,113.41H29v-1.423H31.14c1.067,0,1.423-.356,1.423-1.067a30.245,30.245,0,0,0,.356-4.982v-1.423h-4.27a11.386,11.386,0,0,1-5.337,8.9Z" transform="translate(56.392 -99.533)" fill="#252525"/>
        <path id="パス_1919" data-name="パス 1919" d="M30.314,104.714a10.675,10.675,0,0,1-2.847,8.54L26.4,112.186a9.251,9.251,0,0,0,2.491-7.472V100.8h1.423Zm3.914,6.761c1.779-.712,3.914-1.067,4.626-6.049l1.423.712a7.472,7.472,0,0,1-7.472,7.116V100.8h1.423Z" transform="translate(66.113 -99.021)" fill="#252525"/>
        <path id="パス_1920" data-name="パス 1920" d="M38.628,105.937H43.61v1.423H38.628c-.356,4.626-3.2,6.049-6.4,6.761l-.712-1.423c4.626-1.067,5.337-2.847,5.693-5.337H30.8v-1.423h6.4v-2.491H31.867v-1.423A30.957,30.957,0,0,0,41.83,100.6l.712,1.068-3.914,1.067Z" transform="translate(77.369 -99.533)" fill="#252525"/>
        <path id="パス_1921" data-name="パス 1921" d="M40.293,108.916h4.626v1.067H34.6v-1.067h4.626v-6.049H35.312V101.8h9.251v1.067h-4.27Z" transform="translate(87.09 -96.463)" fill="#252525"/>
        <path id="パス_1922" data-name="パス 1922" d="M39.167,105.97a13.521,13.521,0,0,0-1.067-3.914h1.067a15.656,15.656,0,0,1,1.423,3.914Zm0,4.27A8.54,8.54,0,0,0,47,101.7h1.423a9.963,9.963,0,0,1-8.184,9.251Zm3.558-4.981a16.724,16.724,0,0,0-1.067-3.558h1.067a20.993,20.993,0,0,1,1.067,3.558Z" transform="translate(96.044 -96.719)" fill="#252525"/>
        <path id="パス_1923" data-name="パス 1923" d="M42.212,111.675a11.03,11.03,0,0,0,9.251-9.607H46.126a13.166,13.166,0,0,1-3.914,4.27L41.5,105.27A11.386,11.386,0,0,0,45.414,101h7.828a12.454,12.454,0,0,1-10.319,12.1Z" transform="translate(104.742 -98.509)" fill="#252525"/>
        <path id="パス_1924" data-name="パス 1924" d="M56.075,100.9a16.368,16.368,0,0,1-2.847,6.4l4.981,4.626L57.142,113l-4.981-4.626A18.858,18.858,0,0,1,46.112,113L45.4,111.93a16.012,16.012,0,0,0,5.693-4.27,15.656,15.656,0,0,0,3.2-5.337H46.112V100.9Z" transform="translate(114.719 -98.765)" fill="#252525"/>
        <path id="パス_1925" data-name="パス 1925" d="M49.2,105.526a9.963,9.963,0,0,0,3.914-4.626h7.828A12.81,12.81,0,0,1,50.623,113l-.712-1.423a12.81,12.81,0,0,0,6.761-3.558l-4.982-3.2-1.779,1.423Zm4.981-3.2L52.758,104.1l4.981,3.2a11.03,11.03,0,0,0,1.779-4.981Z" transform="translate(124.44 -98.765)" fill="#252525"/>
        <path id="パス_1926" data-name="パス 1926" d="M57.37,108.584,53.1,106.8l.712-1.067,4.27,1.779Zm-3.558,4.27A10.319,10.319,0,0,0,64.13,104.67l1.067.712a11.742,11.742,0,0,1-11.03,8.9Zm4.981-7.828-4.626-1.779.712-1.067,4.626,1.779Zm3.914-4.27A12.809,12.809,0,0,1,64.13,103.6l-1.067.712a12.454,12.454,0,0,0-1.423-2.847Zm2.491,0a12.808,12.808,0,0,1,1.423,2.847H65.554a13.166,13.166,0,0,0-1.423-3.2Z" transform="translate(134.417 -100.044)" fill="#252525"/>
        <path id="パス_1927" data-name="パス 1927" d="M57.3,104.614v-1.423h7.472V100.7H66.2v2.491h3.558v1.423H66.2v7.116c0,1.423-.712,1.779-2.135,1.779H61.926v-1.423h2.135c.712,0,.712-.356.712-.712v-5.337a20.282,20.282,0,0,1-6.761,6.049l-.712-1.067a22.06,22.06,0,0,0,7.472-6.761Z" transform="translate(145.162 -99.277)" fill="#252525"/>
        <path id="パス_1928" data-name="パス 1928" d="M75.689,102.991h-6.4v1.067h5.337v5.693H70a14.232,14.232,0,0,0,5.693,3.558l-.712,1.067a16.724,16.724,0,0,1-6.049-4.27v4.626H67.861v-4.626a15.3,15.3,0,0,1-6.049,4.27L61.1,113.31a14.944,14.944,0,0,0,5.693-3.558h-4.27v-5.693h5.337v-1.067h-6.4v-1.067h6.4V100.5h1.067v1.423h6.4Zm-11.742,2.135v1.423h3.914v-1.423Zm0,2.135v1.423h3.914v-1.423Zm9.607-2.135h-4.27v1.423h4.27Zm0,2.135h-4.27v1.423h4.27Z" transform="translate(154.883 -99.788)" fill="#252525"/>
        <path id="パス_1929" data-name="パス 1929" d="M65.6,113.31a10.318,10.318,0,0,0,3.2-3.2l1.067.712a13.166,13.166,0,0,1-3.558,3.914Zm14.233-10.319H65.6v-1.067H72V100.5h1.423v1.423h6.4Zm-1.423,6.4H73.428v4.27A1.3,1.3,0,0,1,72,115.089H69.87v-1.423H72c.356,0,.356,0,.356-.356v-3.558H67.379V104.77H78.41Zm-1.067-3.914H68.8v2.847h8.54Zm-.712,4.27a11.386,11.386,0,0,0,3.558,3.2l-.712,1.067a11.741,11.741,0,0,1-3.914-3.558Z" transform="translate(166.395 -99.788)" fill="#252525"/>
        <path id="パス_1930" data-name="パス 1930" d="M75.537,103.9v1.067H73.758v1.779h2.491v1.067H73.758v4.27h2.491v1.067L70.2,114.221v-1.067h2.847v-4.626H70.2v-1.067h2.847v-2.135H71.267v-.712l-.712.712v-1.067A8.9,8.9,0,0,0,73.4,100.7h1.423a7.473,7.473,0,0,0,2.491,2.847l-.712,1.067a8.539,8.539,0,0,1-2.135-2.491,12.811,12.811,0,0,1-2.135,2.847Zm-4.626,7.828a13.164,13.164,0,0,0-.356-2.847h1.067a16.727,16.727,0,0,1,.356,2.847Zm3.558-.356a17.791,17.791,0,0,0,.356-2.847h1.067a17.077,17.077,0,0,1-.356,2.847Zm6.049,1.779-4.626,1.067v-1.067h1.067V100.7h6.761v6.761H80.163a9.249,9.249,0,0,0,.712,2.135l2.135-2.135.712,1.067-2.491,2.135a10.674,10.674,0,0,0,2.847,2.847l-.712,1.067a9.963,9.963,0,0,1-4.626-7.116H77.672V112.8l2.491-.712ZM82.3,101.412h-4.27v1.779H82.3Zm0,2.847h-4.27v1.779H82.3Z" transform="translate(178.162 -99.277)" fill="#252525"/>
        <path id="パス_1931" data-name="パス 1931" d="M82.784,100.5v1.423h6.049v1.067H77.091v4.982a13.521,13.521,0,0,1-1.423,6.761L74.6,113.665a10.675,10.675,0,0,0,1.423-5.693v-6.049h5.693V100.5Zm1.067,3.2v6.049h4.626v1.067H83.851v2.135h5.337v1.067h-12.1v-1.067h5.337v-2.135H77.8v-1.067h4.626V103.7ZM81.361,109.4l-1.423-2.135a7.828,7.828,0,0,1-1.423,2.135l-1.067-.712a8.9,8.9,0,0,0,2.135-4.981h1.067v1.779a8.54,8.54,0,0,0,1.779,2.491Zm7.116,0L86.342,106.9a7.472,7.472,0,0,1-1.423,2.135l-1.067-.712a10.32,10.32,0,0,0,2.135-4.626h1.067v1.779a8.54,8.54,0,0,0,2.491,2.491Z" transform="translate(189.418 -99.788)" fill="#252525"/>
        <path id="パス_1932" data-name="パス 1932" d="M79.812,111.675a11.03,11.03,0,0,0,9.251-9.607H83.726a13.165,13.165,0,0,1-3.914,4.27L79.1,105.27A11.386,11.386,0,0,0,83.014,101h7.828a12.454,12.454,0,0,1-10.319,12.1Z" transform="translate(200.93 -98.509)" fill="#252525"/>
        <path id="パス_1933" data-name="パス 1933" d="M84.723,109.5H83.3v-8.184h1.423Zm7.828-2.135c0,4.981-4.27,6.049-8.184,6.049v-1.423c4.27-.356,7.116-.712,7.116-4.626V100.6h1.423Z" transform="translate(211.675 -99.533)" fill="#252525"/>
        <path id="パス_1934" data-name="パス 1934" d="M99.41,109.64v1.423H86.6V109.64Zm-1.067-8.54v1.423H88.023V101.1Z" transform="translate(220.117 -98.253)" fill="#252525"/>
        <path id="パス_1935" data-name="パス 1935" d="M91.867,105.97a13.522,13.522,0,0,0-1.067-3.914h1.067a15.657,15.657,0,0,1,1.423,3.914Zm0,4.27A8.54,8.54,0,0,0,99.7,101.7h1.423a9.963,9.963,0,0,1-8.184,9.251Zm3.558-4.981a16.723,16.723,0,0,0-1.068-3.558h1.068a20.994,20.994,0,0,1,1.067,3.558Z" transform="translate(230.861 -96.719)" fill="#252525"/>
        <path id="パス_1936" data-name="パス 1936" d="M95.112,111.675a11.03,11.03,0,0,0,9.251-9.607H99.026a13.166,13.166,0,0,1-3.914,4.27L94.4,105.27A11.386,11.386,0,0,0,98.314,101h7.828a12.454,12.454,0,0,1-10.319,12.1Z" transform="translate(240.071 -98.509)" fill="#252525"/>
        <path id="パス_1937" data-name="パス 1937" d="M104.323,114.533l-.712-1.423c3.914-.712,4.982-2.135,5.337-6.049H102.9v-1.423h12.454v1.423h-4.982a6.4,6.4,0,0,1-6.049,7.472Zm8.184-12.454V103.5h-8.184v-1.423Zm1.423-1.423a13.165,13.165,0,0,1,1.067,3.2H113.93a12.807,12.807,0,0,0-1.067-3.2Zm2.135-.356a13.52,13.52,0,0,1,1.067,3.2h-1.067a12.808,12.808,0,0,0-.712-3.2Z" transform="translate(261.815 -100.3)" fill="#252525"/>
        <path id="パス_1938" data-name="パス 1938" d="M118.03,102.3v1.423H107V102.3Z" transform="translate(272.304 -95.184)" fill="#252525"/>
        <path id="パス_1939" data-name="パス 1939" d="M110.3,105.526a9.963,9.963,0,0,0,3.914-4.626h7.828A12.81,12.81,0,0,1,111.723,113l-.712-1.423a12.809,12.809,0,0,0,6.761-3.558l-4.982-3.2-1.779,1.423Zm4.982-3.2-1.423,1.779,4.981,3.2a11.03,11.03,0,0,0,1.779-4.981Z" transform="translate(280.746 -98.765)" fill="#252525"/>
        <path id="パス_1940" data-name="パス 1940" d="M113.8,106.193a11.03,11.03,0,0,0,4.626-5.693h1.423a13.166,13.166,0,0,1-4.982,6.4Zm7.116,8.54v-1.423h3.2a17.791,17.791,0,0,0,.712-5.693h-3.914a7.828,7.828,0,0,1-5.693,7.472l-.712-1.067a6.761,6.761,0,0,0,5.337-6.4h-3.2v-1.067h9.607a22.059,22.059,0,0,1-.712,7.828,1.779,1.779,0,0,1-2.135,1.067Zm3.2-14.233a13.165,13.165,0,0,0,4.626,5.693l-.712,1.068a16.368,16.368,0,0,1-4.982-6.4Z" transform="translate(289.7 -99.788)" fill="#252525"/>
        <path id="パス_1941" data-name="パス 1941" d="M123.237,109.751l-1.423-2.491v7.472h-1.067v-7.472a15.3,15.3,0,0,1-2.135,4.27l-.712-1.423a14.588,14.588,0,0,0,2.491-5.337h-2.135V103.7h2.491v-2.847h1.067V103.7h2.135v1.067h-2.135v.712a9.962,9.962,0,0,0,2.135,3.2Zm2.491-2.847a11.386,11.386,0,0,1-2.135,7.828l-1.067-1.067a10.319,10.319,0,0,0,2.135-6.761v-5.337l6.761-1.067.712,1.067-6.049,1.067v2.847h6.4v1.067h-2.135v8.184H128.93v-8.184h-3.2Z" transform="translate(300.188 -99.788)" fill="#252525"/>
        <path id="パス_1942" data-name="パス 1942" d="M125.179,101.3v2.135H123.4V101.3Zm0,7.116v2.135H123.4v-2.135Z" transform="translate(314.259 -97.742)" fill="#252525"/>
        <path id="パス_1943" data-name="パス 1943" d="M135.419,100.9a16.368,16.368,0,0,1-2.847,6.4l5.337,4.626L136.842,113l-4.981-4.626A18.858,18.858,0,0,1,125.812,113l-.712-1.067a16.011,16.011,0,0,0,5.693-4.27,15.656,15.656,0,0,0,3.2-5.337h-8.184V100.9Z" transform="translate(318.607 -98.765)" fill="#252525"/>
        <path id="パス_1944" data-name="パス 1944" d="M131.7,105.27l2.847,2.491a14.944,14.944,0,0,0,4.981-5.337H128.5V101h13.165a14.589,14.589,0,0,1-6.049,7.472l2.491,2.847-1.067,1.067a31.312,31.312,0,0,0-6.4-6.4Z" transform="translate(327.305 -98.509)" fill="#252525"/>
        <path id="パス_1945" data-name="パス 1945" d="M143.43,102.3v1.423H132.4V102.3Z" transform="translate(337.282 -95.184)" fill="#252525"/>
        <path id="パス_1946" data-name="パス 1946" d="M144.784,109.24a33.807,33.807,0,0,0-6.761-3.2v7.828H136.6V100.7h1.423v3.914a41.987,41.987,0,0,1,7.472,3.2Z" transform="translate(348.027 -99.277)" fill="#252525"/>
        <path id="パス_1947" data-name="パス 1947" d="M149.775,100.9a16.368,16.368,0,0,1-2.847,6.4l5.337,4.626L151.2,113l-5.337-4.626A18.859,18.859,0,0,1,139.812,113l-.712-1.067a16.012,16.012,0,0,0,5.693-4.27,15.657,15.657,0,0,0,3.2-5.337h-8.184V100.9Z" transform="translate(354.422 -98.765)" fill="#252525"/>
        <path id="パス_1948" data-name="パス 1948" d="M155.054,103.347v1.423h-4.981v3.2l5.693-.712v1.423l-5.693.712v4.626h-1.423V109.4l-6.049.712v-1.423l5.693-.712v-3.2h-4.981v-1.423h4.981V100.5h1.423v2.847Z" transform="translate(363.376 -99.788)" fill="#252525"/>
        <path id="パス_1949" data-name="パス 1949" d="M152.393,111.819H150.97l-1.068-6.761h-3.2v-1.067h3.2V101.5h1.423v2.491l6.049-1.067a7.116,7.116,0,0,1-3.2,5.693l-1.067-1.067a5.693,5.693,0,0,0,2.491-3.558l-4.626.712Z" transform="translate(373.865 -97.23)" fill="#252525"/>
        <path id="パス_1950" data-name="パス 1950" d="M154.826,104.2l-4.626-2.135.712-1.067a19.214,19.214,0,0,1,4.626,2.135Zm-4.27,6.761a11.386,11.386,0,0,0,11.03-9.251l1.068,1.067a13.165,13.165,0,0,1-12.1,9.963Z" transform="translate(382.818 -98.509)" fill="#252525"/>
        <path id="パス_1951" data-name="パス 1951" d="M159.081,110.007l-1.423-2.491v7.472h-1.068v-7.472a15.3,15.3,0,0,1-1.779,4.27l-.712-1.423a14.947,14.947,0,0,0,2.491-4.982h-2.135v-1.067h2.135v-2.847h1.068v2.847h1.779v1.067h-1.779v1.067l2.135,2.847Zm5.693,4.982h-1.068v-5.337a13.521,13.521,0,0,1-3.558,4.27l-.712-1.068a13.876,13.876,0,0,0,4.27-4.626h-3.558v-1.067h3.914V104.67h-1.779l-1.068,1.779-1.067-.712a8.9,8.9,0,0,0,1.779-4.626h1.423v1.779h1.423V100.4h1.067v2.491h3.2v1.067h-3.2v2.491H169.4v1.067h-3.2a12.1,12.1,0,0,0,3.558,4.626l-.712,1.423a12.1,12.1,0,0,1-3.2-4.626Z" transform="translate(392.795 -100.044)" fill="#252525"/>
        <path id="パス_1952" data-name="パス 1952" d="M167.04,112.954l-7.828,1.423v-1.423h3.558v-4.981h-3.2V106.9h7.472v1.067h-3.2V112.6l3.558-.712Zm1.067-12.454v2.491h4.981v1.067h-4.981a15.656,15.656,0,0,0,1.779,8.184l1.068.712c.356,0,.712-1.067.712-2.491l1.067.712c0,1.067-.356,3.558-1.779,3.558s-2.847-2.491-3.2-3.558a21.707,21.707,0,0,1-1.068-6.761H158.5v-1.067h8.184v-2.491Zm3.2,2.491-2.491-1.423.712-1.067,2.491,1.423Z" transform="translate(404.051 -99.788)" fill="#252525"/>
        <path id="パス_1953" data-name="パス 1953" d="M174.642,105.837h-8.184v-.712l-2.847,1.423-.712-1.067a13.521,13.521,0,0,0,6.761-4.982h1.423a14.945,14.945,0,0,0,6.761,4.982l-.712,1.067-2.491-1.423Zm-1.423,3.558a22.415,22.415,0,0,1,3.914,4.626l-1.067.712-.712-1.067-11.03.712v-1.423h2.135a26.332,26.332,0,0,0,1.779-3.914h-4.27v-1.067h13.521v1.067h-7.828l-2.135,3.914h7.116l-2.135-2.491Zm.712-4.626a15.657,15.657,0,0,1-3.558-3.2,14.232,14.232,0,0,1-3.558,3.2Z" transform="translate(415.307 -99.788)" fill="#252525"/>
        <path id="パス_1954" data-name="パス 1954" d="M170.8,114.733h-1.067v-6.049l-2.135,1.779V109.04a11.03,11.03,0,0,0,4.626-4.626h-4.27v-1.067h2.491v-2.491h1.068v2.491h2.135v1.067a10.676,10.676,0,0,1-1.779,2.847L174,109.4l-.712,1.067-1.779-1.779Zm6.761-14.233v4.27h3.2v1.423h-3.2v6.761h3.558v1.423h-8.54v-1.423H176.5v-6.761h-3.2V104.77h3.2V100.5Z" transform="translate(427.331 -99.788)" fill="#252525"/>
      </g>
    </g>
  </g>
</svg>
