<svg xmlns="http://www.w3.org/2000/svg" xmlns:xlink="http://www.w3.org/1999/xlink" width="578" height="294" viewBox="0 0 578 294">
  <defs>
    <clipPath id="clip-path">
      <rect id="長方形_441" data-name="長方形 441" width="578" height="294" transform="translate(270 3337)" fill="#fff" stroke="#707070" stroke-width="1"/>
    </clipPath>
  </defs>
  <g id="graph-round-ditection-smsc" transform="translate(-270 -3337)" clip-path="url(#clip-path)">
    <g id="アートワーク_59" data-name="アートワーク 59" transform="translate(559.177 3484.01)">
      <g id="アートワーク_59-2" data-name="アートワーク 59" transform="translate(-274.32 -147.01)">
        <g id="グループ_523" data-name="グループ 523" transform="translate(254.62)">
          <circle id="楕円形_15" data-name="楕円形 15" cx="147.01" cy="147.01" r="147.01" transform="translate(0 0)" fill="#0b4093" opacity="0.2"/>
          <path id="パス_2774" data-name="パス 2774" d="M199.8,147.912h0V0a147.01,147.01,0,0,0-11.274,293.118Z" transform="translate(-54.141)" fill="#0b4093" opacity="0.6"/>
        </g>
        <g id="グループ_524" data-name="グループ 524" transform="translate(8.852 36.076)">
          <path id="パス_2775" data-name="パス 2775" d="M6.059,25.748a29.312,29.312,0,0,1-1.353,8.117,1.353,1.353,0,0,1-1.353.9A1.353,1.353,0,0,1,2,33.414H2A43.742,43.742,0,0,0,3.8,17.631V11.768c0-1.8.9-2.706,3.157-2.706h1.8c2.255,0,3.157.9,3.157,2.706V31.61c0,2.255-.9,3.157-2.706,3.157h-1.8a1.353,1.353,0,0,1,0-2.706H8.764V25.748Zm2.706-7.215H6.51v4.51H8.764Zm0-6.313c0-.451,0-.9-.451-.9H6.96c-.451,0-.451,0-.451.9v3.608H8.764ZM19.136,9.514a1.353,1.353,0,0,1,1.8-1.353,1.353,1.353,0,0,1,1.8,1.353v2.706h5.411a1.353,1.353,0,1,1,0,2.706H13.725a1.353,1.353,0,1,1,0-2.706h5.411Zm5.411,9.019c2.255,0,3.157.9,3.157,3.157V28.9c0,1.8-.9,3.157-2.706,3.157H23.646a1.353,1.353,0,1,1,0-2.706h.9V22.14c0-.451,0-.9-.9-.9H22.293V33.865a1.44,1.44,0,0,1-1.353,1.353,1.353,1.353,0,0,1-1.353-1.353V21.238H17.332c-.451,0-.9,0-.9.9v8.568a1.44,1.44,0,0,1-1.353,1.353c-.451,0-1.8-.451-1.8-1.353V21.689c0-2.255.9-3.157,3.157-3.157h2.255V17.18a1.353,1.353,0,0,1,2.706,0v1.353Z" transform="translate(-2 -7.71)" fill="#25458b"/>
          <path id="パス_2776" data-name="パス 2776" d="M16.113,13.557A3.157,3.157,0,1,1,12.957,10.4,3.157,3.157,0,0,1,16.113,13.557Z" transform="translate(25.374 0.423)" fill="#25458b"/>
          <path id="パス_2777" data-name="パス 2777" d="M17.511,17.931a1.353,1.353,0,0,1,1.8,1.353h0A22.1,22.1,0,0,1,16.609,25.6l-1.8.9A1.353,1.353,0,0,1,13,25.146V24.7a21.645,21.645,0,0,0,2.255-5.862,1.353,1.353,0,0,1,2.255-.9Zm3.608-2.706a1.8,1.8,0,0,1,3.157,0V28.3c0,1.353.451,1.353,3.608,1.353s4.51-.451,4.96-2.706A1.353,1.353,0,0,1,34.2,25.6,1.353,1.353,0,0,1,36,26.95h0c-.9,4.059-2.706,5.411-8.117,5.411s-6.764-.9-6.764-3.608Zm9.019-4.059a1.8,1.8,0,0,1,.451,1.353,1.8,1.8,0,0,1-1.8,1.8H27.432l-2.706-3.157a1.8,1.8,0,0,1-.9-1.353,1.353,1.353,0,0,1,1.8-1.353h.9Zm9.921,10.372v.9a1.8,1.8,0,0,1-1.8,1.8l-1.353-.9-3.608-4.51V17.48a1.8,1.8,0,0,1,1.8-1.353h1.353Z" transform="translate(36.603 -6.657)" fill="#25458b"/>
          <path id="パス_2778" data-name="パス 2778" d="M22.657,16.829c0-2.255.9-3.608,4.059-3.608h3.608l1.353-3.608a1.8,1.8,0,0,1,1.8-1.353,1.353,1.353,0,0,1,1.8,1.353h0L33.93,12.319h5.862c2.706,0,4.059,1.353,4.059,3.608V29.906h1.8a1.353,1.353,0,1,1,0,2.706h-24.8a1.353,1.353,0,0,1,0-2.706h1.8Zm5.862-.451H27.166c-.9,0-1.353.451-1.353.9V30.808h2.706Zm5.862,0H31.676v14.43h2.706Zm5.862,14.43V17.28c0-.9,0-.9-1.353-.9h-1.8v14.43Z" transform="translate(59.416 -7.359)" fill="#25458b"/>
          <path id="パス_2779" data-name="パス 2779" d="M37.525,11.157a.9.9,0,0,1,.9,1.353,1.353,1.353,0,0,1-.9,1.353H35.27v.9h0a1.353,1.353,0,0,1-1.353,1.353l-1.353-.9-.9-1.8H30.31l-1.8,2.255H27.153A1.353,1.353,0,0,1,25.8,14.313h0a20.293,20.293,0,0,0,3.157-4.96l1.353-.9A1.353,1.353,0,0,1,31.662,9.8h0v.9Zm13.979,0a.9.9,0,0,1,.9,1.353.9.9,0,0,1-.9,1.353H47.446v.9h0a1.353,1.353,0,0,1-1.353,1.353l-1.353-.9-.9-1.8h-1.8l-.9.9h-.9a.9.9,0,0,1,.9.9v.9H48.8c2.706,0,3.608.9,3.608,2.706v1.8c0,.9-.9,1.353-1.8,1.353s-1.8-.451-1.8-1.353V19.274a.97.97,0,0,0-.9-.9H31.211c-.9,0-.9.451-.9.9v1.8c0,.9-.9,1.353-1.8,1.353s-1.8-.451-1.8-1.353V18.823c0-1.8.9-2.706,3.608-2.706h7.215a1.44,1.44,0,0,1,1.353-1.353h.451a1.353,1.353,0,0,1-.9-1.353V12.96L40.681,8.9,42.034,8a1.353,1.353,0,0,1,1.353,1.353h0v.9ZM34.819,26.94v1.8H45.191c2.255,0,3.157.9,3.157,2.255v1.353c0,1.8-.9,2.255-3.157,2.255H35.27c-2.706,0-3.608-.9-3.608-2.706V23.783c0-1.8.9-2.706,3.157-2.706h7.666c2.255,0,3.157.451,3.157,2.255v1.353a1.8,1.8,0,0,1-.9,1.8H34.819Zm7.666-2.255c.9,0,.9,0,.9-.451h0c0-.451,0-.451-.9-.451H35.721c-.9,0-.9,0-.9.9v.9ZM34.819,31v1.353c0,.451,0,.9.9.9H44.74c.9,0,.9,0,.9-.451v-.9c0-.451-.451-.451-.9-.451Z" transform="translate(81.526 -8)" fill="#25458b"/>
          <path id="パス_2780" data-name="パス 2780" d="M37.208,18.222l1.353-.9h.9l6.313,3.608a1.674,1.674,0,0,1-.9,3.157H43.521L38.11,20.476l-.9-.9V32.2a1.353,1.353,0,0,1-1.8,1.353A1.8,1.8,0,0,1,33.6,32.2V9.654a1.879,1.879,0,0,1,3.608,0Zm4.96-6.313a1.353,1.353,0,0,1,1.353-.9h.9l2.255,2.706v.9a1.353,1.353,0,0,1-1.353,1.353h-.9l-2.255-2.706Zm2.706-2.255a1.353,1.353,0,0,1,1.353-.9h.9l2.255,2.255v.9a1.353,1.353,0,0,1-1.353.9h-.9l-2.255-2.255Z" transform="translate(108.9 -6.948)" fill="#25458b"/>
          <path id="パス_2781" data-name="パス 2781" d="M43.162,15.723h0a1.8,1.8,0,0,1-1.8,1.353,1.353,1.353,0,0,1-1.353-.9l-1.8-3.608v-.9a1.353,1.353,0,0,1,1.8-1.353l1.353.9Zm11.725-5.411a1.353,1.353,0,0,1,1.8,1.353h0A26.155,26.155,0,0,1,44.515,27.9h-.9a1.4,1.4,0,0,1-.451-2.706A22.1,22.1,0,0,0,53.534,11.214a1.353,1.353,0,0,1,1.353-.9ZM48.574,14.37h0a1.353,1.353,0,0,1-1.8,1.353,1.353,1.353,0,0,1-1.353-.9l-1.8-3.608h0a1.353,1.353,0,0,1,1.8-1.353l1.353.9Z" transform="translate(125.042 -1.744)" fill="#25458b"/>
          <path id="パス_2782" data-name="パス 2782" d="M59.132,12.821c2.255,0,3.608.9,3.608,2.706a5.411,5.411,0,0,1-.451,1.353A28.861,28.861,0,0,1,49.211,34.016h-.9a1.96,1.96,0,0,1-.9-3.608A25.253,25.253,0,0,0,59.132,16.429H51.917l-4.96,5.411H45.6a1.8,1.8,0,0,1-1.8-1.353,1.8,1.8,0,0,1,.9-1.353,30.664,30.664,0,0,0,7.215-9.921,2.032,2.032,0,0,1,3.608.451h0L54.172,12.37Z" transform="translate(144.697 -6.959)" fill="#25458b"/>
          <path id="パス_2783" data-name="パス 2783" d="M10.117,32.732H5.608a1.353,1.353,0,1,1,0-2.706h4.51v-.9a1.44,1.44,0,0,1,1.353-1.353,1.44,1.44,0,0,1,1.353,1.353v.9h4.51v-.9a1.353,1.353,0,0,1,2.706,0v.9h5.411a1.353,1.353,0,1,1,0,2.706H20.94v2.255H27.7a1.353,1.353,0,1,1,0,2.706H3.353a1.353,1.353,0,1,1,0-2.706h6.764ZM4.706,43.555a1.372,1.372,0,0,1-.451-2.706l6.313-2.706h.9a1.4,1.4,0,0,1,.451,2.706L5.157,43.555Zm4.51-15.783c-2.706,0-3.608-.9-3.608-2.706v-4.96c0-1.8.9-2.706,3.608-2.706H21.842c2.706,0,3.608.9,3.608,2.706v4.51c0,2.255-1.353,2.706-3.608,2.706Zm4.51-6.313v-1.8H9.666c-.9,0-.9,0-.9.9v.9Zm0,4.059v-1.8H8.764v.9c0,.9.451.9.9.9Zm3.608,9.921V33.183h-4.51v2.255Zm-.9-13.979h6.313V20.106c0-.451,0-.9-.9-.9h-4.51Zm0,2.255v1.8h4.51c.9,0,.9,0,.9-.9V23.262Zm1.8,17.136a1.8,1.8,0,0,1-.9-1.353,1.353,1.353,0,0,1,1.353-1.353h.9L25.449,40.4a1.353,1.353,0,1,1,0,2.706h0Z" transform="translate(-2 24.989)" fill="#25458b"/>
          <path id="パス_2784" data-name="パス 2784" d="M19.674,18.353a1.353,1.353,0,0,1,2.706,0V21.51h2.706v-1.8l1.353-1.8,1.353-.9a1.353,1.353,0,0,1,1.353,1.353v.9l-1.353,1.8H30.5c2.706,0,3.608.9,3.608,3.157v1.8a1.353,1.353,0,0,1-1.8,1.353c-.9,0-1.8-.451-1.8-1.353V24.666c0-.451,0-.9-.9-.9H12.91c-.9,0-.9.451-.9.9v1.8a1.353,1.353,0,0,1-1.8,1.353c-.9,0-1.8-.451-1.8-1.353v-1.8c0-2.255.9-3.157,3.608-3.157h2.255L12.91,20.157v-.9A1.353,1.353,0,0,1,14.262,17.9h.9l1.353,1.353V21.51h2.706Zm-1.8,13.979c-2.706,0-3.608-.9-3.608-2.706v-1.8c0-1.8.9-2.255,3.608-2.255h7.215c2.706,0,3.608.9,3.608,2.255v1.8c0,1.8-.9,2.706-3.608,2.706H22.83v1.8h4.96c2.706,0,3.608.9,3.608,3.157v3.157c0,1.8-1.353,2.706-3.157,2.706h-1.8a1.4,1.4,0,0,1,.451-2.706h1.353V37.744a.97.97,0,0,0-.9-.9H22.83v7.215a1.353,1.353,0,0,1-2.706,0V36.842H16.066c-.9,0-.9,0-.9.9v4.51a1.44,1.44,0,0,1-1.353,1.353,1.44,1.44,0,0,1-1.353-1.353v-4.96c0-1.8.9-3.157,3.608-3.157h4.51v-1.8Zm6.764-2.255c.9,0,.9,0,.9-.9v-.9c0-.451,0-.9-.9-.9H18.321c-.9,0-.9,0-.9.9v.9c0,.451,0,.9.9.9Z" transform="translate(20.461 23.586)" fill="#25458b"/>
          <path id="パス_2785" data-name="パス 2785" d="M22.368,29.125a1.353,1.353,0,0,1-1.353-1.353h0l-4.96,3.157h0a1.4,1.4,0,0,1-.451-2.706l4.059-2.706-1.353-1.353v-.9a1.353,1.353,0,0,1,1.353-1.353h.9l1.8,1.353,1.8-2.255H18.309a1.353,1.353,0,1,1,0-2.706h5.411c2.255,0,3.157.9,3.157,2.255a4.059,4.059,0,0,1-.9,2.255L22.368,26.87H34.093a1.353,1.353,0,0,1,0,2.706H32.74v3.157H38.6a1.353,1.353,0,0,1,0,2.706H32.74v4.51c0,.9.451.9,2.255.9s2.706,0,2.706-1.8a1.353,1.353,0,0,1,1.353-1.353,1.353,1.353,0,0,1,1.8,1.353,5.412,5.412,0,0,1-.451,2.706c-.9,1.353-2.706,1.8-5.411,1.8s-4.96-.9-4.96-2.706V34.987H26.426A12.627,12.627,0,0,1,18.76,43.1h-.451a1.4,1.4,0,0,1-.451-2.706,10.372,10.372,0,0,0,5.862-5.862H17.858a1.353,1.353,0,1,1,0-2.706h5.862V29.125Zm7.215,0H26.426v3.157h3.157Zm7.666-9.019H38.6a1.353,1.353,0,0,1,1.353,1.353v.9L37.7,24.615l4.059,2.706a1.8,1.8,0,0,1,.9,1.353,1.353,1.353,0,0,1-1.353,1.353h-.9A28.861,28.861,0,0,1,28.681,18.753h0A1.353,1.353,0,0,1,30.034,17.4l1.353.9,1.353,2.255,1.8-1.8h.9A1.353,1.353,0,0,1,36.8,20.106v.9l-2.255,2.255L35.9,24.615Z" transform="translate(42.569 24.989)" fill="#25458b"/>
          <path id="パス_2786" data-name="パス 2786" d="M33.025,34.536A12.176,12.176,0,0,1,23.1,43.1h-.451a1.353,1.353,0,0,1,0-2.706,9.47,9.47,0,0,0,7.666-5.862c-2.706,0-4.059-.9-4.059-3.157V20.557c0-2.255.9-3.157,4.059-3.157h9.019c3.157,0,4.059,1.353,4.059,3.157V31.379c0,2.255-.9,3.157-4.059,3.157V39.5c0,.451.451.9,2.255.9s3.157-.451,3.157-1.8a1.353,1.353,0,1,1,2.706,0h0c-.451,3.157-1.8,4.059-6.313,4.059s-5.411-.9-5.411-2.706V34.536Zm6.764-13.979c0-.451-.451-.9-1.353-.9H30.319c-.9,0-1.353.451-1.353.9V21.91H39.789ZM28.966,26.87H39.789V24.615H28.966Zm9.47,4.96c.9,0,1.353,0,1.353-.9V29.576H28.966v1.353c0,.9.451.9,1.353.9Z" transform="translate(65.733 24.989)" fill="#25458b"/>
          <path id="パス_2787" data-name="パス 2787" d="M42.23,23.213v.9h0l-1.8,2.706.9.9,1.8-2.255,1.353-.9a1.353,1.353,0,0,1,1.353,1.353v.9l-4.51,5.411h2.255a1.353,1.353,0,0,1,1.353-.9h1.353l1.8,3.157v.9a1.353,1.353,0,0,1-1.353,1.353l-1.353-.9H42.681v2.255H53.5a1.353,1.353,0,1,1,0,2.706H43.132v4.96c0,.9-.9,1.353-1.8,1.353s-1.8-.451-1.8-1.353V39.448H29.153a1.353,1.353,0,0,1,0-2.706H39.976v-1.8H36.819a1.353,1.353,0,0,1,0-2.706h.9l2.255-2.255-3.157-2.706a1.28,1.28,0,0,1,.9-2.255h.9l1.353-2.255H30.055a1.353,1.353,0,1,1,0-2.706h9.921v-1.8c0-.9.9-1.353,1.8-1.353s1.8.451,1.8,1.353v1.8H53.955a1.353,1.353,0,1,1,0,2.706ZM30.055,35.389a1.4,1.4,0,0,1-.451-2.706l4.96-2.706h.9a1.353,1.353,0,0,1,1.353,1.353v.9l-5.411,3.157Zm.451-9.921a1.353,1.353,0,0,1,1.353-1.353h.9l2.255,1.8v.9a1.353,1.353,0,0,1-1.353,1.353H32.31l-1.8-1.8Zm18.038,4.059a1.353,1.353,0,0,1-1.353-1.353v-.9L49.9,24.566h.9a1.353,1.353,0,0,1,1.353,1.353v.9l-3.157,3.157Zm-.451,1.8a1.353,1.353,0,0,1,1.353-1.353h.9l3.608,2.706v1.353A1.353,1.353,0,0,1,52.6,35.389h-.9l-3.157-2.706Z" transform="translate(88.545 23.235)" fill="#25458b"/>
        </g>
        <g id="グループ_525" data-name="グループ 525" transform="translate(292.5 120.278)">
          <path id="パス_2788" data-name="パス 2788" d="M70.762,38.976H67.155a.9.9,0,0,1,0-1.8h3.608v-.9c0-.451.451-.9,1.353-.9s1.353.451,1.353.9v.9h3.608v-.9c0-.451.451-.9,1.353-.9s1.353.451,1.353.9v.9h3.608a.9.9,0,0,1,0,1.8H79.781v1.8h5.411a.9.9,0,0,1,0,1.8H65.8a.9.9,0,0,1,0-1.8h5.411ZM66.7,47.093a1.127,1.127,0,1,1,0-2.255l4.96-1.8h.451a.9.9,0,0,1,.9.9v.9l-5.411,2.255Zm3.608-12.176c-2.255,0-2.706-.9-2.706-2.255V29.055c0-1.353.9-2.255,2.706-2.255h9.921c2.255,0,2.706.9,2.706,2.255v3.608c0,1.8-1.353,2.255-2.706,2.255Zm3.608-4.96V28.6H70.762c-.451,0-.9,0-.9.451v.9Zm0,3.157V31.76H69.86v.9c0,.451.451.451.9.451Zm2.706,7.666v-1.8H73.017v1.8Zm-.451-10.823h4.51v-.9c0-.451,0-.451-.9-.451H76.174Zm0,1.8v1.353h3.608c.451,0,.9,0,.9-.451v-.9Zm1.353,13.078-.9-.9a.9.9,0,0,1,1.353-.9h.9l4.509,1.8a1.353,1.353,0,0,1,.9,1.353.9.9,0,0,1-.9.9h-.451Z" transform="translate(-64.9 -26.223)" fill="#fff"/>
          <path id="パス_2789" data-name="パス 2789" d="M78.819,27.7a.9.9,0,0,1,1.353-.9c.451,0,1.353.451,1.353.9v2.706h1.8l.9-1.353h.9a.9.9,0,0,1,1.353.9h0l-.9,1.353h2.255c2.255,0,2.706.451,2.706,2.255v1.353a.9.9,0,0,1-1.353.9c-.451,0-1.353-.451-1.353-.9V32.66c0-.451,0-.9-.9-.9H73.408c-.451,0-.9,0-.9.9v1.353a.9.9,0,0,1-1.353.9c-.451,0-1.353-.451-1.353-.9V32.66c0-1.8.9-2.255,2.706-2.255h1.8l-.9-.9h-.451a.9.9,0,0,1,1.353-.9h.9l.9,1.353v1.353h2.255ZM77.466,38.523c-2.255,0-2.706-.451-2.706-1.8V35.366c0-1.353.451-1.8,2.706-1.8h5.411c2.255,0,2.706.451,2.706,1.8v1.353c0,1.353-.451,1.8-2.706,1.8h-1.8v1.353h3.608c2.255,0,2.706.9,2.706,2.255v2.706a2.13,2.13,0,0,1-2.255,2.255h-.9a.9.9,0,1,1,0-1.8h1.353v-1.8c0-.451,0-.451-.9-.451H81.074v5.411c0,.451-.451.9-1.353.9s-1.353-.451-1.353-.9V41.679H75.211c-.451,0-.9,0-.9.451v3.608c0,.451-.451.9-1.353.9s-1.353-.451-1.353-.9V41.679c0-1.353.9-2.255,2.706-2.255h3.608V38.072Zm4.96-1.8c.451,0,.9,0,.9-.451v-.9c0-.451,0-.451-.9-.451h-4.96c-.451,0-.9,0-.9.451v.9c0,.451,0,.451.9.451Z" transform="translate(-47.703 -26.672)" fill="#fff"/>
          <path id="パス_2790" data-name="パス 2790" d="M80.562,35.817V32.66H77.857a1.353,1.353,0,0,1,0-2.255h3.157V27.7a1.353,1.353,0,0,1,1.353-.9.9.9,0,0,1,1.353.9h0v2.255h4.96a.957.957,0,1,1,1.353,1.353.9.9,0,0,1-.9,1.353H83.268v2.255h3.157v-.9a1.353,1.353,0,0,1,2.255,0h-.451a5.862,5.862,0,0,1,4.96,5.862,6.764,6.764,0,0,1-5.862,6.764h-.451a1.4,1.4,0,0,1-.451-2.706c2.706-.9,4.059-2.255,4.059-4.51a4.059,4.059,0,0,0-3.157-3.608,16.685,16.685,0,0,1-4.51,6.764v1.353h0a1.353,1.353,0,0,1-1.353.9.9.9,0,0,1-.9-.9h0l-2.706.9A3.157,3.157,0,0,1,74.7,41.679a8.117,8.117,0,0,1,5.862-5.862Zm-1.8,7.666,2.255-.9a36.083,36.083,0,0,1-.451-4.509,5.411,5.411,0,0,0-2.706,4.059c0,.9,0,.9.9.9Zm6.764-6.764H82.817v3.157A14.882,14.882,0,0,0,85.523,36.719Z" transform="translate(-30.507 -26.672)" fill="#fff"/>
          <path id="パス_2791" data-name="パス 2791" d="M83.16,36.468V35.115l.9-.9a.9.9,0,0,1,.9.9h0l-1.8,3.608-1.353.9a1.353,1.353,0,0,1-1.353-.9A15.333,15.333,0,0,1,80,34.664a30.216,30.216,0,0,1,.9-6.764,1.353,1.353,0,0,1,1.353-.9.9.9,0,0,1,1.353.9h0a31.564,31.564,0,0,0-.9,5.862,16.225,16.225,0,0,0,0,1.8Zm5.862-8.117a1.4,1.4,0,0,1,2.706-.451,55.457,55.457,0,0,1,.451,7.215,12.627,12.627,0,0,1-4.96,10.823h-.9a1.353,1.353,0,0,1-1.353-1.353v-.9a10.372,10.372,0,0,0,4.059-8.568,58.116,58.116,0,0,0-.449-7.2Z" transform="translate(-11.91 -25.97)" fill="#fff"/>
        </g>
        <g id="グループ_526" data-name="グループ 526" transform="translate(292.049 150.618)">
          <path id="パス_2792" data-name="パス 2792" d="M64.8,58.2V54.144L74.27,33.4h4.509L68.859,54.144h7.666V46.027h4.059v8.117h2.255V58.2H80.583v4.059H76.525V58.2Z" transform="translate(-64.8 -33.4)" fill="#fff"/>
          <path id="パス_2793" data-name="パス 2793" d="M69.422,53.843a7.215,7.215,0,0,1,3.608-6.313l-2.255-2.706a6.313,6.313,0,0,1-.9-3.157,8.117,8.117,0,0,1,2.255-5.862,8.568,8.568,0,0,1,11.725,0,8.117,8.117,0,0,1,2.255,5.862,6.313,6.313,0,0,1-.9,3.157L82.95,47.53a7.215,7.215,0,0,1,3.608,6.313,8.117,8.117,0,0,1-2.706,6.313,9.019,9.019,0,0,1-12.176,0A8.117,8.117,0,0,1,69.422,53.843Zm4.059,0A4.509,4.509,0,0,0,74.833,57a4.96,4.96,0,0,0,6.313,0,4.629,4.629,0,1,0-7.666-3.157Zm.451-12.176a3.608,3.608,0,0,0,1.353,3.157l2.706.9,3.157-.9a4.51,4.51,0,0,0,0-6.313l-2.706-.9-2.706.9a3.608,3.608,0,0,0-1.353,3.157Z" transform="translate(-48.678 -33.099)" fill="#fff"/>
          <path id="パス_2794" data-name="パス 2794" d="M73.7,43.059V39h4.059v4.059Z" transform="translate(-33.565 -13.747)" fill="#fff"/>
          <path id="パス_2795" data-name="パス 2795" d="M75.011,44.674V41.968a7.666,7.666,0,0,1,2.706-6.313,7.621,7.621,0,0,1,10.823,0,8.117,8.117,0,0,1,2.255,6.313V54.595a8.117,8.117,0,0,1-13.078,6.764,7.666,7.666,0,0,1-2.706-4.96h4.51a3.608,3.608,0,0,0,3.608,2.255q3.608,0,4.059-4.51V51.438l-5.411.9a5.862,5.862,0,0,1-4.509-1.8A8.117,8.117,0,0,1,75.011,44.674Zm4.059-2.255v2.255q0,4.51,4.059,4.51t4.059-4.51V42.419q0-4.509-4.059-4.509t-4.059,4.059Z" transform="translate(-29.014 -33.4)" fill="#fff"/>
          <path id="パス_2796" data-name="パス 2796" d="M86.815,40.509c0,3.157-1.353,4.96-3.608,4.96s-3.608-1.8-3.608-4.96S80.953,36,83.208,36,86.815,37.353,86.815,40.509Zm-5.411,0c0,1.8.451,3.157,1.8,3.157s1.8-.9,1.8-3.157-.451-2.706-1.8-2.706S81.4,38.706,81.4,40.509ZM92.678,36h.451l.9.9h0L83.208,52.685h-.451l-.9-.9h0Zm4.059,12.176c0,3.157-1.353,4.96-3.608,4.96s-3.608-1.8-3.608-4.96,1.353-4.51,3.608-4.51,3.157,1.8,3.157,4.96Zm-5.411,0c0,1.8.451,3.157,1.8,3.157s1.8-.9,1.8-3.157-.451-2.706-1.8-2.706-2.255,1.353-2.255,3.157Z" transform="translate(-12.859 -24.275)" fill="#fff"/>
        </g>
        <g id="グループ_527" data-name="グループ 527" transform="translate(427.334 107.2)">
          <path id="パス_2797" data-name="パス 2797" d="M101.113,36.176H97.506a.9.9,0,0,1,0-1.8h3.608v-.9c0-.451.451-.9,1.353-.9s1.353.451,1.353.9v.9h3.608v-.9c0-.451.451-.9,1.353-.9s1.353.451,1.353.9v.9h3.608a.9.9,0,0,1,0,1.8h-4.51v1.8h5.411a.9.9,0,0,1,0,1.8H95.7a.9.9,0,0,1,0-1.8h5.411Zm-4.059,8.117a1.127,1.127,0,0,1,0-2.255l4.96-1.8h.451a.9.9,0,0,1,.9.9v.9l-5.411,2.255Zm3.608-12.176c-2.255,0-2.706-.9-2.706-2.255V26.255c0-1.353.9-2.255,2.706-2.255h9.921c2.255,0,2.706.9,2.706,2.255v3.608c0,1.8-1.353,2.255-2.706,2.255Zm3.608-4.96V25.8h-3.157c-.451,0-.9,0-.9.451v.9Zm0,3.157V28.96h-4.059v.9c0,.451.451.451.9.451Zm2.706,7.666v-1.8h-3.608v1.8Zm-.451-10.823h4.509v-.9c0-.451,0-.451-.9-.451h-3.608Zm0,1.8v1.353h3.608c.451,0,.9,0,.9-.451v-.9Zm1.353,13.078-.9-.9a.9.9,0,0,1,1.353-.9h.9l4.51,1.8a1.353,1.353,0,0,1,.9,1.353.9.9,0,0,1-.9.9h-.451Z" transform="translate(-94.8 -22.972)" fill="#4565a7"/>
          <path id="パス_2798" data-name="パス 2798" d="M108.368,24.8a.9.9,0,0,1,1.353-.9c.451,0,1.353.451,1.353.9v2.706h1.8l.9-1.353h.9a.9.9,0,0,1,1.353.9h0l-.9,1.353h2.255c2.255,0,2.706.451,2.706,2.255v1.353a.9.9,0,0,1-1.353.9c-.451,0-1.353-.451-1.353-.9v-.9c0-.451,0-.9-.9-.9H103.408c-.451,0-.9,0-.9.9v1.353a.9.9,0,0,1-1.353.9c-.451,0-1.353-.451-1.353-.9V31.113c0-1.8.9-2.255,2.706-2.255h1.8l-.9-.9h-.451a1.353,1.353,0,0,1,1.353-.9h.9l.9,1.353V29.76h2.255Zm-1.353,10.823c-2.255,0-2.706-.451-2.706-1.8V32.466c0-1.353.451-1.8,2.706-1.8h5.411c2.255,0,2.706.451,2.706,1.8v1.353c0,1.353-.451,1.8-2.706,1.8h-1.8v1.353h3.608c2.255,0,2.706.9,2.706,2.255v2.706a2.13,2.13,0,0,1-2.255,2.255h-1.353a.9.9,0,0,1,0-1.8h1.353v-1.8c0-.451,0-.451-.9-.451h-3.608v5.411c0,.451-.451.9-1.353.9s-1.353-.451-1.353-.9V38.779h-2.255c-.451,0-.9,0-.9.451v3.608c0,.451-.451.9-1.353.9s-1.353-.451-1.353-.9V38.779c0-1.353.9-2.255,2.706-2.255h3.608V35.172Zm4.96-1.8c.451,0,.9,0,.9-.451v-.9c0-.451,0-.451-.9-.451h-4.96c-.451,0-.9,0-.9.451v.9c0,.451,0,.451.9.451Z" transform="translate(-77.252 -23.772)" fill="#4565a7"/>
          <path id="パス_2799" data-name="パス 2799" d="M110.46,24.9a1.353,1.353,0,0,1,1.353-.9.9.9,0,0,1,1.353.9h0v2.706h2.255a1.353,1.353,0,0,1,0,2.255h-4.059a41.485,41.485,0,0,1-3.608,7.666l-1.353.9a1.353,1.353,0,0,1-1.353-1.353v-.9a34.724,34.724,0,0,0,3.157-6.313h-2.255a1.353,1.353,0,0,1-1.353-1.353.9.9,0,0,1,.9-1.353h3.157Zm4.059,18.94c-2.706,0-4.51-1.353-4.51-3.157s1.353-3.157,4.51-3.157h1.353a16.239,16.239,0,0,1-.451-2.255,12.18,12.18,0,0,1,0-2.255.9.9,0,0,1,1.353-.9,1.353,1.353,0,0,1,1.353.9h0a13.086,13.086,0,0,0,0,1.8,17.133,17.133,0,0,0,.451,3.157l4.059,1.8a1.28,1.28,0,0,1-.9,2.255h-.9l-2.706-1.353c.451,2.255-1.8,3.157-3.608,3.157Zm1.8-3.608H114.97c-1.8,0-2.255.451-2.255.9s.451.9,1.8.9,1.353-.9,1.353-1.8Zm6.764-10.372a1.4,1.4,0,0,1-.451,2.706h-.451l-3.157-1.353a.9.9,0,0,1-.9-.9,1.353,1.353,0,0,1,1.353-1.353h.451Z" transform="translate(-60.856 -23.421)" fill="#4565a7"/>
          <path id="パス_2800" data-name="パス 2800" d="M109.7,25.353a1.353,1.353,0,0,1,2.706,0v.9c0,3.157-.451,6.764-.451,9.921s.9,4.059,2.706,4.059a7.666,7.666,0,0,0,6.313-3.608h.9a1.353,1.353,0,0,1,1.353,1.353v.9a10.372,10.372,0,0,1-8.117,4.51c-3.157,0-4.96-1.8-4.96-6.313S109.247,28.96,109.7,25.353Z" transform="translate(-42.958 -22.972)" fill="#4565a7"/>
        </g>
        <g id="グループ_528" data-name="グループ 528" transform="translate(430.942 137.991)">
          <path id="パス_2801" data-name="パス 2801" d="M96.5,46.032V30.7h15.332v4.059H100.109v6.313a7.215,7.215,0,0,1,4.51-1.8h3.157l2.255,1.353,1.8,2.706a16.687,16.687,0,0,1,.451,4.96,16.233,16.233,0,0,1-.451,4.51L110.481,55.5l-2.706,2.255-3.608.9a9.47,9.47,0,0,1-5.411-1.8A7.666,7.666,0,0,1,95.6,50.993h4.059a4.059,4.059,0,0,0,4.059,3.157q3.157,0,3.608-2.255a17.132,17.132,0,0,0,.451-4.059,8.568,8.568,0,0,0-.9-4.059,3.608,3.608,0,0,0-3.157-1.8,4.059,4.059,0,0,0-3.608,2.255Z" transform="translate(-95.6 -30.249)" fill="#4565a7"/>
          <path id="パス_2802" data-name="パス 2802" d="M104.359,59.912V35.11L100.3,38.266v-4.51l4.059-3.157h4.059V59.461Z" transform="translate(-79.105 -30.6)" fill="#4565a7"/>
          <path id="パス_2803" data-name="パス 2803" d="M103.4,40.259V36.2h4.059v4.059Z" transform="translate(-68.226 -10.947)" fill="#4565a7"/>
          <path id="パス_2804" data-name="パス 2804" d="M108.959,59.912V35.11L104.9,38.266v-4.51l4.059-3.157h4.059V59.461Z" transform="translate(-62.962 -30.6)" fill="#4565a7"/>
          <path id="パス_2805" data-name="パス 2805" d="M115.015,37.71c0,3.157-1.353,4.96-3.608,4.96s-3.608-1.8-3.608-4.96,1.353-4.51,3.608-4.51S115.015,34.553,115.015,37.71Zm-5.411,0c0,1.8.451,3.157,1.8,3.157s1.8-.9,1.8-3.157S112.761,35,111.408,35s-1.8.9-1.8,2.706Zm11.274-4.51h.451l.9.9h0L111.408,49.885h-.451l-.9-.9h0Zm4.059,12.176c0,3.157-1.353,4.96-3.608,4.96s-3.608-1.8-3.608-4.96,1.353-4.509,3.608-4.509,3.608,1.8,3.608,4.509Zm-5.411,0c0,1.8.451,3.157,1.8,3.157s1.8-.9,1.8-3.157-.451-2.706-1.8-2.706-1.8.9-1.8,3.157Z" transform="translate(-52.784 -21.475)" fill="#4565a7"/>
        </g>
        <path id="パス_2806" data-name="パス 2806" d="M142.009,118.283c0-2.706-.451-5.411-.451-6.764-.451-18.038-4.059-31.567-10.823-39.684s-22.548-22.1-27.959-23a9.019,9.019,0,0,0-7.666,1.353,9.47,9.47,0,0,0-3.157,7.666V60.11l-.9-2.706V31.7H78.876V57.855l-.9,2.706v-1.8a9.47,9.47,0,0,0-3.157-7.666,9.019,9.019,0,0,0-7.666-1.353c-4.96.9-19.391,12.176-27.959,23S29.271,94.382,28.369,112.42c0,1.353-.451,4.059-.451,6.764-1.353,18.94-1.353,28.41.9,32.017a6.764,6.764,0,0,0,4.96,2.706h1.353a40.586,40.586,0,0,0,21.195-7.666,20.293,20.293,0,0,0,5.411-9.47,15.784,15.784,0,0,1,2.255-4.96L67.6,128.2a26.155,26.155,0,0,0,5.862-6.764,13.979,13.979,0,0,0,.9-12.627c1.8-4.059,2.706-13.078,2.706-27.959a34.272,34.272,0,0,0,6.764-6.313A34.273,34.273,0,0,0,90.6,80.854c.451,14.881,1.353,23.9,2.706,27.959a13.979,13.979,0,0,0,.9,12.627,26.155,26.155,0,0,0,5.862,6.764l3.608,3.608a15.783,15.783,0,0,1,2.255,4.96,20.293,20.293,0,0,0,5.411,9.47,40.586,40.586,0,0,0,21.195,7.666h1.353a6.764,6.764,0,0,0,4.96-2.706C143.362,147.143,143.362,137.222,142.009,118.283Zm-73.956-4.96h2.255a8.568,8.568,0,0,1-1.353,4.96,20.743,20.743,0,0,1-4.96,4.96l-4.509,4.51a20.292,20.292,0,0,0-3.157,6.764l-1.8,4.059a10.823,10.823,0,0,1-9.47-1.353c-2.706-3.157-2.255-9.921-1.8-12.176l-5.862-.9c0,1.353-1.8,11.725,3.608,17.587a12.175,12.175,0,0,0,6.313,3.608,25.7,25.7,0,0,1-13.529,2.706c-1.353-3.157-.451-21.195,0-27.959s.451-5.411.451-7.215c.9-21.195,5.411-31.116,9.47-36.076S65.347,56.5,68.053,56.051a3.157,3.157,0,0,1,2.706.451,4.059,4.059,0,0,1,.9,3.157c0,.451,0,1.8,0,3.157v7.666L68.5,72.737h-.451A37.88,37.88,0,0,1,51.819,77.7h-4.51l4.51,3.157a22.548,22.548,0,0,0,12.176,3.608,20.293,20.293,0,0,0,2.255,12.627l2.706,4.509.9-4.96a50.5,50.5,0,0,1,2.255-8.117c-.451,13.529-1.8,17.136-2.255,18.038a3.157,3.157,0,0,1-2.255,1.353h-.451A9.921,9.921,0,0,1,57.23,105.2l-4.96,3.608A15.332,15.332,0,0,0,68.053,113.322Zm18.94-44.644-1.8-2.706-1.8,2.706A29.763,29.763,0,0,1,74.366,77.7h-.9a19.391,19.391,0,0,0-5.862,9.47,19.84,19.84,0,0,1,.451-4.96l.9-2.706H59.936a46,46,0,0,0,11.274-4.51h.451A27.057,27.057,0,0,0,82.934,58.306h0V35.759h4.509v22.1h0A27.057,27.057,0,0,0,98.718,74.54h.451a46,46,0,0,0,11.274,4.509h-9.019l.9,2.706a19.391,19.391,0,0,1,.451,4.96,19.391,19.391,0,0,0-5.862-8.568h-.9a29.762,29.762,0,0,1-9.019-9.47Zm49.154,78.014a25.7,25.7,0,0,1-13.529-2.706,12.176,12.176,0,0,0,6.313-3.608c5.411-5.862,3.608-16.234,3.608-17.587l-5.862.9c.451,2.255.9,9.47-1.8,12.176a10.823,10.823,0,0,1-9.47,1.353l-1.8-4.059a20.292,20.292,0,0,0-3.157-6.764l-4.51-4.51a20.743,20.743,0,0,1-4.96-4.96,8.568,8.568,0,0,1-1.353-4.96h2.255a15.332,15.332,0,0,0,16.234-4.96l-4.96-3.608a9.921,9.921,0,0,1-9.921,2.706h-.451a3.157,3.157,0,0,1-2.255-1.353c-.451-.9-1.8-4.51-2.255-18.038a50.058,50.058,0,0,1,2.255,8.117l.9,4.96,2.706-4.51a20.293,20.293,0,0,0,2.255-12.627A22.547,22.547,0,0,0,118.56,79.05l4.509-3.157h-5.411a37.879,37.879,0,0,1-16.234-4.96h-.451l-3.157-2.255V57.855a4.059,4.059,0,0,1,.9-3.157,3.157,3.157,0,0,1,2.706-.451c2.706.451,15.783,9.921,24.351,20.744s8.568,14.881,9.47,36.076c0,1.8.451,4.059.451,7.215S137.951,143.536,136.147,146.692Z" transform="translate(94.573 111.251)" fill="#0b4093"/>
        <path id="パス_2807" data-name="パス 2807" d="M94.119,87.718l10.372-3.608-4.51-12.627L89.158,75.091h-.451l11.274-3.608-4.51-12.627L84.2,62.465a18.94,18.94,0,0,0-5.411-4.96l-4.96-2.255a13.979,13.979,0,0,0,.9-5.411c0-4.96-2.255-9.019-5.411-9.47H66.611l-5.862.9V32.251H47.22v6.764h-.9V31.8H32.789V43.074l-4.059,4.059V34.055H10.242v23.9a20.744,20.744,0,0,0-5.411,5.411C-2.836,74.189.772,89.973,1.674,93.129a100.562,100.562,0,0,0,8.568,22.1V145.44H29.633v-4.96l4.96,4.509c13.979,12.176,27.508,16.685,37.88,16.685A25.253,25.253,0,0,0,84.2,158.968c10.823-5.862,16.234-21.195,15.783-43.742A98.307,98.307,0,0,0,94.119,87.718Zm2.255-8.568V80.5l-4.96,1.8V80.954Zm-4.51-13.529v1.353l-4.51,1.353V66.974ZM64.356,54.348a19.842,19.842,0,0,0-11.274,8.568,27.057,27.057,0,0,0-3.608,12.176H44.063a29.763,29.763,0,0,0-1.353-9.47,30.664,30.664,0,0,1,3.157-7.215A27.959,27.959,0,0,1,63.454,45.78,17.136,17.136,0,0,0,63,48.936a14.43,14.43,0,0,0,.9,4.51ZM44.965,44.427H52.18A34.272,34.272,0,0,0,41.358,55.249L39.1,58.857h0a15.783,15.783,0,0,0-7.215-4.51,17.136,17.136,0,0,1,13.078-9.921Zm24.351,8.568a9.921,9.921,0,0,1,0-7.215A9.921,9.921,0,0,1,69.317,52.995ZM54.886,38.113v1.8H53.533V38.564Zm-15.783,0h1.353v1.353H39.1Zm-23,2.706H23.32V54.348h-.9L15.653,55.7Zm0,99.209V124.7l7.215,9.47v4.96Zm64.937,13.529c-8.117,4.51-25.253,2.255-42.84-13.529a99.209,99.209,0,0,1-22.1-26.606h0a94.249,94.249,0,0,1-9.019-22.1c-.451-1.8-4.059-16.234,2.255-24.8a17.587,17.587,0,0,1,13.529-6.764,13.529,13.529,0,0,1,11.725,3.157A18.489,18.489,0,0,1,38.2,75.993a27.959,27.959,0,0,1-13.979,9.019,29.762,29.762,0,0,1-12.176,0,3.157,3.157,0,0,0-1.353,5.862,36.077,36.077,0,0,0,7.666.9l7.215-.9a33.371,33.371,0,0,0,16.234-9.921h2.255a90.191,90.191,0,0,0,4.059,13.078,52.31,52.31,0,0,0-7.666,20.293,3.157,3.157,0,0,0,2.706,3.157h.451a3.157,3.157,0,0,0,3.157-2.706,43.291,43.291,0,0,1,4.96-14.43,26.155,26.155,0,0,0,4.51,5.862,34.272,34.272,0,0,1,8.568,12.627,32.017,32.017,0,0,0-6.313,10.823,3.157,3.157,0,0,0,1.8,4.059h.9a3.157,3.157,0,0,0,2.706-1.8,23,23,0,0,1,2.706-4.96,41.937,41.937,0,0,1,.451,7.215,3.157,3.157,0,0,0,2.706,3.157h0a3.157,3.157,0,0,0,3.157-2.706,43.742,43.742,0,0,0-1.8-14.881h0a37.88,37.88,0,0,0-4.059-8.568,27.057,27.057,0,0,1,12.176,3.157H80.59a3.157,3.157,0,0,0,1.353-5.411A36.527,36.527,0,0,0,62.1,105.3l-2.255-2.255c-4.96-4.51-8.117-15.332-9.921-21.195h1.8a26.606,26.606,0,0,0,16.685,5.411h0a19.842,19.842,0,0,0,13.979-4.51A2.87,2.87,0,0,0,78.336,78.7,14.43,14.43,0,0,1,68.415,81.4h0a19.391,19.391,0,0,1-13.529-4.059,21.2,21.2,0,0,1,2.706-9.47,13.529,13.529,0,0,1,10.372-8.117h2.706l5.411,2.255A17.587,17.587,0,0,1,83.3,75.542v.9h.451a111.385,111.385,0,0,1,10.372,38.782C94.119,135.068,89.609,149.047,81.041,153.557Z" transform="translate(-0.037 111.602)" fill="#0b4093"/>
      </g>
    </g>
  </g>
</svg>
