<svg xmlns="http://www.w3.org/2000/svg" width="47.144" height="41.026" viewBox="0 0 47.144 41.026">
  <g id="icon-famiryplan" transform="translate(1.601)">
    <path id="パス_11457" data-name="パス 11457" d="M196.391,152.281a8.591,8.591,0,0,0,6.914-3.352,12.781,12.781,0,0,1-4.191-13.41l-2.724-.419a8.591,8.591,0,1,0,0,17.181Z" transform="translate(-189.401 -128.437)" fill="#fff"/>
    <path id="パス_11458" data-name="パス 11458" d="M199.115,144h-7.753a3.562,3.562,0,0,0-3.562,3.562v12.153h10.9V146.3a6.494,6.494,0,0,1,.419-2.3Z" transform="translate(-189.401 -118.689)" fill="#fff"/>
    <path id="パス_11459" data-name="パス 11459" d="M202.9,148.929a8.591,8.591,0,1,0,6.914-13.829l-2.724.419a12.781,12.781,0,0,1-4.191,13.41Z" transform="translate(-172.862 -128.437)" fill="#fff"/>
    <path id="パス_11460" data-name="パス 11460" d="M205.319,159.715h10.9V147.562A3.562,3.562,0,0,0,212.653,144H204.9a6.5,6.5,0,0,1,.419,2.3Z" transform="translate(-170.672 -118.689)" fill="#fff"/>
    <path id="パス_11461" data-name="パス 11461" d="M193.9,142.564a10.685,10.685,0,0,0,8.589,10.476h4.4A10.686,10.686,0,1,0,193.9,142.564Z" transform="translate(-182.72 -131.92)" fill="#fff"/>
    <path id="パス_11462" data-name="パス 11462" d="M198.4,143a4.4,4.4,0,0,0-4.4,4.4v13.41h21.162V147.4a4.4,4.4,0,0,0-4.4-4.4Z" transform="translate(-182.61 -119.784)" fill="#fff"/>
  </g>
</svg>
