<svg xmlns="http://www.w3.org/2000/svg" width="48.062" height="42.309" viewBox="0 0 48.062 42.309">
  <g id="icon-controlpanel-white" transform="translate(2.362 -5.268)">
    <g id="グループ_1859" data-name="グループ 1859" transform="translate(11.185 5.268)">
      <path id="パス_11442" data-name="パス 11442" d="M135.911,157.693h.557a.557.557,0,0,0,.557-.557V131.157a.557.557,0,0,0-.557-.557H114.757a.557.557,0,0,0-.557.557v25.979a.557.557,0,0,0,.557.557Zm-.742-25.979h.742v24.866h-4.825l3.9-4.268Zm-6.495,21.526,5.01-.928-3.9,4.082Zm-10.948,3.34h-2.6V131.713H133.87V151.2l-6.124,1.3h-.371a.557.557,0,0,0,0,.371l1.3,3.526Z" transform="translate(-114.2 -130.6)" fill="#fff"/>
      <path id="パス_11443" data-name="パス 11443" d="M125.114,133.912h.557a.371.371,0,0,0,0-.557l-1.856-1.856h-.557a.371.371,0,0,0,0,.557Z" transform="translate(-106.557 -129.83)" fill="#fff"/>
      <path id="パス_11444" data-name="パス 11444" d="M128.662,137.94v-2.969a.371.371,0,0,0-.371-.371h-11.32a.371.371,0,0,0-.371.371v2.969a.371.371,0,0,0,.371.371h11.32a.371.371,0,0,0,.371-.371Zm-.742-.371H117.342v-2.227H127.92Z" transform="translate(-112.146 -127.177)" fill="#fff"/>
      <path id="パス_11445" data-name="パス 11445" d="M116.6,138.357v.557h12.062V137.8H116.6Z" transform="translate(-112.146 -124.439)" fill="#fff"/>
      <path id="パス_11446" data-name="パス 11446" d="M116.6,139.357v.557h12.062V138.8H116.6Z" transform="translate(-112.146 -123.584)" fill="#fff"/>
      <path id="パス_11447" data-name="パス 11447" d="M128.662,139.9H116.6v.928h12.062Z" transform="translate(-112.146 -122.642)" fill="#fff"/>
    </g>
    <path id="パス_11453" data-name="パス 11453" d="M130.986,151.3H115.769c-1.67,0-2.969,2.227-2.969,3.9h21.155C133.955,153.527,132.656,151.3,130.986,151.3Z" transform="translate(-104.213 -107.62)" fill="#fff"/>
    <path id="パス_11454" data-name="パス 11454" d="M109.127,138.925a2.784,2.784,0,0,1,2.6-2.6h7.237V134.1h-7.237a4.825,4.825,0,0,0-4.825,4.825v20.969a4.825,4.825,0,0,0,4.825,4.825h33.031a4.825,4.825,0,0,0,4.825-4.825v-.742H109.127Z" transform="translate(-109.262 -122.338)" fill="#fff"/>
    <path id="パス_11455" data-name="パス 11455" d="M130.269,139.01v1.67H132.5v-1.856A4.825,4.825,0,0,0,127.671,134H127.3v2.227h.371A2.783,2.783,0,0,1,130.269,139.01Z" transform="translate(-91.806 -122.423)" fill="#fff"/>
    <path id="パス_11456" data-name="パス 11456" d="M135.179,138.3h-5.567a2.412,2.412,0,0,0-2.412,2.412v11.134a2.412,2.412,0,0,0,2.412,2.412h5.567a2.412,2.412,0,0,0,2.412-2.412V140.712A2.412,2.412,0,0,0,135.179,138.3ZM132.4,152.96a.41.41,0,1,1,0,.186Zm3.526-3.155h-7.237V139.97h7.237Z" transform="translate(-91.892 -118.744)" fill="#fff"/>
  </g>
</svg>
