<svg xmlns="http://www.w3.org/2000/svg" width="49.691" height="49.916" viewBox="0 0 49.691 49.916">
  <g id="icon-timer-white" transform="translate(3.309 -0.408)">
    <path id="パス_11124" data-name="パス 11124" d="M138.664,54.483a1.84,1.84,0,0,0,.92-2.99,3.7,3.7,0,0,0-4.6.23l-.69,1.15h1.84a.92.92,0,0,1,1.15-.69c.46,0,.92.23.92.69a1.052,1.052,0,0,1-1.15.92h-.92v1.38h1.84a.69.69,0,0,1,.46.69,1.052,1.052,0,0,1-1.15.92l-.92-.46v-.46h-1.84v.46a2.3,2.3,0,0,0,.92,1.15l2.07.46h1.84l.92-.69a1.84,1.84,0,0,0,.46-1.15,1.61,1.61,0,0,0-.46-1.38Zm-24.383.46a19.323,19.323,0,0,0,19.094,19.322V35.621a19.322,19.322,0,0,0-19.322,19.322Zm26.683,14.032,1.84,2.99,1.15-.69-1.84-2.99Zm3.22-30.364-1.15-.69-2.07,3.45,1.15.69Zm6.441,7.591-.69-1.15-3.22,1.84.69,1.15Zm-1.61,7.821v2.3h3.68v-2.53ZM133.374,30.33a10.283,10.283,0,1,0,0-.23Zm15.182,40.025a21.393,21.393,0,0,1-30.134,0,21.623,21.623,0,0,1,0-30.364,21.393,21.393,0,0,1,30.134,0A21.623,21.623,0,0,1,148.555,70.355Zm-1.61-7.131,3.45,1.84.69-1.15-3.45-2.07Zm0-10.581-.69-.92a2.99,2.99,0,0,0-2.07-.92,2.76,2.76,0,0,0-2.53,1.38,5.061,5.061,0,0,0-.46,2.3,5.751,5.751,0,0,0,.23,2.07l.69.92a2.99,2.99,0,0,0,2.07.92,2.76,2.76,0,0,0,2.53-1.38,5.061,5.061,0,0,0,.46-2.53,5.752,5.752,0,0,0-.46-2.07Zm-2.76,4.371c-.92,0-1.38-.69-1.38-2.3s.46-2.3,1.38-2.3,1.38.69,1.38,2.3-.69,2.07-1.61,2.07Z" transform="translate(-111.609 -29.692)" fill="#fff"/>
  </g>
</svg>
