<svg xmlns="http://www.w3.org/2000/svg" width="50.279" height="50.052" viewBox="0 0 50.279 50.052">
  <g id="icon-safety-white" transform="translate(3.152)">
    <path id="パス_11452" data-name="パス 11452" d="M67.331,149.44l6.835,7.276a24.252,24.252,0,0,0,3.307-12.126A12.567,12.567,0,0,0,65.126,131.8a12.788,12.788,0,0,0-8.819,3.307l-4.63,8.378a2.425,2.425,0,0,0,0,2.2,4.1,4.1,0,0,0,4.63,2.425,2.425,2.425,0,0,0,1.543-1.1l5.732-10.142a.74.74,0,1,1,1.323.661l-5.732,10.142a3.748,3.748,0,0,1-2.425,1.764H55.425a5.491,5.491,0,0,1-5.071-3.307,3.969,3.969,0,0,1,.22-3.307l1.323-2.2A13.008,13.008,0,0,0,39.331,131.8,12.347,12.347,0,0,0,27.2,144.589c0,8.378,4.63,14.551,9.26,20.284S49.032,178.983,51.9,181.85H53a5.071,5.071,0,0,0,3.528-1.323,3.969,3.969,0,0,0,1.323-2.646,1.984,1.984,0,0,0-.441-1.1h-.22l-9.04-9.7-.882-1.1a.661.661,0,0,1,0-.882h.882l9.921,10.8h.22l1.1.441h0a4.189,4.189,0,0,0,2.646-1.1,3.968,3.968,0,0,0,1.323-2.646,1.764,1.764,0,0,0-.441-1.323H62.7l-9.48-10.8h0a.661.661,0,0,1,.882-.882h0l9.921,10.583h.22a1.764,1.764,0,0,0,1.323.441h0a4.189,4.189,0,0,0,2.646-1.1,3.969,3.969,0,0,0,1.323-2.646,1.764,1.764,0,0,0-.441-1.323l-.661-.661-9.481-10.142h0a.706.706,0,1,1,.882-1.1h0l9.26,9.921.661.661a1.764,1.764,0,0,0,1.323.441h0a4.176,4.176,0,0,0,3.969-3.748,1.764,1.764,0,0,0-.441-1.323l-1.543-1.764-6.614-7.5h0a.624.624,0,1,1,.882-.882Z" transform="translate(-30.348 -131.799)" fill="#fff"/>
  </g>
</svg>
