<svg id="icon-purse-white" xmlns="http://www.w3.org/2000/svg" width="45.991" height="47.577" viewBox="0 0 45.991 47.577">
  <path id="パス_6308" data-name="パス 6308" d="M47.416,69.911H55.1c18.4,0,19.567-3.96,19.1-11.181s-7.221-11.647-7.221-11.647,0-10.482-14.908-10.482H50.444c-14.908,0-14.908,10.482-14.908,10.482s-6.988,4.426-7.221,11.647S29.014,69.911,47.416,69.911Zm.932-26.09,3.261,10.948,2.8-10.948h5.358L55.569,53.838H58.6V56.4h-3.96l-.7,1.631H58.83v2.8H53.939v4.659H48.581V60.826H43.689V58.264h4.892l-.7-1.631H43.689v-2.8h3.028l-3.96-10.017Z" transform="translate(-28.289 -22.334)" fill="#fff"/>
  <path id="パス_6309" data-name="パス 6309" d="M30.964,55.69h0a1.864,1.864,0,0,0,1.864-1.864c0-.466.233-11.181,16.306-11.181H51C67.07,42.645,67.3,53.361,67.3,53.826a1.864,1.864,0,1,0,3.727,0c0-.233-.233-13.511-17.471-14.675l.7-1.631a5.125,5.125,0,0,0,3.727-1.165,3.727,3.727,0,0,0,.7-2.8,3.494,3.494,0,0,0-.932-2.329,3.494,3.494,0,0,0-2.8-.7A5.125,5.125,0,0,0,51.7,32.163a6.522,6.522,0,0,0-1.4,3.96v3.028h-.466V36.123a6.522,6.522,0,0,0-1.4-3.96,5.125,5.125,0,0,0-3.261-1.631,3.494,3.494,0,0,0-2.8.7,3.494,3.494,0,0,0-.932,2.329,3.727,3.727,0,0,0,.7,2.8,5.125,5.125,0,0,0,3.727,1.165l.7,1.631C29.333,40.316,29.1,53.593,29.1,53.826A1.864,1.864,0,0,0,30.964,55.69Z" transform="translate(-27.21 -30.476)" fill="#fff"/>
</svg>
