<svg xmlns="http://www.w3.org/2000/svg" viewBox="0 0 49.13 58.07"><defs><style>.cls-1{fill:#fff;stroke:#2ea8c8;stroke-width:3px;}.cls-1,.cls-2{stroke-miterlimit:10;}.cls-2,.cls-3{fill:#2ea8c8;}.cls-2{stroke:#fff;}</style></defs><g id="レイヤー_2" data-name="レイヤー 2"><g id="レイヤー_1-2" data-name="レイヤー 1"><path class="cls-1" d="M29.3,56.57H4.7a3.2,3.2,0,0,1-3.2-3.2V9.47a3.2,3.2,0,0,1,3.2-3.2H36.82A3.2,3.2,0,0,1,40,9.47V45.91"/><path class="cls-2" d="M33.76-1.27h3.15a4.82,4.82,0,0,1,4.82,4.82V28.31a1.82,1.82,0,0,1-1.82,1.82H30.76a1.82,1.82,0,0,1-1.82-1.82V3.55a4.82,4.82,0,0,1,4.82-4.82Z" transform="translate(18.88 -20) rotate(42.24)"/><path class="cls-3" d="M28.11,29.55l-7.33-6.66a.89.89,0,0,0-1.46.45l-2.6,10.59,11-2.87A.88.88,0,0,0,28.11,29.55Z"/><path class="cls-3" d="M29.17,45.68V57.76a.17.17,0,0,0,.29.11L41.28,46.05a.16.16,0,0,0-.12-.28Z"/></g></g></svg>