<svg xmlns="http://www.w3.org/2000/svg" width="52.536" height="49.295" viewBox="0 0 52.536 49.295">
  <g id="icon-doubleCheck" transform="translate(4 0.69)">
    <g id="_97" data-name="97" transform="translate(-4 -0.69)">
      <path id="パス_6281" data-name="パス 6281" d="M193.541,40.043V35.678a1.8,1.8,0,0,1,1.8-1.8h8.473v1.027h-8.473V40.3l1.54.513V36.448h6.932v1.8h12.58v-1.8h6.932v.513l1.54-.77V34.908h-8.473V33.881h8.473a1.8,1.8,0,0,1,1.8,1.8h1.54a3.338,3.338,0,0,0-3.338-3.081h-8.473V30.8H203.81v1.8h-8.473A3.338,3.338,0,0,0,192,35.935v4.108h1.54Zm21.566-3.081Zm0-1.8h-9.5V33.881h9.5Zm-9.5-3.081Z" transform="translate(-185.325 -30.8)" fill="#fff"/>
      <path id="パス_6282" data-name="パス 6282" d="M205.6,47.219h1.54V40.8H205.6Z" transform="translate(-164.008 -15.126)" fill="#fff"/>
      <path id="パス_6283" data-name="パス 6283" d="M195.338,62.353a1.8,1.8,0,0,1-1.8-1.8V41.3H192v19a3.338,3.338,0,0,0,3.338,3.338h28.242l-2.567-1.54Z" transform="translate(-185.325 -14.342)" fill="#fff"/>
      <path id="パス_6284" data-name="パス 6284" d="M194.84,40.9l-1.54.513V59.9h23.877l-.513-1.54H195.1Z" transform="translate(-183.287 -14.969)" fill="#fff"/>
      <path id="パス_6285" data-name="パス 6285" d="M205.84,48.573v-7.7l-1.54-.77v8.986Z" transform="translate(-166.045 -16.223)" fill="#fff"/>
      <path id="パス_6286" data-name="パス 6286" d="M201.294,43.089a3.594,3.594,0,1,0-3.594-3.594,3.594,3.594,0,0,0,3.594,3.594Z" transform="translate(-176.39 -22.806)" fill="#fff"/>
      <path id="パス_6287" data-name="パス 6287" d="M205.3,38.908h-3.338a1.54,1.54,0,0,0-1.54.77L196.571,46.1a1.54,1.54,0,1,0,2.568,1.54l1.284-2.054V56.366a1.54,1.54,0,1,0,3.081,0V50.461h.257V56.11a1.54,1.54,0,0,0,3.081,0V45.583l1.027,1.8a1.54,1.54,0,1,0,2.568-1.54l-3.851-6.419a1.541,1.541,0,0,0-1.284-.514Z" transform="translate(-178.855 -18.112)" fill="#fff"/>
      <path id="パス_6288" data-name="パス 6288" d="M213.61,33.357a8.986,8.986,0,0,0-8.729,11.04l-3.081,1.54h3.594A8.986,8.986,0,1,0,213.61,33.1Zm4.621,11.81-1.8,1.8L213.867,44.4,211.3,46.964l-1.8-1.8L212.07,42.6,209.5,40.032l1.8-1.8,2.567,2.567,2.567-2.567,1.8,1.8L215.664,42.6Z" transform="translate(-169.964 -27.195)" fill="#fff"/>
      <path id="パス_6289" data-name="パス 6289" d="M216.421,46.211a7.446,7.446,0,0,0-10.526-.257l-1.027,1.284-2.567-.77,2.054,2.054a7.446,7.446,0,1,0,12.324-2.567Zm-1.8,7.446-1.54,1.54-2.311-2.311L208.462,55.2l-1.54-1.54,2.311-2.311-2.311-2.311,1.54-1.54,2.311,2.311,2.311-2.311,1.54,1.54-2.311,2.311Z" transform="translate(-169.18 -10.267)" fill="#fff"/>
      <path id="パス_6290" data-name="パス 6290" d="M202.237,37.211a7.446,7.446,0,1,0-.257,10.526l1.027-1.284,2.567.77-2.054-2.054a7.446,7.446,0,0,0-1.284-7.959Zm-1.8,7.189-1.54,1.54-2.311-2.311-2.311,2.311-1.54-1.54,2.311-2.311-2.311-2.311,1.54-1.54,2.311,2.311,2.311-2.311,1.54,1.54-2.311,2.311Z" transform="translate(-189.4 -24.374)" fill="#fff"/>
    </g>
  </g>
</svg>
