<!--?xml version="1.0" encoding="utf-8"?-->
<!-- Generator: Adobe Illustrator 18.1.1, SVG Export Plug-In . SVG Version: 6.00 Build 0)  -->

<svg version="1.1" id="_x32_" xmlns="http://www.w3.org/2000/svg" xmlns:xlink="http://www.w3.org/1999/xlink" x="0px" y="0px" viewBox="0 0 512 512" style="width: 48px; height: 48px; opacity: 1;" xml:space="preserve">
<style type="text/css">
	.st0{fill:#4B4B4B;}
</style>
<g>
	<path class="st0" d="M270.625,157.088l7.049-16.556c-1.311-0.165-2.653-0.259-4.011-0.259c-8.455,0-16.069,3.415-21.635,8.981
		c-5.566,5.566-8.989,13.196-8.989,21.65c0,8.447,3.423,16.077,8.989,21.643c5.566,5.558,13.18,8.981,21.635,8.981
		c8.462,0,16.092-3.423,21.643-8.981c5.558-5.566,8.988-13.196,8.988-21.643c0-4.82-1.114-9.365-3.1-13.416l-13.62,15.967
		c-1.202,6.594-6.971,11.587-13.911,11.587c-7.803,0-14.13-6.335-14.13-14.138C259.533,164.146,264.29,158.486,270.625,157.088z" style="fill: rgb(255, 255, 255);"></path>
	<path class="st0" d="M349.573,416.888c-17.27-6.46-36.95-24.492-36.95-43.316c0-8.62,0-0.942,0-15.716
		c6.319-17.53,23.88-24.14,29.171-54.04c12.301-4.396,15.881-11.437,24.665-42.218c6.602-23.158-3.124-29.375-9.428-31.04
		c0.133-1.232,0.267-2.472,0.369-3.932c2.064-30.034,14.374-89.86-20.292-111.197l-11.132,13.047
		c9.42,11.579,15.072,26.368,15.064,42.43c0.008,18.566-7.559,35.443-19.75,47.619c-12.183,12.198-29.054,19.767-47.627,19.759
		c-18.566,0.008-35.443-7.56-47.626-19.759c-12.183-12.176-19.751-29.054-19.751-47.619c0-18.565,7.568-35.451,19.751-47.627
		c12.183-12.198,29.061-19.75,47.626-19.75c6.461,0,12.725,0.911,18.636,2.614l4.31-10.134c-11.972-6.186-26-8.62-52.713-6.995
		c-25.042-0.007-40.632,5.526-67.158-2.064c-35.404,29.697-25.678,96.392-20.717,143.438c-6.225,1.397-16.964,7.174-10.095,31.212
		c8.777,30.78,12.363,37.821,24.665,42.218c5.276,29.901,27.75,43.898,28.802,54.04c0,14.774,0,7.096,0,15.716
		c0,25.826-21.235,37.783-36.958,43.316C136.592,426.002,71.264,452.771,57.518,512h396.964
		C440.682,452.904,375.243,426.489,349.573,416.888z" style="fill: rgb(255, 255, 255);"></path>
	<path class="st0" d="M288.201,115.766c-4.64-1.225-9.506-1.884-14.538-1.884c-15.724,0-29.956,6.39-40.294,16.728
		c-10.338,10.339-16.729,24.563-16.729,40.295c0,15.732,6.391,29.948,16.729,40.287c10.338,10.33,24.57,16.72,40.294,16.72
		c15.732,0,29.964-6.39,40.303-16.72c10.33-10.339,16.713-24.555,16.713-40.287c0-12.921-4.302-24.814-11.571-34.391l-10.739,12.576
		c3.988,6.327,6.296,13.8,6.296,21.815c0,11.296-4.616,21.572-12.018,28.975c-7.402,7.411-17.679,12.011-28.983,12.011
		c-11.288,0-21.572-4.6-28.975-12.011c-7.402-7.403-12.026-17.678-12.018-28.975c-0.008-11.296,4.616-21.58,12.018-28.975
		c7.403-7.418,17.686-12.026,28.975-12.018c2.802,0,5.535,0.275,8.172,0.825L288.201,115.766z" style="fill: rgb(255, 255, 255);"></path>
	<polygon class="st0" points="275.908,171.148 382.34,46.48 338.536,46.48 364.449,0 308.423,0 288.61,77.308 315.826,77.308 	" style="fill: rgb(255, 255, 255);"></polygon>
</g>
</svg>
