<svg id="icon-cool-smart-brain-doc" xmlns="http://www.w3.org/2000/svg" xmlns:xlink="http://www.w3.org/1999/xlink" width="65" height="65" viewBox="0 0 65 65">
  <defs>
    <clipPath id="clip-path">
      <rect id="長方形_481" data-name="長方形 481" width="38.235" height="45.922" fill="none"/>
    </clipPath>
  </defs>
  <g id="楕円形_177" data-name="楕円形 177" transform="translate(0 0)" fill="#28b2d5" stroke="#a7c0db" stroke-width="2">
    <circle cx="32.5" cy="32.5" r="32.5" stroke="none"/>
    <circle cx="32.5" cy="32.5" r="31.5" fill="none"/>
  </g>
  <g id="楕円形_176" data-name="楕円形 176" transform="translate(0 5)" fill="#eafbff" stroke="#eafbff" stroke-width="2">
    <circle cx="30" cy="30" r="30" stroke="none"/>
    <circle cx="30" cy="30" r="29" fill="none"/>
  </g>
  <g id="グループ_619" data-name="グループ 619" transform="translate(11.765 10.219)" clip-path="url(#clip-path)">
    <g id="グループ_618" data-name="グループ 618" transform="translate(1.531 2.689)">
      <path id="パス_3187" data-name="パス 3187" d="M33.781,27.959a10.39,10.39,0,0,0-1.842.12s-.5.34.14,1.722-1.221,1.541-1.221,1.541a1.4,1.4,0,0,1,.06,1.782c-.921,1.281-1.682-.08-1.6,1.962.06,1.7,0,1.982-1.261,2.983s-5.725-.3-7.066-.26-.821,2.522-.681,3.423a11.791,11.791,0,0,0,2.3,4.624c1.081,1.381,3.323,2.582,3.723,4.384a1.7,1.7,0,0,1-.2,1.341A49.136,49.136,0,0,0,3.654,44.454c1.181-2,2.642-3.924,2.542-6.746s-.28-4.644-1.121-6.086-6.246-8.127-4.844-16.9S7.858.313,16.325.013,31.039,4.6,32.56,8.9s1.621,7.607,1.141,8.888-1.4,2.442-.32,4.624,1.421,2.422,1.7,3.063C35.7,26.918,35.083,27.959,33.781,27.959Z" transform="translate(0 0)" fill="#28b2d5"/>
      <path id="パス_3188" data-name="パス 3188" d="M.983,14.132c-.661,2.3,1.441,2.923,1.9,2.5.08.8-.16.561-.12,1.581a3.71,3.71,0,0,0,1.421,2.462,2.506,2.506,0,0,0,2.542.34,1.987,1.987,0,0,0,1.341.7l-.6,2.582s.3,1.261,1.021,1.441c.9-2.542,1.1-4.584,2.682-5.265a4.182,4.182,0,0,0,2.382-2.2,4.619,4.619,0,0,0,2.662.621c1.361-.18,1.481-.781,1.962-.921s1.181-.04,1.621-1.7a4.164,4.164,0,0,0,4.764-1.381,16.437,16.437,0,0,0,1.321-1.5c.781-1.2.761-3.6-.5-3.924,0,0,1.361-2.462-.821-3.663,0,0-.16-2.362-2.262-2.5A3.177,3.177,0,0,0,18.5,1.78,3.5,3.5,0,0,0,14.235.839S12.774-1.022,10.612.8a2.9,2.9,0,0,0-3.2,1.061A2.556,2.556,0,0,0,4.447,3.282,3.324,3.324,0,0,0,1.864,5.824S.5,6.6,1.1,8.867C1.023,8.887-1.259,11.069.983,14.132Z" transform="translate(4.032 2.116)" fill="#fff" stroke="#252525" stroke-linecap="round" stroke-linejoin="round" stroke-width="0.478"/>
      <g id="グループ_617" data-name="グループ 617" transform="translate(3.947 1.981)">
        <path id="パス_3189" data-name="パス 3189" d="M26.532,10.4a1.481,1.481,0,0,0-.781-.861,3.384,3.384,0,0,0,.24-2.262,2.382,2.382,0,0,0-1.161-1.4,2.8,2.8,0,0,0-2.342-2.562h0a3.314,3.314,0,0,0-3.844-1.541A3.639,3.639,0,0,0,14.361.815,2.582,2.582,0,0,0,12.8.014a2.87,2.87,0,0,0-2.142.761A3.082,3.082,0,0,0,7.414,1.836a2.666,2.666,0,0,0-3,1.461,3.5,3.5,0,0,0-2.6,2.582c-.28.2-1.3,1.081-.8,3.1a4.05,4.05,0,0,0-.04,5.325,2.062,2.062,0,0,0,.781,2.5,1.581,1.581,0,0,0,1.161.24,1.2,1.2,0,0,1-.06.4,2.8,2.8,0,0,0-.08.941,3.09,3.09,0,0,0,1.321,2.442l.14.12a2.37,2.37,0,0,0,2.582.44,2.04,2.04,0,0,0,1.2.641l-.561,2.4a.18.18,0,0,0,0,.08c.02.06.32,1.361,1.141,1.561h.04a.18.18,0,0,0,.16-.12c.22-.6.38-1.161.54-1.7.52-1.722.9-2.983,2.042-3.463a4.551,4.551,0,0,0,2.382-2.1,4.64,4.64,0,0,0,2.6.561,2.388,2.388,0,0,0,1.682-.721.741.741,0,0,1,.3-.22l.24-.06c.5-.1,1.061-.24,1.441-1.581a4.322,4.322,0,0,0,4.784-1.481,7.423,7.423,0,0,1,.52-.561,5.646,5.646,0,0,0,.821-.961A3.849,3.849,0,0,0,26.532,10.4Zm-.641,3.043a5.385,5.385,0,0,1-.781.921l-.14.14a2.545,2.545,0,0,1-2.8-.12.18.18,0,0,0-.2.02,1.9,1.9,0,0,1-1.722.46,1.241,1.241,0,0,1-.9-.721.18.18,0,1,0-.32.12,1.581,1.581,0,0,0,1.121.941,2.062,2.062,0,0,0,.5.06,2.282,2.282,0,0,0,1.421-.52,3.123,3.123,0,0,0,2.3.4,3.732,3.732,0,0,1-2.883,1.361,5.745,5.745,0,0,1-1.521-.22h-.14a.18.18,0,0,0-.08.1c-.34,1.321-.781,1.4-1.241,1.5l-.26.06a1.041,1.041,0,0,0-.44.3,2.192,2.192,0,0,1-1.481.621h-.38a4.684,4.684,0,0,1-2.062-.561,3.475,3.475,0,0,0-.761-3.643.18.18,0,0,0-.2.28,3.2,3.2,0,0,1,.6,3.383h0a4.076,4.076,0,0,1-2.282,2.1c-1.281.54-1.7,1.922-2.242,3.683-.14.48-.3.981-.48,1.521a2.109,2.109,0,0,1-.721-1.221l.6-2.542a.18.18,0,0,0-.14-.22,1.871,1.871,0,0,1-1.221-.621.18.18,0,0,0-.14-.08h-.04a4.7,4.7,0,0,1-1.2.2,1.461,1.461,0,0,1-1.161-.52l-.16-.08a2.865,2.865,0,0,1-1.2-2.2,2.482,2.482,0,0,1,.08-.841,1.762,1.762,0,0,0,.04-.781.18.18,0,0,0-.12-.14H3.07l-.12.04a.46.46,0,0,1-.3.08,1.4,1.4,0,0,1-.7-.22,1.775,1.775,0,0,1-.621-2.182,1.641,1.641,0,0,1,1.662-1h.14v-.04h0s.42-1,1.141-.941a1.7,1.7,0,0,1,.921.561,2.185,2.185,0,0,0,1.361.7,1.5,1.5,0,0,0,.641-.16,1.535,1.535,0,0,0,.941-1,3.376,3.376,0,0,0-.4-1.441.18.18,0,0,0-.26.22,1.535,1.535,0,0,1,.32,1.141c-.14.561-.32.581-.761.781a1.71,1.71,0,0,1-1.621-.5c-.5-.44-.7-.621-1.141-.641a1.582,1.582,0,0,0-1.4,1,2.254,2.254,0,0,1-.741-1.261.18.18,0,1,0-.34.08,3.063,3.063,0,0,0,.621,1.261,1.922,1.922,0,0,0-1.341.921,3.686,3.686,0,0,1,.02-4.624,1.8,1.8,0,0,0,.961.721,2.122,2.122,0,0,0,.641.1,2.062,2.062,0,0,0,1.021-.26.18.18,0,0,0-.18-.3,1.762,1.762,0,0,1-1.381.14,1.421,1.421,0,0,1-.881-.741,2.547,2.547,0,0,1,.5-2.682,1.141,1.141,0,0,0,.9.821h.02a.18.18,0,0,0,.02-.34.851.851,0,0,1-.661-.761A3.056,3.056,0,0,1,4.171,3.778a2.581,2.581,0,0,0,.54,2.442.18.18,0,0,0,.14.08l.1-.04a.18.18,0,0,0,.04-.24,2.186,2.186,0,0,1-.38-2.442h0A2.29,2.29,0,0,1,6.834,2.136h.4a1.719,1.719,0,0,0-.12,1.6.841.841,0,0,0,.721.46,1.19,1.19,0,0,1,.881.3,1.562,1.562,0,0,1,.24,1.141.18.18,0,0,0,.16.18h0a.18.18,0,0,0,.18-.16,1.791,1.791,0,0,0-.34-1.4,1.36,1.36,0,0,0-1.121-.4.5.5,0,0,1-.42-.28,1.465,1.465,0,0,1,.24-1.441A2.482,2.482,0,0,1,9.8,1.015a3.223,3.223,0,0,1,.621.06,1.722,1.722,0,0,0-.34,1.2,2.741,2.741,0,0,0,1.3,1.662l.08.06.1.04a.18.18,0,0,0,.1-.32l-.1-.06A2.469,2.469,0,0,1,10.4,2.236c-.1-.661.1-.741.42-1.141A2.737,2.737,0,0,1,12.579.334h.2a2.262,2.262,0,0,1,1.4.741,1.1,1.1,0,0,1-.06.741.681.681,0,0,1-.46.32.18.18,0,0,0,.04.34h.04A1,1,0,0,0,14.421,2a1.361,1.361,0,0,0,.1-.9A3.263,3.263,0,0,1,15.9.775a3.471,3.471,0,0,1,2.542,1.261,1.372,1.372,0,0,1-.561,1.9.18.18,0,0,0,.08.32h.08A1.663,1.663,0,0,0,18.825,2.1a3.984,3.984,0,0,1,.821-.08,2.931,2.931,0,0,1,2.562,1.5l.04.06c.32,1.121-.12,1.481-.36,1.7-.761.641-2.2,0-2.362-.06a3.723,3.723,0,0,0-1.541-.5A5.825,5.825,0,0,0,15.842,5a.18.18,0,1,0,.12.32,5.605,5.605,0,0,1,2-.26,2.715,2.715,0,0,1,1.842.861.941.941,0,0,1,.18.761.18.18,0,0,0,.14.2h.04a.18.18,0,0,0,.16-.14,1.261,1.261,0,0,0-.18-.941,3.483,3.483,0,0,0,.841.12,1.7,1.7,0,0,0,1.121-.36,1.621,1.621,0,0,0,.52-1.842C24.29,4,24.49,5.859,24.51,6.02a1.181,1.181,0,0,1-.28.741.721.721,0,0,1-.561.18.17.17,0,0,0-.02.34h.08A1.041,1.041,0,0,0,24.47,7a1.341,1.341,0,0,0,.36-.721,2,2,0,0,1,.921,1.962,3.763,3.763,0,0,1-.38,1.321.741.741,0,0,1-.48.3.6.6,0,0,1-.46-.26.18.18,0,1,0-.26.22.941.941,0,0,0,.721.4h.02a1.021,1.021,0,0,0,.681-.34,1.121,1.121,0,0,1,.641.7,3.6,3.6,0,0,1-.36,2.883Z" transform="translate(0 0)" fill="#252525"/>
        <path id="パス_3190" data-name="パス 3190" d="M6.548.849a.18.18,0,0,0-.1.22.741.741,0,0,1,0,.7c-.34.541-1.581.621-2.182.661A3.878,3.878,0,0,1,.3.048a.18.18,0,0,0-.3.16A5.385,5.385,0,0,0,1.484,2.03h0c-.38.821-.721,2.542.7,3.243a4.584,4.584,0,0,0,1,.32,1.546,1.546,0,0,1,1.081.561.18.18,0,0,0,.14.08h.1a.18.18,0,0,0,.04-.24,1.908,1.908,0,0,0-1.3-.721,4.224,4.224,0,0,1-.921-.3c-1.361-.661-.7-2.422-.561-2.742a4,4,0,0,0,2.142.561h.5a1.682,1.682,0,0,0,.38,1.141,1.521,1.521,0,0,0,1.181.44h.1a.18.18,0,0,0,0-.34h0a1.225,1.225,0,0,1-1-.34,1.361,1.361,0,0,1-.3-.941c.7-.06,1.621-.22,1.962-.781a1.081,1.081,0,0,0,.04-1,.18.18,0,0,0-.22-.12Z" transform="translate(3.529 13.959)" fill="#252525"/>
        <path id="パス_3191" data-name="パス 3191" d="M4.523,3.21A3.185,3.185,0,0,0,3.942.747,2.142,2.142,0,0,0,2.161.007a.18.18,0,1,0,.02.34,1.782,1.782,0,0,1,1.5.621,2.805,2.805,0,0,1,.5,2.3.18.18,0,0,0,.1.2.9.9,0,0,1,.46.841,1.25,1.25,0,0,1-.581,1.121A1.386,1.386,0,0,1,2.6,4.891a.18.18,0,0,0-.22-.08A1.661,1.661,0,0,1,1,4.711,1.161,1.161,0,0,1,.359,3.97a.18.18,0,1,0-.34.06,1.5,1.5,0,0,0,.821.981,2.042,2.042,0,0,0,1.541.16,1.642,1.642,0,0,0,1.3.7,1.421,1.421,0,0,0,.641-.16,1.519,1.519,0,0,0,.761-1.421A1.261,1.261,0,0,0,4.523,3.21Z" transform="translate(18.926 7.454)" fill="#252525"/>
        <path id="パス_3192" data-name="パス 3192" d="M.112.343a.968.968,0,0,1,1.1.821A1.381,1.381,0,0,1,.172,2.685a.18.18,0,0,0,.04.34h.04a1.742,1.742,0,0,0,1.321-1.9A1.315,1.315,0,0,0,.112,0a.18.18,0,0,0,.02.34Z" transform="translate(13.948 3.255)" fill="#252525"/>
        <path id="パス_3193" data-name="パス 3193" d="M5.469.323A.18.18,0,0,0,5.329,0a4.644,4.644,0,0,0-1.7,1.441c-.28.18-2.122,1.2-3.323-.32a.18.18,0,0,0-.28.22,2.322,2.322,0,0,0,1.9.941,3.684,3.684,0,0,0,1.421-.32,2.462,2.462,0,0,0-.18.981.18.18,0,0,0,.18.16h0a.18.18,0,0,0,.16-.18C3.467,1.3,5.449.343,5.469.323Z" transform="translate(4.548 6.498)" fill="#252525"/>
        <path id="パス_3194" data-name="パス 3194" d="M.14.353A2.685,2.685,0,0,1,3.183,2.735a.18.18,0,0,0,.16.14h.04a.18.18,0,0,0,.14-.2A3.025,3.025,0,0,0,.1.033a.18.18,0,0,0,.06.34Z" transform="translate(15.862 7.168)" fill="#252525"/>
        <path id="パス_3195" data-name="パス 3195" d="M6.69,3.623a.18.18,0,0,0-.02-.34A2.516,2.516,0,0,1,4.488,1.9,1.691,1.691,0,0,0,3.247,0a.18.18,0,0,0-.06.34c.04,0,1,.2.941,1.6A2.051,2.051,0,0,1,2.767,3.723a2.4,2.4,0,0,1-2.442-.3.18.18,0,1,0-.24.26,2.422,2.422,0,0,0,1.642.6,3.083,3.083,0,0,0,1.161-.24,2.462,2.462,0,0,0,1.5-1.6,2.635,2.635,0,0,0,2.1,1.2Z" transform="translate(9.872 7.301)" fill="#252525"/>
        <path id="パス_3196" data-name="パス 3196" d="M2.893.088a.18.18,0,1,0-.22.26,2.042,2.042,0,0,1,.681,1.321,1.261,1.261,0,0,1-.52.941,2,2,0,0,1-2.522.1.18.18,0,1,0-.22.28,2.582,2.582,0,0,0,1.461.48,2.322,2.322,0,0,0,1.5-.581,1.581,1.581,0,0,0,.641-1.2A2.354,2.354,0,0,0,2.893.088Z" transform="translate(14.93 11.937)" fill="#252525"/>
      </g>
    </g>
  </g>
</svg>
