<svg xmlns="http://www.w3.org/2000/svg" width="52.953" height="50.611" viewBox="0 0 52.953 50.611">
  <g id="icon-brainimage-blue" opacity="0.5">
    <path id="パス_7714" data-name="パス 7714" d="M802.408,239.47a5.7,5.7,0,0,0-1.855-.309,5.808,5.808,0,0,0-1.739.266l-.023.008a6.884,6.884,0,0,1-2.249.4,4.441,4.441,0,0,1-3.175-1.209,3.779,3.779,0,0,1-1.156-2.686,3.862,3.862,0,0,1,.939-2.478.868.868,0,0,0-1.333-1.113,5.456,5.456,0,0,0,.336,7.52,6.208,6.208,0,0,0,4.39,1.7,8.609,8.609,0,0,0,2.792-.494,4.039,4.039,0,0,1,3.071.269v7.491h-4.6a.868.868,0,1,0,0,1.736h4.6v9.549a5.382,5.382,0,0,1-.4,2.055l-.01.017a5.327,5.327,0,0,1-.811,1.347l-.023.028c-.048.057-.1.113-.146.168s-.091.1-.137.143c-.014.016-.028.033-.044.048h0l-.033.03c-.051.051-.1.1-.159.15-.03.028-.061.054-.091.081s-.069.061-.1.089c-.052.044-.106.085-.161.127l-.041.031a5.366,5.366,0,0,1-1.122.644c-.16.068-.323.126-.489.178l-.006,0c-.074.021-.146.042-.219.062l-.041.011c-.064.017-.126.03-.19.044l-.075.017c-.052.01-.108.018-.163.03-.034,0-.068.011-.1.016s-.1.013-.146.02-.081.01-.12.014-.1.009-.151.011-.079.009-.119.01c-.079,0-.159.006-.239.006h-.073c-.078,0-.156,0-.232-.006-.043,0-.084-.006-.125-.01s-.1-.006-.146-.011l-.125-.014c-.047-.007-.1-.011-.143-.02s-.071-.011-.108-.017l-.159-.028-.078-.018c-.062-.013-.125-.027-.185-.042l-.045-.013c-.072-.02-.143-.04-.214-.061l-.011,0a5.066,5.066,0,0,1-.484-.178,5.375,5.375,0,0,1-1.123-.644c-.016-.011-.028-.024-.044-.034-.054-.041-.106-.081-.157-.125l-.116-.1c-.025-.024-.054-.047-.081-.071l-.191-.181,0,0c-.091-.091-.177-.185-.262-.283l-.041-.05a5.407,5.407,0,0,1-.7-1.055l-.013-.02a5.374,5.374,0,0,1-.561-2.4,5.191,5.191,0,0,1,.406-1.967,4.516,4.516,0,0,1,1.239-1.72.853.853,0,0,0,.309-.588.866.866,0,0,0-.864-.946.877.877,0,0,0-.556.2,6.26,6.26,0,0,0-1.729,2.383,6.911,6.911,0,0,0-.542,2.637,7.121,7.121,0,0,0,.253,1.879c-.094.037-.188.074-.283.1l-.075.024-.178.054-.115.031-.142.034c-.045.011-.089.021-.133.03l-.13.024-.14.024c-.044.006-.088.013-.132.017l-.133.017-.159.011c-.037,0-.073.007-.109.008-.09,0-.18.007-.27.007a5.38,5.38,0,0,1-5.378-5.384c0-.081,0-.16.006-.239a5.356,5.356,0,0,1,.239-1.364c.007-.02.011-.041.02-.062l.009-.027c.023-.068.045-.136.071-.2l0-.008c.034-.092.072-.183.113-.276l.011-.024c.044-.095.089-.188.137-.283l0,0a5.385,5.385,0,0,1,.748-1.085.868.868,0,1,0-1.3-1.153c-.051.057-.1.115-.15.174-.079.014-.129.021-.17.025-.068.006-.154.009-.344.009h-.016c-.092,0-.184,0-.276-.009h-.016c-.085,0-.17-.01-.252-.02a.372.372,0,0,1-.04,0c-.076-.008-.151-.018-.228-.03l-.038-.006c-.076-.013-.153-.025-.228-.041l-.024-.007c-.081-.017-.159-.034-.238-.054h0a5.354,5.354,0,0,1-1.862-.9.458.458,0,0,1-.042-.034c-.054-.041-.106-.081-.157-.123s-.074-.064-.11-.1-.058-.048-.085-.072c-.065-.059-.129-.119-.191-.181s-.123-.129-.184-.194l-.038-.044c-.044-.051-.088-.1-.13-.152s-.069-.088-.1-.132c-.018-.023-.037-.047-.054-.069-.049-.064-.093-.129-.139-.194l-.01-.014a5.468,5.468,0,0,1-.5-.913,5.289,5.289,0,0,1-.246-.728l-.009-.026c-.017-.069-.033-.139-.048-.21a.531.531,0,0,1-.011-.054c-.013-.062-.023-.125-.034-.188,0-.025-.01-.051-.013-.078-.009-.058-.017-.118-.024-.176,0-.031-.007-.061-.01-.092-.006-.062-.01-.122-.014-.184,0-.028-.006-.058-.007-.088,0-.089-.006-.181-.006-.273,0-.126,0-.253.013-.379.006-.085.016-.169.027-.252,0-.041.007-.079.013-.118.014-.11.034-.221.057-.329l.006-.038c.026-.115.054-.231.086-.343l0-.016c.033-.113.068-.224.108-.334l.007-.02c.037-.1.079-.205.122-.306l.017-.04c.042-.1.089-.191.137-.285l.024-.052c.058-.109.12-.217.185-.321s.132-.2.2-.3a5.42,5.42,0,0,1,1.252-1.246l.027-.021.051-.034a5.534,5.534,0,0,1,.571-.343h0l.018-.008c.065-.035.133-.067.2-.1l.11-.051.008,0a5.372,5.372,0,0,1,5.46.708,12.694,12.694,0,0,0,1.977,1.725,10.865,10.865,0,0,0,2.244,1.235,7.767,7.767,0,0,0,2.874.578.868.868,0,1,0,0-1.736,6.075,6.075,0,0,1-2.234-.456,9.842,9.842,0,0,1-2.613-1.6c-.331-.279-.59-.527-.748-.685-.085-.086-.15-.154-.193-.2l-.054-.061-.031-.034a.324.324,0,0,0-.045-.044l-.035-.03a7.106,7.106,0,0,0-5.94-1.419c-.109-.095-.211-.194-.312-.3-.037-.035-.072-.072-.108-.11s-.061-.067-.091-.1-.055-.062-.081-.093c-.057-.067-.112-.134-.164-.2l-.028-.038q-.068-.089-.132-.183l-.024-.035c-.042-.064-.085-.129-.126-.2l-.014-.025c-.044-.071-.085-.142-.125-.214l-.008-.014c-.041-.078-.081-.156-.119-.235v0a5.418,5.418,0,0,1-.473-1.562v-.01c-.013-.082-.02-.161-.028-.241l0-.041c-.006-.076-.01-.153-.014-.231v-.044h0c0-.064,0-.127,0-.193,0-.089,0-.177.007-.265,0-.03,0-.061.006-.089,0-.058.007-.116.013-.173,0-.035.01-.069.013-.1.007-.052.013-.1.02-.156,0-.034.011-.068.016-.1.01-.054.018-.106.028-.16.006-.028.013-.057.02-.084.011-.058.024-.115.037-.171l.017-.062c.017-.062.034-.126.052-.19l.013-.038c.023-.069.044-.139.069-.208l.006-.016c.027-.076.055-.151.086-.227h0c.064-.159.137-.31.215-.46h0c.038-.075.079-.147.122-.218l.01-.017c.04-.067.081-.133.122-.2l.03-.042c.037-.055.074-.109.113-.163.021-.031.047-.062.069-.092s.054-.074.082-.109c.047-.058.094-.115.142-.17l.021-.024c.057-.065.116-.129.176-.193l0,0q.119-.121.242-.234l.068-.059a5.58,5.58,0,0,1,.559-.435l.037-.024a5.556,5.556,0,0,1,.658-.372h0a5.228,5.228,0,0,1,1.123-.385l.008,0a5.527,5.527,0,0,1,.981-.125c.061,0,.122,0,.193,0h0a5.551,5.551,0,0,1,.827.062.862.862,0,0,0,.993-.725.872.872,0,0,0-.726-.991,7.244,7.244,0,0,0-1.093-.084l-.181,0c-.038-.067-.075-.135-.109-.2s-.076-.146-.11-.219c-.013-.027-.025-.052-.037-.081-.035-.079-.071-.157-.1-.236-.01-.024-.018-.05-.027-.074-.033-.082-.061-.164-.089-.248-.008-.026-.016-.051-.023-.075-.026-.084-.05-.166-.071-.248-.008-.031-.014-.059-.021-.089-.018-.079-.037-.157-.052-.238-.009-.04-.013-.079-.02-.117-.013-.071-.024-.142-.033-.214-.008-.057-.013-.115-.018-.174s-.011-.106-.014-.161q-.013-.168-.013-.34v0a5.365,5.365,0,0,1,1.208-3.393l.027-.033c.043-.052.088-.1.133-.157.028-.031.058-.061.086-.091s.074-.081.112-.118a5.4,5.4,0,0,1,3.819-1.59h.01q.138,0,.276.008l.088.007c.069,0,.142.011.211.018l.081.01c.092.011.186.024.278.041h.006c.1.018.2.04.3.064a5.39,5.39,0,0,1,2.3,1.189,25.356,25.356,0,0,0,2.022,2.019,15.174,15.174,0,0,0,1.978,1.507,7.75,7.75,0,0,0,1.089.572,4.164,4.164,0,0,0,1.157.313.752.752,0,0,0,.1.007.868.868,0,0,0,.677-1.41.858.858,0,0,0-.583-.321A2.527,2.527,0,0,1,798,224.7a7.485,7.485,0,0,1-1.505-.9,19.425,19.425,0,0,1-2.087-1.832c-.285-.286-.516-.532-.658-.688l-.18-.2-.044-.052-.26.231.248-.245-.023-.025-.03-.03-.026-.023a7.093,7.093,0,0,0-1.769-1.16,5.325,5.325,0,0,1,.313-1.371l.016-.041c.021-.058.045-.116.069-.174l.028-.067c.021-.048.042-.1.065-.142.013-.03.028-.057.041-.086l.061-.12c.017-.033.037-.064.054-.1s.038-.071.059-.1.041-.069.062-.1.037-.061.057-.092.05-.075.075-.112.036-.052.055-.079.058-.082.089-.123l.045-.062c.037-.047.074-.093.111-.137.013-.014.024-.03.035-.044l.135-.154.02-.02q.079-.087.161-.17c.064-.062.127-.123.193-.183l.058-.05c.045-.041.091-.081.139-.12s.089-.072.136-.106l.065-.052c.062-.047.127-.092.193-.137l.016-.01a5.406,5.406,0,0,1,.913-.5q.232-.1.476-.174l.02-.007q.1-.032.208-.059l.052-.014c.06-.016.12-.028.181-.042.027,0,.054-.013.081-.017.052-.011.1-.02.159-.028l.108-.02c.047-.007.095-.011.143-.017s.082-.013.125-.016l.147-.011c.041,0,.081-.007.123-.008.078,0,.157-.006.236-.007h.075c.078,0,.156,0,.234.006.042,0,.084.006.125.008l.145.011.128.016c.047.006.093.01.14.017s.074.013.109.02c.052.008.1.017.157.028.027,0,.054.013.082.018.061.013.122.027.181.041l.051.014c.069.018.139.038.207.059l.021.007c.163.051.321.109.477.174a5.634,5.634,0,0,1,.913.5l.01.008c.066.044.133.091.2.14.021.014.041.031.061.047l.14.11c.045.037.088.076.133.115.02.02.041.035.064.055.064.059.129.12.191.183s.123.127.184.193l.074.085c.032.037.065.074.095.11a5.373,5.373,0,0,1,.81,1.347l.008.017a5.36,5.36,0,0,1,.4,2.055V239.47Z" transform="translate(-776.8 -214.901)" fill="#004b99"/>
    <path id="パス_7715" data-name="パス 7715" d="M821.715,247.381l-.008.088c0,.061-.007.122-.013.183l-.011.091c-.007.059-.013.12-.023.178,0,.025-.008.051-.013.076-.01.062-.023.127-.034.191l-.013.05c-.014.072-.03.143-.048.214l-.006.02a5.276,5.276,0,0,1-.893,1.854l-.037.05c-.04.051-.079.1-.12.151s-.069.082-.1.123c-.021.024-.042.05-.065.074-.058.065-.119.129-.181.191h0l-.028.025c-.052.052-.106.1-.161.154l-.086.075c-.035.033-.072.064-.11.095s-.1.082-.153.122l-.047.037c-.068.05-.136.1-.205.146h0a5.58,5.58,0,0,1-.909.5,5.425,5.425,0,0,1-.741.251h-.006c-.079.021-.159.038-.237.055l-.027.007c-.075.016-.151.028-.227.04l-.038.007c-.075.011-.152.021-.228.03-.013,0-.025,0-.039,0-.084.008-.167.016-.251.02h-.018c-.091,0-.183.007-.275.007h-.016c-.095,0-.163,0-.214,0a.945.945,0,0,1-.142-.011c-.041-.007-.094-.016-.167-.03-.047-.055-.093-.11-.141-.164a.871.871,0,0,0-.65-.293.869.869,0,0,0-.648,1.446,5.333,5.333,0,0,1,.748,1.08l0,.007c.05.095.095.188.137.283l.011.023c.041.093.081.188.116.282l0,0,.018.057c.021.057.043.116.062.174h0a5.4,5.4,0,0,1-1.331,5.488c-.068.068-.139.135-.211.2s-.126.108-.19.16a5.371,5.371,0,0,1-3.383,1.2c-.091,0-.18,0-.27-.007l-.108-.007c-.054,0-.106-.007-.161-.013l-.127-.016-.14-.02c-.044-.007-.089-.014-.133-.023l-.137-.025c-.042-.009-.083-.017-.125-.027s-.1-.024-.154-.038l-.1-.028c-.065-.017-.13-.037-.194-.057-.02-.009-.04-.013-.061-.021-.095-.031-.19-.067-.285-.1a7.122,7.122,0,0,0,.252-1.879,6.917,6.917,0,0,0-.345-2.108,6.316,6.316,0,0,0-1.926-2.911,5.532,5.532,0,0,0-1.678-.961,6.29,6.29,0,0,0-2.128-.355.868.868,0,0,0,0,1.736,4.358,4.358,0,0,1,1.964.435,4.132,4.132,0,0,1,1.79,1.812,5.213,5.213,0,0,1,.588,2.353,5.369,5.369,0,0,1-.561,2.394l-.013.021a5.48,5.48,0,0,1-.7,1.056l-.043.047c-.083.1-.173.2-.263.287h0l-.031.03c-.054.052-.106.1-.16.152-.03.027-.061.054-.092.079s-.068.062-.1.091c-.054.044-.108.084-.161.126l-.041.031a5.319,5.319,0,0,1-1.123.646q-.238.1-.488.178l-.006,0c-.071.021-.144.042-.218.061l-.041.011c-.064.017-.126.03-.19.045l-.075.016c-.054.011-.109.02-.163.03-.034.006-.068.013-.1.017s-.1.013-.146.018-.081.011-.122.016-.1.009-.149.011l-.122.01c-.078,0-.157,0-.237,0h-.075c-.078,0-.157,0-.234,0l-.123-.01c-.048,0-.1-.006-.146-.011l-.125-.016-.143-.018c-.035,0-.071-.011-.106-.017-.054-.01-.106-.018-.16-.03-.027,0-.052-.011-.078-.017-.062-.014-.125-.027-.185-.044l-.045-.011c-.072-.02-.144-.04-.215-.062l-.01,0c-.166-.051-.327-.11-.486-.177a5.3,5.3,0,0,1-1.121-.646l-.044-.033c-.052-.041-.106-.082-.159-.125l-.113-.1c-.027-.023-.055-.045-.082-.069q-.1-.089-.191-.183c-.062-.062-.123-.127-.184-.193-.034-.038-.068-.079-.1-.118s-.045-.052-.068-.078a5.411,5.411,0,0,1-.81-1.347l-.01-.017a5.382,5.382,0,0,1-.4-2.055V238.616a13.565,13.565,0,0,1,2.883.381,5.813,5.813,0,0,1,1.9.826,3.723,3.723,0,0,1,.95.946,5.984,5.984,0,0,1,.857,2.159c.074.317.137.636.2.974.061.313.126.639.2.959a8.935,8.935,0,0,0,.456,1.5,5.078,5.078,0,0,0,.595,1.076,4.44,4.44,0,0,0,1.528,1.318,6.76,6.76,0,0,0,2.362.7.731.731,0,0,0,.112.008.869.869,0,0,0,.111-1.73,4.752,4.752,0,0,1-1.981-.634,2.688,2.688,0,0,1-.868-.893,4.634,4.634,0,0,1-.457-1.089c-.139-.464-.241-.98-.347-1.526-.062-.314-.126-.64-.2-.969a9.237,9.237,0,0,0-.7-2.083,5.676,5.676,0,0,0-1.048-1.481,6.652,6.652,0,0,0-2.809-1.616,14.5,14.5,0,0,0-3.751-.556v-6.267h5.035a.869.869,0,0,0,0-1.737h-5.035v-8.592a5.387,5.387,0,0,1,.4-2.055l.009-.017a5.388,5.388,0,0,1,.81-1.347l.055-.062c.038-.045.075-.091.115-.135s.094-.1.142-.149l.041-.044c.062-.062.128-.123.193-.183l.057-.05.139-.12.137-.106.065-.051c.064-.047.127-.092.194-.137l.013-.01a5.418,5.418,0,0,1,.913-.5c.156-.065.316-.125.477-.174l.021-.007c.067-.021.137-.041.208-.061l.05-.013c.061-.017.122-.028.183-.042l.081-.018.159-.028.108-.018c.047-.007.095-.011.143-.018l.125-.016.147-.01.122-.01c.079,0,.159,0,.239-.006h.074c.078,0,.156,0,.232,0l.126.01c.048,0,.1.006.144.01l.128.016c.047.007.093.011.139.018s.074.013.11.02c.052.008.1.017.156.027.028.006.055.013.084.02.059.013.12.025.18.041l.051.013c.069.02.14.04.208.061l.02.007a4.91,4.91,0,0,1,.477.174,5.479,5.479,0,0,1,.915.5l.009.007c.068.045.133.092.2.142.02.014.04.031.059.047.048.037.095.072.14.11s.089.075.133.115c.021.018.044.035.064.054.065.061.129.122.193.183s.109.113.163.171v0c.052.055.1.113.15.171l.03.037c.04.047.079.095.116.143.016.021.03.042.045.062.031.041.061.082.091.125l.055.079c.024.037.05.074.074.112s.04.061.058.093.042.068.062.1.04.071.059.108.035.062.052.093.041.084.062.125l.041.082c.023.048.043.1.064.146.01.02.02.041.03.065.024.057.047.115.071.174l.014.038a5.345,5.345,0,0,1,.312,1.374,7.14,7.14,0,0,0-1.769,1.157.869.869,0,1,0,1.157,1.3,5.377,5.377,0,0,1,2.326-1.219,5.73,5.73,0,0,1,.593-.106c.024,0,.047-.006.069-.009.074-.008.149-.016.222-.02l.082-.006c.094,0,.187-.008.28-.008h.008a5.4,5.4,0,0,1,3.819,1.589c.067.067.133.137.2.21s.106.122.157.183.094.118.137.177l.01.011c.041.057.079.112.118.169l.02.028c.035.051.067.1.1.153a.5.5,0,0,1,.033.05c.027.044.052.088.078.133.013.025.028.051.043.075s.038.074.057.11.037.069.054.1l.041.086c.018.043.04.086.058.13l.03.072c.02.048.04.1.058.144.009.024.016.047.026.069l.051.15.021.069c.016.051.031.1.045.153l.021.082c.013.045.024.092.034.139s.017.078.024.116l.023.108.025.17.01.057a5.324,5.324,0,0,1,.047.709c0,.11,0,.221-.011.331l0,.074c-.008.1-.018.211-.034.317l-.01.072c-.013.089-.027.176-.045.263l-.016.085c-.023.1-.047.2-.071.293-.01.037-.021.074-.031.11-.026.086-.051.171-.081.256-.011.035-.025.071-.037.108-.03.081-.061.161-.094.241-.014.034-.027.068-.043.1-.041.095-.085.191-.132.286-.011.026-.025.051-.04.076-.045.092-.1.184-.147.275a6.127,6.127,0,0,1-.433.653.717.717,0,0,0-.058.076,6.642,6.642,0,0,1-.5.569,6.02,6.02,0,0,1-1.279.937,13.1,13.1,0,0,1-2.209.967c-.329.113-.6.2-.776.245l-.218.058-.067.017a.868.868,0,0,0,.2,1.712.9.9,0,0,0,.205-.024,16.419,16.419,0,0,0,1.979-.644,13.927,13.927,0,0,0,1.739-.821,7.5,7.5,0,0,0,1.653-1.225c.139-.137.273-.285.4-.436.132,0,.265.01.4.021l.017,0,.146.013h.006l.018,0h0l.085.013c.048.007.1.013.146.021a5.047,5.047,0,0,1,2.435,1.144l.021.018c.044.037.085.075.127.115l.047.041c.031.03.062.062.094.095s.047.044.069.068l.05.055c.035.037.069.074.1.112h0c.089.1.173.207.254.314.008.013.018.024.028.037.03.041.058.084.088.125l.042.062c.024.037.047.074.071.112l.051.079c.02.034.037.068.057.1l.057.1c.016.028.03.058.045.088s.039.075.058.115l.034.074c.021.045.042.089.061.133.008.02.016.04.026.059.02.051.041.1.061.153.006.014.01.031.017.045.02.057.04.112.058.169l.011.035q.03.091.055.183l.006.027c.018.064.035.127.05.193l.006.024c.014.065.028.132.041.2l.006.033c.01.064.021.127.03.191,0,.017,0,.034.007.05.007.059.013.118.02.177,0,.028,0,.057,0,.085,0,.048.008.095.011.143,0,.076,0,.153,0,.231,0,.1,0,.21-.01.314s-.016.21-.028.314v.011c-.01.081-.023.16-.037.238l-.007.035c-.013.074-.027.146-.044.219l0,.007a5.056,5.056,0,0,1-1.313,2.4l-.017.017c-.05.051-.1.1-.154.15l-.038.035c-.119.108-.242.211-.371.309a7.092,7.092,0,0,0-6.133,1.373.869.869,0,0,0,.547,1.545.879.879,0,0,0,.545-.193,5.373,5.373,0,0,1,4.586-1.052.884.884,0,0,0,.538.185l.074,0a5.3,5.3,0,0,1,.634.275l.013.007h0a5.126,5.126,0,0,1,.569.343l.052.033.027.021a5.433,5.433,0,0,1,1.453,1.549c.065.1.126.212.184.321.011.021.021.042.031.065.047.089.091.178.132.269l.018.047c.043.1.084.2.12.3l.008.027c.038.108.074.215.106.327l0,.018c.031.113.059.227.085.341l.006.04c.023.108.043.217.057.326.006.038.009.078.013.118.01.084.021.169.027.253.008.125.013.252.013.379C821.721,247.2,821.719,247.292,821.715,247.381Z" transform="translate(-768.767 -214.901)" fill="#004b99"/>
  </g>
</svg>
