<svg xmlns="http://www.w3.org/2000/svg" width="195.995" height="154.925" viewBox="0 0 165.54 112.95"><defs><style>.cls-1{isolation:isolate;}.cls-2{fill:#cdcecd;}.cls-2,.cls-3{opacity:0.43;}.cls-11,.cls-2,.cls-3{mix-blend-mode:multiply;}.cls-3{fill:#9f9fa0;}.cls-4{fill:#626363;}.cls-5{fill:#9baead;}.cls-6{fill:#bcdcdc;}.cls-7{fill:#898a89;}.cls-8{fill:#d2d2d2;}.cls-9{fill:#b1b1b1;}.cls-10{fill:#fff;}.cls-11{fill:#c2c0bf;opacity:0.87;}.cls-12{fill:#2c9fc9;}.cls-13{fill:#f4f4f5;}.cls-14{fill:#238db3;}.cls-15{fill:#777774;}.cls-16{fill:#f3caac;}.cls-17{fill:#645f54;}.cls-18{fill:#d8b09b;}.cls-19{fill:#fae4d6;}.cls-20{fill:#e3c5b1;}.cls-21{fill:#9e9d9d;}.cls-22{fill:#e3f1f4;}.cls-23{fill:#a3cdcc;}.cls-24{fill:#2f5a7c;}.cls-25{fill:#6190bf;}.cls-26{fill:#868687;}.cls-27{fill:#a8a7a7;}</style></defs><g class="cls-1"><g id="レイヤー_2" data-name="レイヤー 2"><g id="レイヤー_1-2" data-name="レイヤー 1"><ellipse class="cls-2" cx="87.99" cy="108.47" rx="77.55" ry="4.48"/><ellipse class="cls-2" cx="70.56" cy="108.47" rx="58.5" ry="3.54"/><ellipse class="cls-3" cx="62.7" cy="108.27" rx="47.41" ry="3.07"/><path class="cls-4" d="M56.22,96.16a7.86,7.86,0,0,0-2.76,4.28,6.89,6.89,0,0,0-.37,1.63s2.56,2.14,4.09,2.38c.2,0,.7-.82.85-.67a24.18,24.18,0,0,0,2.38,2.2,3.94,3.94,0,0,0,2.51.79h1.43s2.78-2.06,1.62-2.62L63.45,103s-2.56-2.4-3.46-3.33S56.22,96.16,56.22,96.16Z"/><path class="cls-5" d="M59.28,60.61l8,10.7A7.43,7.43,0,0,1,69,79.61c-1.89,5.32-6.71,22.22-6.71,22.22a20.29,20.29,0,0,1-4.22-.92,8.35,8.35,0,0,1-3.66-2.68L59.8,79.61a3,3,0,0,0-.61-3c-2.47-2.58-9.81-8.67-9.81-8.67Z"/><path class="cls-6" d="M46.92,58.59s-1,6.4,1.7,9c1.77,1.69,6,1.61,6,1.61l6.86.14s11,5.26,12.63,6.28c1.3.83,1.47,1.07.55,2.38C71.28,82.85,63.28,94.2,63.28,94.2s2.2.06,3.91,3.85a5.17,5.17,0,0,0,2.87,2.32s9-12.64,14.46-22a5.91,5.91,0,0,0-1.77-8.42L66.25,59Z"/><rect class="cls-7" x="84.75" y="49.45" width="18.5" height="1.85" rx="0.72"/><path class="cls-8" d="M96.29,49.87h16.06l-.24-.78c-1.33-4.33-3-9.5-2-14.1l.07-.34H98.46l.1.44c1.07,4.5-.57,9.66-2,13.88Z"/><rect class="cls-9" x="95.07" y="48.98" width="18.5" height="1.85" rx="0.72"/><rect class="cls-8" x="84.12" y="15.34" width="41.52" height="26.71" rx="2.53"/><path class="cls-10" d="M95.63,49.7h16.06l-.24-.78c-1.33-4.33-3-9.49-2-14.1l.08-.34H97.79l.11.44c1.07,4.5-.57,9.66-2,13.88Z"/><path class="cls-11" d="M97.46,43.7a27.22,27.22,0,0,0,.69-3.9h11.11a30.35,30.35,0,0,0,.7,3.9Z"/><rect class="cls-10" x="82.9" y="15.34" width="41.51" height="26.71" rx="2.53"/><rect class="cls-12" x="85.35" y="17.7" width="36.61" height="21.98"/><rect class="cls-8" x="94.41" y="48.98" width="18.5" height="1.85" rx="0.72"/><path class="cls-13" d="M103,40.91a.66.66,0,1,0,.66-.66A.66.66,0,0,0,103,40.91Z"/><rect class="cls-14" x="114.82" y="30.74" width="3.76" height="0.6"/><rect class="cls-14" x="87.87" y="27.5" width="3.76" height="0.6"/><rect class="cls-14" x="111.04" y="36.37" width="3.76" height="0.6"/><polygon class="cls-14" points="107.24 33.36 106.67 33.48 108.46 37.72 114.79 37.72 114.79 37.18 108.85 37.18 107.24 33.36"/><polygon class="cls-14" points="110.9 29.66 110.51 30.05 112.28 32.33 118.57 32.33 118.57 31.75 112.56 31.77 110.9 29.66"/><rect class="cls-14" x="110.11" y="24.88" width="9.43" height="0.55"/><rect class="cls-14" x="87.87" y="28.64" width="9.43" height="0.55"/><polygon class="cls-14" points="96.18 36.57 90.24 36.57 90.24 37.11 96.58 37.11 98.37 32.87 97.8 32.75 96.18 36.57"/><polygon class="cls-14" points="96.82 21.41 90.88 21.41 90.88 20.86 97.21 20.86 99.01 25.1 98.43 25.22 96.82 21.41"/><rect class="cls-14" x="90.24" y="35.77" width="3.76" height="0.6"/><rect class="cls-14" x="115.06" y="23.99" width="4.48" height="0.6"/><rect class="cls-14" x="115.06" y="23.04" width="4.48" height="0.6"/><path class="cls-4" d="M70.09,98.61a13.22,13.22,0,0,0,.51,3.88,3.37,3.37,0,0,0,1.59,2.23c2.22.51,2.51,1.31,2.6,2.26,0,0,0,.42-.16.55-.63.46-1.58.33-2.69.32,0,0-4.08-.56-6.52-2.41s-2.54-7-3.23-6.87l-.7-.35c-.77-1.64-.26-2.29-.25-2.35s1.87-2.32,3.21-2.1c1.19.19,3.43,3.45,4.65,4.43A2.82,2.82,0,0,0,70.09,98.61Z"/><path class="cls-15" d="M64.79,97a25.9,25.9,0,0,1,1,3.24l.74-.12s1.08,2.64,1.47,3.71c.72,2,2.34,3.74,4,4,0,0-1.25-.12-1.93-.28a10,10,0,0,1-4.88-2.28c-1.64-1.46-2.69-6.08-2.74-6.07l-.86-.31c-.39-1-.79-2.94.06-3.4a1.28,1.28,0,0,1,.79-.17A2.88,2.88,0,0,1,64.79,97Z"/><polygon class="cls-16" points="52.36 24.22 55.22 13.73 61.63 15.64 60.13 24.35 52.36 24.22"/><path class="cls-16" d="M63.5,4.14l4.82.59-2,12.4c-.51,3.56-2.07,4-3.15,3.9a12.89,12.89,0,0,1-5.85-2.49c-2.32-1.64-1.93-5.82-1.92-6.16L55.29,4Z"/><path class="cls-17" d="M67.46,2.44c2.5,2.62.84,3.88.69,4a6.3,6.3,0,0,0-2.16,4l-.29,1.46c-.33,1.34-1.16,1.13-1.17,1.1s.13-.45-.19-.87S63,11.42,61.9,14l-1,2c-.89,1.84-3.69,2.62-5.32,2.24a1.36,1.36,0,0,1-1.39-.92c-.19-.44-1.46-4.57-1.83-5.77C51.11,7.53,52,4,54.33,1.85A6.85,6.85,0,0,1,57.88.37C60.22.14,61,.09,61.37.33c1.4.81,1.18-.59,2-.28.46.18.7,1.22,1.29,1.31s.77-.53.82-.51A23.32,23.32,0,0,1,67.46,2.44Z"/><path class="cls-18" d="M64.29,11.91a1.8,1.8,0,0,0-1.4,1.28A2.11,2.11,0,0,0,63,14.92a1.83,1.83,0,0,0,.86.69s.06-2,.09-2.35S64.29,11.91,64.29,11.91Z"/><path class="cls-19" d="M64.79,11.49s.6.15.18.82a3.58,3.58,0,0,0-.63,1.78c0,.43.09,1.67.09,1.67s-.41.73-.78-.23a5.58,5.58,0,0,1-.18-2C63.49,13.15,64.16,11.28,64.79,11.49Z"/><path class="cls-20" d="M90.37,46.14l6.7-2.92s2.16-1.25,3,.67c1.08,2.45,1.87,4.09,1.89,5,0,1.4-1.45,1.34-1.45,1.34l-9.93.12Z"/><path class="cls-10" d="M39.7,50.37H19.57c-8.23,0-14.92,6.38-14.92,14.22v42.49H27.71c-.07,0,0-24.73,0-38.28,0-6.69.6-13.5,8-13.5l4.19-.11Z"/><path class="cls-10" d="M115.48,50.37H140.3c8.23,0,14.92,6.38,14.92,14.22v42.49h-27.7c0-5.62,1.58-51.37-4.32-51.37l-7.72-.31Z"/><path class="cls-21" d="M0,107.08H5.28V65.58A10.45,10.45,0,0,1,16,55.4h99.36A10.46,10.46,0,0,1,126,65.58v41.5h5.27V64.59c0-7.84-6.69-14.22-14.92-14.22H14.92C6.7,50.37,0,56.75,0,64.59Z"/><path class="cls-22" d="M74.45,29.81c-.49-1.25-1.16-4-3.35-4.52a73.94,73.94,0,0,0-11.48-2.44c-1.93-.23-7.08-.66-7.08-.66l-6.78.11c-3.17.3-3.17,1.52-3.84,2.87,0,0-4.62,13-5.57,16.44-.73,2.6.94,3.23,2,3.4,2.22.36,6-.87,6-.71,0,1.27,1.89,19.38,1.89,19.38s.82,3.53,9.1,3.55c12.34,0,16.4-4.86,16.4-4.86s-4.35-5.6-4.47-8c-.32-6.36,1.57-14.65,1.57-14.65,0-.27.28-.48.48,0l3.14,8s.89,2.58,5.22,2.67c2.26,0,9.82.17,14.23-.06,0,0-.3-2.91-.47-4.08-.23-1.57-.7-2.15-1.34-2.23-2.71-.32-11.11-.61-11.11-.61-.92-.09-.61-.34-1-1.73Z"/><path class="cls-23" d="M41.2,44.9l1.7-6.67c1.34-6.1,3.2-11.17,3-10.31a82.49,82.49,0,0,0-1.68,16.37C44.09,44.25,42.73,44.65,41.2,44.9Z"/><rect class="cls-24" x="40.24" y="40.81" width="29.32" height="13.92" rx="4.2"/><path class="cls-25" d="M42.73,40.81H63.65a4.2,4.2,0,0,1,4.2,4.2v5.52a4.2,4.2,0,0,1-4.2,4.2H42.73a4.21,4.21,0,0,1-4.21-4.21V45A4.2,4.2,0,0,1,42.73,40.81Z"/><path class="cls-26" d="M52.22,69a1.18,1.18,0,0,0,1.17,1.18h0A1.18,1.18,0,0,0,54.57,69V51.56a1.18,1.18,0,0,0-1.18-1.17h0a1.18,1.18,0,0,0-1.17,1.17Z"/><path class="cls-27" d="M51.81,69A1.18,1.18,0,0,0,53,70.14h0A1.18,1.18,0,0,0,54.16,69V51.56A1.18,1.18,0,0,0,53,50.39h0a1.18,1.18,0,0,0-1.17,1.17Z"/><path class="cls-10" d="M97,32.58a2.08,2.08,0,0,0,2,1.9h2.21a2.1,2.1,0,0,0,2-2.14V23.25a2,2,0,0,0-4-.54,2.4,2.4,0,0,1,2.07,2.23.34.34,0,0,1-.1.27.36.36,0,0,1-.27.12.37.37,0,0,1-.38-.35A1.64,1.64,0,0,0,99,23.46a2.53,2.53,0,0,0-2.47,2.59,2.8,2.8,0,0,0,.31,1.27l.09.15-.14.11a2.66,2.66,0,0,0,.09,4.24,1.63,1.63,0,0,0,1-.42l0,0a1.69,1.69,0,0,0,.49-1.06.38.38,0,0,1,.38-.36.36.36,0,0,1,.37.4,2.43,2.43,0,0,1-.08.47h.17a1.92,1.92,0,0,1,1.41.59,2,2,0,0,1,.56,1.45,2.16,2.16,0,0,1-.47,1.3.38.38,0,0,1-.55,0,.42.42,0,0,1,0-.54,1.36,1.36,0,0,0,.27-.81,1.24,1.24,0,0,0-.34-.9,1.15,1.15,0,0,0-.84-.35,1.22,1.22,0,0,0-.89.39A2.33,2.33,0,0,1,97,32.58Zm4.7-3.28a1.41,1.41,0,0,1-1-.46,1.6,1.6,0,0,1-.42-1.09.81.81,0,0,0-.21-.56.68.68,0,0,0-1,0,.83.83,0,0,0-.21.43.4.4,0,0,1-.38.34.37.37,0,0,1-.28-.13.35.35,0,0,1-.09-.28,1.7,1.7,0,0,1,.41-.89,1.44,1.44,0,0,1,2.08,0,1.61,1.61,0,0,1,.42,1.09.78.78,0,0,0,.21.56.66.66,0,0,0,1,0,.8.8,0,0,0,.21-.42.39.39,0,0,1,.38-.34.36.36,0,0,1,.28.12.39.39,0,0,1,.09.29,1.64,1.64,0,0,1-.41.88A1.4,1.4,0,0,1,101.71,29.3Z"/><path class="cls-10" d="M110.77,27.62a1.66,1.66,0,0,0-1.52,1.52.38.38,0,0,1-.38.36.4.4,0,0,1-.27-.12.34.34,0,0,1-.1-.27,2.4,2.4,0,0,1,2.34-2.26h0a2.44,2.44,0,0,0,.13-.8,2.54,2.54,0,0,0-2.4-2.59,2.33,2.33,0,0,1-2.84.08.35.35,0,0,1-.14-.25.43.43,0,0,1,.08-.29.39.39,0,0,1,.52-.07,1.58,1.58,0,0,0,2-.19,2.05,2.05,0,0,0-2-1.62,2.08,2.08,0,0,0-2,2.13v9.09a2.09,2.09,0,0,0,2,2.14h2.2a2.09,2.09,0,0,0,2-2.14,2.83,2.83,0,0,0,0-.29v0a.7.7,0,0,0-.33-.37.65.65,0,0,0-.53,0,.75.75,0,0,0-.42.4,2.11,2.11,0,0,1-1.13,1.07,1.85,1.85,0,0,1-1.51-.08,2,2,0,0,1-1-1.18,2.21,2.21,0,0,1,0-1.39.37.37,0,0,1,.51-.2.4.4,0,0,1,.18.5,1.4,1.4,0,0,0,0,.86,1.2,1.2,0,0,0,.6.72,1.13,1.13,0,0,0,.92,0,1.31,1.31,0,0,0,.71-.68,1.53,1.53,0,0,1,.83-.79,1.35,1.35,0,0,1,1.13,0,1.37,1.37,0,0,1,.55.49,2.62,2.62,0,0,0,.7-1.8A2.65,2.65,0,0,0,110.77,27.62Zm-2.84-.39h-.06a1.63,1.63,0,0,1-1.07-.48.81.81,0,0,0-.54-.24h0a.71.71,0,0,0-.51.19.69.69,0,0,0-.19.5.85.85,0,0,0,.16.45.39.39,0,0,1,0,.51.36.36,0,0,1-.26.11.36.36,0,0,1-.29-.14,1.62,1.62,0,0,1-.34-.91,1.42,1.42,0,0,1,.41-1.06,1.37,1.37,0,0,1,1-.41h.06a1.57,1.57,0,0,1,1.07.47.82.82,0,0,0,.54.25h0a.69.69,0,0,0,.5-.19.66.66,0,0,0,.19-.51.82.82,0,0,0-.16-.44.42.42,0,0,1,0-.52.38.38,0,0,1,.55,0,1.55,1.55,0,0,1,.34.91,1.4,1.4,0,0,1-1.41,1.47Z"/><path class="cls-10" d="M62.74,107.55a2.67,2.67,0,0,0-2.66-2.67H49.35a2.67,2.67,0,0,0-2.66,2.67Z"/><path class="cls-10" d="M52.72,105.94V71.5c0-.52.89-.94,2-.94s2,.42,2,.94v34.36Z"/><path class="cls-24" d="M48.62,70.14c0,.81.48,1.47,1.09,1.47H76.85c.6,0,1.09-.66,1.09-1.47h0c0-.82-.49-1.48-1.09-1.48H49.71c-.61,0-1.09.66-1.09,1.48Z"/><path class="cls-25" d="M38.53,70.14c0,.81.49,1.47,1.09,1.47H66.76c.6,0,1.09-.66,1.09-1.47h0c0-.82-.49-1.48-1.09-1.48H39.62c-.6,0-1.09.66-1.09,1.48Z"/></g></g></g></svg>