<svg xmlns="http://www.w3.org/2000/svg" width="195.995" height="154.925" viewBox="0 0 195.995 154.925">
  <g id="img-main-isometric" transform="translate(115.561 91.346)">
    <g id="グループ_1731" data-name="グループ 1731" transform="translate(-115.561 -91.346)">
      <g id="レイヤー_1" data-name="レイヤー 1">
        <g id="グループ_1726" data-name="グループ 1726" transform="translate(68.107)">
          <g id="グループ_1721" data-name="グループ 1721" transform="translate(13.951 36.131)">
            <path id="パス_9997" data-name="パス 9997" d="M105.5,45.7s1.9-.079,3.647,7.294c0,0,.872,4.2,0,5.946l-2.22.317Z" transform="translate(-103.911 -45.597)" fill="#70899b"/>
            <path id="パス_9998" data-name="パス 9998" d="M103.5,49.241c0-.951.238-3.171.951-3.489s1.11-.714,2.3,3.489c.634,2.22,1.744,9.99,0,9.99S103.42,61.53,103.5,49.241Z" transform="translate(-103.496 -45.57)" fill="#53505c"/>
          </g>
          <ellipse id="楕円形_145" data-name="楕円形 145" cx="61.447" cy="3.568" rx="61.447" ry="3.568" transform="translate(0 81.109)" fill="#c4c2ba" opacity="0.43"/>
          <ellipse id="楕円形_146" data-name="楕円形 146" cx="46.382" cy="2.775" rx="46.382" ry="2.775" transform="translate(28.939 81.902)" fill="#c4c2ba" opacity="0.43"/>
          <ellipse id="楕円形_147" data-name="楕円形 147" cx="37.581" cy="2.458" rx="37.581" ry="2.458" transform="translate(43.924 82.061)" fill="#918987" opacity="0.43"/>
          <path id="パス_9999" data-name="パス 9999" d="M209.807,0H166.2V84.994h43.607c11.338,0,20.535-18.949,20.535-42.418S221.224,0,209.807,0Z" transform="translate(-102.533)" fill="#cfccc7"/>
          <path id="パス_10000" data-name="パス 10000" d="M209.887,67.936c-7.136-.634-13-16.1-19.9-15.54v.872c0,23.469-12.924,42.576-23.786,42.576h44.559c10.862,0,19.663-19.108,19.663-42.577V52.4C223.286,52.872,216.784,68.491,209.887,67.936Z" transform="translate(-102.533 -10.85)" fill="#5d5458"/>
          <ellipse id="楕円形_148" data-name="楕円形 148" cx="23.786" cy="42.497" rx="23.786" ry="42.497" transform="translate(39.881 0)" fill="#fff"/>
          <path id="パス_10001" data-name="パス 10001" d="M172.044,18.284C169.031,12.892,165.3,9.8,161.9,9.8s-7.056,3.092-10.149,8.484C147.941,25.1,145.8,34.7,145.8,44.527s2.22,19.5,5.946,26.244c3.013,5.391,6.739,8.484,10.149,8.484s7.056-3.092,10.149-8.484c3.806-6.819,5.946-16.333,5.946-26.244S175.849,25.023,172.044,18.284Z" transform="translate(-98.308 -2.03)" fill="#6a6a6d"/>
          <path id="パス_10002" data-name="パス 10002" d="M131.194,52.7l-3.251.159c-4.361.476-16.016,2.775-16.016,2.775s-1.427.476-1.427.951v3.251c0,.159.4.079.793.079h38.137V53.176Z" transform="translate(-90.996 -10.916)" fill="#84c49f"/>
          <g id="グループ_1722" data-name="グループ 1722" transform="translate(52.487 8.563)">
            <path id="パス_10003" data-name="パス 10003" d="M159.632,17.856c-4.757,7.056-7.532,16.967-7.532,27.2h3.171c0-9.594,2.537-18.87,6.977-25.371a20.9,20.9,0,0,1,6.977-6.819,12.447,12.447,0,0,0-2.775-2.061,26.324,26.324,0,0,0-6.819,7.056Z" transform="translate(-152.1 -10.8)" fill="#74bbbb"/>
            <path id="パス_10004" data-name="パス 10004" d="M170.832,18.913c-4.757,7.056-7.532,16.967-7.532,27.2h3.171c0-9.594,2.537-18.87,6.977-25.371l1.665-2.141a26.315,26.315,0,0,0-1.9-2.7,32.122,32.122,0,0,0-2.379,3.013Z" transform="translate(-154.42 -11.856)" fill="#74bbbb"/>
            <path id="パス_10005" data-name="パス 10005" d="M174.7,47.972h3.171a50.664,50.664,0,0,1,3.489-18.791,45.032,45.032,0,0,0-1.586-4.281A52.408,52.408,0,0,0,174.7,47.972Z" transform="translate(-156.781 -13.721)" fill="#74bbbb"/>
          </g>
          <path id="パス_10006" data-name="パス 10006" d="M134.99,52.555l-3.33.159c-4.44.555-16.254,2.7-16.333,2.7s-1.427.476-1.427,1.031v3.171c0,.159.4.079.793.079h38.85V52Z" transform="translate(-91.7 -10.771)" fill="#95ccaf"/>
          <path id="パス_10007" data-name="パス 10007" d="M181.512,51.986l-.4-.238a7.77,7.77,0,0,0-4.281-1.348l-13,1.269H162.8l.476,7.611h16.333a6.581,6.581,0,0,0,1.744-.079c.159-1.586.317-3.409.317-5.074A10.977,10.977,0,0,0,181.512,51.986Z" transform="translate(-101.829 -10.44)" fill="#68b486"/>
          <g id="グループ_1723" data-name="グループ 1723" transform="translate(17.678 36.21)">
            <path id="パス_10008" data-name="パス 10008" d="M110.2,45.8s1.9-.079,3.647,7.294c0,0,.872,4.2,0,5.946l-2.22.317Z" transform="translate(-108.611 -45.697)" fill="#96b6cc"/>
            <path id="パス_10009" data-name="パス 10009" d="M108.2,49.341c0-.951.238-3.171.951-3.489s1.11-.714,2.3,3.489c.634,2.22,1.744,9.99,0,9.99S108.12,61.63,108.2,49.341Z" transform="translate(-108.196 -45.67)" fill="#7b797f"/>
          </g>
          <path id="パス_10010" data-name="パス 10010" d="M175.271,56.724a9.673,9.673,0,0,0-4.361-.079,30.445,30.445,0,0,1-6.026.872h0a21.8,21.8,0,0,0-4.836.4l-4.2.793c-.951-.238-2.7-.714-3.806-1.11s-1.9.793-1.982,1.269L149.9,60.53s3.647.159,4.2.079h2.934c2.854.159,10.386-.079,10.386-.079h8.563S177.729,57.993,175.271,56.724Z" transform="translate(-99.157 -11.69)" fill="#d9b69f"/>
          <g id="グループ_1724" data-name="グループ 1724" transform="translate(5.629 48.602)">
            <path id="パス_10011" data-name="パス 10011" d="M152.5,74.1h-44v6.264h57.641a38.852,38.852,0,0,0,2.061-6.184Z" transform="translate(-96.211 -63.951)" fill="#ada7a2"/>
            <path id="パス_10012" data-name="パス 10012" d="M150.072,61.379H104.8V71.528h62.636A55.18,55.18,0,0,0,169.259,61.3Z" transform="translate(-95.444 -61.3)" fill="#c4c2ba"/>
            <path id="パス_10013" data-name="パス 10013" d="M155.065,74.2H120.1v.714h50.426l.159-.714Z" transform="translate(-98.614 -63.972)" fill="#352b31" opacity="0.25"/>
            <path id="パス_10014" data-name="パス 10014" d="M118.213,66.316c0,2.458-1.11,4.44-2.537,4.836l-1.506.634-4.757,2.061c-3.251,1.427-4.281,1.427-7.532,0l-4.836-2.141-1.506-.555C94.11,70.756,93,68.774,93,66.316h0c0-2.7,1.348-4.916,3.013-4.916H115.2c1.665,0,3.013,2.22,3.013,4.916Z" transform="translate(-93 -61.321)" fill="#fff"/>
            <path id="パス_10015" data-name="パス 10015" d="M115.6,73.168c0,1.744-.793,3.251-1.824,3.489l-1.11.4-3.409,1.506c-2.22,1.189-2.458,1.189-4.757,0l-3.568-1.506-1.11-.4C98.793,76.419,98,74.912,98,73.168h0c0-1.982.951-3.568,2.141-3.568h13.241c1.189,0,2.141,1.586,2.141,3.568Z" transform="translate(-94.036 -63.019)" fill="#fff"/>
          </g>
          <g id="グループ_1725" data-name="グループ 1725" transform="translate(98.552 27.75)">
            <path id="パス_10016" data-name="パス 10016" d="M227.881,35.793a.793.793,0,0,1-.793.793H210.993a.793.793,0,0,1-.793-.793h0a.793.793,0,0,1,.793-.793h16.174a.793.793,0,0,1,.793.793Z" transform="translate(-210.2 -35)" fill="#74bbbb"/>
            <path id="パス_10017" data-name="パス 10017" d="M228.86,39.393a.793.793,0,0,1-.793.793H211.893a.793.793,0,0,1-.793-.793h0a.793.793,0,0,1,.793-.793h16.174A.793.793,0,0,1,228.86,39.393Z" transform="translate(-210.386 -35.746)" fill="#74bbbb"/>
            <path id="パス_10018" data-name="パス 10018" d="M229.281,42.893a.793.793,0,0,1-.793.793h-16.1a.793.793,0,0,1-.793-.793h0a.793.793,0,0,1,.793-.793h16.174a.793.793,0,0,1,.793.793Z" transform="translate(-210.49 -36.471)" fill="#74bbbb"/>
            <path id="パス_10019" data-name="パス 10019" d="M229.581,46.493a.793.793,0,0,1-.793.793H212.693a.793.793,0,0,1-.793-.793h0a.793.793,0,0,1,.793-.793h16.174a.793.793,0,0,1,.793.793Z" transform="translate(-210.552 -37.216)" fill="#74bbbb"/>
          </g>
        </g>
        <g id="グループ_1727" data-name="グループ 1727" transform="translate(8.325 147.789)">
          <ellipse id="楕円形_149" data-name="楕円形 149" cx="61.447" cy="3.568" rx="61.447" ry="3.568" fill="#c4c2ba" opacity="0.43"/>
          <ellipse id="楕円形_150" data-name="楕円形 150" cx="46.382" cy="2.775" rx="46.382" ry="2.775" transform="translate(1.269 0.793)" fill="#c4c2ba" opacity="0.43"/>
          <ellipse id="楕円形_151" data-name="楕円形 151" cx="37.581" cy="2.458" rx="37.581" ry="2.458" transform="translate(3.806 0.951)" fill="#918987" opacity="0.43"/>
        </g>
        <g id="グループ_1730" data-name="グループ 1730" transform="translate(0 65.282)">
          <path id="パス_10020" data-name="パス 10020" d="M55.537,178.6a6.263,6.263,0,0,0-2.22,3.409A5.232,5.232,0,0,0,53,183.278a11.415,11.415,0,0,0,3.251,1.9c1.189.238.555-.634.714-.555l1.9,1.744a3.091,3.091,0,0,0,1.982.634h1.11s2.22-1.665,1.269-2.061l-1.982-.951-2.7-2.616C57.836,180.582,55.537,178.6,55.537,178.6Z" transform="translate(-10.978 -102.278)" fill="#4c4448"/>
          <path id="パス_10021" data-name="パス 10021" d="M57.27,143l6.343,8.484a5.867,5.867,0,0,1,1.427,6.581c-1.506,4.2-5.312,17.6-5.312,17.6a16.337,16.337,0,0,1-3.33-.714,6.66,6.66,0,0,1-2.934-2.141l4.281-14.747a2.379,2.379,0,0,0-.476-2.458c-1.982-2.061-7.77-6.9-7.77-6.9Z" transform="translate(-10.254 -94.904)" fill="#8e9e94"/>
          <path id="パス_10022" data-name="パス 10022" d="M46.862,141s-.793,5.074,1.348,7.136a5.094,5.094,0,0,0,4.757,1.269h5.471s8.721,4.2,9.99,5,1.189.872.4,1.9l-8.959,12.924s1.744.079,3.092,3.013a4.044,4.044,0,0,0,2.3,1.824s7.136-9.99,11.5-17.443a4.678,4.678,0,0,0-1.427-6.66l-13.082-8.721Z" transform="translate(-9.677 -94.489)" fill="#b3d9c8"/>
          <rect id="長方形_1124" data-name="長方形 1124" width="14.668" height="1.467" rx="0.654" transform="translate(67.234 39.296)" fill="#797170"/>
          <path id="パス_10023" data-name="パス 10023" d="M96.3,129.151h12.765l-.159-.634c-1.031-3.409-2.379-7.532-1.586-11.179V117.1H98.044v.317c.872,3.568-.476,7.691-1.586,11.021Z" transform="translate(-19.948 -89.539)" fill="#cac6c0"/>
          <rect id="長方形_1125" data-name="長方形 1125" width="14.668" height="1.467" rx="0.654" transform="translate(75.401 38.899)" fill="#a49e9a"/>
          <rect id="長方形_1126" data-name="長方形 1126" width="32.904" height="21.177" rx="2.337" transform="translate(66.679 12.259)" fill="#cac6c0"/>
          <path id="パス_10024" data-name="パス 10024" d="M95.6,128.951h12.765l-.159-.634c-1.031-3.409-2.379-7.532-1.586-11.179V116.9H97.344v.317c.872,3.568-.476,7.691-1.586,11.021Z" transform="translate(-19.803 -89.497)" fill="#fff"/>
          <path id="パス_10025" data-name="パス 10025" d="M97.5,125.292a21.564,21.564,0,0,0,.555-3.092h8.8a23.712,23.712,0,0,0,.555,3.092Z" transform="translate(-20.196 -90.595)" fill="#b7b0aa" opacity="0.87"/>
          <rect id="長方形_1127" data-name="長方形 1127" width="32.904" height="21.177" rx="2.337" transform="translate(65.728 12.259)" fill="#fff"/>
          <rect id="長方形_1128" data-name="長方形 1128" width="29.019" height="17.427" transform="translate(67.71 14.083)" fill="#4894af"/>
          <rect id="長方形_1129" data-name="長方形 1129" width="14.668" height="1.467" rx="0.654" transform="translate(74.846 38.899)" fill="#cac6c0"/>
          <path id="パス_10026" data-name="パス 10026" d="M103,123.255a.555.555,0,1,0,.555-.555A.555.555,0,0,0,103,123.255Z" transform="translate(-21.336 -90.699)" fill="#f1f0ed"/>
          <rect id="長方形_1130" data-name="長方形 1130" width="3.013" height="0.476" transform="translate(91.02 24.469)" fill="#3d7b99"/>
          <rect id="長方形_1131" data-name="長方形 1131" width="3.013" height="0.476" transform="translate(69.692 21.853)" fill="#3d7b99"/>
          <rect id="長方形_1132" data-name="長方形 1132" width="3.013" height="0.476" transform="translate(88.007 28.909)" fill="#3d7b99"/>
          <path id="パス_10027" data-name="パス 10027" d="M107.1,115.8l-.4.079,1.427,3.409h5v-.476h-4.678Z" transform="translate(-22.102 -89.269)" fill="#3d7b99"/>
          <path id="パス_10028" data-name="パス 10028" d="M110.817,112.1l-.317.317,1.427,1.824h5v-.476h-4.757Z" transform="translate(-22.889 -88.503)" fill="#3d7b99"/>
          <rect id="長方形_1133" data-name="長方形 1133" width="7.453" height="0.436" transform="translate(87.294 19.791)" fill="#3d7b99"/>
          <rect id="長方形_1134" data-name="長方形 1134" width="7.453" height="0.436" transform="translate(69.692 22.804)" fill="#3d7b99"/>
          <path id="パス_10029" data-name="パス 10029" d="M94.957,118.213H90.2v.4h5.074l1.427-3.33-.476-.079Z" transform="translate(-18.684 -89.145)" fill="#3d7b99"/>
          <path id="パス_10030" data-name="パス 10030" d="M95.578,103.7H90.9v-.4h5l1.427,3.33-.476.159Z" transform="translate(-18.829 -86.68)" fill="#3d7b99"/>
          <rect id="長方形_1135" data-name="長方形 1135" width="3.013" height="0.476" transform="translate(71.516 28.434)" fill="#3d7b99"/>
          <rect id="長方形_1136" data-name="長方形 1136" width="3.568" height="0.476" transform="translate(91.258 19.078)" fill="#3d7b99"/>
          <rect id="長方形_1137" data-name="長方形 1137" width="3.568" height="0.476" transform="translate(91.258 18.364)" fill="#3d7b99"/>
          <path id="パス_10031" data-name="パス 10031" d="M68.224,180.1a10.465,10.465,0,0,0,.4,3.092,2.7,2.7,0,0,0,1.269,1.744c1.744.4,1.982,1.031,2.061,1.824s0,.317-.159.476a6.212,6.212,0,0,1-2.141.238,10.038,10.038,0,0,1-5.154-1.9c-1.9-1.427-1.982-5.629-2.537-5.471l-.555-.238a2.072,2.072,0,0,1-.238-1.9c0-.079,1.506-1.824,2.537-1.665s2.7,2.7,3.726,3.489A2.14,2.14,0,0,0,68.224,180.1Z" transform="translate(-12.645 -101.799)" fill="#4c4448"/>
          <path id="パス_10032" data-name="パス 10032" d="M64.025,179.126a20.617,20.617,0,0,1,.793,2.537h.555l1.189,2.934a4.7,4.7,0,0,0,3.171,3.171l-1.586-.317a7.928,7.928,0,0,1-3.885-1.824c-1.269-1.189-2.141-4.836-2.141-4.836l-.714-.238c-.317-.793-.634-2.3.079-2.7a1.031,1.031,0,0,1,.634-.159A2.3,2.3,0,0,1,64.025,179.126Z" transform="translate(-12.647 -102.091)" fill="#645b5a"/>
          <path id="パス_10033" data-name="パス 10033" d="M52.4,104.525,54.62,96.2l5.074,1.506-1.189,6.9Z" transform="translate(-10.854 -85.209)" fill="#f4ba96"/>
          <path id="パス_10034" data-name="パス 10034" d="M61.817,86.559l3.806.476-1.586,9.831c-.4,2.854-1.665,3.171-2.458,3.092A10.307,10.307,0,0,1,56.9,97.976c-1.824-1.269-1.506-4.6-1.506-4.916V86.4Z" transform="translate(-11.47 -83.179)" fill="#f4ba96"/>
          <path id="パス_10035" data-name="パス 10035" d="M64.249,84.369c1.982,2.061.634,3.092.555,3.171a5,5,0,0,0-1.744,3.171L62.822,91.9c-.238,1.031-.951.872-.951.872a1.013,1.013,0,0,0-.159-.714c-.238-.4-1.031-.555-1.9,1.506l-.793,1.586a4.123,4.123,0,0,1-4.2,1.744,1.11,1.11,0,0,1-1.11-.714c-.159-.317-1.189-3.647-1.427-4.6-1.031-3.251-.317-6.026,1.586-7.77a5.471,5.471,0,0,1,2.775-1.189c1.824-.159,2.458-.238,2.775,0s.951-.476,1.506-.238.555.951,1.031,1.031a.583.583,0,0,0,.634-.4A17.841,17.841,0,0,1,64.249,84.369Z" transform="translate(-10.731 -82.338)" fill="#4c3e38"/>
          <g id="グループ_1728" data-name="グループ 1728" transform="translate(49.765 9.155)">
            <path id="パス_10036" data-name="パス 10036" d="M63.982,94.3a1.427,1.427,0,0,0-1.11,1.031,1.665,1.665,0,0,0,.079,1.348,1.427,1.427,0,0,0,.714.555s.079-1.586.079-1.9A10.385,10.385,0,0,1,63.982,94.3Z" transform="translate(-62.766 -93.971)" fill="#d19b84"/>
            <path id="パス_10037" data-name="パス 10037" d="M64.526,93.9s.476.079.159.634a2.854,2.854,0,0,0-.476,1.427c0,.317.079,1.348.079,1.348s-.317.555-.634-.159a4.2,4.2,0,0,1-.159-1.586C63.5,95.245,64.05,93.738,64.526,93.9Z" transform="translate(-62.914 -93.885)" fill="#f9d9c8"/>
          </g>
          <path id="パス_10038" data-name="パス 10038" d="M90.4,127.913l5.312-2.3s1.744-1.031,2.379.555,1.506,3.251,1.506,3.964-1.11,1.031-1.11,1.031H90.559Z" transform="translate(-18.726 -91.234)" fill="#deb49b"/>
          <path id="パス_10039" data-name="パス 10039" d="M32.45,132.8H16.514c-6.5,0-11.814,5.074-11.814,11.259v33.7H22.936c-.079,0,0-19.584,0-30.366,0-5.312.476-10.7,6.343-10.7h3.33Z" transform="translate(-0.974 -92.791)" fill="#fff"/>
          <path id="パス_10040" data-name="パス 10040" d="M115.5,132.8h19.663c6.5,0,11.814,5.074,11.814,11.259v33.7H125.014c0-4.44,1.269-40.753-3.409-40.753l-6.105-.238Z" transform="translate(-23.925 -92.791)" fill="#fff"/>
          <path id="パス_10041" data-name="パス 10041" d="M0,177.755H4.2v-32.9a8.325,8.325,0,0,1,8.484-8.087H91.5a8.325,8.325,0,0,1,8.4,8.087v32.9h4.2v-33.7c0-6.184-5.312-11.259-11.814-11.259H11.814C5.312,132.8,0,137.874,0,144.059Z" transform="translate(0 -92.791)" fill="#8f8785"/>
          <path id="パス_10042" data-name="パス 10042" d="M66.55,110.626c-.4-.951-.951-3.171-2.7-3.568a58.751,58.751,0,0,0-9.118-1.9l-5.629-.555H43.795c-2.537.238-2.537,1.189-3.013,2.3s-3.647,10.386-4.44,13,.714,2.537,1.586,2.7,4.757-.714,4.757-.555,1.506,15.381,1.506,15.381.634,2.775,7.215,2.775c9.752,0,13-3.885,13-3.885s-3.489-4.44-3.568-6.343A51.474,51.474,0,0,1,62.11,118.4s.238-.4.4,0l2.458,6.343s.714,2.061,4.123,2.141c1.824,0,7.77.159,11.259-.079,0,0-.238-2.3-.4-3.251s-.555-1.744-1.031-1.744c-2.141-.238-8.8-.476-8.8-.476s-.476-.238-.793-1.348Z" transform="translate(-7.482 -86.949)" fill="#dcefeb"/>
          <path id="パス_10043" data-name="パス 10043" d="M41.2,123.757l1.348-5.312a44.271,44.271,0,0,1,2.379-8.166,65.171,65.171,0,0,0-1.348,13Z" transform="translate(-8.534 -88.109)" fill="#99c7b5"/>
          <rect id="長方形_1138" data-name="長方形 1138" width="23.231" height="11.037" rx="3.927" transform="translate(31.873 32.477)" fill="#2a3963"/>
          <rect id="長方形_1139" data-name="長方形 1139" width="23.231" height="11.037" rx="3.927" transform="translate(30.525 32.477)" fill="#5c7da9"/>
          <g id="グループ_1729" data-name="グループ 1729" transform="translate(41.07 40.009)">
            <path id="パス_10044" data-name="パス 10044" d="M52.2,147.547a.951.951,0,0,0,.951.951h0a.951.951,0,0,0,.951-.951v-13.8a.951.951,0,0,0-.951-.951h0a.951.951,0,0,0-.951.951Z" transform="translate(-51.883 -132.8)" fill="#766d6e"/>
            <path id="パス_10045" data-name="パス 10045" d="M51.8,147.547a.951.951,0,0,0,.951.951h0a.951.951,0,0,0,.951-.951v-13.8a.951.951,0,0,0-.951-.951h0a.951.951,0,0,0-.951.951Z" transform="translate(-51.8 -132.8)" fill="#9a938f"/>
          </g>
          <path id="パス_10046" data-name="パス 10046" d="M96.73,112.6a1.665,1.665,0,0,0,1.586,1.506h1.744a1.665,1.665,0,0,0,1.586-1.665v-7.215a1.6,1.6,0,0,0-3.171-.4,1.9,1.9,0,0,1,1.665,1.744.317.317,0,0,1-.079.238H99.9a.317.317,0,0,1-.317-.317,1.269,1.269,0,0,0-1.269-1.189,1.982,1.982,0,0,0-1.982,2.061,2.141,2.141,0,0,0,.238,1.031v.159h-.079a2.163,2.163,0,0,0,.079,3.409,1.268,1.268,0,0,0,.793-.317h0a1.348,1.348,0,0,0,.4-.872.317.317,0,0,1,.317-.317h.238a.317.317,0,0,1,.079.238v.4h.159a1.506,1.506,0,0,1,1.11.476,1.586,1.586,0,0,1,.476,1.189,1.665,1.665,0,0,1-.4,1.031.31.31,0,1,1-.476-.4,1.11,1.11,0,0,0,.238-.634,1.031,1.031,0,0,0-.238-.714.872.872,0,0,0-.634-.317,1.031,1.031,0,0,0-.714.317A1.824,1.824,0,0,1,96.73,112.6Zm3.726-2.616a1.11,1.11,0,0,1-.793-.4,1.268,1.268,0,0,1-.317-.872.634.634,0,0,0-.159-.476.555.555,0,0,0-.793,0,.634.634,0,0,0-.159.317.317.317,0,0,1-.317.238h-.238a.317.317,0,0,1-.079-.238,1.268,1.268,0,0,1,.317-.714,1.11,1.11,0,0,1,1.665,0,1.269,1.269,0,0,1,.317.872.634.634,0,0,0,.159.476.555.555,0,0,0,.793,0,.635.635,0,0,0,.159-.317.317.317,0,0,1,.317-.238h.238a.317.317,0,0,1,.079.238,1.269,1.269,0,0,1-.317.714A1.11,1.11,0,0,1,100.457,109.988Z" transform="translate(-19.823 -86.708)" fill="#fff"/>
          <path id="パス_10047" data-name="パス 10047" d="M109.454,108.774a1.269,1.269,0,0,0-1.189,1.189.317.317,0,0,1-.317.317h-.238a.317.317,0,0,1-.079-.238,1.9,1.9,0,0,1,1.824-1.824h0a2.14,2.14,0,0,0,.079-.634,1.982,1.982,0,0,0-1.9-2.061,1.823,1.823,0,0,1-2.22.079v-.159a.329.329,0,0,1,.476-.317,1.269,1.269,0,0,0,1.586-.159,1.6,1.6,0,0,0-3.171.4v7.215a1.665,1.665,0,0,0,1.586,1.665h1.744a1.665,1.665,0,0,0,1.586-1.665v-.238h0l-.238-.317h-.4a.635.635,0,0,0-.317.317,1.665,1.665,0,0,1-.872.872,1.506,1.506,0,0,1-1.189-.079,1.586,1.586,0,0,1-.793-.951,1.744,1.744,0,0,1,0-1.11.3.3,0,1,1,.555.238,1.11,1.11,0,0,0,0,.714.952.952,0,0,0,.476.555.872.872,0,0,0,.714,0,1.031,1.031,0,0,0,.555-.555,1.19,1.19,0,0,1,.634-.634,1.11,1.11,0,0,1,.872.079l.4.4a2.141,2.141,0,0,0-.238-3.013Zm-2.22-.317h-.079a1.269,1.269,0,0,1-.872-.4l-.4-.159h0l-.4.159a.555.555,0,0,0-.159.4.634.634,0,0,0,.159.317.317.317,0,0,1,0,.4h-.476a1.269,1.269,0,0,1-.238-.714,1.11,1.11,0,0,1,1.11-1.189h.079a1.269,1.269,0,0,1,.872.4l.4.159h0l.4-.159a.555.555,0,0,0,.159-.4.634.634,0,0,0-.159-.317.31.31,0,0,1,.476-.4,1.268,1.268,0,0,1,.238.714,1.11,1.11,0,0,1-1.11,1.189Z" transform="translate(-21.605 -86.763)" fill="#fff"/>
          <path id="パス_10048" data-name="パス 10048" d="M59.365,189.441a2.141,2.141,0,0,0-2.141-2.141H48.741a2.141,2.141,0,0,0-2.141,2.141Z" transform="translate(-9.653 -104.08)" fill="#fff"/>
          <path id="パス_10049" data-name="パス 10049" d="M52.7,181.067h0V153.714c0-.4.714-.714,1.586-.714s1.586.317,1.586.714v27.274Z" transform="translate(-10.916 -96.975)" fill="#fff"/>
          <path id="パス_10050" data-name="パス 10050" d="M48.6,152.289c0,.634.4,1.189.872,1.189H70.959c.476,0,.872-.555.872-1.189h0c0-.634-.4-1.189-.872-1.189H49.472C49,151.1,48.6,151.655,48.6,152.289Z" transform="translate(-10.067 -96.581)" fill="#2a3963"/>
          <path id="パス_10051" data-name="パス 10051" d="M38.5,152.289c0,.634.4,1.189.872,1.189H60.938c.476,0,.872-.555.872-1.189h0c0-.634-.4-1.189-.872-1.189H39.372C38.9,151.1,38.5,151.655,38.5,152.289Z" transform="translate(-7.975 -96.581)" fill="#5c7da9"/>
        </g>
      </g>
    </g>
  </g>
</svg>
