<svg xmlns="http://www.w3.org/2000/svg" width="195.995" height="154.925" viewBox="0 0 161.27 111.31"><defs><style>.cls-1{isolation:isolate;}.cls-2{fill:#7a9cb3;}.cls-3{fill:#666e76;}.cls-18,.cls-4{fill:#cdcecd;}.cls-4,.cls-5{opacity:0.43;}.cls-19,.cls-4,.cls-5{mix-blend-mode:multiply;}.cls-5{fill:#9f9fa0;}.cls-6{fill:#d7d7d7;}.cls-7{fill:#717272;}.cls-8{fill:#fff;}.cls-9{fill:#7a8486;}.cls-10{fill:#8cc7b8;}.cls-11{fill:#73c0d3;}.cls-12{fill:#9fcfc6;}.cls-13{fill:#6ab9a0;}.cls-14{fill:#9fc1de;}.cls-15{fill:#8a9098;}.cls-16{fill:#dfc6b4;}.cls-17{fill:#b9b8b8;}.cls-19{fill:#4c4b4c;opacity:0.25;}</style></defs><g class="cls-1"><g id="レイヤー_2" data-name="レイヤー 2"><g id="レイヤー_1-2" data-name="レイヤー 1"><path class="cls-2" d="M19.57,45.68s2.35,0,4.56,9.23c0,0,1.15,5.34,0,7.55l-2.79.37Z"/><path class="cls-3" d="M17.6,50.2c0-1.15.28-4,1.23-4.39.63-.27,1.44-.94,2.88,4.39.76,2.83,2.17,12.61,0,12.63S17.52,65.71,17.6,50.2Z"/><ellipse class="cls-4" cx="77.55" cy="106.83" rx="77.55" ry="4.48"/><ellipse class="cls-4" cx="94.98" cy="106.83" rx="58.5" ry="3.54"/><ellipse class="cls-5" cx="102.84" cy="106.62" rx="47.41" ry="3.07"/><path class="cls-6" d="M135.34,0c-.32,0-.64,0-1,0H80.29V107.16l55-.09c14.32,0,25.94-23.93,25.94-53.51S149.66,0,135.34,0Z"/><path class="cls-7" d="M135.37,72c-9-.76-16.37-20.3-25.12-19.59,0-.09,0,.62,0,1.08,0,29.58-16.31,53.66-30,53.66l56.2-.09c13.66,0,24.78-24.11,24.78-53.69v-1.1C152.3,53.05,144.12,72.71,135.37,72Z"/><ellipse class="cls-8" cx="80.29" cy="53.58" rx="29.98" ry="53.56"/><path class="cls-9" d="M93,20.46C89.22,13.63,84.57,9.72,80.28,9.72s-8.93,3.91-12.75,10.74C62.73,29,60,41.11,60,53.6s2.75,24.58,7.55,33.15C71.35,93.57,76,97.49,80.28,97.49S89.22,93.57,93,86.75c4.79-8.57,7.51-20.61,7.51-33.11S97.83,29,93,20.46Z"/><path class="cls-10" d="M50.66,52.67a32.7,32.7,0,0,0-4.08.2c-5.52.6-20.16,3.49-20.18,3.49-.93.26-1.76.57-1.75,1.18v4.1c0,.23.48.11,1,.06H73.76l0-8.41Z"/><path class="cls-11" d="M75.66,19.73c-6,8.9-9.46,21.39-9.46,34.28h4c0-12.11,3.2-23.78,8.77-32,2.69-4,5.8-7,8.78-8.61a15.56,15.56,0,0,0-3.45-2.57A33,33,0,0,0,75.66,19.73Z"/><path class="cls-11" d="M87,19.73c-6,8.9-9.46,21.39-9.46,34.28h4c0-12.11,3.2-23.78,8.77-32,.65-1,1.37-1.9,2.06-2.73A32.86,32.86,0,0,0,90,15.82,41.48,41.48,0,0,0,87,19.73Z"/><path class="cls-11" d="M88.78,54h4a63.88,63.88,0,0,1,4.38-23.7,56.4,56.4,0,0,0-2-5.37A66.22,66.22,0,0,0,88.78,54Z"/><path class="cls-12" d="M54.61,52.72a33.73,33.73,0,0,0-4.15.22c-5.63.67-20.55,3.37-20.56,3.37-.95.28-1.79.62-1.79,1.29v4c0,.25.5.11,1,.06h49l0-9.66Z"/><path class="cls-13" d="M100.55,52.41l-.45-.29a9.89,9.89,0,0,0-5.42-1.71L78.19,52,78,52l-1.1,0,.57,9.62H98a8.63,8.63,0,0,0,2.22-.08c.17-2,.38-4.3.38-6.38C100.59,54.27,100.57,53.64,100.55,52.41Z"/><path class="cls-14" d="M24.27,45.77s2.36-.05,4.56,9.23c0,0,1.15,5.34,0,7.55l-2.78.36Z"/><path class="cls-15" d="M22.31,50.29c0-1.15.27-4,1.22-4.39.63-.27,1.44-.94,2.89,4.39.76,2.82,2.16,12.6,0,12.63S22.23,65.79,22.31,50.29Z"/><path class="cls-16" d="M96,56.76a12.19,12.19,0,0,0-5.47-.06,37.81,37.81,0,0,1-7.59,1.1h0a27.44,27.44,0,0,0-6.14.51l-5.29,1c-1.2-.31-3.35-.88-4.83-1.42-.71-.26-2.42,1-2.5,1.64s-.21,2.12-.21,2.12,4.6.24,5.32.14c.19,0,.59-.06,1-.13.82,0,1.53,0,2.72.13,3.58.22,13.14-.14,13.14-.14s2.78.08,5.77,0l5,0S99.14,58.36,96,56.76Z"/><path class="cls-17" d="M78.11,74.08H22.61V82H95.33A49.22,49.22,0,0,0,98,74.21Z"/><path class="cls-18" d="M76,61.38H18.93V74.21H98a69.53,69.53,0,0,0,2.27-12.9Z"/><path class="cls-19" d="M78.3,74.21H34.19v.91H97.77c.07-.3.14-.6.2-.91Z"/><path class="cls-8" d="M38.91,67.56c0,3.09-1.39,5.65-3.21,6.11a12.25,12.25,0,0,0-1.91.76l-6,2.55c-4.07,1.8-5.43,1.8-9.5,0L12.2,74.32a12.18,12.18,0,0,0-1.9-.65c-1.82-.46-3.21-3-3.21-6.11h0c0-3.41,1.7-6.18,3.79-6.18H35.12c2.09,0,3.79,2.77,3.79,6.18Z"/><path class="cls-8" d="M34.27,74.08c0,2.23-1,4.08-2.31,4.41a9,9,0,0,0-1.38.47l-4.35,1.92c-2.84,1.54-3.11,1.54-6,0L15.83,79a8,8,0,0,0-1.38-.47c-1.31-.33-2.31-2.18-2.31-4.41h0c0-2.46,1.22-4.46,2.73-4.46H31.54c1.51,0,2.73,2,2.73,4.46Z"/><path class="cls-11" d="M146.63,36a1,1,0,0,1-1,1H125.28a1,1,0,0,1-1-1h0a1,1,0,0,1,1-1h20.37a1,1,0,0,1,1,1Z"/><path class="cls-11" d="M147.6,39.57a1,1,0,0,1-1,1H126.25a1,1,0,0,1-1-1h0a1,1,0,0,1,1-1h20.38a1,1,0,0,1,1,1Z"/><path class="cls-11" d="M148,43.15a1,1,0,0,1-1,1H126.66a1,1,0,0,1-1-1h0a1,1,0,0,1,1-1H147a1,1,0,0,1,1,1Z"/><path class="cls-11" d="M148.32,46.72a1,1,0,0,1-1,1H127a1,1,0,0,1-1-1h0a1,1,0,0,1,1-1h20.37a1,1,0,0,1,1,1Z"/></g></g></g></svg>