<svg xmlns="http://www.w3.org/2000/svg" viewBox="0 0 16.98 16.1"><defs><style>.cls-1{fill:#005ca7;}</style></defs><g id="レイヤー_2" data-name="レイヤー 2"><g id="レイヤー_3" data-name="レイヤー 3"><path class="cls-1" d="M10.78,7.69a33,33,0,0,0,3.15-6.05,1.17,1.17,0,0,0,0-1.08A1.28,1.28,0,0,0,12.78,0H2.25a.8.8,0,0,0-.8.85.8.8,0,0,0,.8.86h8.42C8.44,7.63,5.38,11.49.48,14.57A.8.8,0,0,0,.1,15.68a.67.67,0,0,0,.62.42A1.19,1.19,0,0,0,1.2,16,25.7,25.7,0,0,0,9.64,9.14a32,32,0,0,1,4.77,6.36.8.8,0,0,0,.69.45.92.92,0,0,0,.53-.2l1-.72a.89.89,0,0,0,.17-1.3,28.39,28.39,0,0,0-6-6"/></g></g></svg>