<svg xmlns="http://www.w3.org/2000/svg" viewBox="0 0 26.12 27.15"><defs><style>.cls-1{fill:#005ca7;}</style></defs><g id="レイヤー_2" data-name="レイヤー 2"><g id="レイヤー_3" data-name="レイヤー 3"><path class="cls-1" d="M10.59,6.4V7.5A3.1,3.1,0,0,0,7.5,10.59H6.4A4.2,4.2,0,0,1,10.59,6.4"/><path class="cls-1" d="M10.47,3.39h.12V4.71h-.12a5.76,5.76,0,0,0-5.76,5.76v.12H3.39v-.12a7.09,7.09,0,0,1,7.08-7.08"/><path class="cls-1" d="M10.59,0V1.54a9.06,9.06,0,0,0-9,9.05H0A10.6,10.6,0,0,1,10.59,0"/><polyline class="cls-1" points="9.89 27.15 23.86 27.15 24.6 24.83 9.16 24.83 9.89 27.15"/><polyline class="cls-1" points="9.35 24.21 24.41 24.21 19.94 18.21 13.82 18.21 9.35 24.21"/><path class="cls-1" d="M8.54,16.28a8.34,8.34,0,1,1,14.72,5.35l.55.75a9.24,9.24,0,1,0-13.87,0l.56-.75a8.3,8.3,0,0,1-2-5.35"/><path class="cls-1" d="M12.63,16.28a4.25,4.25,0,1,1,8.49,0,4.2,4.2,0,0,1-.44,1.88L23,21.23a7.76,7.76,0,0,0,1.77-4.95,7.85,7.85,0,1,0-13.94,4.95l2.29-3.07a4.2,4.2,0,0,1-.45-1.88"/></g></g></svg>