<svg xmlns="http://www.w3.org/2000/svg" viewBox="0 0 171.17 35.39"><defs><style>.cls-1{fill:none;stroke:#005ca7;stroke-width:1.77px;}.cls-2{fill:#005ca7;}</style></defs><g id="レイヤー_2" data-name="レイヤー 2"><g id="レイヤー_3" data-name="レイヤー 3"><path class="cls-1" d="M166.76,7.43H21.14V4A3.12,3.12,0,0,0,18,.89,15.57,15.57,0,0,0,5.33,7.43H4.41A3.53,3.53,0,0,0,.89,11V31A3.53,3.53,0,0,0,4.41,34.5H166.76A3.53,3.53,0,0,0,170.28,31V11A3.53,3.53,0,0,0,166.76,7.43Z"/><path class="cls-2" d="M17.44,10.58v1.1a3.08,3.08,0,0,0-3.08,3.09h-1.1a4.19,4.19,0,0,1,4.18-4.19"/><path class="cls-2" d="M17.32,7.56h.12V8.89h-.12a5.78,5.78,0,0,0-5.76,5.77s0,.08,0,.12H10.24v-.12a7.1,7.1,0,0,1,7.08-7.09"/><path class="cls-2" d="M17.44,4.18V5.72a9.06,9.06,0,0,0-9,9.05H6.85A10.6,10.6,0,0,1,17.44,4.18"/><polyline class="cls-2" points="16.74 31.32 30.72 31.32 31.45 29.01 16.01 29.01 16.74 31.32"/><polyline class="cls-2" points="16.2 28.39 31.26 28.39 26.79 22.39 20.67 22.39 16.2 28.39"/><path class="cls-2" d="M15.4,20.45a8.34,8.34,0,1,1,14.71,5.36l.56.74a9.25,9.25,0,1,0-13.87,0l.55-.74a8.29,8.29,0,0,1-2-5.36"/><path class="cls-2" d="M19.49,20.45a4.25,4.25,0,1,1,8,1.89l2.29,3.07a7.86,7.86,0,1,0-12.17,0l2.28-3.07a4.27,4.27,0,0,1-.44-1.89"/></g></g></svg>