<svg xmlns="http://www.w3.org/2000/svg" viewBox="0 0 63.6 17.64"><defs><style>.cls-1{fill:#4c4948;}</style></defs><g id="レイヤー_2" data-name="レイヤー 2"><g id="レイヤー_3" data-name="レイヤー 3"><path class="cls-1" d="M61.41,13.34a2.15,2.15,0,1,1-2.18,2.14A2.14,2.14,0,0,1,61.41,13.34Zm0,3.88a1.74,1.74,0,0,0,0-3.47,1.74,1.74,0,0,0,0,3.47Zm-.82-.61V14.43a5,5,0,0,1,.8-.07c.39,0,1,.07,1,.64a.54.54,0,0,1-.44.5v0c.21.07.31.24.37.53a1.72,1.72,0,0,0,.17.54h-.5a2.25,2.25,0,0,1-.16-.54c-.08-.34-.27-.34-.72-.34v.88Zm.48-1.23c.37,0,.77,0,.77-.33s-.14-.34-.49-.34a1.28,1.28,0,0,0-.28,0Z"/><path class="cls-1" d="M9.5,7.67a.55.55,0,0,0-.36-.14.53.53,0,0,0-.45.27L8.55,8a.61.61,0,0,0,.1.85c.44.37,1.07,1,1.88,1.84A14.2,14.2,0,0,1,8.7,12.84a.59.59,0,0,0-.08.84l.14.21a.5.5,0,0,0,.79.13,14.1,14.1,0,0,0,2-2.1l1.32,1.58a.5.5,0,0,0,.82,0l.27-.3a.6.6,0,0,0,0-.85c-.57-.73-1.08-1.33-1.49-1.78a19.24,19.24,0,0,0,1.53-2.94.58.58,0,0,0-.32-.79l-.55-.26a.64.64,0,0,0-.28-.07c-.15,0-.36.07-.49.41a15,15,0,0,1-1.07,2.41C10.69,8.71,10,8.1,9.5,7.67"/><path class="cls-1" d="M10.42,4.71c.1.41.36.47.5.47a.93.93,0,0,0,.22,0l.64-.23a.56.56,0,0,0,.38-.75A31.21,31.21,0,0,0,11,.38.53.53,0,0,0,10.24,0l-.6.2a.56.56,0,0,0-.35.28.64.64,0,0,0,0,.51c.41,1.14.79,2.37,1.14,3.68"/><path class="cls-1" d="M7.87,5.6a.79.79,0,0,0,.24,0l.64-.22a.59.59,0,0,0,.36-.77A36.25,36.25,0,0,0,7.92,1.09.52.52,0,0,0,7.18.75L6.61,1a.57.57,0,0,0-.34.3.62.62,0,0,0,0,.48C6.7,2.87,7.07,4,7.38,5.14c.1.4.35.46.49.46"/><path class="cls-1" d="M16,.41l-.61-.2a.53.53,0,0,0-.72.38A28.54,28.54,0,0,1,12.83,4.9a.55.55,0,0,0,.24.81l.49.27a.66.66,0,0,0,.3.07.55.55,0,0,0,.48-.3,26.33,26.33,0,0,0,2-4.55.64.64,0,0,0,0-.51A.57.57,0,0,0,16,.41"/><path class="cls-1" d="M15.68,6.49H15a.53.53,0,0,0-.57.61v7.7H8.11V7.1a.54.54,0,0,0-.58-.61H6.89a.53.53,0,0,0-.57.61V16a.53.53,0,0,0,.57.61h8.79a.54.54,0,0,0,.58-.62V7.1a.54.54,0,0,0-.58-.61"/><path class="cls-1" d="M5.14.5H1.38a.54.54,0,0,0-.58.61V7.29a29.07,29.07,0,0,1-.75,7.92.67.67,0,0,0,.2.78l.52.5a.54.54,0,0,0,.38.18c.11,0,.31-.05.43-.39a20.58,20.58,0,0,0,.92-5.5H3.93v4.61c0,.36,0,1.09.31,1.09.56,0,1.15-.17,1.23-.35a4.44,4.44,0,0,0,.24-2v-13A.53.53,0,0,0,5.14.5M3.93,5H2.57V1.7H3.93Zm0,1.17V9.61H2.54V9.25c0-.55,0-1,0-1.35V6.14Z"/><path class="cls-1" d="M29,5.51h.11a.73.73,0,0,0,.78-.8V2.58a.72.72,0,0,0-.78-.8H29a.75.75,0,0,0-.8.8V4.71a.75.75,0,0,0,.8.8"/><path class="cls-1" d="M29.61,9a51,51,0,0,0-7.1-3.52V1.15a.88.88,0,0,0-.87-.92H21a.88.88,0,0,0-.87.92V15.78a.88.88,0,0,0,.87.92h.68a.88.88,0,0,0,.87-.92V7.31c1.74,1,3.76,2.42,5.85,3.88a.91.91,0,0,0,.5.15.88.88,0,0,0,.78-.49l.33-.67A.92.92,0,0,0,29.61,9"/><path class="cls-1" d="M26.35,5.51h.11a.75.75,0,0,0,.8-.8V2.58a.75.75,0,0,0-.8-.8h-.11a.72.72,0,0,0-.78.8V4.71a.72.72,0,0,0,.78.8"/><path class="cls-1" d="M37.19,9.07a.6.6,0,0,0,.58.5.79.79,0,0,0,.29-.06l.83-.29a.66.66,0,0,0,.42-.33.62.62,0,0,0-.05-.54,16.77,16.77,0,0,0-2-3.07.86.86,0,0,0-1.28,0A.62.62,0,0,0,36,6a16.51,16.51,0,0,1,1.22,3.07"/><path class="cls-1" d="M35.86,10.1a.59.59,0,0,0-.1-.54,15.28,15.28,0,0,0-1.95-2.84.86.86,0,0,0-1.25,0,.64.64,0,0,0,0,.67,15.93,15.93,0,0,1,1.2,2.92.57.57,0,0,0,.57.48.89.89,0,0,0,.3-.06l.81-.31a.64.64,0,0,0,.43-.36"/><path class="cls-1" d="M43.38,5.94l-.8-.26a.67.67,0,0,0-.92.48c-1.22,4.44-2.53,7.09-6.29,9.23-.58.33-.41.73-.31.88a.64.64,0,0,0,.56.32,1.07,1.07,0,0,0,.4-.1c4.72-2.32,6.54-5.54,7.83-9.65a.66.66,0,0,0-.47-.9"/><path class="cls-1" d="M61,1a1.17,1.17,0,0,0-1-.54L51.58.38c-.87,0-.92.23-1.41,1.18a19.77,19.77,0,0,1-3.78,5.17,1,1,0,0,0-.23,1,.75.75,0,0,0,1.17.36,16.72,16.72,0,0,0,5.14-5.93h5.36c-2.11,6.37-4.87,10-9.75,13a.87.87,0,0,0-.4,1,.81.81,0,0,0,.76.65.85.85,0,0,0,.35-.08c6.12-3.09,9.45-7,12.3-14.61A1.23,1.23,0,0,0,61,1"/></g></g></svg>