<svg xmlns="http://www.w3.org/2000/svg" viewBox="0 0 16.5 14.7"><defs><style>.cls-1{fill:#005ca7;}</style></defs><g id="レイヤー_2" data-name="レイヤー 2"><g id="レイヤー_3" data-name="レイヤー 3"><path class="cls-1" d="M15.61,0H.86A.8.8,0,0,0,0,.83a.76.76,0,0,0,.21.63.81.81,0,0,0,.65.25H12.79A18,18,0,0,1,8,8.24,15.86,15.86,0,0,0,4.42,5.53,1,1,0,0,0,4,5.4a.79.79,0,0,0-.67.38A.82.82,0,0,0,3.51,7,22.49,22.49,0,0,1,9.4,14.2a.81.81,0,0,0,.7.5.85.85,0,0,0,.52-.2l.93-.7a.86.86,0,0,0,.21-1.26,25.12,25.12,0,0,0-2.3-2.93,22.61,22.61,0,0,0,6.92-7.94l0-.07c.15-.65.13-1.08-.08-1.34A.86.86,0,0,0,15.61,0"/></g></g></svg>