<svg xmlns="http://www.w3.org/2000/svg" viewBox="0 0 76.54 96.38"><defs><style>.cls-1{isolation:isolate;}.cls-2{mix-blend-mode:multiply;}.cls-3{fill:#005ca7;}.cls-4{fill:#fff;}</style></defs><g class="cls-1"><g id="レイヤー_2" data-name="レイヤー 2"><g id="レイヤー_1-2" data-name="レイヤー 1"><g class="cls-2"><rect class="cls-3" width="76.54" height="96.38" rx="4.9"/></g><path class="cls-4" d="M31.2,12.05c-.11.28-.22.55-.35.81a5.53,5.53,0,0,1-.73,1.1A17.65,17.65,0,0,1,32,15a.47.47,0,0,1-.22.89.59.59,0,0,1-.29-.1,16.26,16.26,0,0,0-2-1.17A7.1,7.1,0,0,1,25.78,16H25.7a.44.44,0,0,1-.46-.44.43.43,0,0,1,.41-.44,6.79,6.79,0,0,0,2.86-.92c-.38-.16-.78-.32-1.16-.44l-.06.08a.49.49,0,0,1-.42.24.48.48,0,0,1-.5-.42.4.4,0,0,1,.09-.24c.29-.45.56-.9.81-1.36h-2a.43.43,0,0,1,0-.84h2.41c.17-.39.33-.78.49-1.21a.44.44,0,0,1,.43-.27c.24,0,.49.16.49.39a.32.32,0,0,1,0,.13c-.11.33-.24.65-.37,1h4.07a.43.43,0,0,1,0,.84ZM28.51,8c0-.26.25-.38.5-.38s.5.12.5.38v.65h2.16c.84,0,1.17.29,1.17.92v.62c0,.26-.25.39-.5.39s-.5-.13-.5-.39V9.71c0-.19-.08-.27-.33-.27h-5c-.25,0-.33.08-.33.27v.51c0,.26-.25.39-.49.39s-.51-.13-.51-.39V9.55c0-.63.33-.92,1.17-.92h2.11Zm-.19,4.07c-.18.34-.35.67-.54,1,.49.15,1,.33,1.46.53a4.23,4.23,0,0,0,.93-1.53Z"/><path class="cls-4" d="M35,10.94a.49.49,0,0,1,.52.46.6.6,0,0,1,0,.12,6.89,6.89,0,0,1-.81,2,.61.61,0,0,1-.49.29.46.46,0,0,1-.48-.44.6.6,0,0,1,.1-.32,6.41,6.41,0,0,0,.74-1.77A.44.44,0,0,1,35,10.94Zm1.1-.78a.51.51,0,0,1,1,0v4c0,.35.13.44,1,.44,1.24,0,1.45-.13,1.55-.87a.44.44,0,0,1,.45-.37.48.48,0,0,1,.52.43.19.19,0,0,1,0,.08c-.22,1.31-.78,1.61-2.47,1.61s-2.09-.33-2.09-1.12Zm2.75-1.28a.57.57,0,0,1,.2.41.51.51,0,0,1-.51.5.5.5,0,0,1-.36-.14,10.25,10.25,0,0,0-1-.82.52.52,0,0,1-.26-.42.49.49,0,0,1,.49-.47.75.75,0,0,1,.31.08A5.8,5.8,0,0,1,38.88,8.88ZM42,12.09a.68.68,0,0,1,.11.33.51.51,0,0,1-1,.24A9.4,9.4,0,0,0,40,11.27a.48.48,0,0,1-.17-.35.49.49,0,0,1,.5-.46.56.56,0,0,1,.36.15A7.62,7.62,0,0,1,42,12.09Z"/><path class="cls-4" d="M43.08,12.47a3.88,3.88,0,0,1,4.18-3.74,3.14,3.14,0,0,1,3.46,3.17,3.36,3.36,0,0,1-2.51,3.32.52.52,0,0,1-.21,0,.5.5,0,0,1-.5-.51.53.53,0,0,1,.38-.5,2.31,2.31,0,0,0,1.79-2.35A2.2,2.2,0,0,0,47.5,9.65a9,9,0,0,1-1,3.83,1.82,1.82,0,0,1-1.72,1.13C43.84,14.61,43.08,13.87,43.08,12.47Zm1,0c0,.83.33,1.13.65,1.13s.52-.14.79-.6a8.31,8.31,0,0,0,.9-3.29A2.87,2.87,0,0,0,44.11,12.47Z"/><path class="cls-4" d="M16.37,22.57a.53.53,0,0,1-1.05,0V21H13.94a.42.42,0,0,1-.42-.45.43.43,0,0,1,.42-.45h1.38V18.62a.53.53,0,0,1,1.05,0V20.1h2V18.5a.46.46,0,0,1,.52-.44c.27,0,.53.14.53.44v1.6H21a.42.42,0,0,1,.42.45A.42.42,0,0,1,21,21H19.45v.28a4.43,4.43,0,0,1-2.64,4.37.69.69,0,0,1-.24.05.5.5,0,0,1-.51-.5.53.53,0,0,1,.33-.48,3.39,3.39,0,0,0,2-3.51V21h-2Z"/><path class="cls-4" d="M23.82,21.61a.5.5,0,0,1,.52.49.6.6,0,0,1,0,.22A5.92,5.92,0,0,1,23,24.27a.64.64,0,0,1-.42.19.53.53,0,0,1-.54-.49.54.54,0,0,1,.19-.39,5.34,5.34,0,0,0,1.09-1.64A.52.52,0,0,1,23.82,21.61Zm2.63,2.92c0,.91-.45,1.26-1.24,1.26a4.39,4.39,0,0,1-.69-.05.5.5,0,0,1-.42-.52.51.51,0,0,1,.5-.54h.1a2.13,2.13,0,0,0,.39,0c.2,0,.28-.06.28-.33V20.76H22.76a.48.48,0,0,1,0-1h2.61V18.46a.5.5,0,0,1,.55-.46.47.47,0,0,1,.53.44V19.8H29a.48.48,0,0,1,0,1H26.45Zm3-1.07a.65.65,0,0,1,.17.41.54.54,0,0,1-.54.53.64.64,0,0,1-.5-.28,10.65,10.65,0,0,1-1.08-1.82.53.53,0,0,1-.06-.24.48.48,0,0,1,.51-.46.54.54,0,0,1,.5.31A9.28,9.28,0,0,0,29.42,23.46ZM30,18.58a1,1,0,1,1-1-1A1,1,0,0,1,30,18.58Zm-.45,0a.51.51,0,0,0-.52-.51.51.51,0,0,0-.52.51.52.52,0,0,0,.52.52A.52.52,0,0,0,29.53,18.58Z"/><path class="cls-4" d="M37.25,21.33a.52.52,0,0,1,0,1H31.34a.52.52,0,0,1,0-1Z"/><path class="cls-4" d="M40.4,20.9a.52.52,0,0,1,.44-.28.49.49,0,0,1,.23.06A10.53,10.53,0,0,1,43,21.83a.58.58,0,0,1,.25.47.52.52,0,0,1-.51.53.62.62,0,0,1-.38-.14,18.2,18.2,0,0,0-1.68-1.08.57.57,0,0,1-.26-.25v3.88a.48.48,0,0,1-.53.47.49.49,0,0,1-.54-.47V18.37a.5.5,0,0,1,.54-.47.48.48,0,0,1,.53.47Z"/><path class="cls-4" d="M45.61,21.63l-.19.3a.51.51,0,0,1-.43.25.46.46,0,0,1-.48-.45.57.57,0,0,1,.1-.31A11,11,0,0,0,46,18a.47.47,0,0,1,.48-.35.49.49,0,0,1,.53.46.69.69,0,0,1,0,.13,12.44,12.44,0,0,1-.79,2.26.39.39,0,0,1,.39.36v4.8c0,.25-.24.36-.48.36s-.48-.11-.48-.36Zm4.61,1.14v.74H51a.37.37,0,0,1,.35.41.37.37,0,0,1-.35.41h-.81v1.29c0,.26-.24.39-.48.39a.43.43,0,0,1-.48-.39V24.33h-.84a.36.36,0,0,1-.35-.41.37.37,0,0,1,.35-.41h.84v-.74l0-1.17a10.11,10.11,0,0,1-1.77,2.52.54.54,0,0,1-.37.18.45.45,0,0,1-.45-.44.49.49,0,0,1,.16-.34,10,10,0,0,0,2-3H47.41A.4.4,0,0,1,47,20c0-.23.12-.44.37-.44h1.85V18.06a.44.44,0,0,1,.48-.4.43.43,0,0,1,.48.4V19.6h2.1c.26,0,.37.21.37.44a.39.39,0,0,1-.37.44H50.47a9.32,9.32,0,0,0,2.27,2.78.58.58,0,0,1,.24.45.52.52,0,0,1-.51.51.51.51,0,0,1-.36-.16,10.57,10.57,0,0,1-1.94-2.5Z"/><path class="cls-4" d="M57.45,22.05c.76,0,1,.25,1,.93V24.2c0,.71-.33.92-.83.92l-.38,0a.39.39,0,0,1-.35-.42.38.38,0,0,1,.36-.41h.18c.07,0,.11,0,.11-.15v-1c0-.17,0-.23-.23-.23h-.5v2.79a.42.42,0,0,1-.47.39.42.42,0,0,1-.47-.39V22.87h-.46c-.18,0-.24.06-.24.23v1.79a.41.41,0,0,1-.46.37c-.23,0-.47-.13-.47-.37V23c0-.68.27-.93,1-.93h.59v-.71H54.14a.43.43,0,0,1,0-.85H55.9v-.75h-.84l-.19.34a.49.49,0,0,1-.43.26.42.42,0,0,1-.45-.4.51.51,0,0,1,.08-.27,7.86,7.86,0,0,0,.65-1.45.45.45,0,1,1,.86.27c0,.13-.09.28-.15.43h.47V18a.42.42,0,0,1,.47-.4.42.42,0,0,1,.47.4v.94H58a.41.41,0,0,1,0,.82h-1.2v.75h1.55a.43.43,0,0,1,0,.85H56.84v.71Zm1.74-3.32c0-.26.23-.39.48-.39a.42.42,0,0,1,.47.39v4.86a.42.42,0,0,1-.47.38c-.25,0-.48-.13-.48-.38Zm2.58,6.06c0,.75-.28,1.06-1.09,1.06a3.22,3.22,0,0,1-.63-.05.47.47,0,0,1,.08-.93h.08a1.9,1.9,0,0,0,.4,0c.12,0,.2-.05.2-.29V18.17c0-.26.24-.39.49-.39a.42.42,0,0,1,.47.39Z"/><path class="cls-4" d="M12.12,57.25c0-.14.13-.2.27-.2s.26.06.26.2v.34h1.51a.22.22,0,0,1,0,.44H11.21c-.2,0-.25,0-.25.2V59a4.61,4.61,0,0,1-.63,2.51.31.31,0,0,1-.25.15.26.26,0,0,1-.26-.25.32.32,0,0,1,.06-.17,3.15,3.15,0,0,0,.48-1.2l-.34.18a.38.38,0,0,1-.13,0A.24.24,0,0,1,9.65,60a.25.25,0,0,1,.16-.23,5.15,5.15,0,0,0,.62-.32c0-.16,0-.32,0-.47v-.1a.27.27,0,0,1-.26.22.23.23,0,0,1-.2-.13,3.48,3.48,0,0,0-.22-.36.24.24,0,0,1,0-.13.24.24,0,0,1,.25-.22.28.28,0,0,1,.21.1,3.07,3.07,0,0,1,.23.39.24.24,0,0,1,0,.09v-.64c0-.4.18-.58.69-.58h1Zm1.41,2c.44,0,.61.16.61.51v1.42c0,.43-.2.58-.6.58l-.28,0a.24.24,0,0,1-.2-.25.23.23,0,0,1,.22-.24h.05l.19,0c.08,0,.11,0,.11-.12V59.81c0-.12,0-.16-.18-.16h-.56l0,.19a3,3,0,0,1,.62.55.25.25,0,0,1,.07.17.23.23,0,0,1-.23.24.31.31,0,0,1-.21-.11,3.29,3.29,0,0,0-.41-.43,2.19,2.19,0,0,1-.41.55.28.28,0,0,1-.19.09.23.23,0,0,1-.23-.22A.26.26,0,0,1,12,60.5a1.57,1.57,0,0,0,.46-.85H12c-.14,0-.18,0-.18.16v1.74a.22.22,0,0,1-.25.21c-.13,0-.26-.07-.26-.21V59.74c0-.35.17-.51.61-.51h.58c0-.13,0-.27,0-.4H11.39a.2.2,0,0,1-.19-.22c0-.12.06-.23.19-.23H14.1c.13,0,.19.11.19.23a.2.2,0,0,1-.19.22H13c0,.13,0,.27,0,.4Z"/><path class="cls-4" d="M19,57.55c.12,0,.18.11.18.23S19.09,58,19,58H16a5,5,0,0,1-.57.68.32.32,0,0,1-.21.09.26.26,0,0,1-.26-.25.28.28,0,0,1,.09-.19,4.56,4.56,0,0,0,.84-1.13.26.26,0,0,1,.25-.15c.14,0,.27.08.27.21a.27.27,0,0,1,0,.12,1.29,1.29,0,0,1-.09.16Zm-1.28,3.29a.31.31,0,0,1,.13.24.27.27,0,0,1-.26.28.27.27,0,0,1-.18-.07l-.68-.47a6.05,6.05,0,0,1-1.26.82l-.14,0a.26.26,0,0,1-.26-.25.28.28,0,0,1,.18-.25,4.73,4.73,0,0,0,1-.64c-.19-.11-.38-.22-.55-.3a.24.24,0,0,1-.15-.21.26.26,0,0,1,.26-.25.35.35,0,0,1,.14,0,6.61,6.61,0,0,1,.71.35,4.84,4.84,0,0,0,.42-.5.25.25,0,0,1,.22-.12.26.26,0,0,1,.27.25.24.24,0,0,1-.05.15,3.81,3.81,0,0,1-.4.5C17.3,60.56,17.5,60.7,17.69,60.84Zm.4-1.94c.46,0,.62.16.63.53a6.17,6.17,0,0,0,.2,1.41c.08.25.12.28.16.28s.07,0,.09-.29a.2.2,0,0,1,.21-.19.22.22,0,0,1,.24.21,1.62,1.62,0,0,1-.11.54.45.45,0,0,1-.42.3c-.3,0-.51-.16-.67-.67a5,5,0,0,1-.23-1.49c0-.12,0-.16-.22-.16h-2.6c-.13,0-.19-.12-.19-.24s.06-.23.19-.23Zm-1.95-.23a.22.22,0,0,1,0-.44h2.23a.22.22,0,0,1,0,.44Z"/><path class="cls-4" d="M20.76,61.28a.31.31,0,0,1-.27.16.26.26,0,0,1-.27-.25.34.34,0,0,1,0-.16,8.18,8.18,0,0,0,.77-2,5.36,5.36,0,0,0-.6.1h-.06a.23.23,0,0,1-.24-.25.25.25,0,0,1,.22-.26,7,7,0,0,1,.8-.12c.06-.31.11-.62.14-.92a.27.27,0,0,1,.28-.24.26.26,0,0,1,.28.25v0c0,.27-.08.55-.13.82H22c.64,0,.87.29.87,1.08a4.84,4.84,0,0,1-.13,1.19c-.16.58-.39.78-.89.78l-.34,0a.28.28,0,0,1-.25-.27.26.26,0,0,1,.26-.28h0l.27,0c.18,0,.27-.06.35-.35a3.88,3.88,0,0,0,.13-1.09c0-.45-.08-.57-.32-.57l-.37,0A9,9,0,0,1,20.76,61.28Zm3.64-2a.38.38,0,0,1,0,.17.29.29,0,0,1-.29.29.32.32,0,0,1-.28-.19,5,5,0,0,0-.71-1,.24.24,0,0,1-.08-.18.28.28,0,0,1,.29-.25.32.32,0,0,1,.23.1A4.53,4.53,0,0,1,24.4,59.26Zm-.92-1.73a.21.21,0,0,1,.21-.19.2.2,0,0,1,.14,0,2.78,2.78,0,0,1,.39.44.18.18,0,0,1,.05.13.2.2,0,0,1-.37.11,4.28,4.28,0,0,0-.37-.43A.15.15,0,0,1,23.48,57.53Zm.5-.4a.2.2,0,0,1,.21-.19.26.26,0,0,1,.15.06,2.46,2.46,0,0,1,.38.41.24.24,0,0,1,.06.15.2.2,0,0,1-.2.19.21.21,0,0,1-.18-.09c-.12-.14-.25-.29-.37-.41A.16.16,0,0,1,24,57.13Z"/><path class="cls-4" d="M26.91,60.25a2.07,2.07,0,0,1-1.71,1.47h-.07a.24.24,0,0,1-.25-.24.25.25,0,0,1,.2-.24,1.61,1.61,0,0,0,1.29-1c-.5,0-.69-.19-.69-.56V57.86c0-.37.19-.57.7-.57h1.53c.51,0,.7.2.7.57v1.83c0,.37-.19.56-.69.56v.82c0,.1.06.13.42.13s.53,0,.57-.3a.24.24,0,0,1,.26-.2.24.24,0,0,1,.26.22v0c-.06.54-.29.7-1.11.7s-.94-.12-.94-.47v-.93Zm1.17-2.36c0-.11,0-.15-.24-.15H26.45c-.18,0-.24,0-.24.15v.24h1.87ZM26.21,59h1.87v-.4H26.21Zm1.63.84c.13,0,.24,0,.24-.15V59.4H26.21v.26c0,.11.06.15.24.15Z"/><path class="cls-4" d="M32.45,58.08c.9,0,1.51.48,1.51,1.25,0,1-.72,1.63-2.09,1.82h-.06a.28.28,0,0,1,0-.56c1.17-.2,1.58-.61,1.58-1.27,0-.38-.29-.72-.91-.72a5.93,5.93,0,0,0-2.31.6l-.15,0a.28.28,0,0,1-.28-.27.3.3,0,0,1,.21-.28A6.72,6.72,0,0,1,32.45,58.08Z"/><path class="cls-4" d="M35.38,61.18a.31.31,0,0,1-.27.16.26.26,0,0,1-.27-.25.34.34,0,0,1,0-.16,8.18,8.18,0,0,0,.77-2,5.36,5.36,0,0,0-.6.1H35a.24.24,0,0,1-.25-.25.27.27,0,0,1,.23-.27c.26-.05.53-.08.8-.11.06-.31.11-.62.14-.92a.27.27,0,0,1,.28-.24.26.26,0,0,1,.28.25v0c0,.27-.08.55-.13.82h.27c.64,0,.87.29.87,1.08a4.84,4.84,0,0,1-.13,1.19c-.16.58-.39.78-.89.78l-.34,0a.28.28,0,0,1-.25-.27.26.26,0,0,1,.26-.28h0l.27,0c.18,0,.27-.06.35-.35a3.88,3.88,0,0,0,.13-1.09c0-.45-.08-.57-.32-.57l-.37,0A9,9,0,0,1,35.38,61.18Zm3.68-2a.38.38,0,0,1,0,.17.29.29,0,0,1-.29.29.31.31,0,0,1-.27-.19,5,5,0,0,0-.71-1,.24.24,0,0,1-.08-.18A.28.28,0,0,1,38,58a.32.32,0,0,1,.23.1A4.48,4.48,0,0,1,39.06,59.16Z"/><path class="cls-4" d="M43.41,59.92c0,.78-.58,1.33-1.71,1.49h0a.23.23,0,0,1-.24-.24.24.24,0,0,1,.21-.24c.95-.16,1.28-.48,1.28-1,0-.32-.23-.57-.73-.57a4.84,4.84,0,0,0-1.9.49.25.25,0,0,1-.12,0,.23.23,0,0,1-.23-.23.26.26,0,0,1,.17-.24,5.54,5.54,0,0,1,2.08-.5C42.91,58.89,43.41,59.29,43.41,59.92Z"/><path class="cls-4" d="M44.5,58.83a.24.24,0,0,1-.25-.26.26.26,0,0,1,.25-.28c.2,0,.44,0,.71-.08,0-.28.07-.5.1-.77a.25.25,0,0,1,.27-.23.26.26,0,0,1,.28.25v0c0,.24,0,.42-.08.61l.43-.1h.08a.26.26,0,0,1,.25.26.25.25,0,0,1-.2.25l-.65.17A15.32,15.32,0,0,1,45,61.3a.32.32,0,0,1-.3.22.27.27,0,0,1-.28-.26.39.39,0,0,1,0-.14,12.39,12.39,0,0,0,.67-2.35A4.2,4.2,0,0,1,44.5,58.83Zm1.9,1.39a.24.24,0,0,1,.24.21c0,.32.21.41.76.41a4.36,4.36,0,0,0,.67-.05h0a.26.26,0,0,1,.27.28.25.25,0,0,1-.23.26,4.06,4.06,0,0,1-.75.06c-.7,0-1-.18-1.17-.44a.93.93,0,0,1-.12-.46A.27.27,0,0,1,46.4,60.22Zm1.51-1.51a.27.27,0,0,1,.27.28.24.24,0,0,1-.26.25,6.71,6.71,0,0,0-1.22.13h-.06a.25.25,0,0,1-.25-.26.27.27,0,0,1,.23-.27A6.89,6.89,0,0,1,47.91,58.71Z"/><path class="cls-4" d="M49.52,58.78h-.33a.24.24,0,0,1,0-.48h.33v-.92c0-.14.13-.21.26-.21s.26.07.26.21v.92h.27a.24.24,0,0,1,0,.48H50v1l.24-.11.1,0a.24.24,0,0,1,.23.25.22.22,0,0,1-.12.19,8.25,8.25,0,0,1-1.23.51h-.08a.26.26,0,0,1-.25-.26.22.22,0,0,1,.17-.22l.42-.14Zm2.53,1.41A4.11,4.11,0,0,1,51,61.36a.32.32,0,0,1-.17.06.22.22,0,0,1-.23-.22.26.26,0,0,1,.13-.2,3,3,0,0,0,.82-.81h-.29a4.16,4.16,0,0,1-.67.61.37.37,0,0,1-.16.05.22.22,0,0,1-.23-.22.25.25,0,0,1,.13-.2,3.13,3.13,0,0,0,.84-.86h-.47a.22.22,0,0,1,0-.44h2.72a.22.22,0,0,1,0,.44H51.7l-.14.22h1.32c.35,0,.52.13.52.43a4.11,4.11,0,0,1-.11,1c-.1.39-.28.54-.63.54a1.37,1.37,0,0,1-.28,0,.24.24,0,0,1-.21-.24.23.23,0,0,1,.23-.25h.05l.18,0c.1,0,.15,0,.18-.15a4.17,4.17,0,0,0,.1-.81c0-.07,0-.09-.1-.09h0a3.91,3.91,0,0,1-1,1.44.32.32,0,0,1-.19.07.23.23,0,0,1-.24-.21.24.24,0,0,1,.11-.19,3.34,3.34,0,0,0,.89-1.11Zm-.58-1.26c-.36,0-.56-.14-.56-.49v-.75c0-.35.2-.49.56-.49h1c.37,0,.56.14.56.49v.75c0,.37-.22.49-.56.49Zm1.11-1.21c0-.08,0-.11-.13-.11h-.91c-.11,0-.13,0-.13.11v.15h1.17Zm-.13.79c.11,0,.13,0,.13-.1v-.15H51.41v.15c0,.09.05.1.13.1Z"/><path class="cls-4" d="M58.66,58.85a.31.31,0,0,1,.18.27.27.27,0,0,1-.27.27.31.31,0,0,1-.18,0,6.84,6.84,0,0,1-1.94-1.56,7.52,7.52,0,0,1-1.94,1.65.28.28,0,0,1-.15,0,.27.27,0,0,1-.1-.51,6.73,6.73,0,0,0,2-1.78.29.29,0,0,1,.25-.12.26.26,0,0,1,.28.23.29.29,0,0,1,0,.09A6.38,6.38,0,0,0,58.66,58.85ZM55.6,61.64c-.49,0-.67-.17-.67-.53v-.72c0-.36.18-.53.67-.53h1.76c.49,0,.68.17.68.53v.72c0,.44-.29.53-.68.53Zm0-2.31a.21.21,0,0,1-.2-.23.22.22,0,0,1,.2-.24h1.65c.14,0,.2.12.2.24a.21.21,0,0,1-.2.23Zm1.62,1.87c.18,0,.22-.05.22-.18v-.55c0-.13,0-.17-.22-.17H55.71c-.18,0-.22,0-.22.17V61c0,.16.08.18.22.18Z"/><path class="cls-4" d="M60.13,57.37a.26.26,0,0,1,.29.25.11.11,0,0,1,0,.05,9.61,9.61,0,0,0-.26,2.07,12,12,0,0,0,.11,1.49s0,0,0,0a.28.28,0,0,1-.3.25.27.27,0,0,1-.28-.22,9.67,9.67,0,0,1,.16-3.73A.26.26,0,0,1,60.13,57.37Zm2.47.92.55-.08h.07a.22.22,0,0,1,.23.24.26.26,0,0,1-.22.26,5.74,5.74,0,0,1-.62.1,11.14,11.14,0,0,0,.06,1.29,3.44,3.44,0,0,1,.83.46.3.3,0,0,1,.14.25.28.28,0,0,1-.27.27.34.34,0,0,1-.19-.08,3.51,3.51,0,0,0-.49-.33c-.06.42-.34.72-1,.72s-.91-.28-.91-.73.33-.73,1-.73a1.84,1.84,0,0,1,.33,0c0-.37,0-.73,0-1.1-.22,0-.43,0-.62,0h-.28a.25.25,0,0,1-.23-.26.24.24,0,0,1,.24-.26h.27c.19,0,.4,0,.61,0V57.6a.26.26,0,0,1,.52,0Zm-.44,2.17a1.23,1.23,0,0,0-.36-.06c-.35,0-.46.11-.46.26s.14.23.39.23A.39.39,0,0,0,62.16,60.46Z"/><path class="cls-4" d="M64.29,60.6a.27.27,0,0,1,.27-.26.32.32,0,0,1,.17.06,3.9,3.9,0,0,1,.9.79.4.4,0,0,1,.09.23.29.29,0,0,1-.29.28.31.31,0,0,1-.25-.13,4.63,4.63,0,0,0-.78-.76A.26.26,0,0,1,64.29,60.6Z"/><path class="cls-4" d="M22.83,67.75l-.55,0a.22.22,0,0,1-.21-.24c0-.12.06-.23.2-.23h.24l.3-.46c-.18-.21-.38-.43-.57-.62a.21.21,0,0,1-.07-.15.24.24,0,0,1,.24-.24.23.23,0,0,1,.16.07c.1-.19.2-.4.29-.61a.23.23,0,0,1,.22-.15.24.24,0,0,1,.26.21.29.29,0,0,1,0,.09,5.14,5.14,0,0,1-.41.81l.15.17c.09-.16.18-.32.25-.46a.21.21,0,0,1,.2-.13.25.25,0,0,1,.26.22.23.23,0,0,1,0,.11,11,11,0,0,1-.68,1.11l.4,0-.07-.13a.11.11,0,0,1,0-.09.21.21,0,0,1,.4-.08,3.19,3.19,0,0,1,.32.64.31.31,0,0,1,0,.08.22.22,0,0,1-.24.21.19.19,0,0,1-.19-.13l0-.07-.3,0v1.89c0,.13-.13.2-.26.2a.23.23,0,0,1-.25-.2Zm-.29.27a.19.19,0,0,1,.21.18v0a3.63,3.63,0,0,1-.22.93.21.21,0,0,1-.21.14.2.2,0,0,1-.22-.19.29.29,0,0,1,0-.09,3.43,3.43,0,0,0,.21-.84A.19.19,0,0,1,22.54,68Zm1.46.73s0,0,0,0a.21.21,0,0,1-.22.2.19.19,0,0,1-.2-.16,4.74,4.74,0,0,0-.16-.65s0,0,0,0a.2.2,0,0,1,.22-.18.21.21,0,0,1,.19.13A3.39,3.39,0,0,1,24,68.75Zm1.07-.2h-.62a.21.21,0,0,1-.2-.23c0-.12.06-.24.2-.24h.62v-.39a.25.25,0,0,1,.27-.22.24.24,0,0,1,.26.22v.39h.66a.22.22,0,0,1,.21.24.21.21,0,0,1-.21.23H25.6v.6h.91a.24.24,0,0,1,0,.48H24.06a.24.24,0,0,1,0-.48h1Zm.73-3.14c.37,0,.56.16.56.39a.67.67,0,0,1-.12.34,3.33,3.33,0,0,1-.46.56,2.91,2.91,0,0,0,.79.39.29.29,0,0,1,.21.26.26.26,0,0,1-.26.26.27.27,0,0,1-.12,0,3.46,3.46,0,0,1-1-.55,4.58,4.58,0,0,1-.95.55.27.27,0,0,1-.12,0,.24.24,0,0,1-.24-.24.24.24,0,0,1,.16-.22,4.1,4.1,0,0,0,.8-.44,3.07,3.07,0,0,1-.57-.83h-.22a.22.22,0,0,1-.2-.24.21.21,0,0,1,.2-.23Zm-.8.47a2.54,2.54,0,0,0,.41.52,2.51,2.51,0,0,0,.34-.42.15.15,0,0,0,0-.06s0,0-.08,0Z"/><path class="cls-4" d="M28.4,68.73c.31.31.8.43,2,.43a13.18,13.18,0,0,0,1.36-.06h0a.26.26,0,0,1,0,.51c-.39,0-.84,0-1.37,0-1.26,0-1.8-.14-2.18-.51a3.54,3.54,0,0,1-.53.5.26.26,0,0,1-.18.06.26.26,0,0,1-.26-.25.32.32,0,0,1,.14-.23,2.92,2.92,0,0,0,.51-.44v-1c0-.09,0-.12-.15-.12h-.22a.22.22,0,0,1-.22-.24.22.22,0,0,1,.22-.25h.34c.39,0,.55.18.55.52Zm-.07-2.91a.28.28,0,0,1,.08.19.29.29,0,0,1-.29.28.26.26,0,0,1-.21-.11,2.74,2.74,0,0,0-.34-.35.24.24,0,0,1-.09-.19.27.27,0,0,1,.27-.26.32.32,0,0,1,.2.07A2.69,2.69,0,0,1,28.33,65.82Zm3,.89c.33,0,.47.16.47.46v1.29c0,.35-.18.5-.53.5l-.27,0a.23.23,0,0,1-.21-.24.22.22,0,0,1,.21-.23h0l.17,0c.07,0,.09,0,.09-.1V67.27c0-.1,0-.14-.16-.14H29.42c-.12,0-.16,0-.16.14V68.7c0,.14-.12.2-.25.2s-.26-.06-.26-.2V67.17a.4.4,0,0,1,.42-.45v-1c0-.34.17-.49.57-.49h1c.4,0,.57.15.57.49ZM30,68.47c-.31,0-.44-.11-.44-.36v-.38c0-.25.13-.36.44-.36h.5c.31,0,.44.11.44.36v.38c0,.3-.17.36-.44.36Zm0-1.76v-.44c0-.23.13-.35.42-.35h.39v-.16c0-.09,0-.13-.14-.13h-.86c-.11,0-.14,0-.14.13v.95Zm.4,1.41c.09,0,.12,0,.12-.09v-.22c0-.07,0-.09-.12-.09h-.28c-.09,0-.12,0-.12.09V68c0,.08,0,.09.12.09Zm.41-1.82h-.23c-.09,0-.13,0-.13.11v.3h.36Z"/><path class="cls-4" d="M36.41,69.16c0,.08,0,.09.12.09s.18,0,.21-.29a.19.19,0,0,1,.2-.19.2.2,0,0,1,.21.2,1.09,1.09,0,0,1-.12.5c-.09.14-.26.21-.56.21s-.52-.11-.52-.42V68.1h-.19a1.85,1.85,0,0,1-.95,1.61.23.23,0,0,1-.36-.2.29.29,0,0,1,0-.09l-.08,0H33.3v.13c0,.12-.11.18-.23.18s-.24-.06-.24-.18V67.86l0,.06a.28.28,0,0,1-.19.09.23.23,0,0,1-.24-.22.29.29,0,0,1,.08-.18,3.55,3.55,0,0,0,.56-.86h-.38a.2.2,0,0,1-.18-.22.19.19,0,0,1,.18-.21h.57c0-.11.07-.22.11-.33h-.22l-.08.12a.25.25,0,0,1-.22.14.23.23,0,0,1-.23-.22.3.3,0,0,1,.05-.15,3.07,3.07,0,0,0,.29-.63.24.24,0,0,1,.23-.17.22.22,0,0,1,.24.2.22.22,0,0,1,0,.08c0,.07-.05.13-.07.2h1.12a.2.2,0,0,1,.19.22.19.19,0,0,1-.19.21h-.61c0,.11-.06.22-.1.33h.89a.19.19,0,0,1,.19.21.2.2,0,0,1-.19.22H33.51c-.06.13-.12.26-.19.38h.37a.58.58,0,0,0,.06-.17.22.22,0,0,1,.22-.14c.11,0,.23.07.23.17s0,0,0,.06l0,.08h.41c.11,0,.16.1.16.2s0,.2-.16.2H34.1v.25h.34c.11,0,.16.09.16.19a.17.17,0,0,1-.16.19H34.1v.24h.34a.17.17,0,0,1,.16.19c0,.1-.05.19-.16.19H34.1V69h.29c.11,0,.16.1.16.21a.18.18,0,0,1,0,.1l.06,0a1.41,1.41,0,0,0,.71-1.21c-.29,0-.36-.23-.36-.49V65.75c0-.34.16-.51.55-.51h.8c.39,0,.55.17.55.51V67.6c0,.3-.11.47-.43.5Zm-2.76-1.38v-.25h-.24c-.09,0-.11,0-.11.11v.14Zm0,.62v-.24H33.3v.24Zm0,.63v-.25H33.3V69Zm2.69-3.22c0-.09,0-.13-.14-.13h-.63c-.1,0-.13,0-.13.13v.25h.9Zm-.9,1h.9v-.38h-.9Zm.76.82c.1,0,.14,0,.14-.14v-.26h-.9v.26c0,.1,0,.14.13.14Z"/><path class="cls-4" d="M39.38,66.25c.3,0,.44.13.44.31a.51.51,0,0,1-.1.29,4.22,4.22,0,0,1-1.84,1.35.18.18,0,0,1-.1,0,.2.2,0,0,1-.21-.2.23.23,0,0,1,.16-.21,3.71,3.71,0,0,0,.53-.25.52.52,0,0,0-.11-.1.19.19,0,0,1-.06-.13.2.2,0,0,1,.2-.18.23.23,0,0,1,.15,0l.16.15.17-.13a.87.87,0,0,0-.15-.13.22.22,0,0,1-.06-.13.19.19,0,0,1,.2-.17.24.24,0,0,1,.13,0l.16.13a1.78,1.78,0,0,0,.22-.26.09.09,0,0,0,0-.06s0,0-.07,0h-.46a4.85,4.85,0,0,1-.67.56.27.27,0,0,1-.14,0,.21.21,0,0,1-.21-.21.24.24,0,0,1,.12-.19A3.21,3.21,0,0,0,38.7,66a.22.22,0,0,1,.19-.09.21.21,0,0,1,.23.19.23.23,0,0,1,0,.11Zm-.55,2.33a.26.26,0,0,1,.26.25A.26.26,0,0,1,39,69a3.74,3.74,0,0,1-.89.53.18.18,0,0,1-.1,0,.26.26,0,0,1-.26-.25.24.24,0,0,1,.18-.22,3.37,3.37,0,0,0,.75-.46A.27.27,0,0,1,38.83,68.58Zm2.84-2.11a.54.54,0,0,1-.15.34,3.17,3.17,0,0,1-.3.34,4.19,4.19,0,0,0,.81.43.24.24,0,0,1-.06.47l-.11,0a4.27,4.27,0,0,1-2-1.62.19.19,0,0,1,0-.12.22.22,0,0,1,.24-.2.23.23,0,0,1,.2.11,3.64,3.64,0,0,0,.6.7,1.6,1.6,0,0,0,.23-.24.14.14,0,0,0,0-.06s0,0-.07,0h-.34a.18.18,0,0,1-.18-.19.18.18,0,0,1,.18-.2h.46a.85.85,0,0,1,.31.06V66c0-.09,0-.12-.15-.12H38.45c-.11,0-.15,0-.15.12v.24c0,.13-.14.2-.27.2s-.28-.07-.28-.2v-.32c0-.3.16-.45.6-.45H39.6v-.24c0-.14.13-.21.27-.21s.27.07.27.21v.24h1.3c.44,0,.6.15.6.45v.32c0,.13-.14.2-.28.2h-.1Zm-1.49,2.81c0,.32-.17.49-.58.49a1.67,1.67,0,0,1-.32,0,.24.24,0,0,1-.21-.24.23.23,0,0,1,.23-.23h.05l.18,0c.09,0,.12,0,.12-.11V68.5H38.3a.2.2,0,0,1-.19-.21.2.2,0,0,1,.19-.22h3.41a.2.2,0,0,1,.19.22.19.19,0,0,1-.19.21H40.18Zm-.78-1.5a.19.19,0,0,1-.18-.21.19.19,0,0,1,.18-.21h1.14a.19.19,0,0,1,.19.21.19.19,0,0,1-.19.21Zm2.4,1.28a.27.27,0,0,1,.18.25.26.26,0,0,1-.25.26l-.13,0a5.45,5.45,0,0,1-.86-.52.26.26,0,0,1-.1-.19.25.25,0,0,1,.26-.24.27.27,0,0,1,.16,0A3.68,3.68,0,0,0,41.8,69.06Z"/><path class="cls-4" d="M44.4,67.36a3.38,3.38,0,0,1,.86-.1c.8,0,1.31.37,1.31,1s-.44,1.06-1.17,1.16h0a.27.27,0,0,1-.27-.27.26.26,0,0,1,.23-.26c.49-.09.69-.31.69-.63s-.26-.51-.73-.51a3,3,0,0,0-.87.13v.89c0,.52-.22.71-.69.71a.91.91,0,0,1-.93-.78c0-.37.21-.77,1.08-1.17v-.84c-.25,0-.49,0-.69,0a.24.24,0,0,1-.24-.26.24.24,0,0,1,.24-.26,6,6,0,0,0,.69,0V65.4a.25.25,0,0,1,.27-.24.24.24,0,0,1,.27.24v.69c.17,0,.34-.06.48-.1H45a.26.26,0,0,1,.27.26.25.25,0,0,1-.21.24c-.19,0-.4.09-.63.13Zm-.54.72c-.43.25-.52.41-.52.61s.18.26.36.26.16-.1.16-.22Zm2.91-1.72a.31.31,0,0,1,.11.23.29.29,0,0,1-.29.29.26.26,0,0,1-.2-.09,4.21,4.21,0,0,0-.61-.43.26.26,0,0,1-.14-.23.3.3,0,0,1,.29-.29.31.31,0,0,1,.13,0A3.75,3.75,0,0,1,46.77,66.36Z"/><path class="cls-4" d="M49.69,65.8c0,.18,0,.35,0,.51a7,7,0,0,0,1-.13h.06a.26.26,0,0,1,.26.28.25.25,0,0,1-.22.26,5.63,5.63,0,0,1-1.07.15c0,.4,0,.8.1,1.2a4.76,4.76,0,0,1,1.27.6.3.3,0,0,1,.15.26.3.3,0,0,1-.29.3.31.31,0,0,1-.21-.08,5.23,5.23,0,0,0-.9-.49c-.06.5-.46.84-1.14.84s-1.07-.28-1.07-.79.41-.81,1.08-.81a3.23,3.23,0,0,1,.53,0,20.58,20.58,0,0,1-.11-2.14v-.31c0-.16.14-.24.29-.24a.25.25,0,0,1,.28.24Zm-.43,2.67a2.77,2.77,0,0,0-.56-.07c-.32,0-.48.12-.48.3s.14.27.47.27A.51.51,0,0,0,49.26,68.47Z"/><path class="cls-4" d="M53.16,66.27a7.7,7.7,0,0,1-.77.13h0a.26.26,0,0,1-.27-.28.24.24,0,0,1,.24-.25,10.94,10.94,0,0,0,1.35-.2h.07A.28.28,0,0,1,54,66a.29.29,0,0,1-.11.22A2.34,2.34,0,0,0,53,68c0,.63.32.93.78.93.69,0,1.15-.52,1.15-1.57a5.33,5.33,0,0,0-.19-1.46.2.2,0,0,1,0-.07.27.27,0,0,1,.29-.26.28.28,0,0,1,.27.17,5.35,5.35,0,0,0,1,1.44.33.33,0,0,1,.11.24.3.3,0,0,1-.29.29.28.28,0,0,1-.23-.12,5.31,5.31,0,0,1-.56-.85h0a4.13,4.13,0,0,1,.08.78c0,1.26-.66,2-1.65,2A1.31,1.31,0,0,1,52.39,68a2.42,2.42,0,0,1,.78-1.75Zm2.24-.8a.21.21,0,0,1,.21-.19.19.19,0,0,1,.15.07,2.61,2.61,0,0,1,.35.47.19.19,0,0,1,0,.12.2.2,0,0,1-.21.2.2.2,0,0,1-.17-.11,2.76,2.76,0,0,0-.33-.45A.19.19,0,0,1,55.4,65.47Zm.53-.35a.2.2,0,0,1,.21-.18.23.23,0,0,1,.16.07,2.58,2.58,0,0,1,.35.45.24.24,0,0,1,0,.13.19.19,0,0,1-.2.2.24.24,0,0,1-.18-.11c-.1-.16-.23-.32-.33-.45A.21.21,0,0,1,55.93,65.12Z"/><path class="cls-4" d="M14.64,77.52h1.52a.29.29,0,0,1,.26.32.28.28,0,0,1-.26.31H14.64V79c0,.48-.26.71-.81.71a2.66,2.66,0,0,1-.45,0,.31.31,0,0,1-.27-.31.31.31,0,0,1,.3-.33h.08l.25,0c.12,0,.15,0,.15-.14v-.8H10.17c-.17,0-.25-.16-.25-.31s.08-.32.25-.32h3.72v-.34H11.68c-.63,0-.88-.22-.88-.71v-1c0-.49.25-.71.88-.71h1.1v-.36H10.3a.28.28,0,0,1-.26-.31.27.27,0,0,1,.26-.3h2.48v-.35c0-.2.18-.29.37-.29a.31.31,0,0,1,.35.29v.35H16a.27.27,0,0,1,.26.3.28.28,0,0,1-.26.31H13.5v.36h1.21c.64,0,.88.22.88.71v1c0,.49-.24.71-.88.71h-.07ZM11.77,75.3c-.2,0-.24,0-.24.18v.21h1.25V75.3Zm1,1.31V76.2H11.53v.24c0,.12.05.17.24.17Zm-.18,2.06a.34.34,0,0,1-.24.6.4.4,0,0,1-.25-.11l-.45-.4a.31.31,0,0,1-.13-.24.35.35,0,0,1,.36-.32.4.4,0,0,1,.24.08A3.35,3.35,0,0,1,12.6,78.67Zm2.26-3.19c0-.13,0-.18-.24-.18H13.5v.39h1.36Zm-.24,1.13c.2,0,.24,0,.24-.17V76.2H13.5v.41Z"/><path class="cls-4" d="M18.09,76V79.4c0,.2-.19.29-.39.29s-.38-.09-.38-.29V74.21c0-.51.21-.76.87-.76h.86c.66,0,.87.24.87.75v1c0,.56-.26.75-.87.75Zm1.08-1.76c0-.15-.05-.18-.26-.18h-.56c-.21,0-.26,0-.26.21v.18h1.08Zm-.26,1.17c.21,0,.26,0,.26-.18V75H18.09v.4Zm2.45.59c-.66,0-.87-.24-.87-.75v-1c0-.51.21-.75.87-.75h.93c.66,0,.87.25.87.76v4.52c0,.63-.29.87-.88.87a3.36,3.36,0,0,1-.56,0,.39.39,0,0,1-.32-.39.38.38,0,0,1,.39-.39h.08a1.79,1.79,0,0,0,.34,0c.12,0,.18,0,.18-.23V76Zm1-1.55v-.18c0-.16-.06-.21-.27-.21H21.5c-.21,0-.25,0-.25.18v.21Zm-1.14.78c0,.16,0,.18.25.18h.89V75H21.25Z"/><path class="cls-4" d="M27.48,73.38c0-.19.18-.28.37-.28s.37.09.37.28v.48h2.12a.28.28,0,0,1,.27.31.28.28,0,0,1-.27.31H26.2c-.27,0-.34.07-.34.28v1A6.52,6.52,0,0,1,25,79.28a.44.44,0,0,1-.36.21.36.36,0,0,1-.37-.34.42.42,0,0,1,.09-.24A4.5,4.5,0,0,0,25,77.22a5.42,5.42,0,0,1-.48.26.41.41,0,0,1-.18,0,.34.34,0,0,1-.1-.66,8.69,8.69,0,0,0,.86-.46q0-.33,0-.66v-.13a.37.37,0,0,1-.36.31.33.33,0,0,1-.29-.19,5.51,5.51,0,0,0-.3-.5.32.32,0,0,1-.06-.18.34.34,0,0,1,.36-.31.35.35,0,0,1,.28.15,3.24,3.24,0,0,1,.33.54.42.42,0,0,1,0,.12v-.89c0-.56.26-.81,1-.81h1.38Zm2,2.76c.62,0,.86.23.86.72v2c0,.6-.28.81-.84.81a2.72,2.72,0,0,1-.39,0,.33.33,0,0,1-.29-.35.33.33,0,0,1,.32-.34h.06l.27,0c.11,0,.15,0,.15-.18V77c0-.17-.06-.23-.24-.23h-.79L28.5,77a4.39,4.39,0,0,1,.87.77.38.38,0,0,1,.1.24.33.33,0,0,1-.32.33.4.4,0,0,1-.29-.15,5.54,5.54,0,0,0-.59-.6,2.66,2.66,0,0,1-.57.77.35.35,0,0,1-.27.12.31.31,0,0,1-.31-.3.33.33,0,0,1,.12-.25,2.16,2.16,0,0,0,.64-1.2h-.61c-.19,0-.25.06-.25.23v2.43c0,.21-.17.3-.36.3a.31.31,0,0,1-.35-.3V76.86c0-.49.23-.72.85-.72H28c0-.18,0-.37,0-.55H26.46a.28.28,0,0,1-.27-.31c0-.17.09-.32.27-.32h3.79c.18,0,.27.15.27.32a.28.28,0,0,1-.27.31H28.67c0,.18,0,.37,0,.55Z"/><path class="cls-4" d="M32.82,73.41c.49,0,.74.21.74.59a2.09,2.09,0,0,1-.05.32,9.39,9.39,0,0,1-.5,1.35,2.11,2.11,0,0,1,.6,1.48c0,.79-.31,1.07-.86,1.07h-.24a.3.3,0,0,1-.24-.19v1.43c0,.18-.18.28-.37.28s-.37-.1-.37-.28V74.08c0-.46.21-.67.72-.67Zm-.41.67c-.11,0-.14,0-.14.17v3.46a.29.29,0,0,1,.26-.2h.15c.15,0,.19-.07.19-.37a1.72,1.72,0,0,0-.43-1.1.43.43,0,0,1-.13-.31.79.79,0,0,1,.08-.3,7.21,7.21,0,0,0,.41-1.19.34.34,0,0,0,0-.09c0-.06,0-.08-.13-.08Zm4.07,4.72c0,.12.06.15.25.15s.29-.08.31-.37a.34.34,0,0,1,.37-.31.33.33,0,0,1,.36.33,1.36,1.36,0,0,1-.16.66c-.16.23-.38.35-.93.35-.72,0-.93-.16-.93-.64V77.11h-.4a2.8,2.8,0,0,1-1.72,2.55.4.4,0,0,1-.15,0,.35.35,0,0,1-.34-.36.35.35,0,0,1,.23-.32,2,2,0,0,0,1.23-1.9h-.55a.3.3,0,0,1-.28-.33.29.29,0,0,1,.28-.33h3.34a.3.3,0,0,1,.28.33.29.29,0,0,1-.28.33h-.91Zm-1.23-5.3c0-.19.19-.29.39-.29s.37.1.37.29v.57h.85c.62,0,.79.26.79.7v.37c0,.19-.18.29-.37.29s-.37-.1-.37-.29v-.26c0-.13-.06-.17-.22-.17h-2c-.16,0-.22,0-.22.17v.31a.32.32,0,0,1-.36.29c-.19,0-.38-.1-.38-.29v-.42c0-.44.17-.7.79-.7h.74Zm-.47,2.42a.3.3,0,0,1-.28-.33.3.3,0,0,1,.28-.33H36.6a.3.3,0,0,1,.28.33.29.29,0,0,1-.28.33Z"/><path class="cls-4" d="M38.59,77A3,3,0,0,1,41.84,74a2.44,2.44,0,0,1,2.69,2.47,2.6,2.6,0,0,1-2,2.58.45.45,0,0,1-.16,0,.4.4,0,0,1-.1-.78,1.8,1.8,0,0,0,1.4-1.83A1.71,1.71,0,0,0,42,74.76a7,7,0,0,1-.79,3,1.43,1.43,0,0,1-1.34.89C39.18,78.62,38.59,78,38.59,77Zm.8,0c0,.64.26.88.51.88s.41-.11.61-.47a6.5,6.5,0,0,0,.7-2.55A2.21,2.21,0,0,0,39.39,77Z"/><path class="cls-4" d="M46.53,76.87c-.28,0-.55,0-.81,0a.33.33,0,0,1,0-.66h.34c.15-.2.29-.41.43-.63a9.55,9.55,0,0,0-.8-.86.3.3,0,0,1-.11-.23.34.34,0,0,1,.33-.32.32.32,0,0,1,.23.09v0a8.14,8.14,0,0,0,.43-.89.33.33,0,0,1,.31-.21.34.34,0,0,1,.37.31.35.35,0,0,1,0,.13,7.68,7.68,0,0,1-.6,1.13c.07.08.15.16.22.25.14-.24.27-.47.38-.68a.31.31,0,0,1,.29-.18.35.35,0,0,1,.35.31.29.29,0,0,1,0,.16,14,14,0,0,1-1,1.56l.59,0a.83.83,0,0,0-.09-.16.27.27,0,0,1,0-.14.3.3,0,0,1,.3-.27.31.31,0,0,1,.27.15,4.87,4.87,0,0,1,.47.91.6.6,0,0,1,0,.12.32.32,0,0,1-.34.29.27.27,0,0,1-.27-.18.58.58,0,0,1-.05-.14,3.47,3.47,0,0,1-.45.06v2.65c0,.18-.17.27-.36.27s-.35-.09-.35-.27Zm-.44.38a.29.29,0,0,1,.31.27v0a5,5,0,0,1-.32,1.27.31.31,0,0,1-.3.21.29.29,0,0,1-.31-.28.35.35,0,0,1,0-.13,5.56,5.56,0,0,0,.31-1.15A.27.27,0,0,1,46.09,77.25Zm2.12,1.06v.07a.3.3,0,0,1-.31.3.29.29,0,0,1-.29-.23,6.26,6.26,0,0,0-.23-1,.22.22,0,0,1,0-.08.27.27,0,0,1,.3-.25.28.28,0,0,1,.28.19A5.6,5.6,0,0,1,48.21,78.31Zm1.88-4.12A3.19,3.19,0,0,1,49,76.4a.43.43,0,0,1-.3.12.35.35,0,0,1-.36-.34.4.4,0,0,1,.17-.32,2.45,2.45,0,0,0,.88-1.67H48.7a.31.31,0,0,1-.3-.33.3.3,0,0,1,.3-.33h2.19c.57,0,.81.23.81.67v0a6.32,6.32,0,0,1-.16,1.42.78.78,0,0,1-.85.7,2.63,2.63,0,0,1-.47,0,.33.33,0,0,1-.3-.34.34.34,0,0,1,.34-.35h.08l.26,0c.12,0,.19,0,.23-.19A4.37,4.37,0,0,0,51,74.34c0-.11,0-.15-.19-.15Zm-.52,5.32c-.66,0-.88-.27-.88-.75V77.52c0-.47.22-.73.88-.73h1.19c.65,0,.87.26.87.73v1.26c0,.6-.33.73-.87.73Zm1.12-.63c.16,0,.21,0,.21-.19V77.62c0-.14,0-.19-.21-.19H49.63c-.16,0-.21,0-.21.19v1.07c0,.15.06.19.21.19Z"/><path class="cls-4" d="M58.77,75.6A.44.44,0,0,1,59,76a.39.39,0,0,1-.38.4.56.56,0,0,1-.25-.08,9.86,9.86,0,0,1-2.72-2.17A10.31,10.31,0,0,1,53,76.42a.33.33,0,0,1-.2.06.38.38,0,0,1-.37-.37.4.4,0,0,1,.22-.34,9,9,0,0,0,2.75-2.48.43.43,0,0,1,.35-.18.36.36,0,0,1,.4.33.43.43,0,0,1,0,.11A8.4,8.4,0,0,0,58.77,75.6Zm-4.56.49a.35.35,0,0,1,.39-.32.35.35,0,0,1,.39.32v.66a3.37,3.37,0,0,1-1.36,2.89.48.48,0,0,1-.28.1.36.36,0,0,1-.37-.35.46.46,0,0,1,.21-.35,2.66,2.66,0,0,0,1-2.32Zm2.22,0a.4.4,0,0,1,.78,0v3.29c0,.21-.19.31-.39.31s-.39-.1-.39-.31Z"/><path class="cls-4" d="M61,74.4a.27.27,0,0,1,.27-.22.25.25,0,0,1,.27.25.13.13,0,0,1,0,.06c0,.19-.09.39-.14.59L61.8,75h.06a.25.25,0,0,1,.25.27.24.24,0,0,1-.22.25l-.71.13a9.29,9.29,0,0,1-.77,1.68.32.32,0,0,1-.28.18.27.27,0,0,1-.28-.26.32.32,0,0,1,.06-.18,7.83,7.83,0,0,0,.67-1.36l-.52,0a.26.26,0,0,1-.26-.28.24.24,0,0,1,.24-.26l.73,0A7.78,7.78,0,0,0,61,74.4Zm.89,4.19c-.59,0-1-.26-1-.72s.34-.73,1-.73h.25a4.52,4.52,0,0,1,0-.53,3.33,3.33,0,0,1,0-.48.26.26,0,0,1,.27-.2.25.25,0,0,1,.28.23s0,0,0,0a2.83,2.83,0,0,0,0,.41,3.38,3.38,0,0,0,.07.65,3.46,3.46,0,0,1,.94.43.3.3,0,0,1,.13.24.27.27,0,0,1-.26.27.32.32,0,0,1-.17-.06,3.27,3.27,0,0,0-.57-.32C62.76,78.39,62.35,78.59,61.86,78.59Zm.36-.81v-.13l-.32,0c-.35,0-.46.11-.46.25s.1.23.42.23S62.22,78,62.22,77.78Zm1.54-2.34a.31.31,0,0,1,.17.26.28.28,0,0,1-.27.28.3.3,0,0,1-.15,0,4.15,4.15,0,0,0-.71-.34.24.24,0,0,1-.18-.23.28.28,0,0,1,.28-.28l.1,0A2.73,2.73,0,0,1,63.76,75.44Z"/><path class="cls-4" d="M65.66,74.54a.27.27,0,0,1,.29-.27.27.27,0,0,1,.29.27A8.72,8.72,0,0,0,66.36,76a6.8,6.8,0,0,1,1-.39h.09a.28.28,0,0,1,.26.28.25.25,0,0,1-.19.24,6.29,6.29,0,0,0-1.32.58c-.43.28-.58.56-.58.81s.21.47,1,.47a5.09,5.09,0,0,0,1-.09h.07a.26.26,0,0,1,.27.27.27.27,0,0,1-.23.28,5.79,5.79,0,0,1-1.15.1c-1,0-1.58-.32-1.58-1a1.49,1.49,0,0,1,.82-1.24A8,8,0,0,1,65.66,74.54Zm1.48.08a.21.21,0,0,1,.21-.19.19.19,0,0,1,.15.07,2.61,2.61,0,0,1,.35.47.19.19,0,0,1,0,.12.2.2,0,0,1-.21.2.2.2,0,0,1-.17-.11,3.51,3.51,0,0,0-.33-.45A.19.19,0,0,1,67.14,74.62Zm.53-.35a.2.2,0,0,1,.21-.18.23.23,0,0,1,.16.07,2.58,2.58,0,0,1,.35.45.24.24,0,0,1,0,.13.19.19,0,0,1-.2.2.24.24,0,0,1-.18-.11c-.1-.16-.23-.32-.33-.45A.21.21,0,0,1,67.67,74.27Z"/><path class="cls-4" d="M9.66,80v-.35H59.38V80Z"/><path class="cls-4" d="M14.21,87.2a5.75,5.75,0,0,1-.6.37l-.14,0a.26.26,0,0,1-.25-.27.26.26,0,0,1,.16-.24,5.31,5.31,0,0,0,.83-.51V84.34c0-.14.14-.21.27-.21s.28.07.28.21v4.23c0,.14-.14.21-.28.21s-.27-.07-.27-.21Zm-.15-1.49a.25.25,0,0,1,0,.12.26.26,0,0,1-.5.09,4.32,4.32,0,0,0-.22-.43.38.38,0,0,1,0-.13.25.25,0,0,1,.26-.22.29.29,0,0,1,.23.12A2.4,2.4,0,0,1,14.06,85.71Zm2.63.3a4.33,4.33,0,0,0,1.11,2.15.28.28,0,0,1,.1.2.29.29,0,0,1-.28.28.32.32,0,0,1-.22-.1,4.5,4.5,0,0,1-1-1.81,4,4,0,0,1-1,1.87.3.3,0,0,1-.22.1.23.23,0,0,1-.24-.23.32.32,0,0,1,.1-.22A3.68,3.68,0,0,0,16,86h-.77c-.13,0-.19-.12-.19-.25s.06-.24.19-.24h.81c0-.13,0-.27,0-.4v-.77c0-.15.13-.22.27-.22a.23.23,0,0,1,.26.22v1.17h1c.14,0,.2.12.2.24s-.06.25-.2.25Zm.84-1.12a.34.34,0,0,1,0,.15.25.25,0,0,1-.25.25.23.23,0,0,1-.2-.12,3.62,3.62,0,0,0-.26-.37.24.24,0,0,1-.05-.14.23.23,0,0,1,.24-.21.32.32,0,0,1,.21.09A3.24,3.24,0,0,1,17.53,84.89Z"/><path class="cls-4" d="M19.32,85.85a.32.32,0,0,1,.09.2.29.29,0,0,1-.29.27.26.26,0,0,1-.19-.08,3.67,3.67,0,0,0-.42-.39.26.26,0,0,1-.1-.2.28.28,0,0,1,.28-.25.32.32,0,0,1,.17.06A2.44,2.44,0,0,1,19.32,85.85Zm.11,1a.29.29,0,0,1,.3.26.31.31,0,0,1,0,.08,6.12,6.12,0,0,1-.61,1.34.31.31,0,0,1-.27.15.27.27,0,0,1-.28-.24.32.32,0,0,1,.06-.17A5.89,5.89,0,0,0,19.17,87,.25.25,0,0,1,19.43,86.8Zm.25-2.15a.28.28,0,0,1,.09.2.28.28,0,0,1-.28.26A.28.28,0,0,1,19.3,85a4.5,4.5,0,0,0-.41-.38.26.26,0,0,1-.1-.19.27.27,0,0,1,.28-.24.3.3,0,0,1,.18.06A2.6,2.6,0,0,1,19.68,84.65Zm1.51,1.75a2.65,2.65,0,0,1-1.29,2.28.34.34,0,0,1-.16,0,.25.25,0,0,1-.25-.25.29.29,0,0,1,.17-.24,2.08,2.08,0,0,0,1-1.83c-.38,0-.56-.16-.56-.55v-.94c0-.34.17-.55.62-.55h1.34c.45,0,.62.21.62.55v.94c0,.41-.21.55-.6.55H22V88c0,.09,0,.11.22.11s.31-.05.34-.34a.25.25,0,0,1,.26-.21.24.24,0,0,1,.26.23v0c0,.6-.28.78-.94.78s-.67-.11-.67-.44V86.4Zm.74-.48c.17,0,.21,0,.21-.18V85c0-.13,0-.17-.21-.17H20.84c-.16,0-.2,0-.2.17v.72c0,.15.06.18.2.18Z"/><path class="cls-4" d="M24.36,84.53a.26.26,0,0,1,.29.25v.06a10.45,10.45,0,0,0-.23,2.21,9.48,9.48,0,0,0,.09,1.18v0a.27.27,0,0,1-.29.26.28.28,0,0,1-.29-.24,11.07,11.07,0,0,1-.08-1.24,11.64,11.64,0,0,1,.23-2.31A.27.27,0,0,1,24.36,84.53Zm2.28,3.08a4.08,4.08,0,0,0,.75-.08h.06a.27.27,0,0,1,.27.28.26.26,0,0,1-.22.26,4.43,4.43,0,0,1-.87.09c-.93,0-1.31-.28-1.37-.89v0a.28.28,0,0,1,.29-.28.25.25,0,0,1,.26.21C25.86,87.49,26,87.61,26.64,87.61ZM27.16,85a.26.26,0,0,1,.27.26.28.28,0,0,1-.26.28,12.59,12.59,0,0,1-1.41.11.26.26,0,0,1-.29-.27.26.26,0,0,1,.27-.27A12.43,12.43,0,0,0,27.12,85Z"/><path class="cls-4" d="M30.57,84.26c0-.14.14-.2.27-.2s.27.06.27.2v.45h1.63c.13,0,.2.12.2.25a.22.22,0,0,1-.2.24H29.67c-.22,0-.29.07-.29.24V86a5.18,5.18,0,0,1-.47,2.33.3.3,0,0,1-.28.18.27.27,0,0,1-.28-.26.31.31,0,0,1,0-.15,4.79,4.79,0,0,0,.43-2.1v-.69c0-.41.2-.6.72-.6h1ZM30,86.6a.26.26,0,0,1,.27.25.13.13,0,0,1,0,.06,3.59,3.59,0,0,1-.32.94.28.28,0,0,1-.25.16.27.27,0,0,1-.27-.25.35.35,0,0,1,0-.13,3.32,3.32,0,0,0,.3-.84A.24.24,0,0,1,30,86.6Zm.45-.18c0-.15.14-.22.28-.22s.27.07.27.22V88c0,.11,0,.15.34.15s.51-.06.53-.35a.25.25,0,0,1,.27-.22.25.25,0,0,1,.27.24.88.88,0,0,1-.17.55c-.14.18-.41.27-.89.27-.74,0-.9-.11-.9-.56Zm1.27-.61a.33.33,0,0,1,.11.23.29.29,0,0,1-.28.28.31.31,0,0,1-.19-.08,3.26,3.26,0,0,0-.47-.38.26.26,0,0,1,.14-.48.28.28,0,0,1,.17.05A3,3,0,0,1,31.67,85.81Zm1.42,1.5a.4.4,0,0,1,0,.15.28.28,0,0,1-.29.27.27.27,0,0,1-.24-.17,3.94,3.94,0,0,0-.4-.68.24.24,0,0,1,0-.15.27.27,0,0,1,.27-.26.28.28,0,0,1,.23.12A4.13,4.13,0,0,1,33.09,87.31Z"/><path class="cls-4" d="M34.31,84.58a.27.27,0,0,1,.29-.25.26.26,0,0,1,.29.25c0,.07,0,.17,0,.23-.05.74-.09,1.53-.09,2.26s.2.85.56.85a1.69,1.69,0,0,0,1.36-.76A.3.3,0,0,1,37,87a.29.29,0,0,1,.29.27.32.32,0,0,1-.07.19,2.25,2.25,0,0,1-1.82,1c-.75,0-1.14-.37-1.14-1.41C34.21,86.27,34.26,85.32,34.31,84.58Zm1.61.56a.21.21,0,0,1,.21-.19.2.2,0,0,1,.14.06,2.27,2.27,0,0,1,.39.43.2.2,0,0,1,.05.14.21.21,0,0,1-.2.2.22.22,0,0,1-.17-.09,2.74,2.74,0,0,0-.37-.43A.21.21,0,0,1,35.92,85.14Zm.5-.4a.19.19,0,0,1,.21-.18.24.24,0,0,1,.15.06,2.13,2.13,0,0,1,.38.41.24.24,0,0,1,.06.15.2.2,0,0,1-.2.19.24.24,0,0,1-.18-.09,3.82,3.82,0,0,0-.37-.42A.16.16,0,0,1,36.42,84.74Z"/><path class="cls-4" d="M40.64,85.32l-2.12.31h-.05a.27.27,0,0,1-.28-.28.28.28,0,0,1,.26-.28c1-.13,2.33-.27,3.37-.37h0a.26.26,0,0,1,.27.27.27.27,0,0,1-.23.27,1.68,1.68,0,0,0-.55.2,1.57,1.57,0,0,0-.94,1.44c0,.56.38.9,1.08,1a.29.29,0,0,1,.27.3.28.28,0,0,1-.29.29,2.52,2.52,0,0,1-.37,0,1.54,1.54,0,0,1-1.27-1.5,2,2,0,0,1,.82-1.57Z"/><path class="cls-4" d="M44.4,86.86c0,.16-.14.24-.29.24a.26.26,0,0,1-.29-.24V86h-.77a.24.24,0,0,1-.23-.26.24.24,0,0,1,.23-.25h.77v-.82a.26.26,0,0,1,.29-.25.26.26,0,0,1,.29.25v.82h1.13v-.89a.26.26,0,0,1,.29-.24c.15,0,.29.08.29.24v.89H47a.23.23,0,0,1,.23.25A.23.23,0,0,1,47,86h-.88v.15a2.46,2.46,0,0,1-1.46,2.43.35.35,0,0,1-.14,0,.29.29,0,0,1-.28-.28.3.3,0,0,1,.19-.27,1.88,1.88,0,0,0,1.11-2V86H44.4Z"/><path class="cls-4" d="M48.82,86.33a.27.27,0,0,1,.29.27.25.25,0,0,1,0,.12,3.15,3.15,0,0,1-.72,1.08.31.31,0,0,1-.23.11.3.3,0,0,1-.3-.27.28.28,0,0,1,.11-.22,3,3,0,0,0,.6-.91A.28.28,0,0,1,48.82,86.33ZM50.28,88c0,.5-.25.7-.68.7l-.39,0a.28.28,0,0,1-.23-.29.28.28,0,0,1,.28-.3h.05l.22,0c.11,0,.15,0,.15-.18v-2H48.23a.27.27,0,0,1,0-.53h1.45v-.75c0-.17.16-.25.31-.25s.29.08.29.24v.76h1.43a.27.27,0,0,1,0,.53H50.28Zm1.65-.6a.36.36,0,0,1,.1.23.3.3,0,0,1-.3.29.33.33,0,0,1-.28-.15,6,6,0,0,1-.6-1,.35.35,0,0,1,0-.13.27.27,0,0,1,.28-.26.3.3,0,0,1,.28.17A4.64,4.64,0,0,0,51.93,87.35Zm.31-2.71a.54.54,0,1,1-.53-.54A.53.53,0,0,1,52.24,84.64Zm-.25,0a.28.28,0,0,0-.28-.29.29.29,0,0,0,0,.58A.28.28,0,0,0,52,84.64Z"/><path class="cls-4" d="M56.59,86.17a.27.27,0,0,1,.27.29.26.26,0,0,1-.27.28H52.94a.26.26,0,0,1-.27-.28.27.27,0,0,1,.27-.29Z"/><path class="cls-4" d="M59.11,85.93a.28.28,0,0,1,.24-.16.28.28,0,0,1,.13,0,5.44,5.44,0,0,1,1.06.64.31.31,0,0,1,.14.26.28.28,0,0,1-.28.29.35.35,0,0,1-.21-.07,8.85,8.85,0,0,0-.94-.6.31.31,0,0,1-.14-.14v2.15a.3.3,0,0,1-.6,0V84.52a.3.3,0,0,1,.6,0Z"/><path class="cls-4" d="M63.4,88a.37.37,0,0,1-.38.37.37.37,0,1,1,0-.74A.37.37,0,0,1,63.4,88Zm-.74-3.27a.36.36,0,0,1,.71,0c0,.13,0,.43,0,.58,0,.48-.07,1.23-.08,1.78a.22.22,0,0,1-.24.21.2.2,0,0,1-.22-.21c0-.55,0-1.29-.09-1.78C62.7,85.24,62.66,84.88,62.66,84.75Z"/><path class="cls-4" d="M45.4,38.7,48.49,42A11,11,0,0,0,50,36.5a5.66,5.66,0,0,0-5.56-5.78,5.83,5.83,0,0,0-4,1.5L38.39,36a1.14,1.14,0,0,0,0,1,1.73,1.73,0,0,0,.79.86A1.66,1.66,0,0,0,40.4,38a1.11,1.11,0,0,0,.67-.52l2.6-4.57a.32.32,0,1,1,.56.32l-2.59,4.56a1.72,1.72,0,0,1-1,.83,2.08,2.08,0,0,1-.6.09,2.42,2.42,0,0,1-1.16-.3,2.37,2.37,0,0,1-1.08-1.2,1.74,1.74,0,0,1,.07-1.5l.57-1a5.9,5.9,0,0,0-5.69-4,5.62,5.62,0,0,0-5.52,5.78c0,3.81,2.08,6.64,4.21,9.22,2,2.35,5.72,6.36,7,7.67h0a1.07,1.07,0,0,0,.34.07l.13,0a2.31,2.31,0,0,0,1.62-.55,1.9,1.9,0,0,0,.62-1.22.9.9,0,0,0-.18-.55,0,0,0,0,1,0,0l-.06,0-4.13-4.44-.42-.45a.3.3,0,0,1,.26-.5.36.36,0,0,1,.19.08h0l4.55,4.88s0,0,0,0h0a.82.82,0,0,0,.53.2h0a1.85,1.85,0,0,0,1.22-.54,1.81,1.81,0,0,0,.62-1.23.77.77,0,0,0-.2-.59l-.12-.13L39,43.68h0s0,0,0,0L39,43.57a.3.3,0,0,1,0-.42.29.29,0,0,1,.42,0h0L43.87,48l.07.07a.81.81,0,0,0,.59.24h0a1.85,1.85,0,0,0,1.22-.54,1.83,1.83,0,0,0,.62-1.23.76.76,0,0,0-.2-.59l-.29-.31L41.65,41h0a.27.27,0,0,1-.06-.26.33.33,0,0,1,.09-.23.3.3,0,0,1,.43,0l0,0,4.17,4.49.33.35a.8.8,0,0,0,.58.23h0a2,2,0,0,0,1.84-1.77.81.81,0,0,0-.21-.59l-.73-.79L45,39.11s0,0,0-.07a.29.29,0,0,1,.46-.34Z"/></g></g></g></svg>