<svg xmlns="http://www.w3.org/2000/svg" viewBox="0 0 76.54 96.38"><defs><style>.cls-1{isolation:isolate;}.cls-2{mix-blend-mode:multiply;}.cls-3{fill:#005ca7;}.cls-4{fill:#fff;}</style></defs><g class="cls-1"><g id="レイヤー_2" data-name="レイヤー 2"><g id="レイヤー_1-2" data-name="レイヤー 1"><g class="cls-2"><rect class="cls-3" width="76.54" height="96.38" rx="4.9"/></g><path class="cls-4" d="M20.65,8c.71,0,1.1.33,1.1.76a1.06,1.06,0,0,1-.43.78,9.38,9.38,0,0,1-1.32.95.43.43,0,0,1,.1.27v.1h2.17c.63,0,1,.33,1,.73a1,1,0,0,1-.27.64,4.86,4.86,0,0,1-1.24,1.06.58.58,0,0,1-.3.09.5.5,0,0,1-.5-.48.5.5,0,0,1,.27-.42,3.75,3.75,0,0,0,.73-.55.21.21,0,0,0,0-.1s0-.06-.12-.06H19.73v3c0,.81-.37,1.17-1.22,1.17a2.74,2.74,0,0,1-.72-.08.49.49,0,0,1,.09-1H18a2,2,0,0,0,.48,0c.2,0,.27-.08.27-.3V11.8H15.49c-.26,0-.38-.22-.38-.46a.4.4,0,0,1,.38-.45H19a10,10,0,0,0-1-.78.48.48,0,0,1-.25-.4.47.47,0,0,1,.48-.44.54.54,0,0,1,.26.07,9.14,9.14,0,0,1,.83.55,6.77,6.77,0,0,0,1.08-.76q.09-.08.09-.12S20.4,9,20.29,9H16.57a.46.46,0,0,1,0-.92Z"/><path class="cls-4" d="M25.27,12.39l-1.07.06a.43.43,0,0,1,0-.85h.45c.2-.26.39-.54.58-.82a14.07,14.07,0,0,0-1.06-1.1.4.4,0,0,1-.14-.3.43.43,0,0,1,.72-.3l0,0c.19-.34.39-.74.56-1.13a.45.45,0,0,1,.42-.27.44.44,0,0,1,.47.39.42.42,0,0,1,0,.18,10.66,10.66,0,0,1-.79,1.45,3.11,3.11,0,0,1,.29.33c.18-.33.36-.63.51-.91a.39.39,0,0,1,.37-.24.46.46,0,0,1,.47.42.38.38,0,0,1-.06.21,20.16,20.16,0,0,1-1.3,2l.78-.07-.13-.21a.41.41,0,0,1,0-.19.38.38,0,0,1,.39-.34.43.43,0,0,1,.35.19,6,6,0,0,1,.62,1.19.39.39,0,0,1,0,.14.42.42,0,0,1-.45.39.36.36,0,0,1-.34-.23.48.48,0,0,0-.07-.18l-.6.07v3.38c0,.24-.23.36-.46.36s-.46-.12-.46-.36Zm-.58.48a.37.37,0,0,1,.4.35v0a6.59,6.59,0,0,1-.41,1.62.43.43,0,0,1-.4.26.39.39,0,0,1-.42-.36.45.45,0,0,1,.05-.18,6,6,0,0,0,.4-1.45A.36.36,0,0,1,24.69,12.87Zm2.77,1.35a.38.38,0,0,1,0,.1.39.39,0,0,1-.41.38.37.37,0,0,1-.38-.3,8.77,8.77,0,0,0-.29-1.2.27.27,0,0,1,0-.12.35.35,0,0,1,.38-.32.36.36,0,0,1,.36.25A7.28,7.28,0,0,1,27.46,14.22Zm3.23-4.78c.8,0,1.11.33,1.11,1a23.26,23.26,0,0,1-.34,4.2c-.17.86-.59,1.17-1.3,1.17a3,3,0,0,1-.67-.07.5.5,0,0,1,.06-1h.1a2,2,0,0,0,.44.06c.24,0,.35-.08.41-.4a22.1,22.1,0,0,0,.31-3.84c0-.22-.08-.28-.33-.28H28.73c-.14.26-.28.51-.44.75a.54.54,0,0,1-.45.27.48.48,0,0,1-.49-.45.51.51,0,0,1,.1-.3,8.4,8.4,0,0,0,1.1-2.53A.45.45,0,0,1,29,7.69a.45.45,0,0,1,.51.57c-.11.4-.24.79-.39,1.18Zm-.77,3.05a.49.49,0,0,1,.09.29.51.51,0,0,1-.5.5.48.48,0,0,1-.42-.26,6,6,0,0,0-.61-.86.44.44,0,0,1-.11-.29.47.47,0,0,1,.48-.44.53.53,0,0,1,.39.17A5.37,5.37,0,0,1,29.92,12.49Z"/><path class="cls-4" d="M34.31,15.12a.55.55,0,0,1-.49.29.47.47,0,0,1-.5-.45.67.67,0,0,1,.08-.28,14.93,14.93,0,0,0,1.38-3.52c-.37.05-.73.11-1.07.18h-.12a.43.43,0,0,1-.43-.46.47.47,0,0,1,.41-.46c.46-.09,1-.16,1.43-.21.11-.55.2-1.11.26-1.66a.51.51,0,0,1,1,0v.06c-.06.49-.14,1-.24,1.49h.49c1.15,0,1.58.52,1.58,1.93a8.11,8.11,0,0,1-.25,2.16c-.28,1-.69,1.4-1.6,1.4a3.67,3.67,0,0,1-.61,0,.47.47,0,0,1-.44-.48.47.47,0,0,1,.46-.5h.07a3.74,3.74,0,0,0,.49,0c.32,0,.48-.1.63-.63a7,7,0,0,0,.24-2c0-.81-.15-1-.59-1l-.66,0A16.57,16.57,0,0,1,34.31,15.12Zm6.53-3.63a.59.59,0,0,1,.07.3.52.52,0,0,1-.52.53A.55.55,0,0,1,39.9,12a8.59,8.59,0,0,0-1.28-1.85.51.51,0,0,1-.15-.32A.51.51,0,0,1,39,9.34a.61.61,0,0,1,.41.18A7.65,7.65,0,0,1,40.84,11.49ZM39.19,8.38A.37.37,0,0,1,39.57,8a.38.38,0,0,1,.25.1,4.07,4.07,0,0,1,.71.78.39.39,0,0,1,.08.25.37.37,0,0,1-.36.36.37.37,0,0,1-.3-.18,7.53,7.53,0,0,0-.67-.76A.32.32,0,0,1,39.19,8.38Zm.9-.72a.36.36,0,0,1,.37-.33.39.39,0,0,1,.27.11,4,4,0,0,1,.7.73.44.44,0,0,1,.1.28.36.36,0,0,1-.36.34.4.4,0,0,1-.32-.17,9.9,9.9,0,0,0-.67-.74A.3.3,0,0,1,40.09,7.66Z"/><path class="cls-4" d="M43.52,9.11a8.6,8.6,0,0,1-.57.7.52.52,0,0,1-.39.18.41.41,0,0,1-.43-.4.48.48,0,0,1,.14-.33,5.74,5.74,0,0,0,1-1.43.45.45,0,0,1,.43-.26.42.42,0,0,1,.45.38.54.54,0,0,1,0,.19c0,.08-.08.17-.13.25h1.71a.36.36,0,0,1,0,.72H45c0,.06.07.11.09.16a.35.35,0,0,1,0,.18.41.41,0,0,1-.43.37.43.43,0,0,1-.4-.26,4,4,0,0,0-.24-.45Zm.16,3.21v3.39c0,.23-.23.33-.46.33s-.47-.1-.47-.33v-5c0-.58.24-.83,1.11-.83h.89c.87,0,1.11.23,1.11.8v.84a.65.65,0,0,1-.34.67,1.8,1.8,0,0,1-.77.11Zm1.26-1.63c0-.16,0-.19-.26-.19h-.74c-.22,0-.26,0-.26.19v.15h1.26Zm-.26,1c.23,0,.26,0,.26-.19v-.16H43.68v.35Zm.87,3.55c-.75,0-1-.25-1-.79V13.44c0-.54.24-.78,1-.78H47c.74,0,1,.24,1,.78v1.05c0,.67-.4.79-1,.79Zm1.56-1.6V13.5c0-.15,0-.19-.24-.19H45.66c-.18,0-.24,0-.24.19v.18Zm-1.69.76c0,.17.1.19.24.19h1.21c.19,0,.24-.05.24-.19v-.19H45.42Zm4.62-6a.36.36,0,0,1,0,.72h-1.3a1.09,1.09,0,0,1,.08.15.32.32,0,0,1,.06.18.41.41,0,0,1-.44.36.4.4,0,0,1-.38-.23c-.08-.15-.16-.31-.26-.46h-.62a4.44,4.44,0,0,1-.46.56.53.53,0,0,1-.38.17.42.42,0,0,1-.44-.39A.37.37,0,0,1,46,9.17a5.78,5.78,0,0,0,.91-1.36.45.45,0,0,1,.42-.26.43.43,0,0,1,.44.4.39.39,0,0,1,0,.2c0,.08-.08.16-.11.24Zm-2.3,3.93c-.87,0-1.11-.21-1.11-.78V10.7c0-.57.24-.8,1.11-.8h1c.87,0,1.11.25,1.11.83V15c0,.72-.31,1-1,1a3.16,3.16,0,0,1-.55,0,.42.42,0,0,1-.39-.44.39.39,0,0,1,.39-.41h.07l.36,0c.17,0,.2-.06.2-.27V12.32Zm1.16-1.63c0-.16,0-.19-.26-.19h-.83c-.23,0-.26,0-.26.19v.15H48.9Zm0,.69H47.55v.16c0,.15,0,.19.26.19H48.9Z"/><path class="cls-4" d="M52.42,13.14c-.7,0-1.17-.14-1.17-.93V10.59c0-.63.31-.93,1.17-.93H55a10,10,0,0,0,1-1.73.51.51,0,0,1,.47-.31.49.49,0,0,1,.5.45.45.45,0,0,1-.06.21,9,9,0,0,1-.84,1.38c.86,0,1.16.3,1.16.93v1.62c0,.64-.3.93-1.17.93H54.71v.57h3.34a.44.44,0,0,1,0,.87H54.71V15.7c0,.25-.23.38-.48.38a.42.42,0,0,1-.47-.38V14.58H50.53a.44.44,0,0,1,0-.87h3.23v-.57Zm.37-4.41a.54.54,0,0,1,.09.28.46.46,0,0,1-.49.44.51.51,0,0,1-.45-.26c-.17-.25-.29-.43-.49-.69a.43.43,0,0,1-.1-.27.47.47,0,0,1,.5-.42.57.57,0,0,1,.42.19A7.21,7.21,0,0,1,52.79,8.73Zm1,2.29V10.4H52.55c-.28,0-.34.07-.34.26V11Zm0,1.37v-.65H52.21v.39c0,.19.07.26.34.26Zm.91-3.77a.36.36,0,0,1,0,.19.47.47,0,0,1-.49.44.48.48,0,0,1-.46-.3,6.38,6.38,0,0,0-.37-.74.41.41,0,0,1,.4-.64.54.54,0,0,1,.44.25A4.51,4.51,0,0,1,54.67,8.62Zm0,2.4h1.61v-.35c0-.2-.06-.27-.34-.27H54.71Zm0,.72v.65H56c.28,0,.34-.07.34-.26v-.39Z"/><path class="cls-4" d="M62.1,14.67a.69.69,0,0,1-1.37,0,.69.69,0,0,1,1.37,0ZM60.77,8.78a.64.64,0,0,1,1.28,0c0,.24,0,.78-.07,1-.06.88-.13,2.21-.15,3.21a.39.39,0,0,1-.43.38A.37.37,0,0,1,61,13c0-1-.09-2.33-.15-3.21C60.84,9.66,60.77,9,60.77,8.78Z"/><path class="cls-4" d="M7.81,19.76a.35.35,0,0,1,.36.34,6.58,6.58,0,0,1-.24,1.34.37.37,0,0,1-.36.28.33.33,0,0,1-.35-.32.57.57,0,0,1,0-.13,7.44,7.44,0,0,0,.25-1.21A.32.32,0,0,1,7.81,19.76Zm1.43,5.88c0,.26-.24.39-.48.39s-.48-.13-.48-.39V18c0-.26.24-.39.48-.39s.48.13.48.39Zm.95-5v.07a.35.35,0,0,1-.36.36.32.32,0,0,1-.32-.29A5.76,5.76,0,0,0,9.34,20a.5.5,0,0,1,0-.12.31.31,0,0,1,.33-.3.34.34,0,0,1,.33.26A5.61,5.61,0,0,1,10.19,20.63Zm2.21-2.57c0-.27.24-.4.49-.4a.43.43,0,0,1,.48.4v1.15h1.86a.44.44,0,0,1,0,.88h-3.4v4.1c0,.4.15.49,1,.49a19.26,19.26,0,0,0,2.11-.13H15a.47.47,0,0,1,.05.94,20.5,20.5,0,0,1-2.23.14c-1.67,0-2-.32-2-1.24V20.09h-.4a.45.45,0,0,1,0-.88H12.4Z"/><path class="cls-4" d="M17.45,18.48A.48.48,0,0,1,18,18a.47.47,0,0,1,.52.45c0,.1,0,.33,0,.43-.09,1.34-.17,2.71-.17,4.05s.37,1.53,1,1.53a3.06,3.06,0,0,0,2.45-1.37.57.57,0,0,1,.43-.23.5.5,0,0,1,.41.83,4.09,4.09,0,0,1-3.29,1.77c-1.34,0-2-.67-2-2.54C17.26,21.51,17.35,19.8,17.45,18.48Z"/><path class="cls-4" d="M24.11,18.76a.49.49,0,0,1,.53.48c0,.12,0,.56,0,.84,0,3.15.64,4,1,4,.22,0,.42-.14.59-.82a.46.46,0,0,1,.46-.38.49.49,0,0,1,.51.48.44.44,0,0,1,0,.16c-.33,1.2-.91,1.64-1.51,1.64-1.31,0-2.1-1.61-2.1-5,0-.41,0-.68,0-.92A.49.49,0,0,1,24.11,18.76Zm6.79,3.82a.68.68,0,0,1,0,.19.48.48,0,0,1-.5.47A.5.5,0,0,1,30,22.9a7.9,7.9,0,0,0-1.56-2.45.46.46,0,0,1,.36-.79.59.59,0,0,1,.4.17A7.09,7.09,0,0,1,30.9,22.58Z"/><path class="cls-4" d="M34.37,18a.44.44,0,0,1,.49-.41c.26,0,.5.14.5.41v1.18h3.18a.41.41,0,0,1,.39.45.41.41,0,0,1-.39.45H35.09a8.78,8.78,0,0,1-.12,1H36.6c.87,0,1.26.27,1.26,1a12,12,0,0,1-.32,2.44A1.44,1.44,0,0,1,36,25.77a3.54,3.54,0,0,1-.93-.1.48.48,0,0,1-.4-.46.47.47,0,0,1,.47-.5l.13,0a3.11,3.11,0,0,0,.69.09c.34,0,.56-.15.66-.58a9.56,9.56,0,0,0,.29-2.07c0-.18-.07-.24-.29-.24H34.77a6.2,6.2,0,0,1-2.92,3.87.64.64,0,0,1-.3.09.49.49,0,0,1-.49-.5.52.52,0,0,1,.28-.44,5.39,5.39,0,0,0,1.41-1.16,6.29,6.29,0,0,0,1.31-3.74H31.3a.42.42,0,0,1-.39-.45.41.41,0,0,1,.39-.45h3.07Z"/><path class="cls-4" d="M40.41,18.38a.47.47,0,0,1,.52.46.38.38,0,0,1,0,.1,18.56,18.56,0,0,0-.41,4A19.42,19.42,0,0,0,40.67,25s0,.06,0,.08a.49.49,0,0,1-.52.47.5.5,0,0,1-.53-.44,19.91,19.91,0,0,1-.15-2.22,20.64,20.64,0,0,1,.42-4.16A.49.49,0,0,1,40.41,18.38Zm4.09,5.54a7.29,7.29,0,0,0,1.35-.14H46a.49.49,0,0,1,.48.51.47.47,0,0,1-.4.48,8.46,8.46,0,0,1-1.55.15c-1.67,0-2.36-.51-2.46-1.59v-.05a.5.5,0,0,1,.52-.5.44.44,0,0,1,.46.38C43.09,23.71,43.37,23.92,44.5,23.92Zm.93-4.75a.47.47,0,0,1,.49.48.5.5,0,0,1-.46.5,23,23,0,0,1-2.54.19.47.47,0,0,1-.52-.48.47.47,0,0,1,.48-.49,21.84,21.84,0,0,0,2.48-.2Z"/><path class="cls-4" d="M50.65,25.67c0,.26-.23.38-.47.38s-.47-.12-.47-.38v-.75a22,22,0,0,1-2.69.53h0a.42.42,0,0,1-.4-.44.39.39,0,0,1,.35-.41l.7-.09V21.6H47c-.21,0-.31-.2-.31-.39s.1-.39.31-.39h7.63a.35.35,0,0,1,.32.39.35.35,0,0,1-.32.39h-4Zm-1.58-5.22c-.7,0-1-.24-1-.79V18.6c0-.55.3-.79,1-.79H52.5c.71,0,1,.24,1,.79v1.06c0,.66-.43.79-1,.79Zm-.52,1.15v.45h1.16V21.6Zm0,1.08v.47h1.16v-.47Zm0,1.69c.39-.06.78-.15,1.16-.23v-.36H48.55Zm4-5.73c0-.15-.07-.2-.29-.2h-3c-.22,0-.29,0-.29.2v.19h3.58Zm-.29,1.18c.22,0,.29-.05.29-.2v-.19H49v.19c0,.18.13.2.29.2Zm1.14,2.23c.6,0,.91.24.91.64a1.32,1.32,0,0,1-.13.54,4.57,4.57,0,0,1-.71,1.06,4.63,4.63,0,0,0,1.07.65.46.46,0,0,1,.3.42.44.44,0,0,1-.43.45.63.63,0,0,1-.22,0,5,5,0,0,1-1.33-.88,6.91,6.91,0,0,1-1.45.93.48.48,0,0,1-.2,0,.42.42,0,0,1-.42-.43.42.42,0,0,1,.29-.39,5.25,5.25,0,0,0,1.2-.77,5.77,5.77,0,0,1-.89-1.49h-.15a.37.37,0,0,1,0-.72Zm-1.14.72a4.84,4.84,0,0,0,.58.91,3.86,3.86,0,0,0,.45-.69.33.33,0,0,0,0-.12c0-.08-.06-.1-.18-.1Z"/><path class="cls-4" d="M57.28,24.14c.57.55,1.45.77,3.54.77a24.26,24.26,0,0,0,2.44-.1h.06a.43.43,0,0,1,.44.45.45.45,0,0,1-.44.47c-.7.05-1.52.08-2.47.08-2.26,0-3.23-.25-3.93-.91a7.17,7.17,0,0,1-.94.9.54.54,0,0,1-.32.11.47.47,0,0,1-.47-.45.54.54,0,0,1,.26-.42,5.45,5.45,0,0,0,.9-.8V22.5c0-.16,0-.21-.26-.21h-.4a.42.42,0,0,1-.4-.44.4.4,0,0,1,.4-.44h.61c.7,0,1,.31,1,.93Zm-.11-5.23a.53.53,0,0,1,.13.35.51.51,0,0,1-.51.49.47.47,0,0,1-.39-.2,5.52,5.52,0,0,0-.59-.62.44.44,0,0,1-.17-.35.48.48,0,0,1,.48-.46.54.54,0,0,1,.35.13A4.05,4.05,0,0,1,57.17,18.91Zm6.06,4.78c0,.62-.35.91-1,.91l-.46,0a.43.43,0,0,1-.4-.43.51.51,0,0,1,.07-.24,1.14,1.14,0,0,1-.37,0H60c-.56,0-.77-.19-.77-.64v-.54c0-.45.21-.65.77-.65h.09v-.43h-.76a.31.31,0,0,1-.3-.35.31.31,0,0,1,.3-.34h.76v-.43h-1c-.23,0-.31.07-.31.24v3.37c0,.23-.22.35-.45.35s-.45-.12-.45-.35V20.7c0-.6.31-.89,1.12-.89h.27a2.84,2.84,0,0,0-.22-.35.28.28,0,0,1-.07-.19.37.37,0,0,1,.07-.2H57.94a.36.36,0,0,1-.33-.4c0-.21.11-.41.33-.41h2.15v-.33c0-.24.24-.36.46-.36s.46.12.46.36v.33h2.22a.41.41,0,0,1,0,.81H62a.39.39,0,0,1,.09.22.28.28,0,0,1,0,.15c-.06.13-.12.26-.18.37h.24c.81,0,1.12.29,1.12.89Zm-2.34-3.88a4.16,4.16,0,0,0,.34-.66.22.22,0,0,1,.05-.08H59.79a1.71,1.71,0,0,1,.29.43.41.41,0,0,1,.05.18.31.31,0,0,1,0,.13Zm0,3.53c.14,0,.17,0,.17-.14v-.34c0-.11,0-.15-.17-.15h-.72c-.13,0-.17,0-.17.15v.34c0,.12.06.14.17.14Zm.93,0a.69.69,0,0,1-.12.43h.15a1.37,1.37,0,0,0,.27,0c.13,0,.18-.07.18-.2V20.81c0-.17-.07-.24-.3-.24H61V21h.78a.3.3,0,0,1,.3.34c0,.18-.09.35-.3.35H61v.43h.1c.56,0,.77.2.77.65Z"/><path class="cls-4" d="M67.3,24.67a.69.69,0,0,1-1.37,0,.69.69,0,0,1,1.37,0ZM66,18.78a.64.64,0,0,1,1.28,0c0,.24-.06.78-.08,1C67.12,20.7,67.06,22,67,23a.39.39,0,0,1-.42.38A.38.38,0,0,1,66.2,23c0-1-.09-2.33-.15-3.21C66,19.66,66,19,66,18.78Z"/><path class="cls-4" d="M8.24,56.17a4.46,4.46,0,0,1-.32.39.3.3,0,0,1-.22.1.23.23,0,0,1-.24-.22.29.29,0,0,1,.08-.18,3.71,3.71,0,0,0,.56-.8.25.25,0,0,1,.24-.14.23.23,0,0,1,.25.21.22.22,0,0,1,0,.1l-.07.14h.95a.2.2,0,0,1,0,.4H9.07a.41.41,0,0,1,0,.09.22.22,0,0,1,0,.1.24.24,0,0,1-.46.06,2.18,2.18,0,0,0-.14-.25ZM8.33,58v1.88c0,.13-.13.19-.26.19s-.26-.06-.26-.19V57.07c0-.32.13-.46.62-.46h.49c.48,0,.62.13.62.44v.48a.37.37,0,0,1-.19.37,1,1,0,0,1-.43.06Zm.7-.91c0-.09,0-.11-.15-.11H8.47c-.12,0-.14,0-.14.11v.08H9Zm-.15.58c.13,0,.15,0,.15-.1v-.1h-.7v.2Zm.48,2c-.41,0-.55-.13-.55-.43v-.59c0-.3.14-.43.55-.43h.8c.42,0,.56.13.56.43v.59c0,.37-.22.43-.56.43Zm.87-.89v-.1c0-.08,0-.1-.13-.1H9.43c-.11,0-.14,0-.14.1v.1Zm-.94.43c0,.09.06.1.14.1h.67c.1,0,.13,0,.13-.1V59H9.29Zm2.57-3.37a.2.2,0,0,1,0,.4h-.72a.56.56,0,0,0,0,.08.22.22,0,0,1,0,.1.25.25,0,0,1-.46.08c0-.09-.09-.17-.14-.26h-.35a2.81,2.81,0,0,1-.25.31.32.32,0,0,1-.22.1.23.23,0,0,1-.24-.22.23.23,0,0,1,.07-.16,3.82,3.82,0,0,0,.51-.75.22.22,0,0,1,.22-.14.24.24,0,0,1,.25.22.52.52,0,0,1,0,.11.83.83,0,0,0-.07.13ZM10.59,58c-.49,0-.63-.12-.63-.43v-.48c0-.31.14-.44.63-.44h.54c.48,0,.62.14.62.46v2.37c0,.4-.18.57-.56.57l-.31,0a.24.24,0,0,1-.22-.25.22.22,0,0,1,.22-.23h0l.2,0c.09,0,.11,0,.11-.15V58Zm.64-.91c0-.09,0-.11-.15-.11h-.46c-.12,0-.14,0-.14.11v.08h.75Zm0,.38h-.75v.1c0,.08,0,.1.14.1h.61Z"/><path class="cls-4" d="M13.76,58.42c-.39,0-.65-.08-.65-.52V57c0-.35.17-.51.65-.51H15.2a5.17,5.17,0,0,0,.57-1,.3.3,0,0,1,.27-.18.25.25,0,0,1,.24.37,4.78,4.78,0,0,1-.47.77c.48,0,.65.16.65.51v.91c0,.35-.17.52-.65.52H15v.31h1.86a.24.24,0,0,1,0,.48H15v.63c0,.14-.13.21-.26.21s-.27-.07-.27-.21v-.63H12.71a.24.24,0,0,1,0-.48H14.5v-.31ZM14,56a.37.37,0,0,1,0,.16.26.26,0,0,1-.28.24.3.3,0,0,1-.25-.14l-.27-.39a.23.23,0,0,1-.05-.15.26.26,0,0,1,.27-.23.3.3,0,0,1,.24.11A4.62,4.62,0,0,1,14,56Zm.53,1.27v-.34h-.67c-.15,0-.19,0-.19.14v.2Zm0,.77v-.36h-.86v.21c0,.11,0,.15.19.15ZM15,55.9A.23.23,0,0,1,15,56a.26.26,0,0,1-.27.24.28.28,0,0,1-.26-.17,3.19,3.19,0,0,0-.21-.41.33.33,0,0,1,0-.13.25.25,0,0,1,.27-.22.27.27,0,0,1,.24.14A2.14,2.14,0,0,1,15,55.9Zm0,1.33h.9V57c0-.11,0-.15-.19-.15H15Zm0,.41V58h.71c.16,0,.19,0,.19-.15v-.21Z"/><path class="cls-4" d="M20.46,55.57c.4,0,.62.19.62.42a.63.63,0,0,1-.24.44,5.47,5.47,0,0,1-.74.52.27.27,0,0,1,.06.16v0h1.21c.35,0,.54.18.54.41a.59.59,0,0,1-.15.36,2.63,2.63,0,0,1-.69.58.28.28,0,0,1-.17.05.27.27,0,0,1-.27-.26.26.26,0,0,1,.15-.23,2.32,2.32,0,0,0,.4-.31l0-.06s0,0-.07,0H20v1.65c0,.44-.21.64-.69.64a1.81,1.81,0,0,1-.4,0,.27.27,0,0,1,.06-.53H19a1,1,0,0,0,.27,0c.12,0,.16-.05.16-.17V57.67H17.6c-.15,0-.22-.12-.22-.26a.23.23,0,0,1,.22-.25h1.95a5.68,5.68,0,0,0-.57-.43.27.27,0,0,1-.15-.22.27.27,0,0,1,.27-.25.31.31,0,0,1,.15,0,5.31,5.31,0,0,1,.46.31,4.35,4.35,0,0,0,.6-.43.12.12,0,0,0,.05-.06s0,0-.09,0H18.19a.24.24,0,0,1-.22-.25.24.24,0,0,1,.22-.26Z"/><path class="cls-4" d="M23.3,58l-.6,0c-.14,0-.21-.11-.21-.23s.06-.24.2-.24h.25a5.33,5.33,0,0,0,.32-.46c-.19-.22-.4-.44-.58-.61a.21.21,0,0,1-.08-.16.24.24,0,0,1,.24-.23.27.27,0,0,1,.16.06h0c.11-.19.22-.41.32-.63a.26.26,0,0,1,.49.07.44.44,0,0,1,0,.1,6.35,6.35,0,0,1-.44.81,1.45,1.45,0,0,1,.16.18c.1-.18.2-.35.28-.51a.24.24,0,0,1,.21-.13.25.25,0,0,1,.26.23.27.27,0,0,1,0,.12,11.86,11.86,0,0,1-.73,1.12l.44,0-.07-.11a.26.26,0,0,1,0-.11.2.2,0,0,1,.21-.19.25.25,0,0,1,.2.1,3,3,0,0,1,.34.67.21.21,0,0,1-.23.29.2.2,0,0,1-.19-.13.42.42,0,0,0,0-.1l-.33,0v1.88c0,.13-.13.2-.26.2a.23.23,0,0,1-.25-.2Zm-.32.26a.21.21,0,0,1,.22.2v0a3.47,3.47,0,0,1-.23.9.24.24,0,0,1-.22.14.21.21,0,0,1-.23-.2.44.44,0,0,1,0-.1,3.49,3.49,0,0,0,.23-.8A.2.2,0,0,1,23,58.26Zm1.53.76a.09.09,0,0,1,0,0,.22.22,0,0,1-.23.21.2.2,0,0,1-.21-.16,4.38,4.38,0,0,0-.16-.67.19.19,0,0,1,.2-.25.2.2,0,0,1,.2.14A4,4,0,0,1,24.51,59Zm1.8-2.67c.45,0,.62.19.62.57a13.1,13.1,0,0,1-.19,2.34c-.09.48-.33.65-.73.65a1.55,1.55,0,0,1-.37,0,.27.27,0,0,1-.24-.27.27.27,0,0,1,.27-.28h.06l.25,0c.13,0,.19,0,.22-.22A12.34,12.34,0,0,0,26.37,57c0-.12,0-.15-.18-.15h-1c-.08.14-.16.28-.25.42a.29.29,0,0,1-.25.15.27.27,0,0,1-.27-.26.27.27,0,0,1,.06-.16,4.5,4.5,0,0,0,.61-1.41.25.25,0,0,1,.26-.2.28.28,0,0,1,.29.25s0,0,0,.07a5,5,0,0,1-.22.65Zm-.43,1.7a.28.28,0,0,1-.23.44.27.27,0,0,1-.23-.14,3.43,3.43,0,0,0-.34-.48.27.27,0,0,1-.06-.16.26.26,0,0,1,.27-.24.27.27,0,0,1,.21.09A2.93,2.93,0,0,1,25.88,58.05Z"/><path class="cls-4" d="M30.77,58.86c.14.15.21.2.31.2s.13,0,.2,0a.23.23,0,0,1,.23.25.25.25,0,0,1-.18.26,1.15,1.15,0,0,1-.26,0,.84.84,0,0,1-.66-.34l-.11-.11a1.51,1.51,0,0,1-1.17.5,1.08,1.08,0,0,1-1.19-1.09c0-.51.22-.81.84-1.11l0,0a1.09,1.09,0,0,1-.31-.75.87.87,0,0,1,.92-.87.85.85,0,0,1,.93.85,1,1,0,0,1-.73,1l.73.8a2,2,0,0,0,.2-.72.22.22,0,0,1,.23-.2c.17,0,.28.09.28.23v.07a2.29,2.29,0,0,1-.37,1Zm-1.7-1.12c-.46.21-.59.4-.59.76a.62.62,0,0,0,.69.65,1,1,0,0,0,.81-.39Zm.2-.51c.39-.16.5-.33.5-.63a.38.38,0,0,0-.41-.41.41.41,0,0,0-.43.44.69.69,0,0,0,.23.48Z"/><path class="cls-4" d="M32.51,57.62l0,.09a.31.31,0,0,1-.25.15.26.26,0,0,1-.26-.25.37.37,0,0,1,.05-.16,6.13,6.13,0,0,0,.7-1.88.24.24,0,0,1,.26-.19.26.26,0,0,1,.29.25.13.13,0,0,1,0,.06,7.09,7.09,0,0,1-.4,1.26.21.21,0,0,1,.2.2v2.69c0,.13-.13.2-.26.2s-.27-.07-.27-.2Zm1.61.57c-.41,0-.59-.16-.59-.5v-.83c0-.35.18-.51.59-.51h.53v-.29h-1c-.13,0-.19-.12-.19-.24s.06-.23.19-.23h2.88a.21.21,0,0,1,.2.23.22.22,0,0,1-.2.24h-1.3v.29h.59c.41,0,.59.16.59.51v.83c0,.34-.18.5-.59.5h-.65a2.25,2.25,0,0,1-.25.77,4.18,4.18,0,0,0,1.52.42.27.27,0,0,1,.28.27.26.26,0,0,1-.27.27h0a4.45,4.45,0,0,1-1.81-.54,2.35,2.35,0,0,1-1,.57l-.09,0a.25.25,0,0,1-.25-.25.27.27,0,0,1,.19-.25,1.88,1.88,0,0,0,.72-.37,3.5,3.5,0,0,1-.39-.38.27.27,0,0,1-.06-.16.27.27,0,0,1,.26-.25.25.25,0,0,1,.2.1,1.92,1.92,0,0,0,.29.28,2.09,2.09,0,0,0,.16-.5Zm.53-1.12v-.28h-.46c-.11,0-.15,0-.15.11v.17Zm0,.69v-.3H34v.19c0,.1.06.11.15.11Zm.53-.3c0,.1,0,.2,0,.3h.54c.1,0,.14,0,.14-.11v-.19Zm0-.39h.67V56.9c0-.09,0-.11-.14-.11h-.53Z"/><path class="cls-4" d="M38.14,58.14a4.11,4.11,0,0,1-.53.9.31.31,0,0,1-.23.13.23.23,0,0,1-.24-.23.27.27,0,0,1,.06-.16A5.81,5.81,0,0,0,38,57.21H37.4a.24.24,0,0,1,0-.48h.72v-.47a5.24,5.24,0,0,1-.53.08h0a.23.23,0,0,1-.23-.25.23.23,0,0,1,.2-.24,5.84,5.84,0,0,0,1.4-.33.23.23,0,0,1,.11,0,.26.26,0,0,1,.25.27.23.23,0,0,1-.16.22,3.51,3.51,0,0,1-.49.15v.59h.57c.14,0,.2.12.2.24s-.06.24-.2.24h-.57v.37a3.22,3.22,0,0,1,.66.48.28.28,0,0,1,.09.19.25.25,0,0,1-.23.25.28.28,0,0,1-.19-.09,2.36,2.36,0,0,0-.33-.29V59.8c0,.14-.13.21-.26.21s-.27-.07-.27-.21v-.53ZM39.81,56a.25.25,0,0,1,.27-.23.25.25,0,0,1,.28.23v2.61a.25.25,0,0,1-.28.23.25.25,0,0,1-.27-.23Zm1.61,3.3c0,.42-.17.59-.63.59a2.25,2.25,0,0,1-.38,0,.26.26,0,0,1-.22-.26.25.25,0,0,1,.25-.26h.05l.24,0c.07,0,.13,0,.13-.15v-3.5c0-.16.14-.23.28-.23s.28.07.28.23Z"/><path class="cls-4" d="M43.44,55.64a.28.28,0,0,1,.28-.22.25.25,0,0,1,.26.25v.06c0,.19-.09.39-.14.59l.44-.07h0a.26.26,0,0,1,.26.27.24.24,0,0,1-.22.25c-.22.05-.47.09-.71.12a9.09,9.09,0,0,1-.77,1.69.33.33,0,0,1-.28.18.27.27,0,0,1-.28-.26.31.31,0,0,1,.05-.18A7.19,7.19,0,0,0,43.06,57l-.52,0a.25.25,0,0,1-.26-.27.24.24,0,0,1,.24-.26l.73-.05A7.67,7.67,0,0,0,43.44,55.64Zm.9,4.19c-.6,0-1-.26-1-.72s.35-.73,1-.73h.25a3,3,0,0,1,0-.53,3.48,3.48,0,0,1,0-.49.25.25,0,0,1,.26-.2.25.25,0,0,1,.28.24v0a2.85,2.85,0,0,0,0,.41,4.48,4.48,0,0,0,.07.65,3.46,3.46,0,0,1,.94.43.28.28,0,0,1,.14.24.28.28,0,0,1-.27.27.32.32,0,0,1-.17-.06,3,3,0,0,0-.57-.32C45.23,59.63,44.82,59.83,44.34,59.83ZM44.7,59a.53.53,0,0,0,0-.13l-.31,0c-.36,0-.46.11-.46.25s.1.23.42.23S44.7,59.24,44.7,59Zm1.54-2.34a.32.32,0,0,1,.16.26.27.27,0,0,1-.26.27.28.28,0,0,1-.15,0,4.72,4.72,0,0,0-.72-.35.24.24,0,0,1-.18-.22.29.29,0,0,1,.29-.28l.09,0A2.92,2.92,0,0,1,46.24,56.68Z"/><path class="cls-4" d="M50.43,55.92c.44,0,.65.19.65.46a.72.72,0,0,1-.13.38,3.8,3.8,0,0,1-.79.87.33.33,0,0,1-.21.08.27.27,0,0,1-.27-.28.33.33,0,0,1,.14-.25,2.48,2.48,0,0,0,.52-.56.12.12,0,0,0,0-.09s0-.06-.12-.06l-2.84,0a.26.26,0,0,1-.27-.27.26.26,0,0,1,.27-.28Zm-1.66,1.17a.26.26,0,0,1,.29-.25.27.27,0,0,1,.29.25v.24A2.61,2.61,0,0,1,48,59.7a.38.38,0,0,1-.19.06.28.28,0,0,1-.29-.28.32.32,0,0,1,.18-.27,2,2,0,0,0,1-1.88Z"/><path class="cls-4" d="M54.42,56.29c.41,0,.62.16.62.46A.93.93,0,0,1,55,57a4.91,4.91,0,0,1-2.29,2.83.3.3,0,0,1-.17,0,.29.29,0,0,1-.28-.29.32.32,0,0,1,.17-.27,4.25,4.25,0,0,0,2-2.38.17.17,0,0,0,0-.07s0-.08-.13-.08H53.16a5.58,5.58,0,0,1-.82,1,.31.31,0,0,1-.23.09.27.27,0,0,1-.28-.26.35.35,0,0,1,.12-.24,5.29,5.29,0,0,0,1.21-1.73.31.31,0,0,1,.28-.19.28.28,0,0,1,.29.27.52.52,0,0,1,0,.11,5.08,5.08,0,0,1-.23.47Z"/><path class="cls-4" d="M59.41,56.59h.15a.43.43,0,0,1,.49.43.75.75,0,0,1-.09.33,3.34,3.34,0,0,1-.73,1,.33.33,0,0,1-.21.08.27.27,0,0,1-.28-.26.28.28,0,0,1,.12-.23,2.34,2.34,0,0,0,.53-.66s0,0,0-.06a0,0,0,0,0,0,0h0l-1.49.27v1.36c0,.29.06.37.51.37a7.59,7.59,0,0,0,1.3-.11h.06a.25.25,0,0,1,.25.27.28.28,0,0,1-.24.28,7.13,7.13,0,0,1-1.32.1c-.94,0-1.14-.24-1.14-.81V57.51l-.87.16h-.06a.26.26,0,0,1-.25-.28.25.25,0,0,1,.21-.25l1-.17V55.76a.26.26,0,0,1,.29-.25.26.26,0,0,1,.29.25v1.11Z"/><path class="cls-4" d="M63.61,56h0c.37,0,.56.17.56.43a.71.71,0,0,1,0,.27,4.67,4.67,0,0,1-.69,1.2,7.72,7.72,0,0,1,1.35,1.19.35.35,0,0,1,.09.22.31.31,0,0,1-.32.3.3.3,0,0,1-.24-.12,7.69,7.69,0,0,0-1.23-1.17,6,6,0,0,1-1.63,1.24l-.15,0A.29.29,0,0,1,61,59.3a.27.27,0,0,1,.17-.25,4.83,4.83,0,0,0,2.31-2.35.13.13,0,0,0,0-.08s0-.07-.12-.07l-1.79,0a.28.28,0,0,1,0-.55Z"/><path class="cls-4" d="M67.85,56.56l-2.12.31h0a.27.27,0,0,1-.28-.28.28.28,0,0,1,.26-.28c1-.13,2.33-.27,3.37-.37h0a.26.26,0,0,1,.27.27.27.27,0,0,1-.23.27,1.68,1.68,0,0,0-.55.2,1.56,1.56,0,0,0-.94,1.44c0,.56.38.9,1.08,1a.29.29,0,0,1,.27.3.27.27,0,0,1-.29.29,1.11,1.11,0,0,1-.23,0A1.56,1.56,0,0,1,67,58.14a2,2,0,0,1,.82-1.57Zm.73.81a.21.21,0,0,1,.21-.19.19.19,0,0,1,.14,0,2.05,2.05,0,0,1,.39.44.2.2,0,0,1,.05.14.2.2,0,0,1-.37.1,3.16,3.16,0,0,0-.37-.42A.21.21,0,0,1,68.58,57.37Zm.5-.4a.2.2,0,0,1,.21-.19.24.24,0,0,1,.15.06,2.46,2.46,0,0,1,.38.41.25.25,0,0,1,.06.16.2.2,0,0,1-.2.18.23.23,0,0,1-.18-.08,3.82,3.82,0,0,0-.37-.42A.16.16,0,0,1,69.08,57Z"/><path class="cls-4" d="M14,65.13h-.26a.19.19,0,0,1-.18-.21.36.36,0,0,1,0-.11c-.13.12-.27.24-.4.34a.27.27,0,0,1-.18.07.25.25,0,0,1-.25-.25v0h-.4v.44a3.15,3.15,0,0,1,.52.57.24.24,0,0,1,.06.15.22.22,0,0,1-.22.21.2.2,0,0,1-.18-.1L12.36,66v1.86a.23.23,0,0,1-.25.22.22.22,0,0,1-.25-.22V66.06a3.48,3.48,0,0,1-.33.7.22.22,0,0,1-.19.11.22.22,0,0,1-.22-.22.27.27,0,0,1,0-.14,5.26,5.26,0,0,0,.63-1.58h-.41c-.13,0-.19-.12-.19-.24s.06-.24.18-.24h.48v-.91c0-.13.12-.19.25-.19s.25.06.25.19v.91h.33c.13,0,.19.12.19.24v0h0a4.13,4.13,0,0,0,1.16-1.25.26.26,0,0,1,.22-.12.28.28,0,0,1,.29.25s0,0,0,.06a5.27,5.27,0,0,0,1.18,1,.28.28,0,0,1-.13.52.29.29,0,0,1-.16-.06,3.35,3.35,0,0,1-.4-.29.2.2,0,0,1,0,.11.19.19,0,0,1-.19.21h-.36v.27H15c.39,0,.54.13.54.44v.35c0,.37-.19.45-.54.45h-.37a2.31,2.31,0,0,0,1,.78.27.27,0,0,1-.08.53.48.48,0,0,1-.15,0,2.88,2.88,0,0,1-1.06-1,2.18,2.18,0,0,1-1.1,1A.27.27,0,0,1,13,68a.26.26,0,0,1-.26-.25.24.24,0,0,1,.18-.23,1.73,1.73,0,0,0,.91-.85h-.26c-.4,0-.53-.14-.53-.45v-.35c0-.31.13-.44.53-.44H14Zm0,1.11a2.56,2.56,0,0,0,0-.39v0h-.36c-.08,0-.11,0-.11.09v.27c0,.06,0,.08.11.08Zm.88-1.54h0a6.44,6.44,0,0,1-.64-.64,4.92,4.92,0,0,1-.57.64h1.17Zm-.37,1.12a3,3,0,0,1,0,.42h.45c.08,0,.11,0,.11-.08v-.27c0-.06,0-.09-.11-.09H14.5Z"/><path class="cls-4" d="M18.85,65v.26c0,.14-.13.21-.27.21s-.26-.07-.26-.21v-.52a6.19,6.19,0,0,1-1.68,1.13l-.13,0a.25.25,0,0,1-.25-.25.23.23,0,0,1,.16-.22,6,6,0,0,0,1.59-1H16.71a.23.23,0,0,1,0-.46h1.61v-.42c0-.13.13-.2.26-.2s.27.07.27.2v.42h1.68a.23.23,0,0,1,0,.46H19.14a6.13,6.13,0,0,0,1.62.93.26.26,0,0,1-.07.5l-.11,0a6.22,6.22,0,0,1-1.75-1.12ZM17.27,66c0-.36.19-.51.63-.51h1.39c.44,0,.64.15.64.51v1.42h.68a.19.19,0,0,1,.18.21.2.2,0,0,1-.18.22h-4a.2.2,0,0,1-.19-.22.19.19,0,0,1,.19-.21h.68Zm2.14,0c0-.11,0-.14-.2-.14H18c-.16,0-.2,0-.2.14v.12h1.63Zm-1.63.76h1.63v-.27H17.78Zm1.63.63V67.2H17.78v.26Z"/><path class="cls-4" d="M22.25,63.61a.27.27,0,0,1,.29.25.11.11,0,0,1,0,0A9.61,9.61,0,0,0,22.27,66a12,12,0,0,0,.11,1.49v0a.29.29,0,0,1-.57,0A9.67,9.67,0,0,1,22,63.81.26.26,0,0,1,22.25,63.61Zm2.47.92.55-.08h.06a.23.23,0,0,1,.24.24.26.26,0,0,1-.22.26l-.63.1c0,.43,0,.86.06,1.29a3.5,3.5,0,0,1,.84.46.31.31,0,0,1,.13.25.27.27,0,0,1-.26.27.31.31,0,0,1-.19-.08,4.29,4.29,0,0,0-.5-.33c-.05.42-.34.72-1,.72s-.91-.28-.91-.73.34-.73,1-.73l.33,0c0-.37,0-.73-.05-1.1l-.62,0h-.27a.25.25,0,0,1-.23-.27.24.24,0,0,1,.24-.25h.26c.2,0,.4,0,.62,0v-.74a.26.26,0,0,1,.52,0Zm-.45,2.17a1.22,1.22,0,0,0-.35-.06c-.35,0-.46.11-.46.26s.13.23.38.23A.38.38,0,0,0,24.27,66.7Z"/><path class="cls-4" d="M27.54,65.31c.41,0,.62-.21.62-.56a.52.52,0,0,0-.59-.5,1,1,0,0,0-.61.25.26.26,0,0,1-.18.08.29.29,0,0,1-.28-.28.21.21,0,0,1,.07-.18,1.61,1.61,0,0,1,1-.37c.73,0,1.18.4,1.18,1a.74.74,0,0,1-.59.79.93.93,0,0,1,.71.9,1.21,1.21,0,0,1-1.32,1.2,1.69,1.69,0,0,1-1-.32.27.27,0,0,1,.3-.45,1.19,1.19,0,0,0,.74.27.67.67,0,0,0,.72-.68c0-.38-.26-.62-.7-.62h-.31a.25.25,0,0,1,0-.5Z"/><path class="cls-4" d="M32,65.68c0,1.39-.5,1.93-1.26,1.93s-1.26-.54-1.26-1.93.5-1.93,1.26-1.93S32,64.29,32,65.68Zm-1.93,0c0,1.08.25,1.43.67,1.43s.67-.35.67-1.43-.25-1.43-.67-1.43S30.08,64.6,30.08,65.68Z"/><path class="cls-4" d="M34.14,63.46a.26.26,0,0,1,.29.24.23.23,0,0,1,0,.11,5.51,5.51,0,0,1-1.33,1.86.35.35,0,0,1-.22.09.28.28,0,0,1-.27-.27.3.3,0,0,1,.11-.23,5,5,0,0,0,1.2-1.64A.27.27,0,0,1,34.14,63.46Zm.57,2.38a2.54,2.54,0,0,1-1.53,2.1L33,68a.26.26,0,0,1-.26-.25.28.28,0,0,1,.18-.25,2,2,0,0,0,1.22-1.63h-.49a.22.22,0,0,1-.22-.23.22.22,0,0,1,.22-.24h2c.47,0,.66.16.66.53a5.29,5.29,0,0,1-.17,1.45.68.68,0,0,1-.73.58,3.14,3.14,0,0,1-.48,0,.26.26,0,0,1-.23-.26.25.25,0,0,1,.26-.27H35a1.69,1.69,0,0,0,.33,0,.21.21,0,0,0,.24-.19A5,5,0,0,0,35.73,66c0-.12,0-.16-.19-.16Zm2.37-.72a.31.31,0,0,1,.15.26.29.29,0,0,1-.48.22,5.33,5.33,0,0,1-1.47-1.82.23.23,0,0,1,0-.11.25.25,0,0,1,.26-.24.26.26,0,0,1,.25.17A4.66,4.66,0,0,0,37.08,65.12Z"/><path class="cls-4" d="M38.63,66.59a8.73,8.73,0,0,0,1-.47.25.25,0,0,1,.14,0,.24.24,0,0,1,.23.25.23.23,0,0,1-.12.21,10,10,0,0,1-2.09.86h-.08a.26.26,0,0,1-.25-.27.24.24,0,0,1,.19-.24,3.17,3.17,0,0,0,.41-.12v-3c0-.14.14-.2.27-.2s.28.06.28.2Zm3.4.78a.32.32,0,0,1,.06.17.28.28,0,0,1-.27.27.3.3,0,0,1-.23-.11,5.37,5.37,0,0,0-.74-.76,3.08,3.08,0,0,1-1.45.94l-.11,0a.26.26,0,0,1-.26-.26.27.27,0,0,1,.2-.25,2.75,2.75,0,0,0,1.31-.9A5.1,5.1,0,0,0,41,63.77a.25.25,0,0,1,.27-.23.25.25,0,0,1,.28.25,6.32,6.32,0,0,1-.43,2.73A4.79,4.79,0,0,1,42,67.37ZM40.2,64.62a.24.24,0,0,1,.08.18.29.29,0,0,1-.28.28.24.24,0,0,1-.18-.08,5.84,5.84,0,0,0-.5-.44.28.28,0,0,1-.13-.22.27.27,0,0,1,.28-.24.28.28,0,0,1,.15,0A3.14,3.14,0,0,1,40.2,64.62Z"/><path class="cls-4" d="M45,64.66a4.05,4.05,0,0,1-.12.5,5.1,5.1,0,0,1,1.16.87.33.33,0,0,1,.11.23.3.3,0,0,1-.28.29.24.24,0,0,1-.18-.09,5.27,5.27,0,0,0-1-.82,2.84,2.84,0,0,1-.78,1,.33.33,0,0,1-.21.08.25.25,0,0,1-.26-.25.31.31,0,0,1,.12-.22,2.46,2.46,0,0,0,.88-1.61h-.89c-.19,0-.24.06-.24.2v3c0,.14-.14.21-.28.21s-.28-.07-.28-.21v-3c0-.39.21-.63.7-.63h1.05a5.79,5.79,0,0,0,0-.61.25.25,0,0,1,.27-.25.25.25,0,0,1,.27.25,5.93,5.93,0,0,1,0,.61h1.09c.49,0,.7.24.7.63v2.53a.54.54,0,0,1-.61.61,1.69,1.69,0,0,1-.43,0,.27.27,0,0,1-.22-.27.26.26,0,0,1,.25-.28h.06l.27,0c.08,0,.13,0,.13-.16V64.86c0-.14-.06-.2-.25-.2Z"/><path class="cls-4" d="M48.45,63.77a.26.26,0,0,1,.29.25v.06a10.45,10.45,0,0,0-.23,2.21,9.48,9.48,0,0,0,.09,1.18v0a.27.27,0,0,1-.29.26.28.28,0,0,1-.29-.24,11.07,11.07,0,0,1-.08-1.24A11.64,11.64,0,0,1,48.17,64,.27.27,0,0,1,48.45,63.77Zm2.27,3.08a4.18,4.18,0,0,0,.76-.08h.06a.26.26,0,0,1,.26.28.25.25,0,0,1-.22.26,4.34,4.34,0,0,1-.86.09c-.93,0-1.31-.28-1.37-.89v0a.28.28,0,0,1,.29-.28.25.25,0,0,1,.26.21C49.94,66.73,50.1,66.85,50.72,66.85Zm.52-2.64a.25.25,0,0,1,.27.26.28.28,0,0,1-.25.28,12.78,12.78,0,0,1-1.41.11.27.27,0,1,1,0-.54,12.06,12.06,0,0,0,1.37-.11Z"/><path class="cls-4" d="M56.18,64c.33,0,.51.14.51.36a.54.54,0,0,1-.07.26,4,4,0,0,1-.48.7,3.79,3.79,0,0,0,.83.51.28.28,0,0,1,.18.25.26.26,0,0,1-.25.26.28.28,0,0,1-.15,0,4.23,4.23,0,0,1-1-.63,4.73,4.73,0,0,1-1,.72l-.12,0a.26.26,0,0,1-.25-.26s0-.05,0-.07a.28.28,0,0,1-.13,0,.19.19,0,0,1-.2-.14.14.14,0,0,0,0-.06l-.31,0v1.89a.23.23,0,0,1-.25.2c-.13,0-.25-.07-.25-.2V66l-.55,0a.22.22,0,0,1-.22-.24.21.21,0,0,1,.21-.23l.23,0a4.4,4.4,0,0,0,.3-.45,6.66,6.66,0,0,0-.56-.62.21.21,0,0,1-.07-.15.24.24,0,0,1,.23-.24.23.23,0,0,1,.17.07c.1-.19.19-.4.28-.61a.24.24,0,0,1,.23-.15.23.23,0,0,1,.25.21.29.29,0,0,1,0,.09,5.14,5.14,0,0,1-.41.81l.15.17c.09-.16.18-.32.25-.46a.21.21,0,0,1,.2-.13.25.25,0,0,1,.26.22.23.23,0,0,1,0,.11,11,11,0,0,1-.68,1.11l.41,0a1.09,1.09,0,0,0-.08-.15.15.15,0,0,1,0-.09A.21.21,0,0,1,54,65a.22.22,0,0,1,.19.11,3.58,3.58,0,0,1,.32.65.22.22,0,0,1,0,.08v.05a.05.05,0,0,1,0,0,4,4,0,0,0,.92-.63,2.8,2.8,0,0,1-.37-.48c-.09.11-.17.21-.26.3a.28.28,0,0,1-.2.09.23.23,0,0,1-.24-.23.32.32,0,0,1,.09-.2,4.14,4.14,0,0,0,.75-1.21.23.23,0,0,1,.22-.15.26.26,0,0,1,.28.23.29.29,0,0,1,0,.09,1.28,1.28,0,0,1-.11.24Zm-3.24,2.3a.19.19,0,0,1,.21.18v0a3.66,3.66,0,0,1-.21.93.22.22,0,0,1-.21.14.2.2,0,0,1-.22-.19.15.15,0,0,1,0-.09,3.46,3.46,0,0,0,.2-.84A.2.2,0,0,1,52.94,66.26ZM54.4,67s0,0,0,0a.21.21,0,0,1-.22.21.19.19,0,0,1-.2-.17,5.58,5.58,0,0,0-.16-.68s0,0,0-.05A.2.2,0,0,1,54,66.2a.21.21,0,0,1,.19.13A4.17,4.17,0,0,1,54.4,67Zm2,.4a.3.3,0,0,1,.16.25.27.27,0,0,1-.27.26.34.34,0,0,1-.16,0,8.43,8.43,0,0,0-1-.51.25.25,0,0,1-.17-.23.26.26,0,0,1,.26-.26l.12,0A6.66,6.66,0,0,1,56.36,67.43Zm-.13-1a.27.27,0,0,1,.12.21.26.26,0,0,1-.25.26.27.27,0,0,1-.16-.06l-.47-.31a.24.24,0,0,1-.14-.21.25.25,0,0,1,.26-.24.31.31,0,0,1,.13,0A3.68,3.68,0,0,1,56.23,66.42Zm-.86-2a3.15,3.15,0,0,0,.41.55,3.28,3.28,0,0,0,.31-.45l0,0s0,0-.1,0Z"/><path class="cls-4" d="M59.35,65.09a.25.25,0,0,1,.28-.24.32.32,0,0,1,.16,0,4.63,4.63,0,0,0,.79-.58.12.12,0,0,0,0-.08s0,0-.1,0H57.86a.23.23,0,0,1-.22-.26.22.22,0,0,1,.22-.25H60.7c.42,0,.63.21.63.46a.61.61,0,0,1-.2.42,6,6,0,0,1-1.22.87V67.2c0,.52-.25.72-.7.72a2.12,2.12,0,0,1-.42,0,.28.28,0,0,1-.23-.28.25.25,0,0,1,.25-.27h.07a1.35,1.35,0,0,0,.29,0c.13,0,.18-.05.18-.22Z"/><path class="cls-4" d="M63.32,67a.84.84,0,1,1-.83-.83A.83.83,0,0,1,63.32,67ZM62,67a.5.5,0,1,0,.5-.49A.49.49,0,0,0,62,67Z"/><path class="cls-4" d="M9.56,72.08a.21.21,0,0,1,.21.22.22.22,0,0,1-.21.23H9.25v.72h.4a.24.24,0,0,1,0,.48H9.23c0,.16,0,.33-.07.49a5.91,5.91,0,0,1,.63.6.32.32,0,0,1,.07.19.26.26,0,0,1-.25.26.29.29,0,0,1-.22-.12c-.1-.12-.23-.27-.36-.4a3.2,3.2,0,0,1-.57,1,.28.28,0,0,1-.21.1A.26.26,0,0,1,8,75.62a.31.31,0,0,1,.08-.19,2.93,2.93,0,0,0,.64-1.7H8.15a.24.24,0,0,1,0-.48h.58v-.72H8.64c-.05.12-.11.24-.16.34a.3.3,0,0,1-.25.14A.24.24,0,0,1,8,72.79a.25.25,0,0,1,0-.14,4.09,4.09,0,0,0,.39-1.07.23.23,0,0,1,.24-.19.25.25,0,0,1,.26.23.2.2,0,0,1,0,.07,3.2,3.2,0,0,1-.1.39Zm2.88,3.3a.24.24,0,0,1,0,.48H9.85a.24.24,0,0,1,0-.48h1.32a5.66,5.66,0,0,0,.36-1,.26.26,0,0,1,.51,0,.22.22,0,0,1,0,.08,5.88,5.88,0,0,1-.34.84Zm-2.39-3.21a.24.24,0,0,1,0-.48h2.31a.24.24,0,0,1,0,.48Zm.63,1.89c-.4,0-.55-.14-.55-.51v-.49c0-.37.15-.51.55-.51h1c.4,0,.54.14.54.51v.49c0,.4-.17.51-.54.51Zm-.39.42a.25.25,0,0,1,.26-.23.28.28,0,0,1,.24.15,3.88,3.88,0,0,1,.22.46A.74.74,0,0,1,11,75a.25.25,0,0,1-.26.25.23.23,0,0,1-.23-.17,5,5,0,0,0-.22-.47A.26.26,0,0,1,10.29,74.48Zm1.3-.85c.12,0,.15,0,.15-.12v-.42c0-.09,0-.11-.15-.11h-.8c-.11,0-.14,0-.14.11v.42c0,.09,0,.12.14.12Z"/><path class="cls-4" d="M13.73,75.2c-.37,0-.51-.16-.51-.51V72.2c0-.35.14-.5.51-.5h.46c.36,0,.5.15.5.5v2.49c0,.36-.14.51-.5.51Zm.46-2.88c0-.11,0-.14-.13-.14h-.21c-.1,0-.12,0-.12.14v.82h.46Zm-.13,2.4c.1,0,.13,0,.13-.15v-.95h-.46v.95c0,.09,0,.15.12.15Zm1.85-2.25h-.64a.24.24,0,0,1,0-.48h.64v-.42c0-.16.13-.23.27-.23a.23.23,0,0,1,.26.23V72h.69a.24.24,0,0,1,0,.48h-.69v.43H17.5a.22.22,0,0,1,.21.24.23.23,0,0,1-.21.25H15a.23.23,0,0,1-.21-.25A.22.22,0,0,1,15,72.9h.89ZM15.1,74.4a.24.24,0,0,1,0-.48h1.33V73.7a.24.24,0,0,1,.27-.23.24.24,0,0,1,.26.23v.22h.46a.24.24,0,0,1,0,.48H17v1c0,.43-.19.58-.58.58a2.38,2.38,0,0,1-.39,0,.26.26,0,0,1-.2-.26.25.25,0,0,1,.24-.26h.06l.21,0c.09,0,.13,0,.13-.13V74.4Zm.81.53a.3.3,0,0,1,.05.15.28.28,0,0,1-.28.26.23.23,0,0,1-.19-.1,2.51,2.51,0,0,0-.26-.31.25.25,0,0,1-.06-.16.26.26,0,0,1,.26-.24.29.29,0,0,1,.18.08A1.54,1.54,0,0,1,15.91,74.93Z"/><path class="cls-4" d="M18.91,73.28v2.51c0,.14-.14.21-.27.21s-.28-.07-.28-.21V72.08c0-.36.14-.55.66-.55h.54c.53,0,.66.17.66.53v.69a.46.46,0,0,1-.16.42.86.86,0,0,1-.5.11Zm.77-1.21c0-.09,0-.12-.16-.12h-.45c-.13,0-.16,0-.16.12v.14h.77Zm-.16.8c.13,0,.16,0,.16-.13V72.6h-.77v.27Zm.53,2.52c-.41,0-.57-.16-.57-.51v-.79c0-.35.16-.52.57-.52h.76c.42,0,.58.17.58.52v.79c0,.4-.2.51-.58.51Zm.84-1.28c0-.09,0-.11-.14-.11h-.63c-.11,0-.14,0-.14.11v.17h.91Zm-.14.86c.11,0,.14,0,.14-.11v-.18H20v.18c0,.1.05.11.14.11Zm.57-1.69c-.53,0-.66-.16-.66-.53v-.69c0-.36.13-.53.66-.53h.59c.52,0,.66.19.66.55V75.3c0,.47-.21.65-.63.65a2.22,2.22,0,0,1-.37,0,.27.27,0,0,1,0-.54h0l.21,0c.12,0,.16,0,.16-.16v-2Zm.7-1.21c0-.09,0-.12-.16-.12h-.5c-.13,0-.16,0-.16.12v.14H22Zm0,.53H21.2v.14c0,.1,0,.13.16.13H22Z"/><path class="cls-4" d="M23.34,74A2.16,2.16,0,0,1,25.66,72a1.75,1.75,0,0,1,1.93,1.77,1.87,1.87,0,0,1-1.4,1.84.23.23,0,0,1-.11,0,.28.28,0,0,1-.28-.28A.3.3,0,0,1,26,75a1.27,1.27,0,0,0,1-1.3,1.23,1.23,0,0,0-1.2-1.26,5,5,0,0,1-.57,2.13,1,1,0,0,1-.95.63C23.77,75.23,23.34,74.82,23.34,74Zm.58,0c0,.46.18.63.36.63s.29-.08.43-.33a4.52,4.52,0,0,0,.5-1.83A1.58,1.58,0,0,0,23.92,74Z"/><path class="cls-4" d="M31,73.13h-.26a.19.19,0,0,1-.18-.21.36.36,0,0,1,0-.11,4.35,4.35,0,0,1-.41.34.25.25,0,0,1-.17.07.25.25,0,0,1-.25-.25v0h-.41v.44a3.61,3.61,0,0,1,.53.57.23.23,0,0,1,.05.15.22.22,0,0,1-.21.21.23.23,0,0,1-.19-.1,1.44,1.44,0,0,0-.18-.25v1.86a.22.22,0,0,1-.25.22.23.23,0,0,1-.25-.22v-.72l0-1a4.12,4.12,0,0,1-.33.7.22.22,0,0,1-.19.11.22.22,0,0,1-.23-.22.3.3,0,0,1,.05-.14,5.53,5.53,0,0,0,.63-1.58h-.42a.25.25,0,0,1,0-.48h.47v-.91c0-.13.13-.19.25-.19s.25.06.25.19v.91h.34a.22.22,0,0,1,.19.24v0h0a4.13,4.13,0,0,0,1.16-1.25.26.26,0,0,1,.22-.12.28.28,0,0,1,.29.25s0,0,0,.06a5.21,5.21,0,0,0,1.17,1,.29.29,0,0,1,.16.25.28.28,0,0,1-.28.27.32.32,0,0,1-.17-.06,3.27,3.27,0,0,1-.39-.29.36.36,0,0,1,0,.11.19.19,0,0,1-.19.21h-.36v.27H32c.39,0,.54.13.54.44v.35c0,.37-.2.45-.54.45H31.6a2.31,2.31,0,0,0,1,.78.28.28,0,0,1,.18.25.28.28,0,0,1-.27.28.43.43,0,0,1-.14,0,2.88,2.88,0,0,1-1.06-1,2.18,2.18,0,0,1-1.1,1,.27.27,0,0,1-.12,0,.26.26,0,0,1-.26-.25.24.24,0,0,1,.18-.23,1.73,1.73,0,0,0,.91-.85h-.26c-.4,0-.53-.14-.53-.45v-.35c0-.31.13-.44.53-.44H31Zm0,1.11a2.56,2.56,0,0,0,0-.39v0h-.36c-.08,0-.11,0-.11.09v.27c0,.06.05.08.11.08Zm.88-1.54h0a6.44,6.44,0,0,1-.64-.64,4.92,4.92,0,0,1-.57.64h1.17Zm-.37,1.12a3,3,0,0,1,0,.42h.45c.08,0,.11,0,.11-.08v-.27c0-.06,0-.09-.11-.09h-.42Z"/><path class="cls-4" d="M35.86,73v.26c0,.14-.13.21-.27.21s-.26-.07-.26-.21v-.52a6.1,6.1,0,0,1-1.69,1.13.31.31,0,0,1-.13,0,.24.24,0,0,1-.08-.47,6,6,0,0,0,1.59-1H33.71a.23.23,0,0,1,0-.46h1.62v-.42c0-.13.13-.2.26-.2s.27.07.27.2v.42h1.68a.23.23,0,0,1,0,.46H36.15a6.13,6.13,0,0,0,1.62.93.26.26,0,0,1,.17.24.26.26,0,0,1-.25.26l-.11,0a6.17,6.17,0,0,1-1.74-1.12ZM34.27,74c0-.36.2-.51.64-.51H36.3c.44,0,.63.15.63.51v1.42h.68a.19.19,0,0,1,.19.21.2.2,0,0,1-.19.22h-4a.2.2,0,0,1-.18-.22.19.19,0,0,1,.18-.21h.68Zm2.15,0c0-.11,0-.14-.2-.14H35c-.16,0-.2,0-.2.14v.12h1.63Zm-1.63.76h1.63v-.27H34.79Zm1.63.63V75.2H34.79v.26Z"/><path class="cls-4" d="M40.74,72.56l-2.12.31h0a.27.27,0,0,1-.28-.28.28.28,0,0,1,.26-.28c1.05-.13,2.34-.27,3.38-.37h0a.26.26,0,0,1,.27.27.27.27,0,0,1-.23.27,1.53,1.53,0,0,0-.55.2,1.57,1.57,0,0,0-1,1.44c0,.56.39.9,1.09,1a.3.3,0,0,1,.27.3.28.28,0,0,1-.3.29,1,1,0,0,1-.22,0,1.57,1.57,0,0,1-1.42-1.53,2,2,0,0,1,.82-1.57Zm.74.81a.21.21,0,0,1,.21-.19.22.22,0,0,1,.14,0,2.78,2.78,0,0,1,.39.44.25.25,0,0,1,0,.14.2.2,0,0,1-.2.2.18.18,0,0,1-.16-.1,4.08,4.08,0,0,0-.37-.42A.16.16,0,0,1,41.48,73.37ZM42,73a.21.21,0,0,1,.21-.19.24.24,0,0,1,.15.06,3,3,0,0,1,.39.41.24.24,0,0,1,.05.16.19.19,0,0,1-.2.18.21.21,0,0,1-.17-.08c-.12-.15-.26-.3-.37-.42A.17.17,0,0,1,42,73Z"/><path class="cls-4" d="M44,74a.3.3,0,0,1-.6,0V72a.3.3,0,0,1,.6,0Zm1.32-2.06c0-.17.15-.25.31-.25a.26.26,0,0,1,.29.25v1.49a2.5,2.5,0,0,1-1.5,2.49.34.34,0,0,1-.15,0,.3.3,0,0,1-.3-.29.29.29,0,0,1,.19-.26,2,2,0,0,0,1.16-2Z"/><path class="cls-4" d="M49.4,72h0c.37,0,.56.17.56.43a1,1,0,0,1-.05.27,4.67,4.67,0,0,1-.69,1.2,7.31,7.31,0,0,1,1.34,1.19.32.32,0,0,1,.1.22.32.32,0,0,1-.32.3.3.3,0,0,1-.24-.12,7.69,7.69,0,0,0-1.23-1.17,6,6,0,0,1-1.63,1.24l-.15,0a.29.29,0,0,1-.29-.29.27.27,0,0,1,.17-.25,4.83,4.83,0,0,0,2.31-2.35.13.13,0,0,0,0-.08c0-.05,0-.07-.12-.07l-1.79,0a.28.28,0,0,1,0-.55Z"/><path class="cls-4" d="M54,72.29c.41,0,.62.16.62.46a.93.93,0,0,1,0,.27,4.88,4.88,0,0,1-2.3,2.83.25.25,0,0,1-.16.05.29.29,0,0,1-.29-.29.33.33,0,0,1,.18-.27,4.25,4.25,0,0,0,2-2.38.17.17,0,0,0,0-.07s0-.08-.13-.08H52.69a6.06,6.06,0,0,1-.82,1,.34.34,0,0,1-.23.09.27.27,0,0,1-.28-.26.35.35,0,0,1,.12-.24,5.29,5.29,0,0,0,1.21-1.73.31.31,0,0,1,.28-.19.28.28,0,0,1,.29.27.52.52,0,0,1,0,.11,5.08,5.08,0,0,1-.23.47Z"/><path class="cls-4" d="M57.32,71.83a.19.19,0,0,1,.19.2.2.2,0,0,1-.19.21h-.4l.1.17a.29.29,0,0,1,0,.09.23.23,0,0,1-.25.21.23.23,0,0,1-.22-.14,1.73,1.73,0,0,0-.17-.33h-.23a4.86,4.86,0,0,1-.31.41.32.32,0,0,1-.22.1.24.24,0,0,1-.25-.23.24.24,0,0,1,.08-.17,3.44,3.44,0,0,0,.56-.86.25.25,0,0,1,.24-.15.23.23,0,0,1,.25.21.18.18,0,0,1,0,.1,1.51,1.51,0,0,1-.09.18Zm2.39,0a.18.18,0,0,1,.18.2.19.19,0,0,1-.18.21H59a1.09,1.09,0,0,1,.08.15.19.19,0,0,1,0,.1.24.24,0,0,1-.46.07,3.58,3.58,0,0,0-.18-.32h-.32L58,72.4a.29.29,0,0,1-.21.1h0a.18.18,0,0,1,.12.17v.18h1.28c.46,0,.62.14.62.47v.3c0,.14-.13.21-.27.21s-.27-.07-.27-.21v-.23c0-.1,0-.13-.17-.13H56.2c-.13,0-.17,0-.17.13v.28c0,.14-.13.21-.27.21s-.27-.07-.27-.21v-.35c0-.33.16-.47.62-.47h1.27v-.18c0-.14.13-.2.26-.2h0a.24.24,0,0,1-.13-.2.3.3,0,0,1,0-.14,3.08,3.08,0,0,0,.41-.66.22.22,0,0,1,.22-.14.25.25,0,0,1,.26.22.29.29,0,0,1,0,.09l-.09.19Zm-2.86,2.73v.27h1.77c.41,0,.56.13.56.42v.27c0,.29-.15.42-.56.42h-1.7c-.43,0-.59-.17-.59-.5V74c0-.31.15-.46.58-.46h1.31c.41,0,.57.11.57.41v.26a.33.33,0,0,1-.18.34.82.82,0,0,1-.38.06Zm1.3-.38c.12,0,.14,0,.14-.1V74c0-.08,0-.1-.14-.1H57c-.12,0-.16,0-.16.14v.16Zm-1.3,1v.2c0,.09,0,.13.16.13h1.52c.12,0,.14,0,.14-.1v-.13c0-.1-.06-.1-.14-.1Z"/><path class="cls-4" d="M61.06,73.51h-.31a.24.24,0,0,1,0-.48h.31V72.2h-.38a.22.22,0,0,1-.2-.24.21.21,0,0,1,.2-.23H62a.21.21,0,0,1,.19.23c0,.12-.06.24-.19.24h-.36V73h.28c.13,0,.19.12.19.24s-.06.24-.19.24h-.28v.95l.26-.1.11,0a.23.23,0,0,1,.22.24.23.23,0,0,1-.14.22,7.88,7.88,0,0,1-1.29.44h-.07a.25.25,0,0,1-.24-.26.25.25,0,0,1,.19-.25l.43-.11Zm1.88.4c-.43,0-.61-.17-.61-.54V72.14c0-.36.18-.54.61-.54h1.29c.44,0,.62.18.62.54v1.23c0,.37-.18.54-.62.54h-.38v.47h.77a.21.21,0,0,1,.19.23.22.22,0,0,1-.19.24h-.77v.54h1.08c.13,0,.19.11.19.23s-.06.24-.19.24H62a.22.22,0,0,1-.19-.24.21.21,0,0,1,.19-.23h1.33v-.54h-.78a.22.22,0,0,1-.19-.24.21.21,0,0,1,.19-.23h.78v-.47Zm.38-1.37v-.48H63c-.13,0-.16,0-.16.13v.35Zm0,.92V73h-.48v.35c0,.12,0,.13.16.13Zm.51-.92h.51v-.35c0-.11,0-.13-.16-.13h-.35Zm0,.44v.48h.35c.13,0,.16,0,.16-.13V73Z"/><path class="cls-4" d="M67.46,75.26a.39.39,0,1,1-.39-.37A.37.37,0,0,1,67.46,75.26ZM66.72,72a.36.36,0,0,1,.71,0c0,.13,0,.43,0,.58,0,.48-.07,1.23-.08,1.78a.22.22,0,0,1-.24.21.22.22,0,0,1-.23-.21c0-.55,0-1.29-.08-1.78C66.75,72.48,66.72,72.12,66.72,72Z"/><path class="cls-4" d="M25.16,81.84a.33.33,0,0,1,.31.36.34.34,0,0,1-.31.37h-2V84.8h2.5a.32.32,0,0,1,.3.36c0,.19-.1.37-.3.37H19.89c-.2,0-.3-.18-.3-.37a.32.32,0,0,1,.3-.36h2.46V82.57H20.42a.33.33,0,0,1-.3-.37.32.32,0,0,1,.3-.36h1.93v-2c0-.21.2-.32.4-.32s.4.11.4.32v2Z"/><path class="cls-4" d="M28.24,85.55a.82.82,0,0,1-.94-.9V80.9c0-.56.29-.89.94-.89h2.38a.81.81,0,0,1,.93.89v3.75c0,.62-.32.9-.93.9Zm2.54-4.48c0-.27-.1-.35-.4-.35H28.47c-.3,0-.4.08-.4.35v1.26h2.71Zm-.4,3.76c.3,0,.4-.07.4-.34V83.05H28.07v1.44c0,.29.14.34.4.34Z"/><path class="cls-4" d="M35,80.85h0a5.29,5.29,0,0,0,.72,0h0a.35.35,0,0,1,.34.38.33.33,0,0,1-.3.35,7.52,7.52,0,0,1-.78,0h-.2c0,.33-.09.65-.14,1h.11a7.53,7.53,0,0,0,1.1-.09H36a.37.37,0,0,1,0,.74,6.59,6.59,0,0,1-1.22.11h-.2c0,.25,0,.45,0,.61,0,.76.31,1,.93,1s1.18-.27,1.18-1a1.93,1.93,0,0,0-.08-.52.36.36,0,0,1,0-.1A.37.37,0,0,1,37,83a.42.42,0,0,1,.42.3,2.14,2.14,0,0,1,.1.65c0,1.2-.81,1.78-2,1.78A1.56,1.56,0,0,1,33.83,84c0-.21,0-.43,0-.71a4.44,4.44,0,0,1-.84-.14.37.37,0,0,1-.29-.38.36.36,0,0,1,.36-.38h.12a6.12,6.12,0,0,0,.74.14l.15-1a6.18,6.18,0,0,1-.73-.12.36.36,0,0,1,.05-.72h.09a4.75,4.75,0,0,0,.72.11l.17-1a.38.38,0,0,1,.4-.3.35.35,0,0,1,.39.33v.07Z"/><path class="cls-4" d="M42.82,82.68c.43,0,.68.21.68.49a.8.8,0,0,1-.21.49,4.66,4.66,0,0,1-.86.78,7.82,7.82,0,0,0,2,.6.37.37,0,0,1,.35.37.36.36,0,0,1-.38.36H44.3a7.41,7.41,0,0,1-2.53-.9,8.75,8.75,0,0,1-2.85,1h-.08a.34.34,0,0,1-.36-.35.35.35,0,0,1,.31-.34,8.58,8.58,0,0,0,2.37-.71,5.26,5.26,0,0,1-1.11-1.15h-.24a.28.28,0,0,1-.28-.31.29.29,0,0,1,.28-.31ZM40,81.41l0-.06c0-.09-.12-.21-.2-.33a.38.38,0,0,1-.06-.18.25.25,0,0,1,.1-.21h-.33a.34.34,0,0,1-.38-.34.33.33,0,0,1,.33-.33,21.75,21.75,0,0,0,3.88-.42h.09a.33.33,0,0,1,.35.34.3.3,0,0,1-.26.31,19.2,19.2,0,0,1-1.94.3.34.34,0,0,1,.2.17c.06.12.14.27.19.38a.35.35,0,0,1,0,.14.29.29,0,0,1-.13.22h.56a5.78,5.78,0,0,0,.42-.82.38.38,0,0,1,.35-.25.35.35,0,0,1,.37.33.28.28,0,0,1,0,.15c-.08.18-.2.4-.31.59h.48c.75,0,1,.2,1,.74v.58c0,.2-.19.3-.38.3s-.39-.1-.39-.3v-.45c0-.18-.06-.25-.3-.25h-4c-.24,0-.3.07-.3.25v.47c0,.21-.19.31-.39.31s-.38-.1-.38-.31v-.6c0-.54.23-.74,1-.74Zm1.41,0a.49.49,0,0,1-.12-.13c0-.1-.1-.23-.17-.37a.24.24,0,0,1,0-.13.29.29,0,0,1,.16-.25c-.33,0-.68.07-1,.08a.4.4,0,0,1,.12.11c.07.1.18.26.23.35a.37.37,0,0,1,0,.16.35.35,0,0,1-.06.18Zm-.57,1.89a4,4,0,0,0,.91.79,3.66,3.66,0,0,0,.75-.65.16.16,0,0,0,.05-.09s0,0-.13,0Z"/><path class="cls-4" d="M46.51,82.44l-.32.45a.42.42,0,0,1-.33.17.38.38,0,0,1-.38-.36.41.41,0,0,1,.1-.26,8.43,8.43,0,0,0,1.28-2.68.42.42,0,0,1,.8.09.6.6,0,0,1,0,.12A11.48,11.48,0,0,1,47,81.66a.3.3,0,0,1,.31.29v3.7c0,.19-.19.29-.38.29s-.38-.1-.38-.29Zm3.68-2.58a.35.35,0,0,1,.39-.33.34.34,0,0,1,.38.33v1.42h.83a.35.35,0,0,1,0,.69H51v3c0,.59-.22.89-.92.89a3.07,3.07,0,0,1-.59,0,.34.34,0,0,1-.27-.36.37.37,0,0,1,.37-.39h.09l.32,0c.18,0,.23-.06.23-.27V82H47.94a.31.31,0,0,1-.28-.34c0-.18.1-.35.28-.35h2.25Zm-.75,3.47a.43.43,0,0,1,.09.26.43.43,0,0,1-.42.4.38.38,0,0,1-.33-.19,7.89,7.89,0,0,0-.56-.66.39.39,0,0,1-.12-.25.4.4,0,0,1,.4-.37.47.47,0,0,1,.32.13A5.06,5.06,0,0,1,49.44,83.33Z"/><path class="cls-4" d="M55.13,84.9a.54.54,0,1,1-.54-.53A.52.52,0,0,1,55.13,84.9Zm-1-4.58a.5.5,0,0,1,1,0c0,.19,0,.61-.06.81,0,.68-.09,1.72-.11,2.49a.31.31,0,0,1-.33.3.3.3,0,0,1-.32-.3c0-.77-.07-1.8-.12-2.49C54.15,81,54.1,80.51,54.1,80.32Z"/><path class="cls-4" d="M19.27,86.21v-.35H58.09v.35Z"/><path class="cls-4" d="M40.55,40.66A.77.77,0,0,0,41,39.37a1.38,1.38,0,0,0-1-.32,1.35,1.35,0,0,0-1,.38,1,1,0,0,0-.25.48l.81.12a.41.41,0,0,1,.46-.35c.25,0,.4.11.4.32s-.18.36-.54.36l-.4,0V41a3.62,3.62,0,0,1,.46,0,1.15,1.15,0,0,1,.36.05.34.34,0,0,1,.2.32c0,.23-.18.38-.48.38a.6.6,0,0,1-.43-.16.37.37,0,0,1-.11-.25l-.8.14a1.42,1.42,0,0,0,.06.21,1.09,1.09,0,0,0,.39.48,1.73,1.73,0,0,0,.88.21,2.07,2.07,0,0,0,.79-.14.91.91,0,0,0,.35-.29.83.83,0,0,0,.16-.5.77.77,0,0,0-.25-.56A.88.88,0,0,0,40.55,40.66Zm-10.63.23a8.36,8.36,0,0,0,8.31,8.4V32.49A8.37,8.37,0,0,0,29.92,40.89ZM41.53,47l.77,1.32.5-.28L42,46.68Zm1.4-13.21-.5-.29L41.56,35l.49.31ZM45.74,37l-.29-.5L44,37.37a4.91,4.91,0,0,1,.28.5ZM45,40.44a4.87,4.87,0,0,1,0,1.08h1.56V40.44ZM38.25,30.13A10.77,10.77,0,1,0,49,40.89,10.73,10.73,0,0,0,38.25,30.13Zm6.57,17.38a9.4,9.4,0,1,1,2.72-6.62A9.31,9.31,0,0,1,44.82,47.51Zm-.7-3.1,1.46.84.29-.5-1.48-.86C44.3,44.07,44.22,44.24,44.12,44.41Zm0-4.58a1.2,1.2,0,0,0-.27-.42,1.31,1.31,0,0,0-.92-.35,1.22,1.22,0,0,0-1.1.6,2.26,2.26,0,0,0-.24,1.05,2.47,2.47,0,0,0,.15.86A1.12,1.12,0,0,0,42,42a1.27,1.27,0,0,0,.92.35,1.22,1.22,0,0,0,1.1-.59,2.15,2.15,0,0,0,.24-1A2.49,2.49,0,0,0,44.1,39.83ZM42.91,41.7c-.37,0-.56-.35-.56-1s.2-1,.56-1,.56.34.56,1S43.28,41.7,42.91,41.7Z"/></g></g></g></svg>