<svg xmlns="http://www.w3.org/2000/svg" viewBox="0 0 76.54 96.38"><defs><style>.cls-1{isolation:isolate;}.cls-2{mix-blend-mode:multiply;}.cls-3{fill:#005ca7;}.cls-4{fill:#fff;}</style></defs><g class="cls-1"><g id="レイヤー_2" data-name="レイヤー 2"><g id="レイヤー_1-2" data-name="レイヤー 1"><g class="cls-2"><rect class="cls-3" width="76.54" height="96.38" rx="4.9"/></g><path class="cls-4" d="M20.63,9.23c.78,0,1.21.32,1.21.82a1.55,1.55,0,0,1-.33.86,10.81,10.81,0,0,1-2.43,2.44c.29.29.56.58.79.84a.69.69,0,0,1,.18.43.57.57,0,0,1-.58.56.62.62,0,0,1-.48-.25,16,16,0,0,0-2.35-2.26.52.52,0,0,1-.22-.4.55.55,0,0,1,.56-.52.6.6,0,0,1,.36.12,9.23,9.23,0,0,1,1,.78,8.76,8.76,0,0,0,2.15-2.09.4.4,0,0,0,.09-.21c0-.09-.08-.12-.27-.12l-5.21.06a.45.45,0,0,1-.45-.5.47.47,0,0,1,.45-.51Z"/><path class="cls-4" d="M26,11.37a15.75,15.75,0,0,1-2.28,1.51.52.52,0,0,1-.31.08.5.5,0,0,1-.5-.5.56.56,0,0,1,.35-.5,14,14,0,0,0,4.37-3.7A.57.57,0,0,1,28.05,8a.54.54,0,0,1,.55.5.58.58,0,0,1-.13.34,14.25,14.25,0,0,1-1.9,2,.46.46,0,0,1,.46.46v4a.48.48,0,0,1-.53.46A.48.48,0,0,1,26,15.3Z"/><path class="cls-4" d="M31.12,10.25a1.12,1.12,0,0,1,.78-.36,1.16,1.16,0,0,1,.73.28l4,3.09a.64.64,0,0,1,.27.5.56.56,0,0,1-.56.55.68.68,0,0,1-.44-.18l-3.66-3a.52.52,0,0,0-.31-.15.45.45,0,0,0-.3.17L30,12.81a.58.58,0,0,1-.43.2.5.5,0,0,1-.51-.49.6.6,0,0,1,.18-.41Zm5.11-.62a1,1,0,1,1-1-1A1,1,0,0,1,36.23,9.63Zm-.45,0a.5.5,0,0,0-.51-.51.51.51,0,0,0-.52.51.52.52,0,0,0,.52.53A.52.52,0,0,0,35.78,9.63Z"/><path class="cls-4" d="M44,11.33a.52.52,0,0,1,0,1H38.07a.52.52,0,0,1,0-1Z"/><path class="cls-4" d="M47.62,11.31a.52.52,0,0,1,.19.39.57.57,0,0,1-.53.55.52.52,0,0,1-.34-.12,9.18,9.18,0,0,0-1.1-.77.45.45,0,0,1-.26-.39.55.55,0,0,1,.55-.53.54.54,0,0,1,.27.07A5,5,0,0,1,47.62,11.31Zm4.3-.94a.52.52,0,0,1,.54.49.55.55,0,0,1-.08.29,9.44,9.44,0,0,1-5.76,4.4.65.65,0,0,1-.19,0,.5.5,0,0,1-.5-.51.53.53,0,0,1,.41-.51,8.34,8.34,0,0,0,5.11-3.9A.52.52,0,0,1,51.92,10.37Zm-3.23-1.1a.51.51,0,0,1,.19.4.55.55,0,0,1-.53.54.5.5,0,0,1-.33-.13,11.42,11.42,0,0,0-1.11-.75.45.45,0,0,1-.25-.4.56.56,0,0,1,.55-.53.68.68,0,0,1,.27.07A6,6,0,0,1,48.69,9.27Zm1.86-.54a.37.37,0,0,1,.38-.34.38.38,0,0,1,.25.1,4.39,4.39,0,0,1,.71.78.41.41,0,0,1,.08.25.37.37,0,0,1-.36.36.38.38,0,0,1-.3-.17,6.73,6.73,0,0,0-.67-.77A.32.32,0,0,1,50.55,8.73Zm.9-.72a.36.36,0,0,1,.37-.33.45.45,0,0,1,.27.11,4.11,4.11,0,0,1,.7.74.43.43,0,0,1,.1.27.36.36,0,0,1-.36.34A.42.42,0,0,1,52.21,9a8.43,8.43,0,0,0-.67-.75A.3.3,0,0,1,51.45,8Z"/><path class="cls-4" d="M58.14,9.81l-3.81.55h-.09a.5.5,0,0,1-.5-.51.49.49,0,0,1,.46-.5c1.88-.23,4.2-.49,6.07-.66h.06a.46.46,0,0,1,.48.47.48.48,0,0,1-.41.49,2.91,2.91,0,0,0-1,.36,2.81,2.81,0,0,0-1.7,2.59c0,1,.69,1.61,1.95,1.77a.53.53,0,0,1,.49.53.5.5,0,0,1-.53.53,2.51,2.51,0,0,1-.41,0,2.81,2.81,0,0,1-2.55-2.76,3.62,3.62,0,0,1,1.48-2.81Zm1.32,1.45a.37.37,0,0,1,.38-.34.38.38,0,0,1,.25.1,4.39,4.39,0,0,1,.71.78.39.39,0,0,1,.08.25.38.38,0,0,1-.36.36.37.37,0,0,1-.3-.18,7.53,7.53,0,0,0-.67-.76A.32.32,0,0,1,59.46,11.26Zm.89-.72a.36.36,0,0,1,.38-.33.45.45,0,0,1,.27.11,3.74,3.74,0,0,1,.69.74.38.38,0,0,1,.1.27.35.35,0,0,1-.36.34.41.41,0,0,1-.31-.16,8.43,8.43,0,0,0-.67-.75A.32.32,0,0,1,60.35,10.54Z"/><path class="cls-4" d="M17.5,22.37c-.36,0-.7.05-1,.06a.38.38,0,0,1-.39-.42.37.37,0,0,1,.37-.42l.44,0c.19-.26.38-.53.56-.81-.34-.4-.71-.78-1-1.11a.37.37,0,0,1-.13-.29A.43.43,0,0,1,16.7,19a.41.41,0,0,1,.29.12h0A10.76,10.76,0,0,0,17.55,18a.46.46,0,0,1,.88.13.41.41,0,0,1,0,.16,11.27,11.27,0,0,1-.76,1.46,3,3,0,0,1,.28.32c.18-.31.35-.61.48-.88a.42.42,0,0,1,.37-.24.45.45,0,0,1,.46.41.58.58,0,0,1,0,.21,18.08,18.08,0,0,1-1.28,2c.26,0,.51,0,.76-.06,0-.07-.08-.14-.11-.21a.32.32,0,0,1-.06-.18.38.38,0,0,1,.39-.34.42.42,0,0,1,.34.19,5.23,5.23,0,0,1,.6,1.18.39.39,0,0,1,0,.14.4.4,0,0,1-.43.38.35.35,0,0,1-.35-.23L19,22.2l-.57.08v3.4c0,.24-.23.35-.46.35s-.46-.11-.46-.35Zm-.56.49a.36.36,0,0,1,.4.35v0a6.54,6.54,0,0,1-.41,1.64.41.41,0,0,1-.39.27.37.37,0,0,1-.36-.53,6.86,6.86,0,0,0,.39-1.48A.36.36,0,0,1,16.94,22.86Zm2.72,1.36s0,.07,0,.09a.38.38,0,0,1-.4.38.35.35,0,0,1-.37-.29,8.36,8.36,0,0,0-.3-1.22.43.43,0,0,1,0-.11.36.36,0,0,1,.39-.32.37.37,0,0,1,.36.25A5.88,5.88,0,0,1,19.66,24.22Zm1.88-6.1a.49.49,0,0,1,1,0v1h1.55a.38.38,0,0,1,.37.42.39.39,0,0,1-.37.43H22.51v1h1.27a.38.38,0,0,1,.37.42.38.38,0,0,1-.37.42H20.32a.38.38,0,0,1-.36-.42.37.37,0,0,1,.36-.42h1.22V20H20.05a.39.39,0,0,1-.36-.43.38.38,0,0,1,.36-.42h1.49Zm-.29,7.75c-.75,0-1-.3-1-.94V23.59c0-.64.29-.94,1-.94h1.57c.76,0,1.05.3,1.05.94v1.34c0,.72-.36.94-1.05.94ZM22.62,25c.22,0,.28-.07.28-.26v-1c0-.19-.06-.25-.28-.25H21.45c-.21,0-.28.06-.28.25v1c0,.21.09.26.28.26Z"/><path class="cls-4" d="M27.39,21.51c-.81,0-1.18-.28-1.18-1V18.86c0-.68.37-1,1.18-1h3.72c.81,0,1.18.28,1.18,1v1.69c0,.64-.34,1-1.18,1H29.65v.68H32.8a.36.36,0,0,1,.34.4.37.37,0,0,1-.34.41H30.16A9.2,9.2,0,0,0,33,24.58a.48.48,0,0,1,.37.46.46.46,0,0,1-.46.48.59.59,0,0,1-.21,0,9.42,9.42,0,0,1-3.13-1.91l0,1v1.1a.48.48,0,0,1-.95,0v-1.1l0-1a10.58,10.58,0,0,1-3.11,2,.71.71,0,0,1-.2,0,.44.44,0,0,1-.43-.45.42.42,0,0,1,.3-.4A10.1,10.1,0,0,0,28.15,23H25.57a.37.37,0,0,1-.34-.41.36.36,0,0,1,.34-.4H28.7v-.68Zm.13-2.85c-.29,0-.36.08-.36.28v.4H28.7v-.68Zm-.36,1.4v.41c0,.24.15.28.36.28H28.7v-.69Zm2.49-.72h1.69v-.4c0-.2-.07-.28-.36-.28H29.65Zm0,1.41H31c.29,0,.36-.08.36-.28v-.41H29.65Z"/><path class="cls-4" d="M36.4,21a2.21,2.21,0,0,1,.78-.15,1.15,1.15,0,0,1,1.26.86,21.93,21.93,0,0,1,2.25-.81l.18,0a.48.48,0,0,1,.11.94c-.78.24-1.59.51-2.34.81,0,.34.06.73.08,1.2a.47.47,0,0,1-.51.47.43.43,0,0,1-.48-.41c0-.35,0-.63,0-.88-.93.48-1.15.89-1.15,1.22s.32.56,1.36.56a10.55,10.55,0,0,0,1.75-.16h.1a.48.48,0,0,1,.48.5.5.5,0,0,1-.45.49,11.32,11.32,0,0,1-1.84.14c-1.7,0-2.42-.57-2.42-1.45,0-.72.42-1.41,2-2.21a.55.55,0,0,0-.63-.41,3.5,3.5,0,0,0-1.84.93.56.56,0,0,1-.33.12.5.5,0,0,1-.49-.48.55.55,0,0,1,.21-.4A8.32,8.32,0,0,0,36,20.06l-1,0a.47.47,0,1,1,0-.93c.42,0,.93,0,1.45-.06.15-.36.29-.71.4-1a.49.49,0,0,1,.95.09.3.3,0,0,1,0,.13,6.55,6.55,0,0,1-.27.71c.47,0,.92-.11,1.31-.18h.11a.42.42,0,0,1,.43.44.46.46,0,0,1-.4.45c-.56.09-1.24.19-1.91.26-.22.37-.45.71-.66,1Z"/><path class="cls-4" d="M46,18.49a.34.34,0,0,1,.34.37.34.34,0,0,1-.34.37h-.71l.17.3a.45.45,0,0,1,0,.18.42.42,0,0,1-.45.37.41.41,0,0,1-.4-.26,4.11,4.11,0,0,0-.3-.59h-.41a7.57,7.57,0,0,1-.57.74.55.55,0,0,1-.39.19.42.42,0,0,1-.31-.73,6.49,6.49,0,0,0,1-1.55.46.46,0,0,1,.43-.27.39.39,0,0,1,.41.56c0,.11-.1.21-.16.32Zm4.31,0a.34.34,0,0,1,.33.37.34.34,0,0,1-.33.37H49c.05.09.11.18.15.27a.32.32,0,0,1,.06.18.44.44,0,0,1-.44.38.43.43,0,0,1-.39-.25c-.09-.19-.21-.38-.33-.58h-.58a3.15,3.15,0,0,1-.22.29.52.52,0,0,1-.37.18h0A.32.32,0,0,1,47,20v.32h2.31c.83,0,1.12.26,1.12.84v.54c0,.25-.25.38-.49.38s-.5-.13-.5-.38V21.3c0-.17-.07-.24-.29-.24H44c-.23,0-.3.08-.3.25v.49c0,.25-.24.37-.49.37s-.49-.12-.49-.37v-.63c0-.58.29-.84,1.11-.84h2.28V20c0-.25.24-.37.48-.37h.09a.42.42,0,0,1-.24-.36A.43.43,0,0,1,46.5,19a5.41,5.41,0,0,0,.73-1.19.41.41,0,0,1,.4-.26.44.44,0,0,1,.47.4.34.34,0,0,1,0,.16c-.05.11-.1.23-.16.34Zm-5.15,4.92v.48h3.19c.74,0,1,.23,1,.76v.47c0,.53-.27.76-1,.76H45.25c-.76,0-1-.3-1-.9V22.31c0-.57.26-.82,1-.82h2.36c.74,0,1,.19,1,.72v.48a.62.62,0,0,1-.32.61,1.64,1.64,0,0,1-.69.11Zm2.34-.69c.21,0,.26,0,.26-.18v-.19c0-.14,0-.18-.26-.18h-2c-.22,0-.29,0-.29.26v.29Zm-2.34,1.87v.35c0,.18,0,.24.29.24h2.73c.22,0,.26-.05.26-.18v-.23c0-.18-.1-.18-.26-.18Z"/><path class="cls-4" d="M52.59,21.51H52c-.23,0-.35-.21-.35-.43a.38.38,0,0,1,.35-.42h.57V19.17H51.9c-.24,0-.35-.22-.35-.44a.38.38,0,0,1,.35-.42h2.29a.38.38,0,0,1,.35.42c0,.22-.12.44-.35.44h-.65v1.49H54a.38.38,0,0,1,.35.42c0,.22-.12.43-.35.43h-.5v1.72c.16-.07.32-.12.46-.19l.2,0a.42.42,0,0,1,.41.43.41.41,0,0,1-.25.39,13.35,13.35,0,0,1-2.33.79l-.12,0a.45.45,0,0,1-.44-.47.42.42,0,0,1,.35-.44c.24-.05.5-.13.77-.21Zm3.39.72c-.79,0-1.11-.31-1.11-1V19.05c0-.65.32-1,1.11-1h2.31c.78,0,1.12.32,1.12,1v2.22c0,.65-.34,1-1.12,1H57.6v.84H59c.23,0,.35.21.35.43a.38.38,0,0,1-.35.42H57.6v1h1.95c.23,0,.34.21.34.42s-.11.43-.34.43H54.24c-.22,0-.33-.22-.33-.43s.11-.42.33-.42h2.39v-1h-1.4c-.22,0-.33-.22-.33-.42s.11-.43.33-.43h1.4v-.84Zm.68-2.46V18.9h-.58c-.23,0-.29.05-.29.24v.63Zm0,1.65v-.86h-.87v.63c0,.21.1.23.29.23Zm.9-1.65h.93v-.63c0-.19-.06-.24-.29-.24h-.64Zm0,.79v.86h.64c.23,0,.29,0,.29-.23v-.63Z"/><path class="cls-4" d="M19,60.73c.31.31.8.43,2,.43a13,13,0,0,0,1.35-.06h0a.24.24,0,0,1,.24.25.25.25,0,0,1-.24.26c-.39,0-.85,0-1.38,0-1.26,0-1.8-.14-2.18-.51a3.54,3.54,0,0,1-.53.5.25.25,0,0,1-.17.06.26.26,0,0,1-.27-.25.31.31,0,0,1,.15-.23,3.28,3.28,0,0,0,.5-.44v-1c0-.09,0-.12-.15-.12H18.1a.23.23,0,0,1-.22-.24.23.23,0,0,1,.22-.25h.34c.39,0,.55.18.55.52Zm-.07-2.91A.28.28,0,0,1,19,58a.29.29,0,0,1-.29.28.26.26,0,0,1-.21-.11,3.46,3.46,0,0,0-.33-.35.26.26,0,0,1-.1-.19.27.27,0,0,1,.27-.26.32.32,0,0,1,.2.07A2.69,2.69,0,0,1,18.92,57.82Zm3,.89c.33,0,.47.16.47.46v1.29c0,.35-.18.5-.54.5l-.27,0a.24.24,0,0,1-.21-.24.22.22,0,0,1,.22-.23h0l.17,0c.07,0,.1,0,.1-.1V59.27c0-.1,0-.14-.16-.14H20c-.12,0-.17,0-.17.14V60.7c0,.14-.12.2-.25.2s-.26-.06-.26-.2V59.17a.4.4,0,0,1,.42-.45v-1c0-.34.18-.49.58-.49h1c.4,0,.58.15.58.49Zm-1.3,1.76c-.31,0-.44-.11-.44-.36v-.38c0-.25.13-.36.44-.36h.5c.32,0,.44.11.44.36v.38c0,.3-.17.36-.44.36Zm0-1.76v-.44c0-.23.14-.35.42-.35h.4v-.16c0-.09,0-.13-.15-.13H20.4c-.1,0-.14,0-.14.13v1ZM21,60.12c.09,0,.11,0,.11-.09v-.22c0-.07,0-.09-.11-.09h-.29c-.09,0-.11,0-.11.09V60c0,.08,0,.09.11.09Zm.41-1.82h-.23c-.1,0-.13,0-.13.11v.3h.36Z"/><path class="cls-4" d="M25.24,59.66c-.1.24-.21.48-.33.71s-.23.4-.35.6c.53,0,1.06-.1,1.58-.17a4.33,4.33,0,0,0-.34-.38.24.24,0,0,1-.08-.16A.27.27,0,0,1,26,60a.35.35,0,0,1,.22.09,8.8,8.8,0,0,1,1,1.1.29.29,0,0,1,.07.18.28.28,0,0,1-.29.27.3.3,0,0,1-.25-.14l-.22-.31a19.11,19.11,0,0,1-2.81.34H23.5a.25.25,0,0,1-.25-.27A.24.24,0,0,1,23.5,61l.4,0a7.24,7.24,0,0,0,.41-.71,5.51,5.51,0,0,0,.31-.65H23.23a.22.22,0,0,1-.21-.25.23.23,0,0,1,.21-.25H25v-.72H23.78a.23.23,0,0,1-.23-.25.24.24,0,0,1,.23-.25H25v-.63c0-.15.14-.22.28-.22s.28.07.28.22v.63h1.33a.24.24,0,0,1,.23.25.23.23,0,0,1-.23.25H25.56v.72h1.8c.15,0,.21.13.21.25s-.06.25-.21.25Z"/><path class="cls-4" d="M28.23,59.8a2.16,2.16,0,0,1,2.33-2.08,1.74,1.74,0,0,1,1.92,1.77,1.86,1.86,0,0,1-1.39,1.84.25.25,0,0,1-.12,0,.28.28,0,0,1-.28-.28.3.3,0,0,1,.21-.28,1.28,1.28,0,0,0,1-1.3,1.23,1.23,0,0,0-1.21-1.26,5,5,0,0,1-.56,2.13,1,1,0,0,1-1,.63C28.66,61,28.23,60.58,28.23,59.8Zm.58,0c0,.46.18.63.36.63s.29-.08.43-.33a4.46,4.46,0,0,0,.51-1.83A1.58,1.58,0,0,0,28.81,59.8Z"/><path class="cls-4" d="M35.91,58.9h-.26a.2.2,0,0,1-.18-.22.52.52,0,0,1,0-.11l-.4.35a.32.32,0,0,1-.18.06.25.25,0,0,1-.25-.25v0h-.4v.44a3.15,3.15,0,0,1,.52.57.24.24,0,0,1,.06.15.22.22,0,0,1-.22.21.2.2,0,0,1-.18-.1l-.18-.25v1.86a.23.23,0,0,1-.25.22.22.22,0,0,1-.25-.22V59.82a3.48,3.48,0,0,1-.33.7.22.22,0,0,1-.19.11.22.22,0,0,1-.22-.22.27.27,0,0,1,0-.14,5.26,5.26,0,0,0,.63-1.58h-.41c-.13,0-.19-.12-.19-.24s.06-.24.18-.24h.48V57.3c0-.13.12-.19.25-.19s.25.06.25.19v.91h.33c.13,0,.19.12.19.24v0h0A4.13,4.13,0,0,0,36,57.24a.26.26,0,0,1,.22-.12.28.28,0,0,1,.29.25.13.13,0,0,1,0,.06,5.27,5.27,0,0,0,1.18,1,.28.28,0,1,1-.29.47c-.13-.09-.27-.19-.4-.3a.22.22,0,0,1,0,.11.2.2,0,0,1-.18.22h-.37v.26h.46c.39,0,.53.13.53.44V60c0,.37-.19.45-.53.45h-.38a2.44,2.44,0,0,0,1,.78.27.27,0,0,1-.08.53.37.37,0,0,1-.14,0,3,3,0,0,1-1.07-1,2.18,2.18,0,0,1-1.1,1l-.12,0a.26.26,0,0,1-.26-.25.24.24,0,0,1,.18-.23,1.73,1.73,0,0,0,.91-.85h-.26c-.4,0-.53-.14-.53-.45V59.6c0-.31.13-.44.53-.44h.4Zm0,1.1c0-.13,0-.26,0-.39v0h-.36c-.08,0-.11,0-.11.09v.27c0,.06,0,.08.11.08Zm.88-1.54h0a6.44,6.44,0,0,1-.64-.64,5.88,5.88,0,0,1-.58.64h1.18Zm-.38,1.12c0,.14,0,.28,0,.42h.44c.09,0,.11,0,.11-.08v-.27c0-.06,0-.09-.11-.09H36.4Z"/><path class="cls-4" d="M40.75,58.71V59c0,.14-.13.21-.27.21s-.26-.07-.26-.21v-.52a6,6,0,0,1-1.68,1.13l-.13,0a.25.25,0,0,1-.25-.25.23.23,0,0,1,.16-.22,6,6,0,0,0,1.59-1H38.61a.23.23,0,0,1,0-.46h1.61v-.42c0-.13.13-.2.26-.2s.27.07.27.2v.42h1.68a.23.23,0,0,1,0,.46H41.05a6.11,6.11,0,0,0,1.61.94.24.24,0,0,1,.18.23.26.26,0,0,1-.25.26l-.11,0a6,6,0,0,1-1.75-1.12ZM39.17,59.8c0-.36.19-.51.63-.51h1.39c.45,0,.64.15.64.51v1.42h.68a.19.19,0,0,1,.18.21.2.2,0,0,1-.18.22h-4a.2.2,0,0,1-.19-.22.19.19,0,0,1,.19-.21h.68Zm2.14,0c0-.11,0-.14-.2-.14H39.88c-.16,0-.2,0-.2.14V60h1.63Zm-1.63.76h1.63v-.27H39.68Zm1.63.63V61H39.68v.26Z"/><path class="cls-4" d="M44.21,58.59a7.81,7.81,0,0,1-.39,2.84.3.3,0,0,1-.27.2.26.26,0,0,1-.26-.25.5.5,0,0,1,0-.12,7.05,7.05,0,0,0,.38-2.73v-.78c0-.32.16-.48.63-.48H47c.42,0,.55.14.55.38v.26c0,.24-.13.38-.55.38h-.83a.18.18,0,0,1,.1.16.23.23,0,0,1,0,.11h1.36a.17.17,0,0,1,.17.19.17.17,0,0,1-.17.18H46a2,2,0,0,1-.22.27.28.28,0,0,1-.2.1.21.21,0,0,1-.22-.21.24.24,0,0,1,.08-.17,3,3,0,0,0,.36-.54l.09-.09H44.21Zm.42,1.88-.06.06a.28.28,0,0,1-.2.09.23.23,0,0,1-.22-.23.24.24,0,0,1,.09-.19,3.15,3.15,0,0,0,.67-.88.26.26,0,0,1,.22-.13.25.25,0,0,1,.26.24.19.19,0,0,1,0,.12,2.94,2.94,0,0,1-.37.55.18.18,0,0,1,.13.18v1.29c0,.14-.12.2-.24.2s-.24-.06-.24-.2Zm2.29-2.55c.13,0,.15,0,.15-.09v-.09c0-.07,0-.09-.15-.09H44.39c-.15,0-.18,0-.18.12v.15Zm-1.89.4a.25.25,0,0,1,.26.23.43.43,0,0,1,0,.14,3.28,3.28,0,0,1-.59.68.3.3,0,0,1-.2.08.22.22,0,0,1-.22-.23.28.28,0,0,1,.1-.2,2.56,2.56,0,0,0,.5-.59A.24.24,0,0,1,45,58.32Zm2,2.09c.26,0,.39.11.39.25a.4.4,0,0,1-.13.27,1.64,1.64,0,0,1-.24.21,3.68,3.68,0,0,0,.63.13.22.22,0,0,1,.21.21.22.22,0,0,1-.22.22h0a3.52,3.52,0,0,1-1-.29,3.55,3.55,0,0,1-1.12.35h0a.2.2,0,0,1-.22-.19.21.21,0,0,1,.2-.19,3.47,3.47,0,0,0,.77-.2,3.11,3.11,0,0,1-.28-.23l-.32.2-.12,0a.18.18,0,0,1-.07-.36,2.76,2.76,0,0,0,.71-.55c-.33,0-.46-.12-.46-.39v-.4c0-.27.14-.39.49-.39h.85c.35,0,.49.12.49.39v.4c0,.28-.14.39-.49.39h-.39l-.12.15Zm.07-.95c0-.06,0-.08-.1-.08h-.79c-.08,0-.1,0-.1.08v.08h1Zm-.1.51c.08,0,.1,0,.1-.08v-.08h-1v.08c0,.07,0,.08.1.08Zm-.74.75a1.78,1.78,0,0,0,.36.25,1.06,1.06,0,0,0,.23-.17s0,0,0,0,0,0-.09,0Z"/><path class="cls-4" d="M52.8,57.32a.23.23,0,0,1,0,.46H49.7c-.23,0-.3.07-.3.23v.92A5.65,5.65,0,0,1,49,61.38a.31.31,0,0,1-.26.18.26.26,0,0,1-.27-.25.31.31,0,0,1,0-.13,5.11,5.11,0,0,0,.39-2.27v-1c0-.4.21-.59.75-.59Zm-.45,3a.21.21,0,0,1,.2.23.21.21,0,0,1-.2.22h-.89v.36h1.41a.22.22,0,0,1,.21.23.21.21,0,0,1-.21.23H49.43a.21.21,0,0,1-.2-.23.21.21,0,0,1,.2-.23h.49v-.67c0-.14.13-.21.26-.21s.27.07.27.21v.67h.47v-1c0-.14.14-.21.27-.21s.27.07.27.21v.21Zm-2.61-1.59c-.11,0-.17-.1-.17-.21a.18.18,0,0,1,.17-.2h.43v-.26c0-.13.11-.19.23-.19a.21.21,0,0,1,.23.19v.26H51c.12,0,.17.1.17.2s0,.21-.17.21h-.34v.08a3.13,3.13,0,0,1,.38.25.26.26,0,0,1,.09.17.19.19,0,0,1-.19.18.24.24,0,0,1-.13,0l-.15-.12v.57a.21.21,0,0,1-.23.2.21.21,0,0,1-.23-.2v-.56a2,2,0,0,1-.33.38.24.24,0,0,1-.16.08.2.2,0,0,1-.2-.2.26.26,0,0,1,.09-.18,3.32,3.32,0,0,0,.5-.6Zm1.68,0c-.11,0-.17-.1-.17-.21a.18.18,0,0,1,.17-.2h.41v-.26a.21.21,0,0,1,.23-.19c.12,0,.23.06.23.19v.26h.5c.12,0,.17.1.17.2s-.05.21-.17.21h-.42a6.09,6.09,0,0,0,.66.58.21.21,0,0,1,.11.18.22.22,0,0,1-.22.22.23.23,0,0,1-.15,0,4.47,4.47,0,0,1-.49-.48v.61a.21.21,0,0,1-.23.2.21.21,0,0,1-.23-.2v-.19l0-.41a2.67,2.67,0,0,1-.46.49.24.24,0,0,1-.15.06.2.2,0,0,1-.21-.2.22.22,0,0,1,.1-.17,3.7,3.7,0,0,0,.59-.64Z"/><path class="cls-4" d="M53.47,60.6a.27.27,0,0,1,.27-.26.32.32,0,0,1,.18.06,3.86,3.86,0,0,1,.89.79.34.34,0,0,1,.09.23.28.28,0,0,1-.29.28.31.31,0,0,1-.24-.13,5,5,0,0,0-.78-.76A.25.25,0,0,1,53.47,60.6Z"/><path class="cls-4" d="M16.31,65.33c.39,0,.61.19.61.42a.6.6,0,0,1-.24.44,5.37,5.37,0,0,1-.73.52.29.29,0,0,1,.06.16.13.13,0,0,1,0,.06h1.21c.35,0,.54.18.54.4a.59.59,0,0,1-.15.36,2.6,2.6,0,0,1-.68.58.3.3,0,0,1-.17,0,.28.28,0,0,1-.28-.26.28.28,0,0,1,.15-.23,2.43,2.43,0,0,0,.41-.31.15.15,0,0,0,0-.06s0,0-.07,0H15.8v1.65c0,.44-.21.64-.68.64a1.7,1.7,0,0,1-.4,0,.27.27,0,0,1,0-.53h.06a1,1,0,0,0,.27,0c.11,0,.15-.05.15-.17V67.43H13.44a.25.25,0,0,1,0-.5h2a4.89,4.89,0,0,0-.57-.44.28.28,0,0,1-.14-.22.26.26,0,0,1,.26-.25.28.28,0,0,1,.15,0,5.41,5.41,0,0,1,.47.31,5,5,0,0,0,.6-.43.09.09,0,0,0,0-.06s0,0-.09,0H14a.23.23,0,0,1-.22-.25.23.23,0,0,1,.22-.26Z"/><path class="cls-4" d="M19.14,67.76l-.59,0a.21.21,0,0,1-.22-.23.22.22,0,0,1,.21-.24h.25c.11-.14.21-.3.32-.45a5.9,5.9,0,0,0-.59-.62.24.24,0,0,1-.08-.16.24.24,0,0,1,.24-.23.27.27,0,0,1,.16.06h0a5.27,5.27,0,0,0,.31-.63.26.26,0,0,1,.23-.15.25.25,0,0,1,.26.22.2.2,0,0,1,0,.1,6.35,6.35,0,0,1-.44.81.93.93,0,0,1,.16.18c.11-.18.21-.35.29-.51a.21.21,0,0,1,.2-.13.26.26,0,0,1,.27.23.19.19,0,0,1,0,.12,12.46,12.46,0,0,1-.72,1.12l.43,0-.07-.11a.23.23,0,0,1,0-.11.22.22,0,0,1,.41-.08,3.41,3.41,0,0,1,.35.66.22.22,0,0,1,0,.08.22.22,0,0,1-.24.21.19.19,0,0,1-.19-.13l0-.1-.34,0v1.88c0,.13-.12.2-.25.2s-.26-.07-.26-.2Zm-.32.26a.21.21,0,0,1,.22.2v0a3.47,3.47,0,0,1-.23.9.22.22,0,0,1-.22.14.21.21,0,0,1-.23-.2.22.22,0,0,1,0-.1,3.07,3.07,0,0,0,.22-.8A.21.21,0,0,1,18.82,68Zm1.54.76v0a.21.21,0,0,1-.22.21.2.2,0,0,1-.21-.16,4.37,4.37,0,0,0-.17-.67.2.2,0,0,1,0-.07A.2.2,0,0,1,20,68a.21.21,0,0,1,.2.14A5.27,5.27,0,0,1,20.36,68.78Zm1.79-2.67c.45,0,.62.19.62.58A13.06,13.06,0,0,1,22.58,69c-.09.48-.33.65-.72.65a1.5,1.5,0,0,1-.37,0,.28.28,0,0,1-.25-.27.27.27,0,0,1,.28-.28h.05l.25,0c.13,0,.19,0,.23-.22a12.34,12.34,0,0,0,.17-2.14c0-.12,0-.15-.18-.15h-1a2.86,2.86,0,0,1-.24.42.29.29,0,0,1-.25.15.27.27,0,0,1-.27-.25.28.28,0,0,1,.05-.17A4.5,4.5,0,0,0,21,65.34a.26.26,0,0,1,.26-.2.28.28,0,0,1,.29.25.15.15,0,0,1,0,.07c-.06.22-.13.44-.21.65Zm-.42,1.7a.37.37,0,0,1,.05.17.28.28,0,0,1-.52.13,3.38,3.38,0,0,0-.33-.48.23.23,0,0,1-.07-.16.26.26,0,0,1,.27-.24.29.29,0,0,1,.22.09A3.57,3.57,0,0,1,21.73,67.81Z"/><path class="cls-4" d="M25.36,65.59a.19.19,0,0,1,.19.2.2.2,0,0,1-.19.21H25l.1.17a.29.29,0,0,1,0,.09.23.23,0,0,1-.25.21.24.24,0,0,1-.22-.14,1.66,1.66,0,0,0-.16-.33h-.23a3.43,3.43,0,0,1-.32.41.32.32,0,0,1-.22.1.24.24,0,0,1-.25-.23.29.29,0,0,1,.08-.17,3.48,3.48,0,0,0,.57-.86.25.25,0,0,1,.24-.15.23.23,0,0,1,.25.21.19.19,0,0,1,0,.1,1.42,1.42,0,0,1-.08.18Zm2.39,0a.19.19,0,0,1,.19.2.19.19,0,0,1-.19.21H27a1.09,1.09,0,0,1,.08.15.21.21,0,0,1,0,.1.24.24,0,0,1-.25.21.23.23,0,0,1-.22-.14A3.58,3.58,0,0,0,26.5,66h-.32l-.12.16a.29.29,0,0,1-.21.1h0a.18.18,0,0,1,.12.17v.18h1.28c.46,0,.62.14.62.47v.3c0,.14-.13.21-.26.21s-.28-.07-.28-.21v-.23c0-.09,0-.13-.16-.13H24.24c-.12,0-.16,0-.16.14v.27c0,.14-.14.21-.27.21s-.28-.07-.28-.21v-.35c0-.33.16-.47.62-.47h1.27v-.18c0-.14.13-.2.26-.2h.05a.24.24,0,0,1-.13-.2.3.3,0,0,1,0-.14,3.08,3.08,0,0,0,.41-.66.22.22,0,0,1,.22-.14.25.25,0,0,1,.26.22.29.29,0,0,1,0,.09l-.09.19Zm-2.86,2.73v.27h1.77c.41,0,.57.13.57.42v.27c0,.29-.16.42-.57.42H25c-.43,0-.58-.17-.58-.5V67.71c0-.31.14-.45.57-.45h1.31c.41,0,.57.1.57.4v.26a.33.33,0,0,1-.18.34.82.82,0,0,1-.38.06Zm1.3-.38c.12,0,.14,0,.14-.1v-.1c0-.08,0-.1-.14-.1H25.05c-.12,0-.16,0-.16.14v.16Zm-1.3,1v.2c0,.09,0,.13.16.13h1.52c.12,0,.14,0,.14-.1v-.13c0-.1-.06-.1-.14-.1Z"/><path class="cls-4" d="M29.1,67.27h-.31a.22.22,0,0,1-.2-.24.22.22,0,0,1,.2-.24h.31V66h-.38a.22.22,0,0,1-.2-.24.21.21,0,0,1,.2-.23H30a.21.21,0,0,1,.2.23A.22.22,0,0,1,30,66h-.36v.83h.28a.22.22,0,0,1,.2.24.22.22,0,0,1-.2.24h-.28v1l.26-.1.11,0a.24.24,0,0,1,.09.46,7.66,7.66,0,0,1-1.3.44h-.07a.25.25,0,0,1-.24-.26.25.25,0,0,1,.19-.25l.43-.11Zm1.89.4c-.44,0-.62-.17-.62-.53V65.9c0-.36.18-.54.62-.54h1.28c.44,0,.62.18.62.54v1.24c0,.36-.18.53-.62.53h-.38v.47h.77a.21.21,0,0,1,.19.23.22.22,0,0,1-.19.24h-.77v.54H33c.13,0,.19.11.19.23s-.06.24-.19.24H30c-.12,0-.18-.12-.18-.24s.06-.23.18-.23h1.33v-.54h-.78c-.12,0-.18-.12-.18-.24s.06-.23.18-.23h.78v-.47Zm.38-1.37v-.48H31c-.12,0-.16,0-.16.13v.35Zm0,.92v-.48h-.49v.35c0,.12.06.13.16.13Zm.5-.92h.51V66c0-.11,0-.13-.16-.13h-.35Zm0,.44v.48h.35c.13,0,.16,0,.16-.13v-.35Z"/><path class="cls-4" d="M34.7,65.49a.27.27,0,0,1,.29-.27.27.27,0,0,1,.29.27A8.81,8.81,0,0,0,35.4,67a6.07,6.07,0,0,1,1-.39l.1,0a.27.27,0,0,1,.25.29.24.24,0,0,1-.18.24,6.07,6.07,0,0,0-1.32.58c-.43.28-.58.56-.58.81s.21.47,1,.47a5.16,5.16,0,0,0,1-.09h.07a.25.25,0,0,1,.26.27.26.26,0,0,1-.22.28,5.79,5.79,0,0,1-1.15.1c-1,0-1.58-.32-1.58-1a1.49,1.49,0,0,1,.82-1.24A8,8,0,0,1,34.7,65.49Z"/><path class="cls-4" d="M40.67,66.9h-.26a.2.2,0,0,1-.18-.22.52.52,0,0,1,0-.11l-.4.35a.32.32,0,0,1-.18.06.25.25,0,0,1-.25-.25v0H39v.44a3.15,3.15,0,0,1,.52.57.24.24,0,0,1,.06.15.22.22,0,0,1-.22.21.2.2,0,0,1-.18-.1L39,67.71v1.86a.23.23,0,0,1-.25.22.22.22,0,0,1-.25-.22V67.82a3.48,3.48,0,0,1-.33.7.22.22,0,0,1-.19.11.23.23,0,0,1-.23-.22.3.3,0,0,1,0-.14,5.26,5.26,0,0,0,.63-1.58h-.41a.25.25,0,0,1,0-.48h.48V65.3c0-.13.12-.19.25-.19s.25.06.25.19v.91h.33c.13,0,.19.12.19.24v0h0a4.13,4.13,0,0,0,1.16-1.25.26.26,0,0,1,.22-.12.28.28,0,0,1,.29.25s0,0,0,.06a5.21,5.21,0,0,0,1.17,1,.29.29,0,0,1,.16.25.28.28,0,0,1-.28.27.3.3,0,0,1-.17,0q-.2-.14-.39-.3a.43.43,0,0,1,0,.11.2.2,0,0,1-.19.22h-.36v.26h.45c.39,0,.54.13.54.44V68c0,.37-.2.45-.54.45h-.37a2.31,2.31,0,0,0,1,.78.28.28,0,0,1,.18.25.28.28,0,0,1-.27.28.43.43,0,0,1-.14,0,2.88,2.88,0,0,1-1.06-1,2.18,2.18,0,0,1-1.1,1,.27.27,0,0,1-.12,0,.26.26,0,0,1-.26-.25.24.24,0,0,1,.18-.23,1.73,1.73,0,0,0,.91-.85h-.26c-.4,0-.53-.14-.53-.45V67.6c0-.31.13-.44.53-.44h.4Zm0,1.1a2.56,2.56,0,0,0,0-.39v0h-.36c-.08,0-.11,0-.11.09v.27c0,.06,0,.08.11.08Zm.88-1.54h0a6.44,6.44,0,0,1-.64-.64,4.92,4.92,0,0,1-.57.64h1.17Zm-.37,1.12a3,3,0,0,1,0,.42h.45c.08,0,.11,0,.11-.08v-.27c0-.06,0-.09-.11-.09h-.42Z"/><path class="cls-4" d="M45.51,66.71V67c0,.14-.13.21-.27.21S45,67.11,45,67v-.52a6,6,0,0,1-1.68,1.13l-.13,0a.24.24,0,0,1-.25-.25.23.23,0,0,1,.16-.22,6,6,0,0,0,1.59-1H43.37a.23.23,0,0,1,0-.46H45v-.42c0-.13.13-.2.26-.2s.27.07.27.2v.42h1.68a.23.23,0,0,1,0,.46H45.8a6.16,6.16,0,0,0,1.62.94.25.25,0,0,1,.17.23.26.26,0,0,1-.25.26l-.11,0a6,6,0,0,1-1.74-1.12ZM43.93,67.8c0-.36.19-.51.63-.51H46c.44,0,.63.15.63.51v1.42h.68a.19.19,0,0,1,.19.21.2.2,0,0,1-.19.22h-4a.2.2,0,0,1-.19-.22.19.19,0,0,1,.19-.21h.68Zm2.14,0c0-.11,0-.14-.2-.14H44.64c-.16,0-.2,0-.2.14V68h1.63Zm-1.63.76h1.63v-.27H44.44Zm1.63.63V69H44.44v.26Z"/><path class="cls-4" d="M48.91,67.75l-.58,0c-.14,0-.21-.11-.21-.23s.06-.24.2-.24h.25c.1-.14.21-.29.31-.45-.19-.22-.39-.44-.58-.62a.21.21,0,0,1-.07-.16.24.24,0,0,1,.23-.23.23.23,0,0,1,.16.07h0a6.14,6.14,0,0,0,.31-.63.22.22,0,0,1,.22-.15.25.25,0,0,1,.27.22.23.23,0,0,1,0,.09,5.67,5.67,0,0,1-.42.81,1.43,1.43,0,0,1,.15.18c.1-.18.2-.34.27-.49a.24.24,0,0,1,.21-.13.26.26,0,0,1,.26.22.53.53,0,0,1,0,.12,9.1,9.1,0,0,1-.72,1.11l.43,0a.75.75,0,0,0-.07-.12.38.38,0,0,1,0-.1.22.22,0,0,1,.41-.08,3.07,3.07,0,0,1,.34.65.25.25,0,0,1,0,.08.22.22,0,0,1-.24.21.21.21,0,0,1-.2-.13.54.54,0,0,0,0-.1l-.32,0v1.89c0,.13-.13.19-.26.19s-.25-.06-.25-.19ZM48.6,68a.2.2,0,0,1,.22.19v0a3.55,3.55,0,0,1-.23.91.23.23,0,0,1-.22.15.21.21,0,0,1-.22-.2.44.44,0,0,1,0-.1,3.12,3.12,0,0,0,.22-.82A.2.2,0,0,1,48.6,68Zm1.51.76a.43.43,0,0,1,0,0,.22.22,0,0,1-.23.21.2.2,0,0,1-.2-.17,5.06,5.06,0,0,0-.17-.67s0,0,0-.06a.2.2,0,0,1,.22-.18.21.21,0,0,1,.2.14A3.28,3.28,0,0,1,50.11,68.78Zm1-3.4a.24.24,0,0,1,.27-.23.24.24,0,0,1,.26.23v.56h.87a.22.22,0,0,1,.2.24.21.21,0,0,1-.2.23h-.87V67h.71a.21.21,0,0,1,.21.23.22.22,0,0,1-.21.24H50.48a.22.22,0,0,1-.2-.24.21.21,0,0,1,.2-.23h.68v-.56h-.83a.21.21,0,0,1-.2-.23.22.22,0,0,1,.2-.24h.83ZM51,69.69c-.42,0-.58-.16-.58-.52v-.74c0-.36.16-.53.58-.53h.87c.42,0,.58.17.58.53v.74c0,.4-.2.52-.58.52Zm.76-.47c.12,0,.15,0,.15-.14v-.57c0-.1,0-.14-.15-.14h-.65c-.12,0-.16,0-.16.14v.57c0,.12,0,.14.16.14Z"/><path class="cls-4" d="M54.48,67.27c-.45,0-.66-.16-.66-.54v-.94c0-.37.21-.53.66-.53h2.07c.45,0,.66.16.66.53v.94c0,.36-.19.54-.66.54h-.82v.38h1.76a.2.2,0,0,1,.19.22.21.21,0,0,1-.19.23H56a5.08,5.08,0,0,0,1.6.87.28.28,0,0,1,.21.26.26.26,0,0,1-.26.27l-.11,0a5.21,5.21,0,0,1-1.75-1.07l0,.57v.61a.26.26,0,0,1-.52,0V69l0-.56a5.59,5.59,0,0,1-1.73,1.1.23.23,0,0,1-.11,0,.25.25,0,0,1-.24-.25.25.25,0,0,1,.17-.23,5.29,5.29,0,0,0,1.58-1H53.47a.21.21,0,0,1-.19-.23.2.2,0,0,1,.19-.22h1.74v-.38Zm.07-1.59c-.16,0-.2,0-.2.16v.22h.86v-.38Zm-.2.78v.23c0,.14.08.16.2.16h.66v-.39Zm1.38-.4h1v-.22c0-.11,0-.16-.2-.16h-.75Zm0,.79h.75c.16,0,.2,0,.2-.16v-.23h-1Z"/><path class="cls-4" d="M59.67,67a1.18,1.18,0,0,1,.43-.08.64.64,0,0,1,.7.47c.39-.16.81-.31,1.25-.45h.1a.25.25,0,0,1,.26.27.26.26,0,0,1-.2.25c-.43.13-.88.28-1.3.45a6.19,6.19,0,0,1,0,.67.26.26,0,0,1-.28.26.25.25,0,0,1-.27-.23c0-.19,0-.35,0-.49-.52.27-.64.49-.64.68s.18.31.75.31a5.5,5.5,0,0,0,1-.09h.05a.26.26,0,0,1,.27.27.28.28,0,0,1-.25.27,5.81,5.81,0,0,1-1,.08c-.94,0-1.34-.31-1.34-.8s.23-.79,1.12-1.23c-.06-.19-.17-.23-.35-.23a2,2,0,0,0-1,.52.32.32,0,0,1-.18.06.27.27,0,0,1-.27-.26.28.28,0,0,1,.11-.22,4.76,4.76,0,0,0,.85-1l-.54,0a.26.26,0,1,1,0-.51c.23,0,.51,0,.8,0a5.24,5.24,0,0,0,.22-.58.27.27,0,0,1,.26-.18.25.25,0,0,1,.27.23.22.22,0,0,1,0,.08,2.26,2.26,0,0,1-.15.39,7.16,7.16,0,0,0,.73-.1h.06a.23.23,0,0,1,.24.24.25.25,0,0,1-.22.25c-.32,0-.69.11-1.06.14-.13.21-.25.4-.37.56Z"/><path class="cls-4" d="M19.3,73.69c1.22,0,1.73.56,1.73,1.52s-.65,1.55-1.81,1.55h-1v1.93a.38.38,0,0,1-.42.4.39.39,0,0,1-.44-.4v-4c0-.67.25-1,1.05-1Zm-.08,2.39a.83.83,0,0,0,.93-.86c0-.55-.29-.84-.89-.84h-.67c-.32,0-.39.09-.39.37v1.33Z"/><path class="cls-4" d="M25.61,74.09a.49.49,0,0,1,.26.42.41.41,0,0,1-.41.41.42.42,0,0,1-.33-.13,1.32,1.32,0,0,0-1-.42c-.85,0-1.46.76-1.46,2s.62,2,1.46,2A1.54,1.54,0,0,0,25.26,78a.49.49,0,0,1,.3-.12.39.39,0,0,1,.4.37.38.38,0,0,1-.16.32,2.43,2.43,0,0,1-1.66.58c-1.33,0-2.35-1-2.35-2.75s1-2.75,2.35-2.75A2.4,2.4,0,0,1,25.61,74.09Z"/><path class="cls-4" d="M27.82,76.21l-1,.45a.39.39,0,0,1-.18,0,.36.36,0,0,1-.35-.37.38.38,0,0,1,.23-.35l1.09-.47-.4-1.16a.52.52,0,0,1,0-.11.39.39,0,0,1,.42-.34.35.35,0,0,1,.35.23l.38,1.11a7.09,7.09,0,0,1,2.34-.45c1.1,0,1.73.5,1.73,1.27a1.36,1.36,0,0,1-1.5,1.39,2.77,2.77,0,0,1-.69-.07.43.43,0,0,1-.36-.41.38.38,0,0,1,.39-.38.32.32,0,0,1,.13,0,2.43,2.43,0,0,0,.49.06c.45,0,.72-.23.72-.61s-.27-.55-.93-.55a6.27,6.27,0,0,0-2.08.42l1,3.09a.68.68,0,0,1,0,.14.39.39,0,0,1-.41.37.35.35,0,0,1-.34-.26Zm2.64-2a.41.41,0,0,1-.41.39.42.42,0,0,1-.28-.11,4.38,4.38,0,0,0-.68-.49.38.38,0,0,1-.19-.31.39.39,0,0,1,.4-.38.47.47,0,0,1,.24.07,3.69,3.69,0,0,1,.76.52A.41.41,0,0,1,30.46,74.25Z"/><path class="cls-4" d="M36.61,74.1h0c.52,0,.78.24.78.6a1.47,1.47,0,0,1-.07.38,6.68,6.68,0,0,1-1,1.67,10.28,10.28,0,0,1,1.87,1.66.53.53,0,0,1,.14.32.44.44,0,0,1-.79.25,11.35,11.35,0,0,0-1.72-1.65,8,8,0,0,1-2.28,1.74.41.41,0,0,1-.61-.36.38.38,0,0,1,.23-.35,6.76,6.76,0,0,0,3.24-3.29.26.26,0,0,0,0-.11q0-.09-.18-.09l-2.5,0a.39.39,0,0,1,0-.77Z"/><path class="cls-4" d="M43.85,74.43c.61,0,.94.25.94.63a1.24,1.24,0,0,1-.25.68,8.73,8.73,0,0,1-1.89,1.9c.22.22.43.44.61.65a.5.5,0,0,1,.14.33.45.45,0,0,1-.45.44.48.48,0,0,1-.37-.2,13.61,13.61,0,0,0-1.83-1.76.38.38,0,0,1-.17-.31.43.43,0,0,1,.43-.4.51.51,0,0,1,.28.09,7,7,0,0,1,.77.61,6.71,6.71,0,0,0,1.68-1.63.27.27,0,0,0,.07-.16c0-.07-.07-.09-.21-.09l-4.05,0a.36.36,0,0,1-.36-.38.37.37,0,0,1,.35-.4Z"/><path class="cls-4" d="M47.2,76.21a.4.4,0,0,1,.41.38.42.42,0,0,1,0,.18,4.58,4.58,0,0,1-1,1.51.48.48,0,0,1-.33.15.41.41,0,0,1-.41-.38.4.4,0,0,1,.15-.31,4,4,0,0,0,.84-1.27A.41.41,0,0,1,47.2,76.21Zm2,2.27c0,.71-.35,1-1,1a2.6,2.6,0,0,1-.54,0,.39.39,0,0,1-.33-.4.4.4,0,0,1,.39-.42h.08l.3,0c.15,0,.22,0,.22-.26V75.55h-2a.34.34,0,0,1-.34-.37.34.34,0,0,1,.34-.37h2v-1c0-.24.21-.35.42-.35s.42.11.42.34v1.06h2a.34.34,0,0,1,.34.37.35.35,0,0,1-.34.37h-2Zm2.31-.83a.51.51,0,0,1,.13.32.42.42,0,0,1-.42.41.5.5,0,0,1-.39-.22A7.61,7.61,0,0,1,50,76.75a.46.46,0,0,1,0-.19.37.37,0,0,1,.4-.35.41.41,0,0,1,.38.23A7.12,7.12,0,0,0,51.56,77.65Z"/><path class="cls-4" d="M56.09,74.88l-3,.43h-.07a.4.4,0,0,1,0-.79c1.45-.18,3.26-.38,4.72-.52h0a.37.37,0,0,1,.38.38.38.38,0,0,1-.33.37,2.89,2.89,0,0,0-.77.28,2.21,2.21,0,0,0-1.32,2c0,.78.54,1.25,1.52,1.37a.42.42,0,0,1,.38.42.39.39,0,0,1-.42.41l-.31,0a2.19,2.19,0,0,1-2-2.15,2.82,2.82,0,0,1,1.15-2.18Zm1,1.13a.29.29,0,0,1,.29-.27.37.37,0,0,1,.2.08,3.15,3.15,0,0,1,.54.61.3.3,0,0,1,.07.19.28.28,0,0,1-.52.15,4.56,4.56,0,0,0-.51-.6A.23.23,0,0,1,57.12,76Zm.69-.56a.28.28,0,0,1,.29-.26.32.32,0,0,1,.21.09,2.92,2.92,0,0,1,.54.57.31.31,0,0,1,.08.21.28.28,0,0,1-.28.27.34.34,0,0,1-.25-.13c-.16-.2-.35-.41-.51-.58A.22.22,0,0,1,57.81,75.45Z"/><path class="cls-4" d="M16.72,80v-.35h42.5V80Z"/><path class="cls-4" d="M17,86.8l0,.06a.28.28,0,0,1-.22.12.24.24,0,0,1-.25-.23.3.3,0,0,1,.05-.17,4.41,4.41,0,0,0,.58-1.66h-.36a.24.24,0,0,1,0-.48h1.34a.24.24,0,0,1,0,.48h-.47a5.22,5.22,0,0,1-.22.93h.41c.34,0,.45.14.45.47v1.43c0,.33-.1.47-.45.47h-.39c-.33,0-.45-.14-.45-.47v-1Zm.69,1c.08,0,.1,0,.1-.12V86.41c0-.1,0-.12-.1-.12h-.1c-.08,0-.11,0-.11.12v1.25c0,.08,0,.12.11.12Zm2.09-1.94c.06-.15.11-.3.15-.41a.22.22,0,0,1,.22-.16.23.23,0,0,1,.25.21.2.2,0,0,1,0,.07l-.11.29H21a.18.18,0,0,1,.18.2.19.19,0,0,1-.18.21h-.72v.32h.52c.11,0,.16.1.16.2s-.05.2-.16.2h-.52v.32h.53c.11,0,.16.1.16.2s-.05.2-.16.2h-.53v.37H21c.12,0,.17.1.17.21s-.05.21-.17.21H19.3v.09a.23.23,0,0,1-.25.2c-.13,0-.25-.07-.25-.2V86.75a.26.26,0,0,1-.19.08.23.23,0,0,1-.24-.23.3.3,0,0,1,.08-.2,4.43,4.43,0,0,0,.79-1.3H19c-.12,0-.14,0-.14.12v.23c0,.14-.13.21-.26.21a.23.23,0,0,1-.25-.21v-.31c0-.32.12-.48.58-.48h.45c0-.12.07-.24.1-.37a.27.27,0,0,1,.53,0,.13.13,0,0,1,0,.06,2.29,2.29,0,0,1-.08.28h.68c.46,0,.59.16.59.48v.26c0,.14-.13.21-.26.21a.23.23,0,0,1-.25-.21v-.18c0-.09,0-.12-.14-.12h-.77a7.12,7.12,0,0,1-.35.74Zm0,.73v-.32h-.36c-.09,0-.11,0-.11.1v.22Zm0,.72V87H19.3v.32Zm0,.77v-.37H19.3v.37Z"/><path class="cls-4" d="M21.93,85.5a.23.23,0,0,1-.2-.25c0-.13.07-.25.2-.25h1.5c.13,0,.2.12.2.25a.23.23,0,0,1-.2.25Zm.55,3.13c-.38,0-.5-.15-.5-.45v-.62c0-.31.12-.46.5-.46H23c.37,0,.5.15.5.46v.62c0,.34-.16.45-.5.45Zm-.28-3.85a.22.22,0,0,1-.19-.24.21.21,0,0,1,.19-.23h1a.21.21,0,0,1,.2.23.22.22,0,0,1-.2.24Zm0,1.41A.21.21,0,0,1,22,86a.22.22,0,0,1,.19-.24h1a.22.22,0,0,1,.2.24.21.21,0,0,1-.2.23Zm0,.69a.21.21,0,0,1-.19-.23.22.22,0,0,1,.19-.24h1a.22.22,0,0,1,.2.24.21.21,0,0,1-.2.23Zm.67,1.3c.08,0,.1,0,.1-.11v-.4c0-.09,0-.12-.1-.12h-.29c-.08,0-.11,0-.11.12v.4c0,.08,0,.11.11.11ZM24,88.11a.25.25,0,0,1-.24.17.24.24,0,0,1-.24-.24.27.27,0,0,1,0-.14,2.35,2.35,0,0,0,.18-.51.22.22,0,0,1,.23-.17.23.23,0,0,1,.24.22.15.15,0,0,1,0,.07A3.84,3.84,0,0,1,24,88.11Zm1.08-3.25a2.19,2.19,0,0,1-.14.56l.15.1a.28.28,0,0,1,.14.23A.23.23,0,0,1,25,86a.3.3,0,0,1-.17,0l-.09-.07a2.46,2.46,0,0,1-.68.75.27.27,0,0,1-.16.06.26.26,0,0,1-.26-.25.26.26,0,0,1,.13-.22,1.84,1.84,0,0,0,.54-.57l-.26-.12a.22.22,0,0,1-.15-.2.23.23,0,0,1,.24-.23l.09,0,.27.1a1.4,1.4,0,0,0,.08-.34h-.54a.22.22,0,0,1-.2-.24.21.21,0,0,1,.2-.23h1.59c.4,0,.57.18.56.5A5.22,5.22,0,0,1,26.08,86a.6.6,0,0,1-.62.53,1.63,1.63,0,0,1-.31,0,.24.24,0,0,1-.21-.25.23.23,0,0,1,.23-.24h.06l.18,0c.08,0,.13,0,.16-.14a4,4,0,0,0,.12-.92c0-.09,0-.12-.15-.12Zm-.79,2.4a.23.23,0,0,1,.25-.22.24.24,0,0,1,.27.22v.8c0,.09.05.11.22.11s.31,0,.34-.29a.22.22,0,0,1,.24-.19.24.24,0,0,1,.25.22.88.88,0,0,1-.14.5c-.12.14-.28.23-.69.23-.62,0-.74-.13-.74-.5Zm1.12-.4a.29.29,0,0,1,.1.2.26.26,0,0,1-.26.25.28.28,0,0,1-.19-.09,2.6,2.6,0,0,0-.31-.25.26.26,0,0,1-.09-.19.24.24,0,0,1,.24-.23.28.28,0,0,1,.17,0A2.56,2.56,0,0,1,25.43,86.86Zm1,.83a.27.27,0,0,1-.23.41.25.25,0,0,1-.24-.17,3.81,3.81,0,0,0-.29-.53.2.2,0,0,1,0-.13.24.24,0,0,1,.25-.22.28.28,0,0,1,.23.12A3,3,0,0,1,26.47,87.69Z"/><path class="cls-4" d="M28.29,86.43a.51.51,0,1,1-.51-.51A.51.51,0,0,1,28.29,86.43Z"/><path class="cls-4" d="M31,84.59a.19.19,0,0,1,.19.2A.19.19,0,0,1,31,85h-.39l.09.17a.16.16,0,0,1,0,.09.23.23,0,0,1-.25.21.22.22,0,0,1-.22-.14,2.59,2.59,0,0,0-.17-.33h-.23a4.86,4.86,0,0,1-.31.41.32.32,0,0,1-.22.1.24.24,0,0,1-.25-.23.24.24,0,0,1,.08-.17,3.44,3.44,0,0,0,.56-.86A.25.25,0,0,1,30,84.1a.23.23,0,0,1,.25.21.18.18,0,0,1,0,.1l-.09.18Zm2.4,0a.18.18,0,0,1,.18.2.19.19,0,0,1-.18.21h-.72a1.09,1.09,0,0,1,.08.15.19.19,0,0,1,0,.1.24.24,0,0,1-.46.07,3.58,3.58,0,0,0-.18-.32h-.33l-.12.16a.26.26,0,0,1-.21.1h0a.18.18,0,0,1,.12.17v.18h1.29c.46,0,.62.14.62.47v.3c0,.14-.13.21-.27.21s-.27-.07-.27-.21v-.23c0-.09,0-.13-.17-.13h-2.9c-.13,0-.17,0-.17.14v.27c0,.14-.13.21-.27.21s-.27-.07-.27-.21v-.35c0-.33.16-.47.62-.47h1.26v-.18c0-.14.14-.2.27-.2h.05a.22.22,0,0,1-.08-.34,3,3,0,0,0,.4-.66.24.24,0,0,1,.23-.14.25.25,0,0,1,.26.22.29.29,0,0,1,0,.09,1.74,1.74,0,0,1-.1.19Zm-2.87,2.73v.27h1.78c.41,0,.56.13.56.42v.27c0,.29-.15.42-.56.42H30.63c-.42,0-.58-.17-.58-.5V86.71c0-.31.15-.45.57-.45h1.32c.41,0,.57.1.57.4v.26a.33.33,0,0,1-.18.34.82.82,0,0,1-.38.06Zm1.3-.38c.12,0,.15,0,.15-.1v-.1c0-.08,0-.1-.15-.1H30.73c-.13,0-.17,0-.17.14v.16Zm-1.3,1v.2c0,.09,0,.13.17.13h1.52c.12,0,.14,0,.14-.1v-.13c0-.1-.06-.1-.14-.1Z"/><path class="cls-4" d="M34.78,86.27h-.31a.22.22,0,0,1-.2-.24.22.22,0,0,1,.2-.24h.31V85H34.4a.22.22,0,0,1-.2-.24.21.21,0,0,1,.2-.23h1.27a.21.21,0,0,1,.19.23c0,.12-.06.24-.19.24h-.36v.83h.28c.13,0,.19.13.19.24s-.06.24-.19.24h-.28v1l.26-.1.11,0a.23.23,0,0,1,.22.24.23.23,0,0,1-.14.22,7.88,7.88,0,0,1-1.29.44H34.4a.25.25,0,0,1-.24-.26.25.25,0,0,1,.19-.25l.43-.11Zm1.88.4c-.43,0-.61-.17-.61-.53V84.9c0-.36.18-.54.61-.54H38c.43,0,.62.18.62.54v1.24c0,.36-.19.53-.62.53h-.39v.47h.77c.13,0,.19.11.19.23s-.06.24-.19.24h-.77v.54h1.09a.21.21,0,0,1,.19.23.22.22,0,0,1-.19.24H35.7a.22.22,0,0,1-.19-.24.21.21,0,0,1,.19-.23H37v-.54h-.78a.22.22,0,0,1-.19-.24.21.21,0,0,1,.19-.23H37v-.47ZM37,85.3v-.48h-.32c-.13,0-.16,0-.16.13v.35Zm0,.92v-.48h-.48v.35c0,.12,0,.13.16.13Zm.5-.92h.52V85c0-.11,0-.13-.16-.13h-.36Zm0,.44v.48h.36c.13,0,.16,0,.16-.13v-.35Z"/><path class="cls-4" d="M40.06,88.28a.32.32,0,0,1-.27.16.26.26,0,0,1-.28-.25.37.37,0,0,1,.05-.16,8.61,8.61,0,0,0,.76-2,5.58,5.58,0,0,0-.59.1h-.07a.24.24,0,0,1-.24-.25.25.25,0,0,1,.23-.26,6.84,6.84,0,0,1,.79-.12c.06-.31.11-.62.15-.92a.28.28,0,0,1,.55,0v0a7.76,7.76,0,0,1-.13.82h.27c.64,0,.88.29.88,1.08A4.36,4.36,0,0,1,42,87.77c-.16.58-.38.78-.89.78l-.34,0a.27.27,0,0,1-.24-.27A.26.26,0,0,1,40.8,88h0l.28,0c.17,0,.26-.06.35-.35a4.28,4.28,0,0,0,.13-1.09c0-.45-.09-.57-.33-.57l-.37,0A9.39,9.39,0,0,1,40.06,88.28Zm3.63-2a.38.38,0,0,1,0,.17.29.29,0,0,1-.29.29.33.33,0,0,1-.28-.19,4.67,4.67,0,0,0-.71-1,.29.29,0,0,1-.08-.18.28.28,0,0,1,.29-.25.36.36,0,0,1,.24.1A4.48,4.48,0,0,1,43.69,86.26Zm-.92-1.73a.21.21,0,0,1,.21-.19.19.19,0,0,1,.14,0,2.41,2.41,0,0,1,.4.44.22.22,0,0,1,0,.13.2.2,0,0,1-.2.2.22.22,0,0,1-.17-.09,3.29,3.29,0,0,0-.37-.43A.21.21,0,0,1,42.77,84.53Zm.5-.4a.2.2,0,0,1,.21-.19.24.24,0,0,1,.15.06,3,3,0,0,1,.39.41.23.23,0,0,1,0,.15.19.19,0,0,1-.2.19.2.2,0,0,1-.17-.09c-.12-.14-.26-.29-.38-.41A.16.16,0,0,1,43.27,84.13Z"/><path class="cls-4" d="M48.34,88c0,.51-.22.72-.7.72a1.93,1.93,0,0,1-.42,0,.28.28,0,0,1-.23-.28.26.26,0,0,1,.26-.27h.07a1.26,1.26,0,0,0,.27,0c.14,0,.19,0,.19-.22v-3h-3a.26.26,0,0,1,0-.52H49a.26.26,0,0,1,0,.52h-.61Zm-2.51-.63c-.47,0-.66-.17-.66-.53V86c0-.37.19-.54.66-.54h.6c.47,0,.65.17.65.54v.85c0,.43-.26.53-.65.53Zm.51-.46c.17,0,.21-.05.21-.19v-.62c0-.13,0-.18-.21-.18h-.42c-.18,0-.22,0-.22.18v.62c0,.16.07.19.22.19Z"/><path class="cls-4" d="M50.41,84.25a.25.25,0,0,1,.24-.16.26.26,0,0,1,.29.23.15.15,0,0,1,0,.09c-.09.22-.18.42-.28.61l.51,0-.07-.09a.24.24,0,0,1-.06-.15.23.23,0,0,1,.25-.21.29.29,0,0,1,.22.11,4,4,0,0,1,.44.61.31.31,0,0,1,0,.13.26.26,0,0,1-.26.25.23.23,0,0,1-.21-.14l-.06-.09a15.26,15.26,0,0,1-1.58.15.24.24,0,0,1-.24-.25.22.22,0,0,1,.21-.24H50A7.27,7.27,0,0,0,50.41,84.25Zm.74,1.51c.42,0,.56.15.56.48v1.9c0,.41-.18.54-.51.54a1.19,1.19,0,0,1-.29,0,.24.24,0,0,1-.22-.25.23.23,0,0,1,.22-.24h.2c.08,0,.09,0,.09-.1v-.43h-.74v.9c0,.13-.12.19-.25.19s-.26-.06-.26-.19V86.24c0-.33.15-.48.56-.48Zm-.55.43c-.11,0-.14,0-.14.13v.2h.74v-.2c0-.1,0-.13-.14-.13Zm.6.74h-.74v.32h.74Zm1.53-1.34c0,.11,0,.15.43.15s.42-.07.45-.32a.24.24,0,0,1,.25-.2.24.24,0,0,1,.27.22.8.8,0,0,1-.22.58,1.21,1.21,0,0,1-.79.18c-.81,0-.91-.15-.91-.52V84.36c0-.14.13-.21.26-.21s.26.07.26.21v.5a4.49,4.49,0,0,0,.79-.4.27.27,0,0,1,.14,0,.26.26,0,0,1,.26.25.27.27,0,0,1-.15.22,5.55,5.55,0,0,1-1,.48Zm0,2.41c0,.1,0,.14.43.14s.51-.07.54-.32a.26.26,0,0,1,.52,0,.8.8,0,0,1-.22.59,1.33,1.33,0,0,1-.88.19c-.81,0-.91-.15-.91-.52V86.62a.26.26,0,0,1,.52,0v.48a4.83,4.83,0,0,0,.82-.41.3.3,0,0,1,.15,0,.27.27,0,0,1,.26.27.27.27,0,0,1-.14.23,5,5,0,0,1-1.09.49Z"/><path class="cls-4" d="M56.5,87.8a.84.84,0,1,1-.84-.83A.83.83,0,0,1,56.5,87.8Zm-1.33,0a.49.49,0,1,0,.49-.49A.48.48,0,0,0,55.17,87.8Z"/><path class="cls-4" d="M45,44.09h.28a.28.28,0,0,0,.27-.28v-14a.27.27,0,0,0-.27-.28H33.58a.28.28,0,0,0-.28.28v14a.29.29,0,0,0,.28.28H45Zm-.42-14H45V43.53H42.41l2.14-2.29ZM41.12,41.74l2.66-.54-2.09,2.21Zm-5.9,1.79H33.85V30.09H44V40.6l-3.29.66a.23.23,0,0,0-.18.13.31.31,0,0,0,0,.23l.66,1.91Z"/><path class="cls-4" d="M43.24,31.72a.19.19,0,0,0,.13.06.2.2,0,0,0,.14-.06.18.18,0,0,0,0-.27l-1-1a.2.2,0,0,0-.28.28Z"/><path class="cls-4" d="M42.16,35.33V33.77a.19.19,0,0,0-.19-.19h-6.1a.19.19,0,0,0-.19.19v1.56a.2.2,0,0,0,.19.19H42A.2.2,0,0,0,42.16,35.33Zm-.39-.2h-5.7V34h5.7Z"/><polygon class="cls-4" points="35.66 37.01 35.66 37.29 42.18 37.29 42.18 36.74 35.66 36.74 35.66 37.01"/><polygon class="cls-4" points="35.66 38.05 35.66 38.32 42.18 38.32 42.18 37.77 35.66 37.77 35.66 38.05"/><polygon class="cls-4" points="42.18 38.81 35.66 38.81 35.66 39.09 35.66 39.36 42.18 39.36 42.18 38.81"/><path class="cls-4" d="M41.67,50.24H33.49c-.87,0-1.58,1.19-1.58,2.13H43.26C43.26,51.43,42.55,50.24,41.67,50.24Z"/><path class="cls-4" d="M27.22,35.64a1.45,1.45,0,0,1,1.44-1.44h3.91V33H28.66A2.65,2.65,0,0,0,26,35.64V46.92a2.66,2.66,0,0,0,2.64,2.64H46.5a2.65,2.65,0,0,0,2.64-2.64v-.36H27.22Z"/><path class="cls-4" d="M47.93,35.64v.94l1.2,0v-1A2.64,2.64,0,0,0,46.49,33h-.23v1.2h.23A1.45,1.45,0,0,1,47.93,35.64Z"/><path class="cls-4" d="M50.61,37.27h-3a1.29,1.29,0,0,0-1.28,1.28v6a1.29,1.29,0,0,0,1.28,1.28h3a1.3,1.3,0,0,0,1.28-1.28v-6A1.3,1.3,0,0,0,50.61,37.27ZM49.09,45.2a.51.51,0,0,1-.5-.5.5.5,0,0,1,.5-.49.49.49,0,0,1,.49.49A.5.5,0,0,1,49.09,45.2ZM51,43.51H47.16V38.25a.09.09,0,0,1,.08-.08H51a.09.09,0,0,1,.08.08Z"/></g></g></g></svg>