<svg xmlns="http://www.w3.org/2000/svg" viewBox="0 0 76.54 96.38"><defs><style>.cls-1{isolation:isolate;}.cls-2{mix-blend-mode:multiply;}.cls-3{fill:#005ca7;}.cls-4{fill:#fff;}</style></defs><g class="cls-1"><g id="レイヤー_2" data-name="レイヤー 2"><g id="レイヤー_1-2" data-name="レイヤー 1"><g class="cls-2"><rect class="cls-3" width="76.54" height="96.38" rx="4.9"/></g><path class="cls-4" d="M21.24,13.48a2.6,2.6,0,0,1,.1-.68.5.5,0,0,1,.5-.36.45.45,0,0,1,.5.42.6.6,0,0,1,0,.12,2.38,2.38,0,0,0-.05.45c0,.57.3.88,2,.88A11.88,11.88,0,0,0,26.72,14h.14a.48.48,0,0,1,.48.49.52.52,0,0,1-.44.51,12,12,0,0,1-2.64.28C22.09,15.31,21.24,14.7,21.24,13.48ZM24.13,9a14.92,14.92,0,0,0,1.61-.1h.08a.5.5,0,0,1,.09,1,11.25,11.25,0,0,1-1.77.1,8.91,8.91,0,0,1-1.87-.15.51.51,0,0,1,.08-1h.12A8.5,8.5,0,0,0,24.13,9Zm2.2-.62a.37.37,0,0,1,.65-.2,5.26,5.26,0,0,1,.63.84.46.46,0,0,1,.06.22.37.37,0,0,1-.37.36.38.38,0,0,1-.31-.2,5.6,5.6,0,0,0-.59-.82A.31.31,0,0,1,26.33,8.37Zm1-.63a.35.35,0,0,1,.37-.31.41.41,0,0,1,.3.12,5.35,5.35,0,0,1,.62.8.56.56,0,0,1,.08.25.36.36,0,0,1-.36.35.39.39,0,0,1-.33-.2,9,9,0,0,0-.6-.81A.32.32,0,0,1,27.28,7.74Z"/><path class="cls-4" d="M33.68,10.67c-.21.17-.42.33-.64.48a3.84,3.84,0,0,1,1.45,3c0,1.4-.46,1.86-1.3,1.86a3.37,3.37,0,0,1-.66-.06.44.44,0,0,1-.37-.44.45.45,0,0,1,.43-.45h.1a2.52,2.52,0,0,0,.48,0c.22,0,.39-.18.39-1,0-.12,0-.23,0-.34a12,12,0,0,1-3.6,1.77l-.15,0a.42.42,0,0,1-.42-.42.41.41,0,0,1,.32-.4,10.87,10.87,0,0,0,3.63-1.82,3.62,3.62,0,0,0-.19-.4A12.48,12.48,0,0,1,30.05,14a.47.47,0,0,1-.16,0,.41.41,0,0,1-.1-.81,10.64,10.64,0,0,0,2.87-1.32,3.11,3.11,0,0,0-.32-.31,11,11,0,0,1-2.19.92l-.17,0a.41.41,0,0,1-.44-.41.4.4,0,0,1,.34-.39,9.4,9.4,0,0,0,2.5-1.08H31.17a.36.36,0,0,1-.35-.39.36.36,0,0,1,.35-.39h4.47a.37.37,0,0,1,.37.39.37.37,0,0,1-.37.39H34.7a7.55,7.55,0,0,0,.52,1.24,7.16,7.16,0,0,0,1.09-.81.5.5,0,0,1,.33-.13.48.48,0,0,1,.47.45.49.49,0,0,1-.2.35,12.08,12.08,0,0,1-1.26.85,6.75,6.75,0,0,0,1.6,1.68.52.52,0,0,1,.24.43.48.48,0,0,1-.47.47.62.62,0,0,1-.39-.16,6.21,6.21,0,0,1-.8-.74,9,9,0,0,1-2-3.63ZM32.9,7.91c0-.25.24-.37.5-.37s.48.12.48.37v.53h2.25c.83,0,1.12.28,1.12.87v.58c0,.25-.24.37-.5.37s-.49-.12-.49-.37V9.46c0-.17-.07-.24-.3-.24H30.87c-.23,0-.3.07-.3.24v.46c0,.24-.24.37-.5.37s-.49-.13-.49-.37V9.31c0-.59.29-.87,1.12-.87h2.2Z"/><path class="cls-4" d="M39.55,8.06a.43.43,0,0,1,.47-.4.43.43,0,0,1,.47.4v1.1h.94a.39.39,0,0,1,.37.43.4.4,0,0,1-.37.43h-1.2v.86h.44c.69,0,1,.27,1,.91a23.35,23.35,0,0,1-.17,3c-.11.74-.49,1-1,1a2.24,2.24,0,0,1-.46-.05.46.46,0,0,1-.41-.48A.45.45,0,0,1,40,14.8h.09l.21,0c.1,0,.15-.05.17-.18a17.53,17.53,0,0,0,.19-2.74c0-.16,0-.22-.21-.22h-.28a9.39,9.39,0,0,1-1,3.75.49.49,0,0,1-.45.29.44.44,0,0,1-.46-.43A.52.52,0,0,1,38.4,15a9,9,0,0,0,.9-4.2V10h-.59a.4.4,0,0,1-.36-.43.39.39,0,0,1,.36-.43h.84Zm3.79,3.46a3.35,3.35,0,0,1-.27.45.51.51,0,0,1-.41.26.42.42,0,0,1-.43-.39.51.51,0,0,1,.09-.25,6.11,6.11,0,0,0,.7-1.4.44.44,0,0,1,.42-.3.39.39,0,0,1,.42.37.5.5,0,0,1,0,.16c0,.09-.07.19-.1.29h2.21c.24,0,.34.2.34.41s-.1.4-.34.4H44.82v.17a5.9,5.9,0,0,1,0,.72h1.59a.36.36,0,0,1,.35.4.37.37,0,0,1-.35.41H44.91a3.87,3.87,0,0,0,1.54,1.7.52.52,0,0,1,.31.45.44.44,0,0,1-.45.43.64.64,0,0,1-.3-.09,4.52,4.52,0,0,1-1.63-1.82,4,4,0,0,1-2,1.94.65.65,0,0,1-.25.06.44.44,0,0,1-.45-.43A.52.52,0,0,1,42,15a3,3,0,0,0,1.65-1.79H42.34a.37.37,0,0,1-.33-.41c0-.21.11-.4.33-.4h1.5a4.81,4.81,0,0,0,0-.75v-.14ZM46.28,8.8a.44.44,0,0,1,0,.87H43.07a7.91,7.91,0,0,1-.44.68.48.48,0,0,1-.41.22.45.45,0,0,1-.46-.42.56.56,0,0,1,.13-.33A6.87,6.87,0,0,0,42.8,8a.43.43,0,0,1,.44-.31.47.47,0,0,1,.5.42.36.36,0,0,1,0,.14,2.68,2.68,0,0,1-.22.57Z"/><path class="cls-4" d="M47.76,12.47a3.88,3.88,0,0,1,4.18-3.74,3.14,3.14,0,0,1,3.47,3.17,3.37,3.37,0,0,1-2.52,3.32.51.51,0,0,1-.71-.47.53.53,0,0,1,.38-.5,2.31,2.31,0,0,0,1.79-2.35,2.2,2.2,0,0,0-2.17-2.25,9,9,0,0,1-1,3.83,1.81,1.81,0,0,1-1.71,1.13C48.53,14.61,47.76,13.87,47.76,12.47Zm1,0c0,.83.32,1.13.65,1.13s.52-.14.78-.6a8.14,8.14,0,0,0,.9-3.29A2.87,2.87,0,0,0,48.8,12.47Z"/><path class="cls-4" d="M23.78,18c.71,0,1.11.33,1.11.76a1.06,1.06,0,0,1-.43.78,9.38,9.38,0,0,1-1.32.95.43.43,0,0,1,.1.27v.1h2.17c.63,0,1,.33,1,.73a1,1,0,0,1-.27.64,4.63,4.63,0,0,1-1.24,1,.54.54,0,0,1-.3.1.5.5,0,0,1-.5-.48.5.5,0,0,1,.27-.42,3.75,3.75,0,0,0,.73-.55.21.21,0,0,0,.05-.1s0-.06-.12-.06H22.87v3c0,.81-.37,1.17-1.22,1.17a2.74,2.74,0,0,1-.72-.08.49.49,0,0,1,.09-1h.11a2,2,0,0,0,.48,0c.2,0,.27-.08.27-.3V21.8H18.63c-.26,0-.38-.22-.38-.46a.4.4,0,0,1,.38-.45h3.51a10,10,0,0,0-1-.78.48.48,0,0,1-.25-.4.47.47,0,0,1,.48-.44.54.54,0,0,1,.26.07,9.14,9.14,0,0,1,.83.55,6.77,6.77,0,0,0,1.08-.76c.06-.05.08-.09.08-.12s-.05-.06-.16-.06H19.71a.43.43,0,0,1-.4-.46.42.42,0,0,1,.4-.46Z"/><path class="cls-4" d="M28.41,22.39l-1.07.06a.43.43,0,0,1,0-.85h.45c.2-.26.39-.54.58-.82a14.07,14.07,0,0,0-1.06-1.1.4.4,0,0,1-.14-.3.43.43,0,0,1,.72-.3l0,0c.19-.34.39-.74.56-1.13a.44.44,0,0,1,.42-.27.43.43,0,0,1,.46.39.4.4,0,0,1,0,.18,12.67,12.67,0,0,1-.79,1.45,3,3,0,0,1,.28.33c.19-.33.37-.63.52-.91a.39.39,0,0,1,.37-.24.46.46,0,0,1,.47.42.38.38,0,0,1-.06.21,22.11,22.11,0,0,1-1.3,2l.78-.07a2.39,2.39,0,0,1-.13-.21.41.41,0,0,1-.05-.19.38.38,0,0,1,.39-.34.43.43,0,0,1,.35.19,6,6,0,0,1,.62,1.19.39.39,0,0,1,0,.14.42.42,0,0,1-.45.39A.36.36,0,0,1,30,22.4a.75.75,0,0,0-.07-.18l-.6.07v3.38c0,.24-.23.36-.46.36s-.46-.12-.46-.36Zm-.58.47a.37.37,0,0,1,.4.36v.05a6.16,6.16,0,0,1-.42,1.62.41.41,0,0,1-.39.26.39.39,0,0,1-.42-.36.45.45,0,0,1,.05-.18,6,6,0,0,0,.4-1.45A.37.37,0,0,1,27.83,22.86Zm2.77,1.36a.38.38,0,0,1,0,.1.39.39,0,0,1-.41.38.37.37,0,0,1-.38-.3,8.77,8.77,0,0,0-.29-1.2.27.27,0,0,1,0-.12.35.35,0,0,1,.38-.32.36.36,0,0,1,.36.25A8.38,8.38,0,0,1,30.6,24.22Zm3.23-4.78c.8,0,1.11.33,1.11,1a23.26,23.26,0,0,1-.34,4.2c-.17.86-.59,1.17-1.3,1.17a3,3,0,0,1-.67-.07.5.5,0,0,1-.44-.49.5.5,0,0,1,.5-.51h.09a2.07,2.07,0,0,0,.45.06c.24,0,.35-.08.41-.4A22.1,22.1,0,0,0,34,20.59c0-.22-.08-.28-.33-.28H31.87a7.09,7.09,0,0,1-.45.75.52.52,0,0,1-.45.27.47.47,0,0,1-.48-.45.51.51,0,0,1,.1-.3,8.4,8.4,0,0,0,1.1-2.53.45.45,0,0,1,.46-.36.45.45,0,0,1,.51.57c-.11.4-.24.79-.39,1.18Zm-.77,3a.49.49,0,0,1,.09.29.51.51,0,0,1-.5.5.48.48,0,0,1-.42-.26,6,6,0,0,0-.61-.86.46.46,0,0,1-.11-.29.47.47,0,0,1,.48-.44.53.53,0,0,1,.39.17A5.37,5.37,0,0,1,33.06,22.49Z"/><path class="cls-4" d="M38.55,21.8a.92.92,0,1,1-.92-.92A.92.92,0,0,1,38.55,21.8Z"/><path class="cls-4" d="M43.72,18.49a.34.34,0,0,1,.34.37.35.35,0,0,1-.34.37H43c.06.11.11.21.17.3a.65.65,0,0,1,0,.18.42.42,0,0,1-.45.37.41.41,0,0,1-.39-.26,4.11,4.11,0,0,0-.3-.59h-.41a7.57,7.57,0,0,1-.57.74.57.57,0,0,1-.4.19.44.44,0,0,1-.45-.42.45.45,0,0,1,.15-.31,6.45,6.45,0,0,0,1-1.55.46.46,0,0,1,.44-.27.42.42,0,0,1,.45.38.33.33,0,0,1,0,.18c0,.11-.1.21-.15.32Zm4.3,0a.33.33,0,0,1,.33.37.34.34,0,0,1-.33.37H46.73l.15.27a.41.41,0,0,1,0,.18.43.43,0,0,1-.44.38.44.44,0,0,1-.39-.25,5,5,0,0,0-.33-.58H45.2l-.22.29a.54.54,0,0,1-.38.18h0a.32.32,0,0,1,.22.31v.32h2.31c.83,0,1.12.26,1.12.84v.54c0,.25-.24.38-.49.38s-.49-.13-.49-.38V21.3c0-.17-.07-.24-.3-.24H41.71c-.22,0-.3.08-.3.25v.49c0,.25-.24.37-.48.37s-.5-.12-.5-.37v-.63c0-.58.29-.84,1.12-.84h2.28V20c0-.25.24-.37.47-.37h.09a.4.4,0,0,1-.14-.61A5.82,5.82,0,0,0,45,17.85a.4.4,0,0,1,.39-.26.44.44,0,0,1,.47.4.5.5,0,0,1,0,.16c-.06.11-.1.23-.17.34Zm-5.15,4.92v.48h3.2c.74,0,1,.23,1,.76v.47c0,.53-.27.76-1,.76H43c-.77,0-1-.3-1-.9V22.31c0-.57.26-.82,1-.82h2.36c.74,0,1,.19,1,.72v.48a.62.62,0,0,1-.32.61,1.62,1.62,0,0,1-.68.11Zm2.34-.69c.22,0,.26,0,.26-.18v-.19c0-.14,0-.18-.26-.18h-2c-.23,0-.3,0-.3.26v.29Zm-2.34,1.87v.35c0,.18.05.24.3.24H45.9c.21,0,.26-.05.26-.18v-.23c0-.18-.11-.18-.26-.18Z"/><path class="cls-4" d="M50.51,21.51H50a.43.43,0,0,1,0-.85h.56V19.17h-.69c-.23,0-.35-.22-.35-.44a.38.38,0,0,1,.35-.42h2.29a.38.38,0,0,1,.35.42c0,.22-.12.44-.35.44h-.65v1.49H52a.38.38,0,0,1,.35.42c0,.22-.11.43-.35.43h-.5v1.72l.47-.19.19,0a.43.43,0,0,1,.16.82,13.35,13.35,0,0,1-2.33.79l-.12,0a.45.45,0,0,1-.44-.47.42.42,0,0,1,.35-.44c.24-.05.5-.13.77-.21Zm3.39.72c-.79,0-1.11-.31-1.11-1V19.05c0-.65.32-1,1.11-1h2.31c.78,0,1.12.32,1.12,1v2.22c0,.65-.34,1-1.12,1h-.69v.84H56.9c.23,0,.35.21.35.43a.38.38,0,0,1-.35.42H55.52v1h1.95c.23,0,.34.21.34.42s-.11.43-.34.43H52.16c-.22,0-.33-.22-.33-.43s.11-.42.33-.42h2.39v-1h-1.4c-.22,0-.33-.22-.33-.42s.11-.43.33-.43h1.4v-.84Zm.68-2.46V18.9H54c-.23,0-.29.05-.29.24v.63Zm0,1.65v-.86h-.87v.63c0,.21.1.23.29.23Zm.9-1.65h.93v-.63c0-.19,0-.24-.29-.24h-.64Zm0,.79v.86h.64c.24,0,.29,0,.29-.23v-.63Z"/><path class="cls-4" d="M14.34,56.41c.74,0,1,.26,1,.73a2,2,0,0,1,0,.4,5.94,5.94,0,0,1-3.26,3.89.56.56,0,0,1-.23.06.41.41,0,0,1-.16-.79,5.19,5.19,0,0,0,2.78-3.18.36.36,0,0,0,0-.14c0-.13-.09-.18-.29-.18l-3.38,0a.4.4,0,0,1-.4-.41.37.37,0,0,1,.37-.39Z"/><path class="cls-4" d="M20.25,57.29c.5,0,.76.25.76.57a.81.81,0,0,1-.14.43,4.13,4.13,0,0,1-.91,1,.38.38,0,0,1-.24.1.37.37,0,0,1-.37-.35.36.36,0,0,1,.16-.28,3.14,3.14,0,0,0,.6-.61.22.22,0,0,0,0-.1S20.1,58,20,58L16.8,58a.35.35,0,0,1,0-.69Zm-1.94,1.37a.32.32,0,0,1,.36-.31c.19,0,.37.1.37.31v.25a3.09,3.09,0,0,1-1.54,2.72.37.37,0,0,1-.21.07.36.36,0,0,1-.36-.35.38.38,0,0,1,.21-.33,2.29,2.29,0,0,0,1.17-2.11Z"/><path class="cls-4" d="M25.2,60.8a.46.46,0,0,1,.27.41.39.39,0,0,1-.39.4.5.5,0,0,1-.23,0,17.91,17.91,0,0,0-2.64-1.05.39.39,0,0,1-.29-.38.4.4,0,0,1,.4-.4l.14,0A14.25,14.25,0,0,1,25.2,60.8Zm-.39-2.26a.4.4,0,0,1-.15.78.55.55,0,0,1-.23-.07,12.88,12.88,0,0,0-1.63-.68.35.35,0,0,1-.26-.35.39.39,0,0,1,.39-.4l.15,0A11,11,0,0,1,24.81,58.54Zm.52-1.84a.45.45,0,0,1,.28.41.39.39,0,0,1-.38.41.54.54,0,0,1-.19-.05,15.82,15.82,0,0,0-2.17-.82.36.36,0,0,1-.28-.36.4.4,0,0,1,.4-.41h.11A13.18,13.18,0,0,1,25.33,56.7Z"/><path class="cls-4" d="M28,59.07a.42.42,0,0,1-.84,0V56.32a.42.42,0,0,1,.84,0Zm1.85-2.87a.38.38,0,0,1,.42-.36.39.39,0,0,1,.42.36v2.08a3.52,3.52,0,0,1-2.11,3.49.63.63,0,0,1-.21,0,.42.42,0,0,1-.42-.41.41.41,0,0,1,.26-.36,2.77,2.77,0,0,0,1.64-2.83Z"/><path class="cls-4" d="M36.87,58.31c.23,0,.34.19.34.4a.36.36,0,0,1-.34.4h-4.6a.36.36,0,0,1-.34-.4c0-.21.11-.4.34-.4Z"/><path class="cls-4" d="M40.37,55.83c.49,0,.76.22.76.54a.9.9,0,0,1-.18.49,7,7,0,0,1-2.29,2,.53.53,0,0,1-.2,0,.32.32,0,0,1-.31-.32.33.33,0,0,1,.21-.31,6.87,6.87,0,0,0,1-.68,3,3,0,0,0-.32-.28.31.31,0,0,1-.13-.25.32.32,0,0,1,.33-.31.35.35,0,0,1,.21.07,2.64,2.64,0,0,1,.39.33,3.88,3.88,0,0,0,.43-.51.16.16,0,0,0,0-.1s0-.06-.14-.06h-1.1a.28.28,0,0,1-.27-.31.28.28,0,0,1,.27-.31Zm0,5.3a2.66,2.66,0,0,0-.21-.33.3.3,0,0,1-.07-.19.35.35,0,0,1,.37-.31.37.37,0,0,1,.29.14,3.09,3.09,0,0,1,.26.37.33.33,0,0,1,.05.18.32.32,0,0,1,0,.14h.71a6.59,6.59,0,0,0,.33-.65.34.34,0,0,1,.32-.19.36.36,0,0,1,.38.32.34.34,0,0,1,0,.16c-.07.11-.13.24-.21.36h1.72a.31.31,0,0,1,0,.62H38.66a.31.31,0,0,1,0-.62Zm0-.9c-.58,0-.77-.19-.77-.58v-.46c0-.39.19-.58.77-.58h2.24c.59,0,.77.19.77.58v.46c0,.51-.34.58-.77.58Zm2.11-.54c.15,0,.19,0,.19-.14v-.26c0-.1,0-.14-.19-.14h-2c-.15,0-.19,0-.19.14v.26c0,.09,0,.14.19.14Zm-1.88-1.5c-.17,0-.25-.16-.25-.31s.08-.31.25-.31h1.85a.31.31,0,0,1,0,.62ZM43.1,57a3.79,3.79,0,0,0,.53-.53.35.35,0,0,1,.26-.13.35.35,0,0,1,.35.33.31.31,0,0,1-.08.21,4.11,4.11,0,0,1-.57.53,5.25,5.25,0,0,0,1,.6.38.38,0,0,1,.25.34.37.37,0,0,1-.55.31,6.8,6.8,0,0,1-2.78-2.69.37.37,0,0,1,0-.16.33.33,0,0,1,.35-.31.37.37,0,0,1,.33.21c.09.16.19.33.29.48a3.25,3.25,0,0,0,.41-.42.35.35,0,0,1,.26-.13.36.36,0,0,1,.36.33.32.32,0,0,1-.09.21,4.27,4.27,0,0,1-.54.5Z"/><path class="cls-4" d="M47.57,57.41a.3.3,0,0,1,0,.6h-.38v.48h.62a.28.28,0,0,1,.27.31.29.29,0,0,1-.27.32h-.62v1.51l.31-.09h.1a.31.31,0,0,1,.3.33.29.29,0,0,1-.21.29,10.71,10.71,0,0,1-1.84.45H45.8a.33.33,0,0,1-.33-.34.3.3,0,0,1,.27-.32c.25,0,.5-.08.76-.14V59.12h-.82c-.16,0-.25-.16-.25-.32a.28.28,0,0,1,.25-.31h.82V58h-.39a.27.27,0,0,1-.26-.3.4.4,0,0,1,0-.15.31.31,0,0,1-.18,0,.35.35,0,0,1-.34-.34.36.36,0,0,1,.15-.29,5.55,5.55,0,0,0,1.11-1.32.33.33,0,0,1,.3-.17.35.35,0,0,1,.37.32.33.33,0,0,1,0,.16,5,5,0,0,1,.78.74.39.39,0,0,1,.11.27.34.34,0,0,1-.34.33.43.43,0,0,1-.31-.16,5,5,0,0,0-.59-.64,5.85,5.85,0,0,1-.82.9Zm-1.16,2.86a.17.17,0,0,1,0,.07.29.29,0,0,1-.31.27.25.25,0,0,1-.26-.19,3.88,3.88,0,0,0-.23-.66.3.3,0,0,1,0-.12.3.3,0,0,1,.57-.08A3.32,3.32,0,0,1,46.41,60.27Zm1.3-1a.26.26,0,0,1,.28.24.2.2,0,0,1,0,.07,2.92,2.92,0,0,1-.19.57.28.28,0,0,1-.26.2.26.26,0,0,1-.27-.24.36.36,0,0,1,0-.1,3.36,3.36,0,0,0,.18-.56A.24.24,0,0,1,47.71,59.29Zm.62-.89a.28.28,0,0,1-.27-.31.29.29,0,0,1,.27-.32h2v-.42H48.9a.31.31,0,0,1,0-.62h1.46V56.5c0-.15,0-.17-.19-.17H48.74a.32.32,0,0,1,0-.64h1.53c.6,0,.8.27.8.72v1.36h.69a.29.29,0,0,1,.28.32.28.28,0,0,1-.28.31H50.35a4.57,4.57,0,0,0,.31.8,4.79,4.79,0,0,0,.54-.49.43.43,0,0,1,.28-.12.34.34,0,0,1,.35.33.38.38,0,0,1-.14.28,8.3,8.3,0,0,1-.71.55,4.65,4.65,0,0,0,.85.92A.45.45,0,0,1,52,61a.37.37,0,0,1-.36.36.39.39,0,0,1-.26-.1,5,5,0,0,1-1.12-1.52l0,1v.36c0,.52-.27.72-.77.72a2.11,2.11,0,0,1-.47,0,.34.34,0,0,1-.28-.34.33.33,0,0,1,.33-.35h.09a1.14,1.14,0,0,0,.25,0c.1,0,.15,0,.15-.16v-.73a.38.38,0,0,1-.1.13,4.87,4.87,0,0,1-1,.72.27.27,0,0,1-.16.05.37.37,0,0,1-.35-.36.31.31,0,0,1,.17-.27,5.05,5.05,0,0,0,.93-.66.31.31,0,0,1,.2-.07.33.33,0,0,1,.31.2V58.4Zm1,.71a.42.42,0,0,1,.1.25.35.35,0,0,1-.35.33.32.32,0,0,1-.26-.13,4,4,0,0,0-.33-.39.31.31,0,0,1-.09-.23.32.32,0,0,1,.33-.3.34.34,0,0,1,.24.09A2.16,2.16,0,0,1,49.28,59.11Z"/><path class="cls-4" d="M55.11,59.72a.55.55,0,0,1-.37.12.82.82,0,0,1-.85-.9.76.76,0,0,1,.77-.83,1.36,1.36,0,0,1,.3,0v-.4l-1.73.1H53a.27.27,0,0,1-.26-.29A.26.26,0,0,1,53,57.3l2-.1v-.61a.25.25,0,0,1,.28-.24.25.25,0,0,1,.27.24v.59l1.47,0a.27.27,0,0,1,0,.54l-1.48,0a8.44,8.44,0,0,0,0,.87,1.37,1.37,0,0,1,.16.66,1.74,1.74,0,0,1-1.12,1.67l-.14,0a.29.29,0,0,1-.28-.28.28.28,0,0,1,.19-.26,1.38,1.38,0,0,0,.77-.7ZM54.42,59a.37.37,0,0,0,.34.39c.17,0,.3-.12.3-.35a.37.37,0,0,0-.35-.4C54.54,58.6,54.42,58.74,54.42,59Z"/><path class="cls-4" d="M59.36,58.35a1.8,1.8,0,0,1,.63-.12c.78,0,1.29.42,1.29,1.12a1.43,1.43,0,0,1-1.6,1.43c-.69,0-1.13-.35-1.13-.79a.62.62,0,0,1,.7-.64,1,1,0,0,1,1,.82.86.86,0,0,0,.49-.82.67.67,0,0,0-.76-.64,2.61,2.61,0,0,0-1.62.65.31.31,0,0,1-.21.08.28.28,0,0,1-.28-.27.31.31,0,0,1,.13-.24,11.25,11.25,0,0,0,1.69-1.69c-.24,0-.57.07-.82.09l-.22,0a.26.26,0,0,1-.25-.27.25.25,0,0,1,.25-.26c.4,0,.94-.09,1.42-.16h.07a.33.33,0,0,1,.34.32.4.4,0,0,1-.09.23,10.07,10.07,0,0,1-1,1.14Zm.33,1.93c-.09-.32-.24-.49-.45-.49a.18.18,0,0,0-.18.2c0,.16.19.29.59.29Z"/><path class="cls-4" d="M63.29,56.73a.27.27,0,0,1,.29-.27.27.27,0,0,1,.29.27A8.81,8.81,0,0,0,64,58.2a6.8,6.8,0,0,1,1-.39l.09,0a.28.28,0,0,1,.26.29.25.25,0,0,1-.19.24,6.29,6.29,0,0,0-1.32.58c-.43.28-.58.56-.58.81s.21.47,1,.47a5.09,5.09,0,0,0,1-.09h.07a.26.26,0,0,1,.27.27.27.27,0,0,1-.23.28,5.79,5.79,0,0,1-1.15.1c-1,0-1.58-.32-1.58-1a1.49,1.49,0,0,1,.82-1.24A8,8,0,0,1,63.29,56.73Z"/><path class="cls-4" d="M9.37,62.21v-.35H31.42v.35Z"/><path class="cls-4" d="M31.42,62.21v-.35H38v.35Z"/><path class="cls-4" d="M38,62.21v-.35H52.46v.35Z"/><path class="cls-4" d="M14.08,69.6a1.5,1.5,0,0,1,.05-.37.28.28,0,0,1,.28-.2.25.25,0,0,1,.28.23s0,0,0,.07a1,1,0,0,0,0,.25c0,.31.17.48,1.11.48a7.19,7.19,0,0,0,1.36-.14h.08a.26.26,0,0,1,.27.27.3.3,0,0,1-.25.29,6.55,6.55,0,0,1-1.46.15C14.55,70.62,14.08,70.28,14.08,69.6Zm1.61-2.49a7.64,7.64,0,0,0,.89-.06h.05a.27.27,0,0,1,.27.28.27.27,0,0,1-.23.27,6.22,6.22,0,0,1-1,.06,4.52,4.52,0,0,1-1-.09.28.28,0,0,1,0-.56h.06A5.33,5.33,0,0,0,15.69,67.11Zm1.22-.35a.2.2,0,0,1,.21-.18.21.21,0,0,1,.15.07,2.73,2.73,0,0,1,.35.47.27.27,0,0,1,0,.12.21.21,0,0,1-.2.2.2.2,0,0,1-.17-.11,3.66,3.66,0,0,0-.33-.46A.15.15,0,0,1,16.91,66.76Zm.53-.35a.19.19,0,0,1,.2-.17.23.23,0,0,1,.17.07,2.46,2.46,0,0,1,.34.44.3.3,0,0,1,.05.14.2.2,0,0,1-.2.19.22.22,0,0,1-.19-.11,5.22,5.22,0,0,0-.33-.45A.15.15,0,0,1,17.44,66.41Z"/><path class="cls-4" d="M21.06,68a3,3,0,0,1-.35.27A2.16,2.16,0,0,1,21.52,70c0,.77-.26,1-.73,1a1.45,1.45,0,0,1-.37,0,.23.23,0,0,1-.2-.24.24.24,0,0,1,.24-.25h.05l.27,0c.12,0,.21-.1.21-.54v-.18a6.71,6.71,0,0,1-2,1H18.9a.23.23,0,0,1-.23-.23.23.23,0,0,1,.17-.23,6,6,0,0,0,2-1l-.12-.22A6.42,6.42,0,0,1,19,69.9l-.08,0a.23.23,0,0,1-.23-.24.22.22,0,0,1,.17-.21,6,6,0,0,0,1.59-.74,1.37,1.37,0,0,0-.17-.17,5.85,5.85,0,0,1-1.22.51l-.1,0a.23.23,0,0,1-.24-.23.24.24,0,0,1,.19-.22,5.13,5.13,0,0,0,1.39-.6h-.67a.2.2,0,0,1-.2-.21.2.2,0,0,1,.2-.22h2.48a.2.2,0,0,1,.21.22.2.2,0,0,1-.21.21h-.52a3.86,3.86,0,0,0,.29.69,3.84,3.84,0,0,0,.61-.45.26.26,0,0,1,.18-.07.24.24,0,0,1,.15.44,6.67,6.67,0,0,1-.7.48,3.76,3.76,0,0,0,.89.93.31.31,0,0,1,.13.24.26.26,0,0,1-.26.26.37.37,0,0,1-.22-.09,4.27,4.27,0,0,1-.44-.41,5,5,0,0,1-1.09-2Zm-.43-1.53c0-.14.14-.21.28-.21s.27.07.27.21v.29h1.25c.46,0,.62.16.62.48v.33c0,.14-.14.2-.28.2s-.27-.06-.27-.2v-.24c0-.1,0-.14-.17-.14H19.5c-.13,0-.17,0-.17.14v.26c0,.13-.13.2-.27.2s-.28-.07-.28-.2v-.35c0-.32.16-.48.62-.48h1.23Z"/><path class="cls-4" d="M24.39,66.59a.26.26,0,0,1,.52,0v.61h.53a.24.24,0,0,1,0,.48h-.67v.48H25c.39,0,.54.15.54.51a13.27,13.27,0,0,1-.09,1.68c-.06.41-.27.55-.55.55l-.26,0a.27.27,0,0,1-.22-.27.24.24,0,0,1,.23-.27h.17c.06,0,.09,0,.1-.1a10.72,10.72,0,0,0,.1-1.52c0-.09,0-.12-.11-.12h-.16a5.34,5.34,0,0,1-.54,2.08.28.28,0,0,1-.26.16.24.24,0,0,1-.25-.24.31.31,0,0,1,0-.15,4.94,4.94,0,0,0,.5-2.33v-.45h-.32a.24.24,0,0,1,0-.48h.46Zm2.11,1.93-.15.25a.28.28,0,0,1-.23.14.23.23,0,0,1-.24-.22.3.3,0,0,1,.05-.14,3.16,3.16,0,0,0,.39-.78.24.24,0,0,1,.23-.16.22.22,0,0,1,.24.2.15.15,0,0,1,0,.09,1.77,1.77,0,0,1-.06.17H28a.2.2,0,0,1,.19.22.21.21,0,0,1-.19.23h-.63v.09a2.75,2.75,0,0,1,0,.4h.89a.2.2,0,0,1,.19.22.21.21,0,0,1-.19.23h-.82a2.19,2.19,0,0,0,.86.94.3.3,0,0,1,.17.25.25.25,0,0,1-.25.24.27.27,0,0,1-.16,0,2.42,2.42,0,0,1-.91-1A2.29,2.29,0,0,1,26,70.91l-.14,0a.25.25,0,0,1-.25-.24.29.29,0,0,1,.18-.25,1.64,1.64,0,0,0,.92-1h-.74c-.12,0-.18-.12-.18-.23a.2.2,0,0,1,.18-.22h.84a3,3,0,0,0,0-.42v-.07ZM28.14,67a.24.24,0,0,1,0,.48H26.35c-.08.13-.16.27-.25.39a.28.28,0,0,1-.22.12.25.25,0,0,1-.26-.24.27.27,0,0,1,.07-.18,3.67,3.67,0,0,0,.51-1,.23.23,0,0,1,.24-.17.26.26,0,0,1,.28.24.17.17,0,0,1,0,.07,1.39,1.39,0,0,1-.12.32Z"/><path class="cls-4" d="M29,69A2.16,2.16,0,0,1,31.35,67a1.75,1.75,0,0,1,1.93,1.77,1.87,1.87,0,0,1-1.4,1.84.23.23,0,0,1-.11,0,.28.28,0,0,1-.28-.28A.29.29,0,0,1,31.7,70a1.27,1.27,0,0,0,1-1.3,1.23,1.23,0,0,0-1.2-1.26,5,5,0,0,1-.57,2.13,1,1,0,0,1-1,.63C29.45,70.23,29,69.82,29,69Zm.57,0c0,.46.18.63.36.63s.29-.08.44-.33a4.63,4.63,0,0,0,.5-1.83A1.58,1.58,0,0,0,29.6,69Z"/><path class="cls-4" d="M37,66.57c.4,0,.62.19.62.42a.63.63,0,0,1-.24.44,4.76,4.76,0,0,1-.74.53.24.24,0,0,1,.06.15v.06h1.21c.35,0,.54.18.54.4a.59.59,0,0,1-.15.36,2.63,2.63,0,0,1-.69.58.28.28,0,0,1-.17,0,.27.27,0,0,1-.27-.26.26.26,0,0,1,.15-.23,2.32,2.32,0,0,0,.4-.31.15.15,0,0,0,0-.06s0,0-.07,0H36.53v1.65c0,.44-.21.64-.68.64a1.7,1.7,0,0,1-.4,0,.27.27,0,0,1,0-.53h.06a.88.88,0,0,0,.26,0c.12,0,.16,0,.16-.17V68.67H34.17a.25.25,0,0,1,0-.5h1.95a4.89,4.89,0,0,0-.57-.44.25.25,0,0,1-.14-.22.26.26,0,0,1,.26-.25.28.28,0,0,1,.15,0,5.31,5.31,0,0,1,.46.31,4.35,4.35,0,0,0,.6-.43.12.12,0,0,0,0-.06s0,0-.09,0H34.76a.24.24,0,0,1-.22-.25.24.24,0,0,1,.22-.26Z"/><path class="cls-4" d="M39.87,69l-.6,0c-.14,0-.21-.11-.21-.23s.06-.24.2-.24h.25c.11-.14.22-.3.32-.45-.19-.22-.4-.45-.58-.62a.21.21,0,0,1-.08-.16.24.24,0,0,1,.24-.23.27.27,0,0,1,.16.06h0c.11-.19.22-.41.32-.63a.26.26,0,0,1,.49.07.44.44,0,0,1,0,.1,6.35,6.35,0,0,1-.44.81l.16.18c.1-.18.2-.35.28-.51a.24.24,0,0,1,.21-.13.25.25,0,0,1,.26.23.27.27,0,0,1,0,.12,10.7,10.7,0,0,1-.73,1.12l.44,0-.07-.11a.23.23,0,0,1,0-.11.21.21,0,0,1,.21-.19.23.23,0,0,1,.2.11,2.92,2.92,0,0,1,.34.66.21.21,0,0,1-.23.29.2.2,0,0,1-.19-.13.42.42,0,0,0,0-.1l-.33,0v1.88c0,.13-.13.2-.26.2a.23.23,0,0,1-.25-.2Zm-.32.26a.21.21,0,0,1,.22.2v0a3.47,3.47,0,0,1-.23.9.24.24,0,0,1-.22.14.21.21,0,0,1-.23-.2.44.44,0,0,1,0-.1,3.49,3.49,0,0,0,.23-.8A.2.2,0,0,1,39.55,69.26Zm1.53.76a.09.09,0,0,1,0,0,.22.22,0,0,1-.23.21.2.2,0,0,1-.21-.16,4.38,4.38,0,0,0-.16-.67.19.19,0,0,1,.2-.25.2.2,0,0,1,.2.14A4,4,0,0,1,41.08,70Zm1.8-2.67c.45,0,.62.19.62.58a13.06,13.06,0,0,1-.19,2.33c-.09.48-.33.65-.73.65a1.55,1.55,0,0,1-.37,0A.27.27,0,0,1,42,70.6a.27.27,0,0,1,.27-.28h.06l.25,0c.13,0,.19,0,.23-.22A12.3,12.3,0,0,0,43,68c0-.12,0-.16-.18-.16h-1a4.23,4.23,0,0,1-.25.42.29.29,0,0,1-.25.15.27.27,0,0,1-.27-.25.29.29,0,0,1,.06-.17,4.5,4.5,0,0,0,.61-1.41.25.25,0,0,1,.26-.2.28.28,0,0,1,.29.25.15.15,0,0,1,0,.07,5,5,0,0,1-.22.65Zm-.43,1.7a.28.28,0,0,1-.23.44.27.27,0,0,1-.23-.14,3.43,3.43,0,0,0-.34-.48.27.27,0,0,1-.06-.16.26.26,0,0,1,.27-.24.3.3,0,0,1,.22.09A3.5,3.5,0,0,1,42.45,69.05Z"/><path class="cls-4" d="M46.07,67.37h0a4.05,4.05,0,0,0,.52,0h0a.24.24,0,0,1,.24.27.25.25,0,0,1-.22.26l-.56,0H46c0,.24-.07.47-.1.7H46a5,5,0,0,0,.79-.06h0a.26.26,0,0,1,.24.27.25.25,0,0,1-.21.26,4.79,4.79,0,0,1-.88.08H45.8c0,.18,0,.32,0,.44,0,.54.23.72.67.72s.85-.19.85-.69a1.68,1.68,0,0,0-.06-.37.17.17,0,0,1,0-.07.26.26,0,0,1,.28-.24.3.3,0,0,1,.3.21,1.51,1.51,0,0,1,.07.46c0,.86-.58,1.27-1.42,1.27a1.12,1.12,0,0,1-1.25-1.25,5.08,5.08,0,0,1,0-.51,3,3,0,0,1-.6-.1.26.26,0,0,1-.21-.27.25.25,0,0,1,.25-.27h.09a3.64,3.64,0,0,0,.53.09c0-.23.07-.46.11-.7a3.71,3.71,0,0,1-.53-.08.25.25,0,0,1-.21-.25.26.26,0,0,1,.25-.27H45a3.79,3.79,0,0,0,.52.08l.12-.72a.28.28,0,0,1,.29-.21.25.25,0,0,1,.28.24.11.11,0,0,1,0,0Z"/><path class="cls-4" d="M52.29,70.26c0,.51-.22.72-.71.72a1.9,1.9,0,0,1-.41,0,.28.28,0,0,1-.24-.28.26.26,0,0,1,.27-.27h.06a1.45,1.45,0,0,0,.28,0c.13,0,.19-.05.19-.22v-3h-3a.26.26,0,0,1,0-.52h4.2a.26.26,0,0,1,0,.52h-.6Zm-2.51-.63c-.48,0-.66-.17-.66-.53v-.85c0-.37.18-.54.66-.54h.59c.47,0,.66.17.66.54v.85c0,.43-.27.53-.66.53Zm.5-.46c.18,0,.22,0,.22-.19v-.62c0-.13,0-.18-.22-.18h-.41c-.18,0-.22,0-.22.18V69c0,.16.07.19.22.19Z"/><path class="cls-4" d="M54.35,66.49a.27.27,0,0,1,.25-.16c.14,0,.29.09.29.23a.29.29,0,0,1,0,.09,4.92,4.92,0,0,1-.29.61l.52,0L55,67.13A.24.24,0,0,1,55,67a.23.23,0,0,1,.24-.21.26.26,0,0,1,.22.11,3,3,0,0,1,.44.61.23.23,0,0,1,0,.14.25.25,0,0,1-.26.24.24.24,0,0,1-.22-.14l0-.09a12.85,12.85,0,0,1-1.59.15.23.23,0,0,1-.23-.25.21.21,0,0,1,.21-.24H54A7.17,7.17,0,0,0,54.35,66.49ZM55.1,68c.41,0,.56.15.56.48v1.9c0,.41-.19.54-.52.54a1.23,1.23,0,0,1-.29,0,.24.24,0,0,1-.22-.25.23.23,0,0,1,.23-.24h.2c.07,0,.09,0,.09-.1V69.9h-.74v.9c0,.13-.13.19-.26.19s-.25-.06-.25-.19V68.48c0-.33.14-.48.56-.48Zm-.55.43c-.11,0-.14,0-.14.13v.2h.74v-.2c0-.1,0-.13-.15-.13Zm.6.74h-.74v.32h.74Zm1.52-1.34c0,.11,0,.15.44.15s.42-.06.45-.31a.23.23,0,0,1,.25-.21.24.24,0,0,1,.26.23.79.79,0,0,1-.21.57,1.24,1.24,0,0,1-.79.18c-.82,0-.92-.15-.92-.52V66.6c0-.14.13-.21.26-.21s.26.07.26.21v.5a4.27,4.27,0,0,0,.8-.4.23.23,0,0,1,.14,0,.25.25,0,0,1,.25.25.28.28,0,0,1-.14.22,5.65,5.65,0,0,1-1,.48Zm0,2.41c0,.1,0,.14.44.14s.51-.07.53-.32a.25.25,0,0,1,.26-.22.24.24,0,0,1,.27.23.8.8,0,0,1-.22.59,1.34,1.34,0,0,1-.88.19c-.82,0-.92-.15-.92-.52V68.86a.26.26,0,0,1,.52,0v.48a4.19,4.19,0,0,0,.82-.41.3.3,0,0,1,.15-.05.28.28,0,0,1,.27.27.28.28,0,0,1-.15.23,4.81,4.81,0,0,1-1.09.49Z"/><path class="cls-4" d="M60.52,70.26a.38.38,0,1,1-.38-.37A.37.37,0,0,1,60.52,70.26ZM59.78,67a.36.36,0,0,1,.71,0c0,.13,0,.43,0,.58,0,.49-.07,1.23-.08,1.78a.21.21,0,0,1-.24.21.2.2,0,0,1-.22-.21c0-.55,0-1.29-.09-1.78C59.82,67.48,59.78,67.12,59.78,67Z"/><path class="cls-4" d="M21,77.6a1.51,1.51,0,0,1,.06-.37.28.28,0,0,1,.28-.2.25.25,0,0,1,.28.23s0,0,0,.07a1,1,0,0,0,0,.25c0,.31.17.48,1.1.48a7.3,7.3,0,0,0,1.37-.14h.08a.26.26,0,0,1,.26.27.29.29,0,0,1-.24.29,6.65,6.65,0,0,1-1.47.15C21.52,78.62,21,78.28,21,77.6Zm1.61-2.49a7.82,7.82,0,0,0,.9-.06h0a.28.28,0,0,1,.05.55,6.22,6.22,0,0,1-1,.06,4.48,4.48,0,0,1-1-.09.28.28,0,0,1,0-.56h.07A5.12,5.12,0,0,0,22.65,75.11Zm1.22-.35a.2.2,0,0,1,.21-.18.19.19,0,0,1,.15.07,2.3,2.3,0,0,1,.35.47.19.19,0,0,1,0,.12.21.21,0,0,1-.21.2.22.22,0,0,1-.17-.11,2.87,2.87,0,0,0-.33-.46A.15.15,0,0,1,23.87,74.76Zm.53-.35a.19.19,0,0,1,.21-.17.23.23,0,0,1,.16.07,2.51,2.51,0,0,1,.35.44.27.27,0,0,1,0,.14.19.19,0,0,1-.2.19.21.21,0,0,1-.18-.11c-.1-.15-.23-.32-.33-.45A.16.16,0,0,1,24.4,74.41Z"/><path class="cls-4" d="M28.22,77.7h.23c.12,0,.14,0,.14-.13v-.82a.26.26,0,0,1,.52,0v.91c0,.35-.16.5-.61.5H27.42c-.45,0-.61-.15-.61-.5v-.91a.26.26,0,0,1,.52,0v.82c0,.1,0,.13.14.13h.22V76.13h-1c-.19,0-.24.08-.24.22v2.42a.24.24,0,0,1-.27.24.25.25,0,0,1-.27-.24V76.24c0-.38.21-.59.71-.59h1v-.53h-1.8a.23.23,0,0,1-.21-.25.22.22,0,0,1,.21-.25h4.18a.23.23,0,0,1,.22.25.24.24,0,0,1-.22.25H28.22v.53h1.06c.49,0,.7.21.7.59v2.09c0,.43-.2.61-.65.61l-.31,0a.26.26,0,0,1,0-.52h.05l.2,0c.09,0,.13,0,.13-.15V76.35c0-.14,0-.22-.24-.22h-1Z"/><path class="cls-4" d="M31.69,78a3.94,3.94,0,0,1-.53.62.24.24,0,0,1-.42-.16.26.26,0,0,1,.1-.19,3.83,3.83,0,0,0,.69-.85h-.45c-.12,0-.18-.11-.18-.23s.06-.23.18-.23h.59v-.33H31a.21.21,0,0,1-.19-.23.21.21,0,0,1,.19-.23h1a3.65,3.65,0,0,0,.22-.59.22.22,0,0,1,.22-.17.23.23,0,0,1,.24.22.15.15,0,0,1,0,.07,3.91,3.91,0,0,1-.18.47h.41c.12,0,.18.12.18.23s-.06.23-.18.23h-.66v.33h.55a.21.21,0,0,1,.19.23c0,.12-.06.23-.19.23h-.55v.21a3.59,3.59,0,0,1,.57.32.28.28,0,0,1,.13.22.24.24,0,0,1-.23.23.3.3,0,0,1-.15,0,3.62,3.62,0,0,0-.32-.22v.74a.23.23,0,0,1-.25.22.23.23,0,0,1-.26-.22v-.26Zm0-3.42c0-.14.13-.2.26-.2s.26.06.26.2v.31h.54c.12,0,.18.12.18.23s-.06.23-.18.23H31.09c-.12,0-.18-.11-.18-.23s.06-.23.18-.23h.57Zm.14,1.32a.23.23,0,0,1-.24.21.2.2,0,0,1-.2-.13,2.56,2.56,0,0,0-.11-.24.23.23,0,0,1,0-.11.21.21,0,0,1,.23-.2.24.24,0,0,1,.22.14c0,.09.07.13.11.24A.25.25,0,0,1,31.8,75.85ZM34,77.31A1.88,1.88,0,0,1,33,79a.27.27,0,0,1-.12,0,.25.25,0,0,1-.24-.24.23.23,0,0,1,.14-.21,1.41,1.41,0,0,0,.77-1.23c-.27,0-.37-.2-.37-.49V75c0-.35.16-.51.55-.51h.85c.39,0,.55.16.55.51v1.84c0,.31-.11.47-.44.5V78.4c0,.07,0,.09.13.09s.2,0,.22-.29a.2.2,0,0,1,.21-.19.19.19,0,0,1,.21.19,1,1,0,0,1-.12.5.64.64,0,0,1-.58.22c-.45,0-.54-.11-.54-.42V77.31ZM34.63,75c0-.1,0-.13-.14-.13h-.65c-.1,0-.14,0-.14.13v.24h.93Zm-.93,1h.93v-.37H33.7Zm.79.82c.11,0,.14,0,.14-.13v-.26H33.7v.26c0,.09,0,.13.14.13Z"/><path class="cls-4" d="M37,76.52c-.22.09-.47.19-.73.32l-.13,0a.26.26,0,0,1-.25-.27.28.28,0,0,1,.16-.25c.29-.13.54-.24.78-.33l-.28-.84a.24.24,0,0,1,0-.08c0-.15.16-.24.3-.24a.25.25,0,0,1,.25.16l.27.8A5,5,0,0,1,39,75.49c.79,0,1.24.37,1.24.92a1,1,0,0,1-1.07,1,2.41,2.41,0,0,1-.5-.05.31.31,0,0,1-.25-.29.27.27,0,0,1,.28-.27h.09a1.87,1.87,0,0,0,.35,0c.33,0,.52-.16.52-.43S39.49,76,39,76a4.37,4.37,0,0,0-1.49.31l.75,2.2a.38.38,0,0,1,0,.1.27.27,0,0,1-.29.26.24.24,0,0,1-.24-.18Zm1.89-1.41a.3.3,0,0,1-.29.28.27.27,0,0,1-.2-.08,4.34,4.34,0,0,0-.49-.35.26.26,0,0,1,.15-.49.3.3,0,0,1,.17,0,2.27,2.27,0,0,1,.54.37A.29.29,0,0,1,38.89,75.11Z"/><path class="cls-4" d="M40.9,77.82a.19.19,0,0,1-.18-.21.19.19,0,0,1,.18-.21h.32V75.48c0-.44.14-.65.7-.65h.51a2,2,0,0,0,.16-.36.28.28,0,0,1,.27-.19.25.25,0,0,1,.27.23.43.43,0,0,1,0,.11l-.1.21h1c.56,0,.69.21.69.65V77.4H45a.19.19,0,0,1,.18.21.19.19,0,0,1-.18.21H43.27a3.42,3.42,0,0,0,1.64.62.26.26,0,0,1,.24.26.25.25,0,0,1-.25.25h0a3.55,3.55,0,0,1-2-.91A2.76,2.76,0,0,1,41,79h0a.24.24,0,0,1-.24-.24.24.24,0,0,1,.22-.23,2.19,2.19,0,0,0,1.48-.69Zm3.25-.42V75.54c0-.19,0-.28-.26-.28H42c-.23,0-.26.09-.26.28V77.4h.9a1.16,1.16,0,0,0,0-.18.23.23,0,0,1,.24-.17c.13,0,.26.07.26.2a.06.06,0,0,1,0,0,.43.43,0,0,1,0,.11Zm-1.43-.8a3.34,3.34,0,0,1-.59.49l-.12,0a.19.19,0,0,1-.19-.19.18.18,0,0,1,.11-.16,2.84,2.84,0,0,0,.52-.41H42A.18.18,0,0,1,42,76h.28a.19.19,0,0,1-.11-.09,2.14,2.14,0,0,0-.13-.19.21.21,0,0,1,0-.11.19.19,0,0,1,.2-.17.2.2,0,0,1,.16.07.9.9,0,0,1,.15.19.22.22,0,0,1,0,.13.18.18,0,0,1-.13.17h.26v-.5a.2.2,0,0,1,.22-.19.19.19,0,0,1,.21.19V76h.21a.15.15,0,0,1-.09-.13.19.19,0,0,1,.06-.13,1.43,1.43,0,0,0,.15-.22.21.21,0,0,1,.18-.1.19.19,0,0,1,.19.18.19.19,0,0,1,0,.1,1.18,1.18,0,0,1-.19.25l-.07.05h.32a.18.18,0,0,1,0,.36h-.72v0a3.32,3.32,0,0,1,.71.29.19.19,0,0,1,.1.17.18.18,0,0,1-.18.19.27.27,0,0,1-.12,0,3.62,3.62,0,0,0-.51-.27v.08c0,.11-.1.16-.21.16s-.22-.05-.22-.16v-.07Z"/><path class="cls-4" d="M46,75.93a.22.22,0,0,1-.19-.24c0-.13.07-.25.19-.25h.45v-.91c0-.13.12-.19.25-.19s.25.06.25.19v.91h.29c.13,0,.19.12.19.25s-.06.24-.19.24H46.9v.42a3.14,3.14,0,0,1,.5.53.26.26,0,0,1,.05.15.22.22,0,0,1-.22.22.21.21,0,0,1-.18-.11,1.37,1.37,0,0,0-.15-.21v1.89a.25.25,0,0,1-.5,0V77.08a3.45,3.45,0,0,1-.3.64.21.21,0,0,1-.19.12.21.21,0,0,1-.21-.21.25.25,0,0,1,0-.14,5.52,5.52,0,0,0,.6-1.56Zm2.28,1.76a.24.24,0,0,1,.23.24.22.22,0,0,1-.11.19,4.35,4.35,0,0,1-.81.4.15.15,0,0,1-.09,0,.25.25,0,0,1-.24-.25.24.24,0,0,1,.16-.22,5,5,0,0,0,.74-.34A.19.19,0,0,1,48.23,77.69Zm.32-1.58H48c-.12,0-.17-.1-.17-.2s.05-.2.17-.2h.59v-.23h-.86a.19.19,0,0,1-.18-.21.18.18,0,0,1,.18-.2h1.17a3.25,3.25,0,0,0,.31-.57.25.25,0,0,1,.24-.16.23.23,0,0,1,.25.21.22.22,0,0,1,0,.1,2.82,2.82,0,0,1-.23.42H50a.19.19,0,0,1,.19.2.19.19,0,0,1-.19.21h-1v.23h.69a.2.2,0,0,1,0,.4h-.69v.23H50.2a.19.19,0,0,1,.19.21.19.19,0,0,1-.19.21H49.06v.14a3.34,3.34,0,0,0,.25.4,4,4,0,0,0,.38-.35.29.29,0,0,1,.17-.08.26.26,0,0,1,.25.24.19.19,0,0,1-.07.15,4.79,4.79,0,0,1-.45.38,3.16,3.16,0,0,0,.68.55.25.25,0,0,1,.14.22.25.25,0,0,1-.38.2,3.46,3.46,0,0,1-1-1l0,.61v.22c0,.39-.2.53-.57.53l-.26,0A.26.26,0,0,1,48,78.7a.24.24,0,0,1,.24-.25h.22c.07,0,.1,0,.1-.1V76.76h-1a.19.19,0,0,1-.18-.21.19.19,0,0,1,.18-.21h1Zm-.22,1.1a.22.22,0,0,1,.05.14.23.23,0,0,1-.24.22.22.22,0,0,1-.19-.1l-.23-.25a.19.19,0,0,1-.06-.14.23.23,0,0,1,.24-.21.29.29,0,0,1,.18.07A3.2,3.2,0,0,1,48.33,77.21Zm.22-2.55a.23.23,0,0,1-.22.37.26.26,0,0,1-.21-.12L48,74.67a.21.21,0,0,1,0-.12c0-.12.14-.21.26-.21a.25.25,0,0,1,.19.09A1.3,1.3,0,0,1,48.55,74.66Z"/><path class="cls-4" d="M51,77A2.16,2.16,0,0,1,53.36,75a1.75,1.75,0,0,1,1.93,1.77,1.87,1.87,0,0,1-1.4,1.84.23.23,0,0,1-.11,0,.28.28,0,0,1-.28-.28.3.3,0,0,1,.21-.28,1.27,1.27,0,0,0,1-1.3,1.23,1.23,0,0,0-1.2-1.26,5,5,0,0,1-.57,2.13,1,1,0,0,1-1,.63C51.47,78.23,51,77.82,51,77Zm.58,0c0,.46.18.63.36.63s.29-.08.43-.33a4.47,4.47,0,0,0,.5-1.83A1.58,1.58,0,0,0,51.62,77Z"/><path class="cls-4" d="M13.64,84.58l-.05.07a.29.29,0,0,1-.25.16.25.25,0,0,1-.25-.25.27.27,0,0,1,.05-.16,6,6,0,0,0,.67-1.87.27.27,0,0,1,.27-.2.26.26,0,0,1,.28.26v.06A8,8,0,0,1,14,83.91a.21.21,0,0,1,.19.2v2.73c0,.13-.13.2-.26.2s-.26-.07-.26-.2ZM15.16,84c.35,0,.48.13.48.43a.49.49,0,0,1,0,.12,4.16,4.16,0,0,1-.34,1.3,1.85,1.85,0,0,0,1.42.48c.31,0,.58,0,.82,0h.16a.25.25,0,0,1,0,.49c-.27,0-.67,0-1,0a2.32,2.32,0,0,1-1.66-.53,3,3,0,0,1-.4.53.26.26,0,0,1-.2.1.24.24,0,0,1-.24-.23.25.25,0,0,1,.09-.2,3.27,3.27,0,0,0,.43-.59,3.49,3.49,0,0,1-.36-1,.11.11,0,0,1,0,0,.23.23,0,0,1,.24-.22.2.2,0,0,1,.21.16,3.19,3.19,0,0,0,.16.52,3.42,3.42,0,0,0,.17-.81v0s0-.07-.1-.07h-.27c-.22,0-.35-.11-.35-.28A.43.43,0,0,1,14.5,84c.14-.26.27-.54.37-.78a.14.14,0,0,0,0-.06s0,0-.09,0h-.2c-.12,0-.18-.12-.18-.23s.06-.23.18-.23H15c.29,0,.45.15.45.38a.59.59,0,0,1-.05.25A4.87,4.87,0,0,1,15,84h.14Zm.73-.84a.18.18,0,0,1-.17-.2.17.17,0,0,1,.17-.19h.45v-.28a.22.22,0,0,1,.24-.2.21.21,0,0,1,.23.2v.28h.28c.34,0,.47.13.47.4v.24h.18c.11,0,.16.09.16.2a.17.17,0,0,1-.16.19h-.18v.25c0,.27-.13.4-.47.4h-.28v.26h.64a.2.2,0,0,1,0,.4h-.64v.25h.84c.11,0,.16.1.16.2s0,.2-.16.2h-.84v.27a.21.21,0,0,1-.23.2.22.22,0,0,1-.24-.2V85.8h-.59c-.11,0-.16-.1-.16-.2s.05-.2.16-.2h.59v-.25h-.41a.2.2,0,0,1,0-.4h.41v-.26h-.41a.17.17,0,0,1-.17-.19c0-.1.05-.2.17-.2h.41v-.26H15.7a.17.17,0,0,1-.16-.19c0-.11.05-.2.16-.2h.64V83.2Zm.92.25h.3v-.16c0-.07,0-.09-.09-.09h-.21Zm.21.65c.07,0,.09,0,.09-.09v-.17h-.3v.26Z"/><path class="cls-4" d="M20.6,82.47c0-.13.13-.2.27-.2s.26.07.26.2v.28h1.63a.22.22,0,0,1,0,.44H19.63c-.22,0-.28,0-.28.23v.79a5.52,5.52,0,0,1-.46,2.37.29.29,0,0,1-.27.18.24.24,0,0,1-.25-.23.39.39,0,0,1,0-.14,5.2,5.2,0,0,0,.42-2.23v-.83c0-.4.19-.58.67-.58H20.6Zm-.14,3.44a.23.23,0,0,1,.07.44,5.45,5.45,0,0,1-1,.39h-.07a.23.23,0,0,1-.23-.24.22.22,0,0,1,.18-.22,5.32,5.32,0,0,0,.94-.35Zm-.83-1.39a.18.18,0,0,1-.17-.19.18.18,0,0,1,.17-.2H20.8v-.22h-.86a.2.2,0,0,1,0-.4h.86v-.08a.22.22,0,0,1,.25-.21.23.23,0,0,1,.25.21v.08H22c.42,0,.56.14.56.48v.14h.37c.12,0,.17.1.17.2a.17.17,0,0,1-.17.19h-.37v.18c0,.31-.14.44-.53.44H21.3v.09a5.33,5.33,0,0,0,.42.4,5.3,5.3,0,0,0,.51-.36.27.27,0,0,1,.18-.07.25.25,0,0,1,.25.24.25.25,0,0,1-.12.21l-.41.27a4.31,4.31,0,0,0,.68.34.27.27,0,0,1,.2.25.26.26,0,0,1-.26.26.27.27,0,0,1-.12,0,4.15,4.15,0,0,1-1.35-.92l0,.48v.23c0,.34-.2.46-.57.46l-.26,0a.24.24,0,0,1-.21-.25.22.22,0,0,1,.22-.23h0l.17,0c.07,0,.1,0,.1-.09V85.14h-.89a.18.18,0,0,1-.17-.19.18.18,0,0,1,.17-.2h.89v-.23Zm.74.94a.21.21,0,0,1,.1.18.25.25,0,0,1-.24.24.24.24,0,0,1-.15-.06l-.29-.2a.21.21,0,0,1-.1-.17.25.25,0,0,1,.35-.21A1.46,1.46,0,0,1,20.37,85.46Zm1.68-1.33V84c0-.09,0-.11-.14-.11H21.3v.22Zm-.75.62h.61c.11,0,.14,0,.14-.11v-.12H21.3Z"/><path class="cls-4" d="M25.54,82.83a.19.19,0,0,1,.19.2.19.19,0,0,1-.19.21h-.39l.09.17a.16.16,0,0,1,0,.09.23.23,0,0,1-.25.21.22.22,0,0,1-.22-.14,2.59,2.59,0,0,0-.17-.33H24.4a4.86,4.86,0,0,1-.31.41.28.28,0,0,1-.22.1.24.24,0,0,1-.25-.23.24.24,0,0,1,.08-.17,3.44,3.44,0,0,0,.56-.86.25.25,0,0,1,.24-.15.23.23,0,0,1,.25.21.18.18,0,0,1,0,.1l-.09.18Zm2.4,0a.18.18,0,0,1,.18.2.19.19,0,0,1-.18.21h-.72a1.09,1.09,0,0,1,.08.15.19.19,0,0,1,0,.1.24.24,0,0,1-.46.07,3.58,3.58,0,0,0-.18-.32h-.32a1.83,1.83,0,0,1-.13.16.26.26,0,0,1-.2.1h0a.18.18,0,0,1,.12.17v.18h1.29c.46,0,.62.15.62.47v.3c0,.14-.13.21-.27.21s-.27-.07-.27-.21v-.23c0-.09,0-.13-.17-.13h-2.9c-.13,0-.17,0-.17.14v.27c0,.14-.13.21-.27.21s-.27-.07-.27-.21v-.35c0-.32.16-.47.62-.47H25.6v-.18c0-.14.14-.2.27-.2h.05a.22.22,0,0,1-.08-.34,3,3,0,0,0,.4-.66.24.24,0,0,1,.23-.14.25.25,0,0,1,.26.22.29.29,0,0,1,0,.09l-.09.19Zm-2.87,2.73v.27h1.78c.41,0,.56.13.56.42v.27c0,.29-.15.42-.56.42H25.14c-.42,0-.58-.17-.58-.5V85c0-.31.15-.45.57-.45h1.32c.41,0,.57.1.57.4v.26a.33.33,0,0,1-.18.34.82.82,0,0,1-.38.06Zm1.3-.38c.12,0,.15,0,.15-.1V85c0-.08,0-.1-.15-.1H25.24c-.13,0-.17,0-.17.14v.16Zm-1.3,1v.2c0,.09,0,.13.17.13h1.52c.12,0,.14,0,.14-.1v-.13c0-.1-.06-.1-.14-.1Z"/><path class="cls-4" d="M29.29,84.51H29a.22.22,0,0,1-.2-.24A.21.21,0,0,1,29,84h.31V83.2h-.38a.22.22,0,0,1-.2-.24.21.21,0,0,1,.2-.23h1.27a.21.21,0,0,1,.19.23c0,.12-.06.24-.19.24h-.36V84h.28a.21.21,0,0,1,.19.23c0,.12-.06.24-.19.24h-.28v.95l.26-.1.11,0a.23.23,0,0,1,.22.24.23.23,0,0,1-.14.22,7.88,7.88,0,0,1-1.29.44h-.07a.25.25,0,0,1-.25-.26.26.26,0,0,1,.2-.25l.43-.11Zm1.88.4c-.43,0-.61-.17-.61-.53V83.14c0-.36.18-.54.61-.54h1.29c.43,0,.62.18.62.54v1.24c0,.36-.19.53-.62.53h-.39v.47h.77c.13,0,.19.11.19.23s-.06.24-.19.24h-.77v.54h1.09a.21.21,0,0,1,.19.23.22.22,0,0,1-.19.24H30.21a.22.22,0,0,1-.19-.24.21.21,0,0,1,.19-.23h1.33v-.54h-.78a.22.22,0,0,1-.19-.24.21.21,0,0,1,.19-.23h.78v-.47Zm.38-1.37v-.48h-.32c-.13,0-.16,0-.16.13v.35Zm0,.92V84h-.48v.35c0,.12.05.13.16.13Zm.5-.92h.52v-.35c0-.11,0-.13-.16-.13h-.36Zm0,.44v.48h.36c.13,0,.16,0,.16-.13V84Z"/><path class="cls-4" d="M34.62,82.77a.26.26,0,0,1,.29.25v.06a10.45,10.45,0,0,0-.23,2.21,9.48,9.48,0,0,0,.09,1.18v0a.27.27,0,0,1-.29.26.28.28,0,0,1-.29-.24,11.07,11.07,0,0,1-.08-1.24A11.64,11.64,0,0,1,34.34,83,.27.27,0,0,1,34.62,82.77Zm2.27,3.08a4.18,4.18,0,0,0,.76-.08h.06a.26.26,0,0,1,.26.28.25.25,0,0,1-.22.26,4.34,4.34,0,0,1-.86.09c-.93,0-1.31-.28-1.37-.89v0a.28.28,0,0,1,.29-.28.25.25,0,0,1,.26.21C36.11,85.73,36.27,85.85,36.89,85.85Zm.52-2.64a.25.25,0,0,1,.27.26.27.27,0,0,1-.25.28,12.78,12.78,0,0,1-1.41.11.26.26,0,0,1-.29-.27.26.26,0,0,1,.27-.27,12.06,12.06,0,0,0,1.37-.11Z"/><path class="cls-4" d="M40.89,86.82c0,.14-.13.21-.26.21s-.26-.07-.26-.21V86.4a12.83,12.83,0,0,1-1.5.3h0a.23.23,0,0,1-.22-.25.21.21,0,0,1,.19-.22l.39,0V84.56h-.36c-.11,0-.17-.11-.17-.22s.06-.21.17-.21H43.1c.11,0,.17.1.17.21s-.06.22-.17.22H40.89ZM40,83.92c-.39,0-.56-.13-.56-.44v-.59c0-.31.17-.44.56-.44h1.91c.39,0,.56.13.56.44v.59c0,.37-.24.44-.56.44Zm-.29.64v.25h.65v-.25Zm0,.6v.26h.65v-.26Zm0,.94.65-.13v-.2h-.65ZM42,82.91c0-.08,0-.11-.16-.11H40.13c-.12,0-.16,0-.16.11V83h2Zm-.16.66c.13,0,.16,0,.16-.12v-.1H40v.1c0,.11.07.12.16.12Zm.64,1.24c.33,0,.5.13.5.36a.71.71,0,0,1-.07.29,2.62,2.62,0,0,1-.39.59,2.08,2.08,0,0,0,.59.36.26.26,0,0,1,.17.24.25.25,0,0,1-.24.25l-.13,0a2.6,2.6,0,0,1-.73-.49,3.74,3.74,0,0,1-.81.52.22.22,0,0,1-.11,0,.23.23,0,0,1-.23-.24.23.23,0,0,1,.16-.22,2.75,2.75,0,0,0,.66-.42,3.3,3.3,0,0,1-.49-.83h-.08c-.12,0-.17-.1-.17-.2s0-.2.17-.2Zm-.64.4a2.41,2.41,0,0,0,.33.5,2.26,2.26,0,0,0,.25-.38.25.25,0,0,0,0-.07s0-.05-.1-.05Z"/><path class="cls-4" d="M44.94,86c.31.31.8.43,2,.43a13,13,0,0,0,1.35-.06h0a.24.24,0,0,1,.24.25.25.25,0,0,1-.24.26c-.39,0-.85.05-1.38.05-1.26,0-1.8-.14-2.18-.51a3.54,3.54,0,0,1-.53.5A.25.25,0,0,1,44,87a.26.26,0,0,1-.27-.25.31.31,0,0,1,.15-.23,3.28,3.28,0,0,0,.5-.44v-1c0-.09,0-.12-.15-.12h-.22a.23.23,0,0,1-.22-.24.23.23,0,0,1,.22-.25h.34c.39,0,.55.18.55.52Zm-.07-2.91a.28.28,0,0,1,.08.19.29.29,0,0,1-.29.28.26.26,0,0,1-.21-.11,3.46,3.46,0,0,0-.33-.35.26.26,0,0,1-.1-.19.27.27,0,0,1,.27-.26.32.32,0,0,1,.2.07A2.69,2.69,0,0,1,44.87,83.06Zm3.37,2.66c0,.35-.19.51-.55.51l-.26,0a.23.23,0,0,1-.22-.23.33.33,0,0,1,0-.14.69.69,0,0,1-.2,0h-.58c-.31,0-.43-.11-.43-.36v-.3c0-.25.12-.36.43-.36h.05v-.24H46.1a.19.19,0,0,1,0-.38h.42V84H46c-.12,0-.16,0-.16.13V86a.23.23,0,0,1-.25.2c-.13,0-.25-.07-.25-.2V84.06c0-.33.16-.5.62-.5h.15a1.62,1.62,0,0,0-.13-.19.23.23,0,0,1,0-.11.15.15,0,0,1,0-.11H45.3a.2.2,0,0,1-.18-.22c0-.12.06-.23.18-.23h1.2v-.18c0-.14.13-.2.26-.2s.25.06.25.2v.18h1.24a.21.21,0,0,1,.19.23.2.2,0,0,1-.19.22h-.69a.21.21,0,0,1,0,.12.15.15,0,0,1,0,.09c0,.07-.07.14-.1.2h.13c.45,0,.62.17.62.5ZM47,83.56c.07-.13.14-.25.19-.37a.08.08,0,0,1,0,0h-.82a1.43,1.43,0,0,1,.16.24.3.3,0,0,1,0,.1.17.17,0,0,1,0,.07Zm0,2c.07,0,.09,0,.09-.08v-.19c0-.06,0-.08-.09-.08h-.4c-.08,0-.1,0-.1.08v.19c0,.06,0,.08.1.08Zm.51,0a.43.43,0,0,1-.06.24h.23c.07,0,.1,0,.1-.11V84.12c0-.09,0-.13-.17-.13H47v.24h.43a.19.19,0,0,1,0,.38H47v.24h.06c.31,0,.42.11.42.36Z"/><path class="cls-4" d="M51.4,83.56l-2.12.31h-.05a.29.29,0,0,1,0-.57c1-.13,2.33-.27,3.37-.37h0a.26.26,0,0,1,.27.27.27.27,0,0,1-.23.27,1.68,1.68,0,0,0-.55.2,1.57,1.57,0,0,0-.94,1.44c0,.56.38.9,1.08,1a.29.29,0,0,1,.27.3.27.27,0,0,1-.29.29,1.11,1.11,0,0,1-.23,0,1.56,1.56,0,0,1-1.41-1.53,2,2,0,0,1,.82-1.57Zm.73.81a.21.21,0,0,1,.21-.19.2.2,0,0,1,.14.06,2.27,2.27,0,0,1,.39.43.2.2,0,0,1,.05.14.2.2,0,0,1-.37.1,3.16,3.16,0,0,0-.37-.42A.21.21,0,0,1,52.13,84.37Zm.5-.4a.19.19,0,0,1,.21-.18.24.24,0,0,1,.15.06,2.13,2.13,0,0,1,.38.41.24.24,0,0,1,.06.15.2.2,0,0,1-.2.19.24.24,0,0,1-.18-.09,3.82,3.82,0,0,0-.37-.42A.16.16,0,0,1,52.63,84Z"/><path class="cls-4" d="M56.21,85.72a.55.55,0,0,1-.37.12.82.82,0,0,1-.85-.9.76.76,0,0,1,.77-.83,1.36,1.36,0,0,1,.3,0v-.4l-1.73.1h-.23a.27.27,0,0,1-.26-.29.26.26,0,0,1,.25-.27l2-.1v-.61a.25.25,0,0,1,.28-.24.25.25,0,0,1,.27.24v.59l1.47,0a.27.27,0,0,1,0,.54l-1.48,0c0,.29,0,.58,0,.87a1.37,1.37,0,0,1,.17.66,1.75,1.75,0,0,1-1.13,1.67l-.14,0a.29.29,0,0,1-.28-.28.28.28,0,0,1,.19-.26,1.38,1.38,0,0,0,.77-.7ZM55.52,85a.37.37,0,0,0,.34.39c.18,0,.3-.12.3-.35a.37.37,0,0,0-.35-.4C55.64,84.6,55.52,84.74,55.52,85Z"/><path class="cls-4" d="M59.92,86a.84.84,0,1,1-.84-.83A.83.83,0,0,1,59.92,86Zm-1.33,0a.49.49,0,1,0,.49-.49A.48.48,0,0,0,58.59,86Z"/><g id="_31" data-name="31"><path class="cls-4" d="M30.06,42.23a4.09,4.09,0,0,0,3.27-1.63,6.12,6.12,0,0,1-2-6.38,4.11,4.11,0,1,0-1.28,8Z"/><path class="cls-4" d="M31.37,43H27.71A1.72,1.72,0,0,0,26,44.66v5.81h5.17V44A3,3,0,0,1,31.37,43Z"/><path class="cls-4" d="M41.14,40.6A4.11,4.11,0,1,0,44.41,34a4.14,4.14,0,0,0-1.28.21,6.05,6.05,0,0,1-2,6.38Z"/><path class="cls-4" d="M43.3,50.47h5.17V44.66A1.71,1.71,0,0,0,46.76,43H43.1A3,3,0,0,1,43.3,44Z"/><path class="cls-4" d="M32.11,35.89a5.14,5.14,0,0,0,4.09,5h2.07a5.13,5.13,0,1,0-6.16-5Z"/><path class="cls-4" d="M34.3,41.91A2.13,2.13,0,0,0,32.17,44v6.43H42.3V44a2.13,2.13,0,0,0-2.13-2.13Z"/></g></g></g></g></svg>