<svg xmlns="http://www.w3.org/2000/svg" viewBox="0 0 76.54 96.38"><defs><style>.cls-1{isolation:isolate;}.cls-2{mix-blend-mode:multiply;}.cls-3{fill:#005ca7;}.cls-4{fill:#fff;}</style></defs><g class="cls-1"><g id="レイヤー_2" data-name="レイヤー 2"><g id="レイヤー_1-2" data-name="レイヤー 1"><g class="cls-2"><rect class="cls-3" width="76.54" height="96.38" rx="4.9"/></g><path class="cls-4" d="M13.41,12.36l-.92.06a.39.39,0,0,1-.38-.43.37.37,0,0,1,.36-.41h.36c.19-.28.37-.57.54-.85a11.57,11.57,0,0,0-1-1.1.4.4,0,0,1-.11-.28.43.43,0,0,1,.42-.4A.47.47,0,0,1,13,9,9.77,9.77,0,0,0,13.45,8a.44.44,0,0,1,.84.11.89.89,0,0,1,0,.15,10.84,10.84,0,0,1-.72,1.45,3.88,3.88,0,0,1,.26.31l.41-.8a.38.38,0,0,1,.36-.24.43.43,0,0,1,.45.4.54.54,0,0,1,0,.19,20.89,20.89,0,0,1-1.19,2l.68-.07a2.12,2.12,0,0,1-.11-.21.37.37,0,0,1,0-.16.39.39,0,0,1,.71-.14,5.76,5.76,0,0,1,.54,1.15.39.39,0,0,1,0,.14.4.4,0,0,1-.41.37.36.36,0,0,1-.36-.25.74.74,0,0,0,0-.14c-.16,0-.33,0-.49.06v3.45c0,.23-.21.34-.44.34s-.44-.11-.44-.34Zm-.5.49a.34.34,0,0,1,.37.33,6.72,6.72,0,0,1-.37,1.74.4.4,0,0,1-.37.25.36.36,0,0,1-.38-.33.35.35,0,0,1,0-.17,7.4,7.4,0,0,0,.35-1.53A.33.33,0,0,1,12.91,12.85Zm2.52,1.41v.06a.35.35,0,0,1-.37.36.34.34,0,0,1-.35-.29c-.06-.4-.16-.86-.26-1.25a.29.29,0,0,1,0-.09.36.36,0,0,1,.69-.07A7.68,7.68,0,0,1,15.43,14.26Zm.26-6.09c0-.26.23-.38.47-.38a.41.41,0,0,1,.46.38v6.49c0,.23.06.28.37.28h3.15c.26,0,.37.21.37.43a.38.38,0,0,1-.37.42H16.77c-.79,0-1.08-.29-1.08-.95Zm2.44,4.57a7.73,7.73,0,0,1-.61,1,.48.48,0,0,1-.38.21.36.36,0,0,1-.38-.36.5.5,0,0,1,.12-.3,7.72,7.72,0,0,0,1-1.91h-.77c-.22,0-.32-.2-.32-.4s.1-.39.31-.39h.94V8.1a.44.44,0,0,1,.87,0v2.5h1c.22,0,.32.19.32.39s-.1.4-.32.4H19v.38a5.73,5.73,0,0,1,1.12,1.14.55.55,0,0,1,.11.3.41.41,0,0,1-.75.19,5.93,5.93,0,0,0-.48-.64V14.4a.44.44,0,0,1-.87,0v-.63Zm-.2-2.94a.38.38,0,0,1,0,.1.4.4,0,0,1-.41.37.35.35,0,0,1-.34-.27,6,6,0,0,0-.3-.8.31.31,0,0,1,0-.15.36.36,0,0,1,.39-.33.37.37,0,0,1,.34.2A4.36,4.36,0,0,1,17.93,9.8Zm1.92-1.18a.39.39,0,0,1,.41.36.23.23,0,0,1,0,.11,6.12,6.12,0,0,1-.44,1.05.38.38,0,0,1-.33.18.37.37,0,0,1-.4-.33.31.31,0,0,1,0-.15,7.55,7.55,0,0,0,.39-1A.34.34,0,0,1,19.85,8.62Z"/><path class="cls-4" d="M24.7,12.31a.39.39,0,0,1-.39.28.35.35,0,0,1-.35-.25s0-.1-.05-.14l-.48.06v3.46c0,.22-.21.33-.43.33s-.44-.11-.44-.33V12.36l-.9.06a.4.4,0,0,1-.4-.43.38.38,0,0,1,.37-.41H22l.54-.86c-.31-.37-.66-.77-1-1.09a.4.4,0,0,1-.11-.28.42.42,0,0,1,.41-.4.41.41,0,0,1,.27.11A9.92,9.92,0,0,0,22.6,8a.41.41,0,0,1,.4-.28.4.4,0,0,1,.43.38.44.44,0,0,1,0,.16,10.24,10.24,0,0,1-.71,1.46A2.43,2.43,0,0,1,23,10c.15-.29.29-.56.4-.8a.38.38,0,0,1,.36-.24.43.43,0,0,1,.45.4.46.46,0,0,1,0,.19,20,20,0,0,1-1.21,2c.24,0,.46,0,.69-.06,0-.08-.08-.15-.11-.22a.32.32,0,0,1,.33-.48.38.38,0,0,1,.33.19,6.54,6.54,0,0,1,.52,1.11.24.24,0,0,1,0,.09V12c0-.57.2-.9,1-.9h2.88c.78,0,1,.33,1,.9v.46a.41.41,0,0,1-.45.38.4.4,0,0,1-.45-.38v-.35c0-.17-.08-.22-.29-.22H25.89c-.21,0-.29.05-.29.22v.38c0,.25-.22.37-.45.37a.4.4,0,0,1-.45-.37Zm-2.63.54a.33.33,0,0,1,.36.33,6.77,6.77,0,0,1-.37,1.74.37.37,0,0,1-.36.25.36.36,0,0,1-.38-.33.53.53,0,0,1,0-.16,7.66,7.66,0,0,0,.35-1.54A.33.33,0,0,1,22.07,12.85Zm2.47,1.33v.06a.35.35,0,0,1-.37.35.33.33,0,0,1-.35-.28,6.38,6.38,0,0,0-.23-1.17.24.24,0,0,1,0-.09.34.34,0,0,1,.36-.3.33.33,0,0,1,.32.23A5.82,5.82,0,0,1,24.54,14.18Zm1.8-1.83a.43.43,0,0,1,.47.4,4.21,4.21,0,0,1-.34,1.43,3.33,3.33,0,0,1-1.66,1.69.53.53,0,0,1-.23.06.47.47,0,0,1-.46-.47A.46.46,0,0,1,24.4,15a2.57,2.57,0,0,0,1.49-2.31A.42.42,0,0,1,26.34,12.35Zm.24-3H25a.41.41,0,0,1,0-.81h1.61V8A.41.41,0,0,1,27,7.61c.24,0,.47.12.47.39v.58H29.3a.41.41,0,0,1,0,.81H27.51v.52h1.38a.41.41,0,0,1,0,.81H25.44a.41.41,0,0,1,0-.81h1.14Zm1.54,5.39c0,.16.05.2.29.2s.43-.08.48-.62a.39.39,0,0,1,.42-.35.4.4,0,0,1,.45.38v0c-.09,1-.36,1.39-1.34,1.39s-1.21-.24-1.21-.79V12.7a.41.41,0,0,1,.46-.37.4.4,0,0,1,.45.37Z"/><path class="cls-4" d="M31.79,8.48A.48.48,0,0,1,32.31,8a.47.47,0,0,1,.52.45c0,.1,0,.33,0,.43-.09,1.34-.17,2.71-.17,4.05s.37,1.53,1,1.53a3.06,3.06,0,0,0,2.45-1.37.57.57,0,0,1,.43-.23.5.5,0,0,1,.41.83,4.09,4.09,0,0,1-3.29,1.77c-1.34,0-2-.67-2-2.54C31.6,11.51,31.69,9.8,31.79,8.48Z"/><path class="cls-4" d="M40,11.52c-.4.17-.84.35-1.32.58a.5.5,0,0,1-.23.05.48.48,0,0,1-.46-.48.48.48,0,0,1,.3-.44c.51-.24,1-.44,1.41-.61L39.2,9.13a.39.39,0,0,1,0-.14.5.5,0,0,1,.54-.44.47.47,0,0,1,.45.29l.48,1.43a9.08,9.08,0,0,1,3-.58c1.41,0,2.22.65,2.22,1.64A1.74,1.74,0,0,1,44,13.11a3.9,3.9,0,0,1-.9-.09.55.55,0,0,1-.45-.52.47.47,0,0,1,.5-.49.52.52,0,0,1,.17,0,3,3,0,0,0,.63.08c.58,0,.92-.3.92-.78s-.34-.72-1.19-.72a8.12,8.12,0,0,0-2.68.55l1.34,4a.61.61,0,0,1,0,.17.5.5,0,0,1-.53.48.46.46,0,0,1-.44-.32ZM43.42,9a.52.52,0,0,1-.89.36,8.61,8.61,0,0,0-.88-.63.47.47,0,0,1-.23-.39.5.5,0,0,1,.5-.49.68.68,0,0,1,.32.09,4.86,4.86,0,0,1,1,.67A.53.53,0,0,1,43.42,9Z"/><path class="cls-4" d="M51,13.68a1,1,0,0,1-.67.23,1.48,1.48,0,0,1-1.53-1.62,1.38,1.38,0,0,1,1.4-1.5,1.91,1.91,0,0,1,.54.08l0-.72c-.66,0-2.18.1-3.11.17l-.41,0a.5.5,0,0,1-.48-.52.46.46,0,0,1,.46-.48c1.07-.07,2.3-.13,3.53-.17,0-.33,0-.7,0-1.1a.47.47,0,0,1,.51-.44.44.44,0,0,1,.48.43V9.13c.94,0,1.84-.05,2.64-.05a.46.46,0,0,1,.47.5.45.45,0,0,1-.43.48c-.8,0-1.72,0-2.66,0q0,.78.06,1.56a2.28,2.28,0,0,1,.31,1.2,3.11,3.11,0,0,1-2,3,.57.57,0,0,1-.24.06.5.5,0,0,1-.16-1,2.53,2.53,0,0,0,1.39-1.26Zm-1.24-1.36a.67.67,0,0,0,.62.71c.3,0,.53-.22.53-.63a.65.65,0,0,0-.63-.72C50,11.68,49.79,11.92,49.79,12.32Z"/><path class="cls-4" d="M56.63,8.76a.49.49,0,0,1,.53.48c0,.12,0,.56,0,.84,0,3.15.64,4,1,4,.22,0,.41-.14.59-.82a.46.46,0,0,1,.45-.38.5.5,0,0,1,.52.48.44.44,0,0,1,0,.16c-.33,1.2-.91,1.64-1.51,1.64-1.31,0-2.1-1.61-2.1-5,0-.41,0-.68,0-.92A.48.48,0,0,1,56.63,8.76Zm6.79,3.82a.68.68,0,0,1,0,.19.48.48,0,0,1-.5.47.5.5,0,0,1-.48-.34,7.9,7.9,0,0,0-1.56-2.45.45.45,0,0,1-.15-.33.5.5,0,0,1,.51-.46.59.59,0,0,1,.4.17A7.09,7.09,0,0,1,63.42,12.58Z"/><path class="cls-4" d="M30.14,21.68l-.15.24a.52.52,0,0,1-.45.26.45.45,0,0,1-.46-.44.49.49,0,0,1,.1-.31A11.06,11.06,0,0,0,30.5,18a.52.52,0,0,1,1,.1.6.6,0,0,1,0,.12,12.31,12.31,0,0,1-.75,2.27.4.4,0,0,1,.37.36V25.7c0,.24-.24.36-.48.36s-.48-.12-.48-.36Zm3.15-2.56H32.06a.4.4,0,0,1-.37-.44c0-.23.12-.44.37-.44h5.15c.24,0,.36.21.36.44a.4.4,0,0,1-.36.44h-1.5v1.09h.47c.79,0,1.13.27,1.13,1v3.53c0,.78-.41,1-1.13,1h-3.3c-.8,0-1.14-.27-1.14-1V21.19c0-.71.34-1,1.14-1h.41Zm0,5.73V21H33c-.21,0-.28.06-.28.29v3.23c0,.2.06.29.28.29Zm1.54-5.73h-.66v1.09h.66ZM34.17,21v3.81h.66V21Zm1.54,3.81h.39c.21,0,.28-.06.28-.29V21.33c0-.23-.07-.29-.28-.29h-.39Z"/><path class="cls-4" d="M38.73,20.4c-.23,0-.34-.22-.34-.43s.11-.44.33-.44h.86V18c0-.24.24-.35.46-.35s.46.11.46.35v1.56h.62c.23,0,.35.22.35.44a.39.39,0,0,1-.35.43H40.5v.39a5.5,5.5,0,0,1,.88.86.44.44,0,0,1,.1.29.36.36,0,0,1-.06.2l0,0a8.55,8.55,0,0,0,2-1.17,6.07,6.07,0,0,1-.64-.8l-.33.38a.51.51,0,0,1-.38.19.44.44,0,0,1-.44-.43.45.45,0,0,1,.11-.3A6.91,6.91,0,0,0,43,17.93a.43.43,0,0,1,.42-.27.47.47,0,0,1,.49.42.57.57,0,0,1,0,.18l-.19.43h1.17c.56,0,.87.26.87.64a1.11,1.11,0,0,1-.18.55A6.52,6.52,0,0,1,44.72,21a6.58,6.58,0,0,0,1.66.9.51.51,0,0,1,.37.47.47.47,0,0,1-.47.48,1,1,0,0,1-.21,0,7,7,0,0,1-2-1.21A9.59,9.59,0,0,1,41.84,23a.59.59,0,0,1-.21,0,.47.47,0,0,1-.37-.72.37.37,0,0,1-.17.05.39.39,0,0,1-.32-.17,4,4,0,0,0-.27-.34v3.85c0,.26-.22.38-.46.38a.41.41,0,0,1-.46-.38v-1.3l0-1.94A8.21,8.21,0,0,1,39,23.68a.39.39,0,0,1-.34.21.43.43,0,0,1-.42-.4.56.56,0,0,1,.08-.26,9.49,9.49,0,0,0,1.16-2.83Zm4.51,5.5c-.74,0-1-.29-1-.88V23.67c0-.6.3-.89,1-.89h1.64c.74,0,1,.29,1,.89V25c0,.69-.41.88-1,.88Zm1.48-.83c.19,0,.26-.05.26-.22v-1c0-.17-.07-.23-.26-.23H43.4c-.18,0-.26.06-.26.23v1c0,.18.09.22.26.22Zm-1.4-5.6a6.47,6.47,0,0,0,.73.91,4.53,4.53,0,0,0,.58-.71.24.24,0,0,0,.06-.13c0-.05-.06-.07-.19-.07Z"/><path class="cls-4" d="M21.61,59.58a6.81,6.81,0,0,1-.36,1.94.35.35,0,0,1-.33.25.32.32,0,0,1-.34-.32.4.4,0,0,1,0-.15A10.5,10.5,0,0,0,21,57.55V56.36c0-.46.18-.69.72-.69h.41c.55,0,.73.23.73.69v4.69c0,.53-.25.72-.67.72a2,2,0,0,1-.33,0,.34.34,0,0,1-.31-.35.32.32,0,0,1,.31-.35h.05l.17,0c.07,0,.11,0,.11-.14V59.58Zm.58-1.64h-.52c0,.35,0,.68,0,1h.54Zm0-1.43c0-.13,0-.17-.16-.17h-.21c-.12,0-.15,0-.15.17v.82h.52Zm2.1.52a.46.46,0,0,1,0,.19.39.39,0,0,1-.39.39.38.38,0,0,1-.37-.28,5.33,5.33,0,0,0-.41-.83.45.45,0,0,1-.06-.21.36.36,0,0,1,.37-.34.42.42,0,0,1,.34.19A4,4,0,0,1,24.29,57Zm-.18,4.65c-.55,0-.84-.21-.84-.77V58.68c0-.2.18-.3.37-.3a.33.33,0,0,1,.37.3v2.1c0,.16.08.22.23.22H26c.14,0,.23-.06.23-.22V58.73c0-.19.19-.29.37-.29s.37.1.37.29v2.18c0,.56-.29.77-.84.77ZM26,60a.43.43,0,0,1,.12.27.35.35,0,0,1-.35.34.33.33,0,0,1-.27-.13,3.71,3.71,0,0,0-.27-.29,4,4,0,0,1-.52.56.45.45,0,0,1-.27.11.32.32,0,0,1-.32-.32.36.36,0,0,1,.13-.27,5.37,5.37,0,0,0,.5-.55l-.39-.3a.33.33,0,0,1-.16-.27.34.34,0,0,1,.35-.32.35.35,0,0,1,.21.07l.35.26.29-.58a.33.33,0,0,1,.33-.24.34.34,0,0,1,.35.32.48.48,0,0,1,0,.15,4.75,4.75,0,0,1-.41.81C25.75,59.74,25.88,59.86,26,60Zm-.55-3.18a.49.49,0,0,1,0,.15.39.39,0,0,1-.39.39.37.37,0,0,1-.36-.28,6.24,6.24,0,0,0-.38-.9.33.33,0,0,1-.05-.18.34.34,0,0,1,.36-.32.39.39,0,0,1,.34.2A4.47,4.47,0,0,1,25.44,56.81Zm.72,1.07a.42.42,0,0,1-.37.21.37.37,0,0,1-.38-.34.46.46,0,0,1,.08-.23A6.73,6.73,0,0,0,26.2,56a.36.36,0,0,1,.36-.25.38.38,0,0,1,.4.35.59.59,0,0,1,0,.13A7.91,7.91,0,0,1,26.16,57.88Z"/><path class="cls-4" d="M29.94,58a.4.4,0,0,1,.34-.22.45.45,0,0,1,.19,0,8.07,8.07,0,0,1,1.48.89.47.47,0,0,1,.2.37.41.41,0,0,1-.4.41.48.48,0,0,1-.3-.11,13.21,13.21,0,0,0-1.31-.84.53.53,0,0,1-.2-.19v3a.37.37,0,0,1-.41.36.38.38,0,0,1-.42-.36V56.07a.39.39,0,0,1,.42-.37.38.38,0,0,1,.41.37Zm1.15-1.49a.29.29,0,0,1,.29-.27.27.27,0,0,1,.2.08,3.57,3.57,0,0,1,.55.61.27.27,0,0,1,.06.19.29.29,0,0,1-.28.28.26.26,0,0,1-.23-.14,5.31,5.31,0,0,0-.52-.59A.25.25,0,0,1,31.09,56.55Zm.69-.56a.29.29,0,0,1,.3-.26.37.37,0,0,1,.21.08,3.75,3.75,0,0,1,.54.58.35.35,0,0,1,.07.21.27.27,0,0,1-.28.26.3.3,0,0,1-.24-.12,6.06,6.06,0,0,0-.52-.58A.24.24,0,0,1,31.78,56Z"/><path class="cls-4" d="M34.76,58.6a.27.27,0,0,1,0,.13.38.38,0,0,1-.39.34.34.34,0,0,1-.33-.22,5.4,5.4,0,0,0-.45-.9.35.35,0,0,1,0-.17.36.36,0,0,1,.38-.32.37.37,0,0,1,.32.18A5.79,5.79,0,0,1,34.76,58.6Zm2.84-1.25a.37.37,0,0,1,.41.33.29.29,0,0,1,0,.09,6.28,6.28,0,0,1-2.9,3.86.49.49,0,0,1-.19,0,.37.37,0,0,1-.36-.37.39.39,0,0,1,.22-.34,5.31,5.31,0,0,0,2.5-3.38A.33.33,0,0,1,37.6,57.35Zm-1.49.91a.74.74,0,0,1,0,.12.37.37,0,0,1-.39.34.33.33,0,0,1-.32-.23A5.62,5.62,0,0,0,35,57.6a.37.37,0,0,1,0-.16.35.35,0,0,1,.38-.31.37.37,0,0,1,.33.18A5.14,5.14,0,0,1,36.11,58.26Z"/><path class="cls-4" d="M42.57,56.74c.58,0,.88.23.88.65a1.33,1.33,0,0,1-.07.37,6.84,6.84,0,0,1-3.21,4,.43.43,0,0,1-.23.07.4.4,0,0,1-.4-.4.46.46,0,0,1,.25-.38,6,6,0,0,0,2.75-3.33.16.16,0,0,0,0-.09c0-.08-.05-.12-.19-.12l-1.57,0a7.5,7.5,0,0,1-1.14,1.33.43.43,0,0,1-.32.13.38.38,0,0,1-.39-.37.48.48,0,0,1,.17-.34,7.14,7.14,0,0,0,1.69-2.41.41.41,0,0,1,.39-.26.39.39,0,0,1,.41.37.5.5,0,0,1,0,.16c-.1.22-.2.43-.32.66Z"/><path class="cls-4" d="M46.27,57.09c-.22.21-.42.41-.67.63a.47.47,0,0,1-.31.12.39.39,0,0,1-.23-.7c.38-.3.69-.56,1.06-.89a.72.72,0,0,1,.52-.23.44.44,0,0,1,.46.48v4.42a.37.37,0,0,1-.42.41.37.37,0,0,1-.41-.41Z"/><path class="cls-4" d="M50.22,61.67c-.79,0-1.09-.34-1.09-1V56.76c0-.64.3-1,1.09-1H53.9c.8,0,1.09.33,1.09,1V60.7c0,.74-.39,1-1.09,1Zm3.52-.7c.35,0,.46-.11.46-.39v-3.7c0-.28-.11-.39-.46-.39H50.38c-.34,0-.46.11-.46.39v3.7c0,.32.17.39.46.39ZM51.55,60c-.62,0-.86-.23-.86-.76V58.12c0-.53.24-.76.86-.76h1c.62,0,.86.23.86.76v1.14c0,.6-.31.76-.86.76Zm.88-.65c.17,0,.24,0,.24-.22v-.92c0-.17-.07-.22-.24-.22h-.77c-.17,0-.24.05-.24.22v.92c0,.17.08.22.24.22Z"/><path class="cls-4" d="M20.38,62.21v-.35H55.56v.35Z"/><path class="cls-4" d="M16.42,67.09c-.21.21-.42.41-.67.63a.47.47,0,0,1-.31.12.39.39,0,0,1-.23-.7c.38-.3.7-.56,1.06-.89a.72.72,0,0,1,.52-.23.44.44,0,0,1,.46.48v4.42a.37.37,0,0,1-.42.41.37.37,0,0,1-.41-.41Z"/><path class="cls-4" d="M21.52,66.1a.48.48,0,0,1,.52.48,1.28,1.28,0,0,1-.15.58c-.59,1.3-1.12,2.52-1.71,3.92a.38.38,0,0,1-.37.25c-.25,0-.47-.13-.47-.36a.71.71,0,0,1,.07-.27c.58-1.28,1.19-2.57,1.8-3.89H19a.36.36,0,0,1,0-.71Z"/><path class="cls-4" d="M22.56,72.17A.16.16,0,0,1,22.4,72a.16.16,0,0,1,.07-.13c.31-.17.44-.36.44-.55s0-.11-.12-.11a.48.48,0,0,1-.48-.5.52.52,0,0,1,.56-.52c.33,0,.61.27.61.76a1.39,1.39,0,0,1-.75,1.16A.5.5,0,0,1,22.56,72.17Z"/><path class="cls-4" d="M25.37,68.12A1.43,1.43,0,0,1,26,68a1.64,1.64,0,0,1,1.84,1.67A1.72,1.72,0,0,1,26,71.38a2.39,2.39,0,0,1-1.45-.45.36.36,0,0,1-.15-.32.37.37,0,0,1,.4-.36.35.35,0,0,1,.21.08,1.5,1.5,0,0,0,1,.35,1,1,0,0,0,1-1,.92.92,0,0,0-1-1,1.2,1.2,0,0,0-.6.17.63.63,0,0,1-.35.13.41.41,0,0,1-.46-.41v0l.15-1.86a.6.6,0,0,1,.66-.53h1.9a.33.33,0,0,1,.34.36.34.34,0,0,1-.34.37H25.69a.2.2,0,0,0-.23.2Z"/><path class="cls-4" d="M32.18,68.68c0,1.94-.71,2.7-1.77,2.7s-1.76-.76-1.76-2.7S29.34,66,30.41,66,32.18,66.74,32.18,68.68Zm-2.71,0c0,1.51.35,2,.94,2s.94-.49.94-2-.36-2-.94-2S29.47,67.18,29.47,68.68Z"/><path class="cls-4" d="M36.56,68.68c0,1.94-.71,2.7-1.78,2.7S33,70.62,33,68.68,33.72,66,34.78,66,36.56,66.74,36.56,68.68Zm-2.71,0c0,1.51.35,2,.93,2s.95-.49.95-2-.36-2-.95-2S33.85,67.18,33.85,68.68Z"/><path class="cls-4" d="M42.24,65.81c.8,0,1.08.31,1.08.94v4c0,.73-.33,1-1,1a2.86,2.86,0,0,1-.57,0,.39.39,0,0,1-.33-.39.38.38,0,0,1,.38-.4h.07a2,2,0,0,0,.37,0c.16,0,.23-.06.23-.28V69.08h-4v2.47c0,.2-.2.29-.4.29s-.4-.09-.4-.29V66.76c0-.63.28-1,1.08-1Zm-2.19,2.56V66.53H38.91c-.34,0-.43.09-.43.37v1.47Zm.79,0h1.68V66.89c0-.28-.09-.36-.44-.36H40.84Z"/><path class="cls-4" d="M14.59,72.21v-.35H44v.35Z"/><path class="cls-4" d="M24.6,80.3a.24.24,0,0,1,0,.08.26.26,0,0,1-.27.2.23.23,0,0,1-.25-.21.2.2,0,0,1,0-.07c.09-.34.17-.71.24-1.08h-.6c-.14,0-.2-.11-.2-.23s.06-.23.2-.23h.67c0-.19.05-.38.07-.55,0-.35.22-.51.62-.51h1.78c.46,0,.63.21.63.52s0,.36,0,.54H28a.23.23,0,0,1,0,.46h-.56l-.06.61h.52a.21.21,0,0,1,.2.23.22.22,0,0,1-.2.24h-.58s0,.07,0,.1c-.07.44-.28.62-.69.62a1.23,1.23,0,0,1-.37,0,.23.23,0,0,1-.19-.23.23.23,0,0,1,.23-.24h.05l.25,0c.13,0,.19,0,.21-.21,0,0,0,0,0,0Zm3.26-3.43a.23.23,0,0,1,.22.25.23.23,0,0,1-.22.24H24.75a4,4,0,0,1-.63.73.24.24,0,0,1-.19.09.27.27,0,0,1-.27-.26.29.29,0,0,1,.11-.21,3.66,3.66,0,0,0,.9-1.27.25.25,0,0,1,.24-.16.28.28,0,0,1,.29.24.44.44,0,0,1,0,.1l-.12.25Zm-3,2.35c0,.21-.07.41-.11.61h.77c0-.2.06-.4.08-.61Zm.8-.46c0-.2,0-.4.05-.59h-.52c-.16,0-.2,0-.21.16s0,.27-.05.43Zm.45.46c0,.21-.05.41-.09.61h.88l.06-.61Zm.88-.46V78.3c0-.09,0-.13-.2-.13h-.58c0,.19,0,.39-.06.59Z"/><path class="cls-4" d="M30.85,77.51h-1a5.37,5.37,0,0,1-.68.89.32.32,0,0,1-.22.1.26.26,0,0,1-.26-.25.32.32,0,0,1,.1-.22,5.21,5.21,0,0,0,1-1.54.3.3,0,0,1,.28-.18.26.26,0,0,1,.28.23.23.23,0,0,1,0,.11c-.05.12-.11.24-.17.37H32.9a.22.22,0,0,1,.22.24.22.22,0,0,1-.22.25H31.39v.56h1.14a.23.23,0,0,1,.21.25.23.23,0,0,1-.21.25H31.39v.69h1.66a.22.22,0,0,1,.22.24.22.22,0,0,1-.22.25H31.39v1.06a.24.24,0,0,1-.27.23c-.14,0-.27-.07-.27-.23V79.75h-2a.22.22,0,0,1-.21-.25.22.22,0,0,1,.21-.24h.64v-.61c0-.4.17-.58.68-.58h.67Zm-.61,1.06c-.17,0-.21,0-.21.16v.53h.82v-.69Z"/><path class="cls-4" d="M34.42,79a4.36,4.36,0,0,1-.51,0c-.14,0-.21-.11-.21-.23s.06-.23.2-.23h.2a4.66,4.66,0,0,0,.3-.47,6.57,6.57,0,0,0-.55-.62.22.22,0,0,1-.06-.15.23.23,0,0,1,.23-.22.27.27,0,0,1,.15,0,4.59,4.59,0,0,0,.27-.6.23.23,0,0,1,.23-.16.23.23,0,0,1,.24.22.25.25,0,0,1,0,.08,5.51,5.51,0,0,1-.4.81,1.15,1.15,0,0,1,.14.17,4.83,4.83,0,0,0,.23-.45.21.21,0,0,1,.2-.13.24.24,0,0,1,.25.22.26.26,0,0,1,0,.11,10.79,10.79,0,0,1-.66,1.11l.38,0L35,78.35a.16.16,0,0,1,0-.08.2.2,0,0,1,.22-.18.22.22,0,0,1,.18.1,4.18,4.18,0,0,1,.3.64.17.17,0,0,1,0,.07.22.22,0,0,1-.23.21.19.19,0,0,1-.19-.14l0-.08-.27,0v1.91c0,.13-.12.19-.24.19s-.25-.06-.25-.19Zm-.28.27a.19.19,0,0,1,.21.19,3.57,3.57,0,0,1-.21,1,.21.21,0,0,1-.2.14.19.19,0,0,1-.21-.18.15.15,0,0,1,0-.09,3.57,3.57,0,0,0,.19-.85A.19.19,0,0,1,34.14,79.25Zm1.4.79v0a.2.2,0,0,1-.4,0,5.27,5.27,0,0,0-.14-.69.11.11,0,0,1,0,0,.18.18,0,0,1,.2-.17.18.18,0,0,1,.18.13A3.66,3.66,0,0,1,35.54,80Zm.15-3.39c0-.14.13-.21.26-.21a.23.23,0,0,1,.25.21v3.61c0,.13,0,.16.21.16h1.76c.14,0,.2.11.2.23s-.06.24-.2.24H36.29c-.44,0-.6-.16-.6-.53ZM37,79.19a2.88,2.88,0,0,1-.34.56.25.25,0,0,1-.21.12.2.2,0,0,1-.21-.2.27.27,0,0,1,.07-.17,4.28,4.28,0,0,0,.58-1.06H36.5a.2.2,0,0,1-.18-.22c0-.11.06-.22.17-.22H37V76.61a.24.24,0,0,1,.48,0V78H38c.13,0,.18.11.18.22s-.05.22-.18.22H37.5v.21a3.11,3.11,0,0,1,.62.64.23.23,0,0,1,.07.16.22.22,0,0,1-.23.22.22.22,0,0,1-.19-.11,4.22,4.22,0,0,0-.27-.36v.92a.24.24,0,0,1-.48,0v-.35Zm-.11-1.63a.09.09,0,0,1,0,0,.23.23,0,0,1-.23.21.2.2,0,0,1-.19-.15,2.45,2.45,0,0,0-.17-.45.31.31,0,0,1,0-.08.21.21,0,0,1,.22-.19.22.22,0,0,1,.19.12A2.26,2.26,0,0,1,36.93,77.56ZM38,76.9a.22.22,0,0,1,.23.2.13.13,0,0,1,0,.06,3.36,3.36,0,0,1-.24.58.22.22,0,0,1-.19.1.2.2,0,0,1-.22-.18.13.13,0,0,1,0-.08A2.74,2.74,0,0,0,37.8,77,.21.21,0,0,1,38,76.9Z"/><path class="cls-4" d="M40.77,79a.24.24,0,0,1-.23.16.19.19,0,0,1-.19-.14l0-.08-.26,0v1.92c0,.12-.12.18-.24.18s-.25-.06-.25-.18V79l-.5,0a.21.21,0,0,1-.22-.23.21.21,0,0,1,.21-.23h.19a4.66,4.66,0,0,0,.3-.47,6.67,6.67,0,0,0-.54-.62.19.19,0,0,1-.07-.15.24.24,0,0,1,.23-.22.19.19,0,0,1,.15.06,4.72,4.72,0,0,0,.27-.61.23.23,0,0,1,.23-.16.22.22,0,0,1,.24.21.29.29,0,0,1,0,.09,4.59,4.59,0,0,1-.39.81,1.15,1.15,0,0,1,.14.17c.09-.16.16-.31.23-.45a.21.21,0,0,1,.2-.13.25.25,0,0,1,.25.22.43.43,0,0,1,0,.11,10,10,0,0,1-.68,1.11l.39,0s0-.09-.07-.13a.31.31,0,0,1,0-.08.2.2,0,0,1,.21-.18.22.22,0,0,1,.18.1,3.45,3.45,0,0,1,.29.62l0,0V78.8c0-.32.1-.5.55-.5h1.59c.44,0,.55.18.55.5v.25a.23.23,0,0,1-.25.21.22.22,0,0,1-.25-.21v-.19c0-.1,0-.12-.16-.12H41.43c-.12,0-.16,0-.16.12v.21a.23.23,0,0,1-.25.21.22.22,0,0,1-.25-.21Zm-1.47.3a.19.19,0,0,1,.2.19,3.64,3.64,0,0,1-.21,1,.21.21,0,0,1-.2.14.2.2,0,0,1-.21-.18.29.29,0,0,1,0-.09,4.1,4.1,0,0,0,.2-.85A.19.19,0,0,1,39.3,79.25Zm1.38.74v0a.2.2,0,0,1-.21.19.18.18,0,0,1-.19-.16,4.56,4.56,0,0,0-.14-.64.43.43,0,0,0,0,0,.19.19,0,0,1,.2-.17.2.2,0,0,1,.19.13A5.28,5.28,0,0,1,40.68,80Zm1-1a.23.23,0,0,1,.26.22,2.35,2.35,0,0,1-.19.79,1.82,1.82,0,0,1-.93.94.3.3,0,0,1-.12,0,.25.25,0,0,1-.26-.26.25.25,0,0,1,.16-.23,1.44,1.44,0,0,0,.83-1.28A.23.23,0,0,1,41.68,79Zm.13-1.65h-.89a.22.22,0,0,1-.22-.23.22.22,0,0,1,.22-.22h.89v-.32a.26.26,0,0,1,.52,0v.32h1a.21.21,0,0,1,.21.22.22.22,0,0,1-.21.23h-1v.29h.76a.21.21,0,0,1,.21.22.22.22,0,0,1-.21.23H41.18a.22.22,0,0,1-.22-.23.21.21,0,0,1,.22-.22h.63Zm.86,3c0,.08,0,.11.16.11s.23,0,.26-.35a.22.22,0,0,1,.24-.19.23.23,0,0,1,.25.21v0c0,.54-.2.77-.75.77s-.67-.13-.67-.44V79.17a.23.23,0,0,1,.25-.2c.13,0,.26.07.26.2Z"/><path class="cls-4" d="M44.79,76.82a.28.28,0,0,1,.3-.25.26.26,0,0,1,.28.25c0,.06,0,.19,0,.24,0,.74-.09,1.51-.09,2.25s.21.85.56.85a1.68,1.68,0,0,0,1.36-.76.3.3,0,0,1,.24-.12.29.29,0,0,1,.3.27.32.32,0,0,1-.07.19,2.27,2.27,0,0,1-1.83,1c-.74,0-1.14-.37-1.14-1.41C44.69,78.51,44.74,77.56,44.79,76.82Z"/><path class="cls-4" d="M50.46,77.56l-2.12.31h-.05a.27.27,0,0,1-.28-.28.28.28,0,0,1,.26-.28c1-.13,2.34-.27,3.38-.37h0a.26.26,0,0,1,.27.27.27.27,0,0,1-.23.27,1.53,1.53,0,0,0-.55.2,1.56,1.56,0,0,0-1,1.44c0,.56.39.9,1.09,1a.3.3,0,0,1,.27.3.29.29,0,0,1-.3.29l-.37,0a1.54,1.54,0,0,1-1.27-1.5,2,2,0,0,1,.82-1.57Z"/><path class="cls-4" d="M13.55,86.14h-.26a.2.2,0,0,1-.18-.22.43.43,0,0,1,0-.11l-.4.35a.32.32,0,0,1-.18.06A.25.25,0,0,1,12.3,86v0h-.4v.44a3.15,3.15,0,0,1,.52.57.24.24,0,0,1,.06.15.22.22,0,0,1-.22.21.2.2,0,0,1-.18-.1L11.9,87v1.86a.23.23,0,0,1-.25.22.22.22,0,0,1-.25-.22V87.06a3.48,3.48,0,0,1-.33.7.22.22,0,0,1-.19.11.22.22,0,0,1-.22-.22.27.27,0,0,1,0-.14,5.26,5.26,0,0,0,.63-1.58h-.41c-.13,0-.19-.12-.19-.24s.06-.24.18-.24h.48v-.91c0-.13.12-.19.25-.19s.25.06.25.19v.91h.33c.13,0,.19.12.19.24v0h0a4.13,4.13,0,0,0,1.16-1.25.26.26,0,0,1,.22-.12.28.28,0,0,1,.29.25s0,0,0,.06a5.27,5.27,0,0,0,1.18,1,.28.28,0,0,1-.12.52.26.26,0,0,1-.17,0c-.13-.09-.27-.19-.4-.3a.24.24,0,0,1-.17.33h-.36v.26h.45c.4,0,.54.13.54.44v.35c0,.37-.19.45-.54.45h-.37a2.31,2.31,0,0,0,1,.78A.27.27,0,0,1,15,89a.48.48,0,0,1-.15,0,3,3,0,0,1-1.06-1,2.18,2.18,0,0,1-1.1,1,.27.27,0,0,1-.12,0,.26.26,0,0,1-.26-.25.24.24,0,0,1,.18-.23,1.73,1.73,0,0,0,.91-.85h-.26c-.4,0-.53-.14-.53-.45v-.35c0-.31.13-.44.53-.44h.4Zm0,1.1a2.56,2.56,0,0,0,0-.39v0H13.2c-.08,0-.11,0-.11.09v.27c0,.06.05.08.11.08Zm.88-1.54h0a6.44,6.44,0,0,1-.64-.64,4.92,4.92,0,0,1-.57.64h1.17ZM14,86.82a3,3,0,0,1,0,.42h.45c.08,0,.11,0,.11-.08v-.27c0-.06,0-.09-.11-.09H14Z"/><path class="cls-4" d="M18.39,86v.26c0,.14-.13.21-.27.21s-.26-.07-.26-.21v-.52a6,6,0,0,1-1.68,1.13l-.13,0a.25.25,0,0,1-.25-.25.23.23,0,0,1,.16-.22,6,6,0,0,0,1.59-1H16.25a.23.23,0,0,1,0-.46h1.61v-.42c0-.13.13-.2.26-.2s.27.07.27.2v.42h1.68a.23.23,0,0,1,0,.46H18.69a6.4,6.4,0,0,0,1.61.94.24.24,0,0,1,.18.23.26.26,0,0,1-.25.26l-.11,0a6,6,0,0,1-1.75-1.12ZM16.81,87c0-.36.19-.51.63-.51h1.39c.45,0,.63.15.63.51v1.42h.69a.19.19,0,0,1,.18.21.2.2,0,0,1-.18.22h-4a.2.2,0,0,1-.19-.22.19.19,0,0,1,.19-.21h.68Zm2.14,0c0-.11,0-.14-.2-.14H17.52c-.16,0-.2,0-.2.14v.12H19Zm-1.63.76H19v-.27H17.32Zm1.63.63V88.2H17.32v.26Z"/><path class="cls-4" d="M21.69,84.82a.27.27,0,0,1,.29-.25.27.27,0,0,1,.3.25,1.79,1.79,0,0,1,0,.24c-.05.74-.09,1.51-.09,2.25s.2.85.56.85a1.68,1.68,0,0,0,1.36-.76.3.3,0,0,1,.24-.12.29.29,0,0,1,.3.27.32.32,0,0,1-.07.19,2.27,2.27,0,0,1-1.83,1c-.75,0-1.14-.37-1.14-1.41C21.59,86.51,21.64,85.56,21.69,84.82Z"/><path class="cls-4" d="M26.37,86.52c-.23.09-.47.19-.74.32a.27.27,0,0,1-.12,0,.27.27,0,0,1-.09-.52L26.2,86l-.29-.83a.22.22,0,0,1,0-.08.27.27,0,0,1,.3-.24.26.26,0,0,1,.25.16l.27.8a4.91,4.91,0,0,1,1.67-.33c.78,0,1.23.36,1.23.92a1,1,0,0,1-1.07,1,2.24,2.24,0,0,1-.49-.05.31.31,0,0,1-.26-.29.27.27,0,0,1,.28-.27h.1a1.78,1.78,0,0,0,.35,0c.32,0,.51-.16.51-.43s-.19-.4-.66-.4a4.33,4.33,0,0,0-1.49.31l.74,2.2a.44.44,0,0,1,0,.1.28.28,0,0,1-.29.26.25.25,0,0,1-.25-.18Zm1.88-1.41a.29.29,0,0,1-.29.28.3.3,0,0,1-.2-.08,3.06,3.06,0,0,0-.49-.35.26.26,0,0,1,.15-.49.31.31,0,0,1,.18,0,2.49,2.49,0,0,1,.54.37A.28.28,0,0,1,28.25,85.11Z"/><path class="cls-4" d="M32.56,87.72a.55.55,0,0,1-.37.12.82.82,0,0,1-.85-.9.76.76,0,0,1,.78-.83,1.54,1.54,0,0,1,.3,0l0-.4-1.73.09h-.22a.27.27,0,0,1-.27-.28.26.26,0,0,1,.26-.27l2-.1c0-.18,0-.38,0-.61a.28.28,0,0,1,.56,0v.59l1.46,0a.27.27,0,0,1,0,.54l-1.48,0c0,.29,0,.58,0,.87a1.27,1.27,0,0,1,.17.66A1.75,1.75,0,0,1,32,88.93l-.13,0a.28.28,0,0,1-.09-.54,1.41,1.41,0,0,0,.77-.7ZM31.87,87a.37.37,0,0,0,.35.39c.17,0,.29-.12.29-.35a.36.36,0,0,0-.35-.4C32,86.6,31.87,86.74,31.87,87Z"/><path class="cls-4" d="M35.75,85a.27.27,0,0,1,.3.26c0,.07,0,.32,0,.47,0,1.76.35,2.22.56,2.22s.23-.08.33-.46a.25.25,0,0,1,.25-.21.27.27,0,0,1,.29.27.22.22,0,0,1,0,.08c-.19.67-.51.92-.84.92-.73,0-1.17-.9-1.17-2.8,0-.23,0-.38,0-.51A.28.28,0,0,1,35.75,85Zm3.78,2.12a.52.52,0,0,1,0,.11.28.28,0,0,1-.55.07,4.31,4.31,0,0,0-.87-1.36.31.31,0,0,1-.08-.19.28.28,0,0,1,.29-.25.35.35,0,0,1,.22.09A4.1,4.1,0,0,1,39.53,87.1Z"/><path class="cls-4" d="M40.66,86.6l-.08.14a.3.3,0,0,1-.25.14.25.25,0,0,1-.26-.24.29.29,0,0,1,.06-.17,6.31,6.31,0,0,0,.73-1.89.26.26,0,0,1,.27-.19.26.26,0,0,1,.29.24s0,.05,0,.07A7,7,0,0,1,41,86a.21.21,0,0,1,.21.2v2.67c0,.13-.14.2-.27.2s-.27-.07-.27-.2Zm1.75-1.42h-.68a.23.23,0,0,1-.21-.25.22.22,0,0,1,.21-.24h2.86c.14,0,.2.12.2.24s-.06.25-.2.25h-.83v.6H44c.44,0,.63.15.63.55v2c0,.44-.23.55-.63.55H42.18c-.44,0-.63-.15-.63-.55v-2c0-.4.19-.55.63-.55h.23Zm0,3.19V86.25h-.18c-.12,0-.16,0-.16.16V88.2c0,.12,0,.17.16.17Zm.86-3.19h-.36v.6h.36Zm-.36,1.07v2.12h.36V86.25Zm.85,2.12H44c.11,0,.15,0,.15-.17V86.41c0-.13,0-.16-.15-.16h-.22Z"/><path class="cls-4" d="M45.51,85.89c-.13,0-.19-.12-.19-.24s.06-.24.18-.24H46v-.87c0-.13.13-.2.26-.2s.25.07.25.2v.87h.35a.25.25,0,0,1,0,.48h-.35v.22a3.17,3.17,0,0,1,.49.48.27.27,0,0,1,.06.16.21.21,0,0,1,0,.11h0a5.15,5.15,0,0,0,1.09-.65,5.07,5.07,0,0,1-.36-.45l-.18.22a.31.31,0,0,1-.21.1.25.25,0,0,1-.25-.24.23.23,0,0,1,.07-.17,4.08,4.08,0,0,0,.71-1.14.22.22,0,0,1,.23-.15.26.26,0,0,1,.27.23.18.18,0,0,1,0,.1,2.44,2.44,0,0,1-.1.24h.65c.31,0,.48.14.48.35a.59.59,0,0,1-.1.31,4.33,4.33,0,0,1-.47.61,3.46,3.46,0,0,0,.92.5A.29.29,0,0,1,50,87a.26.26,0,0,1-.26.27l-.12,0a4,4,0,0,1-1.1-.67,5.34,5.34,0,0,1-1.24.77.3.3,0,0,1-.12,0,.26.26,0,0,1-.25-.26.37.37,0,0,1,0-.14.16.16,0,0,1-.09,0,.23.23,0,0,1-.18-.09.9.9,0,0,0-.15-.19v2.13a.22.22,0,0,1-.25.22.23.23,0,0,1-.26-.22v-.72L46,87a5.69,5.69,0,0,1-.34.7.22.22,0,0,1-.19.11.24.24,0,0,1-.23-.22.37.37,0,0,1,0-.14,5.37,5.37,0,0,0,.65-1.58ZM48,89c-.41,0-.58-.16-.58-.49v-.75c0-.33.17-.49.58-.49h.91c.41,0,.58.16.58.49v.75c0,.38-.23.49-.58.49Zm.83-.46c.1,0,.14,0,.14-.13V87.8c0-.09,0-.12-.14-.12H48.1c-.1,0-.14,0-.14.12v.56c0,.1,0,.13.14.13Zm-.78-3.12a3.33,3.33,0,0,0,.4.51,2.91,2.91,0,0,0,.33-.4.13.13,0,0,0,0-.07s0,0-.11,0Z"/><path class="cls-4" d="M50.53,85.75c-.13,0-.2-.12-.2-.25a.23.23,0,0,1,.2-.25h1.56a.23.23,0,0,1,.21.25.22.22,0,0,1-.21.25Zm.57,3.16c-.38,0-.5-.15-.5-.46v-.6c0-.31.12-.46.5-.46h.52c.38,0,.5.15.5.46v.6c0,.36-.16.46-.5.46ZM50.82,85a.21.21,0,0,1-.19-.23c0-.12.06-.24.19-.24h1c.13,0,.19.12.19.24a.21.21,0,0,1-.19.23Zm0,1.44c-.13,0-.19-.12-.19-.24s.06-.23.19-.23h1c.13,0,.19.11.19.23s-.06.24-.19.24Zm0,.7c-.13,0-.19-.12-.19-.24s.06-.23.19-.23h1c.13,0,.19.11.19.23s-.06.24-.19.24Zm.7,1.3c.08,0,.1,0,.1-.11V88c0-.08,0-.11-.1-.11H51.2c-.08,0-.1,0-.1.11v.4c0,.08,0,.11.1.11Zm2.56-1.91c.33,0,.51.14.51.37a.82.82,0,0,1-.09.33A2.62,2.62,0,0,1,54,88a3.11,3.11,0,0,0,.75.43.28.28,0,0,1,.21.26.27.27,0,0,1-.26.27l-.1,0a2.88,2.88,0,0,1-1-.6,3.63,3.63,0,0,1-1.1.64.23.23,0,0,1-.11,0,.25.25,0,0,1-.25-.24.26.26,0,0,1,.19-.24A3.14,3.14,0,0,0,53.3,88a3.41,3.41,0,0,1-.55-.94h-.18a.21.21,0,0,1-.2-.23.21.21,0,0,1,.2-.23Zm-.35-2c.38,0,.5.17.5.45v.76c0,.06,0,.07.1.07s.15,0,.18-.26a.21.21,0,0,1,.23-.19.22.22,0,0,1,.24.21v0c0,.5-.23.66-.72.66s-.53-.11-.53-.41v-.75c0-.08,0-.12-.11-.12h-.23c-.08,0-.11,0-.11.12v.14a1.34,1.34,0,0,1-.56,1.14.32.32,0,0,1-.17.06.27.27,0,0,1-.27-.25.28.28,0,0,1,.13-.22.91.91,0,0,0,.37-.81V85c0-.28.13-.45.49-.45ZM53.27,87a2.44,2.44,0,0,0,.39.61,2.83,2.83,0,0,0,.34-.51l0,0s0,0-.09,0Z"/><path class="cls-4" d="M58.12,88.33a5.78,5.78,0,0,0,.63,0,9.37,9.37,0,0,0,1-.06h0a.25.25,0,0,1,.26.26.26.26,0,0,1-.23.25,9.75,9.75,0,0,1-1.11,0c-1.13,0-1.71-.22-2.13-.85a3.73,3.73,0,0,1-.52.79.3.3,0,0,1-.23.11.25.25,0,0,1-.21-.42A4,4,0,0,0,56.46,87a.23.23,0,0,1,.24-.18A.26.26,0,0,1,57,87a.11.11,0,0,1,0,0,3.38,3.38,0,0,1-.13.42,1.42,1.42,0,0,0,.72.69V86.41H56.43a.21.21,0,0,1-.19-.23.21.21,0,0,1,.19-.23h2.82c.13,0,.19.11.19.23a.21.21,0,0,1-.19.23H58.12v.64H59.2a.21.21,0,0,1,.2.23.22.22,0,0,1-.2.24H58.12Zm-.6-3.79c0-.14.14-.21.28-.21s.28.07.28.21v.36H59.3c.48,0,.65.17.65.52v.34c0,.15-.13.22-.27.22s-.28-.07-.28-.22V85.5c0-.1,0-.15-.19-.15H56.42c-.14,0-.19.05-.19.15v.29A.25.25,0,0,1,56,86a.25.25,0,0,1-.28-.22v-.37c0-.35.18-.52.65-.52h1.19Z"/><path class="cls-4" d="M62.37,88a.84.84,0,1,1-.84-.83A.83.83,0,0,1,62.37,88ZM61,88a.49.49,0,0,0,.5.49.49.49,0,1,0,0-1A.49.49,0,0,0,61,88Z"/><path class="cls-4" d="M46.68,65.54a.21.21,0,0,1,.12-.05.15.15,0,0,1,.15.14.16.16,0,0,1-.06.13,2.24,2.24,0,0,0,0,3.4.18.18,0,0,1,.06.13.15.15,0,0,1-.15.14.16.16,0,0,1-.12-.05,2.45,2.45,0,0,1,0-3.84Z"/><path class="cls-4" d="M47.83,67.87a2.88,2.88,0,0,1-.3.55.21.21,0,0,1-.16.1.17.17,0,0,1-.18-.17.17.17,0,0,1,0-.11A4.44,4.44,0,0,0,47.77,67H47.4c-.1,0-.15-.09-.15-.19s0-.18.14-.18h.42v-.36l-.29,0h0a.18.18,0,0,1-.18-.19.17.17,0,0,1,.15-.18,5.4,5.4,0,0,0,.9-.27l.09,0a.2.2,0,0,1,.19.21.17.17,0,0,1-.11.17l-.32.12v.47h.31a.16.16,0,0,1,.15.18c0,.1-.05.19-.15.19h-.31v.27a2,2,0,0,1,.43.38.27.27,0,0,1,0,.13.19.19,0,0,1-.18.18.17.17,0,0,1-.14-.07l-.16-.18v1.45c0,.11-.1.16-.2.16s-.2,0-.2-.16v-.44Zm1.82-.09a1.78,1.78,0,0,1-.91,1.48.2.2,0,0,1-.31-.17.24.24,0,0,1,.12-.19,1.32,1.32,0,0,0,.69-1.12c-.27,0-.38-.12-.38-.39v-.5c0-.28.11-.41.49-.41h.45a3.86,3.86,0,0,0,.29-.69.2.2,0,0,1,.2-.13.21.21,0,0,1,.23.19.2.2,0,0,1,0,.07,3.2,3.2,0,0,1-.26.56c.37,0,.46.17.46.41v.5c0,.32-.17.38-.47.39v1c0,.06,0,.08.14.08s.18,0,.21-.25a.17.17,0,0,1,.18-.15.18.18,0,0,1,.2.18v0c0,.45-.19.57-.61.57s-.52-.07-.52-.35V67.78Zm0-1.69a.2.2,0,0,1,0,.1.21.21,0,0,1-.22.2.19.19,0,0,1-.17-.1,3.3,3.3,0,0,0-.18-.32.19.19,0,0,1,0-.1.2.2,0,0,1,.21-.18.23.23,0,0,1,.18.09C49.48,65.88,49.55,66,49.6,66.09Zm.54,1.33c.12,0,.16,0,.16-.13V67c0-.08,0-.12-.16-.12h-.71c-.13,0-.16,0-.16.12v.33c0,.1,0,.13.16.13Z"/><path class="cls-4" d="M52.07,67.13c-.3,0-.46-.1-.46-.42v-.52c0-.29.15-.42.48-.42h.75c.33,0,.49.13.49.42v.52c0,.29-.16.42-.49.42h-.35c0,.13,0,.26,0,.39h.42c.33,0,.46.15.46.39a3.91,3.91,0,0,1-.09.86c-.08.35-.25.48-.54.48a1.33,1.33,0,0,1-.28,0,.19.19,0,0,1-.17-.2.2.2,0,0,1,.2-.21h0a.62.62,0,0,0,.18,0c.08,0,.12,0,.15-.14a3.13,3.13,0,0,0,.08-.7c0-.07,0-.09-.12-.09h-.4a2.43,2.43,0,0,1-.65,1.25.28.28,0,0,1-.2.09.18.18,0,0,1-.19-.19.27.27,0,0,1,.07-.18,2.41,2.41,0,0,0,.65-1.74Zm.69-.36c.1,0,.14,0,.14-.12v-.39c0-.08,0-.12-.14-.12h-.59c-.1,0-.14,0-.14.12v.39c0,.08,0,.12.14.12Zm.94-.67a.2.2,0,0,1,.22-.18.19.19,0,0,1,.21.18v2.13a.19.19,0,0,1-.21.18.2.2,0,0,1-.22-.18Zm1.2,2.68c0,.33-.13.47-.49.47a1.29,1.29,0,0,1-.29,0A.2.2,0,0,1,54,69a.2.2,0,0,1,.2-.21h0l.18,0c.05,0,.1,0,.1-.13V65.86c0-.12.1-.18.22-.18a.19.19,0,0,1,.21.18Z"/><path class="cls-4" d="M55.68,69.38a.13.13,0,0,1-.11.05.15.15,0,0,1-.15-.14.18.18,0,0,1,.06-.13,2.26,2.26,0,0,0,0-3.4.16.16,0,0,1-.06-.13.15.15,0,0,1,.15-.14.16.16,0,0,1,.11.05,2.43,2.43,0,0,1,0,3.84Z"/><path class="cls-4" d="M48.94,73l-.1.1-1.52-1.51-1.5,1.51-.1-.1,1.51-1.51L45.73,70l.1-.09,1.49,1.5,1.5-1.5.1.09-1.5,1.5Zm-2.26-1.51a.36.36,0,0,1-.36.36.36.36,0,0,1-.36-.36.36.36,0,0,1,.36-.36A.37.37,0,0,1,46.68,71.46Zm1-1a.36.36,0,0,1-.72,0,.36.36,0,0,1,.72,0Zm0,2a.36.36,0,1,1-.36-.36A.36.36,0,0,1,47.68,72.47Zm1-1a.36.36,0,0,1-.36.36.36.36,0,0,1-.36-.36.37.37,0,0,1,.36-.36A.36.36,0,0,1,48.68,71.46Z"/><path class="cls-4" d="M50.39,73.22c-.41,0-.59-.17-.59-.48V70.62c0-.31.18-.48.59-.48h.36c0-.14.1-.28.14-.42a.21.21,0,0,1,.22-.16.21.21,0,0,1,.22.2.22.22,0,0,1,0,.08c0,.1-.07.2-.11.3h.62c.4,0,.58.17.58.48v2.12c0,.38-.25.48-.58.48ZM52,70.71c0-.11,0-.18-.19-.18H50.43c-.15,0-.19.07-.19.18V71H52Zm-1.73,1.18H52v-.5H50.24Zm1.54.93c.15,0,.19-.07.19-.18v-.37H50.24v.37c0,.13.07.18.19.18Z"/><path class="cls-4" d="M53.82,71.65v-.06a2.81,2.81,0,0,1-.42.17h0a.18.18,0,0,1-.17-.18.16.16,0,0,1,.13-.16A1.84,1.84,0,0,0,54,71h-.29a.21.21,0,0,1-.21.13c-.1,0-.19-.06-.19-.14a.09.09,0,0,1,0,0c0-.11.08-.25.11-.37s.14-.3.42-.3h.46v-.18h-.91a.14.14,0,0,1,0-.28h.91v-.11a.17.17,0,0,1,.19-.16.18.18,0,0,1,.2.16v.11h.44v-.11c0-.1.1-.15.2-.15s.19,0,.19.15v.11h.52c.27,0,.39.08.39.28v.17c0,.2-.12.28-.39.28h-.52v.18h.84c.21,0,.32.08.32.23s0,0,0,.07a1.05,1.05,0,0,1,0,.19.32.32,0,0,1-.35.24l-.22,0a.37.37,0,0,1,0,.18v.8c0,.29-.19.33-.44.33h-.17a5.7,5.7,0,0,0,.94.22.17.17,0,0,1,.16.17.17.17,0,0,1-.17.18h0a6.18,6.18,0,0,1-1-.26.18.18,0,0,1-.12-.16.16.16,0,0,1,.11-.15h-.86a.18.18,0,0,1,.12.16.17.17,0,0,1-.12.15,5.18,5.18,0,0,1-1,.26h0a.17.17,0,0,1-.17-.18.17.17,0,0,1,.16-.17,5,5,0,0,0,.92-.22h-.11c-.33,0-.44-.1-.44-.33Zm.42-.89.06-.18H54c-.07,0-.09,0-.11.07l0,.11Zm1.52.9c0-.07,0-.08-.13-.08H54.34c-.11,0-.13,0-.13.08v.07h1.55Zm-1.55.46h1.55V72H54.21Zm1.42.4c.11,0,.13,0,.13-.08v-.08H54.21v.08c0,.08.06.08.13.08Zm.08-1.2a.6.6,0,0,1,.29.05.08.08,0,0,1,0,0,.14.14,0,0,1,.14-.14h.12s0,0,.06,0,0-.07,0-.09,0,0,0,0h-.7v.09c0,.1-.1.14-.19.14s-.2,0-.2-.14V71H54.5a2.27,2.27,0,0,1-.26.28Zm-.52-.56v-.18H54.7l-.06.18Zm0-.45v-.18h-.44v.18Zm.84,0s.07,0,.07-.06v-.06s0-.06-.07-.06h-.45v.18Z"/><path class="cls-4" d="M57.29,70.73c-.11,0-.16-.1-.16-.2s0-.2.16-.2h1.24a.2.2,0,0,1,0,.4Zm.45,2.52c-.3,0-.4-.12-.4-.36V72.4c0-.25.1-.37.4-.37h.41c.31,0,.41.12.41.37v.49c0,.28-.13.36-.41.36Zm-.23-3.1c-.1,0-.15-.1-.15-.19s0-.19.15-.19h.84c.1,0,.15.09.15.19s0,.19-.15.19Zm0,1.14c-.1,0-.15-.1-.15-.19s0-.19.15-.19h.84c.1,0,.15.1.15.19s0,.19-.15.19Zm0,.56c-.1,0-.15-.1-.15-.19s0-.19.15-.19h.84c.1,0,.15.1.15.19s0,.19-.15.19Zm.56,1c.07,0,.09,0,.09-.09v-.31c0-.07,0-.1-.09-.1h-.25c-.06,0-.08,0-.08.1v.31c0,.07,0,.09.08.09Zm2.77-2a.22.22,0,0,1,.1.18.23.23,0,0,1-.22.23.29.29,0,0,1-.18-.08,5,5,0,0,1-.8-1,4,4,0,0,1-.75.92.23.23,0,0,1-.16.07.2.2,0,0,1-.2-.19.21.21,0,0,1,.08-.17,3.49,3.49,0,0,0,.83-1.14.21.21,0,0,1,.2-.13.21.21,0,0,1,.21.19.13.13,0,0,1,0,.06A4.18,4.18,0,0,0,60.84,70.9Zm-.27,1.2a.22.22,0,0,1,.21.2.21.21,0,0,1-.09.16,4.83,4.83,0,0,1-1.68.79h0a.2.2,0,0,1-.2-.2.2.2,0,0,1,.17-.19,4.7,4.7,0,0,0,1.51-.72A.17.17,0,0,1,60.57,72.1Zm-.7-1.22a.21.21,0,0,1,.21.19.18.18,0,0,1-.06.13,3,3,0,0,1-.86.64l-.1,0a.18.18,0,0,1-.07-.35,2.41,2.41,0,0,0,.74-.56A.17.17,0,0,1,59.87,70.88Zm.35.59a.2.2,0,0,1,.14.34,3.78,3.78,0,0,1-1.22.72l-.08,0a.19.19,0,0,1-.18-.19.18.18,0,0,1,.13-.18,3.24,3.24,0,0,0,1.07-.65A.2.2,0,0,1,60.22,71.47Z"/><path class="cls-4" d="M64.12,70.87a1,1,0,0,0,.21.21l.14-.13a.16.16,0,0,1,.12,0,.18.18,0,0,1,.18.17.14.14,0,0,1-.06.12.52.52,0,0,1-.11.1,1.23,1.23,0,0,0,.25.14.21.21,0,0,1,.12.18.2.2,0,0,1-.18.2.18.18,0,0,1-.1,0l-.34-.22v.5c0,.24-.12.33-.39.33h-.2v.52c0,.29-.12.41-.44.41a.8.8,0,0,1-.23,0,.17.17,0,0,1-.15-.18.18.18,0,0,1,.17-.2h0l.13,0c.06,0,.07,0,.07-.07V72.4h-.23c-.26,0-.39-.09-.39-.33v-.43l-.21.15a.19.19,0,0,1-.12,0,.16.16,0,0,1-.16-.16.17.17,0,0,1,.09-.16l.25-.19-.12-.1a.14.14,0,0,1-.07-.12.18.18,0,0,1,.17-.17.17.17,0,0,1,.1,0,1.09,1.09,0,0,1,.17.13c.06-.08.12-.14.17-.22h-.46a.15.15,0,0,1-.15-.16.15.15,0,0,1,.15-.17h.67a1.19,1.19,0,0,0,.08-.16.21.21,0,0,1,.11-.1h-1c-.16,0-.2,0-.2.15V71a3.86,3.86,0,0,1-.49,2,.23.23,0,0,1-.19.11.2.2,0,0,1-.22-.19.24.24,0,0,1,0-.13,2.61,2.61,0,0,0,.38-1,2,2,0,0,1-.25.14.19.19,0,0,1-.1,0,.21.21,0,0,1-.2-.2.19.19,0,0,1,.13-.17,3,3,0,0,0,.47-.26c0-.13,0-.26,0-.39a.21.21,0,0,1-.18.11.19.19,0,0,1-.17-.1,2.09,2.09,0,0,0-.17-.28.22.22,0,0,1,0-.1.2.2,0,0,1,.2-.18.21.21,0,0,1,.16.08,2.32,2.32,0,0,1,.19.31v-.49c0-.32.14-.46.55-.46h.81v-.22c0-.11.11-.16.21-.16s.21,0,.21.16v.22h1.23a.16.16,0,0,1,.15.17.16.16,0,0,1-.15.18H63.54a.18.18,0,0,1,.12.23s0,0,0,0h1a.15.15,0,0,1,.15.17.15.15,0,0,1-.15.16Zm-1.23,1.58a.22.22,0,0,1,.21.2.18.18,0,0,1-.06.13,3.08,3.08,0,0,1-.52.37l-.11,0a.21.21,0,0,1-.2-.2.2.2,0,0,1,.11-.18,1.77,1.77,0,0,0,.44-.29A.18.18,0,0,1,62.89,72.45Zm1.1-.82c0-.06,0-.08-.1-.08H63.2c-.09,0-.11,0-.11.08v.08H64Zm-.1.49c.08,0,.1,0,.1-.08V72h-.9V72c0,.07,0,.08.11.08Zm.07-.85H64a4.12,4.12,0,0,1-.32-.41h-.26a3.19,3.19,0,0,1-.33.4Zm.76,1.5a.19.19,0,0,1,.11.17.2.2,0,0,1-.2.21.27.27,0,0,1-.12,0A3.26,3.26,0,0,1,64,72.8a.19.19,0,0,1-.08-.16.2.2,0,0,1,.2-.18.18.18,0,0,1,.13.05A3.5,3.5,0,0,0,64.72,72.77Z"/></g><g id="レイヤー_3" data-name="レイヤー 3"><path class="cls-4" d="M36.47,50.88h3.34c7.9,0,8.35-1.72,8.2-4.85s-3.13-5-3.13-5,0-4.55-6.41-4.55h-.65C31.4,36.49,31.4,41,31.4,41s-3,1.86-3.13,5S28.57,50.88,36.47,50.88Zm.37-11.18,1.37,4.69,1.23-4.69h2.32L40,44h1.34v1.13H39.59l-.28.71h2.07V47H39.26v2H37V47H34.9V45.85H37l-.28-.71H34.9V44h1.34L34.52,39.7Z"/><path class="cls-4" d="M29.93,41.3h0a.78.78,0,0,0,.77-.77c0-.2.14-4.77,7-4.77h.8c6.89,0,7,4.57,7,4.76a.77.77,0,0,0,.77.78.78.78,0,0,0,.78-.78c0-.06-.09-5.75-7.48-6.27.15-.38.26-.72.26-.72a2.18,2.18,0,0,0,1.63-.45,1.65,1.65,0,0,0,.35-1.22,1.52,1.52,0,0,0-.36-1,1.45,1.45,0,0,0-1.19-.34,2.21,2.21,0,0,0-1.44.69,2.69,2.69,0,0,0-.58,1.72c0,.43,0,.86,0,1.29H38c0-.43,0-.86,0-1.29a2.76,2.76,0,0,0-.59-1.72A2.21,2.21,0,0,0,36,30.51a1.46,1.46,0,0,0-1.2.34,1.52,1.52,0,0,0-.36,1,1.65,1.65,0,0,0,.35,1.22,2.18,2.18,0,0,0,1.63.45l.26.72c-7.38.52-7.48,6.21-7.48,6.27A.79.79,0,0,0,29.93,41.3Z"/></g></g></g></svg>