<svg xmlns="http://www.w3.org/2000/svg" viewBox="0 0 76.54 96.38"><defs><style>.cls-1{isolation:isolate;}.cls-2{mix-blend-mode:multiply;}.cls-3{fill:#005ca7;}.cls-4{fill:#fff;}</style></defs><g class="cls-1"><g id="レイヤー_2" data-name="レイヤー 2"><g id="レイヤー_1-2" data-name="レイヤー 1"><g class="cls-2"><rect class="cls-3" width="76.54" height="96.38" rx="4.9"/></g><path class="cls-4" d="M17.29,9.33c.75,0,1.13.29,1.13.83a1.71,1.71,0,0,1-.08.47,9.52,9.52,0,0,1-4.43,5.22.61.61,0,0,1-.3.09.51.51,0,0,1-.49-.51.56.56,0,0,1,.32-.49,8.35,8.35,0,0,0,2.32-1.88,6.92,6.92,0,0,0-1-.83.47.47,0,0,1,.27-.88.6.6,0,0,1,.32.1,9.21,9.21,0,0,1,1.08.83,7.27,7.27,0,0,0,.9-1.78.35.35,0,0,0,0-.13c0-.1-.07-.14-.24-.14l-2.2,0A10,10,0,0,1,13.37,12a.62.62,0,0,1-.4.16.5.5,0,0,1-.5-.48.55.55,0,0,1,.22-.42,9.66,9.66,0,0,0,2.16-3,.52.52,0,0,1,.5-.35.48.48,0,0,1,.51.46.6.6,0,0,1,0,.22c-.11.25-.24.5-.38.76Zm.54-1A.37.37,0,0,1,18.21,8a.35.35,0,0,1,.27.12,4.68,4.68,0,0,1,.63.85.36.36,0,0,1,.07.22.37.37,0,0,1-.37.36.37.37,0,0,1-.31-.2,5.11,5.11,0,0,0-.59-.82A.29.29,0,0,1,17.83,8.3Zm1-.63a.35.35,0,0,1,.37-.31.41.41,0,0,1,.3.12,5.5,5.5,0,0,1,.62.8.52.52,0,0,1,.08.25.36.36,0,0,1-.36.35.43.43,0,0,1-.34-.2,7.35,7.35,0,0,0-.59-.81A.34.34,0,0,1,18.79,7.67Z"/><path class="cls-4" d="M25.47,9.09c.94,0,1.31.34,1.31.94a2.5,2.5,0,0,1-.06.51,7.63,7.63,0,0,1-4.19,5,.68.68,0,0,1-.29.07.53.53,0,0,1-.53-.53.54.54,0,0,1,.32-.48,6.68,6.68,0,0,0,3.58-4.09.62.62,0,0,0,0-.18c0-.17-.12-.23-.38-.23l-4.34.05a.51.51,0,0,1-.52-.53.47.47,0,0,1,.48-.49Zm.67-.79A.37.37,0,0,1,26.52,8a.35.35,0,0,1,.27.12,4.68,4.68,0,0,1,.63.85.35.35,0,0,1,.06.22.37.37,0,0,1-.37.36.37.37,0,0,1-.3-.2,5.12,5.12,0,0,0-.6-.82A.32.32,0,0,1,26.14,8.3Zm1-.63a.35.35,0,0,1,.37-.31.41.41,0,0,1,.29.12,4.39,4.39,0,0,1,.62.8.43.43,0,0,1,.08.25.36.36,0,0,1-.36.35.43.43,0,0,1-.33-.2,8.92,8.92,0,0,0-.59-.81A.29.29,0,0,1,27.1,7.67Z"/><path class="cls-4" d="M29.29,9.06a.49.49,0,0,1,.54-.47.47.47,0,0,1,.52.47v1c0,2.49-.64,4-1.88,5a.57.57,0,0,1-.4.16.53.53,0,0,1-.53-.52.56.56,0,0,1,.21-.43c1.07-1,1.54-2.07,1.54-4.27Zm3.36,4.73c0,.14,0,.21.13.21a.58.58,0,0,0,.17-.06,5.61,5.61,0,0,0,1.7-1.52.53.53,0,0,1,.44-.25.52.52,0,0,1,.53.49.56.56,0,0,1-.11.31,6.29,6.29,0,0,1-2.2,2,1.66,1.66,0,0,1-.78.22.94.94,0,0,1-.94-1.05V8.83a.49.49,0,0,1,.53-.46.48.48,0,0,1,.53.46Z"/><path class="cls-4" d="M40.34,11h2.74a.48.48,0,0,1,0,.94h-2.8a4.58,4.58,0,0,1-2.2,3.67.63.63,0,0,1-.33.1.52.52,0,0,1-.52-.52.55.55,0,0,1,.29-.47,3.49,3.49,0,0,0,1.71-2.78H36.28c-.26,0-.38-.24-.38-.47S36,11,36.28,11h3a2.53,2.53,0,0,0,0-.28v-1a15.83,15.83,0,0,1-1.9.19.48.48,0,0,1-.49-.5.47.47,0,0,1,.48-.48,19.64,19.64,0,0,0,4.33-.75l.17,0a.52.52,0,0,1,.52.52.47.47,0,0,1-.37.45,13.63,13.63,0,0,1-1.7.42Z"/><path class="cls-4" d="M47.6,14.25h2.3a.44.44,0,0,1,0,.88H44.37a.44.44,0,0,1,0-.88h2.29V11.42H45a.44.44,0,0,1,0-.87h4.32a.44.44,0,0,1,0,.87H47.6Z"/><path class="cls-4" d="M52.57,11.71a.5.5,0,0,1,0,.16.49.49,0,0,1-.51.45.43.43,0,0,1-.42-.28,8.94,8.94,0,0,0-.57-1.16.39.39,0,0,1-.06-.22.47.47,0,0,1,.49-.41.48.48,0,0,1,.41.23A6.49,6.49,0,0,1,52.57,11.71Zm3.65-1.61a.48.48,0,0,1,.52.43.5.5,0,0,1,0,.12A8,8,0,0,1,53,15.6a.51.51,0,0,1-.26.07.47.47,0,0,1-.45-.47.49.49,0,0,1,.28-.44,6.78,6.78,0,0,0,3.21-4.34A.42.42,0,0,1,56.22,10.1ZM54.3,11.28a.44.44,0,0,1,0,.15.48.48,0,0,1-.5.44.42.42,0,0,1-.41-.3,7.07,7.07,0,0,0-.54-1.14.38.38,0,0,1-.06-.21.44.44,0,0,1,.48-.4.48.48,0,0,1,.43.24A6.16,6.16,0,0,1,54.3,11.28Z"/><path class="cls-4" d="M63,9.33c.75,0,1.13.29,1.13.83a1.71,1.71,0,0,1-.08.47A8.86,8.86,0,0,1,60,15.73a.61.61,0,0,1-.3.08.51.51,0,0,1-.52-.51.57.57,0,0,1,.32-.49A7.72,7.72,0,0,0,63,10.53a.27.27,0,0,0,0-.12c0-.1-.07-.15-.24-.15l-2,0A9.57,9.57,0,0,1,59.29,12a.59.59,0,0,1-.42.17.48.48,0,0,1-.5-.47.64.64,0,0,1,.22-.44,9.29,9.29,0,0,0,2.17-3.09.53.53,0,0,1,.5-.35.5.5,0,0,1,.53.48.86.86,0,0,1,0,.21c-.12.28-.26.56-.41.84Z"/><path class="cls-4" d="M29.2,19.81l-3.81.55H25.3a.5.5,0,0,1-.5-.51.49.49,0,0,1,.47-.5c1.87-.23,4.19-.49,6.07-.66h.05a.47.47,0,0,1,.49.47.49.49,0,0,1-.42.49,3,3,0,0,0-1,.36,2.83,2.83,0,0,0-1.7,2.59c0,1,.69,1.61,1.95,1.77a.52.52,0,0,1,.49.53.5.5,0,0,1-.53.53,2.71,2.71,0,0,1-.41,0,2.8,2.8,0,0,1-2.54-2.76,3.61,3.61,0,0,1,1.47-2.81Zm1.33,1.45a.37.37,0,0,1,.37-.34.43.43,0,0,1,.26.1,4.75,4.75,0,0,1,.7.78.41.41,0,0,1,.08.25.37.37,0,0,1-.36.36.38.38,0,0,1-.3-.17,6.71,6.71,0,0,0-.66-.77A.28.28,0,0,1,30.53,21.26Zm.89-.72a.36.36,0,0,1,.37-.33.5.5,0,0,1,.28.11,4.45,4.45,0,0,1,.69.74.43.43,0,0,1,.1.27.35.35,0,0,1-.36.34.42.42,0,0,1-.32-.16c-.21-.27-.46-.54-.66-.75A.28.28,0,0,1,31.42,20.54Z"/><path class="cls-4" d="M34.9,20.94a.45.45,0,0,1,.5-.43.46.46,0,0,1,.51.43v3.69h1.3V19.14h-3a.42.42,0,0,1-.4-.46.42.42,0,0,1,.4-.46H41a.41.41,0,0,1,.39.46.41.41,0,0,1-.39.46H38.22v2.08h2.22a.41.41,0,0,1,.4.46.42.42,0,0,1-.4.46H38.22v2.49h3.13a.41.41,0,0,1,.4.46.42.42,0,0,1-.4.46H33.86a.42.42,0,0,1-.39-.46.41.41,0,0,1,.39-.46h1Z"/><path class="cls-4" d="M43.75,22.46a.3.3,0,0,1-.06.11.47.47,0,0,1-.4.22.43.43,0,0,1-.45-.41.59.59,0,0,1,.1-.31,8,8,0,0,0,1-3h-.65a.39.39,0,0,1-.36-.43.4.4,0,0,1,.36-.43h2.41a.39.39,0,0,1,.37.43.38.38,0,0,1-.37.43H44.9a9.45,9.45,0,0,1-.4,1.67h.74c.6,0,.81.25.81.85v2.57c0,.59-.19.85-.81.85h-.69c-.61,0-.81-.26-.81-.85V22.46ZM45,24.22c.14,0,.19,0,.19-.21V21.76c0-.17-.05-.22-.19-.22h-.17c-.15,0-.19.05-.19.22V24c0,.14,0,.21.19.21Zm3.76-3.49A6.81,6.81,0,0,0,49,20a.42.42,0,0,1,.41-.28.43.43,0,0,1,.45.37.35.35,0,0,1,0,.13c-.05.15-.12.32-.2.51h1.27a.33.33,0,0,1,.32.37.34.34,0,0,1-.32.37H49.62v.58h.93c.2,0,.29.19.29.37s-.09.36-.29.36h-.93v.57h1c.2,0,.29.18.29.36s-.09.36-.29.36h-1v.66H51a.39.39,0,0,1,0,.76H47.88v.17a.41.41,0,0,1-.45.36.4.4,0,0,1-.45-.36V22.37a.45.45,0,0,1-.78-.27.53.53,0,0,1,.16-.35,8.28,8.28,0,0,0,1.41-2.33h-.41c-.22,0-.26,0-.26.21V20c0,.25-.22.38-.46.38a.42.42,0,0,1-.46-.38v-.55c0-.59.23-.87,1.06-.87h.81l.18-.66a.44.44,0,0,1,.46-.35.46.46,0,0,1,.49.4.43.43,0,0,1,0,.11c0,.17-.09.33-.14.5h1.22c.83,0,1.06.28,1.06.87V20a.47.47,0,0,1-.92,0v-.32c0-.17,0-.21-.25-.21H48.74a10.51,10.51,0,0,1-.63,1.31Zm0,1.32v-.58h-.65c-.16,0-.2.06-.2.19v.39Zm0,1.3v-.57h-.85v.57Zm0,1.38v-.66h-.85v.66Z"/><path class="cls-4" d="M15.74,59.42h1.52c.17,0,.26.15.26.32a.28.28,0,0,1-.26.31H15.74v.88c0,.48-.26.71-.81.71a2.66,2.66,0,0,1-.45,0,.32.32,0,0,1-.27-.32.3.3,0,0,1,.3-.32h.08l.25,0c.12,0,.15,0,.15-.15v-.79H11.27c-.17,0-.25-.16-.25-.31s.08-.32.25-.32H15v-.34H12.78c-.63,0-.88-.22-.88-.71v-1c0-.49.25-.7.88-.7h1.1v-.36H11.4a.28.28,0,0,1-.26-.31.28.28,0,0,1,.26-.31h2.48V55.3c0-.19.18-.28.37-.28s.35.09.35.28v.35h2.52a.28.28,0,0,1,.27.31.28.28,0,0,1-.27.31H14.6v.36h1.21c.64,0,.88.21.88.7v1c0,.49-.24.71-.88.71h-.07Zm-2.87-2.23c-.2,0-.24.05-.24.19v.21h1.25v-.4Zm1,1.32V58.1H12.63v.24c0,.12,0,.17.24.17Zm-.18,2.05a.41.41,0,0,1,.12.26.36.36,0,0,1-.36.34.38.38,0,0,1-.25-.1l-.45-.4a.31.31,0,0,1-.13-.24A.34.34,0,0,1,13,60.1a.4.4,0,0,1,.24.08A4.12,4.12,0,0,1,13.7,60.56ZM16,57.38c0-.14,0-.19-.24-.19H14.6v.4H16Zm-.24,1.13c.2,0,.24,0,.24-.17V58.1H14.6v.41Z"/><path class="cls-4" d="M19.19,57.87V61.3c0,.19-.19.29-.39.29s-.38-.1-.38-.29V56.11c0-.51.21-.76.87-.76h.86c.66,0,.87.23.87.74v1c0,.56-.26.74-.87.74Zm1.08-1.75c0-.15-.05-.18-.26-.18h-.56c-.21,0-.26.05-.26.21v.17h1.08ZM20,57.28c.21,0,.26,0,.26-.17v-.22H19.19v.39Zm2.45.59c-.66,0-.87-.23-.87-.74v-1c0-.51.21-.74.87-.74h.93c.66,0,.87.25.87.76v4.52c0,.63-.29.87-.88.87a3.36,3.36,0,0,1-.56,0,.39.39,0,0,1-.32-.39.39.39,0,0,1,.39-.4H23a1.79,1.79,0,0,0,.34,0c.12,0,.18-.05.18-.23V57.87Zm1-1.55v-.17c0-.16-.06-.21-.27-.21H22.6c-.21,0-.25,0-.25.18v.2Zm-1.14.79c0,.15,0,.17.25.17h.89v-.39H22.35Z"/><path class="cls-4" d="M31.29,60.65a.34.34,0,0,1,0,.68H26.6c-.79,0-1.09-.3-1.09-.91v-4.1c0-.6.3-.9,1.09-.9h4.51a.31.31,0,0,1,.3.34.3.3,0,0,1-.3.33H26.72c-.33,0-.43.09-.43.37v3.83c0,.27.1.36.43.36Zm-4.4-2a.28.28,0,0,1-.27-.31.29.29,0,0,1,.27-.32h1.57a3.7,3.7,0,0,0,.07-.66h-.72c-.08.13-.17.25-.26.37a.35.35,0,0,1-.31.16.33.33,0,0,1-.34-.31.38.38,0,0,1,.08-.23,4.58,4.58,0,0,0,.55-1,.31.31,0,0,1,.31-.21.34.34,0,0,1,.36.31.25.25,0,0,1,0,.12l-.07.18H30.5a.28.28,0,0,1,.27.3.28.28,0,0,1-.27.31H29.28a3.6,3.6,0,0,1-.07.66h1.86a.29.29,0,0,1,.27.32.28.28,0,0,1-.27.31H29.39a3.07,3.07,0,0,0,1.38,1,.37.37,0,0,1,.28.35.39.39,0,0,1-.38.38.59.59,0,0,1-.17,0A3.83,3.83,0,0,1,28.86,59a3.35,3.35,0,0,1-1.57,1.39.38.38,0,0,1-.17,0,.35.35,0,0,1-.13-.68,2.41,2.41,0,0,0,1.27-1.12Z"/><path class="cls-4" d="M34.07,58.85c.54,0,.77.23.77.67v.94c0,.44-.23.68-.77.68h-.82c-.54,0-.77-.24-.77-.68V56.72c0-.5.22-.63.69-.65a4.11,4.11,0,0,0,.17-.67.35.35,0,0,1,.35-.27.32.32,0,0,1,.35.31v.07a4.84,4.84,0,0,1-.16.56H34c.53,0,.7.21.7.65v.84c0,.51-.3.67-.77.67h-.72v.62Zm-.29-1.26c.15,0,.19-.06.19-.21v-.49c0-.14,0-.2-.19-.2h-.41c-.15,0-.19.06-.19.2v.7Zm-.6,1.9v.8c0,.15,0,.19.19.19H34c.15,0,.19,0,.19-.19v-.6c0-.14,0-.2-.19-.2Zm4,1.81c0,.21-.18.31-.37.31a.33.33,0,0,1-.37-.31V57.53h-.32c-.14,0-.2.06-.2.17v2.84c0,.19-.18.28-.36.28s-.37-.09-.37-.28V57.61c0-.52.19-.72.85-.72h.4v-.75h-1.2a.35.35,0,0,1,0-.68h3.18a.34.34,0,0,1,0,.68H37.18v.75h.43c.66,0,.85.2.85.72V60a.59.59,0,0,1-.64.66h-.3a.34.34,0,0,1-.3-.35A.3.3,0,0,1,37.5,60h.16c.05,0,.07,0,.07-.09V57.7c0-.11-.06-.17-.2-.17h-.35Z"/><path class="cls-4" d="M42.87,60.21a.36.36,0,1,1,0,.72H40.29a.42.42,0,0,1-.42-.45.62.62,0,0,1,.22-.48,15.41,15.41,0,0,0,1.58-1.56,2,2,0,0,0,.62-1.28c0-.53-.27-.79-.71-.79a1.32,1.32,0,0,0-.94.45.39.39,0,0,1-.27.12.38.38,0,0,1-.4-.39.36.36,0,0,1,.14-.29,2.19,2.19,0,0,1,1.46-.61,1.41,1.41,0,0,1,1.56,1.49,2.34,2.34,0,0,1-.85,1.75c-.58.61-.93.92-1.37,1.32Z"/><path class="cls-4" d="M50.42,60.56a.41.41,0,0,1,.24.36.42.42,0,0,1-.41.41.43.43,0,0,1-.21,0A5.74,5.74,0,0,1,47.49,58a5.07,5.07,0,0,1-.85,1.82,6.05,6.05,0,0,1-1.76,1.55.47.47,0,0,1-.25.07.38.38,0,0,1-.37-.39.4.4,0,0,1,.21-.34A5.14,5.14,0,0,0,46,59.33,5.93,5.93,0,0,0,47,55.6a.41.41,0,0,1,.8,0c0,.26,0,.51,0,.74A5.7,5.7,0,0,0,50.42,60.56Z"/><path class="cls-4" d="M52.12,56.43a.26.26,0,0,1,.29.25.13.13,0,0,1,0,.06A10.45,10.45,0,0,0,52.17,59a11.68,11.68,0,0,0,.09,1.17s0,0,0,0a.28.28,0,0,1-.29.27.27.27,0,0,1-.29-.25A10.72,10.72,0,0,1,51.6,59a10.93,10.93,0,0,1,.24-2.31A.26.26,0,0,1,52.12,56.43Zm2.27,3.07a4,4,0,0,0,.75-.07h.06a.27.27,0,0,1,.27.28.26.26,0,0,1-.22.27,4.4,4.4,0,0,1-.87.08c-.92,0-1.31-.28-1.36-.88v0a.28.28,0,0,1,.29-.28.24.24,0,0,1,.25.22C53.61,59.39,53.76,59.5,54.39,59.5Zm.52-2.63a.26.26,0,0,1,.27.26.28.28,0,0,1-.26.28,12.59,12.59,0,0,1-1.41.11.27.27,0,0,1-.29-.27.26.26,0,0,1,.27-.27,12.24,12.24,0,0,0,1.38-.11Z"/><path class="cls-4" d="M58.49,56.7c0,.18,0,.35,0,.51a7,7,0,0,0,1-.13h.06a.26.26,0,0,1,.26.28.25.25,0,0,1-.22.26,6.62,6.62,0,0,1-1.07.14c0,.4.05.81.1,1.2a5.12,5.12,0,0,1,1.27.61.29.29,0,0,1,.15.25.29.29,0,0,1-.29.3.35.35,0,0,1-.21-.07,5.28,5.28,0,0,0-.9-.5,1,1,0,0,1-1.14.85c-.63,0-1.07-.29-1.07-.8s.41-.81,1.08-.81a4.91,4.91,0,0,1,.53,0,20.21,20.21,0,0,1-.11-2.13v-.31c0-.16.14-.24.29-.24a.25.25,0,0,1,.28.24Zm-.43,2.67a2.2,2.2,0,0,0-.56-.07c-.32,0-.48.12-.48.29s.14.27.47.27A.51.51,0,0,0,58.06,59.37Z"/><path class="cls-4" d="M62.44,58a1.7,1.7,0,0,1,.64-.13c.78,0,1.29.43,1.29,1.12a1.43,1.43,0,0,1-1.61,1.44c-.68,0-1.12-.35-1.12-.8a.63.63,0,0,1,.7-.64,1,1,0,0,1,1,.82.86.86,0,0,0,.49-.81c0-.36-.28-.64-.76-.64a2.55,2.55,0,0,0-1.62.65.37.37,0,0,1-.21.08.29.29,0,0,1-.28-.28.29.29,0,0,1,.13-.23,11.74,11.74,0,0,0,1.69-1.69c-.25,0-.57.07-.82.09l-.22,0a.26.26,0,0,1-.25-.27.25.25,0,0,1,.25-.26c.4,0,.93-.09,1.42-.16h.07a.33.33,0,0,1,.34.32.4.4,0,0,1-.09.23,10,10,0,0,1-1,1.13Zm.34,1.93c-.09-.32-.24-.49-.45-.49a.18.18,0,0,0-.18.19c0,.17.19.3.59.3Z"/><path class="cls-4" d="M10.76,61.86v-.35H51v.35Z"/><path class="cls-4" d="M18.15,67c.42,0,.63.16.63.46a1,1,0,0,1-.05.27,5.29,5.29,0,0,1-2.46,2.9.33.33,0,0,1-.16,0,.29.29,0,0,1-.28-.29.3.3,0,0,1,.18-.27,4.76,4.76,0,0,0,1.29-1,4,4,0,0,0-.58-.47.25.25,0,0,1-.12-.22.27.27,0,0,1,.27-.26.31.31,0,0,1,.18,0,6.92,6.92,0,0,1,.6.46,4,4,0,0,0,.5-1,.19.19,0,0,0,0-.07s0-.08-.14-.08H16.81a5.21,5.21,0,0,1-.84,1,.3.3,0,0,1-.22.09.28.28,0,0,1-.28-.26.35.35,0,0,1,.12-.24,5.14,5.14,0,0,0,1.2-1.69.31.31,0,0,1,.28-.19.27.27,0,0,1,.29.26.35.35,0,0,1,0,.12,4.11,4.11,0,0,1-.21.42Zm.3-.57a.2.2,0,0,1,.21-.18.19.19,0,0,1,.15.07,2,2,0,0,1,.35.47.19.19,0,0,1,0,.12.21.21,0,0,1-.21.2.22.22,0,0,1-.17-.11,2.87,2.87,0,0,0-.33-.46A.15.15,0,0,1,18.45,66.38ZM19,66a.19.19,0,0,1,.21-.17.27.27,0,0,1,.17.07,2.46,2.46,0,0,1,.34.44.27.27,0,0,1,0,.14.19.19,0,0,1-.2.19.21.21,0,0,1-.18-.11c-.1-.15-.23-.32-.33-.45A.16.16,0,0,1,19,66Z"/><path class="cls-4" d="M23.08,66.82c.52,0,.73.19.73.52a1.06,1.06,0,0,1,0,.29,4.24,4.24,0,0,1-2.32,2.78.41.41,0,0,1-.17,0,.29.29,0,0,1-.12-.56,3.76,3.76,0,0,0,2-2.27.38.38,0,0,0,0-.1c0-.1-.06-.13-.21-.13l-2.41,0a.29.29,0,0,1-.29-.3.26.26,0,0,1,.26-.27Zm.37-.44a.2.2,0,0,1,.21-.18.19.19,0,0,1,.15.07,2.3,2.3,0,0,1,.35.47.19.19,0,0,1,0,.12.21.21,0,0,1-.21.2.22.22,0,0,1-.17-.11,2.87,2.87,0,0,0-.33-.46A.15.15,0,0,1,23.45,66.38ZM24,66a.19.19,0,0,1,.21-.17.23.23,0,0,1,.16.07,2.51,2.51,0,0,1,.35.44.27.27,0,0,1,0,.14.19.19,0,0,1-.2.19.21.21,0,0,1-.18-.11c-.1-.15-.23-.32-.33-.45A.16.16,0,0,1,24,66Z"/><path class="cls-4" d="M25.59,66.8a.3.3,0,0,1,.6,0v.57a3.33,3.33,0,0,1-1.05,2.79.37.37,0,0,1-.23.09.29.29,0,0,1-.17-.53,2.8,2.8,0,0,0,.85-2.37Zm1.87,2.63c0,.08,0,.12.07.12a.26.26,0,0,0,.1,0,3.07,3.07,0,0,0,.94-.84.3.3,0,0,1,.25-.14.29.29,0,0,1,.29.27.32.32,0,0,1-.06.18,3.45,3.45,0,0,1-1.22,1.09,1,1,0,0,1-.43.12.52.52,0,0,1-.53-.58V66.68a.27.27,0,0,1,.3-.26.27.27,0,0,1,.29.26Z"/><path class="cls-4" d="M32.12,67.88h1.52a.26.26,0,0,1,0,.52H32.08a2.55,2.55,0,0,1-1.22,2,.33.33,0,0,1-.18,0,.29.29,0,0,1-.29-.29.29.29,0,0,1,.16-.26,1.92,1.92,0,0,0,.95-1.54H29.86c-.14,0-.21-.13-.21-.26s.07-.26.21-.26h1.68v-.73a8.73,8.73,0,0,1-1.06.1.27.27,0,0,1-.27-.27.26.26,0,0,1,.27-.27,11.11,11.11,0,0,0,2.41-.42H33a.29.29,0,0,1,.29.29.27.27,0,0,1-.2.25c-.27.08-.6.16-1,.23Z"/><path class="cls-4" d="M36.24,69.69h1.29a.22.22,0,0,1,.22.24.23.23,0,0,1-.22.25H34.45a.23.23,0,0,1-.22-.25.22.22,0,0,1,.22-.24h1.27V68.12h-.9a.22.22,0,0,1-.22-.25.22.22,0,0,1,.22-.24h2.4a.22.22,0,0,1,.22.24.22.22,0,0,1-.22.25h-1Z"/><path class="cls-4" d="M39.32,68.28a.28.28,0,0,1,0,.09.27.27,0,0,1-.28.24.22.22,0,0,1-.23-.15,5.61,5.61,0,0,0-.32-.65.19.19,0,0,1,0-.12.27.27,0,0,1,.28-.23.28.28,0,0,1,.23.13A4.47,4.47,0,0,1,39.32,68.28Zm2-.9a.27.27,0,0,1,.29.24s0,0,0,.07a4.49,4.49,0,0,1-2.08,2.75.25.25,0,0,1-.14,0,.27.27,0,0,1-.1-.51,3.75,3.75,0,0,0,1.79-2.41A.24.24,0,0,1,41.35,67.38ZM40.28,68a.25.25,0,0,1-.26.32.23.23,0,0,1-.23-.16,4.75,4.75,0,0,0-.3-.64.19.19,0,0,1,0-.11.25.25,0,0,1,.27-.22.26.26,0,0,1,.24.13A4.22,4.22,0,0,1,40.28,68Z"/><path class="cls-4" d="M45,67c.42,0,.63.16.63.46a1,1,0,0,1,0,.27,4.93,4.93,0,0,1-2.29,2.83.28.28,0,0,1-.17,0,.28.28,0,0,1-.28-.28A.31.31,0,0,1,43,70a4.28,4.28,0,0,0,2-2.38.19.19,0,0,0,0-.07s0-.08-.14-.08H43.77a5.15,5.15,0,0,1-.82,1,.32.32,0,0,1-.23.1.28.28,0,0,1-.28-.27.34.34,0,0,1,.13-.24,5.27,5.27,0,0,0,1.2-1.72.31.31,0,0,1,.28-.19.29.29,0,0,1,.3.27.61.61,0,0,1,0,.11,5.08,5.08,0,0,1-.23.47Z"/><path class="cls-4" d="M47.12,68.23,47,68.4a.27.27,0,0,1-.24.14.26.26,0,0,1-.26-.25.28.28,0,0,1,.05-.17,5.85,5.85,0,0,0,.76-1.89.29.29,0,0,1,.56.06.2.2,0,0,1,0,.07,7.13,7.13,0,0,1-.43,1.25c.11,0,.22.09.22.2v2.68c0,.13-.14.2-.27.2s-.27-.07-.27-.2Zm2.56.63v.42h.45a.21.21,0,0,1,.2.22.21.21,0,0,1-.2.23h-.45v.72a.24.24,0,0,1-.26.22.25.25,0,0,1-.27-.22v-.72h-.47c-.13,0-.19-.11-.19-.23a.2.2,0,0,1,.19-.22h.47v-.42l0-.65a5.46,5.46,0,0,1-1,1.4.29.29,0,0,1-.21.1.24.24,0,0,1-.24-.24.26.26,0,0,1,.08-.19A5.56,5.56,0,0,0,49,67.59h-.83a.22.22,0,0,1-.21-.24.23.23,0,0,1,.21-.25h1v-.85a.24.24,0,0,1,.27-.22.23.23,0,0,1,.26.22v.85h1.17a.22.22,0,0,1,.21.25.22.22,0,0,1-.21.24h-1a5.26,5.26,0,0,0,1.26,1.55.3.3,0,0,1,.14.25.29.29,0,0,1-.29.28.32.32,0,0,1-.2-.09,6,6,0,0,1-1.07-1.39Z"/><path class="cls-4" d="M53.68,68.47c.42,0,.57.13.57.51v.68c0,.39-.18.51-.46.51h-.21a.22.22,0,0,1-.2-.23.21.21,0,0,1,.2-.23h.1s.06,0,.06-.08v-.57c0-.1,0-.13-.13-.13h-.28v1.55a.23.23,0,0,1-.25.22c-.14,0-.27-.07-.27-.22V68.92h-.26c-.1,0-.13,0-.13.13v1a.23.23,0,0,1-.25.21c-.13,0-.26-.07-.26-.21V69c0-.38.15-.51.57-.51h.33v-.4h-1a.22.22,0,0,1-.2-.24.21.21,0,0,1,.2-.23h1v-.42h-.47c0,.07-.07.13-.1.19a.27.27,0,0,1-.24.15.24.24,0,0,1-.25-.23.34.34,0,0,1,0-.15,4,4,0,0,0,.37-.8.23.23,0,0,1,.23-.17.25.25,0,0,1,.26.23.29.29,0,0,1,0,.09c0,.07-.05.15-.08.24h.26V66.2c0-.15.13-.22.27-.22a.23.23,0,0,1,.25.22v.53H54a.2.2,0,0,1,.2.22c0,.12-.06.23-.2.23h-.67v.42h.87a.21.21,0,0,1,.2.23.22.22,0,0,1-.2.24h-.87v.4Zm1-1.85a.24.24,0,0,1,.27-.22.24.24,0,0,1,.26.22v2.7c0,.14-.13.21-.26.21s-.27-.07-.27-.21ZM56.08,70c0,.42-.16.59-.61.59a2,2,0,0,1-.35,0,.25.25,0,0,1-.2-.26.24.24,0,0,1,.24-.26h.05l.22,0c.07,0,.11,0,.11-.16V66.31a.28.28,0,0,1,.54,0Z"/><path class="cls-4" d="M57.86,66.39a.27.27,0,0,1,.29-.27.27.27,0,0,1,.29.27,8.81,8.81,0,0,0,.12,1.47,6.07,6.07,0,0,1,1-.39l.09,0a.27.27,0,0,1,.26.28.24.24,0,0,1-.18.25,5.62,5.62,0,0,0-1.32.58c-.43.28-.58.55-.58.81s.21.47,1,.47a6,6,0,0,0,1-.09h.06a.26.26,0,0,1,.27.28.28.28,0,0,1-.22.28,5.83,5.83,0,0,1-1.15.09c-1.05,0-1.58-.32-1.58-1a1.47,1.47,0,0,1,.82-1.24A8,8,0,0,1,57.86,66.39Z"/><path class="cls-4" d="M8.46,74.72a.48.48,0,0,1,.93,0l1.08,3.1a.31.31,0,0,1,0,.13c0,.17-.14.28-.35.28A.26.26,0,0,1,9.89,78l-.36-1.13H8.29L7.92,78a.27.27,0,0,1-.27.19c-.2,0-.32-.11-.32-.26a.77.77,0,0,1,0-.15Zm.43.22c-.07.27-.14.55-.22.79l-.22.7h.93l-.23-.71c-.07-.24-.15-.51-.22-.78Z"/><path class="cls-4" d="M11.14,74.65a.28.28,0,0,1,.32-.28.28.28,0,0,1,.31.28v3.29a.28.28,0,0,1-.31.29.29.29,0,0,1-.32-.29Z"/><path class="cls-4" d="M14.11,76.75a.26.26,0,0,1-.29.25.26.26,0,0,1-.29-.25v-.87h-.77a.23.23,0,0,1-.23-.25.24.24,0,0,1,.23-.25h.77v-.82a.26.26,0,0,1,.29-.25.26.26,0,0,1,.29.25v.82h1.13v-.89c0-.16.15-.24.3-.24a.26.26,0,0,1,.29.24v.89h.87a.23.23,0,0,1,.23.25.23.23,0,0,1-.23.25h-.87V76a2.48,2.48,0,0,1-1.47,2.43.34.34,0,0,1-.14,0,.28.28,0,0,1-.28-.28.28.28,0,0,1,.19-.26,1.89,1.89,0,0,0,1.11-2v-.12H14.11Z"/><path class="cls-4" d="M18.53,76.22a.28.28,0,0,1,.29.27.32.32,0,0,1,0,.13,3.35,3.35,0,0,1-.72,1.08.34.34,0,0,1-.23.1.29.29,0,0,1-.3-.27.29.29,0,0,1,.11-.22,2.77,2.77,0,0,0,.6-.91A.3.3,0,0,1,18.53,76.22ZM20,77.84c0,.51-.25.71-.68.71a1.84,1.84,0,0,1-.39,0,.26.26,0,0,1-.23-.28.28.28,0,0,1,.28-.3H19a1,1,0,0,0,.22,0c.11,0,.15,0,.15-.18v-2H17.94a.25.25,0,0,1-.24-.27.24.24,0,0,1,.24-.26h1.45v-.75c0-.17.16-.25.31-.25s.29.08.29.24v.76h1.44a.24.24,0,0,1,.24.26.25.25,0,0,1-.24.27H20Zm1.66-.59a.4.4,0,0,1,.09.23.3.3,0,0,1-.3.29.36.36,0,0,1-.28-.16,6.26,6.26,0,0,1-.6-1,.31.31,0,0,1,0-.13.26.26,0,0,1,.29-.25.29.29,0,0,1,.27.17A5.75,5.75,0,0,0,21.65,77.25ZM22,74.54a.54.54,0,1,1-.54-.54A.54.54,0,0,1,22,74.54Zm-.25,0a.29.29,0,1,0-.29.29A.29.29,0,0,0,21.71,74.54Z"/><path class="cls-4" d="M26.3,76.07a.26.26,0,0,1,.27.28.27.27,0,0,1-.27.29H22.65a.27.27,0,0,1-.27-.29.26.26,0,0,1,.27-.28Z"/><path class="cls-4" d="M28.12,75.83a.29.29,0,0,1,.24-.16.28.28,0,0,1,.13,0,6,6,0,0,1,1.06.64.33.33,0,0,1,.14.26.29.29,0,0,1-.28.3.31.31,0,0,1-.21-.08,8.85,8.85,0,0,0-.94-.6.32.32,0,0,1-.14-.14v2.16a.27.27,0,0,1-.3.26.27.27,0,0,1-.29-.26V74.42a.27.27,0,0,1,.29-.26.27.27,0,0,1,.3.26Z"/><path class="cls-4" d="M32.08,74.41a.18.18,0,0,1,.12,0,.15.15,0,0,1,.14.14.16.16,0,0,1-.06.13,2.19,2.19,0,0,0,0,3.4.18.18,0,0,1,.06.13.15.15,0,0,1-.14.14.15.15,0,0,1-.12,0,2.37,2.37,0,0,1,0-3.84Z"/><path class="cls-4" d="M33.06,76.58l-.05.09a.21.21,0,0,1-.18.1.19.19,0,0,1-.2-.18.22.22,0,0,1,0-.14,3.69,3.69,0,0,0,.48-1.31h-.3c-.11,0-.16-.09-.16-.19a.17.17,0,0,1,.16-.19H34a.18.18,0,0,1,.17.19.17.17,0,0,1-.17.19h-.44a5.83,5.83,0,0,1-.18.72h.35c.27,0,.36.11.36.37v1.13c0,.27-.08.38-.36.38h-.33c-.27,0-.36-.11-.36-.38v-.78Zm.56.81c.07,0,.09,0,.09-.1v-1c0-.08,0-.1-.09-.1h-.09c-.06,0-.08,0-.08.1v1c0,.06,0,.1.08.1Zm1.47-1.07A2.59,2.59,0,0,1,34.47,78a.24.24,0,0,1-.18.09.21.21,0,0,1-.22-.21.24.24,0,0,1,.08-.17,2.2,2.2,0,0,0,.51-1.43h-.29a.19.19,0,0,1,0-.38h.3a1.09,1.09,0,0,0,0-.18v-.65h-.21a.17.17,0,0,1-.17-.19c0-.1.05-.2.17-.2h1.68c.12,0,.17.1.17.2a.17.17,0,0,1-.17.19H35.9v.83h.36a.19.19,0,0,1,0,.38H35.9V78a.2.2,0,0,1-.22.18.19.19,0,0,1-.21-.18V76.32Zm0-.54v.16h.36v-.83h-.36Z"/><path class="cls-4" d="M38.94,76.47h0c.32,0,.45.13.45.42v.72c0,.09,0,.11.28.11s.35,0,.37-.31a.2.2,0,0,1,.22-.17.19.19,0,0,1,.2.19.73.73,0,0,1-.15.48.85.85,0,0,1-.65.18c-.6,0-.7-.1-.7-.39v-.77c0-.08,0-.1-.1-.1h-.43a1.94,1.94,0,0,1-1.36,1.32H37a.21.21,0,0,1-.21-.2.2.2,0,0,1,.14-.18A1.64,1.64,0,0,0,38,76.85l-.81,0a.17.17,0,0,1-.17-.19.16.16,0,0,1,.15-.18l.92,0a3.25,3.25,0,0,0,0-.33.2.2,0,0,1,.22-.18c.11,0,.22.06.21.18a3,3,0,0,1,0,.32Zm-.55-1.89c0-.11.1-.16.22-.16s.21,0,.21.16v.24h1c.38,0,.53.12.53.4v.14a.19.19,0,0,1-.21.18l-.1,0v.07c0,.34-.19.46-.68.46s-.61-.08-.61-.37v-.51h-.51a.17.17,0,0,1,.11.15.25.25,0,0,1,0,.08,1.74,1.74,0,0,1-1.1.87h-.06a.2.2,0,0,1-.19-.19.18.18,0,0,1,.14-.18,1.31,1.31,0,0,0,.84-.65.24.24,0,0,1,.08-.09h-.57c-.11,0-.15,0-.15.12v.21a.21.21,0,0,1-.42,0v-.28c0-.28.14-.4.52-.4h1Zm.75,1c0,.08,0,.1.22.1s.27,0,.29-.17.1-.13.19-.13h.08a.15.15,0,0,1,0-.07v-.07c0-.09,0-.12-.14-.12h-.63Z"/><path class="cls-4" d="M41.44,76V78c0,.11-.11.16-.21.16S41,78.14,41,78v-3c0-.29.1-.43.52-.43H42c.41,0,.51.13.51.42v.51a.36.36,0,0,1-.12.33A.66.66,0,0,1,42,76Zm.64-.92c0-.08,0-.1-.13-.1h-.38c-.1,0-.13,0-.13.1v.1h.64Zm-.13.6c.1,0,.13,0,.13-.09v-.11h-.64v.2Zm1.32,1.16h.37c.1,0,.14.08.14.17s0,.17-.14.17h-.37v.65c0,.11-.09.16-.19.16s-.2,0-.2-.16v-.65h-.41a1.3,1.3,0,0,1-.44.8.24.24,0,0,1-.15.06.2.2,0,0,1-.2-.19.19.19,0,0,1,.07-.15,1,1,0,0,0,.32-.52h-.32a.16.16,0,0,1-.14-.17.15.15,0,0,1,.14-.17h.36v-.3h-.2c-.1,0-.14-.09-.14-.17s0-.18.14-.18h1.61c.09,0,.14.09.14.18a.16.16,0,0,1-.14.17h-.25Zm-.77-.3v.3h.38v-.3Zm.87-.54c-.42,0-.52-.12-.52-.41V75c0-.29.1-.42.52-.42h.49c.42,0,.52.14.52.43v2.6c0,.36-.16.51-.49.51a1.36,1.36,0,0,1-.29,0,.19.19,0,0,1-.18-.2.2.2,0,0,1,.2-.22h0l.17,0c.09,0,.12,0,.12-.13V76ZM44,75c0-.08,0-.1-.13-.1H43.4c-.1,0-.12,0-.12.1v.1H44Zm0,.4h-.67v.11c0,.07,0,.09.12.09H44Z"/><path class="cls-4" d="M46,76.23a.17.17,0,0,1-.16-.18s0,0,0-.06a3.79,3.79,0,0,1-.65.42l-.1,0a.19.19,0,0,1-.19-.19.2.2,0,0,1,.12-.17,4,4,0,0,0,.57-.36c-.07-.08-.15-.15-.19-.19a.14.14,0,0,1-.08-.13.18.18,0,0,1,.19-.18.19.19,0,0,1,.12,0l.24.2a2.21,2.21,0,0,0,.25-.3.15.15,0,0,0,0-.06s0,0-.08,0h-.64a.15.15,0,0,1-.15-.17.16.16,0,0,1,.15-.18h.74c.28,0,.42.13.42.31a.5.5,0,0,1-.1.28,3,3,0,0,1-.5.57h1.56a.18.18,0,0,1,0,.36h-.17v.42h.8c.11,0,.16.09.16.19a.17.17,0,0,1-.16.19h-.8v.61c0,.1,0,.11.3.11s.36,0,.38-.23a.19.19,0,0,1,.2-.17.2.2,0,0,1,.22.18.64.64,0,0,1-.09.34c-.11.18-.34.24-.76.24S47,78,47,77.72V77h-.47a1.76,1.76,0,0,1-1.08,1.12.15.15,0,0,1-.09,0,.19.19,0,0,1-.19-.19.19.19,0,0,1,.12-.18A1.39,1.39,0,0,0,46,77h-.7a.18.18,0,0,1-.16-.19.17.17,0,0,1,.16-.19h.78a1.27,1.27,0,0,0,0-.2v-.22Zm1,0h-.41v.42H47Zm1-1.18a.19.19,0,0,1,.15-.07.2.2,0,0,1,.2.19.16.16,0,0,1,0,.12,2.35,2.35,0,0,1-.33.3,3.14,3.14,0,0,0,.55.34.23.23,0,0,1,.13.2.2.2,0,0,1-.2.2l-.11,0a3.93,3.93,0,0,1-1.59-1.54.31.31,0,0,1,0-.08.18.18,0,0,1,.2-.18.21.21,0,0,1,.19.12,2.09,2.09,0,0,0,.17.28l.24-.25a.18.18,0,0,1,.15-.07.2.2,0,0,1,.2.18.21.21,0,0,1,0,.12,2.27,2.27,0,0,1-.32.3l.18.18A2.27,2.27,0,0,0,48,75.05Z"/><path class="cls-4" d="M49.81,76.86c-.44,0-.6-.16-.6-.53v-.5c0-.37.16-.54.6-.54h.79v-.68c0-.12.11-.18.23-.18a.2.2,0,0,1,.22.18v.68h.81c.44,0,.6.17.6.54v.5c0,.37-.16.53-.6.53h-.81v1.19a.2.2,0,0,1-.22.18c-.12,0-.23-.06-.23-.18V76.86Zm.79-.39v-.79h-.74c-.18,0-.21,0-.21.19v.41c0,.15.05.19.21.19Zm.45,0h.76c.18,0,.21,0,.21-.19v-.41c0-.15,0-.19-.21-.19h-.76Z"/><path class="cls-4" d="M53,78.25a.16.16,0,0,1-.12,0,.16.16,0,0,1-.15-.14.18.18,0,0,1,.06-.13,2.17,2.17,0,0,0,0-3.4.15.15,0,0,1,.09-.27.21.21,0,0,1,.12,0,2.37,2.37,0,0,1,0,3.84Z"/><path class="cls-4" d="M55.69,74.43a.26.26,0,0,1,.29.25.13.13,0,0,1,0,.06A10.45,10.45,0,0,0,55.74,77a11.68,11.68,0,0,0,.09,1.17s0,0,0,0a.28.28,0,0,1-.29.27.27.27,0,0,1-.29-.25A10.72,10.72,0,0,1,55.17,77a10.93,10.93,0,0,1,.24-2.31A.26.26,0,0,1,55.69,74.43ZM58,77.5a4.13,4.13,0,0,0,.76-.07h.06a.26.26,0,0,1,.26.28.26.26,0,0,1-.22.27,4.3,4.3,0,0,1-.86.08c-.93,0-1.31-.28-1.37-.88v0a.28.28,0,0,1,.29-.28.25.25,0,0,1,.26.22C57.18,77.39,57.34,77.5,58,77.5Zm.52-2.63a.25.25,0,0,1,.27.26.28.28,0,0,1-.25.28,12.78,12.78,0,0,1-1.41.11.27.27,0,1,1,0-.54,12.06,12.06,0,0,0,1.37-.11Z"/><path class="cls-4" d="M62.07,74.7v.51a7.2,7.2,0,0,0,1-.13h.06a.27.27,0,0,1,.26.28.26.26,0,0,1-.22.26,6.77,6.77,0,0,1-1.07.14c0,.4,0,.81.09,1.2a5,5,0,0,1,1.28.61.3.3,0,0,1,.14.25.29.29,0,0,1-.29.3A.4.4,0,0,1,63.1,78a4.62,4.62,0,0,0-.9-.5c-.06.5-.45.85-1.14.85S60,78.1,60,77.59s.41-.81,1.09-.81a4.73,4.73,0,0,1,.52,0,20.21,20.21,0,0,1-.11-2.13v-.31a.3.3,0,0,1,.58,0Zm-.43,2.67a2.2,2.2,0,0,0-.56-.07c-.33,0-.49.12-.49.29s.14.27.47.27A.52.52,0,0,0,61.64,77.37Z"/><path class="cls-4" d="M65.46,76.33c.05-.12.08-.21.13-.35a.23.23,0,0,1,.21-.16A.21.21,0,0,1,66,76s0,0,0,.06a4.5,4.5,0,0,1-.35.83.42.42,0,0,1-.35.2.33.33,0,0,1-.32-.24,3.57,3.57,0,0,1-.12-.86,6.44,6.44,0,0,1,.19-1.47.27.27,0,0,1,.28-.2.25.25,0,0,1,.28.22s0,0,0,.07A6.93,6.93,0,0,0,65.43,76a3.41,3.41,0,0,0,0,.37Zm1.29-1.84a.27.27,0,0,1,.3-.26.28.28,0,0,1,.29.24,12.32,12.32,0,0,1,.11,1.61,2.79,2.79,0,0,1-1.09,2.38.4.4,0,0,1-.21.08.28.28,0,0,1-.28-.28A.31.31,0,0,1,66,78a2.32,2.32,0,0,0,.85-1.93,13.91,13.91,0,0,0-.1-1.56Z"/><path class="cls-4" d="M18.59,85.15a2.06,2.06,0,0,1-1.7,1.47h-.08a.24.24,0,0,1,0-.48,1.63,1.63,0,0,0,1.29-1c-.5,0-.69-.19-.69-.56V82.76c0-.37.19-.57.7-.57h1.52c.51,0,.7.2.7.57v1.83c0,.37-.19.55-.69.56V86c0,.1.06.14.42.14s.53,0,.57-.31a.25.25,0,0,1,.26-.2.24.24,0,0,1,.26.23v0c-.06.54-.28.7-1.11.7s-.93-.12-.93-.48v-.92Zm1.17-2.36c0-.11-.05-.15-.24-.15H18.14c-.19,0-.24,0-.24.15V83h1.86ZM17.9,83.86h1.86v-.39H17.9Zm1.62.85c.13,0,.24,0,.24-.16V84.3H17.9v.25c0,.12.05.16.24.16Z"/><path class="cls-4" d="M22.77,85.63c.31.3.8.42,2,.42a13.49,13.49,0,0,0,1.36,0h0a.24.24,0,0,1,.25.25.25.25,0,0,1-.25.26c-.39,0-.84,0-1.37,0-1.26,0-1.8-.14-2.18-.5a3.54,3.54,0,0,1-.53.5.32.32,0,0,1-.17.06.27.27,0,0,1-.27-.25.29.29,0,0,1,.15-.23,4.06,4.06,0,0,0,.5-.45v-1c0-.08,0-.11-.15-.11h-.22a.24.24,0,0,1-.22-.25.23.23,0,0,1,.22-.24h.34c.39,0,.55.17.55.52Zm-.07-2.91a.28.28,0,0,1,.08.19.29.29,0,0,1-.29.28.26.26,0,0,1-.21-.11,3.46,3.46,0,0,0-.33-.35.26.26,0,0,1-.1-.19.27.27,0,0,1,.27-.26.32.32,0,0,1,.2.07A2.69,2.69,0,0,1,22.7,82.72Zm1.68.7a2.46,2.46,0,0,1-.86,2.26.32.32,0,0,1-.18.06.25.25,0,0,1-.25-.25.27.27,0,0,1,.12-.21,1.33,1.33,0,0,0,.53-.75,4.39,4.39,0,0,1-.47.2l-.1,0a.24.24,0,0,1-.24-.25.23.23,0,0,1,.18-.22,6.24,6.24,0,0,0,.72-.27,6.38,6.38,0,0,0,0-.66V82.26a.26.26,0,0,1,.52,0Zm-.64-.19a.23.23,0,0,1,.05.15.24.24,0,0,1-.25.23.26.26,0,0,1-.22-.12,2.23,2.23,0,0,0-.25-.32A.23.23,0,0,1,23,83a.23.23,0,0,1,.25-.21.26.26,0,0,1,.18.07A1.79,1.79,0,0,1,23.74,83.23Zm.94-1a.26.26,0,0,1,.52,0v2.87c0,.09,0,.13.2.13s.3,0,.32-.24a.26.26,0,0,1,.51,0v0c-.06.48-.26.64-.85.64s-.7-.13-.7-.5Zm1.37,2a.27.27,0,0,1,.11.2.25.25,0,0,1-.25.24.27.27,0,0,1-.18-.07l-.38-.32a.22.22,0,0,1-.11-.19.23.23,0,0,1,.24-.23.27.27,0,0,1,.14,0A3.09,3.09,0,0,1,26.05,84.23Zm-.55-.71a.25.25,0,0,1-.25-.24.26.26,0,0,1,.1-.19,2.46,2.46,0,0,0,.3-.33.25.25,0,0,1,.45.14.18.18,0,0,1-.05.13,2.29,2.29,0,0,1-.37.42A.27.27,0,0,1,25.5,83.52Z"/><path class="cls-4" d="M27.51,82.48a.27.27,0,0,1,.29-.25.26.26,0,0,1,.29.25,1.79,1.79,0,0,1,0,.24C28,83.46,28,84.23,28,85s.21.85.56.85a1.68,1.68,0,0,0,1.36-.76.31.31,0,0,1,.24-.13.29.29,0,0,1,.3.28.27.27,0,0,1-.07.18,2.27,2.27,0,0,1-1.83,1c-.74,0-1.14-.37-1.14-1.41C27.4,84.17,27.45,83.22,27.51,82.48Z"/><path class="cls-4" d="M32.51,83.87a1.18,1.18,0,0,1,.43-.09.65.65,0,0,1,.7.48,10.79,10.79,0,0,1,1.25-.45l.1,0a.27.27,0,0,1,.26.27.26.26,0,0,1-.2.26c-.44.13-.88.28-1.3.45,0,.18,0,.4,0,.66a.26.26,0,0,1-.28.26.25.25,0,0,1-.27-.23c0-.19,0-.35,0-.48-.52.26-.64.49-.64.67s.18.31.75.31a6.35,6.35,0,0,0,1-.08h.06a.27.27,0,0,1,.27.28.28.28,0,0,1-.25.27,6,6,0,0,1-1,.08c-.94,0-1.34-.32-1.34-.81s.23-.78,1.12-1.23c-.06-.18-.17-.22-.35-.22a1.94,1.94,0,0,0-1,.51.27.27,0,0,1-.45-.2.29.29,0,0,1,.11-.22,4.7,4.7,0,0,0,.85-1l-.54,0a.26.26,0,1,1,0-.51c.23,0,.51,0,.8,0a5.24,5.24,0,0,0,.22-.58.27.27,0,0,1,.26-.18.25.25,0,0,1,.27.23.22.22,0,0,1,0,.08,2.26,2.26,0,0,1-.15.39,7.16,7.16,0,0,0,.73-.1h.06a.24.24,0,0,1,.24.24.25.25,0,0,1-.22.25c-.32,0-.69.11-1.06.14-.13.21-.25.4-.37.56Z"/><path class="cls-4" d="M37.12,82.12c.37,0,.54.15.54.42a1,1,0,0,1,0,.23,5,5,0,0,1-.37,1,1.52,1.52,0,0,1,.45,1.06c0,.57-.23.78-.63.78l-.2,0a.23.23,0,0,1-.19-.24.24.24,0,0,1,.21-.26H37c.1,0,.15,0,.15-.27a1.18,1.18,0,0,0-.33-.78.33.33,0,0,1-.09-.22.6.6,0,0,1,.06-.24,4.88,4.88,0,0,0,.29-.82.18.18,0,0,0,0-.06s0-.07-.1-.07h-.25c-.09,0-.12,0-.12.13v3.75c0,.13-.13.2-.27.2s-.27-.07-.27-.2V82.61c0-.34.15-.49.53-.49ZM38,83.4a.22.22,0,0,1-.2-.24c0-.13.07-.25.2-.25h.68v-.65a.25.25,0,0,1,.28-.24.24.24,0,0,1,.27.24v.65H40.3a.23.23,0,0,1,.2.25.22.22,0,0,1-.2.24H39.07c0,.2,0,.39,0,.59h.53c.4,0,.59.17.59.48A7.24,7.24,0,0,1,40,85.94c-.1.45-.34.61-.67.61a1.53,1.53,0,0,1-.45-.06.24.24,0,0,1-.2-.25.28.28,0,0,1,.25-.29H39a1.38,1.38,0,0,0,.26,0c.12,0,.19,0,.22-.19a5.08,5.08,0,0,0,.14-1.23c0-.1,0-.13-.14-.13H39a3.25,3.25,0,0,1-1.18,2.08.3.3,0,0,1-.2.08.27.27,0,0,1-.27-.25.31.31,0,0,1,.13-.24,3.16,3.16,0,0,0,1.09-2.72Z"/><path class="cls-4" d="M43.56,84.89c-.11-.16-.24-.35-.37-.57a13,13,0,0,1-1.32.16l-.24,0a.25.25,0,0,1-.24-.26.23.23,0,0,1,.23-.24c.44,0,.89-.08,1.34-.14a5,5,0,0,1-.21-.48,8.49,8.49,0,0,1-1.07.12.23.23,0,0,1-.23-.21v0a.22.22,0,0,1,.21-.24c.29,0,.61-.05.93-.1a4.91,4.91,0,0,1-.15-.51.13.13,0,0,1,0-.06.28.28,0,0,1,.53,0l.15.53a6.8,6.8,0,0,0,.71-.17l.09,0a.26.26,0,0,1,.25.26.21.21,0,0,1-.17.21,6.31,6.31,0,0,1-.72.18c.06.16.13.32.2.47.36-.07.69-.15,1-.23l.08,0a.27.27,0,0,1,.26.27.24.24,0,0,1-.19.22,6.86,6.86,0,0,1-.87.22,5.94,5.94,0,0,0,.58.81.31.31,0,0,1,.08.21.26.26,0,0,1-.28.26l-.13,0a3.13,3.13,0,0,0-1.08-.2c-.62,0-.79.18-.79.39s.21.41.94.41h.53a.24.24,0,0,1,.26.25.26.26,0,0,1-.25.26,4.11,4.11,0,0,1-.53,0c-1.06,0-1.53-.33-1.53-.91s.43-.86,1.36-.86a2.53,2.53,0,0,1,.68.08Zm.64-2.52a.2.2,0,0,1,.21-.18.21.21,0,0,1,.15.07,2.3,2.3,0,0,1,.35.47.19.19,0,0,1,0,.12.2.2,0,0,1-.38.09,3.66,3.66,0,0,0-.33-.46A.15.15,0,0,1,44.2,82.37Zm.53-.35a.19.19,0,0,1,.21-.17.23.23,0,0,1,.16.07,2.51,2.51,0,0,1,.35.44.27.27,0,0,1,0,.14.19.19,0,0,1-.2.19.21.21,0,0,1-.18-.11c-.1-.15-.23-.32-.33-.45A.13.13,0,0,1,44.73,82Z"/><path class="cls-4" d="M48.15,82.77h1.14a.25.25,0,0,1,.26.27.24.24,0,0,1-.26.25H48.16c0,.17,0,.35,0,.52.33,0,.65,0,.94-.08h0a.25.25,0,0,1,.26.26.26.26,0,0,1-.24.26c-.31,0-.64.07-1,.09,0,.22,0,.44,0,.66a4.55,4.55,0,0,1,1.25.54.33.33,0,0,1,.17.27.3.3,0,0,1-.29.3.29.29,0,0,1-.17-.06,5.15,5.15,0,0,0-.93-.48v0c0,.54-.47.8-1,.8s-1-.31-1-.77.37-.77,1.08-.77l.41,0a4.91,4.91,0,0,1,0-.53h-.29c-.3,0-.61,0-.78,0a.26.26,0,0,1-.24-.27.25.25,0,0,1,.25-.26h0c.19,0,.44,0,.73,0h.27c0-.18,0-.35,0-.53l-1.2,0a.25.25,0,0,1-.26-.27.25.25,0,0,1,.25-.26c.35,0,.77,0,1.2,0v-.51c0-.15.14-.22.28-.22a.24.24,0,0,1,.27.22Zm-.41,2.77v-.11a2.3,2.3,0,0,0-.45-.05c-.39,0-.5.12-.5.27s.12.25.45.25S47.74,85.75,47.74,85.54Z"/><path class="cls-4" d="M52.89,85.37a.55.55,0,0,1-.37.13.83.83,0,0,1-.86-.9.76.76,0,0,1,.78-.83,1,1,0,0,1,.3,0v-.4L51,83.5h-.22a.27.27,0,0,1-.27-.28.26.26,0,0,1,.26-.27l2-.1v-.61A.25.25,0,0,1,53,82a.25.25,0,0,1,.27.24v.59l1.46,0a.27.27,0,0,1,0,.54l-1.47,0c0,.29,0,.57,0,.86a1.28,1.28,0,0,1,.17.67,1.75,1.75,0,0,1-1.12,1.67l-.14,0a.29.29,0,0,1-.29-.29.29.29,0,0,1,.2-.25,1.41,1.41,0,0,0,.77-.7Zm-.69-.76a.37.37,0,0,0,.34.4c.17,0,.3-.12.3-.35a.36.36,0,0,0-.35-.4C52.32,84.26,52.2,84.39,52.2,84.61Z"/><path class="cls-4" d="M56.59,85.69a.84.84,0,1,1-1.67,0,.84.84,0,0,1,1.67,0Zm-1.33,0a.5.5,0,1,0,.5-.49A.5.5,0,0,0,55.26,85.69Z"/><g id="_97" data-name="97"><path class="cls-4" d="M30.8,34.35V32.71a.72.72,0,0,1,.72-.72h3.29v.41h-3.3v2.09a3.13,3.13,0,0,1,.6.24V33h2.7v.74h4.95V33h2.7v.16a4.2,4.2,0,0,1,.6-.3V32.4h-3.3V32h3.29a.73.73,0,0,1,.72.65,3.81,3.81,0,0,1,.59-.07,1.32,1.32,0,0,0-1.31-1.18H39.76v-.75H34.81v.75H31.52a1.32,1.32,0,0,0-1.32,1.32v1.64h.6Zm8.36-1.21H35.41V33h3.75Zm0-.74H35.41V32h3.75Zm-3.75-1.16h3.75v.15H35.41Z"/><path class="cls-4" d="M43.77,43.33h.13a3.59,3.59,0,0,1,.47,0V40.75a4.11,4.11,0,0,1-.6-.08Z"/><path class="cls-4" d="M31.52,49.45a.72.72,0,0,1-.72-.72V41.32h-.6v7.41a1.32,1.32,0,0,0,1.32,1.32h11a3.54,3.54,0,0,1-.95-.6Z"/><path class="cls-4" d="M32.11,40.94a3.13,3.13,0,0,1-.6.24v7.17h9.25a3.92,3.92,0,0,1-.23-.6H32.11Z"/><path class="cls-4" d="M43.06,43.43v-3a4.2,4.2,0,0,1-.6-.3v3.48A3,3,0,0,1,43.06,43.43Z"/><path class="cls-4" d="M37.32,38.7a1.44,1.44,0,1,0-1.43-1.44A1.43,1.43,0,0,0,37.32,38.7Z"/><path class="cls-4" d="M37.93,38.85H36.64a.61.61,0,0,0-.63.28l-1.48,2.46a.6.6,0,0,0,1,.62l.5-.82v1.5a.9.9,0,0,0,0,.16v2.53a.6.6,0,0,0,.6.6.6.6,0,0,0,.6-.6V43.43h.07v2.15a.6.6,0,0,0,1.2,0V43.09a.45.45,0,0,0,0-.2V41.51l.43.7a.6.6,0,1,0,1-.62l-1.48-2.46A.61.61,0,0,0,37.93,38.85Z"/><path class="cls-4" d="M44.59,33.16a3.5,3.5,0,0,0-3.5,3.5,3.86,3.86,0,0,0,.1.84L40,38.12h1.37a3.5,3.5,0,1,0,3.18-5Zm1.82,4.56-.67.68-1-1-1,1L43,37.72l1-1-1-1,.67-.67,1,1,1-1,.67.67-1,1Z"/><path class="cls-4" d="M46,44.81a2.91,2.91,0,0,0-4.1-.07,2.74,2.74,0,0,0-.44.54l-1-.33.79.82a2.9,2.9,0,1,0,4.79-1Zm-.68,2.92-.56.56-.86-.86-.85.86-.56-.56.86-.86L42.48,46l.56-.55.85.86.86-.86.56.55-.86.86Z"/><path class="cls-4" d="M32.58,35.82a2.89,2.89,0,0,0-2.09-.88,2.85,2.85,0,0,0-2,.81,2.9,2.9,0,0,0,4,4.17,2.53,2.53,0,0,0,.44-.55l1,.34-.79-.82A2.9,2.9,0,0,0,32.58,35.82Zm-.67,2.82-.55.56-.86-.86-.86.86-.56-.56.86-.85-.86-.86.56-.56.86.86.86-.86.55.56-.86.86Z"/></g></g></g></g></svg>