<svg xmlns="http://www.w3.org/2000/svg" viewBox="0 0 48 48"><defs><style>.cls-1{fill:#fff;}</style></defs><g id="レイヤー_2" data-name="レイヤー 2"><g id="レイヤー_2-2" data-name="レイヤー 2"><path class="cls-1" d="M14.18,0A14.19,14.19,0,0,0,0,14.18V33.82A14.19,14.19,0,0,0,14.18,48H33.82A14.19,14.19,0,0,0,48,33.82V14.18A14.19,14.19,0,0,0,33.82,0ZM37.09,8.73a2.18,2.18,0,1,1-2.18,2.18A2.19,2.19,0,0,1,37.09,8.73ZM24,12A12,12,0,1,1,12,24,12,12,0,0,1,24,12Zm0,2.18A9.82,9.82,0,1,0,33.82,24,9.84,9.84,0,0,0,24,14.18Z"/></g></g></svg>