<svg xmlns="http://www.w3.org/2000/svg" viewBox="0 0 48 48"><defs><style>.cls-1{fill:#fff;}</style></defs><g id="レイヤー_2" data-name="レイヤー 2"><g id="レイヤー_2-2" data-name="レイヤー 2"><path class="cls-1" d="M4.36,0A4.36,4.36,0,0,0,0,4.36V43.64A4.36,4.36,0,0,0,4.36,48H43.64A4.36,4.36,0,0,0,48,43.64V4.36A4.36,4.36,0,0,0,43.64,0Zm7.38,4.85h2.51l1,4.7c.25,1.15.44,2.14.56,2.95h.08c.09-.58.27-1.56.57-2.94l1-4.71H20L17.1,15.21v5H14.61v-5ZM22.9,8.76a3.47,3.47,0,0,1,2,.51A2.93,2.93,0,0,1,26,10.87a9.85,9.85,0,0,1,.35,2.89v1.63A10.17,10.17,0,0,1,26,18.27a2.78,2.78,0,0,1-1.1,1.59,3.62,3.62,0,0,1-2.05.5,3.69,3.69,0,0,1-2.09-.51,2.75,2.75,0,0,1-1.08-1.59,10.52,10.52,0,0,1-.32-2.87V13.76a9.55,9.55,0,0,1,.36-2.9,2.93,2.93,0,0,1,1.15-1.6A3.65,3.65,0,0,1,22.9,8.76ZM27.64,9h2.52V17.2a2.48,2.48,0,0,0,.17,1.07.56.56,0,0,0,.55.32,1.07,1.07,0,0,0,.63-.2,1.23,1.23,0,0,0,.45-.51V9h2.52v11.2h-2l-.22-1.37h-.05a2.58,2.58,0,0,1-2.41,1.56,1.92,1.92,0,0,1-1.65-.74,3.93,3.93,0,0,1-.53-2.28Zm-4.8,1.52a.74.74,0,0,0-.72.55,5.5,5.5,0,0,0-.21,1.77v3.49a5.83,5.83,0,0,0,.2,1.79.77.77,0,0,0,1.47,0,5.47,5.47,0,0,0,.21-1.79V12.82a5.41,5.41,0,0,0-.21-1.77A.75.75,0,0,0,22.84,10.5ZM10.42,22.3H37.58a3.89,3.89,0,0,1,3.87,3.88V39.76a3.89,3.89,0,0,1-3.87,3.88H10.42a3.89,3.89,0,0,1-3.87-3.88V26.18A3.89,3.89,0,0,1,10.42,22.3ZM24.1,26.18V39.6h1.75l.22-.89h.05a1.73,1.73,0,0,0,.74.75,2.13,2.13,0,0,0,1.09.28,1.68,1.68,0,0,0,1.59-1,7.14,7.14,0,0,0,.51-3.11v-1.5h0a13.11,13.11,0,0,0-.19-2.48,2.44,2.44,0,0,0-.63-1.3A1.65,1.65,0,0,0,28,30a2,2,0,0,0-1.09.33,2.28,2.28,0,0,0-.79.87h0v-5Zm-12.73.48v1.71h2.11V39.6h2.08V28.37h2.12V26.66ZM33.88,30a2.48,2.48,0,0,0-2.24,1A5.68,5.68,0,0,0,31,34.06v1.65a5.8,5.8,0,0,0,.64,3,2.42,2.42,0,0,0,2.21,1,3,3,0,0,0,2-.65,2.49,2.49,0,0,0,.72-2,2.82,2.82,0,0,0,0-.34l-1.84-.11a3.22,3.22,0,0,1-.19,1.24.68.68,0,0,1-.66.37.63.63,0,0,1-.52-.21,1.28,1.28,0,0,1-.22-.67,11.2,11.2,0,0,1-.06-1.36v-.48h3.56V34a9,9,0,0,0-.24-2.34,2.15,2.15,0,0,0-.82-1.25A3,3,0,0,0,33.88,30ZM17,30.14v7.07a3.31,3.31,0,0,0,.45,1.93,1.6,1.6,0,0,0,1.38.62,2.17,2.17,0,0,0,2-1.32H21l.18,1.16h1.67V30.14H20.68v7.52a1,1,0,0,1-.37.43,1,1,0,0,1-.54.17.47.47,0,0,1-.46-.27,2.15,2.15,0,0,1-.14-.9v-7Zm16.8,1.27a.61.61,0,0,1,.5.19,1.18,1.18,0,0,1,.22.66,9.93,9.93,0,0,1,.06,1.38v.68H33.07v-.68c0-.61,0-1.08,0-1.38a1.29,1.29,0,0,1,.22-.65A.61.61,0,0,1,33.84,31.41Zm-6.75.06a.59.59,0,0,1,.5.26,2,2,0,0,1,.25.85c0,.4.06,1,.06,1.72v1.21a11.44,11.44,0,0,1-.08,1.62,1.6,1.6,0,0,1-.29.84.66.66,0,0,1-.53.25,1,1,0,0,1-.49-.13.92.92,0,0,1-.36-.37V32.35a1.29,1.29,0,0,1,.37-.63A.78.78,0,0,1,27.09,31.47Z"/></g></g></svg>