<svg xmlns="http://www.w3.org/2000/svg" viewBox="0 0 48 48"><defs><style>.cls-1{fill:#fff;}</style></defs><g id="レイヤー_2" data-name="レイヤー 2"><g id="レイヤー_2-2" data-name="レイヤー 2"><path class="cls-1" d="M42.29,0H5.71A5.71,5.71,0,0,0,0,5.71V42.29A5.71,5.71,0,0,0,5.71,48H42.29A5.71,5.71,0,0,0,48,42.29V5.71A5.71,5.71,0,0,0,42.29,0ZM30.46,16a.42.42,0,0,1,.4.42v4.87a.42.42,0,0,1-.4.42H25.14v9.36a3.11,3.11,0,0,0,3.18,3.08,7.59,7.59,0,0,0,4.22-1.32.34.34,0,0,1,.2-.06.46.46,0,0,1,.2,0,.42.42,0,0,1,.2.36v4.23a.36.36,0,0,1-.13.29c-.11.11-2.93,2.3-8.72,2.3-6.95,0-7.15-7.89-7.15-8.79v-9.5h-3a.4.4,0,0,1-.4-.4V17.23a.39.39,0,0,1,.26-.37c.06,0,6.28-2.51,6.28-8.47A.4.4,0,0,1,20.64,8l4.1,0a.4.4,0,0,1,.4.4V16Z"/></g></g></svg>